<svg version="1.1" id="Asset" xmlns="http://www.w3.org/2000/svg" xmlns:xlink="http://www.w3.org/1999/xlink" x="0px" y="0px"
	 viewBox="0 0 2340 1560" enable-background="new 0 0 2340 1560" xml:space="preserve">
<filter id="filter_blur1" x="-20%" y="-20%" width="140%" height="140%" filterUnits="objectBoundingBox" primitiveUnits="userSpaceOnUse" color-interpolation-filters="linearRGB">
	<feGaussianBlur stdDeviation="8 8" x="0%" y="0%" width="100%" height="100%" in="dropShadow" edgeMode="none" result="blur"/>
</filter>
<g>
	<path fill-rule="evenodd" clip-rule="evenodd" fill="#B1BAC9" d="M493.9,932.8c23.3,228.7,664.3,163.6,375.5,339.9
		c-172,105,154.9,252.5,463.6,270.4c209.8,12.1,389.5-49.6,488.5-165.9c241.2-283.3-47-599.5-92.7-629.6
		c-45.8-30.1-139.1-52.6-173.3,13.5c-34.2,66.2-365.2,117.3-462.4-102.4C996,438.9,776.1,518.9,716,552.7
		C655.8,586.4,470.5,704,493.9,932.8z"/>
	<path fill-rule="evenodd" clip-rule="evenodd" fill="#DAEDFC" d="M497.4,904.6c23.3,228.7,664.3,163.6,375.5,339.9
		c-172,105,154.9,252.5,463.6,270.4c209.8,12.1,389.5-49.6,488.5-165.9c241.2-283.3-47-599.5-92.7-629.6
		c-45.8-30.1-139.1-52.6-173.3,13.5c-34.2,66.2-365.2,117.3-462.4-102.4c-97.2-219.7-317.1-139.7-377.2-106
		C659.3,558.2,474,675.9,497.4,904.6z"/>
</g>
<g id="man3">
	<g>
		<path fill="#81ADE7" d="M1728,1048.9l2,14c0,0-2.1,21.8-16.4,23.3c-14.3,1.5-19.1-11.9-19.1-11.9l5.4-29.4L1728,1048.9z"/>
		<g>
			<path fill="none" d="M1720.9,1109.5c-0.8,2.8-1.5,5.7-2.1,8.4C1719.9,1115.6,1720.4,1112.7,1720.9,1109.5z"/>
			<path fill="#00001F" d="M1720.9,1109.5c2.2-7.8,5.2-15.3,7.8-17.5c1.2-1,1.7-4.1,2-7.9C1722.3,1089.8,1722,1100.7,1720.9,1109.5z
				"/>
			<path fill="#A36468" d="M1730,1063c0,0-3.8,20.1-35.5,11.4c-4.7,13.8-19,36-22.4,39.4c-2.4,2.4-10.4,19-9.2,30.4
				c2.6,4.5,8.4,10.2,20.5,4.6c0,0,20.2-7.9,35.3-30.8c0,0,0,0,0,0c0.6-2.7,1.3-5.6,2.1-8.4c1.2-8.8,1.4-19.6,9.8-25.4
				C1731.2,1075.4,1730,1063,1730,1063z"/>
			<path fill="#00001F" d="M1683.4,1148.7c-12.1,5.5-17.9-0.2-20.5-4.6c0.5,4.6,2.5,8.3,7,9.9c15.6,5.6,46.2-20.7,47.8-30.9
				c0.2-1.6,0.6-3.4,1-5.2c0,0,0,0,0,0C1703.6,1140.8,1683.4,1148.7,1683.4,1148.7z"/>
		</g>
	</g>
	<g>
		<path fill="#81ADE7" d="M1583.3,1002.5c0,0,4.6,12.3-7.9,23.9c2,18.1,18.7,26,41.1,23.4c7-13.7,6.9-19.6,6.9-19.6
			s-5-10.8-7.6-32.7C1604.1,994.5,1583.3,1002.5,1583.3,1002.5z"/>
		<g>
			<path fill="#A36468" d="M1547.5,1073.5c12.4-3.2,21.8-11.2,28.4-14.1s18.1-1.3,24.5-1.1c26,3,27.4-7.7,27.4-7.7
				c0.1-7.3,1.2-21-4.3-20.3c-2.1,4.4-17.1,17.2-42.9,7.9c-0.5-3.7-0.3-10.9-5.1-14.5c-2.5-1-11.2,10.7-24.7,16.9
				c-13.6,6.2-48.5,16-43.9,32.1C1519.3,1079,1535.1,1076.6,1547.5,1073.5z"/>
			<path fill="#00001F" d="M1627.8,1050.5c0,0-1.4,10.7-27.4,7.7c-6.5-0.2-18-1.9-24.5,1.1s-16,11-28.4,14.1
				c-12.4,3.2-28.2,5.5-40.6-0.9c0,0,7,13.2,39.4,4.2c18-5.5,25.6-14.7,33.7-15.2c8.1-0.5,20.7,0.8,20.7,0.8s0.3,2.2,6.4,2.3
				S1630.4,1061.3,1627.8,1050.5z"/>
		</g>
	</g>
	<path fill="#444053" d="M1577.4,585.1c-18.3,177.1-19.1,176.8-22.3,230.6c-1.3,22.6,21.4,189.3,21.4,189.3s26.7,14.6,44.2-6.4
		c-4.5-33.4-0.9-175.4-5.1-182.6c1.3-3.3,27.1-99.2,27.1-99.2s3.9,118,3.3,131c-0.6,13,45,207.2,45,207.2s26.6,17.4,43.4-9.8
		c-18.1-147.3-25.5-181.1-25.1-188.8c2.1-42.6,55.9-192.4,8.4-246.5C1683,582.6,1577.4,585.1,1577.4,585.1z"/>
	<g>
		<path fill="#E1E7EF" d="M1657.2,381.1c-12.2-3.8-65.8-11-81.2,4.3c-15.4,15.3-61,135.4-61,135.4s-50.4,34.6-64.2,39.2
			c-13.8,4.6-4.4,33.9,1,37.2c5.5,9,56.6-22,82.3-36.4c28.9-12.2,51.9-100.1,51.9-100.1s3.3,32.8,6.1,47.4
			c2.8,14.7-14.5,66.4-14,74.6s14.5,29.2,61.8,42.1c-20.9,10.7-44.2,18.6-45.9,28c-1.7,9.4,5.8,29.9,17.9,31
			c12.1,1.1,96.6-38.9,106.8-55.2c10.2-16.3,42.5-165.6,17.3-177.7C1725.8,435.5,1693.2,392.3,1657.2,381.1z"/>
		<path fill="#E8A5A8" d="M1626.7,394C1626.7,394,1626.7,394,1626.7,394c0-0.3,0-0.6,0.1-0.8c0.3-2.5,0-4-0.7-5.1
			c-0.6-0.8-1.3-1.5-2.3-2.1c-1.5-12.2,42.3-26.8,42.3-26.8s0.3,13.8,1.5,23.8c0.4,3.1,0.9,5.9,1.4,7.7c0,0,0,0,0,0v0
			c3,5-1.9,20.7-30.7,21.7c-3.4-0.8-5.2-1.9-5.2-1.9S1626.2,402.3,1626.7,394z"/>
		<path fill="#9093AC" d="M1682.5,349.1c0,0,27.9-23.8,8.9-58c-8.2-7.4-38.6,14.8-38.6,14.8l-3.5,49.5L1682.5,349.1z"/>
		<path fill="#EFB7B9" d="M1604.7,294.5c0,0-5.9,18.3-5.3,32.3c-4.4,14.6-12.4,48.6-1.5,57c10.8,8.4,43.5,1.9,51.1-5.3
			c7.6-7.1,17.2-18.5,17.2-18.5s6.9,1.4,12.9-2.7c6-4,11.4-17.6-1.2-20.8c-4.9-0.4-10.8,5.8-12.5,8.9c-1.6,3.2-3.4,2.9-3.4,2.9
			l-2.9-1.6c0,0,3.3-17.9-3.7-28.5c-2-3.8-2.5-5.7-2.7-12.3C1655.7,301.4,1604.7,294.5,1604.7,294.5z"/>
		<path fill="#585268" d="M1691.4,291.1c0,0-4.6-36.5-58.7-22.8c-7.5,0.2-15-10.5-31,1.4c-8.3,6-11,50.4,56.1,35.2
			C1673.1,300.5,1684.6,290.2,1691.4,291.1z"/>
		<path fill="#67647E" d="M1638.3,412.4c0,0-3.1-0.9-5.2-1.9c-2-1.8-4-2.3-4.9-1s-5.1,13.5,2,17.7c7.1,4.2,11.6-1.2,11.3-6.1
			C1641.3,416.3,1643.5,413.9,1638.3,412.4z"/>
		<path fill="#FDFEFE" d="M1623.7,391.6c0.7-1.3,1.5-2.5,2.3-3.6c0.7,1.1,1.1,2.6,0.7,5.1c0,0.3,0,0.5,0,0.8c0,0,0,0,0,0.1l0,0
			c0.3,6.8,7,12.7,6.5,16.4c-1.4-0.5-5.2-3.5-6.5-0.4c-1.3,3-4.9,11.3-4.9,11.3S1616.3,407.7,1623.7,391.6z"/>
		<path fill="#FDFEFE" d="M1646.3,409.3c4-0.6,25.1-9.2,22.8-18.7c0,0,0,0,0,0c-0.6-1.8-1.1-4.6-1.4-7.7c3.6,2.4,6.9,6.8,8.4,15
			c2.9,16.1-12.9,35-30.7,34.6c-0.9-4.3-2.4-19.3-7-20.1C1639.7,410.1,1640.9,410.1,1646.3,409.3z"/>
		<path fill="#67647E" d="M1635.3,427.4c0,0,0.5,120.1,0.1,125.3c-0.4,5.2-8.4,12.3-16.5,15.6c-3.9-1.3-7.3-20.6-6.7-26.5
			c0.7-5.9,18.3-117.2,18.3-117.2L1635.3,427.4z"/>
		<path fill="#C5C8D7" d="M1686.7,518.9c0.1,18.8-6.9,78.5-10.1,82.2c-3.1,1.6-36.8,23.8-36.8,23.8c-2.3-0.6-4.4-1.3-6.6-1.9
			C1674,603.3,1679.5,559.5,1686.7,518.9z"/>
		<path fill="#C5C8D7" d="M1574,498.3c3.7-17.6,7.3-44.7,9.2-60.5c1.5,14.2,2.9,22.9,2.9,22.9S1583.9,475.5,1574,498.3z"/>
		<g>
			<path fill="#FFFFFF" d="M1590.2,670.5c-3.6-5.7-9.1-8.9-13-7.6l0,0l16.8-9.9c0.1-0.1,0.2-0.1,0.2-0.2c0.2-0.1,0.3-0.2,0.5-0.2
				l0.1-0.1l0,0c4.5-2.1,11.4,1.5,15.7,8.4c4.5,7.3,4.5,15.4,0,18.2c-0.3,0.2-0.6,0.3-0.9,0.5l0,0l-19.4,6.8
				C1594.2,684,1594.2,676.8,1590.2,670.5z"/>
			<path fill="#67647E" d="M1576,663.4c0.4-0.2,0.8-0.4,1.2-0.5c3.9-1.3,9.5,1.9,13,7.6c3.9,6.3,3.9,13.4,0,15.9l0,0
				c-3.9,2.4-10.3-0.7-14.2-7.1C1572.1,673,1572.1,665.8,1576,663.4z"/>
			<path fill="#EFB7B9" d="M1575.5,664.7c3.2,0,10.5,0.6,13.6,9.3c3.1,8.7-5.2,20.2-30,26.3c-4.9,1-15.4,7.1-20.8,12.2
				c-5.4,5.1-11.6,4.8-11.6,1.6c0-3.2,8.7-11.2,16.7-16c-1.9-1.2-9.9,2.1-13.2,5.2s-9.7,9-17.7,7.8c-4.5-0.6-16.5-5.6-14.8-9.5
				c10-7.9,14.3-24,23.7-24.2c9.4-0.2,24.9-5.6,35-9.1C1566.5,665.1,1575.5,664.7,1575.5,664.7z"/>
		</g>
		<g>
			<path fill="#FFFFFF" d="M1445,584.8c-3-6-8.7-9.3-13.1-7.8l0,0l13.1-8.7l0,0c0.3-0.2,0.6-0.4,0.9-0.6c4.9-2.5,11.6,1.1,15.1,8
				c3.5,6.9,2.4,14.5-2.4,17l-15.1,7.3C1447.4,597.3,1448.1,590.8,1445,584.8z"/>
			<path fill="#67647E" d="M1428.8,593c-3.2-6.4-2.2-13.4,2.3-15.7c0.3-0.1,0.6-0.3,0.9-0.4c4.4-1.5,10.1,1.8,13.1,7.8
				c3,6,2.3,12.5-1.5,15.2c-0.3,0.2-0.5,0.3-0.8,0.5C1438.3,602.7,1432,599.4,1428.8,593z"/>
			<path fill="#EFB7B9" d="M1440.8,586.5c-1.3-5-8.9-10.8-20.6-11.1s-21.8-8-25-9.6s-4.6,3.5-1.7,6.6c3,3.1,7,6.3,11.5,8
				c-7.9,3.5-15.9,9.4-22.6,13.1c-6.7,3.7-11.5,5.2-16,5.2c-4.5,0-11.2,5.2-1,12.3c10.2,7.1,23.6,14.3,38.9,6.9
				S1446.1,606,1440.8,586.5z"/>
		</g>
	</g>
</g>
<g id="man2">
	<g>
		<polygon fill="#141011" points="747.7,892.2 732.6,896.7 725.7,886.1 734.6,883.8 		"/>
		<path fill="#231F20" d="M745.3,840.7c0,0,2.8,8.9,5.5,15.5c1.8,4.4,37.6,29.3,60.7,38.1c2.1,0.8,2.3,2.1,2.3,7.4
			c0,0.7-7.6,4.3-14.1,5.2c-9.3,1.3-17.8,1-23.6,0.1c-19-3.2-37.7-14.6-41.2-16.8c0,0-2.3-1.1-2.4,1.2c0,1-0.1,4.4,0,5.2l-24.3-9.5
			c-0.1-0.1-2.2-7.8-2.5-11.8c-1.2-15.8,1.9-36.6,1.9-36.6L745.3,840.7z"/>
		<path fill="#141413" d="M754,424c0,0-4.1,163.3-4.7,232.1c-0.4,52.4,2.8,195.6,3.2,197.6c3.7,17.3-41.7,5.8-49.9,0
			c0,0-7.2-91.8-10.1-147.4c-0.4-8.1-2.7-38.9-3.1-44.6c-4.1-64.2-23-231.2-23-231.2L754,424z"/>
		<path fill="#231F20" d="M629.2,861.5c0,0-4.1,39.4-4.7,56.9c-0.4,12.9,14.6,27.6,32.3,28.7c4.6,0.2,9.4-0.2,9.6-0.2
			c6.4,0,9.3-8.1,6.4-25c-2.6-15-10.1-64.3-10.9-64.7L629.2,861.5z"/>
		<path fill="#1C1B1B" d="M705,411.2c-4.1,36.7-22.5,226.3-27.7,282.8c-5.7,60.9-4.4,187.2-4.4,187.2c0.4,7.4-17.5,17.4-17.5,17.4
			c-26-1-35.5-13.7-35.6-16.3c0,0-0.2-9.2-2.9-84.6c-1.6-44.9,3.6-118.1,3.5-121.2c-1.7-52.5-4.6-178-4.4-190.1
			c0.6-36.7,6.3-48.5,9.6-60.4c8.7-30.9,38.5-10.8,38.5-10.8L705,411.2z"/>
	</g>
	<g>
		<path opacity="0.33" fill="#141413" d="M705,411.2l-40.8,4.1c0,0-29.7-20.1-38.5,10.8c-3.4,11.9-9,23.6-9.6,60.4
			c-0.1,3.3,0.1,14.3,0.4,29.6c13.2,6.2,37.8,15,75.8,18C697.8,479.7,703.1,428.8,705,411.2z"/>
		<path fill="#2B2A28" d="M806.8,290.4c-3.2-17.4-22.5-68.2-32.1-90.8c-9.6-22.8-17.5-34.6-35.1-35c-12.3-0.3-36.5,4-37.1,25.9
			c-0.6,22,16.2,62.4,24.7,93.8C745.2,351,813.8,328.1,806.8,290.4z"/>
		<path fill="#CEE8F6" d="M589.2,276.9c0,0,5.7-72.7,62.8-100.2c16-7.7,45.8-7.7,45.8-7.7c21.1-3.1,62.8-9.2,57.4,79.5
			c-5.8,96.8-7.6,172.6-7.6,172.6s1.3,6.8-7,14.6c-6.9,6.4-33,21.3-49.3,27.1c-30.5,10.9-71.1-2.6-75.8-10.8
			c-4.7-8.2,9-43.7,4.4-79.9C615.2,335.9,589.2,276.9,589.2,276.9z"/>
		<path fill="#3E5C77" d="M698.6,237.8l0.7-20.5l-9.8-7.9l-5,1l-3.8,11.8l10.3,13.6c2,3.2,2.1,3.9,2.6,6c0,0,15.2,56.6,14.3,142.8
			c0,3.7,10.1,31.5,10.1,31.5s9.6-28.9,9.2-34.1C718,274.7,698.2,240.1,698.6,237.8z"/>
		<path fill="#383736" d="M699.2,161.5c0,0,14,27.8,18.4,80.8c2,24.1,0.1,54.1-2.7,87.9c-4.5,54.9,8.5,190.6,8.5,190.6
			s-0.6,3.6,4.1,1.7c17.5-7,32.1-26.5,32.1-26.5s-1.7-93.3-0.9-112c1.8-37.6,29.9-156.5,5.4-196.1c-12.5-20.3-19.8-22.7-19.8-22.7
			L699.2,161.5z"/>
		<path fill="#383736" d="M649.6,176.4c0,0-39.4,24.5-61.8,47.5c-11.4,11.7-14.4,22.1,4.3,70.5c8.3,21.5,23.8,87.8,23.1,94.9
			c-4.4,45.1-10.5,113.7-10.5,113.7S635,525.5,705,528.4c3.8,0.2,3.8-4.1,3.8-4.1s9.3-56.3,10.1-71.6c1.5-30.3-2.3-73.3-4-122.5
			c-0.3-8.7-41.1-70.1-61.8-106.9C642.7,204.9,644.9,179.9,649.6,176.4z"/>
	</g>
	<path fill="#DBB397" d="M643.3,131.8c0,6.2,0.2,57.6,0.2,57.6s1,20,23.4,23.6c18.9,3.1,27.9-14.2,27.9-14.2v-55.3
		C694.9,143.5,643.3,120.5,643.3,131.8z"/>
	<g>
		<path fill="#141413" d="M717.6,483.2l-0.6-8c1-104.6-0.9-117.6-3.8-147.6l1.5,0.8l-0.4,3.6C715.5,340.3,720.4,385.4,717.6,483.2z"
			/>
		<path fill="#636363" d="M700.4,177.9l5.8-8.2c0,0,3.9,2.1,4.7,2.7c4.9,3.3,7.5,8.3,9.4,11.5c3.8,6.4,19.4,51.7,19.4,51.7
			c1.2,2.6,0.3,3.2-1.2,4.4l-14.6,7l14.9,7c1.4,2,1.7,2,0.9,5c-6.1,20.5-25.5,73.3-25.5,73.3s4.1-63.3,3-81.8
			C714.6,205,700.4,177.9,700.4,177.9z"/>
		<path opacity="0.27" fill="#383736" d="M666.7,400.7c0-2.5,38.3-22.2,65.7-49.9c0.7-0.7,14.1-0.5,29.3-0.6
			c1.3-12.1,2.7-25.9,3.9-40.3c-10.4-0.2-21.8,1-33.2,5.1c-5.7,2-11.4,4.6-16.9,7.5c-0.2,2.6-0.4,5.1-0.6,7.7c0,0,0,0,0,0
			c0-1.2-0.8-3.3-2.2-6.2c-28.5,15.7-52.8,39.3-54.6,36.4c-21.9-34.1-47.2-105-47.2-105c-6.5-10-19.4,7.4-30.1,5.1c0,0,0,0,0,0
			c1.1,4.3,2.5,9.2,4.4,14.7c0.1,0.3,0.2,0.5,0.3,0.8c0.3,1,0.7,2.1,1.1,3.2c0.1,0.4,0.3,0.9,0.5,1.3c0.3,1,0.7,2,1.1,3
			c0.2,0.5,0.4,1,0.5,1.5c0.4,1.1,0.8,2.1,1.2,3.2c0.2,0.5,0.3,0.9,0.5,1.4c0.6,1.6,1.2,3.2,1.8,4.8c8.3,21.5,23.8,87.8,23.1,94.9
			c-4.4,45.1-10.5,113.7-10.5,113.7s17.1,13.7,59.8,21.1C665.6,499,666.5,443.2,666.7,400.7z"/>
		<path fill="#FFFFFF" d="M686.5,209.4c-0.9,1.1,0.6,2.6,2.2,4.6l16,13.8c1.5,1.2,2.8,2.6,2.6-1.5l-3.2-35.9
			c-1.5-15.6-8.3-16.8-8.3-16.8s0.4,3.8,0.3,8.6C695.9,188.6,692.9,201.4,686.5,209.4z"/>
		<path fill="#FFFFFF" d="M643.5,168.5c0,0-1.1,8.1,3.8,14.9c9,12.8,37.9,25.8,37.9,25.8c2.1,1.1,2.1,1.8,1.6,5.7l-2.3,21.3
			c-0.2,5.1-2.9,4.7-5,2.8c0,0-21.4-16.4-27.4-21.9c-14.3-13.1-14.4-21.2-13.9-26.7C638.9,183.7,643.5,168.5,643.5,168.5z"/>
		<path fill="#636363" d="M641.2,178l-16.5,15.9l14.2,64.4c0.4,1.7,0.7,3.3,2.4,3.9l21.2,1l-9.2,13.5c-0.9,1.8-2.8,4.1-0.2,6.1
			c33.7,25.9,32.3,23.9,62,46.5c0,0-8.9-24.3-33.6-62.8c-9.1-14.2-29.2-49.6-36.3-67.6C638.2,180.8,641.2,178,641.2,178z"/>
		<path fill="#383736" d="M684.3,306.2c25.8-9.9,69.1-18.4,94.9-23.2c16.6-3.1,24.5-0.9,24.5-0.9s14.9,29.3,1.7,39.8
			c-19.3,15.5-114.7,22.5-114.7,22.5s-7.6-5.2-11.1-17.2C677.8,320.8,680.5,307.6,684.3,306.2z"/>
		<path fill="#DBB397" d="M719.6,307.6c0,0,14-17.8,27.7-29.2c6.7-5.6,28.9,0.9,28.9,0.9s6.3,1.6,4.1,3.8c-1.2,1.2-5.6,0.9-10.9,5
			c-5.3,4.1-9.5,14.2-19.5,16.9c-2.3,0.6-16,12.3-17.8,12.5C723.8,318.9,719.6,307.6,719.6,307.6z"/>
		<path fill="#DBB397" d="M683.4,311.4c0,0-25.8-0.9-35.4,1.3c-9.6,2.2-5.7,7.9-5.7,7.9l14.4,20.6l31.9-12.7
			C688.7,328.5,693.1,317.1,683.4,311.4z"/>
		<path fill="#3F3E3D" d="M728.4,293.1c0,0-39.4,28-65.5,38.9c-4.4,1.8-8.3,3.1-11.8-6.6c-13.9-38.2-37.8-103.1-56.5-102.4
			c-16.3,0.7-24.7,28.9-15.3,57.3c10.5,31.5,25.7,66.9,39.4,88.5c18.8,29.5,37.5,23.8,45.5,19.5c48.6-25.8,77-63.6,85.2-72.9
			C751.2,313.4,743.5,291,728.4,293.1z"/>
		<path opacity="0.19" fill="#383736" d="M679.5,375.3c-8,4.2-26.7,10-45.5-19.5c-13.7-21.6-32.4-71-42.9-102.5
			c-5.5-16.6-1.8-28,3.3-30.2c-16.2,0.9-24.5,29-15.1,57.3c10.5,31.5,25.7,66.9,39.4,88.5c18.8,29.5,37.5,23.8,45.5,19.5
			c21.4-11.4,38.9-25.1,52.5-37.7C706,359.3,693.6,367.8,679.5,375.3z"/>
	</g>
	<g>
		<path fill="#F2C8AD" d="M715.5,95.5c2.7-4.6,3.5-9.6-0.2-13.3c0,0-23.6-20.5-39.7-19.6c-32.4,1.8-49.3,24.3-48.4,43.4
			c0.6,12.3,6.9,25.1,12.6,39.4c1.6,4,3.7,20.2,4.1,20.7l0.2-21.7c-0.5-0.7-1.8-4.5,3.1-8.9c0.5-0.5,1.5-0.5,2.6-0.3l3,18.3
			c1.1,4.1,1.8,13.3,2.8,16.8c1.7,5.9,3.5,6.6,8.8,9.5c5.5,2.9,10.7,6,24,10.5c5.6,1.9,18.9-2.1,19.8-6.8c1.1-5.8,3.5-19,6.6-41.5
			c0.7-4.8-1.4-8.4-1.5-11.5c0-1.6,2.5-9.8,2.5-11C715.7,112.2,715.6,101.4,715.5,95.5z"/>
		<path opacity="0.24" fill="#6D4827" d="M713.3,91.4l-10-9.9c-34.4-0.9-26.8-1.2-37.8,0.6c0,0-3.4,4.2-6.3,5.9
			c-2.7,1.6-11.4,1.7-12.1,1.7c-2.1,0,4.3,8.8,25,9.3c17,0.3,25.9,14.1,34.8,10c3.4-1.6,6.6-5.3,7.1-9.2
			C713.9,91.6,713.3,91.4,713.3,91.4z"/>
		<path opacity="0.17" fill="#6D4827" d="M685.6,189.2c-3.3-2.2-5.6-4.9-7.5-15.9c-1.6-9.4-3-23.8-6.1-28.1
			c-3.7-5.1-4.7-6.9-4.5-8.9c0.3-2.3,2.3-6.6,3.5-9.3c0.7-1.6-1.1-14-1.2-15.8c-0.8-13.6-20.2-18.6-28.6-20.4
			c-2-0.4-6.1-0.6-10.9-0.5c-2.3,5.1-3.3,10.5-3.1,15.6c0.6,12.2,6.8,24.9,12.4,39.1l4.4,2.8l0-3.5c-0.5-0.7-1.8-4.5,3.1-8.9
			c0.5-0.5,1.5-0.5,2.6-0.3l3,18.3c1.1,4.1,1.8,13.3,2.8,16.8c1.7,5.9,3.5,6.6,8.8,9.5c4.8,2.6,9.9,5.4,20.2,9.2
			C685,189,685.3,189.1,685.6,189.2z"/>
		<path fill="#492F15" d="M709.2,152.9c-1.9-2.6-21.6,1.4-24.2,5.2c-1.8,2.6-3.3,7.7-5.5,12c-2.4,4.3-16.6-2.1-16.9-11.5
			c-0.3-8.3,0.6-15.2-3.4-22.1c-1.9-4.7-4.7-13.4-4.5-23.3c0.2-7.8,13.3-20.3,17.1-19.7c7,1.2,11.7,3.5,20.8,5.4
			c6.2,1.3,12.3,7.4,17.4,3.7c7.1-5.1,12.1-13.6,5.3-20.4c0,0-23.6-20.5-39.7-19.6c-32.4,1.8-46,22.5-48.1,37.9
			c-1.8,13.3,6.4,28.5,10.6,41.1c1.3,4,5.4,23.9,5.8,24.4l0.2-21.7c-0.5-0.7-1.8-4.5,3.1-8.9c1.4-1.2,6.4,0.8,6.4,0.8
			c0,0.1,0.2,0.2,0.4,0.4c2.4,17.8-0.9,16.7-0.5,19.3c0.6,4.3-0.6,15.9,3.3,20c2.1,2.2,10.1,6.9,15.9,9.4c3.7,1.6,8.5,3.5,15.2,5.9
			c5.7,2,20.8-2,22-7.2c1-4.1,1.6-18.2,2.1-23.8C712.1,160.3,712.4,157.6,709.2,152.9z M708.5,169.3c-0.2,2.7-1.9,3.9-3.3,4.1
			c-0.7,0.1-0.5-0.5-1.9-1.4c-1.4-0.9-3.1-0.7-6.7,2.8c-1.1,1.1-3.6,3.3-7,2.5c-3.4-0.7-3.8-3.9-3-6c1.2-3.1,1.4-7.4,3-9.9
			c1.5-2.3,8.4-4.3,15.2-4.3C706.5,157.2,709,167,708.5,169.3z"/>
		<path opacity="0.36" fill="#DBB397" d="M643.7,130.3c-0.3,0.4-0.4,0.9-0.4,1.5c0,2.4,0,11.9,0.1,22.5c0.8,0.8,1.7,1.5,2.7,2.2
			c6.2,4.7,14.5,7.6,11.1-12C653.6,139.5,650.2,131.1,643.7,130.3z"/>
		<path fill="#6D4827" d="M634.7,78.2c0,0,16.8-15.4,35.5-18.4c19.9-3.2,42.4,15.1,50.4,24c3.8,4.2,1.9,13.2-10.7,20.9
			c-9.6,5.9-19.6-5.6-35-7.6c-27.9-3.6-31.7-13.8-31.7-13.8s4.1,2.7,8.8,2.7c4.3,0,6.2,0.8,6.2,0.8S648.9,74.4,634.7,78.2z"/>
		<path opacity="0.48" fill="#492F15" d="M705,101.8c-8.1,0-18.1-7.4-20.4-9.8c-2.3-2.4-6.1-4.2-11.8-5.1
			c-9.8-1.6-14.4-6.1-14.4-6.1s3.8,1.1,7.4,0.7c1.5-0.2,4.7-1.7,4.7-1.7s-13-1.1-19.6-6.7c-2.2-1.9-3.1-3.2-3.3-4.2
			c-7.8,4.7-13,9.5-13,9.5c14.2-3.8,23.6,8.7,23.6,8.7s-2-0.8-6.2-0.8c-4.7,0-8.8-2.7-8.8-2.7s3.8,10.3,31.7,13.8
			c15.4,2,25.3,13.5,35,7.6c3.9-2.4,6-5.2,7-8.1C713.1,99.4,708.7,101.8,705,101.8z"/>
		<path fill="#DBB397" d="M639.5,127.8c9.4-3.1,13.4,7.7,17.7,13.8c3.4,19.6-4.9,16.7-11.1,12c-4.3-3.2-7.5-7-8.9-9.8
			C633.5,136.8,634,129.6,639.5,127.8z"/>
		<path opacity="0.36" fill="#DBB397" d="M637.7,133.2c0,0,1.1-6.2,6.9-2.1c4.6,3.3,7.2,9.8,7.2,9.8s-2.7,2.4-1.3,3.7
			c1.3,1.3,2.7,3.4,1,4c-1.6,0.6-6.5-2.8-6.9-4.3c-1-4.3,4.3-4.3,4.3-4.3s-3.9-5.8-5.4-7.3C641.6,130.8,639.2,130.4,637.7,133.2z"/>
	</g>
</g>
<g>
	<g>
		<path fill="#2475FE" d="M1070.5,1260.8c-26.6,0-48.1-12.4-48.1-27.6v54.5c0,15.3,21.5,27.6,48.1,27.6c26.6,0,48.1-12.4,48.1-27.6
			v-54.5C1118.6,1248.5,1097.1,1260.8,1070.5,1260.8z"/>
		
			<ellipse fill="#36475D" stroke="#00E1FE" stroke-width="0.1509" stroke-miterlimit="10" cx="1070.5" cy="1233.2" rx="48.1" ry="27.6"/>
		
			<ellipse fill="#00E1FE" stroke="#00E1FE" stroke-width="2.613202e-002" stroke-miterlimit="10" cx="1070.5" cy="1233.2" rx="8.3" ry="4.8"/>
	</g>
	<g opacity="0.5">
		<polygon opacity="0.5" fill="#2475FE" points="978.7,435.3 1070.8,1231.8 514.8,704.9 		"/>
		<polygon opacity="0.5" fill="#2475FE" points="1494.9,1270.8 1070.8,1231.8 1958.8,1001.2 		"/>
		<polygon opacity="0.5" fill="#00B4FE" points="978.7,435.3 1070.8,1231.8 1958.8,1001.2 		"/>
		<polygon opacity="0.5" fill="#00E1FE" points="514.8,704.9 1070.8,1231.8 1494.9,1270.8 		"/>
	</g>
	
		<polygon fill="none" stroke="#00E1FE" stroke-width="0.4737" stroke-linecap="round" stroke-linejoin="round" stroke-miterlimit="10" points="
		978.7,435.3 1070.8,1231.8 514.8,704.9 	"/>
	
		<polygon fill="none" stroke="#00E1FE" stroke-width="0.4737" stroke-linecap="round" stroke-linejoin="round" stroke-miterlimit="10" points="
		1494.9,1270.8 1070.8,1231.8 1958.8,1001.2 	"/>
	
		<polygon fill="none" stroke="#00E1FE" stroke-width="0.4737" stroke-linecap="round" stroke-linejoin="round" stroke-miterlimit="10" points="
		978.7,435.3 1070.8,1231.8 1958.8,1001.2 	"/>
	
		<polygon fill="none" stroke="#00E1FE" stroke-width="0.4737" stroke-linecap="round" stroke-linejoin="round" stroke-miterlimit="10" points="
		514.8,704.9 1070.8,1231.8 1494.9,1270.8 	"/>
	<g>
		<path fill="#00E1FE" d="M978.7,435.3l980.1,565.9l-463.9,269.6L514.8,704.9L978.7,435.3 M978.7,434.4c-0.2,0-0.3,0-0.5,0.1
			L514.4,704.1c-0.3,0.2-0.5,0.5-0.5,0.8s0.2,0.7,0.5,0.8l980.1,565.9c0.1,0.1,0.3,0.1,0.5,0.1c0.2,0,0.3,0,0.5-0.1l463.9-269.6
			c0.3-0.2,0.5-0.5,0.5-0.8s-0.2-0.7-0.5-0.8L979.2,434.5C979.1,434.4,978.9,434.4,978.7,434.4L978.7,434.4z"/>
	</g>
</g>
<polygon opacity="0.7" fill="#36475D" points="1958.8,1001.2 1494.9,1270.8 514.8,704.9 978.7,435.3 "/>
<g>
	<g>
		<g>
			<g>
				<polygon fill-rule="evenodd" clip-rule="evenodd" points="1495.5,730 1493.8,727.7 1416.1,766.7 1417.7,769 				"/>
				<polygon fill-rule="evenodd" clip-rule="evenodd" points="1658.1,816 1498,727.5 1496.2,729.7 1656.2,818.2 				"/>
				
				<rect x="1494.6" y="606.8" transform="matrix(0.9999 -1.262646e-002 1.262646e-002 0.9999 -8.3113 18.9423)" fill-rule="evenodd" clip-rule="evenodd" width="2.9" height="121.8"/>
				<polygon fill-rule="evenodd" clip-rule="evenodd" points="1419.7,768.5 1416.9,767.7 1366.4,867.7 1369.1,868.5 				"/>
				<polygon fill-rule="evenodd" clip-rule="evenodd" points="1418.3,766.7 1339.3,725.5 1339.4,728.3 1418.3,769.5 				"/>
				<polygon fill-rule="evenodd" clip-rule="evenodd" points="1567.1,725.6 1565.2,723.5 1495.8,727.5 1497.7,729.7 				"/>
				<polygon fill-rule="evenodd" clip-rule="evenodd" points="1497.5,832.8 1498.1,728.1 1495.4,729 1494.8,833.7 				"/>
				<polygon fill-rule="evenodd" clip-rule="evenodd" points="1497.7,727.5 1405.1,592.6 1403.2,594.8 1495.8,729.7 				"/>
				<polygon fill-rule="evenodd" clip-rule="evenodd" points="1575.6,662.5 1572.7,662.2 1564.7,724.4 1567.5,724.7 				"/>
				<polygon fill-rule="evenodd" clip-rule="evenodd" points="1664.6,675.9 1566.3,723.1 1565.9,726 1664.2,678.7 				"/>
			</g>
			<g>
				<path fill-rule="evenodd" clip-rule="evenodd" fill="#E1FF00" stroke="#000000" stroke-width="1.5" stroke-miterlimit="10" d="
					M1646.1,818.5c3.5,13.5,21.3,11.8,22.2-2.1c0-0.3,0-0.5-0.1-0.8c-3.5-13.5-21.3-11.8-22.2,2.1C1646,818,1646,818.3,1646.1,818.5
					"/>
				<path fill-rule="evenodd" clip-rule="evenodd" fill="#E1FF00" stroke="#000000" stroke-width="1.5" stroke-miterlimit="10" d="
					M1484.4,606.9c-0.1-5.9,4.7-10.8,10.7-10.9c6-0.1,10.9,4.7,10.9,10.6c0.1,5.9-4.7,10.8-10.7,10.9
					C1489.4,617.6,1484.5,612.8,1484.4,606.9"/>
				<path fill-rule="evenodd" clip-rule="evenodd" fill="#E1FF00" stroke="#000000" stroke-width="1.5" stroke-miterlimit="10" d="
					M1362.3,858.4c-11.6,8.7-2.5,24.7,11,19.3C1384.9,869.1,1375.8,853.1,1362.3,858.4"/>
				<path fill-rule="evenodd" clip-rule="evenodd" fill="#E1FF00" stroke="#000000" stroke-width="1.5" stroke-miterlimit="10" d="
					M1347.1,718.9c-11.7-8.5-24.6,4.6-15.6,16c0,0,0,0,0,0C1343.2,743.4,1356.1,730.3,1347.1,718.9
					C1347.1,719,1347.1,718.9,1347.1,718.9"/>
				<path fill-rule="evenodd" clip-rule="evenodd" fill="#E1FF00" stroke="#000000" stroke-width="1.5" stroke-miterlimit="10" d="
					M1410.3,760.4c11.4-8.9,24.7,3.8,16.1,15.4c0,0,0,0,0,0C1414.9,784.7,1401.6,772,1410.3,760.4
					C1410.2,760.4,1410.3,760.4,1410.3,760.4"/>
				<path fill-rule="evenodd" clip-rule="evenodd" fill="#E1FF00" stroke="#000000" stroke-width="1.5" stroke-miterlimit="10" d="
					M1506.4,829.9c1.9,5.6-1.2,11.7-6.8,13.6c-5.7,1.9-11.8-1.2-13.7-6.8c-1.9-5.6,1.2-11.7,6.8-13.6
					C1498.4,821.2,1504.5,824.2,1506.4,829.9"/>
				<path fill-rule="evenodd" clip-rule="evenodd" fill="#E1FF00" stroke="#000000" stroke-width="1.5" stroke-miterlimit="10" d="
					M1489.6,736.6c4.5,3.9,11.3,3.5,15.3-0.9c4-4.4,3.6-11.2-0.9-15.1c-4.5-3.9-11.3-3.5-15.3,0.9
					C1484.7,725.9,1485.1,732.7,1489.6,736.6"/>
				<path fill-rule="evenodd" clip-rule="evenodd" fill="#E1FF00" stroke="#000000" stroke-width="1.5" stroke-miterlimit="10" d="
					M1396.9,601.7c-4.5-3.9-4.9-10.7-0.9-15.1c4-4.4,10.8-4.8,15.3-0.9c4.5,3.9,4.9,10.7,0.9,15.1
					C1408.2,605.3,1401.4,605.6,1396.9,601.7"/>
				<path fill-rule="evenodd" clip-rule="evenodd" fill="#E1FF00" stroke="#000000" stroke-width="1.5" stroke-miterlimit="10" d="
					M1563.3,662.7c-0.2-7,6.2-12.2,13-10.8c4.8,1,8.5,5.3,8.6,10.2c0.2,7-6.2,12.2-13,10.8C1567.1,671.9,1563.5,667.6,1563.3,662.7"
					/>
				<path fill-rule="evenodd" clip-rule="evenodd" fill="#E1FF00" stroke="#000000" stroke-width="1.5" stroke-miterlimit="10" d="
					M1568.4,714.1c-6.8-1.4-13.2,3.7-13.1,10.7c0.1,4.9,3.7,9.2,8.5,10.2c6.8,1.5,13.2-3.7,13.1-10.7
					C1576.8,719.4,1573.2,715.1,1568.4,714.1"/>
				<path fill-rule="evenodd" clip-rule="evenodd" fill="#E1FF00" stroke="#000000" stroke-width="1.5" stroke-miterlimit="10" d="
					M1657.6,668.5c12.6-7.1,23.9,7.5,13.6,17.7C1658.5,693.2,1647.3,678.7,1657.6,668.5"/>
			</g>
		</g>
		<g>
			<g>
				<polygon fill-rule="evenodd" clip-rule="evenodd" points="906,414 905.4,413.1 876.2,427.8 876.8,428.6 				"/>
				<polygon fill-rule="evenodd" clip-rule="evenodd" points="967.1,446.3 907,413.1 906.3,413.9 966.4,447.1 				"/>
				
					<rect x="905.7" y="367.7" transform="matrix(0.9999 -1.262646e-002 1.262646e-002 0.9999 -4.8594 11.4732)" fill-rule="evenodd" clip-rule="evenodd" width="1.1" height="45.8"/>
				<polygon fill-rule="evenodd" clip-rule="evenodd" points="877.5,428.4 876.5,428.2 857.5,465.7 858.5,466 				"/>
				<polygon fill-rule="evenodd" clip-rule="evenodd" points="877,427.8 847.3,412.3 847.4,413.4 877,428.8 				"/>
				<polygon fill-rule="evenodd" clip-rule="evenodd" points="932.9,412.4 932.2,411.5 906.1,413.1 906.8,413.9 				"/>
				<polygon fill-rule="evenodd" clip-rule="evenodd" points="906.8,452.6 907,413.3 906,413.6 905.8,452.9 				"/>
				<polygon fill-rule="evenodd" clip-rule="evenodd" points="906.8,413.1 872,362.4 871.3,363.2 906.1,413.9 				"/>
				<polygon fill-rule="evenodd" clip-rule="evenodd" points="936.1,388.6 935,388.5 932,411.9 933.1,412 				"/>
				<polygon fill-rule="evenodd" clip-rule="evenodd" points="969.5,393.7 932.6,411.4 932.5,412.5 969.4,394.7 				"/>
			</g>
			<g>
				<path fill-rule="evenodd" clip-rule="evenodd" fill="#E1FF00" stroke="#000000" stroke-width="1.5" stroke-miterlimit="10" d="
					M962.6,447.2c1.3,5.1,8,4.4,8.3-0.8c0-0.1,0-0.2,0-0.3c-1.3-5.1-8-4.4-8.3,0.8C962.6,447,962.6,447.1,962.6,447.2"/>
				<path fill-rule="evenodd" clip-rule="evenodd" fill="#E1FF00" stroke="#000000" stroke-width="1.5" stroke-miterlimit="10" d="
					M901.8,367.8c0-2.2,1.8-4,4-4.1c2.2,0,4.1,1.8,4.1,4c0,2.2-1.8,4-4,4.1C903.7,371.8,901.9,370,901.8,367.8"/>
				<path fill-rule="evenodd" clip-rule="evenodd" fill="#E1FF00" stroke="#000000" stroke-width="1.5" stroke-miterlimit="10" d="
					M856,462.2c-4.4,3.3-0.9,9.3,4.1,7.3C864.4,466.2,861,460.2,856,462.2"/>
				<path fill-rule="evenodd" clip-rule="evenodd" fill="#E1FF00" stroke="#000000" stroke-width="1.5" stroke-miterlimit="10" d="
					M850.3,409.8c-4.4-3.2-9.2,1.7-5.9,6c0,0,0,0,0,0C848.8,419,853.6,414.1,850.3,409.8C850.3,409.8,850.3,409.8,850.3,409.8"/>
				<path fill-rule="evenodd" clip-rule="evenodd" fill="#E1FF00" stroke="#000000" stroke-width="1.5" stroke-miterlimit="10" d="
					M874,425.4c4.3-3.3,9.3,1.4,6,5.8c0,0,0,0,0,0C875.7,434.6,870.7,429.8,874,425.4C874,425.4,874,425.4,874,425.4"/>
				<path fill-rule="evenodd" clip-rule="evenodd" fill="#E1FF00" stroke="#000000" stroke-width="1.5" stroke-miterlimit="10" d="
					M910.1,451.5c0.7,2.1-0.4,4.4-2.6,5.1c-2.1,0.7-4.4-0.4-5.1-2.6c-0.7-2.1,0.4-4.4,2.6-5.1C907.1,448.3,909.4,449.4,910.1,451.5"
					/>
				<path fill-rule="evenodd" clip-rule="evenodd" fill="#E1FF00" stroke="#000000" stroke-width="1.5" stroke-miterlimit="10" d="
					M903.8,416.5c1.7,1.5,4.2,1.3,5.7-0.3c1.5-1.7,1.3-4.2-0.3-5.7c-1.7-1.5-4.2-1.3-5.7,0.3C902,412.4,902.1,415,903.8,416.5"/>
				<path fill-rule="evenodd" clip-rule="evenodd" fill="#E1FF00" stroke="#000000" stroke-width="1.5" stroke-miterlimit="10" d="
					M869,365.8c-1.7-1.5-1.8-4-0.3-5.7c1.5-1.7,4.1-1.8,5.7-0.3c1.7,1.5,1.8,4,0.3,5.7C873.2,367.1,870.7,367.3,869,365.8"/>
				<path fill-rule="evenodd" clip-rule="evenodd" fill="#E1FF00" stroke="#000000" stroke-width="1.5" stroke-miterlimit="10" d="
					M931.5,388.7c-0.1-2.6,2.3-4.6,4.9-4.1c1.8,0.4,3.2,2,3.2,3.8c0.1,2.6-2.3,4.6-4.9,4.1C932.9,392.1,931.5,390.5,931.5,388.7"/>
				<path fill-rule="evenodd" clip-rule="evenodd" fill="#E1FF00" stroke="#000000" stroke-width="1.5" stroke-miterlimit="10" d="
					M933.4,408c-2.6-0.5-5,1.4-4.9,4c0,1.8,1.4,3.5,3.2,3.8c2.6,0.5,5-1.4,4.9-4C936.6,410,935.2,408.4,933.4,408"/>
				<path fill-rule="evenodd" clip-rule="evenodd" fill="#E1FF00" stroke="#000000" stroke-width="1.5" stroke-miterlimit="10" d="
					M966.9,390.9c4.7-2.7,9,2.8,5.1,6.6C967.3,400.2,963,394.7,966.9,390.9"/>
			</g>
		</g>
		<g>
			<g>
				<polygon fill-rule="evenodd" clip-rule="evenodd" points="1343.4,450.9 1342.1,449.1 1283.7,478.5 1284.9,480.2 				"/>
				<polygon fill-rule="evenodd" clip-rule="evenodd" points="1465.5,515.5 1345.3,449 1343.9,450.7 1464.1,517.1 				"/>
				
					<rect x="1342.6" y="358.3" transform="matrix(0.9999 -1.262646e-002 1.262646e-002 0.9999 -4.9947 16.9987)" fill-rule="evenodd" clip-rule="evenodd" width="2.2" height="91.5"/>
				<polygon fill-rule="evenodd" clip-rule="evenodd" points="1286.4,479.8 1284.3,479.2 1246.3,554.3 1248.4,554.9 				"/>
				<polygon fill-rule="evenodd" clip-rule="evenodd" points="1285.3,478.4 1226,447.5 1226,449.6 1285.4,480.6 				"/>
				<polygon fill-rule="evenodd" clip-rule="evenodd" points="1397.1,447.6 1395.7,446 1343.6,449 1345,450.6 				"/>
				<polygon fill-rule="evenodd" clip-rule="evenodd" points="1344.9,528.1 1345.3,449.5 1343.3,450.2 1342.8,528.8 				"/>
				<polygon fill-rule="evenodd" clip-rule="evenodd" points="1345,449 1275.4,347.7 1274,349.3 1343.6,450.6 				"/>
				<polygon fill-rule="evenodd" clip-rule="evenodd" points="1403.5,400.2 1401.4,399.9 1395.3,446.6 1397.5,446.9 				"/>
				<polygon fill-rule="evenodd" clip-rule="evenodd" points="1470.4,410.2 1396.6,445.7 1396.3,447.8 1470.1,412.3 				"/>
			</g>
			<g>
				<path fill-rule="evenodd" clip-rule="evenodd" fill="#E1FF00" stroke="#000000" stroke-width="1.5" stroke-miterlimit="10" d="
					M1456.5,517.4c2.6,10.1,16,8.9,16.7-1.6c0-0.2,0-0.4-0.1-0.6c-2.6-10.1-16-8.9-16.7,1.6C1456.4,517,1456.5,517.2,1456.5,517.4"
					/>
				<path fill-rule="evenodd" clip-rule="evenodd" fill="#E1FF00" stroke="#000000" stroke-width="1.5" stroke-miterlimit="10" d="
					M1335,358.4c-0.1-4.4,3.5-8.1,8-8.2c4.5-0.1,8.2,3.5,8.2,8c0.1,4.4-3.5,8.1-8,8.2C1338.8,366.4,1335.1,362.8,1335,358.4"/>
				<path fill-rule="evenodd" clip-rule="evenodd" fill="#E1FF00" stroke="#000000" stroke-width="1.5" stroke-miterlimit="10" d="
					M1243.2,547.3c-8.7,6.5-1.9,18.5,8.3,14.5C1260.2,555.3,1253.4,543.3,1243.2,547.3"/>
				<path fill-rule="evenodd" clip-rule="evenodd" fill="#E1FF00" stroke="#000000" stroke-width="1.5" stroke-miterlimit="10" d="
					M1231.9,442.6c-8.8-6.4-18.5,3.5-11.7,12c0,0,0,0,0,0C1229,461,1238.6,451.1,1231.9,442.6
					C1231.9,442.6,1231.9,442.6,1231.9,442.6"/>
				<path fill-rule="evenodd" clip-rule="evenodd" fill="#E1FF00" stroke="#000000" stroke-width="1.5" stroke-miterlimit="10" d="
					M1279.3,473.7c8.6-6.7,18.6,2.9,12.1,11.6c0,0,0,0,0,0C1282.8,492,1272.8,482.4,1279.3,473.7
					C1279.3,473.7,1279.3,473.7,1279.3,473.7"/>
				<path fill-rule="evenodd" clip-rule="evenodd" fill="#E1FF00" stroke="#000000" stroke-width="1.5" stroke-miterlimit="10" d="
					M1351.6,525.9c1.4,4.2-0.9,8.8-5.1,10.2c-4.3,1.4-8.9-0.9-10.3-5.1c-1.4-4.2,0.9-8.8,5.1-10.2
					C1345.5,519.4,1350.1,521.7,1351.6,525.9"/>
				<path fill-rule="evenodd" clip-rule="evenodd" fill="#E1FF00" stroke="#000000" stroke-width="1.5" stroke-miterlimit="10" d="
					M1338.9,455.8c3.4,3,8.5,2.7,11.5-0.7c3-3.3,2.7-8.4-0.7-11.4c-3.3-3-8.5-2.7-11.5,0.7C1335.3,447.8,1335.6,452.9,1338.9,455.8"
					/>
				<path fill-rule="evenodd" clip-rule="evenodd" fill="#E1FF00" stroke="#000000" stroke-width="1.5" stroke-miterlimit="10" d="
					M1269.3,354.5c-3.4-3-3.6-8.1-0.7-11.4c3-3.3,8.1-3.6,11.5-0.7c3.3,3,3.6,8.1,0.7,11.4C1277.8,357.1,1272.6,357.4,1269.3,354.5"
					/>
				<path fill-rule="evenodd" clip-rule="evenodd" fill="#E1FF00" stroke="#000000" stroke-width="1.5" stroke-miterlimit="10" d="
					M1394.3,400.3c-0.1-5.3,4.7-9.2,9.8-8.1c3.6,0.7,6.4,4,6.4,7.6c0.1,5.3-4.7,9.2-9.8,8.1C1397.2,407.2,1394.4,404,1394.3,400.3"
					/>
				<path fill-rule="evenodd" clip-rule="evenodd" fill="#E1FF00" stroke="#000000" stroke-width="1.5" stroke-miterlimit="10" d="
					M1398.1,438.9c-5.1-1.1-9.9,2.8-9.9,8.1c0.1,3.7,2.8,6.9,6.4,7.7c5.1,1.1,10-2.8,9.9-8.1
					C1404.5,442.9,1401.7,439.7,1398.1,438.9"/>
				<path fill-rule="evenodd" clip-rule="evenodd" fill="#E1FF00" stroke="#000000" stroke-width="1.5" stroke-miterlimit="10" d="
					M1465.1,404.6c9.5-5.4,17.9,5.6,10.2,13.3C1465.8,423.3,1457.4,412.3,1465.1,404.6"/>
			</g>
		</g>
	</g>
	<g>
		<polygon id="bgBlurTable" opacity="0.75" fill-rule="evenodd" clip-rule="evenodd" fill="#F8F9FB" points="923.8,718.2 
			1520.5,1062.7 1520.5,659.5 923.8,315 		"/>
		<polygon opacity="0.48" fill-rule="evenodd" clip-rule="evenodd" fill="#0D2155" points="923.8,718.2 1520.5,1062.7 1520.5,659.5 
			923.8,315 		"/>
	</g>
	<g>
		<g>
			<polygon fill-rule="evenodd" clip-rule="evenodd" fill="#FFFFFF" points="1044.8,636 945.6,578.7 945.6,560.5 1044.8,617.8 			
				"/>
			<path fill-rule="evenodd" clip-rule="evenodd" fill="#0AABEF" d="M957.8,576.7c0,2.5-1.5,3.7-3.5,2.6c-1.9-1.1-3.5-4.1-3.5-6.6
				c0-2.5,1.5-3.7,3.5-2.6C956.3,571.2,957.8,574.1,957.8,576.7"/>
			<path fill-rule="evenodd" clip-rule="evenodd" fill="#FF9D00" d="M970.5,584c0,2.5-1.5,3.7-3.5,2.6c-1.9-1.1-3.5-4.1-3.5-6.6
				c0-2.5,1.5-3.7,3.5-2.6C968.9,578.5,970.5,581.4,970.5,584"/>
			<path fill-rule="evenodd" clip-rule="evenodd" fill="#FF101C" d="M983.2,591.3c0,2.5-1.5,3.7-3.5,2.6c-1.9-1.1-3.5-4.1-3.5-6.6
				c0-2.5,1.5-3.7,3.5-2.6C981.6,585.8,983.2,588.8,983.2,591.3"/>
			<polygon fill-rule="evenodd" clip-rule="evenodd" fill="#ACF8FC" points="1038.9,628.1 990.4,600.1 990.4,590.9 1038.9,618.9 			
				"/>
			<polygon fill-rule="evenodd" clip-rule="evenodd" fill="#1411DE" points="1044.8,754.8 945.6,697.5 945.6,578.7 1044.8,636 			
				"/>
			<g>
				<path fill-rule="evenodd" clip-rule="evenodd" fill="#FFFFFF" d="M1034.1,646.8l-16.8-9.7v9.1l16.8,9.7c1.9,1.1,3.4-0.1,3.4-2.6
					S1036,647.9,1034.1,646.8"/>
				<path fill-rule="evenodd" clip-rule="evenodd" fill="#FFFFFF" d="M1034.1,672.1l-33.3-19.2v9.1l33.3,19.2
					c1.9,1.1,3.4-0.1,3.4-2.6C1037.5,676.1,1036,673.1,1034.1,672.1"/>
				<path fill-rule="evenodd" clip-rule="evenodd" fill="#FFFFFF" d="M1034.1,697.3l-66-38.1v9.1l66,38.1c1.9,1.1,3.4-0.1,3.4-2.6
					S1036,698.4,1034.1,697.3"/>
				<path fill-rule="evenodd" clip-rule="evenodd" fill="#FFFFFF" d="M1034.1,722.5l-8.7-5v9.1l8.7,5c1.9,1.1,3.4-0.1,3.4-2.6
					C1037.5,726.5,1036,723.6,1034.1,722.5"/>
				<path fill-rule="evenodd" clip-rule="evenodd" fill="#5BF4FC" d="M956.3,611l60.9,35.2v-9.1L956.3,602c-1.9-1.1-3.4,0.1-3.4,2.6
					C952.9,607,954.5,609.9,956.3,611"/>
				<path fill-rule="evenodd" clip-rule="evenodd" fill="#5BF4FC" d="M956.3,636.2l44.5,25.7v-9.1l-44.5-25.7
					c-1.9-1.1-3.4,0.1-3.4,2.6S954.5,635.2,956.3,636.2"/>
				<path fill-rule="evenodd" clip-rule="evenodd" fill="#5BF4FC" d="M956.3,661.5l11.8,6.8v-9.1l-11.8-6.8
					c-1.9-1.1-3.4,0.1-3.4,2.6C952.9,657.5,954.5,660.4,956.3,661.5"/>
				<path fill-rule="evenodd" clip-rule="evenodd" fill="#5BF4FC" d="M956.3,677.6c-1.9-1.1-3.4,0.1-3.4,2.6c0,2.5,1.5,5.4,3.4,6.5
					l69.1,39.9v-9.1L956.3,677.6z"/>
			</g>
		</g>
		<polygon opacity="0.3" fill-rule="evenodd" clip-rule="evenodd" fill="#FFFFFF" points="1044.8,636 1121,787.8 945.6,578.7 		"/>
		<path fill-rule="evenodd" clip-rule="evenodd" fill="#FFFFFF" d="M1134.2,802.5c0,3.9-2.4,5.7-5.3,4c-2.9-1.7-5.3-6.2-5.3-10.1
			c0-3.9,2.4-5.7,5.3-4C1131.9,794.1,1134.2,798.6,1134.2,802.5"/>
	</g>
	<g>
		<g>
			<polygon fill-rule="evenodd" clip-rule="evenodd" fill="#5BF4FC" points="1205.3,437.2 1058.3,352.3 1058.3,335.6 1205.3,420.5 
							"/>
			<path fill-rule="evenodd" clip-rule="evenodd" fill="#1411DE" d="M1069.9,351.6c0,2.5-1.5,3.7-3.5,2.6c-1.9-1.1-3.5-4.1-3.5-6.6
				c0-2.5,1.5-3.7,3.5-2.6C1068.3,346.1,1069.9,349.1,1069.9,351.6"/>
			<path fill-rule="evenodd" clip-rule="evenodd" fill="#ACF8FC" d="M1082.6,358.9c0,2.5-1.5,3.7-3.5,2.6c-1.9-1.1-3.5-4.1-3.5-6.6
				c0-2.5,1.5-3.7,3.5-2.6C1081,353.4,1082.6,356.4,1082.6,358.9"/>
			<path fill-rule="evenodd" clip-rule="evenodd" fill="#03E8FF" d="M1095.2,366.3c0,2.5-1.5,3.7-3.5,2.6c-1.9-1.1-3.5-4.1-3.5-6.6
				s1.5-3.7,3.5-2.6C1093.7,360.8,1095.2,363.7,1095.2,366.3"/>
			<path fill-rule="evenodd" clip-rule="evenodd" fill="#FFFFFF" d="M1195.6,428.8l-89.7-51.8c-1.9-1.1-3.5-4.1-3.5-6.6
				c0-2.5,1.6-3.7,3.5-2.6l89.7,51.8c1.9,1.1,3.5,4.1,3.5,6.6C1199.1,428.7,1197.5,429.9,1195.6,428.8"/>
			<polygon fill-rule="evenodd" clip-rule="evenodd" fill="#4748FF" points="1205.3,583.4 1058.3,498.6 1058.3,352.3 1205.3,437.2 
							"/>
		</g>
		<path fill-rule="evenodd" clip-rule="evenodd" fill="#FFFFFF" d="M1132.4,553.6c0,2.5-1.5,3.7-3.4,2.6c-1.9-1.1-3.4-4-3.4-6.6
			c0-2.5,1.5-3.7,3.4-2.6C1130.9,548.1,1132.4,551,1132.4,553.6"/>
	</g>
	<g>
		<g>
			<polygon fill-rule="evenodd" clip-rule="evenodd" fill="#FFFFFF" points="1190.4,737.3 1173.7,727.7 1173.7,705.4 1190.4,715 			
				"/>
			<polygon fill-rule="evenodd" clip-rule="evenodd" fill="#ACF8FC" points="1217.3,752.8 1200.6,743.2 1200.6,721 1217.3,730.6 			
				"/>
			<polygon fill-rule="evenodd" clip-rule="evenodd" fill="#5BF4FC" points="1244.2,768.4 1227.6,758.8 1227.6,736.5 1244.2,746.1 
							"/>
			<polygon fill-rule="evenodd" clip-rule="evenodd" fill="#03E8FF" points="1271.2,783.9 1254.5,774.3 1254.5,752.1 1271.2,761.7 
							"/>
		</g>
		<g>
			<path fill-rule="evenodd" clip-rule="evenodd" fill="#FFFFFF" d="M1165.5,711.8c0,2.5-1.5,3.7-3.4,2.6c-1.9-1.1-3.4-4-3.4-6.6
				c0-2.5,1.5-3.7,3.4-2.6C1163.9,706.3,1165.5,709.2,1165.5,711.8"/>
			<line fill="none" stroke="#FFFFFF" stroke-width="1.722" stroke-miterlimit="10" x1="1162" y1="709.8" x2="1129" y2="690.7"/>
		</g>
	</g>
	<g>
		<g>
			<polygon fill-rule="evenodd" clip-rule="evenodd" fill="#05BBFA" points="894.6,387.5 889.5,384.6 889.5,435.1 945.2,467.2 
				945.2,416.7 912.7,398 911.9,389.6 895.4,380.1 			"/>
			<polygon fill-rule="evenodd" clip-rule="evenodd" fill="#03E8FF" points="957.8,462.2 956.8,451.4 935.6,439.1 934.5,448.7 
				927.9,444.9 927.9,509.9 999.6,551.3 999.6,486.3 			"/>
		</g>
		<g>
			<path fill-rule="evenodd" clip-rule="evenodd" fill="#FFFFFF" d="M1040.9,546.2c0,2.5-1.5,3.7-3.4,2.6c-1.9-1.1-3.4-4-3.4-6.6
				c0-2.5,1.5-3.7,3.4-2.6C1039.4,540.7,1040.9,543.7,1040.9,546.2"/>
			<line fill="none" stroke="#FFFFFF" stroke-width="1.722" stroke-miterlimit="10" x1="1037.5" y1="544.2" x2="1129" y2="720.9"/>
		</g>
	</g>
	<g>
		<g>
			<polygon fill-rule="evenodd" clip-rule="evenodd" fill="#05BBFA" points="1271.5,614.3 1270.5,603.5 1249.3,591.3 1248.2,600.9 
				1241.6,597.1 1241.6,662.1 1313.3,703.5 1313.3,638.4 			"/>
			<polygon fill-rule="evenodd" clip-rule="evenodd" fill="#03E8FF" points="1241.6,662.1 1313.3,703.5 1326.4,655.4 1254.8,614 			
				"/>
		</g>
		<path fill-rule="evenodd" clip-rule="evenodd" fill="#FFFFFF" d="M1318.6,720.8c0,2.5-1.5,3.7-3.4,2.6c-1.9-1.1-3.4-4-3.4-6.6
			c0-2.5,1.5-3.7,3.4-2.6C1317,715.3,1318.6,718.3,1318.6,720.8"/>
	</g>
	<g>
		<g>
			<polygon fill-rule="evenodd" clip-rule="evenodd" fill="#03E8FF" points="1476.6,651.1 1475.9,644.1 1462.2,636.2 1461.5,642.4 
				1457.2,639.9 1457.2,682.1 1503.7,708.9 1503.7,666.7 			"/>
			<polygon fill-rule="evenodd" clip-rule="evenodd" fill="#05BBFA" points="1498.3,625.8 1491.7,622 1491.7,687 1563.4,728.4 
				1563.4,663.4 1521.6,639.3 1520.5,628.5 1499.3,616.2 			"/>
		</g>
		<path fill-rule="evenodd" clip-rule="evenodd" fill="#FFFFFF" d="M1442.6,647.3c0,2.5-1.5,3.7-3.4,2.6c-1.9-1.1-3.4-4-3.4-6.6
			c0-2.5,1.5-3.7,3.4-2.6C1441.1,641.8,1442.6,644.8,1442.6,647.3"/>
		<polyline fill="none" stroke="#FFFFFF" stroke-width="1.722" stroke-miterlimit="10" points="1439.2,645.3 1348.9,593.2 
			1348.9,798.7 1315.1,815.6 		"/>
	</g>
	<g>
		<ellipse transform="matrix(0.866 -0.5 0.5 0.866 -260.0441 745.1036)" fill="none" stroke="#FFFFFF" stroke-miterlimit="10" cx="1260.4" cy="857.8" rx="20.8" ry="30.9"/>
		<path fill="none" stroke="#FFFFFF" stroke-miterlimit="10" d="M1251.7,861.9c3.9,6.8,10.8,10.2,15.4,7.5
			c4.6-2.6,5.1-10.3,1.2-17.1c-3.9-6.7-10.6-10.1-15.2-7.6c-0.1,0.1-0.3,0.2-0.4,0.3C1248.3,847.7,1247.8,855.2,1251.7,861.9z"/>
	</g>
	<g>
		<g>
			<polygon fill-rule="evenodd" clip-rule="evenodd" fill="#FFFFFF" points="1551.1,820.3 1396.3,730.9 1396.3,713.8 1551.1,803.1 
							"/>
			<polygon fill-rule="evenodd" clip-rule="evenodd" fill="#608CF9" points="1551.1,982.6 1451.4,925.1 1451.4,762.7 1551.1,820.3 
							"/>
			<polygon fill-rule="evenodd" clip-rule="evenodd" fill="#1411DE" points="1451.4,925.1 1396.3,893.3 1396.3,730.9 1451.4,762.7 
							"/>
			<path fill-rule="evenodd" clip-rule="evenodd" fill="#0AABEF" d="M1408.3,729.2c0,2.5-1.5,3.7-3.5,2.6c-1.9-1.1-3.5-4.1-3.5-6.6
				c0-2.5,1.5-3.7,3.5-2.6C1406.7,723.7,1408.3,726.7,1408.3,729.2"/>
			<path fill-rule="evenodd" clip-rule="evenodd" fill="#FF9D00" d="M1420.9,736.6c0,2.5-1.5,3.7-3.5,2.6c-1.9-1.1-3.5-4.1-3.5-6.6
				c0-2.5,1.5-3.7,3.5-2.6C1419.4,731.1,1420.9,734,1420.9,736.6"/>
			<path fill-rule="evenodd" clip-rule="evenodd" fill="#FF101C" d="M1433.6,743.9c0,2.5-1.5,3.7-3.5,2.6c-1.9-1.1-3.5-4.1-3.5-6.6
				c0-2.5,1.5-3.7,3.5-2.6C1432.1,738.4,1433.6,741.3,1433.6,743.9"/>
			<path fill-rule="evenodd" clip-rule="evenodd" fill="#FFFFFF" d="M1470,804.2c3.4,1.9,6.1-0.1,6.1-4.6c0-4.5-2.7-9.7-6.1-11.6
				c-3.4-1.9-6.1,0.1-6.1,4.6C1463.9,797,1466.6,802.2,1470,804.2"/>
			<path fill-rule="evenodd" clip-rule="evenodd" fill="#FFFFFF" d="M1470,841.7c-3.4-1.9-6.1,0.1-6.1,4.6c0,4.5,2.7,9.7,6.1,11.6
				c3.4,1.9,6.1-0.1,6.1-4.6C1476.1,848.8,1473.4,843.6,1470,841.7"/>
			<path fill-rule="evenodd" clip-rule="evenodd" fill="#2B5DF2" d="M1535.5,852.6l-19-11c-1.7-1-3.1,0.1-3.1,2.3v8
				c0,2.3,1.4,4.9,3.1,5.9l19,11c1.7,1,3.1-0.1,3.1-2.3v-8C1538.6,856.3,1537.2,853.6,1535.5,852.6"/>
			<path fill-rule="evenodd" clip-rule="evenodd" fill="#BBC4FD" d="M1534.6,825.3l-42.6-24.6c-2.2-1.3-4,0.1-4,3v5.7
				c0,2.9,1.8,6.3,4,7.6l42.6,24.6c2.2,1.3,4-0.1,4-3v-5.7C1538.6,829.9,1536.8,826.5,1534.6,825.3"/>
			<path fill-rule="evenodd" clip-rule="evenodd" fill="#BBC4FD" d="M1491.2,870.1l24.1,13.9c1.7,1,3.1-0.1,3.1-2.3v-8
				c0-2.3-1.4-4.9-3.1-5.9l-24.1-13.9c-1.7-1-3.1,0.1-3.1,2.3v8C1488.1,866.5,1489.5,869.2,1491.2,870.1"/>
			<g>
				<polygon fill-rule="evenodd" clip-rule="evenodd" fill="#BBC4FD" points="1401.3,759.8 1401.3,764 1446.4,790 1446.4,785.8 				
					"/>
				<polygon fill-rule="evenodd" clip-rule="evenodd" fill="#BBC4FD" points="1401.3,775.5 1446.4,801.5 1446.4,797.4 1401.3,771.4 
									"/>
				<polygon fill-rule="evenodd" clip-rule="evenodd" fill="#BBC4FD" points="1432.5,835.4 1401.3,817.4 1401.3,821.6 1432.5,839.6 
									"/>
				<polygon fill-rule="evenodd" clip-rule="evenodd" fill="#BBC4FD" points="1401.3,833.1 1436.9,853.7 1436.9,849.5 1401.3,829 
									"/>
				<polygon fill-rule="evenodd" clip-rule="evenodd" fill="#BBC4FD" points="1401.3,810.1 1446.4,836.1 1446.4,831.9 1401.3,805.9 
									"/>
				<polygon fill-rule="evenodd" clip-rule="evenodd" fill="#BBC4FD" points="1418.4,792.7 1401.3,782.9 1401.3,787.1 1418.4,796.9 
									"/>
				<polygon fill-rule="evenodd" clip-rule="evenodd" fill="#BBC4FD" points="1412.8,801 1401.3,794.4 1401.3,798.6 1412.8,805.2 
									"/>
				<polygon fill-rule="evenodd" clip-rule="evenodd" fill="#BBC4FD" points="1412.8,754.9 1401.3,748.3 1401.3,752.5 1412.8,759.1 
									"/>
			</g>
			<path fill-rule="evenodd" clip-rule="evenodd" fill="#2B5DF2" d="M1535.5,906.3l-30-17.3c-1.7-1-3.1,0.1-3.1,2.3v8
				c0,2.3,1.4,4.9,3.1,5.9l30,17.3c1.7,1,3.1-0.1,3.1-2.3v-8C1538.6,910,1537.2,907.3,1535.5,906.3"/>
			<path fill-rule="evenodd" clip-rule="evenodd" fill="#BBC4FD" d="M1527.1,938l-36-20.8c-1.7-1-3.1,0.1-3.1,2.3v8
				c0,2.3,1.4,4.9,3.1,5.9l36,20.8c1.7,1,3.1-0.1,3.1-2.3v-8C1530.2,941.7,1528.9,939,1527.1,938"/>
			<polygon fill-rule="evenodd" clip-rule="evenodd" fill="#0AABEF" points="1538.6,935.3 1463.9,892.2 1463.9,887.5 1538.6,930.7 
							"/>
			<path fill-rule="evenodd" clip-rule="evenodd" fill="#FFFFFF" d="M1470,905c-3.4-1.9-6.1,0.1-6.1,4.6c0,4.5,2.7,9.7,6.1,11.6
				c3.4,1.9,6.1-0.1,6.1-4.6C1476.1,912.2,1473.4,907,1470,905"/>
		</g>
		<g>
			<polygon opacity="0.2" fill-rule="evenodd" clip-rule="evenodd" fill="#FFFFFF" points="1396.3,730.9 1320.4,901.3 1551.1,820.3 
							"/>
			<line fill="none" stroke="#FFFFFF" stroke-width="1.722" stroke-miterlimit="10" x1="1451.4" y1="984.5" x2="1316.9" y2="908"/>
			<path fill-rule="evenodd" clip-rule="evenodd" fill="#FFFFFF" d="M1320.4,910c0,3.9-2.4,5.7-5.3,4c-2.9-1.7-5.3-6.2-5.3-10.1
				c0-3.9,2.4-5.7,5.3-4C1318,901.6,1320.4,906.1,1320.4,910"/>
			<path fill-rule="evenodd" clip-rule="evenodd" fill="#FFFFFF" d="M1454.9,986.5c0,2.5-1.5,3.7-3.4,2.6c-1.9-1.1-3.4-4-3.4-6.6
				c0-2.5,1.5-3.7,3.4-2.6C1453.3,981,1454.9,984,1454.9,986.5"/>
		</g>
	</g>
	<polygon fill-rule="evenodd" clip-rule="evenodd" fill="#03E8FF" points="1479,985.9 1478.5,980.2 1467.2,973.7 1466.7,978.7 
		1463.2,976.7 1463.2,1011.3 1501.2,1033.3 1501.2,998.7 	"/>
</g>
<g>
	<g>
		<path fill-rule="evenodd" clip-rule="evenodd" fill="#546497" d="M1686.4,942.1l134.9-164.8l-6.6-5.1l0,0c-1-0.7-2.4-0.7-4,0.3
			l-121.6,74.5c-3.3,2-6.2,7.2-6.4,11.6l-4.3,73.8c-0.1,2.3,0.5,3.9,1.5,4.6l0,0L1686.4,942.1z"/>
		<path fill-rule="evenodd" clip-rule="evenodd" fill="#F3F3F3" d="M1684.9,937.4l4.3-73.8c0.3-4.4,3.1-9.6,6.4-11.6l121.6-74.5
			c3.3-2,5.8-0.1,5.5,4.3l-4.3,73.8c-0.3,4.4-3.1,9.6-6.4,11.6l-121.6,74.5C1687.1,943.8,1684.7,941.8,1684.9,937.4"/>
		<path fill-rule="evenodd" clip-rule="evenodd" fill="#464FFF" d="M1785.8,859.2l-5-4c-3.8-3-3.3-12.2,1.2-20.4
			c4.5-8.3,11.2-12.5,15-9.4l5,4L1785.8,859.2z"/>
		<path fill-rule="evenodd" clip-rule="evenodd" fill="#D2A8F7" d="M1801.9,829.2c-3.8-3-10.6,1.2-15,9.4c-4.5,8.3-5,17.4-1.2,20.4
			c3.8,3,10.6-1.2,15-9.4C1805.2,841.4,1805.8,832.2,1801.9,829.2"/>
		<path fill-rule="evenodd" clip-rule="evenodd" fill="#464FFF" d="M1741.6,930.1l-10-8c-7.6-6.1-6.5-24.3,2.4-40.8
			c8.9-16.5,22.4-24.9,30-18.8l10,8L1741.6,930.1z"/>
		<path fill-rule="evenodd" clip-rule="evenodd" fill="#3FD3B8" d="M1773.7,870.3c-7.6-6.1-21,2.4-30,18.8
			c-8.9,16.5-10,34.7-2.4,40.8c7.6,6.1,21-2.4,30-18.8C1780.2,894.6,1781.3,876.3,1773.7,870.3"/>
	</g>
	<g>
		<path fill-rule="evenodd" clip-rule="evenodd" fill="#546497" d="M1752.1,993l134.9-164.8l-6.6-5.1l0,0c-1-0.7-2.4-0.7-4,0.3
			l-121.6,74.5c-3.3,2-6.2,7.2-6.4,11.6l-4.3,73.8c-0.1,2.3,0.5,3.9,1.5,4.6l0,0L1752.1,993z"/>
		<path fill-rule="evenodd" clip-rule="evenodd" fill="#F3F3F3" d="M1750.6,988.4l4.3-73.8c0.3-4.4,3.1-9.6,6.4-11.6l121.6-74.5
			c3.3-2,5.8-0.1,5.5,4.3l-4.3,73.8c-0.3,4.4-3.1,9.6-6.4,11.6l-121.6,74.5C1752.8,994.8,1750.3,992.8,1750.6,988.4"/>
		<path fill-rule="evenodd" clip-rule="evenodd" fill="#464FFF" d="M1851.5,910.2l-5-4c-3.8-3-3.3-12.2,1.2-20.4
			c4.5-8.3,11.2-12.5,15-9.4l5,4L1851.5,910.2z"/>
		<path fill-rule="evenodd" clip-rule="evenodd" fill="#D2A8F7" d="M1867.6,880.2c-3.8-3-10.6,1.2-15,9.4c-4.5,8.3-5,17.4-1.2,20.4
			c3.8,3,10.6-1.2,15-9.4C1870.9,892.4,1871.4,883.2,1867.6,880.2"/>
		<path fill-rule="evenodd" clip-rule="evenodd" fill="#464FFF" d="M1807.3,981.1l-10-8c-7.6-6.1-6.5-24.3,2.4-40.8
			c8.9-16.5,22.4-24.9,30-18.8l10,8L1807.3,981.1z"/>
		<path fill-rule="evenodd" clip-rule="evenodd" fill="#3FD3B8" d="M1839.4,921.2c-7.6-6.1-21,2.4-30,18.8
			c-8.9,16.5-10,34.7-2.4,40.8c7.6,6.1,21-2.4,30-18.8C1845.9,945.5,1847,927.3,1839.4,921.2"/>
	</g>
	<g>
		<path fill-rule="evenodd" clip-rule="evenodd" fill="#546497" d="M1819.4,1046l134.9-164.8l-6.6-5.1l0,0c-1-0.7-2.4-0.7-4,0.3
			l-121.6,74.5c-3.3,2-6.2,7.2-6.4,11.6l-4.3,73.8c-0.1,2.3,0.5,3.9,1.5,4.6l0,0L1819.4,1046z"/>
		<path fill-rule="evenodd" clip-rule="evenodd" fill="#F3F3F3" d="M1817.9,1041.4l4.3-73.8c0.3-4.4,3.1-9.6,6.4-11.6l121.6-74.5
			c3.3-2,5.8-0.1,5.5,4.3l-4.3,73.8c-0.3,4.4-3.1,9.6-6.4,11.6l-121.6,74.5C1820.1,1047.7,1817.6,1045.8,1817.9,1041.4"/>
		<path fill-rule="evenodd" clip-rule="evenodd" fill="#464FFF" d="M1918.8,963.1l-5-4c-3.8-3-3.3-12.2,1.2-20.4
			c4.5-8.3,11.2-12.5,15-9.4l5,4L1918.8,963.1z"/>
		<path fill-rule="evenodd" clip-rule="evenodd" fill="#D2A8F7" d="M1934.9,933.1c-3.8-3-10.6,1.2-15,9.4c-4.5,8.3-5,17.4-1.2,20.4
			c3.8,3,10.6-1.2,15-9.4C1938.2,945.3,1938.7,936.2,1934.9,933.1"/>
		<path fill-rule="evenodd" clip-rule="evenodd" fill="#464FFF" d="M1874.6,1034l-10-8c-7.6-6.1-6.5-24.3,2.4-40.8
			c8.9-16.5,22.4-24.9,30-18.8l10,8L1874.6,1034z"/>
		<path fill-rule="evenodd" clip-rule="evenodd" fill="#3FD3B8" d="M1906.7,974.2c-7.6-6.1-21,2.4-30,18.8
			c-8.9,16.5-10,34.7-2.4,40.8c7.6,6.1,21-2.4,30-18.8C1913.2,998.5,1914.3,980.2,1906.7,974.2"/>
	</g>
</g>
<g>
	<g>
		<path fill-rule="evenodd" clip-rule="evenodd" fill="#B1BAC9" d="M1632.9,1135.5c2.9,40.1-51.3,76.8-121.2,81.8
			s-128.8-23.3-131.7-63.4s51.3-76.8,121.2-81.8S1630,1095.4,1632.9,1135.5"/>
		<path fill-rule="evenodd" clip-rule="evenodd" fill="#FFFFFF" d="M1632.7,1132.5c2.9,40.1-51.3,76.8-121.2,81.8
			s-128.8-23.3-131.7-63.4s51.3-76.8,121.2-81.8S1629.7,1092.4,1632.7,1132.5"/>
	</g>
	<polygon opacity="0.4" fill="#3FD3B8" filter="url(#filter_blur1)" points="1442.7,1133.7 1501.2,1095.3 1560.7,1126 1506.9,1165.3 	"/>
	<g>
		<polygon fill-rule="evenodd" clip-rule="evenodd" fill="#288272" points="1497.1,1038.1 1493,1079.9 1504.1,1133.7 1550,1002.2 		
			"/>
		<polygon fill-rule="evenodd" clip-rule="evenodd" fill="#3FD3B8" points="1504.1,1133.7 1497.1,1038.1 1439.6,1010.3 		"/>
	</g>
</g>
<g>
	<g>
		<path fill-rule="evenodd" clip-rule="evenodd" fill="#DFE3E8" d="M906.3,848.2c0.6,0.3,1.5,0.3,2-0.1c0.5-0.3,0.4-0.8-0.2-1.1
			c-0.6-0.3-1.5-0.3-2,0.1C905.6,847.4,905.7,847.9,906.3,848.2"/>
		<path fill-rule="evenodd" clip-rule="evenodd" fill="#FFFFFF" d="M906.3,847.8c0.6,0.3,1.5,0.3,2-0.1c0.5-0.3,0.4-0.8-0.2-1.1
			c-0.6-0.3-1.5-0.3-2,0.1C905.6,847,905.7,847.5,906.3,847.8"/>
	</g>
	<g>
		<path fill-rule="evenodd" clip-rule="evenodd" fill="#DFE3E8" d="M909.3,846.2c0.6,0.3,1.5,0.3,2-0.1c0.5-0.3,0.4-0.8-0.2-1.1
			c-0.6-0.3-1.5-0.3-2,0.1C908.6,845.4,908.7,845.9,909.3,846.2"/>
		<path fill-rule="evenodd" clip-rule="evenodd" fill="#FFFFFF" d="M909.2,845.8c0.6,0.3,1.5,0.3,2-0.1c0.5-0.3,0.4-0.8-0.2-1.1
			c-0.6-0.3-1.5-0.3-2,0.1C908.5,845,908.6,845.5,909.2,845.8"/>
	</g>
</g>
<g>
	<path fill-rule="evenodd" clip-rule="evenodd" fill="#47547C" d="M771,576.6l5.7,77.7c1.6,21.5-27.6,41.2-65,43.9
		c-37.5,2.7-69.2-12.5-70.7-34l-5.7-77.7L771,576.6z"/>
	<path fill-rule="evenodd" clip-rule="evenodd" fill="#F3F3F3" d="M635.3,587.3c1.6,21.5,33.2,36.8,70.7,34
		c37.5-2.7,66.6-22.4,65-43.9c-1.6-21.5-33.2-36.8-70.7-34C662.9,546.1,633.8,565.8,635.3,587.3"/>
</g>
<g>
	<path fill-rule="evenodd" clip-rule="evenodd" fill="#343E5C" d="M720.9,545.8l11.6,159.9c1.6,21.6-27.7,41.4-65.3,44.1
		c-37.7,2.7-69.4-12.6-71-34.2l-11.6-159.9L720.9,545.8z"/>
	<path fill-rule="evenodd" clip-rule="evenodd" fill="#F3F3F3" d="M649.9,512.4c37.7-2.7,69.4,12.6,71,34.2
		c1.6,21.6-27.7,41.4-65.3,44.1c-37.7,2.7-69.4-12.6-71-34.2C583.1,534.9,612.3,515.2,649.9,512.4"/>
	<path fill-rule="evenodd" clip-rule="evenodd" fill="#343E5C" d="M654.5,575.2c22.8-1.7,40.5-13.6,39.5-26.7s-20.2-22.3-43-20.7
		c-22.8,1.7-40.5,13.6-39.5,26.7C612.5,567.6,631.7,576.9,654.5,575.2"/>
</g>
<g>
	<path fill-rule="evenodd" clip-rule="evenodd" fill="#313B5A" d="M714.6,676l85.2-50.8l6.8,93.2l0,0c0,0.8-0.4,1.6-1.4,2.2
		l-74.4,50.1c-2,1.4-5.4,1.6-7.6,0.6c-1.1-0.5-1.7-1.3-1.7-2.1l0,0L714.6,676z"/>
	<path fill-rule="evenodd" clip-rule="evenodd" fill="#F3F3F3" d="M716.4,678.1c2.2,1,5.6,0.8,7.6-0.6l74.4-50.1
		c2-1.4,1.9-3.3-0.3-4.4c-2.2-1-5.6-0.8-7.6,0.6L716,673.8C714,675.2,714.2,677.1,716.4,678.1"/>
</g>
<g id="man1">
	<g>
		<path fill="#FFBEC7" d="M687.6,1027.4c0,0-3.2,22.4,2,39.2c4,11.6,1.7,13.9,0,16.6c-1.7,2.6,7.3,9.9,19.2,2.3
			c11.9-7.6,10.1-49,3.6-58.1C705.8,1018.3,687.6,1027.4,687.6,1027.4z"/>
		<path fill="#3E3E55" d="M716.5,789.9c0,0-40.2,55.9-30.9,233.7c2.6,8.3,16.6,19.5,40.4,5.6C731.3,982.9,760.7,802.9,716.5,789.9z"
			/>
	</g>
	<g>
		<path fill="#FFBEC7" d="M831.5,675.7c11.8-2.2,46.9-4.2,45.7,45.4c3.7,8.9,7.4,73-43.7,53.4C782.3,754.9,774.6,686.1,831.5,675.7z
			"/>
		<path fill="#FFBEC7" d="M849.6,767.8c0,0-19.6,7.2-20.1,32c-33.5-8.4-43.9-20.1-43.9-20.1s8.2-5,11.4-11.4
			c3.2-11.9,9.9-43.7,9.9-43.7L849.6,767.8z"/>
		<path fill="#76506C" d="M796.9,768.3c0,0-1.5-14.2-16.6-30.8c-15.1-16.6-16.1-64.6,33.3-76.5c9.4-2.7,39.7-7,43.9-13.7
			c8.9,6.7,15.6,20.2,9,37.2c-7.8,9.7-19.2,17.4-17.7,27.6c1.5,10.2,1.5,31,1.5,31l-4.7,2.5c0,0-2-13.2-12.4-14.2
			c-10.4-1-18.1,9.9-7.7,22.1C818.8,760.9,810.8,773.8,796.9,768.3z"/>
	</g>
	<path fill="#302F3F" d="M717.3,1010.9c0,0-22.9-108.3-9.5-172.8C740.2,887.3,767,966.3,717.3,1010.9z"/>
	<g>
		<path fill="#302F3F" d="M836.4,1498.3c10.2-1.2,20.6-2.9,41.5-0.7c32.8,3.4,42.2-5.8,44.9-10.2c0,0,2.7,6.5-6.7,11.8
			c-9.5,5.3-25.6,6.2-35.9,4c-10.3-2.2-20.9-3.6-31.8-1.3c-10.9,2.4-43.4,6.1-44.5-17C807.3,1493.7,826.2,1499.5,836.4,1498.3z"/>
		<path fill="#3E3E55" d="M809,1449.8c12.9-0.5,44.6,0,44.6,0s2.7,15.5,28.6,19.9c26,4.4,40.8,0.2,40.5,17.7
			c-2.7,4.4-12.1,13.6-44.9,10.2c-20.9-2.2-31.3-0.5-41.5,0.7c-10.2,1.2-29.1-4.6-32.5-13.4C803.6,1474,805.1,1455.1,809,1449.8z"/>
	</g>
	<path fill="#302F3F" d="M880,1092.9c0,0,1.2,112.8-4.6,174s-17.1,185.2-17.1,185.2s-29.5,17.8-54.6-3.3
		c2.2-49.5,9.8-145.9,11.3-163.4c1.5-17.5-23.4-182.4-23.4-182.4L880,1092.9z"/>
	<g>
		<path fill="#302F3F" d="M728.9,1439c1.2,6.2,8.1,13.6,18.8,13.6c12.6,0,18-10.7,21.5-16.6c3.5-5.8,8.4-7.8,12.7-11.3
			c13.3-14.6,10.2-30.9,6.6-36.9c0,0,8.4,4.4,4.5,25.1c-2.9,14.6-13.5,17.1-16.9,19.7c-3.5,2.5-4.9,23.3-23.5,24.7
			S728,1446.6,728.9,1439L728.9,1439z"/>
		<path fill="#3E3E55" d="M781.9,1424.8c-4.4,3.5-9.3,5.5-12.7,11.3c-3.5,5.8-8.9,16.6-21.5,16.6c-10.7,0-17.6-7.4-18.8-13.6
			c-0.2-1.1-0.3-2.1-0.1-3.1c0.9-6.6,6.4-18.4,4.2-31.5c13.6-2.7,39.5-16,39.5-16s12.4-6.6,16-0.5
			C792.1,1393.8,795.2,1410.2,781.9,1424.8z"/>
	</g>
	<path fill="#302F3F" d="M800.8,1101.4c0,0,1.1,89.8-4.7,135.9s-20.9,164.5-20.9,164.5s-19.4,23.8-48.5,3.4
		c0.5-66,9.7-151.9,11.2-170.3c1.5-18.4-22.3-163-22.3-163L800.8,1101.4z"/>
	<g>
		<path fill="#FFBEC7" d="M990.2,985.5c0,0,13.9-3.4,29.6-3.1c15.7,0.3,18.4,2,20.4,2s0,7.9-17.8,6.8c11.4,10.3,19.9,14,26.6,19.7
			c5.7,3.8,11.4,5.6,18,6.6s3.1,6-0.7,6.8c-3.8,0.8-11.3-1.2-19.7-5.5c-2.3,6.1-14.9,17.5-26.8,12.1s-24.3-11.5-34.4-15.8
			C983.9,999.5,990.2,985.5,990.2,985.5z"/>
		<path fill="#3E3E55" d="M800.7,795.4c9.4,3,89.9,34.3,100.8,68c10.9,33.8,24.3,103,29.6,104.6s39.6,8.3,45.2,9.6
			c5.6,1.3,18.5,5.6,17.2,20.2c-1.3,14.6-7.9,21.5-23.8,20.2c-15.9-1.3-64.9-8.6-71.2-13.6c-6.3-5-15.2-27.8-15.2-27.8
			s7.5,103.8,3.8,120c-44.3,40.5-146.6,28.9-171.6-13.6c-3.9-7.5,1.1-75.2,9.2-99.5c-4-47.7-40.4-180.1,0.7-201.3
			C751.8,775,800.7,795.4,800.7,795.4z"/>
	</g>
	<path fill="#302F3F" d="M883.3,976.6l-21.5-85.9c0,0,22.5,107.9,25.3,149.8C885.4,1003.2,883.3,976.6,883.3,976.6z"/>
	<path fill="#302F3F" d="M863.8,825.6c0,0-21-34.6-73.5-49.5c-12.2-2.2-23.4,1.8-20.9,17.4C777.1,799.8,850.5,813.2,863.8,825.6z"/>
</g>
</svg>