<svg version="1.1" id="Hardware" xmlns="http://www.w3.org/2000/svg" xmlns:xlink="http://www.w3.org/1999/xlink" x="0px" y="0px"
	 viewBox="0 0 1200 900" enable-background="new 0 0 1200 900" xml:space="preserve">
<g>
	<path fill-rule="evenodd" clip-rule="evenodd" fill="#D3DAE7" d="M995,517.7c-41.9-118.4-213.9-207.3-426.5-207.3
		c-212.6,0-379,88.9-421,207.3l-11.6,6.8l-8.8,47c0,144.2,197.6,261.1,441.4,261.1c243.8,0,441.4-116.9,441.4-261.1l-8.3-46.6
		L995,517.7z"/>
	<path fill-rule="evenodd" clip-rule="evenodd" fill="#DAEDFC" d="M1007.9,560.5c0,144.2-197.6,261.1-441.4,261.1
		S125,704.7,125,560.5s197.6-261.1,441.4-261.1S1007.9,416.2,1007.9,560.5"/>
</g>
<g>
	<g>
		<polygon fill-rule="evenodd" clip-rule="evenodd" fill="#8890A0" points="771.3,437.6 847,392.4 771.3,210.4 		"/>
		<polygon fill-rule="evenodd" clip-rule="evenodd" fill="#ACB2BE" points="771.3,210.4 695.5,392.4 771.3,437.6 		"/>
	</g>
	<g>
		<polygon fill-rule="evenodd" clip-rule="evenodd" fill="#8890A0" points="836.4,495.8 895.7,460.7 836.4,319.6 		"/>
		<polygon fill-rule="evenodd" clip-rule="evenodd" fill="#ACB2BE" points="836.4,319.6 777.2,460.7 836.4,495.8 		"/>
	</g>
	<g>
		<polygon fill-rule="evenodd" clip-rule="evenodd" fill="#8890A0" points="919.2,519.7 978.5,484.6 919.2,343.5 		"/>
		<polygon fill-rule="evenodd" clip-rule="evenodd" fill="#ACB2BE" points="919.2,343.5 860,484.6 919.2,519.7 		"/>
	</g>
	<g>
		<polygon fill-rule="evenodd" clip-rule="evenodd" fill="#8890A0" points="623.6,475 730.4,411.8 623.6,157 		"/>
		<polygon fill-rule="evenodd" clip-rule="evenodd" fill="#ACB2BE" points="623.6,157 516.8,411.8 623.6,475 		"/>
	</g>
	<g>
		<polygon fill-rule="evenodd" clip-rule="evenodd" fill="#8890A0" points="389.8,560.2 578.7,448.8 389.9,0.1 		"/>
		<polygon fill-rule="evenodd" clip-rule="evenodd" fill="#ACB2BE" points="389.8,0 201.1,448.8 389.8,560.2 		"/>
	</g>
	<g>
		<polygon fill-rule="evenodd" clip-rule="evenodd" fill="#8890A0" points="304.6,681 435.8,603.7 304.6,292.4 		"/>
		<polygon fill-rule="evenodd" clip-rule="evenodd" fill="#ACB2BE" points="304.6,292.3 173.6,603.7 304.6,681 		"/>
	</g>
</g>
<g>
	<g>
		<path fill-rule="evenodd" clip-rule="evenodd" fill="#8BEF48" d="M487.1,251.7l-5.9-10.5c0,0-21.9,11.6-5.9,39.8h7.8l-4.9,3.7
			c0,0,10.6,13.3,28.4,11.1c0,0,18.1-12.9,8.5-35.4l-6.8,5.2l4-11.9c0,0-5.6-14.6-25.3-14.1V251.7z"/>
		<path fill-rule="evenodd" clip-rule="evenodd" fill="#8BEF48" d="M586.3,295.7l9.1-3.6c0,0-6.3-20.2-30.9-10.3l-1,6.7l-2.3-4.7
			c0,0-12,7.3-12.6,22.7c0,0,7.8,17.2,27,12l-3.2-6.5l8.9,5c0,0,12.4-2.8,14.6-19.8L586.3,295.7z"/>
		<path fill-rule="evenodd" clip-rule="evenodd" fill="#8BEF48" d="M542.3,231l4.4-9.2c0,0-18.2-10.6-30,14.3l3.7,5.7l-4.8-1.9
			c0,0-4.1,14,5.7,26c0,0,17.3,7.3,28.2-10.3l-6.7-2.5l10-2.6c0,0,7.4-11-2.2-25.2L542.3,231z"/>
		<path fill-rule="evenodd" clip-rule="evenodd" fill="#8BEF48" d="M503.6,198.1l-5.9-9.9c0,0-12.3,8.8-12.3,18.8l8.3,7.7h-8.3
			c0,0,6.4,28.7,36.8,28.2c0,0,10.7-9.4,10.7-21l-8.5,1.1l6.4-7.5c0,0,1.6-7.5-3.2-16.3l-5.9,4.4l-0.5-9.9c0,0-9.1-8.3-17.6-8.8
			V198.1z"/>
		<path fill-rule="evenodd" clip-rule="evenodd" fill="#8BEF48" d="M556,257.5l5.2-8c0,0-10.7-6.5-17.9-3.1l-2.8,9.1l-2.9-6.4
			c0,0-18.7,14.9-7.8,38.5c0,0,10.5,5.1,19,1.1l-3.8-6.3l7.6,2.4c0,0,6-1.3,10.8-8.1l-5.2-3.1l7.1-3.9c0,0,2.9-9.9,0.4-16.8
			L556,257.5z"/>
		<path fill="none" stroke="#87B75E" stroke-width="3" stroke-miterlimit="10" d="M487.1,251.7c0,0,28.7,44.4,27.7,110.9"/>
		<path fill-rule="evenodd" clip-rule="evenodd" fill="#8BEF48" d="M480.4,304.5c0,0-2.7,12.7,13.3,20l4.3-1.8v5.2
			c0,0,7.7,4.6,12.8,2.6c0,0,5.1-10.3,2.1-19.5l-4.8,0.8v-4.2c0,0-12.5-9.6-22.6-5.5l2.7,4.9L480.4,304.5z"/>
		<path fill="none" stroke="#87B75E" stroke-width="3" stroke-miterlimit="10" d="M520.7,365c-9.6-27.9-3.7-61.1,3.2-89.6
			s-20.3-77.4-20.3-77.4"/>
		<path fill="none" stroke="#87B75E" stroke-width="3" stroke-miterlimit="10" d="M556,257.5c0,0-19,7.5-23.1,43.8
			c-4.1,36.3,11.2,41.1-12.3,63.1"/>
		<path fill="none" stroke="#87B75E" stroke-width="3" stroke-miterlimit="10" d="M585.5,296c0,0-73.1,17.2-64.8,69"/>
		<path fill-rule="evenodd" clip-rule="evenodd" fill="#8BEF48" d="M558,336.4c-1,4.8-7.3,7.5-13.9,5.9c-6.6-1.5-11.1-6.7-10.1-11.5
			c1-4.8,7.3-7.5,13.9-5.9C554.6,326.5,559.1,331.6,558,336.4"/>
		<path fill-rule="evenodd" clip-rule="evenodd" fill="#8BEF48" d="M485.5,330.7h8.3l-5.9,8.8c0,0,7.8,12.9,15.3,14.4l3.6-5.3
			l2.6,5.3c0,0,12.7,3.3,20.9-14.4l-3.6-5.9h3.6c0,0,4.9-19.2-12.1-26.5C518,307.1,495.2,303.1,485.5,330.7"/>
	</g>
	<g>
		<path fill-rule="evenodd" clip-rule="evenodd" fill="#8BEF48" d="M683.7,290.5l-4.1-7.3c0,0-15.3,8.1-4.1,27.8h5.5l-3.4,2.6
			c0,0,7.4,9.3,19.8,7.7c0,0,12.7-9,6-24.7l-4.7,3.6l2.8-8.3c0,0-3.9-10.2-17.7-9.8V290.5z"/>
		<path fill-rule="evenodd" clip-rule="evenodd" fill="#8BEF48" d="M753,321.2l6.4-2.5c0,0-4.4-14.1-21.6-7.2l-0.7,4.7l-1.6-3.3
			c0,0-8.4,5.1-8.8,15.9c0,0,5.5,12,18.9,8.4l-2.2-4.5l6.2,3.5c0,0,8.7-2,10.2-13.8L753,321.2z"/>
		<path fill-rule="evenodd" clip-rule="evenodd" fill="#8BEF48" d="M722.3,276l3.1-6.4c0,0-12.7-7.4-20.9,10l2.6,4l-3.4-1.3
			c0,0-2.9,9.7,4,18.1c0,0,12.1,5.1,19.7-7.2l-4.7-1.8l7-1.8c0,0,5.2-7.7-1.6-17.6L722.3,276z"/>
		<path fill-rule="evenodd" clip-rule="evenodd" fill="#8BEF48" d="M695.3,253.1l-4.1-6.9c0,0-8.6,6.2-8.6,13.1l5.8,5.4h-5.8
			c0,0,4.5,20,25.7,19.7c0,0,7.4-6.6,7.4-14.6l-6,0.8l4.5-5.2c0,0,1.1-5.2-2.2-11.4l-4.1,3.1l-0.4-6.9c0,0-6.3-5.8-12.3-6.2V253.1z"
			/>
		<path fill-rule="evenodd" clip-rule="evenodd" fill="#8BEF48" d="M731.9,294.5l3.6-5.6c0,0-7.4-4.6-12.5-2.2l-1.9,6.4l-2-4.5
			c0,0-13.1,10.4-5.4,26.9c0,0,7.3,3.5,13.2,0.8l-2.6-4.4l5.3,1.7c0,0,4.2-0.9,7.5-5.7l-3.7-2.1l4.9-2.7c0,0,2-6.9,0.2-11.7
			L731.9,294.5z"/>
		<path fill="none" stroke="#87B75E" stroke-width="3" stroke-miterlimit="10" d="M683.7,290.5c0,0,20,31,19.3,77.4"/>
		<path fill-rule="evenodd" clip-rule="evenodd" fill="#8BEF48" d="M679.1,327.3c0,0-1.9,8.9,9.3,14l3-1.3v3.7c0,0,5.4,3.2,8.9,1.8
			c0,0,3.5-7.2,1.5-13.6l-3.4,0.6v-2.9c0,0-8.7-6.7-15.8-3.8l1.9,3.4L679.1,327.3z"/>
		<path fill="none" stroke="#87B75E" stroke-width="3" stroke-miterlimit="10" d="M707.2,369.5c-6.7-19.4-2.6-42.6,2.2-62.5
			s-14.1-54-14.1-54"/>
		<path fill="none" stroke="#87B75E" stroke-width="3" stroke-miterlimit="10" d="M731.9,294.5c0,0-13.2,5.2-16.1,30.5
			c-2.9,25.3,7.8,28.7-8.6,44"/>
		<path fill="none" stroke="#87B75E" stroke-width="3" stroke-miterlimit="10" d="M752.4,321.3c0,0-51,12-45.2,48.2"/>
		<path fill-rule="evenodd" clip-rule="evenodd" fill="#8BEF48" d="M733.3,349.6c-0.7,3.4-5.1,5.2-9.7,4.1c-4.6-1.1-7.8-4.7-7-8
			c0.7-3.4,5.1-5.2,9.7-4.1C730.8,342.6,734,346.2,733.3,349.6"/>
		<path fill-rule="evenodd" clip-rule="evenodd" fill="#8BEF48" d="M682.6,345.6h5.8l-4.1,6.2c0,0,5.5,9,10.7,10l2.5-3.7l1.8,3.7
			c0,0,8.9,2.3,14.6-10l-2.5-4.1h2.5c0,0,3.4-13.4-8.5-18.5C705.3,329.1,689.5,326.3,682.6,345.6"/>
	</g>
	<g>
		<path fill-rule="evenodd" clip-rule="evenodd" fill="#8BEF48" d="M859.9,385.1l-2.9-5.2c0,0-10.9,5.8-2.9,19.9h3.9l-2.4,1.8
			c0,0,5.3,6.6,14.2,5.5c0,0,9.1-6.4,4.3-17.7l-3.4,2.6l2-5.9c0,0-2.8-7.3-12.7-7V385.1z"/>
		<path fill-rule="evenodd" clip-rule="evenodd" fill="#8BEF48" d="M909.5,407.1l4.6-1.8c0,0-3.2-10.1-15.4-5.2l-0.5,3.3l-1.1-2.3
			c0,0-6,3.6-6.3,11.4c0,0,3.9,8.6,13.5,6l-1.6-3.2l4.5,2.5c0,0,6.2-1.4,7.3-9.9L909.5,407.1z"/>
		<path fill-rule="evenodd" clip-rule="evenodd" fill="#8BEF48" d="M887.5,374.8l2.2-4.6c0,0-9.1-5.3-15,7.2l1.8,2.9l-2.4-0.9
			c0,0-2.1,7,2.9,13c0,0,8.6,3.6,14.1-5.1l-3.3-1.3l5-1.3c0,0,3.7-5.5-1.1-12.6L887.5,374.8z"/>
		<path fill-rule="evenodd" clip-rule="evenodd" fill="#8BEF48" d="M868.2,358.4l-2.9-5c0,0-6.1,4.4-6.1,9.4l4.1,3.9h-4.1
			c0,0,3.2,14.4,18.4,14.1c0,0,5.3-4.7,5.3-10.5l-4.3,0.6l3.2-3.7c0,0,0.8-3.7-1.6-8.1l-2.9,2.2l-0.3-5c0,0-4.5-4.1-8.8-4.4V358.4z"
			/>
		<path fill-rule="evenodd" clip-rule="evenodd" fill="#8BEF48" d="M894.4,388l2.6-4c0,0-5.3-3.3-8.9-1.5l-1.4,4.6l-1.4-3.2
			c0,0-9.3,7.5-3.9,19.2c0,0,5.3,2.5,9.5,0.5l-1.9-3.1l3.8,1.2c0,0,3-0.7,5.4-4.1l-2.6-1.5l3.5-1.9c0,0,1.4-5,0.2-8.4L894.4,388z"/>
		<path fill="none" stroke="#87B75E" stroke-width="3" stroke-miterlimit="10" d="M859.9,385.1c0,0,14.3,22.2,13.8,55.4"/>
		<path fill-rule="evenodd" clip-rule="evenodd" fill="#8BEF48" d="M856.6,411.5c0,0-1.3,6.4,6.7,10l2.1-0.9v2.6
			c0,0,3.9,2.3,6.4,1.3c0,0,2.5-5.2,1.1-9.7l-2.4,0.4v-2.1c0,0-6.2-4.8-11.3-2.7l1.3,2.4L856.6,411.5z"/>
		<path fill="none" stroke="#87B75E" stroke-width="3" stroke-miterlimit="10" d="M876.7,441.7c-4.8-13.9-1.9-30.5,1.6-44.7
			c3.5-14.2-10.1-38.6-10.1-38.6"/>
		<path fill="none" stroke="#87B75E" stroke-width="3" stroke-miterlimit="10" d="M894.4,388c0,0-9.5,3.7-11.5,21.9
			c-2.1,18.1,5.6,20.5-6.1,31.5"/>
		<path fill="none" stroke="#87B75E" stroke-width="3" stroke-miterlimit="10" d="M909.1,407.3c0,0-36.5,8.6-32.4,34.5"/>
		<path fill-rule="evenodd" clip-rule="evenodd" fill="#8BEF48" d="M895.4,427.5c-0.5,2.4-3.6,3.7-6.9,3s-5.6-3.3-5-5.7
			c0.5-2.4,3.6-3.7,6.9-3C893.6,422.5,895.9,425.1,895.4,427.5"/>
		<path fill-rule="evenodd" clip-rule="evenodd" fill="#8BEF48" d="M859.1,424.6h4.1l-3,4.4c0,0,3.9,6.4,7.6,7.2l1.8-2.7l1.3,2.7
			c0,0,6.4,1.7,10.4-7.2l-1.8-2.9h1.8c0,0,2.4-9.6-6.1-13.2C875.3,412.8,864,410.8,859.1,424.6"/>
	</g>
</g>
<g>
	<use xlink:href="#black-block"  transform="translate(-50.4, -116.8)" />
	<use xlink:href="#black-block"  transform="translate(-12.6, -90.8)" />
	<use xlink:href="#black-block"  transform="translate(24.7, -64.9)" />
	<use xlink:href="#black-block"  transform="translate(63, -39)" />
	<use xlink:href="#black-block"  transform="translate(-113.3, -77.9)" />
	<use xlink:href="#black-block"  transform="translate(-75.5, -51.9)" />
	<use xlink:href="#black-block"  transform="translate(-37.8, -26)" />
	<filter id="blur_filter1" x="-20%" y="-20%" width="140%" height="140%" filterUnits="objectBoundingBox" primitiveUnits="userSpaceOnUse" color-interpolation-filters="linearRGB">
		<feGaussianBlur stdDeviation="1.15 1.14" x="0%" y="0%" width="100%" height="100%" in="dropShadow" edgeMode="none" result="blur"/>
	</filter>
	<g id="black-block">
		<path fill-rule="evenodd" clip-rule="evenodd" d="M758.9,587.2l52.8-16.1v32.4h0c-0.1,2-1.3,4-3.8,5.5l-26.7,16.4
			c-5.1,3.1-13.4,3.2-18.4,0h0c-2.6-1.6-3.9-3.7-3.8-5.8h0V587.2z"/>
		<path fill-rule="evenodd" clip-rule="evenodd" d="M762.7,593c5.1,3.1,13.4,3.1,18.5,0l26.7-16.4c5.1-3.1,5.1-8.2,0-11.4
			c-5.1-3.1-13.4-3.1-18.5,0l-26.7,16.4C757.6,584.8,757.6,589.9,762.7,593"/>
		<path filter="url(#blur_filter1)" fill-rule="evenodd" clip-rule="evenodd" fill="none" stroke="#00FFFC" stroke-width="3" stroke-miterlimit="10" d="
			M762.7,590c5.1,3.1,13.4,3.1,18.5,0l26.7-16.4c5.1-3.1,5.1-8.2,0-11.4c-5.1-3.1-13.4-3.1-18.5,0l-26.7,16.4
			C757.6,581.8,757.6,586.9,762.7,590"/>
		<path fill-rule="evenodd" clip-rule="evenodd" d="M758.9,548.3l52.8-16.1v32.4h0c-0.1,2-1.3,4-3.8,5.5l-26.7,16.4
			c-5.1,3.1-13.4,3.2-18.4,0h0c-2.6-1.6-3.9-3.7-3.8-5.8h0V548.3z"/>
		<path fill-rule="evenodd" clip-rule="evenodd" fill="#EEF1F7" d="M762.7,554.1c5.1,3.1,13.4,3.1,18.5,0l26.7-16.4
			c5.1-3.1,5.1-8.2,0-11.4c-5.1-3.1-13.4-3.1-18.5,0l-26.7,16.4C757.6,545.9,757.6,550.9,762.7,554.1"/>
	</g>
</g>
<g id="track">
	<polygon fill-rule="evenodd" clip-rule="evenodd" points="705.4,743.1 448.7,595.9 588.3,513.7 844.5,660.4 	"/>
	<g>
		<defs>
			<clipPath id="clipTrackDown">
				<polygon points="705.4,743.1 448.7,595.9 588.3,513.7 844.5,660.4 			"/>
			</clipPath>
		</defs>
		<g clip-path="url(#clipTrackDown)">
			<g id="track-down">
				<polygon fill-rule="evenodd" clip-rule="evenodd" fill="#C1C2C1" points="660.2,739 684.4,752.9 823.1,670.1 798.8,656.2 			"/>
				<polygon fill-rule="evenodd" clip-rule="evenodd" fill="#C1C2C1" points="688.2,755 712.4,768.9 851.1,686.1 826.8,672.2 			"/>
				<polygon fill-rule="evenodd" clip-rule="evenodd" fill="#C1C2C1" points="716.2,771 740.4,784.9 879.1,702.1 854.8,688.2 			"/>
				<polygon fill-rule="evenodd" clip-rule="evenodd" fill="#C1C2C1" points="744.2,787 768.4,800.9 907.1,718.1 882.8,704.2 			"/>
				<polygon fill-rule="evenodd" clip-rule="evenodd" fill="#C1C2C1" points="632.2,723 656.4,736.9 795.1,654.1 770.8,640.2 			"/>
				<polygon fill-rule="evenodd" clip-rule="evenodd" fill="#C1C2C1" points="604.2,707 628.4,720.9 767.1,638.1 742.8,624.2 			"/>
				<polygon fill-rule="evenodd" clip-rule="evenodd" fill="#C1C2C1" points="576.2,691 600.4,704.9 739.1,622.1 714.8,608.2 			"/>
				<polygon fill-rule="evenodd" clip-rule="evenodd" fill="#C1C2C1" points="548.2,675 572.4,688.9 711.1,606.1 686.8,592.2 			"/>
				<polygon fill-rule="evenodd" clip-rule="evenodd" fill="#C1C2C1" points="520.2,659 544.4,672.9 683.1,590.1 658.8,576.2 			"/>
				<polygon fill-rule="evenodd" clip-rule="evenodd" fill="#C1C2C1" points="492.2,643 516.4,656.9 655.1,574.1 630.8,560.2 			"/>
				<polygon fill-rule="evenodd" clip-rule="evenodd" fill="#C1C2C1" points="464.2,627 488.4,640.9 627.1,558.1 602.8,544.2 			"/>
				<polygon fill-rule="evenodd" clip-rule="evenodd" fill="#C1C2C1" points="436.2,611 460.4,624.9 599.1,542.1 574.8,528.2 			"/>
				<polygon fill-rule="evenodd" clip-rule="evenodd" fill="#C1C2C1" points="408.2,595 432.4,608.9 571.1,526.1 546.8,512.2 			"/>
				<polygon fill-rule="evenodd" clip-rule="evenodd" fill="#C1C2C1" points="380.2,579 404.4,592.9 543.1,510.1 518.8,496.2 			"/>
			</g>
		</g>
	</g>
	<g>
		<path fill-rule="evenodd" clip-rule="evenodd" fill="#9A9C9F" d="M697.4,715.6c4.4-2.6,11.5,1.7,15.9,9.5c4.4,7.8,4.4,16.3,0,18.9
			c-4.4,2.6-11.5-1.7-15.9-9.5C693.1,726.7,693,718.2,697.4,715.6"/>
		<path fill-rule="evenodd" clip-rule="evenodd" d="M700.7,721.4c2.6-1.5,6.8,1,9.4,5.6c2.6,4.6,2.6,9.6,0,11.1
			c-2.6,1.5-6.8-1-9.4-5.6C698.1,727.9,698.1,722.9,700.7,721.4"/>
	</g>
	<g>
		<path fill-rule="evenodd" clip-rule="evenodd" fill="#EAEAEA" d="M574.6,487.3L574.6,487.3l-134.1,80l0,0c2.3-1.2,5.3-1.1,8.6,0.8
			l256,147.2c6.8,3.9,12.2,13.5,12.1,21.6c-0.1,4.1-1.6,7-3.9,8.3l0,0L847.7,665l0,0c2.4-1.3,3.9-4.2,3.9-8.3v0
			c0.1-8-5.3-17.7-12.1-21.6l-256.3-147c-1.9-1.1-3.7-1.6-5.4-1.6C576.6,486.5,575.6,486.8,574.6,487.3z"/>
		<g>
			<defs>
				<clipPath id="clipTrackUpper">
					<path d="M574.6,487.3L574.6,487.3l-134.1,80l0,0c2.3-1.2,5.3-1.1,8.6,0.8l256,147.2c6.8,3.9,12.2,13.5,12.1,21.6
						c-0.1,4.1-1.6,7-3.9,8.3l0,0L847.7,665l0,0c2.4-1.3,3.9-4.2,3.9-8.3v0c0.1-8-5.3-17.7-12.1-21.6l-256.3-147
						c-1.9-1.1-3.7-1.6-5.4-1.6C576.6,486.5,575.6,486.8,574.6,487.3z"/>
				</clipPath>
			</defs>
			<g clip-path="url(#clipTrackUpper)">
				<g id="track-upper">
					<polygon fill-rule="evenodd" clip-rule="evenodd" fill="#D2D2D1" points="727.5,755.7 900.3,652.5 876.5,638.3 703.7,741.6 				
						"/>
					<polygon fill-rule="evenodd" clip-rule="evenodd" fill="#D2D2D1" points="699.5,739.7 872.3,636.5 848.5,622.3 675.7,725.6 				
						"/>
					<polygon fill-rule="evenodd" clip-rule="evenodd" fill="#D2D2D1" points="671.5,723.7 844.3,620.5 820.5,606.3 647.7,709.6 				
						"/>
					<polygon fill-rule="evenodd" clip-rule="evenodd" fill="#D2D2D1" points="643.5,707.7 816.3,604.5 792.5,590.3 619.7,693.6 				
						"/>
					<polygon fill-rule="evenodd" clip-rule="evenodd" fill="#D2D2D1" points="615.5,691.7 788.3,588.5 764.5,574.3 591.7,677.6 				
						"/>
					<polygon fill-rule="evenodd" clip-rule="evenodd" fill="#D2D2D1" points="587.5,675.7 760.3,572.5 736.5,558.3 563.7,661.6 				
						"/>
					<polygon fill-rule="evenodd" clip-rule="evenodd" fill="#D2D2D1" points="559.5,659.7 732.3,556.5 708.5,542.3 535.7,645.6 				
						"/>
					<polygon fill-rule="evenodd" clip-rule="evenodd" fill="#D2D2D1" points="531.5,643.7 704.3,540.5 680.5,526.3 507.7,629.6 				
						"/>
					<polygon fill-rule="evenodd" clip-rule="evenodd" fill="#D2D2D1" points="503.5,627.7 676.3,524.5 652.5,510.3 479.7,613.6 				
						"/>
					<polygon fill-rule="evenodd" clip-rule="evenodd" fill="#D2D2D1" points="475.5,611.7 648.3,508.5 624.5,494.3 451.7,597.6 				
						"/>
					<polygon fill-rule="evenodd" clip-rule="evenodd" fill="#D2D2D1" points="447.5,595.7 620.3,492.5 596.5,478.3 423.7,581.6 				
						"/>
					<polygon fill-rule="evenodd" clip-rule="evenodd" fill="#D2D2D1" points="419.5,579.7 592.3,476.5 568.5,462.3 395.7,565.6 				
						"/>
					<polygon fill-rule="evenodd" clip-rule="evenodd" fill="#D2D2D1" points="391.5,563.7 564.3,460.5 540.5,446.3 367.7,549.6 				
						"/>
					<polygon fill-rule="evenodd" clip-rule="evenodd" fill="#D2D2D1" points="363.5,547.7 536.3,444.5 512.5,430.3 339.7,533.6 				
						"/>
					<polygon fill-rule="evenodd" clip-rule="evenodd" fill="#D2D2D1" points="335.5,531.7 508.3,428.5 484.5,414.3 311.7,517.6 				
						"/>
				</g>
			</g>
		</g>
	</g>
	<path fill-rule="evenodd" clip-rule="evenodd" d="M443.7,567.6c1.5,0,3.2,0.5,4.9,1.5l256.3,147c3.1,1.8,6.1,4.9,8.3,8.8
		c2.2,3.9,3.4,8.1,3.3,11.8c0,2.5-0.7,4.6-1.8,6c-1.1,1.3-2.5,2-4.3,2c-1.5,0-3.2-0.5-4.9-1.5l-256.3-147c-3.1-1.8-6.1-4.9-8.3-8.8
		c-2.2-3.9-3.4-8.1-3.3-11.8c0-2.5,0.7-4.6,1.8-6C440.5,568.3,442,567.6,443.7,567.6 M443.7,566.5c-4.1,0-7.1,3.3-7.1,9.1
		c-0.1,8,5.3,17.7,12.1,21.6l256.3,147c1.9,1.1,3.8,1.6,5.4,1.6c4.1,0,7.1-3.3,7.1-9.1c0.1-8-5.3-17.7-12.1-21.6l-256.3-147
		C447.2,567,445.3,566.5,443.7,566.5"/>
</g>
<g id="monets">
	<defs>
		<clipPath id="clipMonets">
			<path d="M440.5,567.3L440.5,567.3l134.1-80l0,0c0.9-0.5,2-0.8,3.2-0.8H1200V900H440.5L440.5,567.3z"/>
		</clipPath>
	</defs>
	<g id="money-move" clip-path="url(#clipMonets)">
		<g id="moneta8">
			<path fill-rule="evenodd" clip-rule="evenodd" fill="#C59101" d="M504.7,460c-1.7-4.8-9-6.2-17.6-6.2c-8.7,0-15.9,1.4-17.6,6.2
				H469v4.4c0,5.9,8.1,10.7,18,10.7c10,0,18-4.8,18-10.7V460H504.7z"/>
			<path fill-rule="evenodd" clip-rule="evenodd" fill="#FABF14" d="M505.1,460.2c0,5.9-8.1,10.7-18,10.7c-10,0-18-4.8-18-10.7
				c0-5.9,8.1-10.7,18-10.7C497,449.6,505.1,454.4,505.1,460.2"/>
		</g>
		<g id="moneta7">
			<path fill-rule="evenodd" clip-rule="evenodd" fill="#C59101" d="M519.2,447.7c-1.7-4.8-9-6.2-17.6-6.2c-8.7,0-15.9,1.4-17.6,6.2
				h-0.4v4.4c0,5.9,8.1,10.7,18,10.7c10,0,18-4.8,18-10.7v-4.4H519.2z"/>
			<path fill-rule="evenodd" clip-rule="evenodd" fill="#FABF14" d="M519.6,447.9c0,5.9-8.1,10.7-18,10.7c-10,0-18-4.8-18-10.7
				c0-5.9,8.1-10.7,18-10.7C511.5,437.2,519.6,442,519.6,447.9"/>
		</g>
		<g id="moneta6">
			<path fill-rule="evenodd" clip-rule="evenodd" fill="#C59101" d="M414.2,511.9c-1.7-4.8-9-6.2-17.6-6.2c-8.7,0-15.9,1.4-17.6,6.2
				h-0.4v4.4c0,5.9,8.1,10.7,18,10.7c10,0,18-4.8,18-10.7v-4.4H414.2z"/>
			<path fill-rule="evenodd" clip-rule="evenodd" fill="#FABF14" d="M414.6,512.1c0,5.9-8.1,10.7-18,10.7c-10,0-18-4.8-18-10.7
				c0-5.9,8.1-10.7,18-10.7C406.5,501.5,414.6,506.2,414.6,512.1"/>
		</g>
		<g id="moneta5">
			<path fill-rule="evenodd" clip-rule="evenodd" fill="#C59101" d="M464.2,481.4c-1.7-4.8-9-6.2-17.6-6.2c-8.7,0-15.9,1.4-17.6,6.2
				h-0.4v4.4c0,5.9,8.1,10.7,18,10.7c10,0,18-4.8,18-10.7v-4.4H464.2z"/>
			<path fill-rule="evenodd" clip-rule="evenodd" fill="#FABF14" d="M464.6,481.6c0,5.9-8.1,10.7-18,10.7c-10,0-18-4.8-18-10.7
				c0-5.9,8.1-10.7,18-10.7C456.5,471,464.6,475.7,464.6,481.6"/>
		</g>
		<g id="moneta4">
			<path fill-rule="evenodd" clip-rule="evenodd" fill="#C59101" d="M429.3,502.2c-1.7-4.8-9-6.2-17.6-6.2c-8.7,0-15.9,1.4-17.6,6.2
				h-0.4v4.4c0,5.9,8.1,10.7,18,10.7c10,0,18-4.8,18-10.7v-4.4H429.3z"/>
			<path fill-rule="evenodd" clip-rule="evenodd" fill="#FABF14" d="M429.7,502.4c0,5.9-8.1,10.7-18,10.7c-10,0-18-4.8-18-10.7
				c0-5.9,8.1-10.7,18-10.7C421.7,491.7,429.7,496.5,429.7,502.4"/>
		</g>
		<g id="moneta3">
			<path fill-rule="evenodd" clip-rule="evenodd" fill="#C59101" d="M470.5,479.8c-1.7-4.8-9-6.2-17.6-6.2c-8.7,0-15.9,1.4-17.6,6.2
				h-0.4v4.4c0,5.9,8.1,10.7,18,10.7c10,0,18-4.8,18-10.7v-4.4H470.5z"/>
			<path fill-rule="evenodd" clip-rule="evenodd" fill="#FABF14" d="M470.9,480c0,5.9-8.1,10.7-18,10.7c-10,0-18-4.8-18-10.7
				c0-5.9,8.1-10.7,18-10.7C462.8,469.3,470.9,474.1,470.9,480"/>
		</g>
		<g id="moneta2">
			<path fill-rule="evenodd" clip-rule="evenodd" fill="#C59101" d="M448.4,492.7c-1.7-4.8-9-6.2-17.6-6.2c-8.7,0-15.9,1.4-17.6,6.2
				h-0.4v4.4c0,5.9,8.1,10.7,18,10.7c10,0,18-4.8,18-10.7v-4.4H448.4z"/>
			<path fill-rule="evenodd" clip-rule="evenodd" fill="#FABF14" d="M448.7,492.9c0,5.9-8.1,10.7-18,10.7c-10,0-18-4.8-18-10.7
				c0-5.9,8.1-10.7,18-10.7C440.7,482.3,448.7,487.1,448.7,492.9"/>
		</g>
		<g id="moneta1">
			<path fill-rule="evenodd" clip-rule="evenodd" fill="#C59101" d="M484.4,469.8c-1.7-4.8-9-6.2-17.6-6.2c-8.7,0-15.9,1.4-17.6,6.2
				h-0.4v4.4c0,5.9,8.1,10.7,18,10.7c10,0,18-4.8,18-10.7v-4.4H484.4z"/>
			<path fill-rule="evenodd" clip-rule="evenodd" fill="#FABF14" d="M484.8,470c0,5.9-8.1,10.7-18,10.7c-10,0-18-4.8-18-10.7
				c0-5.9,8.1-10.7,18-10.7C476.7,459.3,484.8,464.1,484.8,470"/>
		</g>
	</g>
</g>
<g>
	<g>
		<path fill-rule="evenodd" clip-rule="evenodd" fill="#C59101" d="M845.5,692.5c-1.5-4.2-7.8-5.4-15.4-5.4
			c-7.6,0-13.9,1.2-15.4,5.4h-0.3v3.9c0,5.1,7,9.3,15.7,9.3c8.7,0,15.7-4.2,15.7-9.3v-3.9H845.5z"/>
		<path fill-rule="evenodd" clip-rule="evenodd" fill="#FABF14" d="M845.9,692.7c0,5.1-7,9.3-15.7,9.3c-8.7,0-15.7-4.2-15.7-9.3
			c0-5.1,7-9.3,15.7-9.3C838.8,683.4,845.9,687.6,845.9,692.7"/>
	</g>
	<g style="opacity: 0;">
		<path fill-rule="evenodd" clip-rule="evenodd" fill="#C59101" d="M783.4,683.2c4-1.7,9.1,2.4,14.2,8.2c5.1,5.8,8.4,11.5,6.4,15.4
			l0.2,0.3l-2.8,2.6c-3.7,3.4-11.4,0.8-17.2-5.8c-5.8-6.7-7.5-14.8-3.8-18.3l2.8-2.6L783.4,683.2z"/>
		<path fill-rule="evenodd" clip-rule="evenodd" fill="#FABF14" d="M783,683.1c-3.7,3.4-2,11.6,3.8,18.3c5.8,6.7,13.5,9.3,17.2,5.8
			c3.7-3.4,2-11.6-3.8-18.3C794.5,682.3,786.7,679.7,783,683.1"/>
	</g>
	<g>
		<path fill-rule="evenodd" clip-rule="evenodd" fill="#C59101" d="M883.3,718c-1.5-4.2-7.8-5.4-15.4-5.4c-7.6,0-13.9,1.2-15.4,5.4
			h-0.3v3.9c0,5.1,7,9.3,15.7,9.3c8.7,0,15.7-4.2,15.7-9.3V718H883.3z"/>
		<path fill-rule="evenodd" clip-rule="evenodd" fill="#FABF14" d="M883.6,718.2c0,5.1-7,9.3-15.7,9.3c-8.7,0-15.7-4.2-15.7-9.3
			c0-5.1,7-9.3,15.7-9.3C876.6,708.9,883.6,713,883.6,718.2"/>
	</g>
	<g>
		<path fill-rule="evenodd" clip-rule="evenodd" fill="#C59101" d="M758.8,740.3c4-1.7,9.1,2.4,14.2,8.2c5.1,5.8,8.4,11.5,6.4,15.4
			l0.2,0.3l-2.8,2.6c-3.7,3.4-11.4,0.8-17.2-5.8c-5.8-6.7-7.5-14.8-3.8-18.3l2.8-2.6L758.8,740.3z"/>
		<path fill-rule="evenodd" clip-rule="evenodd" fill="#FABF14" d="M758.4,740.2c-3.7,3.4-2,11.6,3.8,18.3
			c5.8,6.7,13.5,9.3,17.2,5.8c3.7-3.4,2-11.6-3.8-18.3C769.8,739.4,762.1,736.8,758.4,740.2"/>
	</g>
	<g>
		<path fill-rule="evenodd" clip-rule="evenodd" fill="#C59101" d="M812.1,705.1c-4-2.3-9.8,1.3-15.8,6.7c-6,5.4-10.1,10.9-8.5,15.3
			l-0.3,0.2l2.6,3c3.5,4,11.8,2.3,18.6-3.9s9.6-14.5,6.1-18.5l-2.6-3L812.1,705.1z"/>
		<path fill-rule="evenodd" clip-rule="evenodd" fill="#FABF14" d="M812.5,705c3.5,4,0.7,12.4-6.1,18.5c-6.8,6.2-15.2,7.9-18.6,3.9
			c-3.5-4-0.7-12.4,6.1-18.5C800.7,702.7,809.1,701,812.5,705"/>
	</g>
	<g>
		<path fill-rule="evenodd" clip-rule="evenodd" fill="#C59101" d="M870.7,762.8c-1.5-4.2-7.8-5.4-15.4-5.4
			c-7.6,0-13.9,1.2-15.4,5.4h-0.3v3.9c0,5.1,7,9.3,15.7,9.3c8.7,0,15.7-4.2,15.7-9.3v-3.9H870.7z"/>
		<path fill-rule="evenodd" clip-rule="evenodd" fill="#FABF14" d="M871,763c0,5.1-7,9.3-15.7,9.3s-15.7-4.2-15.7-9.3
			c0-5.1,7-9.3,15.7-9.3S871,757.8,871,763"/>
	</g>
	<g>
		<path fill-rule="evenodd" clip-rule="evenodd" fill="#C59101" d="M821.7,708.1c4-1.7,9.1,2.4,14.2,8.2c5.1,5.8,8.4,11.5,6.4,15.4
			l0.2,0.3l-2.8,2.6c-3.7,3.4-11.4,0.8-17.2-5.8c-5.8-6.7-7.5-14.8-3.8-18.3l2.8-2.6L821.7,708.1z"/>
		<path fill-rule="evenodd" clip-rule="evenodd" fill="#FABF14" d="M821.3,707.9c-3.7,3.4-2,11.6,3.8,18.3
			c5.8,6.7,13.5,9.3,17.2,5.8c3.7-3.4,2-11.6-3.8-18.3C832.7,707.1,825,704.5,821.3,707.9"/>
	</g>
	<g>
		<path fill-rule="evenodd" clip-rule="evenodd" fill="#C59101" d="M849.3,730.8c-4-2.3-9.8,1.3-15.8,6.7c-6,5.4-10.1,10.9-8.5,15.3
			l-0.3,0.2l2.6,3c3.5,4,11.8,2.3,18.6-3.9s9.6-14.5,6.1-18.5l-2.6-3L849.3,730.8z"/>
		<path fill-rule="evenodd" clip-rule="evenodd" fill="#FABF14" d="M849.7,730.7c3.5,4,0.7,12.4-6.1,18.5
			c-6.8,6.2-15.2,7.9-18.6,3.9c-3.5-4-0.7-12.4,6.1-18.5C837.9,728.4,846.3,726.7,849.7,730.7"/>
	</g>
	<g>
		<path fill-rule="evenodd" clip-rule="evenodd" fill="#C59101" d="M875.1,705.4c-4-2.3-9.8,1.3-15.8,6.7c-6,5.4-10.1,10.9-8.5,15.3
			l-0.3,0.2l2.6,3c3.5,4,11.8,2.3,18.6-3.9s9.6-14.5,6.1-18.5l-2.6-3L875.1,705.4z"/>
		<path fill-rule="evenodd" clip-rule="evenodd" fill="#FABF14" d="M875.5,705.3c3.5,4,0.7,12.4-6.1,18.5
			c-6.8,6.2-15.2,7.9-18.6,3.9c-3.5-4-0.7-12.4,6.1-18.5C863.7,703,872,701.3,875.5,705.3"/>
	</g>
	<g>
		<path fill-rule="evenodd" clip-rule="evenodd" fill="#C59101" d="M908.5,692.5c-1.5-4.2-7.8-5.4-15.4-5.4
			c-7.6,0-13.9,1.2-15.4,5.4h-0.3v3.9c0,5.1,7,9.3,15.7,9.3c8.7,0,15.7-4.2,15.7-9.3v-3.9H908.5z"/>
		<path fill-rule="evenodd" clip-rule="evenodd" fill="#FABF14" d="M908.8,692.7c0,5.1-7,9.3-15.7,9.3c-8.7,0-15.7-4.2-15.7-9.3
			c0-5.1,7-9.3,15.7-9.3C901.8,683.4,908.8,687.6,908.8,692.7"/>
	</g>
	<g>
		<path fill-rule="evenodd" clip-rule="evenodd" fill="#C59101" d="M846.5,683.3c4-1.7,9.1,2.4,14.2,8.2c5.1,5.8,8.4,11.5,6.4,15.4
			l0.2,0.3l-2.8,2.6c-3.7,3.4-11.4,0.8-17.2-5.8c-5.8-6.7-7.5-14.8-3.8-18.3l2.8-2.6L846.5,683.3z"/>
		<path fill-rule="evenodd" clip-rule="evenodd" fill="#FABF14" d="M846.1,683.1c-3.7,3.4-2,11.6,3.8,18.3
			c5.8,6.7,13.5,9.3,17.2,5.8c3.7-3.4,2-11.6-3.8-18.3C857.5,682.3,849.8,679.7,846.1,683.1"/>
	</g>
	<g>
		<path fill-rule="evenodd" clip-rule="evenodd" fill="#C59101" d="M786.9,762.1c-4-2.3-9.8,1.3-15.8,6.7c-6,5.4-10.1,10.9-8.5,15.3
			l-0.3,0.2l2.6,3c3.5,4,11.8,2.3,18.6-3.9c6.8-6.2,9.6-14.5,6.1-18.5l-2.6-3L786.9,762.1z"/>
		<path fill-rule="evenodd" clip-rule="evenodd" fill="#FABF14" d="M787.3,762c3.5,4,0.7,12.4-6.1,18.5c-6.8,6.2-15.2,7.9-18.6,3.9
			c-3.5-4-0.7-12.4,6.1-18.5C775.5,759.7,783.9,758,787.3,762"/>
	</g>
	<g>
		<path fill-rule="evenodd" clip-rule="evenodd" fill="#C59101" d="M820.3,750.3c-1.5-4.2-7.8-5.4-15.4-5.4
			c-7.6,0-13.9,1.2-15.4,5.4h-0.3v3.9c0,5.1,7,9.3,15.7,9.3c8.7,0,15.7-4.2,15.7-9.3v-3.9H820.3z"/>
		<path fill-rule="evenodd" clip-rule="evenodd" fill="#FABF14" d="M820.7,750.5c0,5.1-7,9.3-15.7,9.3c-8.7,0-15.7-4.2-15.7-9.3
			c0-5.1,7-9.3,15.7-9.3C813.6,741.2,820.7,745.3,820.7,750.5"/>
	</g>
	<g>
		<path fill-rule="evenodd" clip-rule="evenodd" fill="#C59101" d="M809.3,752.7c4-1.7,9.1,2.4,14.2,8.2c5.1,5.8,8.4,11.5,6.4,15.4
			l0.2,0.3l-2.8,2.6c-3.7,3.4-11.4,0.8-17.2-5.8c-5.8-6.7-7.5-14.8-3.8-18.3l2.8-2.6L809.3,752.7z"/>
		<path fill-rule="evenodd" clip-rule="evenodd" fill="#FABF14" d="M808.9,752.6c-3.7,3.4-2,11.6,3.8,18.3
			c5.8,6.7,13.5,9.3,17.2,5.8c3.7-3.4,2-11.6-3.8-18.3C820.4,751.7,812.6,749.1,808.9,752.6"/>
	</g>
	<g>
		<path fill-rule="evenodd" clip-rule="evenodd" fill="#C59101" d="M836.7,775.4c-4-2.3-9.8,1.3-15.8,6.7c-6,5.4-10.1,10.9-8.5,15.3
			l-0.3,0.2l2.6,3c3.5,4,11.8,2.3,18.6-3.9c6.8-6.2,9.6-14.5,6.1-18.5l-2.6-3L836.7,775.4z"/>
		<path fill-rule="evenodd" clip-rule="evenodd" fill="#FABF14" d="M837.1,775.3c3.5,4,0.7,12.4-6.1,18.5
			c-6.8,6.2-15.2,7.9-18.6,3.9c-3.5-4-0.7-12.4,6.1-18.5C825.3,773,833.6,771.3,837.1,775.3"/>
	</g>
</g>
<g>
	<g>
		<g>
			<path fill-rule="evenodd" clip-rule="evenodd" fill="#BFBFC7" d="M872.7,588.3c0-4.9,7.8-8.8,17.5-8.8c9.7,0,17.5,3.9,17.5,8.8
				c0,4.9-7.8,8.8-17.5,8.8C880.5,597.2,872.7,593.2,872.7,588.3"/>
			<path fill-rule="evenodd" clip-rule="evenodd" fill="#F8F7F7" d="M872.7,586.9c0-4.9,7.5-8.8,16.8-8.8s16.8,3.9,16.8,8.8
				c0,4.9-7.5,8.8-16.8,8.8S872.7,591.8,872.7,586.9"/>
			<path fill-rule="evenodd" clip-rule="evenodd" fill="#BFBFC7" d="M902.2,581.6c0,0,11.1,9.4-11.6,11.2
				C890.6,592.8,894.3,582.4,902.2,581.6"/>
			<path fill-rule="evenodd" clip-rule="evenodd" fill="#E2DEE4" d="M873.1,563.3l3.2,24.3c0,0,12.9,11.8,25.9,0l2.5-23
				C904.6,564.6,888.6,573.9,873.1,563.3"/>
			<path fill-rule="evenodd" clip-rule="evenodd" fill="#BFBFC7" d="M871.1,558.4c0-6.1,8.2-11,18.3-11c10.1,0,18.3,4.9,18.3,11
				s-8.2,11-18.3,11C879.3,569.4,871.1,564.5,871.1,558.4"/>
			<path fill-rule="evenodd" clip-rule="evenodd" fill="#FEFEFD" d="M871.1,557.5c0-5.6,8.2-10.1,18.3-10.1
				c10.1,0,18.3,4.5,18.3,10.1c0,5.6-8.2,10.1-18.3,10.1C879.3,567.5,871.1,563,871.1,557.5"/>
			<path fill-rule="evenodd" clip-rule="evenodd" fill="#BFBFC7" d="M874.4,556.7c0-4.1,6.7-7.5,14.9-7.5c8.2,0,14.9,3.3,14.9,7.5
				c0,4.1-6.7,7.5-14.9,7.5C881.1,564.1,874.4,560.8,874.4,556.7"/>
			<path fill-rule="evenodd" clip-rule="evenodd" d="M874.7,557.2c0-3.8,6.6-6.9,14.7-6.9c8.1,0,14.7,3.1,14.7,6.9
				c0,3.8-6.6,6.9-14.7,6.9C881.3,564.1,874.7,561,874.7,557.2"/>
		</g>
		<g>
			<path fill-rule="evenodd" clip-rule="evenodd" fill="#FAEC00" d="M891.3,558.4c0-1.5,1.2-2.7,2.6-2.7c1.4,0,2.6,1.2,2.6,2.7
				c0,1.5-1.2,2.7-2.6,2.7C892.5,561.1,891.3,559.9,891.3,558.4"/>
			<path fill-rule="evenodd" clip-rule="evenodd" fill="#FAA800" d="M898.2,558.9c0-1.3,1.1-2.4,2.4-2.4c1.3,0,2.4,1.1,2.4,2.4
				c0,1.3-1.1,2.4-2.4,2.4C899.2,561.3,898.2,560.2,898.2,558.9"/>
			<path fill-rule="evenodd" clip-rule="evenodd" fill="#00DFFF" d="M879,560.6c0-1.2,0.9-2.2,2.1-2.2c1.2,0,2.1,1,2.1,2.2
				c0,1.2-0.9,2.2-2.1,2.2C879.9,562.8,879,561.8,879,560.6"/>
			<path fill-rule="evenodd" clip-rule="evenodd" fill="#EA9895" d="M885.6,557.2c0-0.9,0.7-1.7,1.6-1.7c0.9,0,1.6,0.8,1.6,1.7
				c0,0.9-0.7,1.7-1.6,1.7C886.3,558.9,885.6,558.1,885.6,557.2"/>
			<path fill-rule="evenodd" clip-rule="evenodd" fill="#EA9895" d="M876.7,555.8c0-0.6,0.5-1.1,1-1.1c0.6,0,1,0.5,1,1.1
				s-0.5,1.1-1,1.1C877.2,556.9,876.7,556.4,876.7,555.8"/>
			<path fill-rule="evenodd" clip-rule="evenodd" fill="#EA9895" d="M887.2,562.8c0-0.6,0.5-1.1,1-1.1c0.6,0,1,0.5,1,1.1
				c0,0.6-0.5,1.1-1,1.1C887.7,563.9,887.2,563.4,887.2,562.8"/>
		</g>
		<g>
			<path fill-rule="evenodd" clip-rule="evenodd" fill="#8BEF48" d="M873.2,502.9l-2.9-5.1c0,0-10.8,5.7-2.9,19.5h3.9l-2.4,1.8
				c0,0,5.2,6.5,14,5.4c0,0,8.9-6.3,4.2-17.3l-3.3,2.5l2-5.8c0,0-2.8-7.2-12.5-6.9V502.9z"/>
			<path fill-rule="evenodd" clip-rule="evenodd" fill="#8BEF48" d="M922.1,524.5l4.5-1.8c0,0-3.1-9.9-15.2-5.1l-0.5,3.3l-1.1-2.3
				c0,0-5.9,3.6-6.2,11.1c0,0,3.9,8.4,13.3,5.9l-1.6-3.2l4.4,2.4c0,0,6.1-1.4,7.2-9.7L922.1,524.5z"/>
			<path fill-rule="evenodd" clip-rule="evenodd" fill="#8BEF48" d="M900.4,492.8l2.2-4.5c0,0-9-5.2-14.8,7l1.8,2.8l-2.4-0.9
				c0,0-2,6.8,2.8,12.7c0,0,8.5,3.6,13.9-5l-3.3-1.2l4.9-1.3c0,0,3.6-5.4-1.1-12.3L900.4,492.8z"/>
			<path fill-rule="evenodd" clip-rule="evenodd" fill="#8BEF48" d="M881.3,476.7l-2.9-4.9c0,0-6.1,4.3-6.1,9.2l4.1,3.8h-4.1
				c0,0,3.2,14.1,18.2,13.8c0,0,5.3-4.6,5.3-10.3l-4.2,0.5l3.2-3.6c0,0,0.8-3.7-1.6-8l-2.9,2.2l-0.3-4.9c0,0-4.5-4.1-8.7-4.3V476.7z
				"/>
			<path fill-rule="evenodd" clip-rule="evenodd" fill="#8BEF48" d="M907.2,505.8l2.6-3.9c0,0-5.3-3.2-8.8-1.5l-1.4,4.5l-1.4-3.2
				c0,0-9.2,7.3-3.8,18.8c0,0,5.2,2.5,9.4,0.5l-1.9-3.1l3.8,1.2c0,0,3-0.7,5.3-4l-2.6-1.5l3.5-1.9c0,0,1.4-4.9,0.2-8.2L907.2,505.8z
				"/>
			<path fill="none" stroke="#87B75E" stroke-width="3" stroke-miterlimit="10" d="M873.2,502.9c0,0,14.1,21.7,13.6,54.3"/>
			<path fill-rule="evenodd" clip-rule="evenodd" fill="#8BEF48" d="M869.9,528.8c0,0-1.3,6.2,6.6,9.8l2.1-0.9v2.6
				c0,0,3.8,2.3,6.3,1.3c0,0,2.5-5.1,1.1-9.5l-2.4,0.4v-2c0,0-6.2-4.7-11.2-2.7l1.3,2.4L869.9,528.8z"/>
			<path fill="none" stroke="#87B75E" stroke-width="3" stroke-miterlimit="10" d="M889.8,558.4c-4.7-13.6-1.8-29.9,1.6-43.8
				c3.4-13.9-10-37.9-10-37.9"/>
			<path fill="none" stroke="#87B75E" stroke-width="3" stroke-miterlimit="10" d="M907.2,505.8c0,0-9.3,3.7-11.4,21.4
				c-2,17.8,5.5,20.1-6.1,30.9"/>
			<path fill="none" stroke="#87B75E" stroke-width="3" stroke-miterlimit="10" d="M921.7,524.6c0,0-36,8.4-32,33.8"/>
			<path fill-rule="evenodd" clip-rule="evenodd" fill="#8BEF48" d="M908.2,544.4c-0.5,2.4-3.6,3.7-6.8,2.9c-3.3-0.8-5.5-3.3-5-5.6
				c0.5-2.4,3.6-3.7,6.8-2.9C906.5,539.5,908.7,542.1,908.2,544.4"/>
			<path fill-rule="evenodd" clip-rule="evenodd" fill="#8BEF48" d="M872.4,541.6h4.1l-2.9,4.3c0,0,3.9,6.3,7.5,7l1.8-2.6l1.3,2.6
				c0,0,6.3,1.6,10.3-7l-1.8-2.9h1.8c0,0,2.4-9.4-6-13C888.4,530.1,877.2,528.1,872.4,541.6"/>
		</g>
	</g>
	<g>
		<g>
			<path fill-rule="evenodd" clip-rule="evenodd" fill="#BFBFC7" d="M872.5,657.5c0-4.9,7.8-8.8,17.5-8.8c9.7,0,17.5,3.9,17.5,8.8
				c0,4.9-7.8,8.8-17.5,8.8C880.4,666.3,872.5,662.4,872.5,657.5"/>
			<path fill-rule="evenodd" clip-rule="evenodd" fill="#F8F7F7" d="M872.5,656c0-4.9,7.5-8.8,16.8-8.8s16.8,3.9,16.8,8.8
				c0,4.9-7.5,8.8-16.8,8.8S872.5,660.9,872.5,656"/>
			<path fill-rule="evenodd" clip-rule="evenodd" fill="#BFBFC7" d="M902.1,650.8c0,0,11.1,9.4-11.6,11.2
				C890.5,662,894.2,651.5,902.1,650.8"/>
			<path fill-rule="evenodd" clip-rule="evenodd" fill="#E2DEE4" d="M872.9,632.5l3.2,24.3c0,0,12.9,11.8,25.9,0l2.5-23
				C904.5,633.7,888.5,643.1,872.9,632.5"/>
			<path fill-rule="evenodd" clip-rule="evenodd" fill="#BFBFC7" d="M871,627.6c0-6.1,8.2-11,18.3-11c10.1,0,18.3,4.9,18.3,11
				s-8.2,11-18.3,11C879.2,638.5,871,633.6,871,627.6"/>
			<path fill-rule="evenodd" clip-rule="evenodd" fill="#FEFEFD" d="M871,626.6c0-5.6,8.2-10.1,18.3-10.1c10.1,0,18.3,4.5,18.3,10.1
				c0,5.6-8.2,10.1-18.3,10.1C879.2,636.7,871,632.2,871,626.6"/>
			<path fill-rule="evenodd" clip-rule="evenodd" fill="#BFBFC7" d="M874.3,625.8c0-4.1,6.7-7.5,14.9-7.5c8.2,0,14.9,3.3,14.9,7.5
				c0,4.1-6.7,7.5-14.9,7.5C881,633.3,874.3,630,874.3,625.8"/>
			<path fill-rule="evenodd" clip-rule="evenodd" d="M874.6,626.4c0-3.8,6.6-6.9,14.7-6.9c8.1,0,14.7,3.1,14.7,6.9
				c0,3.8-6.6,6.9-14.7,6.9C881.2,633.2,874.6,630.1,874.6,626.4"/>
		</g>
		<g>
			<path fill-rule="evenodd" clip-rule="evenodd" fill="#FAEC00" d="M891.2,627.6c0-1.5,1.2-2.7,2.6-2.7c1.4,0,2.6,1.2,2.6,2.7
				c0,1.5-1.2,2.7-2.6,2.7C892.4,630.2,891.2,629,891.2,627.6"/>
			<path fill-rule="evenodd" clip-rule="evenodd" fill="#FAA800" d="M898,628c0-1.3,1.1-2.4,2.4-2.4c1.3,0,2.4,1.1,2.4,2.4
				c0,1.3-1.1,2.4-2.4,2.4C899.1,630.5,898,629.4,898,628"/>
			<path fill-rule="evenodd" clip-rule="evenodd" fill="#00DFFF" d="M878.8,629.8c0-1.2,0.9-2.2,2.1-2.2c1.2,0,2.1,1,2.1,2.2
				c0,1.2-0.9,2.2-2.1,2.2C879.8,631.9,878.8,631,878.8,629.8"/>
			<path fill-rule="evenodd" clip-rule="evenodd" fill="#EA9895" d="M885.4,626.4c0-0.9,0.7-1.7,1.6-1.7c0.9,0,1.6,0.8,1.6,1.7
				c0,0.9-0.7,1.7-1.6,1.7C886.2,628,885.4,627.3,885.4,626.4"/>
			<path fill-rule="evenodd" clip-rule="evenodd" fill="#EA9895" d="M876.6,625c0-0.6,0.5-1.1,1-1.1c0.6,0,1,0.5,1,1.1
				s-0.5,1.1-1,1.1C877.1,626.1,876.6,625.6,876.6,625"/>
			<path fill-rule="evenodd" clip-rule="evenodd" fill="#EA9895" d="M887.1,631.9c0-0.6,0.5-1.1,1-1.1c0.6,0,1,0.5,1,1.1
				c0,0.6-0.5,1.1-1,1.1C887.5,633,887.1,632.5,887.1,631.9"/>
		</g>
		<g>
			<path fill-rule="evenodd" clip-rule="evenodd" fill="#8BEF48" d="M873,572.1l-2.9-5.1c0,0-10.8,5.7-2.9,19.5h3.9l-2.4,1.8
				c0,0,5.2,6.5,14,5.4c0,0,8.9-6.3,4.2-17.3l-3.3,2.5l2-5.8c0,0-2.8-7.2-12.5-6.9V572.1z"/>
			<path fill-rule="evenodd" clip-rule="evenodd" fill="#8BEF48" d="M922,593.7l4.5-1.8c0,0-3.1-9.9-15.2-5.1l-0.5,3.3l-1.1-2.3
				c0,0-5.9,3.6-6.2,11.1c0,0,3.9,8.4,13.3,5.9l-1.6-3.2l4.4,2.4c0,0,6.1-1.4,7.2-9.7L922,593.7z"/>
			<path fill-rule="evenodd" clip-rule="evenodd" fill="#8BEF48" d="M900.3,561.9l2.2-4.5c0,0-9-5.2-14.8,7l1.8,2.8l-2.4-0.9
				c0,0-2,6.8,2.8,12.7c0,0,8.5,3.6,13.9-5l-3.3-1.2l4.9-1.3c0,0,3.6-5.4-1.1-12.3L900.3,561.9z"/>
			<path fill-rule="evenodd" clip-rule="evenodd" fill="#8BEF48" d="M881.2,545.9l-2.9-4.9c0,0-6.1,4.3-6.1,9.2l4.1,3.8h-4.1
				c0,0,3.2,14.1,18.2,13.8c0,0,5.3-4.6,5.3-10.3l-4.2,0.5l3.2-3.6c0,0,0.8-3.7-1.6-8l-2.9,2.2l-0.3-4.9c0,0-4.5-4.1-8.7-4.3V545.9z
				"/>
			<path fill-rule="evenodd" clip-rule="evenodd" fill="#8BEF48" d="M907,574.9l2.6-3.9c0,0-5.3-3.2-8.8-1.5l-1.4,4.5l-1.4-3.2
				c0,0-9.2,7.3-3.8,18.8c0,0,5.2,2.5,9.4,0.5l-1.9-3.1l3.8,1.2c0,0,3-0.7,5.3-4l-2.6-1.5l3.5-1.9c0,0,1.4-4.9,0.2-8.2L907,574.9z"
				/>
			<path fill="none" stroke="#87B75E" stroke-width="3" stroke-miterlimit="10" d="M873,572.1c0,0,14.1,21.7,13.6,54.3"/>
			<path fill-rule="evenodd" clip-rule="evenodd" fill="#8BEF48" d="M869.8,597.9c0,0-1.3,6.2,6.6,9.8l2.1-0.9v2.6
				c0,0,3.8,2.3,6.3,1.3c0,0,2.5-5.1,1.1-9.5l-2.4,0.4v-2c0,0-6.2-4.7-11.2-2.7l1.3,2.4L869.8,597.9z"/>
			<path fill="none" stroke="#87B75E" stroke-width="3" stroke-miterlimit="10" d="M889.6,627.6c-4.7-13.6-1.8-29.9,1.6-43.8
				c3.4-13.9-10-37.9-10-37.9"/>
			<path fill="none" stroke="#87B75E" stroke-width="3" stroke-miterlimit="10" d="M907,574.9c0,0-9.3,3.7-11.4,21.4
				c-2,17.8,5.5,20.1-6.1,30.9"/>
			<path fill="none" stroke="#87B75E" stroke-width="3" stroke-miterlimit="10" d="M921.6,593.8c0,0-36,8.4-32,33.8"/>
			<path fill-rule="evenodd" clip-rule="evenodd" fill="#8BEF48" d="M908,613.6c-0.5,2.4-3.6,3.7-6.8,2.9c-3.3-0.8-5.5-3.3-5-5.6
				c0.5-2.4,3.6-3.7,6.8-2.9C906.3,608.7,908.5,611.2,908,613.6"/>
			<path fill-rule="evenodd" clip-rule="evenodd" fill="#8BEF48" d="M872.3,610.8h4.1l-2.9,4.3c0,0,3.9,6.3,7.5,7l1.8-2.6l1.3,2.6
				c0,0,6.3,1.6,10.3-7l-1.8-2.9h1.8c0,0,2.4-9.4-6-13C888.3,599.2,877.1,597.2,872.3,610.8"/>
		</g>
	</g>
	<g>
		<g>
			<path fill-rule="evenodd" clip-rule="evenodd" fill="#BFBFC7" d="M677.3,788.8c0-4.9,7.8-8.8,17.5-8.8c9.7,0,17.5,3.9,17.5,8.8
				c0,4.9-7.8,8.8-17.5,8.8C685.2,797.6,677.3,793.7,677.3,788.8"/>
			<path fill-rule="evenodd" clip-rule="evenodd" fill="#F8F7F7" d="M677.3,787.3c0-4.9,7.5-8.8,16.8-8.8s16.8,3.9,16.8,8.8
				c0,4.9-7.5,8.8-16.8,8.8S677.3,792.2,677.3,787.3"/>
			<path fill-rule="evenodd" clip-rule="evenodd" fill="#BFBFC7" d="M706.9,782.1c0,0,11.1,9.4-11.6,11.2
				C695.3,793.3,699,782.8,706.9,782.1"/>
			<path fill-rule="evenodd" clip-rule="evenodd" fill="#E2DEE4" d="M677.7,763.8l3.2,24.3c0,0,12.9,11.8,25.9,0l2.5-23
				C709.3,765,693.3,774.4,677.7,763.8"/>
			<path fill-rule="evenodd" clip-rule="evenodd" fill="#BFBFC7" d="M675.8,758.9c0-6.1,8.2-11,18.3-11c10.1,0,18.3,4.9,18.3,11
				s-8.2,11-18.3,11C684,769.8,675.8,764.9,675.8,758.9"/>
			<path fill-rule="evenodd" clip-rule="evenodd" fill="#FEFEFD" d="M675.8,757.9c0-5.6,8.2-10.1,18.3-10.1
				c10.1,0,18.3,4.5,18.3,10.1c0,5.6-8.2,10.1-18.3,10.1C684,768,675.8,763.5,675.8,757.9"/>
			<path fill-rule="evenodd" clip-rule="evenodd" fill="#BFBFC7" d="M679.1,757.1c0-4.1,6.7-7.5,14.9-7.5c8.2,0,14.9,3.3,14.9,7.5
				c0,4.1-6.7,7.5-14.9,7.5C685.8,764.6,679.1,761.3,679.1,757.1"/>
			<path fill-rule="evenodd" clip-rule="evenodd" d="M679.4,757.7c0-3.8,6.6-6.9,14.7-6.9c8.1,0,14.7,3.1,14.7,6.9
				c0,3.8-6.6,6.9-14.7,6.9C685.9,764.5,679.4,761.5,679.4,757.7"/>
		</g>
		<g>
			<path fill-rule="evenodd" clip-rule="evenodd" fill="#FAEC00" d="M696,758.9c0-1.5,1.2-2.7,2.6-2.7c1.4,0,2.6,1.2,2.6,2.7
				c0,1.5-1.2,2.7-2.6,2.7C697.1,761.5,696,760.3,696,758.9"/>
			<path fill-rule="evenodd" clip-rule="evenodd" fill="#FAA800" d="M702.8,759.3c0-1.3,1.1-2.4,2.4-2.4c1.3,0,2.4,1.1,2.4,2.4
				c0,1.3-1.1,2.4-2.4,2.4C703.9,761.8,702.8,760.7,702.8,759.3"/>
			<path fill-rule="evenodd" clip-rule="evenodd" fill="#00DFFF" d="M683.6,761.1c0-1.2,0.9-2.2,2.1-2.2c1.2,0,2.1,1,2.1,2.2
				c0,1.2-0.9,2.2-2.1,2.2C684.6,763.3,683.6,762.3,683.6,761.1"/>
			<path fill-rule="evenodd" clip-rule="evenodd" fill="#EA9895" d="M690.2,757.7c0-0.9,0.7-1.7,1.6-1.7c0.9,0,1.6,0.8,1.6,1.7
				c0,0.9-0.7,1.7-1.6,1.7C691,759.3,690.2,758.6,690.2,757.7"/>
			<path fill-rule="evenodd" clip-rule="evenodd" fill="#EA9895" d="M681.4,756.3c0-0.6,0.5-1.1,1-1.1c0.6,0,1,0.5,1,1.1
				c0,0.6-0.5,1.1-1,1.1C681.9,757.4,681.4,756.9,681.4,756.3"/>
			<path fill-rule="evenodd" clip-rule="evenodd" fill="#EA9895" d="M691.9,763.3c0-0.6,0.5-1.1,1-1.1c0.6,0,1,0.5,1,1.1
				c0,0.6-0.5,1.1-1,1.1C692.3,764.3,691.9,763.8,691.9,763.3"/>
		</g>
		<g>
			<path fill-rule="evenodd" clip-rule="evenodd" fill="#8BEF48" d="M677.8,703.4l-2.9-5.1c0,0-10.8,5.7-2.9,19.5h3.9l-2.4,1.8
				c0,0,5.2,6.5,14,5.4c0,0,8.9-6.3,4.2-17.3l-3.3,2.5l2-5.8c0,0-2.8-7.2-12.5-6.9V703.4z"/>
			<path fill-rule="evenodd" clip-rule="evenodd" fill="#8BEF48" d="M726.7,725l4.5-1.8c0,0-3.1-9.9-15.2-5.1l-0.5,3.3l-1.1-2.3
				c0,0-5.9,3.6-6.2,11.1c0,0,3.9,8.4,13.3,5.9l-1.6-3.2l4.4,2.4c0,0,6.1-1.4,7.2-9.7L726.7,725z"/>
			<path fill-rule="evenodd" clip-rule="evenodd" fill="#8BEF48" d="M705.1,693.3l2.2-4.5c0,0-9-5.2-14.8,7l1.8,2.8l-2.4-0.9
				c0,0-2,6.8,2.8,12.7c0,0,8.5,3.6,13.9-5l-3.3-1.2l4.9-1.3c0,0,3.6-5.4-1.1-12.3L705.1,693.3z"/>
			<path fill-rule="evenodd" clip-rule="evenodd" fill="#8BEF48" d="M686,677.2l-2.9-4.9c0,0-6.1,4.3-6.1,9.2l4.1,3.8H677
				c0,0,3.2,14.1,18.2,13.8c0,0,5.3-4.6,5.3-10.3l-4.2,0.5l3.2-3.6c0,0,0.8-3.7-1.6-8l-2.9,2.2l-0.3-4.9c0,0-4.5-4.1-8.7-4.3V677.2z
				"/>
			<path fill-rule="evenodd" clip-rule="evenodd" fill="#8BEF48" d="M711.8,706.2l2.6-3.9c0,0-5.3-3.2-8.8-1.5l-1.4,4.5l-1.4-3.2
				c0,0-9.2,7.3-3.8,18.8c0,0,5.2,2.5,9.4,0.5l-1.9-3.1l3.8,1.2c0,0,3-0.7,5.3-4l-2.6-1.5l3.5-1.9c0,0,1.4-4.9,0.2-8.2L711.8,706.2z
				"/>
			<path fill="none" stroke="#87B75E" stroke-width="3" stroke-miterlimit="10" d="M677.8,703.4c0,0,14.1,21.7,13.6,54.3"/>
			<path fill-rule="evenodd" clip-rule="evenodd" fill="#8BEF48" d="M674.5,729.2c0,0-1.3,6.2,6.6,9.8l2.1-0.9v2.6
				c0,0,3.8,2.3,6.3,1.3c0,0,2.5-5.1,1.1-9.5l-2.4,0.4v-2c0,0-6.2-4.7-11.2-2.7l1.3,2.4L674.5,729.2z"/>
			<path fill="none" stroke="#87B75E" stroke-width="3" stroke-miterlimit="10" d="M694.4,758.9c-4.7-13.6-1.8-29.9,1.6-43.8
				s-10-37.9-10-37.9"/>
			<path fill="none" stroke="#87B75E" stroke-width="3" stroke-miterlimit="10" d="M711.8,706.2c0,0-9.3,3.7-11.4,21.4
				c-2,17.8,5.5,20.1-6.1,30.9"/>
			<path fill="none" stroke="#87B75E" stroke-width="3" stroke-miterlimit="10" d="M726.4,725.1c0,0-36,8.4-32,33.8"/>
			<path fill-rule="evenodd" clip-rule="evenodd" fill="#8BEF48" d="M712.8,744.9c-0.5,2.4-3.6,3.7-6.8,2.9c-3.3-0.8-5.5-3.3-5-5.6
				c0.5-2.4,3.6-3.7,6.8-2.9C711.1,740,713.3,742.5,712.8,744.9"/>
			<path fill-rule="evenodd" clip-rule="evenodd" fill="#8BEF48" d="M677,742.1h4.1l-2.9,4.3c0,0,3.9,6.3,7.5,7l1.8-2.6l1.3,2.6
				c0,0,6.3,1.6,10.3-7l-1.8-2.9h1.8c0,0,2.4-9.4-6-13C693.1,730.5,681.9,728.5,677,742.1"/>
		</g>
	</g>
</g>
<g>
	<g id="panel">
		<path fill-rule="evenodd" clip-rule="evenodd" d="M493.1,884.7L519,900c1.5,0.9,4.1,0.9,5.6,0l6.4-3.9c1.5-0.9,1.5-2.4,0-3.3
			l-25.9-15.3c-1.5-0.9-4.1-0.9-5.6,0l-6.4,3.9C491.6,882.3,491.6,883.8,493.1,884.7"/>
		<path fill-rule="evenodd" clip-rule="evenodd" d="M502.7,861.5l17.3,10.3c0.5,0.3,1.2,0.3,1.7,0l1.2-0.7c0.2-0.1,0.4-0.3,0.4-0.5
			v21.6h0c0,0.2-0.1,0.4-0.4,0.5l-1.2,0.7c-0.5,0.3-1.2,0.3-1.7,0l-17.3-10.3c-0.2-0.1-0.3-0.3-0.4-0.5h0V861h0
			C502.4,861.2,502.5,861.4,502.7,861.5"/>
		<linearGradient id="gradPanel1" gradientUnits="userSpaceOnUse" x1="482.5617" y1="869.4254" x2="562.2403" y2="823.423">
			<stop  offset="0" style="stop-color:#00A4FF"/>
			<stop  offset="0.1514" style="stop-color:#07BDFC"/>
			<stop  offset="0.3678" style="stop-color:#0FDAF8"/>
			<stop  offset="0.5833" style="stop-color:#14EEF5"/>
			<stop  offset="0.7954" style="stop-color:#18FBF4"/>
			<stop  offset="1" style="stop-color:#19FFF3"/>
		</linearGradient>
		<path fill-rule="evenodd" clip-rule="evenodd" fill="url(#gradPanel1)" d="M496.8,796l74.5,44.1c2.4,1.5,1.7,3.6,0.7,6.1l-19.5,47.5
			c-1,2.6-1.9,4.7-4.4,3.1l-74.5-44.1c-2.5-1.5-1.7-3.6-0.7-6.1l19.5-47.5C493.4,796.6,494.1,794.5,496.8,796"/>
		<g>
			<defs>
				<clipPath id="clipPanel1">
					<path d="M496.8,796l74.5,44.1c2.4,1.5,1.7,3.6,0.7,6.1l-19.5,47.5c-1,2.6-1.9,4.7-4.4,3.1l-74.5-44.1
						c-2.5-1.5-1.7-3.6-0.7-6.1l19.5-47.5C493.4,796.6,494.1,794.5,496.8,796"/>
				</clipPath>
			</defs>
			<g clip-path="url(#clipPanel1)">
				<line fill="none" stroke="#FFFFFF" stroke-miterlimit="10" x1="480.8" y1="857.7" x2="505.5" y2="798.5"/>
				<line fill="none" stroke="#FFFFFF" stroke-miterlimit="10" x1="491.1" y1="863.6" x2="515.5" y2="805.3"/>
				<line fill="none" stroke="#FFFFFF" stroke-miterlimit="10" x1="501.5" y1="869.4" x2="526" y2="810.8"/>
				<line fill="none" stroke="#FFFFFF" stroke-miterlimit="10" x1="511.9" y1="875.8" x2="536.2" y2="817.7"/>
				<line fill="none" stroke="#FFFFFF" stroke-miterlimit="10" x1="522.2" y1="881.7" x2="546.8" y2="823"/>
				<line fill="none" stroke="#FFFFFF" stroke-miterlimit="10" x1="532" y1="889.7" x2="557.6" y2="828.3"/>
				<line fill="none" stroke="#FFFFFF" stroke-miterlimit="10" x1="542.4" y1="896" x2="567.7" y2="835.4"/>
				<line fill="none" stroke="#FFFFFF" stroke-miterlimit="10" x1="480" y1="823" x2="566.6" y2="874.5"/>
			</g>
		</g>
	</g>
	<use xlink:href="#panel"  transform="translate(111, -34.7)" />
	<use xlink:href="#panel"  transform="translate(18.6, -87.3)" />
	<use xlink:href="#panel"  transform="translate(-88.3, -51.8)" />
	<use xlink:href="#panel"  transform="translate(505.2, -302.1)" />
	<use xlink:href="#panel"  transform="translate(494.9, -228.6)" />
	<use xlink:href="#panel"  transform="translate(597.6, -249.5)" />
</g>
<g>
	<path fill-rule="evenodd" clip-rule="evenodd" d="M478.9,637.5l-105.5-32.2v64.8h0c0.1,4,2.6,8,7.6,11.1l53.3,32.7
		c10.2,6.3,26.7,6.3,36.9,0.1h0c5.2-3.2,7.8-7.4,7.6-11.6h0V637.5z"/>
	<path fill-rule="evenodd" clip-rule="evenodd" d="M471.2,649.1c-10.2,6.3-26.8,6.2-37-0.1l-53.4-32.7c-10.2-6.3-10.2-16.5,0-22.7
		c10.2-6.3,26.8-6.2,37,0.1l53.4,32.7C481.5,632.7,481.4,642.9,471.2,649.1"/>
	<path filter="url(#blur_filter1)" fill-rule="evenodd" clip-rule="evenodd" fill="none" stroke="#00FFFC" stroke-width="3" stroke-miterlimit="10" d="
		M471.2,642.6c-10.2,6.3-26.8,6.2-37-0.1l-53.4-32.7c-10.2-6.3-10.2-16.5,0-22.7c10.2-6.3,26.8-6.2,37,0.1l53.4,32.7
		C481.5,626.2,481.4,636.3,471.2,642.6"/>
	<path fill-rule="evenodd" clip-rule="evenodd" d="M478.9,559.6l-105.5-32.2v64.8h0c0.1,4,2.6,8,7.6,11.1l53.3,32.7
		c10.2,6.3,26.7,6.3,36.9,0.1h0c5.2-3.2,7.8-7.4,7.6-11.6h0V559.6z"/>
	<path fill-rule="evenodd" clip-rule="evenodd" fill="#EEF1F7" d="M434.3,571.2l-53.4-32.7c-10.2-6.3-10.2-16.5,0-22.7
		c10.2-6.3,26.8-6.2,37,0.1l53.4,32.7c10.2,6.3,10.2,16.5,0,22.7C461,577.5,444.5,577.5,434.3,571.2z"/>
</g>
<g id="clouds">
	<g id="cloud4">
		<path fill-rule="evenodd" clip-rule="evenodd" fill="#D3DAE7" d="M394.2,305.4c26.1,1.3,37.8-9.8,34.5-22.8
			c-3.6-10.1-1.9-17.6,5.2-22.3c10.6-7.2,20.1-10.7,44.4-14.8c24.3-4,13.4-18.3-1.8-24.1c-15.2-5.8-57.1-14.4-91-1
			c-33.9,13.4-43.7,26-41.6,44.7C345.9,283.8,368,304.1,394.2,305.4z"/>
		<path fill-rule="evenodd" clip-rule="evenodd" fill="#FFFFFF" d="M394.2,304.2c26.1,1.3,37.7-9.7,34.4-22.6
			c-3.6-10.1-1.9-17.5,5.2-22.2c10.5-7.1,20-10.7,44.3-14.7c24.2-4,13.4-18.2-1.8-23.9c-15.2-5.8-57-14.3-90.8-1
			c-33.8,13.3-43.6,25.8-41.5,44.5C346,282.8,368.1,302.9,394.2,304.2z"/>
		<g>
			<defs>
				<clipPath id="clip_cloud_h1">
					<path d="M394.2,304.2c26.1,1.3,37.7-9.7,34.4-22.6c-3.6-10.1-1.9-17.5,5.2-22.2c10.5-7.1,20-10.7,44.3-14.7
						c24.2-4,13.4-18.2-1.8-23.9c-15.2-5.8-57-14.3-90.8-1c-33.8,13.3-43.6,25.8-41.5,44.5C346,282.8,368.1,302.9,394.2,304.2z"/>
				</clipPath>
			</defs>
			<g opacity="0.04" clip-path="url(#clip_cloud_h1)">
				<line fill="none" stroke="#000000" stroke-miterlimit="10" x1="350.5" y1="317.3" x2="473.7" y2="191.1"/>
				<line fill="none" stroke="#000000" stroke-miterlimit="10" x1="360.4" y1="317.2" x2="483.2" y2="191.3"/>
				<line fill="none" stroke="#000000" stroke-miterlimit="10" x1="370.3" y1="317.3" x2="493.3" y2="191.2"/>
				<line fill="none" stroke="#000000" stroke-miterlimit="10" x1="380" y1="317.4" x2="503.1" y2="191.2"/>
				<line fill="none" stroke="#000000" stroke-miterlimit="10" x1="390.6" y1="317.4" x2="513.8" y2="191.1"/>
				<line fill="none" stroke="#000000" stroke-miterlimit="10" x1="400.4" y1="317.4" x2="523.3" y2="191.4"/>
				<line fill="none" stroke="#000000" stroke-miterlimit="10" x1="300.2" y1="317.2" x2="423.3" y2="191"/>
				<line fill="none" stroke="#000000" stroke-miterlimit="10" x1="310.4" y1="317" x2="433" y2="191.3"/>
				<line fill="none" stroke="#000000" stroke-miterlimit="10" x1="280.1" y1="317.4" x2="403.1" y2="191.2"/>
				<line fill="none" stroke="#000000" stroke-miterlimit="10" x1="290.2" y1="317.2" x2="413.1" y2="191.2"/>
				<line fill="none" stroke="#000000" stroke-miterlimit="10" x1="319.7" y1="317.4" x2="443" y2="191"/>
				<line fill="none" stroke="#000000" stroke-miterlimit="10" x1="330.3" y1="317.5" x2="453.3" y2="191.4"/>
				<line fill="none" stroke="#000000" stroke-miterlimit="10" x1="340.2" y1="317.4" x2="463.3" y2="191.2"/>
				<line fill="none" stroke="#000000" stroke-miterlimit="10" x1="410.5" y1="317.6" x2="533.8" y2="191.1"/>
			</g>
		</g>
	</g>
	<g id="cloud3">
		<path fill-rule="evenodd" clip-rule="evenodd" fill="#D3DAE7" d="M220.7,398.5c26.1,1.3,37.8-9.8,34.5-22.8
			c-3.6-10.1-1.9-17.6,5.2-22.3c10.6-7.2,20.1-10.7,44.4-14.8c24.3-4,13.4-18.3-1.8-24.1c-15.2-5.8-57.1-14.4-91-1
			c-33.9,13.4-43.7,26-41.6,44.7C172.4,377,194.5,397.2,220.7,398.5z"/>
		<path fill-rule="evenodd" clip-rule="evenodd" fill="#FFFFFF" d="M220.7,397.3c26.1,1.3,37.7-9.7,34.4-22.6
			c-3.6-10.1-1.9-17.5,5.2-22.2c10.5-7.1,20-10.7,44.3-14.7c24.2-4,13.4-18.2-1.8-23.9c-15.2-5.8-57-14.3-90.8-1
			c-33.8,13.3-43.6,25.8-41.5,44.5C172.5,375.9,194.6,396,220.7,397.3z"/>
		<g>
			<defs>
				<clipPath id="clip_cloud_h2">
					<path d="M220.7,397.3c26.1,1.3,37.7-9.7,34.4-22.6c-3.6-10.1-1.9-17.5,5.2-22.2c10.5-7.1,20-10.7,44.3-14.7
						c24.2-4,13.4-18.2-1.8-23.9c-15.2-5.8-57-14.3-90.8-1c-33.8,13.3-43.6,25.8-41.5,44.5C172.5,375.9,194.6,396,220.7,397.3z"/>
				</clipPath>
			</defs>
			<g opacity="0.04" clip-path="url(#clip_cloud_h2)">
				<line fill="none" stroke="#000000" stroke-miterlimit="10" x1="177" y1="410.4" x2="300.2" y2="284.2"/>
				<line fill="none" stroke="#000000" stroke-miterlimit="10" x1="186.9" y1="410.4" x2="309.7" y2="284.5"/>
				<line fill="none" stroke="#000000" stroke-miterlimit="10" x1="196.8" y1="410.4" x2="319.8" y2="284.3"/>
				<line fill="none" stroke="#000000" stroke-miterlimit="10" x1="206.5" y1="410.5" x2="329.6" y2="284.3"/>
				<line fill="none" stroke="#000000" stroke-miterlimit="10" x1="217.1" y1="410.6" x2="340.3" y2="284.2"/>
				<line fill="none" stroke="#000000" stroke-miterlimit="10" x1="226.9" y1="410.5" x2="349.8" y2="284.5"/>
				<line fill="none" stroke="#000000" stroke-miterlimit="10" x1="126.7" y1="410.3" x2="249.8" y2="284.2"/>
				<line fill="none" stroke="#000000" stroke-miterlimit="10" x1="136.9" y1="410.1" x2="259.5" y2="284.4"/>
				<line fill="none" stroke="#000000" stroke-miterlimit="10" x1="106.5" y1="410.5" x2="229.6" y2="284.4"/>
				<line fill="none" stroke="#000000" stroke-miterlimit="10" x1="116.7" y1="410.3" x2="239.5" y2="284.4"/>
				<line fill="none" stroke="#000000" stroke-miterlimit="10" x1="146.2" y1="410.6" x2="269.5" y2="284.1"/>
				<line fill="none" stroke="#000000" stroke-miterlimit="10" x1="156.8" y1="410.6" x2="279.8" y2="284.5"/>
				<line fill="none" stroke="#000000" stroke-miterlimit="10" x1="166.7" y1="410.5" x2="289.8" y2="284.3"/>
				<line fill="none" stroke="#000000" stroke-miterlimit="10" x1="237" y1="410.7" x2="360.3" y2="284.3"/>
			</g>
		</g>
	</g>
	<g id="cloud2">
		<path fill-rule="evenodd" clip-rule="evenodd" fill="#D3DAE7" d="M306.1,253.4c26.1,1.3,37.8-9.8,34.5-22.8
			c-3.6-10.1-1.9-17.6,5.2-22.3c10.6-7.2,20.1-10.7,44.4-14.8c24.3-4,13.4-18.3-1.8-24.1c-15.2-5.8-57.1-14.4-91-1
			c-33.9,13.4-43.7,26-41.6,44.7C257.7,231.9,279.9,252.2,306.1,253.4z"/>
		<path fill-rule="evenodd" clip-rule="evenodd" fill="#FFFFFF" d="M306.1,252.2c26.1,1.3,37.7-9.7,34.4-22.6
			c-3.6-10.1-1.9-17.5,5.2-22.2c10.5-7.1,20-10.7,44.3-14.7c24.2-4,13.4-18.2-1.8-23.9c-15.2-5.8-57-14.3-90.8-1
			c-33.8,13.3-43.6,25.8-41.5,44.5C257.9,230.8,280,251,306.1,252.2z"/>
		<g>
			<defs>
				<clipPath id="clip_cloud_h3">
					<path d="M306.1,252.2c26.1,1.3,37.7-9.7,34.4-22.6c-3.6-10.1-1.9-17.5,5.2-22.2c10.5-7.1,20-10.7,44.3-14.7
						c24.2-4,13.4-18.2-1.8-23.9c-15.2-5.8-57-14.3-90.8-1c-33.8,13.3-43.6,25.8-41.5,44.5C257.9,230.8,280,251,306.1,252.2z"/>
				</clipPath>
			</defs>
			<g opacity="4.000000e-002" clip-path="url(#clip_cloud_h3)">
				<line fill="none" stroke="#000000" stroke-miterlimit="10" x1="262.4" y1="265.4" x2="385.6" y2="139.1"/>
				<line fill="none" stroke="#000000" stroke-miterlimit="10" x1="272.3" y1="265.3" x2="395.1" y2="139.4"/>
				<line fill="none" stroke="#000000" stroke-miterlimit="10" x1="282.2" y1="265.3" x2="405.2" y2="139.2"/>
				<line fill="none" stroke="#000000" stroke-miterlimit="10" x1="291.8" y1="265.4" x2="415" y2="139.2"/>
				<line fill="none" stroke="#000000" stroke-miterlimit="10" x1="302.5" y1="265.5" x2="425.7" y2="139.2"/>
				<line fill="none" stroke="#000000" stroke-miterlimit="10" x1="312.3" y1="265.4" x2="435.2" y2="139.4"/>
				<line fill="none" stroke="#000000" stroke-miterlimit="10" x1="212.1" y1="265.3" x2="335.2" y2="139.1"/>
				<line fill="none" stroke="#000000" stroke-miterlimit="10" x1="222.2" y1="265.1" x2="344.8" y2="139.4"/>
				<line fill="none" stroke="#000000" stroke-miterlimit="10" x1="191.9" y1="265.4" x2="315" y2="139.3"/>
				<line fill="none" stroke="#000000" stroke-miterlimit="10" x1="202.1" y1="265.2" x2="324.9" y2="139.3"/>
				<line fill="none" stroke="#000000" stroke-miterlimit="10" x1="231.6" y1="265.5" x2="354.9" y2="139.1"/>
				<line fill="none" stroke="#000000" stroke-miterlimit="10" x1="242.2" y1="265.6" x2="365.2" y2="139.5"/>
				<line fill="none" stroke="#000000" stroke-miterlimit="10" x1="252.1" y1="265.4" x2="375.2" y2="139.2"/>
				<line fill="none" stroke="#000000" stroke-miterlimit="10" x1="322.3" y1="265.7" x2="445.7" y2="139.2"/>
			</g>
		</g>
	</g>
	<g id="cloud1">
		<path fill-rule="evenodd" clip-rule="evenodd" fill="#D3DAE7" d="M697.8,464.9c-39.1,1.9-56.6-14.7-51.5-34
			c5.4-15.1,2.8-26.3-7.7-33.4c-15.8-10.7-30-16.1-66.3-22.1c-36.3-6-20.1-27.3,2.7-36c22.8-8.7,85.4-21.5,136-1.5
			c50.7,20,65.4,38.8,62.2,66.8C770,432.7,736.8,463,697.8,464.9z"/>
		<path fill-rule="evenodd" clip-rule="evenodd" fill="#FFFFFF" d="M697.7,463.1c-39,1.9-56.4-14.6-51.4-33.9
			c5.4-15,2.8-26.1-7.7-33.2c-15.8-10.7-29.9-16-66.2-21.9c-36.2-6-20-27.2,2.7-35.8c22.7-8.6,85.2-21.4,135.7-1.5
			c50.5,19.9,65.2,38.6,62.1,66.5C769.8,431.1,736.7,461.2,697.7,463.1z"/>
		<g>
			<defs>
			<clipPath id="clip_cloud_h4">
				<path d="M697.7,463.1c-39,1.9-56.4-14.6-51.4-33.9c5.4-15,2.8-26.1-7.7-33.2c-15.8-10.7-29.9-16-66.2-21.9
					c-36.2-6-20-27.2,2.7-35.8c22.7-8.6,85.2-21.4,135.7-1.5c50.5,19.9,65.2,38.6,62.1,66.5C769.8,431.1,736.7,461.2,697.7,463.1z"
					/>
			</clipPath>
			</defs>
			<g opacity="4.000000e-002" clip-path="url(#clip_cloud_h4)">
				<line fill="none" stroke="#000000" stroke-miterlimit="10" x1="763.1" y1="443.9" x2="639.9" y2="317.7"/>
				<line fill="none" stroke="#000000" stroke-miterlimit="10" x1="753.3" y1="443.8" x2="630.4" y2="317.9"/>
				<line fill="none" stroke="#000000" stroke-miterlimit="10" x1="750.8" y1="451.3" x2="620.4" y2="317.8"/>
				<line fill="none" stroke="#000000" stroke-miterlimit="10" x1="745.9" y1="456.1" x2="610.6" y2="317.8"/>
				<line fill="none" stroke="#000000" stroke-miterlimit="10" x1="737.9" y1="458.8" x2="599.8" y2="317.7"/>
				<line fill="none" stroke="#000000" stroke-miterlimit="10" x1="731.3" y1="462.1" x2="590.3" y2="318"/>
				<line fill="none" stroke="#000000" stroke-miterlimit="10" x1="712.8" y1="464.1" x2="584.3" y2="332.5"/>
				<line fill="none" stroke="#000000" stroke-miterlimit="10" x1="706.1" y1="467.2" x2="573.9" y2="331.9"/>
				<line fill="none" stroke="#000000" stroke-miterlimit="10" x1="700.5" y1="471.4" x2="570.1" y2="337.9"/>
				<line fill="none" stroke="#000000" stroke-miterlimit="10" x1="695.6" y1="476.3" x2="560.3" y2="337.9"/>
				<line fill="none" stroke="#000000" stroke-miterlimit="10" x1="687.6" y1="479" x2="549.6" y2="337.9"/>
				<line fill="none" stroke="#000000" stroke-miterlimit="10" x1="681.1" y1="482.2" x2="540" y2="338.1"/>
				<line fill="none" stroke="#000000" stroke-miterlimit="10" x1="813.4" y1="443.8" x2="690.3" y2="317.6"/>
				<line fill="none" stroke="#000000" stroke-miterlimit="10" x1="803.3" y1="443.6" x2="680.7" y2="317.9"/>
				<line fill="none" stroke="#000000" stroke-miterlimit="10" x1="833.6" y1="444" x2="710.5" y2="317.8"/>
				<line fill="none" stroke="#000000" stroke-miterlimit="10" x1="823.5" y1="443.8" x2="700.6" y2="317.8"/>
				<line fill="none" stroke="#000000" stroke-miterlimit="10" x1="794" y1="444" x2="670.6" y2="317.6"/>
				<line fill="none" stroke="#000000" stroke-miterlimit="10" x1="783.3" y1="444.1" x2="660.3" y2="318"/>
				<line fill="none" stroke="#000000" stroke-miterlimit="10" x1="773.4" y1="444" x2="650.3" y2="317.8"/>
				<line fill="none" stroke="#000000" stroke-miterlimit="10" x1="722.1" y1="463.1" x2="579.8" y2="317.7"/>
				<line fill="none" stroke="#000000" stroke-miterlimit="10" x1="676" y1="485.4" x2="533.7" y2="340.1"/>
			</g>
		</g>
	</g>
</g>
<style>
	#Hardware #track #track-upper {
		animation: moveUpperTrack 0.75s linear 0s infinite;
	}
	#Hardware #track #track-down {
		animation: moveDownTrack 0.75s linear 0s infinite;
	}

	#Hardware #monets #moneta1 {
		animation: moveMonet 11.25s linear -1s infinite;
	}
	#Hardware #monets #moneta2 {
		animation: moveMonet 11.25s linear -7s infinite;
	}
	#Hardware #monets #moneta3 {
		animation: moveMonet 11.25s linear -8s infinite;
	}
	#Hardware #monets #moneta4 {
		animation: moveMonet 11.25s linear -3s infinite;
	}
	#Hardware #monets #moneta5 {
		animation: moveMonet 11.25s linear -4s infinite;
	}
	#Hardware #monets #moneta6 {
		animation: moveMonet 11.25s linear -10s infinite;
	}
	#Hardware #monets #moneta7 {
		animation: moveMonet 11.25s linear -2s infinite;
	}
	#Hardware #monets #moneta8 {
		animation: moveMonet 11.25s linear -5s infinite;
	}

	#Hardware #clouds #cloud1 {
		transform: translate(150px, 10px);
		animation: moveCloud 10s ease-in-out -5s infinite alternate;
	}
	#Hardware #clouds #cloud2 {
		transform: translate(100px, -100px);
		animation: moveCloud 10s ease-in-out 0s infinite alternate;
	}
	#Hardware #clouds #cloud3 {
		transform: translate(100px, -100px);
		animation: moveCloud 10s ease-in-out -2s infinite alternate;
	}
	#Hardware #clouds #cloud4 {
		transform: translate(100px, -100px);
		animation: moveCloud 10s ease-in-out -3s infinite alternate;
	}


	@keyframes moveUpperTrack {
		to {
			transform: translate(28px, 16px);
		}
	}

	@keyframes moveDownTrack {
		to {
			transform: translate(-28px, -16px);
		}
	}

	@keyframes moveMonet {
		0% {
			transform: translate(0px, 0px);
			opacity: 1;
		}
		80% {
			transform: translate(336px, 192px);
			opacity: 1;
		}
		85% {
			transform: translate(350px, 218px);
			opacity: 1;
		}
		100% {
			transform: translate(350px, 218px);
			opacity: 0;
		}
	}

	@keyframes moveCloud {
		to {
			transform: translate(0px, 0px);
		}
	}
</style>
</svg>