<svg version="1.1" id="Software" xmlns="http://www.w3.org/2000/svg" xmlns:xlink="http://www.w3.org/1999/xlink" x="0px" y="0px"
	 viewBox="0 0 1200 900" enable-background="new 0 0 1200 900" xml:space="preserve">
<g>
	<path opacity="0.4" fill-rule="evenodd" clip-rule="evenodd" fill="#D3DAE7" d="M306.3,376.3c-31.2,20.2-129.2,89.6-67.7,201.6
		c61.5,112,283.6-32,356.2-16c43.7,9.6-275.3,54-63,131c168,60.9,338.7-50.4,361.5-72.9c58.7-58.1,81.3-127.9,14.1-212.3
		c-67.2-84.4-209.3-76.2-241.4-55.5c-32.2,20.6,18,124.8-134.1,84c-152.2-40.8-5.4-82.3-48.6-93.4
		C440,331.6,337.5,356.1,306.3,376.3z"/>
	<path fill-rule="evenodd" clip-rule="evenodd" fill="#DEECFA" d="M305.3,367.1c-31.3,20.3-129.8,90-68,202.5
		C299,682.1,522.1,537.5,595,553.5c43.9,9.7-276.5,54.3-63.3,131.6c168.8,61.2,340.1-50.6,363-73.2c59-58.3,81.7-128.5,14.2-213.3
		c-67.5-84.8-210.2-76.5-242.5-55.8c-32.3,20.7,18.1,125.4-134.7,84.4s-5.4-82.6-48.8-93.8C439.5,322.3,336.6,346.8,305.3,367.1z"/>
</g>
<g>
	<g>
		<path fill-rule="evenodd" clip-rule="evenodd" fill="#D3DAE7" d="M304.7,441.3c60.5,2.8,87.5-22.1,79.8-51.2
			c-8.3-22.8-4.4-39.5,11.9-50.3c24.5-16.1,46.5-24.2,102.7-33.2c56.2-9,31.1-41.1-4.2-54.2c-35.3-13-132.2-32.3-210.6-2.2
			c-78.4,30.1-101.2,58.5-96.3,100.6C192.9,392.9,244.2,438.4,304.7,441.3z"/>
		<path fill-rule="evenodd" clip-rule="evenodd" fill="#FFFFFF" d="M305,438.9c60.5,2.8,87.5-22.1,79.8-51.2
			c-8.3-22.8-4.4-39.5,11.9-50.3c24.5-16.1,46.5-24.2,102.7-33.2c56.2-9,31.1-41.1-4.2-54.2c-35.3-13-132.2-32.3-210.6-2.2
			c-78.4,30.1-101.2,58.5-96.3,100.6C193.2,390.5,244.5,436,305,438.9z"/>
		<g>
			<defs>
				<clipPath id="clip_cloud1">
					<path overflow="visible" d="M305,438.9c60.5,2.8,87.5-22.1,79.8-51.2c-8.3-22.8-4.4-39.5,11.9-50.3c24.5-16.1,46.5-24.2,102.7-33.2
						c56.2-9,31.1-41.1-4.2-54.2c-35.3-13-132.2-32.3-210.6-2.2c-78.4,30.1-101.2,58.5-96.3,100.6C193.2,390.5,244.5,436,305,438.9z"
						/>
				</clipPath>
			</defs>
			<g opacity="0.04" clip-path="url(#clip_cloud1)">
					<line fill-rule="evenodd" clip-rule="evenodd" fill="none" stroke="#282828" stroke-miterlimit="10" x1="419" y1="231.7" x2="227.9" y2="422.8"/>
					<line fill-rule="evenodd" clip-rule="evenodd" fill="none" stroke="#282828" stroke-miterlimit="10" x1="412.3" y1="225.8" x2="221.2" y2="416.8"/>
					<line fill-rule="evenodd" clip-rule="evenodd" fill="none" stroke="#282828" stroke-miterlimit="10" x1="402" y1="224.2" x2="211" y2="415.2"/>
					<line fill-rule="evenodd" clip-rule="evenodd" fill="none" stroke="#282828" stroke-miterlimit="10" x1="395.3" y1="218.2" x2="204.3" y2="409.3"/>
					<line fill-rule="evenodd" clip-rule="evenodd" fill="none" stroke="#282828" stroke-miterlimit="10" x1="387.9" y1="215.4" x2="196.9" y2="406.5"/>
					<line fill-rule="evenodd" clip-rule="evenodd" fill="none" stroke="#282828" stroke-miterlimit="10" x1="381.2" y1="209.5" x2="190.2" y2="400.5"/>
					<line fill-rule="evenodd" clip-rule="evenodd" fill="none" stroke="#282828" stroke-miterlimit="10" x1="371" y1="207.8" x2="179.9" y2="398.9"/>
					<line fill-rule="evenodd" clip-rule="evenodd" fill="none" stroke="#282828" stroke-miterlimit="10" x1="364.3" y1="201.9" x2="173.3" y2="392.9"/>
					<line fill-rule="evenodd" clip-rule="evenodd" fill="none" stroke="#282828" stroke-miterlimit="10" x1="499" y1="247.6" x2="289.6" y2="457.1"/>
					<line fill-rule="evenodd" clip-rule="evenodd" fill="none" stroke="#282828" stroke-miterlimit="10" x1="490.6" y1="243.4" x2="282.9" y2="451.2"/>
					<line fill-rule="evenodd" clip-rule="evenodd" fill="none" stroke="#282828" stroke-miterlimit="10" x1="481" y1="241.1" x2="272.6" y2="449.6"/>
					<line fill-rule="evenodd" clip-rule="evenodd" fill="none" stroke="#282828" stroke-miterlimit="10" x1="469.7" y1="239.8" x2="265.9" y2="443.6"/>
					<line fill-rule="evenodd" clip-rule="evenodd" fill="none" stroke="#282828" stroke-miterlimit="10" x1="535.5" y1="260" x2="326" y2="469.5"/>
					<line fill-rule="evenodd" clip-rule="evenodd" fill="none" stroke="#282828" stroke-miterlimit="10" x1="527.1" y1="255.7" x2="319.3" y2="463.5"/>
					<line fill-rule="evenodd" clip-rule="evenodd" fill="none" stroke="#282828" stroke-miterlimit="10" x1="552.3" y1="266.3" x2="342.8" y2="475.8"/>
					<line fill-rule="evenodd" clip-rule="evenodd" fill="none" stroke="#282828" stroke-miterlimit="10" x1="543.9" y1="262.1" x2="336.1" y2="469.8"/>
					<line fill-rule="evenodd" clip-rule="evenodd" fill="none" stroke="#282828" stroke-miterlimit="10" x1="517.5" y1="253.5" x2="309.1" y2="461.9"/>
					<line fill-rule="evenodd" clip-rule="evenodd" fill="none" stroke="#282828" stroke-miterlimit="10" x1="506.2" y1="252.2" x2="302.4" y2="455.9"/>
					<line fill-rule="evenodd" clip-rule="evenodd" fill="none" stroke="#282828" stroke-miterlimit="10" x1="460.9" y1="238.5" x2="258.5" y2="440.8"/>
					<line fill-rule="evenodd" clip-rule="evenodd" fill="none" stroke="#282828" stroke-miterlimit="10" x1="451.8" y1="234.9" x2="251.8" y2="434.8"/>
					<line fill-rule="evenodd" clip-rule="evenodd" fill="none" stroke="#282828" stroke-miterlimit="10" x1="442.2" y1="232.6" x2="241.6" y2="433.2"/>
					<line fill-rule="evenodd" clip-rule="evenodd" fill="none" stroke="#282828" stroke-miterlimit="10" x1="433.5" y1="228.7" x2="234.9" y2="427.3"/>
					<line fill-rule="evenodd" clip-rule="evenodd" fill="none" stroke="#282828" stroke-miterlimit="10" x1="355.7" y1="199.1" x2="164.6" y2="390.1"/>
					<line fill-rule="evenodd" clip-rule="evenodd" fill="none" stroke="#282828" stroke-miterlimit="10" x1="349" y1="193.1" x2="157.9" y2="384.2"/>
					<line fill-rule="evenodd" clip-rule="evenodd" fill="none" stroke="#282828" stroke-miterlimit="10" x1="338.7" y1="191.5" x2="147.7" y2="382.6"/>
					<line fill-rule="evenodd" clip-rule="evenodd" fill="none" stroke="#282828" stroke-miterlimit="10" x1="332" y1="185.6" x2="141" y2="376.6"/>
					<line fill-rule="evenodd" clip-rule="evenodd" fill="none" stroke="#282828" stroke-miterlimit="10" x1="324.7" y1="181.5" x2="133.7" y2="372.6"/>
			</g>
		</g>
	</g>
	<g>
		<path fill-rule="evenodd" clip-rule="evenodd" fill="#D3DAE7" d="M925.5,783c-56,2.6-81-20.4-73.8-47.4c7.7-21.1,4-36.6-11.1-46.5
			c-22.6-14.9-43-22.4-95-30.7c-52-8.4-28.7-38.1,3.9-50.1c32.6-12.1,122.3-29.9,194.8-2.1s93.6,54.1,89.1,93.1
			C1029,738.3,981.5,780.4,925.5,783z"/>
		<path fill-rule="evenodd" clip-rule="evenodd" fill="#FFFFFF" d="M925.2,780.8c-56,2.6-81-20.4-73.8-47.4
			c7.7-21.1,4-36.6-11.1-46.5c-22.6-14.9-43-22.4-95-30.7c-52-8.4-28.7-38.1,3.9-50.1c32.6-12.1,122.3-29.9,194.8-2.1
			c72.6,27.9,93.6,54.1,89.1,93.1S981.2,778.2,925.2,780.8z"/>
		<g>
			<defs>
				<clipPath id="clip_cloud2">
					<path overflow="visible" d="M925.2,780.8c-56,2.6-81-20.4-73.8-47.4c7.7-21.1,4-36.6-11.1-46.5c-22.6-14.9-43-22.4-95-30.7
						c-52-8.4-28.7-38.1,3.9-50.1c32.6-12.1,122.3-29.9,194.8-2.1c72.6,27.9,93.6,54.1,89.1,93.1S981.2,778.2,925.2,780.8z"/>
				</clipPath>
			</defs>
			<g opacity="0.04" clip-path="url(#clip_cloud2)">
					<line fill-rule="evenodd" clip-rule="evenodd" fill="none" stroke="#282828" stroke-miterlimit="10" x1="819.8" y1="589.2" x2="996.6" y2="765.9"/>
					<line fill-rule="evenodd" clip-rule="evenodd" fill="none" stroke="#282828" stroke-miterlimit="10" x1="826" y1="583.7" x2="1002.8" y2="760.4"/>
					<line fill-rule="evenodd" clip-rule="evenodd" fill="none" stroke="#282828" stroke-miterlimit="10" x1="835.5" y1="582.2" x2="1012.2" y2="758.9"/>
					<line fill-rule="evenodd" clip-rule="evenodd" fill="none" stroke="#282828" stroke-miterlimit="10" x1="841.7" y1="576.7" x2="1018.4" y2="753.4"/>
					<line fill-rule="evenodd" clip-rule="evenodd" fill="none" stroke="#282828" stroke-miterlimit="10" x1="848.5" y1="574.1" x2="1025.3" y2="750.8"/>
					<line fill-rule="evenodd" clip-rule="evenodd" fill="none" stroke="#282828" stroke-miterlimit="10" x1="854.7" y1="568.6" x2="1031.5" y2="745.3"/>
					<line fill-rule="evenodd" clip-rule="evenodd" fill="none" stroke="#282828" stroke-miterlimit="10" x1="864.2" y1="567.1" x2="1040.9" y2="743.8"/>
					<line fill-rule="evenodd" clip-rule="evenodd" fill="none" stroke="#282828" stroke-miterlimit="10" x1="870.4" y1="561.6" x2="1047.1" y2="738.3"/>
					<line fill-rule="evenodd" clip-rule="evenodd" fill="none" stroke="#282828" stroke-miterlimit="10" x1="745.8" y1="603.9" x2="939.5" y2="797.7"/>
					<line fill-rule="evenodd" clip-rule="evenodd" fill="none" stroke="#282828" stroke-miterlimit="10" x1="753.5" y1="600" x2="945.7" y2="792.2"/>
					<line fill-rule="evenodd" clip-rule="evenodd" fill="none" stroke="#282828" stroke-miterlimit="10" x1="762.4" y1="597.9" x2="955.2" y2="790.7"/>
					<line fill-rule="evenodd" clip-rule="evenodd" fill="none" stroke="#282828" stroke-miterlimit="10" x1="772.9" y1="596.7" x2="961.4" y2="785.2"/>
					<line fill-rule="evenodd" clip-rule="evenodd" fill="none" stroke="#282828" stroke-miterlimit="10" x1="712" y1="615.3" x2="905.8" y2="809.1"/>
					<line fill-rule="evenodd" clip-rule="evenodd" fill="none" stroke="#282828" stroke-miterlimit="10" x1="719.8" y1="611.4" x2="912" y2="803.6"/>
					<line fill-rule="evenodd" clip-rule="evenodd" fill="none" stroke="#282828" stroke-miterlimit="10" x1="696.5" y1="621.2" x2="890.3" y2="815"/>
					<line fill-rule="evenodd" clip-rule="evenodd" fill="none" stroke="#282828" stroke-miterlimit="10" x1="704.3" y1="617.2" x2="896.5" y2="809.4"/>
					<line fill-rule="evenodd" clip-rule="evenodd" fill="none" stroke="#282828" stroke-miterlimit="10" x1="728.7" y1="609.3" x2="921.5" y2="802.1"/>
					<line fill-rule="evenodd" clip-rule="evenodd" fill="none" stroke="#282828" stroke-miterlimit="10" x1="739.2" y1="608.1" x2="927.6" y2="796.6"/>
					<line fill-rule="evenodd" clip-rule="evenodd" fill="none" stroke="#282828" stroke-miterlimit="10" x1="781.1" y1="595.4" x2="968.2" y2="782.6"/>
					<line fill-rule="evenodd" clip-rule="evenodd" fill="none" stroke="#282828" stroke-miterlimit="10" x1="789.5" y1="592.1" x2="974.4" y2="777.1"/>
					<line fill-rule="evenodd" clip-rule="evenodd" fill="none" stroke="#282828" stroke-miterlimit="10" x1="798.3" y1="590" x2="983.9" y2="775.6"/>
					<line fill-rule="evenodd" clip-rule="evenodd" fill="none" stroke="#282828" stroke-miterlimit="10" x1="806.4" y1="586.4" x2="990.1" y2="770.1"/>
					<line fill-rule="evenodd" clip-rule="evenodd" fill="none" stroke="#282828" stroke-miterlimit="10" x1="878.4" y1="559" x2="1055.1" y2="735.7"/>
					<line fill-rule="evenodd" clip-rule="evenodd" fill="none" stroke="#282828" stroke-miterlimit="10" x1="884.6" y1="553.5" x2="1061.3" y2="730.2"/>
					<line fill-rule="evenodd" clip-rule="evenodd" fill="none" stroke="#282828" stroke-miterlimit="10" x1="894.1" y1="552" x2="1070.8" y2="728.7"/>
					<line fill-rule="evenodd" clip-rule="evenodd" fill="none" stroke="#282828" stroke-miterlimit="10" x1="900.2" y1="546.5" x2="1077" y2="723.2"/>
					<line fill-rule="evenodd" clip-rule="evenodd" fill="none" stroke="#282828" stroke-miterlimit="10" x1="907" y1="542.7" x2="1083.7" y2="719.5"/>
			</g>
		</g>
	</g>
</g>
<g>
	<g>
		<path fill-rule="evenodd" clip-rule="evenodd" fill="#2B318B" d="M544,477.2v-12.3c-9.3-2.7-18.1-5.9-26.3-9.5v7.2
			c0,0-2.3,32.3,26.5,47.8l0,0l25.7,14.3l0,0C541.7,509,544,477.2,544,477.2"/>
		<path fill-rule="evenodd" clip-rule="evenodd" fill="#2B318B" d="M683.8,212.7c-15.7,10.4-28.5,17.3-38.9,21.6
			c7.2,5.1,14.3,10.6,21.3,16.6c11.2-4.1,25.6-11.4,43.9-23.5L683.8,212.7z"/>
		<path fill-rule="evenodd" clip-rule="evenodd" fill="#2B318B" d="M603.2,236c-0.7-0.7-1.2-1.3-1.6-1.9c-0.6-0.9-0.8-1.4-0.8-1.4
			s-0.3,1-1,2.8c-0.5,1.2-1.2,2.8-2.1,4.6c-4.7,9.4-15.9,26.5-40.9,45c-1.4,1.1-2.9,2.1-4.4,3.2c-2.2,1.5-4.5,3.1-6.9,4.6
			c-1.7,1.1-3.4,2.2-5.2,3.3c-6.8,4.2-14.3,8.3-22.6,12.4v23v4.6v88.2v4.1v24.4c8.2,3.7,17,7,26.3,9.8v-1.8v-3.5V323.2
			c29.1-14.3,48.2-29.3,60.7-42.2c0.7-0.7,1.3-1.4,2-2.1c16.8-18.1,20.4-31.6,20.4-31.6s5.7,14.7,36.5,4.4
			c-7.1-5.9-14.2-11.4-21.5-16.4C617.8,244.8,607.3,239.9,603.2,236"/>
	</g>
	<g>
		<path fill-rule="evenodd" clip-rule="evenodd" fill="#60C6EF" stroke="#000000" stroke-miterlimit="10" d="M619.9,518.9
			c-0.9,0.5-1.8,1-2.7,1.5c-8.5,4.7-17,8.5-25.3,11.5c9.6,1.5,21.2,1.7,35.1,0c1.4-1.4,2.7-2.8,4-4.1c0.7-0.7,1.3-1.4,2-2.1
			c16.1-17.2,28.9-33.2,39-47.9C655.3,494.8,637.6,508.7,619.9,518.9"/>
		<path fill-rule="evenodd" clip-rule="evenodd" fill="#60C6EF" stroke="#000000" stroke-miterlimit="10" d="M710.1,381.3v-81.5
			c-0.2-0.3-0.5-0.6-0.7-0.9c-1-1.2-2-2.5-3-3.7c-0.9-1.1-1.8-2.2-2.7-3.2c-5.2-6.1-10.4-11.9-15.8-17.5
			c-7.9-8.2-16.1-15.7-24.3-22.7c-30.8,10.3-36.5-4.4-36.5-4.4s-3.6,13.4-20.4,31.6c-0.6,0.7-1.3,1.4-2,2.1
			c-12.5,12.9-31.6,28-60.7,42.2v134.1v3.5v1.8c0.8,0.2,1.5,0.5,2.3,0.7c1.5,0.4,2.9,0.8,4.4,1.2c20.8,5.6,43.9,8.9,68.2,9.2
			c6.6,0.1,13.1-0.1,19.5-0.4c13.7-0.7,26.8-2.4,39.3-4.9c0.6-0.6,1.1-1.3,1.7-1.9C712.6,413.7,710.1,381.3,710.1,381.3"/>
		<path fill-rule="evenodd" clip-rule="evenodd" fill="#60C6EF" stroke="#000000" stroke-miterlimit="10" d="M688.9,272.1
			c6.5,6.7,12.9,13.8,19.1,21.3c0.7,0.8,1.4,1.7,2.1,2.6v-1.8v-66.8c-18.3,12.2-32.6,19.4-43.9,23.5
			C673.9,257.4,681.5,264.5,688.9,272.1"/>
		<path fill-rule="evenodd" clip-rule="evenodd" fill="#60C6EF" stroke="#000000" stroke-miterlimit="10" d="M618.9,475.8
			c-23.2-0.3-45.3-3.2-65.4-8.3c-1.5-0.4-3-0.8-4.4-1.2c-1.7-0.5-3.4-0.9-5.1-1.4v12.3c0,0-2.3,31.8,25.8,47.4
			c4.5,2.5,9.9,4.6,16.2,6.1c9.4-2.7,18.9-6.7,28.6-11.8c0.9-0.5,1.8-1,2.7-1.5c19.7-10.9,39.6-26.6,58-46.4
			c-12.3,2.3-25.2,3.8-38.5,4.4C630.9,475.7,624.9,475.9,618.9,475.8"/>
	</g>
</g>
<path fill-rule="evenodd" clip-rule="evenodd" fill="#27E6DC" d="M791.5,379.5c0.3-23.3-13.5-44.8-36.7-62
	c6.7-46.6-3.9-86-32.3-104.5c-26.3-17.1-62.6-13-99.4,7.4c-49.7-28.2-98.9-33.4-130-8.4c-28.8,23.1-35.8,67-23.4,116.7
	c-13.1,13.7-20.7,29.5-20.9,46.3c-0.3,22.8,12.9,44,35.3,61c-3.2,41,7.9,75.1,33.8,91.9c20.2,13.1,46.4,13.7,74.1,4.1
	c8.3-2.9,16.8-6.8,25.3-11.5c0.9-0.5,1.8-1,2.7-1.5c17.7-10.2,35.4-24.1,52.1-41.2c2.3-2.4,4.7-4.9,7-7.4
	c39.3-7.9,71.8-23.9,91.7-44.6c7.5,42.7-0.6,79.5-26,99.9c-27.2,21.8-68.5,20.2-111.7-0.1c-0.7,0.7-1.3,1.4-2,2.1
	c44.8,21.7,88,23.8,116.2,1.1c26.7-21.4,34.7-60.6,25.8-105.7C784.7,410,791.3,395.2,791.5,379.5 M720.4,216.2
	c27.3,17.8,37.8,55.2,32.1,99.6c-12-8.5-26.3-15.8-42.4-21.6v1.8c0.2,0.3,0.4,0.5,0.6,0.8c15.8,6,29.8,13.4,41.4,21.9
	c-1.4,9.8-3.6,19.9-6.5,30.2c-9.4-17.4-20.9-34.8-34.3-51.5c-0.2-0.2-0.3-0.4-0.5-0.6c-0.2-0.1-0.4-0.2-0.6-0.2v-0.5
	c-0.7-0.9-1.4-1.7-2.1-2.6c-6.2-7.5-12.5-14.6-19.1-21.3c-7.4-7.6-15-14.7-22.7-21.3c-7-6-14.2-11.5-21.3-16.6
	c-6.3-4.5-12.7-8.6-19.1-12.3C660.8,203.3,695.3,199.8,720.4,216.2 M452.2,375.1c0.2-15.6,6.8-30.2,18.3-43
	c4.9,18.5,12.5,37.7,22.6,56.9c-4.6,15.1-7.5,29.9-8.8,43.9C463.9,416.5,451.9,396.5,452.2,375.1 M617.3,517.4
	c-0.9,0.5-1.8,1-2.7,1.5c-9.6,5.1-19.2,9.1-28.6,11.8c-24.7,7.2-47.9,5.8-66.1-6.1c-24.7-16-35.6-48.1-33.3-86.8
	c9,6.5,19.5,12.4,31,17.5c8.2,3.6,17,6.8,26.3,9.5c1.7,0.5,3.4,1,5.1,1.4c1.5,0.4,2.9,0.8,4.4,1.2c20.1,5.1,42.2,8,65.4,8.3
	c6,0.1,12,0,17.9-0.3c13.3-0.6,26.2-2.1,38.5-4.4C656.8,490.8,637,506.5,617.3,517.4 M677.6,468.5c-12.5,2.5-25.7,4.2-39.3,4.9
	c-6.4,0.3-12.9,0.5-19.5,0.4c-24.3-0.3-47.4-3.6-68.2-9.2c-1.5-0.4-3-0.8-4.4-1.2c-0.8-0.2-1.5-0.4-2.3-0.7
	c-9.3-2.8-18.1-6.1-26.3-9.8c-11.6-5.2-21.9-11.3-30.8-18.1c1-13.6,3.7-28,7.9-42.8c6.6,12.2,14.3,24.5,22.9,36.5v-4.1
	c-8.3-11.8-15.6-23.8-21.9-35.7c5.2-17.2,12.5-34.9,21.9-52.5v-4.6c-10,18.1-17.8,36.3-23.4,54.1c-9.7-18.9-16.9-37.9-21.4-56
	c16.4-17,41.5-30.8,72-39.4c-1.5,1.9-3,3.9-4.4,5.9c1.8-1.1,3.5-2.2,5.2-3.3c0.9-1.2,1.8-2.4,2.8-3.6c1.4-0.4,2.7-0.7,4.1-1
	c1.5-1.1,3-2.1,4.4-3.2c-2.1,0.5-4.2,1-6.3,1.5c14.7-18.3,30.8-34,47.2-46.5c0.9-1.9,1.6-3.4,2.1-4.6c-18.4,13.7-36.5,31.2-52.8,52
	c-31.4,8.3-57.5,21.9-74.9,38.9c-11.1-47.4-4-89.1,23.7-111.2c29.9-24,77-19.6,124.7,6.7c-6.3,3.6-12.6,7.7-18.8,12.2
	c0.4,0.5,0.9,1.2,1.6,1.9c6.6-4.7,13.2-8.9,19.9-12.6c6.4,3.6,12.7,7.6,19,12c7.2,5,14.4,10.5,21.5,16.4
	c8.3,6.9,16.4,14.5,24.3,22.7c5.4,5.6,10.7,11.4,15.8,17.5c0.9,1.1,1.8,2.1,2.7,3.2c1,1.2,2,2.5,3,3.7c0.2,0.3,0.5,0.6,0.7,0.9
	c13.6,17.1,25.1,34.8,34.5,52.5c-7.5,24.9-19.4,50.8-35.7,75.8c-9.1,14-19,26.9-29.5,38.5C678.8,467.2,678.2,467.9,677.6,468.5
	 M681.4,467.7c10.4-11.6,20.2-24.5,29.3-38.5c15.9-24.4,27.7-49.7,35.4-74c11.7,22.8,19.7,45.6,23.9,67
	C751.4,443.1,719.8,459.4,681.4,467.7 M747.1,351.8c3.2-10.7,5.7-21.2,7.3-31.4c21.4,16.5,34,37,33.7,59c-0.2,14.4-5.8,27.9-15.8,40
	C767.7,397.8,759.2,374.8,747.1,351.8"/>
<g>
	<path fill-rule="evenodd" clip-rule="evenodd" fill="#5AB700" stroke="#000000" stroke-width="0.5" stroke-miterlimit="10" d="
		M660,336.5l-9.3-5.3l0,0c-6.3-3.9-14.6-3.6-23.6,1.6c-19.6,11.3-35.5,41.7-35.5,67.9c0,14.1,4.6,24.1,12,28.5l0,0l0.8,0.4
		c0.1,0,0.1,0.1,0.2,0.1l11.2,6.3L660,336.5z"/>
	<path fill-rule="evenodd" clip-rule="evenodd" fill="#B4EE73" stroke="#000000" stroke-width="0.25" stroke-miterlimit="10" d="
		M672.7,365.5c0,26.2-15.9,56.5-35.5,67.9c-19.6,11.3-35.5-0.7-35.5-26.8c0-26.2,15.9-56.5,35.5-67.9
		C656.8,327.3,672.7,339.3,672.7,365.5"/>
	<path fill-rule="evenodd" clip-rule="evenodd" fill="#FFFFFF" stroke="#000000" stroke-width="0.5" stroke-miterlimit="10" d="
		M656.8,352.2c-2.5-0.7-5.9,2.3-7.5,6.6l-16.2,43.6l-9.2-4.6c-2.3-1.2-5.8,1.3-7.6,5.5c-1.9,4.2-1.5,8.5,0.8,9.7l13.4,6.8
		c1.1,0.6,2.5,0.3,3.8-0.6c1.9-0.9,3.9-3.3,5-6.2l19.2-51.6C660.1,356.9,659.3,352.8,656.8,352.2"/>
</g>
<defs>
	<clipPath id="clipOranCube">
		<path fill-rule="evenodd" clip-rule="evenodd" fill="none" d="M0,0v900h1200V0H0z M672,478
			c-10.1,14.7-22.9,30.7-39,48c-0.7,0.7-1.3,1.4-2,2.1c-1.3,1.4-2.6,2.8-4,4.2c-13.9,1.8-25.5,1.6-35.1,0l-6-1.2
			c-6.3-1.5-11.6-3.6-16.2-6.1c0,0,0,0,0,0l-25.7-14.3l0,0c-28.8-15.6-26.5-47.9-26.5-47.9v-7.2l0-2.5v-24.4v-4.1v-88.4v-4.6v-23
			l161.7,158.3L672,478z"/>
	</clipPath>
	<clipPath id="clipBlueCube">
		<path id="clipBlueCube" fill-rule="evenodd" clip-rule="evenodd" fill="none" d="M0,0v900h1200V0H0z M642.1,236.8L626.3,417H517.6
			v-80.9v-4.6v-23c8.3-4.1,15.8-8.2,22.6-12.4c1.8-1.1,3.5-2.2,5.2-3.3c2.4-1.5,4.7-3.1,6.9-4.6c1.5-1.1,3-2.1,4.4-3.2
			c24.9-18.5,36.2-35.6,40.9-45c0.9-1.9,1.6-3.4,2.1-4.6c0.7-1.8,1-2.8,1-2.8s0.2,0.6,0.8,1.4c0.4,0.5,0.9,1.2,1.6,1.9
			c4.2,3.9,14.7,8.8,38.9-0.6V236.8z"/>
	</clipPath>
	<clipPath id="clipPurCube">
		<path fill-rule="evenodd" clip-rule="evenodd" fill="none" d="M0,0v900h1200V0H0z M710.1,392.8l-192.5,0v-56.7
			v-4.6v-23c8.3-4.1,15.8-8.2,22.6-12.4c1.8-1.1,3.5-2.2,5.2-3.3c2.4-1.5,4.7-3.1,6.9-4.6c1.5-1.1,3-2.1,4.4-3.2
			c24.9-18.5,36.2-35.6,40.9-45c0.9-1.9,1.6-3.4,2.1-4.6c0.7-1.8,1-2.8,1-2.8h109.4V392.8z"/>
	</clipPath>
</defs>
<g clip-path="url(#clipOranCube)">
	<g id="rotOranCube">
		<g id="oranCubeGroup">
			<g id="oranCube">
				<path fill-rule="evenodd" clip-rule="evenodd" fill="#FF8F00" d="M751.5,489.2l-30.3,40.7l26.1,21.1c0.6,0.5,1.4,0.6,2.5,0.2
					l20.3-7.8c2.2-0.8,4.3-3.7,4.7-6.4l3.7-23.4c0.2-1.5-0.1-2.6-0.8-3.2C777.7,510.5,769,503.4,751.5,489.2z"/>
				<path fill-rule="evenodd" clip-rule="evenodd" fill="#FAA800" d="M723.6,530c-2.2,0.8-3.6-0.7-3.2-3.3l3.7-23.4
					c0.4-2.7,2.6-5.5,4.7-6.4l20.3-7.8c2.2-0.8,3.6,0.7,3.2,3.3l-3.7,23.4c-0.4,2.7-2.6,5.5-4.7,6.4L723.6,530z"/>
			</g>
		</g>
	</g>
</g>
<g clip-path="url(#clipPurCube)">
	<g id="purCubeGroup">
		<g id="purCube">
			<path fill-rule="evenodd" clip-rule="evenodd" fill="#9200FF" d="M476.4,388.2C476.4,388.1,476.4,388.1,476.4,388.2l0-33.7l-50.7,2
				v33.6h0c0,0.8,0.4,1.5,1.4,2.1l18.9,10.9c2,1.2,5.6,1,8-0.3l20.6-11.9C475.7,390,476.4,389.1,476.4,388.2L476.4,388.2z"/>
			<path fill-rule="evenodd" clip-rule="evenodd" fill="#9C73FF" d="M445.9,369.3l-18.9-10.9c-2-1.2-1.8-3.2,0.6-4.6l20.6-11.9
				c2.3-1.4,5.9-1.5,8-0.3l18.9,10.9c2,1.2,1.8,3.2-0.6,4.6l-20.6,11.9C451.5,370.3,447.9,370.4,445.9,369.3"/>
		</g>
	</g>
</g>
<g clip-path="url(#clipBlueCube)">
	<g id="rotBlueCube">
		<g id="blueCubeGroup">
			<g id="blueCube">
				<path fill-rule="evenodd" clip-rule="evenodd" fill="#00B7DC" d="M725.8,237C725.8,236.9,725.8,236.9,725.8,237l28-18.9l-30-40.9
					L695.9,196l0,0c-0.7,0.4-1,1.2-0.9,2.3l1.5,21.7c0.2,2.3,2.3,5.2,4.7,6.4l21.3,10.4C723.8,237.5,725,237.5,725.8,237L725.8,237
					L725.8,237z"/>
				<path fill-rule="evenodd" clip-rule="evenodd" fill="#61E8FF" d="M724.4,201.1l-1.5-21.7c-0.2-2.3,1.7-3.3,4.1-2.1l21.3,10.4
					c2.4,1.2,4.6,4.1,4.7,6.4l1.5,21.7c0.2,2.3-1.7,3.3-4.1,2.1l-21.3-10.4C726.7,206.4,724.6,203.5,724.4,201.1"/>
			</g>
		</g>
	</g>
</g>
<style>
	#purCube {
		animation: tranPurCubeX 4s linear -1s infinite;
	}
	#purCubeGroup {
		animation: tranPurCubeY 4s linear -1s infinite;
	}

	#rotBlueCube {
		transform-origin: 620.2px 370.4px;
		transform: translate(186px, 15px) rotate(-56deg);
	}
	#blueCube {
		animation: tranBlueCubeX 4s linear 0s infinite;
	}
	#blueCubeGroup {
		animation: tranBlueCubeY 4s linear 0s infinite;
	}

	#rotOranCube {
		transform-origin: 620.2px 370.3px;
		transform: translate(160px, -40px) rotate(51deg);
	}
	#oranCube {
		animation: tranOrangeCubeX 4s linear 0s infinite;
	}
	#oranCubeGroup {
		animation: tranOrangeCubeY 4s linear 0s infinite;
	}

	@keyframes tranPurCubeX {
		0% {
			transform: translate(0px, 0px);
			animation-timing-function: cubic-bezier(.47, 0, 1, 1);
		}
		25% {
			transform: translate(169.7px, 0px);
			animation-timing-function: cubic-bezier(0, 0, .53, 1);
		}
		50% {
			transform: translate(339.4px, 0px);
			animation-timing-function: cubic-bezier(.47, 0, 1, 1);
		}
		75% {
			transform: translate(169.7px, 0px);
			animation-timing-function: cubic-bezier(0, 0, .53, 1);
		}
		100% {
			transform: translate(0px, 0px);
		}
	}

	@keyframes tranPurCubeY {
		0% {
			transform: scale(1) translate(0px, 0px);
			animation-timing-function: cubic-bezier(0, 0, .53, 1);
		}
		25% {
			transform: scale(1) translate(0px, -97.5px);
			animation-timing-function: cubic-bezier(.47, 0, 1, 1);
		}
		50% {
			transform: scale(1) translate(0px, 0px);
			animation-timing-function: cubic-bezier(0, 0, .53, 1);
		}
		75% {
			transform: scale(1) translate(0px, 97.5px);
			animation-timing-function: cubic-bezier(.47, 0, 1, 1);
		}
		100% {
			transform: scale(1) translate(0px, 0px);
		}
	}
	
	@keyframes tranBlueCubeX {
		0% {
			transform: translate(0px, 0px);
			animation-timing-function: cubic-bezier(.47, 0, 1, 1);
		}
		25% {
			transform: translate(-186px, 0px);
			animation-timing-function: cubic-bezier(0, 0, .53, 1);
		}
		50% {
			transform: translate(-372px, 0px);
			animation-timing-function: cubic-bezier(.47, 0, 1, 1);
		}
		75% {
			transform: translate(-186px, 0px);
			animation-timing-function: cubic-bezier(0, 0, .53, 1);
		}
		100% {
			transform: translate(0px, 0px);
		}
	}

	@keyframes tranBlueCubeY {
		0% {
			transform: translate(0px, 0px);
			animation-timing-function: cubic-bezier(0, 0, .53, 1);
		}
		25% {
			transform: translate(0px, -106.8px);
			animation-timing-function: cubic-bezier(.47, 0, 1, 1);
		}
		50% {
			transform: translate(0px, 0px);
			animation-timing-function: cubic-bezier(0, 0, .53, 1);
		}
		75% {
			transform: translate(0px, 106.8px);
			animation-timing-function: cubic-bezier(.47, 0, 1, 1);
		}
		100% {
			transform: translate(0px, 0px);
		}
	}

	@keyframes tranOrangeCubeX {
		0% {
			transform: translate(0px, 0px);
			animation-timing-function: cubic-bezier(.47, 0, 1, 1);
		}
		25% {
			transform: translate(-200.9px, 0px);
			animation-timing-function: cubic-bezier(0, 0, .53, 1);
		}
		50% {
			transform: translate(-401.8px, 0px);
			animation-timing-function: cubic-bezier(.47, 0, 1, 1);
		}
		75% {
			transform: translate(-200.9px, 0px);
			animation-timing-function: cubic-bezier(0, 0, .53, 1);
		}
		100% {
			transform: translate(0px, 0px);
		}
	}

	@keyframes tranOrangeCubeY {
		0% {
			transform: translate(0px, 0px);
			animation-timing-function: cubic-bezier(0, 0, .53, 1);
		}
		25% {
			transform: translate(0px, -115.6px);
			animation-timing-function: cubic-bezier(.47, 0, 1, 1);
		}
		50% {
			transform: translate(0px, 0px);
			animation-timing-function: cubic-bezier(0, 0, .53, 1);
		}
		75% {
			transform: translate(0px, 115.6px);
			animation-timing-function: cubic-bezier(.47, 0, 1, 1);
		}
		100% {
			transform: translate(0px, 0px);
		}
	}
	
</style>
</svg>