<svg id="work-partner-teaser" xmlns="http://www.w3.org/2000/svg" viewBox="0 0 592.5 400">
  <defs>
    <clipPath id="clip-rocket2">
      <ellipse cx="239.51" cy="246.14" rx="91.98" ry="91.42"/>
    </clipPath>
    <clipPath id="clip-rocket1">
      <ellipse cx="440.51" cy="119.14" rx="68.3" ry="67.88"/>
    </clipPath>
  </defs>
  <g id="clouds">
    <path d="M37.56,256.93h0m19.78-81.05,0,.2h0l0-.2M217.72,64.26h0a87.17,87.17,0,0,0-45.43,12.22c-13.71,8.32-25.44,21.07-33.31,39-1.2,5.83-3.89,9.29-6.74,11.16a13.34,13.34,0,0,1-7.32,2.19,9.23,9.23,0,0,1-1.18-.07h-.14a54.88,54.88,0,0,0-10.31-1h0a57.86,57.86,0,0,0-36.41,13.12l-.84.71a52.86,52.86,0,0,0-18.69,34.52h0a10.11,10.11,0,0,1-10.13,8.77H47a45.28,45.28,0,0,0-6-.4h0a43.91,43.91,0,0,0-28,9.73h0A32.94,32.94,0,0,0,.73,220c0,.16,0,.32,0,.47v.09h0c0,.4,0,.81,0,1.21a32,32,0,0,0,10.68,24,38.6,38.6,0,0,0,26,9.58H327.67c12.38,0,21.38-4.31,27.38-10.71a34.67,34.67,0,0,0,9-23.71v0a36.67,36.67,0,0,0-9.18-24.51c-6.08-6.71-15.1-11.29-27.26-11.52-1.45.07-3.11.15-4.83.15a30.93,30.93,0,0,1-7.56-.78,10.44,10.44,0,0,1-6.14-3.81,8.66,8.66,0,0,1-1.5-5.12v0h0a14.48,14.48,0,0,1,.28-2.78v-.06l0,0a91.93,91.93,0,0,0,3.33-24.13c0-25.47-11.71-46.4-29.28-61.07a101.68,101.68,0,0,0-64.2-23" fill="#edaf00"/>
    <path d="M357,362.93h0m15.72-64.42v.15h0v-.15M500.2,209.78h0a69.47,69.47,0,0,0-36.11,9.72c-10.91,6.62-20.23,16.75-26.48,31-.95,4.63-3.09,7.39-5.36,8.87a10.64,10.64,0,0,1-5.82,1.74c-.31,0-.63,0-.94-.05h-.1a44.3,44.3,0,0,0-8.2-.77h0a45.94,45.94,0,0,0-28.94,10.43l-.67.56a42,42,0,0,0-14.85,27.44h0a8,8,0,0,1-8,7h-.17a36.62,36.62,0,0,0-4.8-.31h0a34.92,34.92,0,0,0-22.22,7.73h0a26.18,26.18,0,0,0-9.74,20.51V334h0c0,.33,0,.65,0,1a25.4,25.4,0,0,0,8.49,19.1,30.72,30.72,0,0,0,20.68,7.61H587.59c9.84,0,17-3.42,21.76-8.51a27.57,27.57,0,0,0,7.14-18.85v0a29.1,29.1,0,0,0-7.3-19.48c-4.83-5.33-12-9-21.66-9.16-1.16.06-2.48.12-3.85.12a24.66,24.66,0,0,1-6-.62,8.27,8.27,0,0,1-4.88-3,6.9,6.9,0,0,1-1.2-4.08h0a11.76,11.76,0,0,1,.23-2.21v-.08a73.11,73.11,0,0,0,2.65-19.18c0-20.25-9.31-36.88-23.28-48.54a80.76,80.76,0,0,0-51-18.24" fill="#edaf00"/>
  </g>
  <g id="circle2">
    <ellipse cx="239.51" cy="246.14" rx="91.98" ry="91.42" fill="#003e47"/>
    <g clip-path="url(#clip-rocket2)">
      <g id="rocket2">
        <path d="M236.65,192.35a44.86,44.86,0,0,0-9.6,12.35c-3.5,6.77-5.06,14.61-4.77,24,.07,2.13.23,5.69.47,10.31V239l-.08.12c-1.73,2.56-7.54,11.22-9.45,14.69-1,1.81-1.13,8.26-1.13,11v.46a3.71,3.71,0,0,0,1.44,2.65,2.54,2.54,0,0,0,1.5.49,3.77,3.77,0,0,0,.95-.23l8.53-4.92.08.18a6.46,6.46,0,0,0,5.34,3.7h.26l-2.87,6.73a3.17,3.17,0,0,0,.21,3,2.59,2.59,0,0,0,2.17,1.22H249a2.58,2.58,0,0,0,2.16-1.22,3.14,3.14,0,0,0,.23-3l-2.88-6.77h.25a6.45,6.45,0,0,0,5.34-3.7l.09-.18.17.1,8.4,4.84a4.29,4.29,0,0,0,.94.22,2.6,2.6,0,0,0,1.47-.5,3.65,3.65,0,0,0,1.43-2.62.76.76,0,0,0,0-.15c0-1.54-.05-9.32-1.13-11.29-1.83-3.31-7.25-11.43-9.5-14.77l0-.05V239c.23-4.56.4-8.12.47-10.3.28-9.17-1.21-16.87-4.55-23.53l-.11-.21a5.07,5.07,0,0,0-.24-.48,45.24,45.24,0,0,0-9.47-12.1A4,4,0,0,0,236.65,192.35Zm-13.94,52,.3-.46,0,.55c.33,5.92.67,11.57.85,14.61l.06,1.11-.1.05-8.83,5.1V265c0-4,.3-8.86.77-9.75m29.53,12,3.36,7.9H230l.11-.26,3.3-7.76h11.9Zm10.62-22.9c2.46,3.71,5.66,8.6,6.92,10.89.47.89.77,5.76.77,9.76v.08l-.15.15-.13-.07-8.66-5v-.12c.15-2.48.53-8.92.9-15.61l0-.55Zm-6.55-37.53c3,6.21,4.31,13.32,4.05,21.74-.22,6.7-1.27,24.74-1.72,32.18v.17a3.49,3.49,0,0,1-3.48,3.29H230.42a3.49,3.49,0,0,1-3.49-3.31v-.06c-.15-2.52-1.48-24.76-1.72-32.27-.26-8.43,1.06-15.53,4-21.74l.05-.1h20Zm-1.82-3.31.17.27H230.91l.17-.28a42.73,42.73,0,0,1,7.56-9,1,1,0,0,1,1.36,0,42.58,42.58,0,0,1,7.57,9Z" fill="#fff"/>
        <path d="M239.45,280.87a1.57,1.57,0,0,0-1.52,1.53v12.91a1.54,1.54,0,0,0,1.53,1.53,1.56,1.56,0,0,0,1.53-1.53V282.4a1.53,1.53,0,0,0-1.52-1.53Z" fill="#fff"/>
        <path d="M245.71,286.72v12.92a1.53,1.53,0,0,0,1.53,1.52,1.56,1.56,0,0,0,1.53-1.53V286.72a1.54,1.54,0,0,0-1.53-1.53A1.58,1.58,0,0,0,245.71,286.72Z" fill="#fff"/>
        <path d="M231.41,284.21a1.52,1.52,0,0,0-1.53,1.52v12.92a1.52,1.52,0,0,0,1.52,1.52h0a1.57,1.57,0,0,0,1.5-1.52V285.73A1.53,1.53,0,0,0,231.41,284.21Z" fill="#fff"/>
        <path d="M245,225.88a8,8,0,1,0-11.37,0h0A8.06,8.06,0,0,0,245,225.88Zm-9.29-9.29a5.1,5.1,0,1,1,0,7.21,5.1,5.1,0,0,1,0-7.21Z" fill="#fff"/>
      </g>
    </g>
  </g>
  <g id="circle1">
    <ellipse cx="440.51" cy="119.14" rx="68.3" ry="67.88" fill="#003e47"/>
    <g clip-path="url(#clip-rocket1)">
      <g id="rocket1">
        <path d="M438.38,79.2a33.28,33.28,0,0,0-7.12,9.17c-2.6,5-3.76,10.85-3.54,17.8,0,1.58.17,4.22.35,7.65v0L428,114c-1.29,1.91-5.6,8.34-7,10.91-.74,1.35-.84,6.14-.84,8.13v.35a2.72,2.72,0,0,0,1.07,2,1.86,1.86,0,0,0,1.12.37,3.4,3.4,0,0,0,.7-.17l6.33-3.66.06.14a4.79,4.79,0,0,0,4,2.74l.19,0-2.13,5a2.33,2.33,0,0,0,.16,2.23,1.91,1.91,0,0,0,1.6.91h14.3a1.91,1.91,0,0,0,1.6-.91,2.33,2.33,0,0,0,.17-2.2l-2.13-5,.18,0a4.79,4.79,0,0,0,4-2.74l.06-.14.13.08,6.24,3.6a2.73,2.73,0,0,0,.7.15,1.87,1.87,0,0,0,1.09-.36,2.74,2.74,0,0,0,1.06-1.95.45.45,0,0,0,0-.11c0-1.15,0-6.92-.85-8.39-1.35-2.45-5.38-8.48-7.05-11l0,0v0c.17-3.39.3-6,.35-7.65.21-6.81-.9-12.53-3.38-17.48l-.08-.15c-.07-.16-.15-.32-.17-.36a33.72,33.72,0,0,0-7-9A3,3,0,0,0,438.38,79.2ZM428,117.83l.22-.34,0,.41c.25,4.39.5,8.59.63,10.84l0,.83-.07,0-6.57,3.79v-.24c0-3,.23-6.58.57-7.24m21.94,8.91,2.49,5.86h-13.9l.08-.19,2.45-5.77h8.84Zm7.88-17c1.83,2.76,4.2,6.39,5.14,8.09.35.66.57,4.28.57,7.25v.06l-.11.11-.09-.05-6.43-3.71v-.08c.11-1.85.4-6.63.67-11.6l0-.41ZM447.85,90a34.06,34.06,0,0,1,3,16.14c-.16,5-.94,18.37-1.27,23.9v.12a2.59,2.59,0,0,1-2.58,2.45H433.76a2.59,2.59,0,0,1-2.59-2.46v-.05c-.11-1.86-1.1-18.38-1.28-24a33.94,33.94,0,0,1,3-16.14l0-.08h14.88Zm-1.36-2.46.13.2h-12.5l.13-.2a32,32,0,0,1,5.62-6.71.75.75,0,0,1,1,0,31.66,31.66,0,0,1,5.61,6.71Z" fill="#fff"/>
        <path d="M440.47,144.93a1.17,1.17,0,0,0-1.14,1.13v9.59a1.15,1.15,0,0,0,1.14,1.14,1.16,1.16,0,0,0,1.13-1.14v-9.58a1.12,1.12,0,0,0-1.13-1.14Z" fill="#fff"/>
        <path d="M445.11,149.27v9.59a1.13,1.13,0,0,0,1.13,1.14,1.18,1.18,0,0,0,1.14-1.14v-9.59a1.14,1.14,0,0,0-1.14-1.13A1.18,1.18,0,0,0,445.11,149.27Z" fill="#fff"/>
        <path d="M434.49,147.4a1.14,1.14,0,0,0-1.13,1.14v9.59a1.14,1.14,0,0,0,1.13,1.13h0a1.17,1.17,0,0,0,1.11-1.13v-9.59A1.15,1.15,0,0,0,434.49,147.4Z" fill="#fff"/>
        <path d="M444.59,104.1a6,6,0,1,0-8.44,0h0A6,6,0,0,0,444.59,104.1Zm-6.89-6.9a3.78,3.78,0,1,1,0,5.35h0A3.78,3.78,0,0,1,437.7,97.2Z" fill="#fff"/>
      </g>
    </g>
  </g>
  <style>
    #work-partner-teaser #clouds {
      transform: translate(600px, 0px);
      animation: moveInCloud 8s ease-in-out 0s infinite;
    }

    #work-partner-teaser #circle1 {
      transform-origin: 440.51px 119.14px;
      transform: scale(0);
      animation: popUp 8s ease-in-out 0s infinite;
    }
    #work-partner-teaser #circle2 {
      transform-origin: 239.51px 246.14px;
      transform: scale(0);
      animation: popUp 8s ease-in-out 0s infinite;
    }

    #work-partner-teaser #rocket1 {
      transform: translate(0px, 160px);
      animation: moveRocket 8s ease-in-out 0s infinite;
    }
    #work-partner-teaser #rocket2 {
      transform: translate(0px, 160px);
      animation: moveRocket 8s ease-in-out 0s infinite;
    }

    @keyframes moveInCloud {
      25%, 50%, 75%, 100% {
        transform: translate(0px, 0px);
      }
      37.5%, 62.5%, 87.5%, 100% {
        transform: translate(0px, -5px);
      }
    }

    @keyframes moveIn {
      100% {
        transform: translate(0px, 0px);
      }
    }

    @keyframes popUp {
      0%, 25% {
        transform: scale(0);
      }
      33% {
        transform: scale(1.1);
      }
      35%, 100% {
        transform: scale(1);
      }
    }

    @keyframes moveRocket {
      0%, 35%, 59.01%, 83.01% {
        transform: translate(0px, 160px);
      }
      44%, 46%, 48%, 50%, 68%, 70%, 72%, 74%, 92%, 94%, 96%, 98%, 100% {
        transform: translate(0px, 0px);
      }
      45%, 47%, 49%, 69%, 71%, 73%, 93%, 95%, 97%, 99% {
        transform: translate(0px, -1px);
      }
      59%, 83% {
        transform: translate(0px, -160px);
      }
    }
  </style>
</svg>
