<?xml version="1.0" encoding="utf-8"?>
<!-- Generator: Adobe Illustrator 19.0.0, SVG Export Plug-In . SVG Version: 6.00 Build 0)  -->
<svg version="1.1" id="printWorks-logo" xmlns="http://www.w3.org/2000/svg" xmlns:xlink="http://www.w3.org/1999/xlink" x="0px"
	 y="0px" viewBox="0 0 2656 2480" style="enable-background:new 0 0 2656 2480;" xml:space="preserve">
<style type="text/css">
	#circles path {mix-blend-mode: multiply;}
	.st0{fill:#EF67A5;}
	.st1{fill:#F399C1;}
	.st2{fill:#EB0B8C;}
	.st3{fill:#6DCEF5;}
	.st4{fill:#00C1F2;}
	.st5{fill:#00C0F2;}
	.st6{fill:#FFF100;}
	.st7{fill:#4D4D4F;}
	.st8{fill:#636467;}
	.st9{fill:#929497;}
</style>
<g id="circles">
	<g id="c-pink">
		<path id="XMLID_246_" class="st0" d="M1719.4,567.6c-143.8,0-260.3,114.4-260.3,255.5c0,141.1,116.5,255.5,260.3,255.5
			c143.8,0,260.4-114.3,260.4-255.5C1979.8,681.9,1863.2,567.6,1719.4,567.6z"/>
		<path id="XMLID_245_" class="st0" d="M1122.7,601.3c-67.6,0-122.4,54.7-122.4,122.3c0,67.6,54.7,122.3,122.4,122.3
			c67.6,0,122.4-54.8,122.4-122.3C1245.1,656,1190.3,601.3,1122.7,601.3z"/>
		<path id="XMLID_244_" class="st0" d="M1546.7,356.7c57,0,103.2-46.1,103.2-103c0-56.9-46.2-103.1-103.2-103.1
			c-56.9,0-103.1,46.1-103.1,103.1C1443.6,310.5,1489.8,356.7,1546.7,356.7z"/>
		<path id="XMLID_243_" class="st0" d="M1788.8,1420c-57,0-103.2,46.1-103.2,103.1c0,57,46.2,103.1,103.2,103.1
			c56.9,0,103.1-46.1,103.1-103.1C1891.9,1466.2,1845.7,1420,1788.8,1420z"/>
		<path id="XMLID_241_" class="st1" d="M1419,834.4c0,37.2-30.1,67.3-67.2,67.3c-37.1,0-67.2-30.1-67.2-67.3
			c0-37.1,30-67.2,67.2-67.2C1388.9,767.2,1419,797.3,1419,834.4"/>
		<path id="XMLID_240_" class="st1" d="M2045.1,527c0,44.1-35.8,79.9-79.9,79.9c-44.1,0-79.9-35.8-79.9-79.9
			c0-44.1,35.8-79.8,79.9-79.8C2009.3,447.2,2045.1,483,2045.1,527"/>
		<path id="XMLID_239_" class="st1" d="M1999.8,1246.6c0,78.7-63.8,142.5-142.6,142.5c-78.7,0-142.5-63.8-142.5-142.5
			c0-78.6,63.8-142.5,142.5-142.5C1936,1104.2,1999.8,1168,1999.8,1246.6"/>
		<path id="XMLID_238_" class="st1" d="M2167.3,844.5c0,25.2-20.5,45.7-45.7,45.7c-25.2,0-45.7-20.5-45.7-45.7
			c0-25.2,20.4-45.7,45.7-45.7C2146.8,798.8,2167.3,819.3,2167.3,844.5"/>
		<path id="XMLID_236_" class="st2" d="M1420.7,379.2c0,99.1-80.3,179.4-179.4,179.4c-99.1,0-179.5-80.3-179.5-179.4
			c0-99,80.3-179.3,179.5-179.3C1340.4,199.9,1420.7,280.2,1420.7,379.2"/>
		<path id="XMLID_235_" class="st2" d="M1076.5,528.3c0,37.1-30.2,67.2-67.3,67.2c-37.2,0-67.3-30.1-67.3-67.2
			c0-37.1,30.1-67.2,67.3-67.2C1046.3,461.1,1076.5,491.2,1076.5,528.3"/>
		<path id="XMLID_234_" class="st2" d="M2090.6,1434c0,41.4-33.5,74.8-74.8,74.8c-41.4,0-74.9-33.5-74.9-74.8
			c0-41.3,33.5-74.8,74.9-74.8C2057,1359.2,2090.6,1392.7,2090.6,1434"/>
		<path id="XMLID_233_" class="st2" d="M1902.4,390c0,73.1-59.3,132.4-132.5,132.4c-73.2,0-132.5-59.3-132.5-132.4
			c0-73.1,59.3-132.4,132.5-132.4C1843.1,257.6,1902.4,316.9,1902.4,390"/>
		<path id="XMLID_232_" class="st2" d="M2177.8,1032.4c0,56.9-46.1,103.1-103.1,103.1c-56.9,0-103.1-46.1-103.1-103.1
			c0-56.9,46.2-103.1,103.1-103.1C2131.7,929.3,2177.8,975.5,2177.8,1032.4"/>
		<path id="XMLID_231_" class="st2" d="M1575.9,453c0,25.2-20.5,45.7-45.7,45.7s-45.7-20.5-45.7-45.7s20.5-45.7,45.7-45.7
			S1575.9,427.8,1575.9,453"/>
		<path id="XMLID_230_" class="st2" d="M1521.9,552.2c0,25.2-20.5,45.7-45.7,45.7c-25.2,0-45.7-20.5-45.7-45.7
			c0-25.2,20.4-45.6,45.7-45.6C1501.4,506.6,1521.9,527,1521.9,552.2"/>
		<path id="XMLID_229_" class="st2" d="M2147.1,1227.4c0,25.3-20.4,45.7-45.7,45.7c-25.3,0-45.7-20.4-45.7-45.7
			c0-25.2,20.4-45.6,45.7-45.6C2126.6,1181.8,2147.1,1202.3,2147.1,1227.4"/>
		<path id="XMLID_228_" class="st2" d="M1737.3,1687.3c0,25.2-20.5,45.7-45.7,45.7c-25.2,0-45.7-20.4-45.7-45.7
			c0-25.2,20.5-45.7,45.7-45.7C1716.8,1641.7,1737.3,1662.1,1737.3,1687.3"/>
		<path id="XMLID_227_" class="st2" d="M2126.1,698.3c0,33.1-26.9,60-60,60c-33.1,0-60-26.9-60-60c0-33.1,26.8-59.9,60-59.9
			C2099.2,638.4,2126.1,665.2,2126.1,698.3"/>
		<path id="XMLID_226_" class="st2" d="M1449.3,656.4c0,44.6-36.1,80.6-80.7,80.6c-44.6,0-80.7-36.1-80.7-80.6
			c0-44.5,36.1-80.6,80.7-80.6C1413.2,575.7,1449.3,611.9,1449.3,656.4"/>
		<path id="XMLID_223_" class="st2" d="M1431.1,169.2c0,25.2-20.4,45.7-45.7,45.7c-25.3,0-45.7-20.4-45.7-45.7
			c0-25.2,20.5-45.6,45.7-45.6C1410.6,123.6,1431.1,144,1431.1,169.2"/>
	</g>
	<g id="c-blue">
		<path id="XMLID_220_" class="st3" d="M807,814.7C807,911,728.9,989,632.6,989c-96.3,0-174.4-78-174.4-174.3
			c0-96.2,78.1-174.2,174.4-174.2C728.9,640.5,807,718.5,807,814.7"/>
		<path id="XMLID_219_" class="st3" d="M1657.5,1332.1c0,105.5-85.6,191.1-191.3,191.1c-105.6,0-191.2-85.6-191.2-191.1
			c0-105.5,85.6-191.1,191.2-191.1C1571.9,1141,1657.5,1226.5,1657.5,1332.1"/>
		<path id="XMLID_218_" class="st3" d="M945.4,364.6c0,56.9-46.2,103-103.1,103c-57,0-103.1-46.1-103.1-103c0-57,46.1-103,103.1-103
			C899.2,261.5,945.4,307.6,945.4,364.6"/>
		<path id="XMLID_217_" class="st3" d="M1153.8,1701.6c0,56.9-46.1,103.1-103.2,103.1c-56.9,0-103.1-46.1-103.1-103.1
			c0-56.9,46.1-103,103.1-103C1107.7,1598.6,1153.8,1644.7,1153.8,1701.6"/>
		<path id="XMLID_215_" class="st4" d="M1074.3,1393.1c0,133.1-109.9,240.9-245.5,240.9c-135.5,0-245.4-107.8-245.4-240.9
			c0-133,109.9-240.9,245.4-240.9C964.4,1152.2,1074.3,1260.1,1074.3,1393.1"/>
		<path id="XMLID_214_" class="st4" d="M728,522.4c0,37.1-30.1,67.2-67.3,67.2c-37.1,0-67.3-30.1-67.3-67.2
			c0-37.1,30.2-67.2,67.3-67.2C697.9,455.2,728,485.3,728,522.4"/>
		<path id="XMLID_213_" class="st4" d="M1450,1693.1c0,71.7-58.2,129.9-130,129.9c-71.8,0-130-58.2-130-129.9
			c0-71.8,58.2-129.9,130-129.9C1391.8,1563.2,1450,1621.4,1450,1693.1"/>
		<path id="XMLID_212_" class="st4" d="M1329,1095.5c0,69.4-56.3,125.8-125.8,125.8c-69.5,0-125.9-56.3-125.9-125.8
			c0-69.4,56.3-125.8,125.9-125.8C1272.7,969.7,1329,1026,1329,1095.5"/>
		<path id="XMLID_211_" class="st4" d="M603.6,1093.6c0,44.5-36.1,80.6-80.7,80.6c-44.5,0-80.6-36.1-80.6-80.6
			c0-44.5,36.1-80.6,80.6-80.6C567.5,1013,603.6,1049,603.6,1093.6"/>
		<path id="XMLID_209_" class="st5" d="M1039.3,250.3c0,25.2-20.5,45.7-45.8,45.7c-25.2,0-45.7-20.4-45.7-45.7
			c0-25.2,20.5-45.6,45.7-45.6C1018.8,204.7,1039.3,225.1,1039.3,250.3"/>
		<path id="XMLID_208_" class="st5" d="M1207.3,1312c0,25.2-20.5,45.6-45.7,45.6c-25.2,0-45.7-20.4-45.7-45.6
			c0-25.3,20.4-45.7,45.7-45.7C1186.8,1266.3,1207.3,1286.7,1207.3,1312"/>
		<path id="XMLID_207_" class="st5" d="M723.2,1086.8c0,25.3-20.4,45.7-45.7,45.7c-25.2,0-45.7-20.4-45.7-45.7
			c0-25.2,20.4-45.7,45.7-45.7C702.9,1041.2,723.2,1061.6,723.2,1086.8"/>
		<path id="XMLID_206_" class="st5" d="M907.9,698.8c0,25.2-20.5,45.7-45.7,45.7c-25.2,0-45.7-20.4-45.7-45.7
			c0-25.2,20.5-45.7,45.7-45.7C887.3,653.2,907.9,673.6,907.9,698.8z"/>
		<path id="XMLID_205_" class="st5" d="M852.3,583c0,31.5-25.6,57.1-57.1,57.1c-31.5,0-57.1-25.6-57.1-57.1
			c0-31.6,25.6-57.1,57.1-57.1C826.7,525.9,852.3,551.4,852.3,583"/>
		<path id="XMLID_204_" class="st5" d="M869.2,1044.8c0,31.5-25.6,57.1-57.2,57.1c-31.5,0-57.1-25.6-57.1-57.1
			c0-31.6,25.6-57.1,57.1-57.1C843.6,987.6,869.2,1013.2,869.2,1044.8"/>
		<path id="XMLID_203_" class="st5" d="M585.5,1258.2c0,25.2-20.5,45.7-45.7,45.7c-25.2,0-45.7-20.4-45.7-45.7s20.5-45.7,45.7-45.7
			C565,1212.5,585.5,1233,585.5,1258.2"/>
		<path id="XMLID_202_" class="st5" d="M985.1,909c0,44.5-36.1,80.6-80.7,80.6c-44.6,0-80.7-36.1-80.7-80.6
			c0-44.5,36.1-80.6,80.7-80.6C949,828.4,985.1,864.5,985.1,909"/>
		<path id="XMLID_201_" class="st5" d="M1045.2,1076.9c0,36.2-29.9,65.5-66.6,65.5c-36.7,0-66.5-29.3-66.5-65.5
			c0-36.2,29.8-65.5,66.5-65.5C1015.3,1011.4,1045.2,1040.7,1045.2,1076.9"/>
		<path id="XMLID_200_" class="st5" d="M1261.8,1487.6c0,44.5-36.1,80.6-80.7,80.6c-44.5,0-80.6-36.1-80.6-80.6
			c0-44.6,36.1-80.7,80.6-80.7C1225.7,1406.9,1261.8,1443,1261.8,1487.6"/>
		<path id="XMLID_199_" class="st5" d="M1599.5,1609.1c0,33.4-27.1,60.5-60.6,60.5c-33.4,0-60.5-27.1-60.5-60.5
			c0-33.4,27.1-60.5,60.5-60.5C1572.4,1548.7,1599.5,1575.7,1599.5,1609.1"/>
	</g>
	<g id="c-yellow">
		<path id="XMLID_196_" class="st6" d="M1463.1,227.6c-0.1-11.5-2-22.5-5.5-32.9c-7.3-21.3-21.4-39.4-39.6-51.8
			c-14.4-9.8-31.4-16.1-49.8-17.5h0c-2.7-0.2-5.4-0.3-8.2-0.3c-0.2,0-0.3,0-0.3,0c-47.8,0.2-87.6,32.6-99.3,76.4
			c-2.3,8.7-3.5,17.8-3.4,27.2c0.4,56.7,46.4,102.5,103.1,102.5c0,0,0.4,0,0.6,0c16.4-0.1,31.8-4,45.6-10.9
			c15.4-7.7,28.6-19.1,38.3-33.1C1456.4,270.4,1463.3,249.8,1463.1,227.6z"/>
		<path id="XMLID_195_" class="st6" d="M1555.1,246.2h0.3c25.3-0.2,45.6-20.7,45.4-46c-0.1-25.1-20.5-45.4-45.7-45.4h-0.3
			c-25.2,0.1-45.6,20.7-45.4,45.9C1509.5,225.9,1529.9,246.2,1555.1,246.2z"/>
		<path id="XMLID_194_" class="st6" d="M1935.8,450.3c-10.5-14.2-24.5-25.7-40.8-33.1c-13-5.8-27.2-9-42.4-9c0,0-0.3,0-0.5,0
			c-57,0.3-102.9,46.7-102.5,103.6c0,3.3,0.2,6.6,0.5,9.9c1.9,19.2,9.1,36.8,20.1,51.4c0.1,0.2,0.8,1.1,1,1.4
			c18.9,24.2,48.4,39.8,81.4,39.8c0.2,0,0.5,0,0.5,0c3.8,0,7.3-0.2,10.8-0.6c19.3-2.1,37-9.5,51.6-20.7
			c24.6-18.9,40.5-48.8,40.3-82.3c-0.1-22-7.1-42.3-18.9-58.9C1936.7,451.5,1936,450.5,1935.8,450.3z"/>
		<path id="XMLID_193_" class="st6" d="M1386.2,478.7c-39.9-91-129.6-154.4-233.6-154.4c-0.5,0-1,0-1.5,0
			c-31.6,0.2-61.9,6.2-89.8,17c-96.6,37.6-165,133.1-164.3,244.6c0.6,102.4,59.1,190.6,143.8,232.6l0,0
			c29.8,14.8,62.8,23.8,97.7,25.8c4.8,0.2,9.5,0.4,14.2,0.4c0.5,0,0.9,0,1.4,0c48.4-0.3,93.5-14.2,132-38.2l0,0
			c17.1-10.7,32.9-23.4,47-37.7h0c9.8-9.9,18.6-20.5,26.7-31.8c29.7-41.7,47.6-92.7,48.5-147.9c0-2,0-4,0-6
			C1408,545.9,1400.2,510.6,1386.2,478.7z"/>
		<path id="XMLID_192_" class="st6" d="M1762.3,359.8h0.4c41.4-0.2,74.7-33.9,74.5-75.3c0-1.9-0.1-3.8-0.3-5.7
			c-3.1-38.5-35.3-68.7-74.6-68.7c-0.1,0-0.3,0-0.3,0c-40.7,0.2-73.5,32.6-74.6,72.8c0,0.8,0,1.6,0,2.4
			C1687.6,326.6,1721.1,359.8,1762.3,359.8z"/>
		<path id="XMLID_191_" class="st6" d="M1650.9,323.3c-7.4-4.6-15.2-8.5-23.4-11.7c-16-6.3-33.6-9.7-51.8-9.7c-0.3,0-0.5,0-0.5,0
			c-36,0.2-68.6,13.5-93.5,35.4c-29.9,26.3-48.7,64.9-48.5,107.9c0.1,24.2,6.3,46.9,17.1,66.8c14,26,35.9,47.1,62.5,60.2
			c19,9.4,40.3,14.6,62.9,14.6c0.3,0,0.6,0,0.8,0c52.3-0.3,97.9-28.7,122.5-70.8c1.6-2.8,7.6-14.8,8.9-18
			c6.8-16.8,10.6-35.2,10.4-54.4C1718,392.7,1691.1,348.3,1650.9,323.3z"/>
		<path id="XMLID_190_" class="st6" d="M855,420.3h0.4c44.1-0.3,79.7-36.2,79.5-80.3c0-2.3-0.2-4.5-0.3-6.7
			c-3.6-40.8-38-72.7-79.6-72.7c-0.1,0-0.3,0-0.5,0c-3.8,0.1-7.6,0.3-11.2,0.8c-38.8,5.7-68.5,39.2-68.2,79.5
			C775.4,384.8,811.1,420.3,855,420.3z"/>
		<path id="XMLID_189_" class="st6" d="M583.8,863.3c0.1,0,0.3-0.1,0.5-0.1c57-0.3,102.9-46.7,102.6-103.6
			c-0.3-56.7-46.5-102.5-103.1-102.5c-0.2,0-0.4,0-0.6,0c-57,0.3-102.9,46.7-102.6,103.6C481,817.5,527.1,863.3,583.8,863.3z"/>
		<path id="XMLID_188_" class="st6" d="M545.9,921.7c-0.1-25.2-20.6-45.4-45.7-45.4c-0.1,0-0.1,0-0.1,0
			c-12.2,0.1-23.1,4.8-31.3,12.5c-8.8,8.4-14.3,20.3-14.2,33.4c0.2,25.2,20.6,45.4,45.7,45.4c0,0,0.2,0,0.3,0
			c10.3-0.1,19.8-3.6,27.5-9.4C539,949.8,546,936.6,545.9,921.7z"/>
		<path id="XMLID_187_" class="st6" d="M865.9,1155.7c15.8-26.9,24.9-58.4,24.7-91.9c-0.1-28.4-6.9-55.1-18.8-78.8
			c-12.6-25.2-30.8-47-53.2-63.8c-12.2-9-25.3-16.6-39.5-22.4c-21-8.6-43.9-13.4-68-13.4c-0.3,0-0.7,0-1,0
			c-65.6,0.4-122.8,35.9-153.8,88.6c-7.6,12.9-13.6,26.9-17.8,41.6c-4.5,16-6.9,32.8-6.8,50.2c0.2,35.2,10.6,68,28.2,95.7
			c19.6,30.4,48,54.5,81.7,68.7c21.4,9,44.8,13.9,69.4,13.9c0.3,0,0.7,0,1,0C777.7,1243.7,834.9,1208.2,865.9,1155.7z"/>
		<path id="XMLID_186_" class="st6" d="M861.7,1228.7h-0.4c-37.2,0.2-67.1,30.5-66.9,67.6c0.2,37,30.2,66.8,67.2,66.8
			c0.2,0,0.3,0,0.3,0c37.3-0.2,67.3-30.5,67.1-67.6C928.7,1258.5,898.6,1228.7,861.7,1228.7z"/>
		<path id="XMLID_185_" class="st6" d="M1076,1060.7c-6.4-1.1-13-1.6-19.7-1.6c0,0-0.5,0-0.7,0c-6.3,0-12.5,0.5-18.6,1.5
			c-42.9,6.7-78.2,35.7-94.1,74.7c-5.4,13.2-8.5,27.6-9,42.7c0,1.3,0,2.7,0,4c0.4,65.5,52.2,118.7,116.9,121.5
			c1.9,0.1,3.6,0.1,5.5,0.1c0.2,0,0.5,0,0.7,0c21.6-0.1,41.9-5.8,59.4-15.7c9.8-5.6,18.7-12.4,26.6-20.3
			c13.6-13.6,23.9-30.3,29.9-49c3.8-12,5.9-24.7,5.7-38C1178.4,1120.1,1134,1070,1076,1060.7z"/>
		<path id="XMLID_184_" class="st6" d="M1166,884.6c-0.1,0-0.3,0-0.3,0c-37.2,0.2-67.2,30.5-67,67.6c0.1,17.7,7.1,33.8,18.4,45.8
			c12.3,13,29.7,21,48.9,21h0.4c29.4-0.1,54.3-19.1,63.3-45.4c2.4-7,3.7-14.5,3.6-22.2C1233.1,914.4,1203,884.6,1166,884.6z"/>
		<path id="XMLID_183_" class="st6" d="M637,640.5c22.6,17.8,51.1,28.4,81.9,28.4c0.3,0,0.5,0,0.5,0c1.1,0,2,0,2.8,0
			c31.3-0.8,59.8-12.4,82.1-31.2c19.3-16.3,33.8-37.9,41.4-62.6c3.7-12.4,5.8-25.6,5.7-39.3c-0.2-25.1-7.3-48.5-19.5-68.5
			c-19.5-31.8-52-54.6-90.1-61.2c-7.4-1.3-15.1-1.9-23-1.9c-0.2,0-0.5,0-0.5,0c-58.6,0.4-107.9,38.3-125.3,90.7
			c-2.7,8.4-4.7,17.2-5.8,26.2c-0.6,5.3-0.9,10.8-0.9,16.2C586.8,579.1,606.5,616.4,637,640.5z"/>
		<path id="XMLID_182_" class="st6" d="M783.1,730c-1.3,0-2.6,0.1-3.9,0.2c-23.4,2.1-41.6,21.8-41.5,45.7
			c0.2,25.1,20.6,45.4,45.7,45.4h0.3c6.1,0,11.9-1.3,17.3-3.5c16.6-6.9,28.3-23.3,28.1-42.4c-0.1-25.1-20.5-45.4-45.7-45.4H783.1z"
			/>
		<path id="XMLID_181_" class="st6" d="M837.3,829.3c0,7.6,1.9,14.9,5.3,21.1c7.7,14.5,22.9,24.2,40.4,24.2h0.2
			c23.5-0.1,42.8-18,45.2-40.9c0.2-1.6,0.2-3.3,0.2-5c-0.1-25.1-20.5-45.4-45.7-45.4c0,0-0.2,0-0.3,0
			C857.5,783.6,837.1,804.1,837.3,829.3z"/>
		<path id="XMLID_180_" class="st6" d="M1150,222.6c6.4,3.5,13.8,5.5,21.7,5.5c0,0,0.2,0,0.3,0c18.1-0.1,33.8-10.8,41-26.2
			c0.1-0.1,0.3-0.6,0.3-0.7c2.7-5.8,4.1-12.3,4-19c-0.1-25.2-20.6-45.4-45.7-45.4c-0.1,0-0.2,0-0.2,0c-25.3,0.1-45.7,20.7-45.5,45.9
			c0.1,17,9.5,31.9,23.4,39.6C1149.6,222.3,1149.9,222.5,1150,222.6z"/>
		<path id="XMLID_179_" class="st6" d="M2031.6,563.9c-4.4-1.5-9.2-2.2-14-2.2h-0.3c-24.8,0.1-44.8,19.9-45.5,44.5
			c0,0.5,0,0.9,0,1.4c0.1,25.2,20.5,45.4,45.7,45.4h0.2c1.7,0,3.3-0.1,4.9-0.3h0c10.6-1.2,20-5.9,27.2-13.1h0
			c8.3-8.4,13.4-19.9,13.3-32.6C2063.1,586.9,2049.9,569.8,2031.6,563.9z"/>
		<path id="XMLID_178_" class="st6" d="M1001.5,293.5c7.5,3.3,15.7,5.1,24.3,5.1c0.1,0,0.3,0,0.3,0c33.2-0.2,59.9-27.2,59.6-60.3
			c-0.1-33-26.9-59.6-59.9-59.6c0,0-0.2,0-0.3,0c-20.9,0.1-39.3,10.9-50,27.1c-6.2,9.5-9.7,21-9.7,33.1
			C966,263.4,980.6,284.2,1001.5,293.5z"/>
		<path id="XMLID_177_" class="st6" d="M987.8,1016.6c0,0,0.3,0,0.5,0c3.2,0,6.5-0.3,9.6-0.7c40-5,70.8-39.2,70.6-80.4
			c-0.2-44.4-36.3-80.2-80.7-80.2c-0.2,0-0.3,0-0.3,0c-8.9,0.1-17.3,1.5-25.1,4.1c-32.2,10.7-55.4,41.2-55.3,77
			c0.1,18.4,6.3,35.3,16.8,48.8c9.4,12.1,22.3,21.6,37,26.8C969.3,1015,978.3,1016.6,987.8,1016.6z"/>
	</g>
	<g id="c-silver">
		<path id="XMLID_175_" class="st7" d="M1947,699.4c-1.3-0.1-2.7-0.1-4.1-0.1c0,0-0.3,0-0.4,0c-33.3,0.2-60.4,27.5-60.1,60.8
			c0.2,33.3,27.2,60.1,60.5,60.1c0,0,0.2,0,0.3,0c13-0.1,25-4.2,34.9-11.3c15.4-11.1,25.4-29.1,25.3-49.5
			C2003.3,727.5,1978.4,701.5,1947,699.4z"/>
		<path id="XMLID_174_" class="st8" d="M1291.1,1563.3c-11.8-15.2-26.1-28.5-42.2-39.1c-27.5-18.1-60.4-28.6-95.7-28.6
			c-0.3,0-0.7,0-1.1,0c-18.2,0.1-35.7,3-52.2,8.2c-53.1,17-95.2,58.8-112.5,111.8c-5.7,17.3-8.7,35.9-8.6,55.2
			c0.2,52.4,23.6,99.2,60.4,130.9c30.6,26.4,70.4,42.4,114,42.4c0.3,0,0.7,0,1,0c40-0.2,76.8-13.9,106.2-36.8
			c41.1-32.1,67.5-82.2,67.2-138.4C1327.3,1629.1,1313.8,1592.5,1291.1,1563.3z"/>
		<path id="XMLID_173_" class="st7" d="M1666.2,642.7c-0.4,0-0.8,0-1.1,0c-105.6,0.6-190.7,86.6-190.1,192.2
			c0.6,105.2,86.1,190,191.2,190c0.3,0,0.7,0,1.1,0c105.6-0.6,190.7-86.6,190.1-192.2C1856.7,727.6,1771.2,642.7,1666.2,642.7"/>
		<path id="XMLID_172_" class="st9" d="M1956.6,1384.4c-3.6-9.6-7.7-19-12.3-27.9c-40.4-78.1-120.9-131.3-213.5-131.3
			c-0.5,0-0.9,0-1.3,0c-4.9,0.1-9.9,0.2-14.8,0.6c-28,1.9-54.8,8.7-79.5,19.5c-86,37.8-145.9,125.2-145.4,226.7
			c0.1,15.8,1.7,31.3,4.5,46.3c2.5,12.7,5.9,25,10.2,36.9c14.1,39,37.5,73.3,67.7,100.2c21.9,19.5,47.3,35.1,75.2,45.5
			c24.1,9.1,50,14.4,77,15.1c2.1,0.1,4.3,0.1,6.5,0.1c0.5,0,1,0,1.4,0c125.3-0.7,227.7-98.5,238.7-223c0.7-7.8,1-15.7,1-23.8
			C1971.7,1439.4,1966.3,1410.8,1956.6,1384.4z"/>
		<path id="XMLID_171_" class="st7" d="M920.6,1613c-11.1-21.9-33.8-36.9-60-36.9c-0.2,0-0.3,0-0.5,0c-32.3,0.2-59.1,23.1-65.5,53.4
			c-0.9,4.6-1.4,9.3-1.4,14.2c0.2,37,30.3,66.8,67.2,66.8c0.1,0,0.3,0,0.3,0c37.3-0.2,67.2-30.5,67-67.5
			C927.7,1632.2,925.1,1622.1,920.6,1613z"/>
		<path id="XMLID_170_" class="st9" d="M2158,971.4c-1.6-32.3-15-61.4-36-83.3c-12.6-13.1-27.8-23.5-44.9-30.4
			c-15.1-6.1-31.6-9.5-48.9-9.5c-0.2,0-0.5,0-0.7,0c-18.5,0.1-36.1,4.1-51.9,11.1c-45.8,20.3-77.6,66.3-77.3,119.5
			c0,8.3,0.9,16.5,2.4,24.4c10.1,51.5,50.7,92.1,102,102.3c8.2,1.6,16.8,2.5,25.5,2.5c0,0,0.5,0,0.7,0
			c71.8-0.4,129.6-58.8,129.2-130.6C2158.1,975.3,2158.1,973.3,2158,971.4z"/>
		<path id="XMLID_169_" class="st8" d="M1416.2,927c0,0-0.4,0-0.6,0c-52.1,0.3-94.1,42.8-93.8,94.8c0.2,51.9,42.4,93.8,94.3,93.8
			c0.1,0,0.3,0,0.5,0c52.1-0.3,94.1-42.8,93.9-94.8C1510.2,968.9,1468.1,927,1416.2,927"/>
		<path id="XMLID_167_" class="st7" d="M701.5,1359.8c0,0-0.3,0-0.6,0c-56.9,0.3-102.8,46.7-102.5,103.6c0,8.7,0.9,17.3,3.2,25.2
			c6.4,21.4,16.8,39.5,32.3,52.1c18.6,15.1,41.7,25.2,67.5,25.2c0.2,0,0.4,0,0.6,0c57-0.3,102.8-46.7,102.6-103.6
			C804.3,1405.6,758.2,1359.8,701.5,1359.8"/>
		<path id="XMLID_166_" class="st8" d="M2120,1184.3c-18.9-24.5-48.5-40.3-81.8-40.3c-0.2,0-0.4,0-0.6,0
			c-23.7,0.2-45.5,8.3-62.8,21.8c-24.3,19-39.8,48.6-39.7,81.8c0.2,31.7,14.7,60.1,37.4,78.9c17.9,14.7,40.7,23.6,65.6,23.6
			c0.2,0,0.4,0,0.6,0c56.9-0.3,102.8-46.7,102.5-103.6c0-0.5,0-1,0-1.4C2140.9,1222.2,2133,1201.2,2120,1184.3z"/>
		<path id="XMLID_165_" class="st7" d="M611.2,1274c-7.1-4.6-15.6-7.3-24.8-7.3h-0.3c-1.6,0-3.2,0.1-4.9,0.3
			c-19,2.1-34.5,16-39.1,34.1c-0.9,3.7-1.4,7.5-1.3,11.5c0.1,24,18.6,43.5,42,45.3c1.2,0.1,2.4,0.2,3.6,0.2h0.3
			c25.3-0.2,45.6-20.7,45.5-45.9C632,1296.1,623.7,1282,611.2,1274z"/>
		<path id="XMLID_164_" class="st7" d="M1647.7,1092.7h-0.2c-25.2,0.2-45.6,20.7-45.5,45.9c0.2,25.1,20.6,45.4,45.7,45.4
			c0,0,0.2,0,0.3,0c25.2-0.2,45.6-20.7,45.4-45.9C1693.2,1113.1,1672.8,1092.7,1647.7,1092.7"/>
		<path id="XMLID_163_" class="st7" d="M1070.7,1411.5c-8.4-9.8-20.9-16-34.8-16c0,0-0.1,0-0.2,0c-25.2,0.1-45.6,20.7-45.4,45.9
			c0.1,25.1,20.6,45.4,45.7,45.4c0.1,0,0.2,0,0.2,0c5.9,0,11.5-1.1,16.5-3.1c17.1-6.7,29.1-23.4,29-42.8
			C1081.5,1429.7,1077.4,1419.4,1070.7,1411.5z"/>
		<path id="XMLID_162_" class="st9" d="M920.3,1451.6c0,0-0.2,0-0.3,0c-31.5,0.2-57,25.9-56.8,57.5c0.2,31.4,25.7,56.7,57.1,56.7
			c0.1,0,0.2,0,0.2,0c31.7-0.2,57.1-25.8,57-57.4C977.2,1476.9,951.7,1451.6,920.3,1451.6"/>
		<path id="XMLID_161_" class="st7" d="M1597.3,1714.6c0,0-0.1,0-0.3,0c-25.2,0.2-45.5,20.7-45.4,45.9c0.1,25.1,20.6,45.4,45.7,45.4
			h0.3c25.2-0.1,45.6-20.7,45.4-45.9C1642.9,1734.8,1622.5,1714.6,1597.3,1714.6"/>
		<path id="XMLID_160_" class="st7" d="M1424.9,1577.8c-10.8,0.1-20.6,3.8-28.3,10c-10.5,8.4-17.2,21.4-17.1,35.9
			c0.1,25.1,20.5,45.4,45.6,45.4c0,0,0.2,0,0.3,0c6.9-0.1,13.4-1.6,19.2-4.3c15.6-7.4,26.3-23.3,26.2-41.6
			c-0.1-25.2-20.6-45.4-45.7-45.4H1424.9z"/>
		<path id="XMLID_159_" class="st7" d="M1382.6,1546.4c21-0.1,39.1-11.5,49.1-28.3c5-8.5,7.8-18.5,7.7-29.1
			c-0.2-31.4-25.7-56.8-57.1-56.8c0,0-0.2,0-0.3,0c-23.2,0.1-43.2,14.2-52,34.1c-3.1,7.1-4.8,15-4.8,23.3
			c0.2,31.4,25.8,56.8,57.1,56.8C1382.4,1546.4,1382.5,1546.4,1382.6,1546.4z"/>
		<path id="XMLID_158_" class="st7" d="M1446.9,1698.6c-4.6-0.8-9.3-1.3-14.2-1.3c-0.2,0-0.3,0-0.5,0c-44.5,0.3-80.4,36.6-80.2,81.1
			c0.1,12.5,3,24.3,8.1,34.8c13.1,26.8,40.7,45.3,72.6,45.3h0.5c44.5-0.3,80.5-36.6,80.2-81.1
			C1513.2,1737.9,1484.5,1705.3,1446.9,1698.6z"/>
		<path id="XMLID_157_" class="st7" d="M1272.5,1321.5c-8.3-2.9-17.2-4.5-26.5-4.5c-0.1,0-0.3,0-0.5,0c-17.8,0.1-34.1,6-47.4,15.8
			c-6.3,4.6-11.8,10.1-16.4,16.2c-10.3,13.7-16.5,30.7-16.4,49.2c0,2.5,0.1,4.9,0.3,7.3c3.9,40.9,38.5,72.9,80.3,72.9h0.4
			c4.2,0,8.3-0.4,12.3-1c21.5-3.4,40.2-15.4,52.5-32.2c9.8-13.4,15.6-30,15.4-47.9C1326.5,1362.1,1303.9,1332.4,1272.5,1321.5z"/>
		<path id="XMLID_156_" class="st7" d="M1413.5,1256.1h-0.4c-36.2,0.2-65.4,30.2-65.2,66.9c0.2,36.6,29.6,66.1,65.6,66.1
			c0.1,0,0.2,0,0.2,0c36.4-0.2,65.6-30.1,65.3-66.9C1478.8,1285.7,1449.6,1256.1,1413.5,1256.1"/>
		<path id="XMLID_155_" class="st7" d="M1903.6,1110.3c-2.9-32.1-24.7-58.7-54.1-68.8c-8.2-2.8-17-4.3-26.1-4.3c-0.2,0-0.3,0-0.5,0
			c-28.1,0.2-52.7,14.7-67.1,36.6c-8.3,12.8-13.2,28.1-13.2,44.5c0.1,11.3,2.5,22,6.7,31.7c12.5,28.6,40.9,48.5,74,48.5
			c0,0,0.3,0,0.5,0c44.5-0.3,80.4-36.6,80.2-81.1C1904,1115,1903.8,1112.7,1903.6,1110.3z"/>
	</g>
</g>
<g id="text-printworks">
	<g id="print">
		<path id="XMLID_269_" d="M193.3,2330.1h-19.7v-316.2H262c49.5,0,89.4,39.9,89.4,89.5c0,49.5-40,90-89.4,90h-68.7V2330.1z
			 M193.3,2173.7H262c38.3,0,69.8-31.5,69.8-70.3c0-38.8-31.5-69.8-69.8-69.8h-68.7V2173.7z"/>
		<path id="XMLID_266_" d="M393.6,2328.4v-314.5H482c49.5,0,90,39.9,90,89.5c0,41.6-28.7,77.1-67.5,87.2l82.7,137.8h-23.1l-80.5-135
			h-70.3v135H393.6z M413.3,2173.7H482c38.8,0,70.3-31.5,70.3-70.3c0-38.8-31.5-69.8-70.3-69.8h-68.7V2173.7z"/>
		<path id="XMLID_264_" d="M671.6,2328.4h-19.7v-316.2h19.7V2328.4z"/>
		<path id="XMLID_262_" d="M959.1,2013.9v314.5h-20.3l-177.2-280.2v280.2h-19.7v-314.5h20.8l176.6,279.1v-279.1H959.1z"/>
		<path id="XMLID_260_" d="M1105.4,2329.5h-19.7v-295.9h-95.6v-19.7h210.4v19.7h-95.1V2329.5z"/>
	</g>
	<g id="works">
		<path id="XMLID_258_" d="M1522.3,2013.9l-61.9,314.5h-37.1l-56.8-99.6c-11.3,20.3-24.2,42.8-35.5,63c-6.2,11.8-14.6,25.9-20.8,36.6
			h-37.1l-61.9-314.5h41.6l50.1,247c5.1-7.9,10.7-19.1,15.8-27.6c5.1-9,11.3-20.3,16.3-28.7c8.4-14.6,23.6-42.8,31.5-56.8l65.2,113.7
			c6.8-37.1,14.6-72.6,22.5-111.4c8.4-41.1,19.1-95.6,27.6-136.1H1522.3z"/>
		<path id="XMLID_255_" d="M1668.1,2326.7c-23.6,0-49.5-9.6-69.2-24.2c-19.1-14.6-33.8-38.3-38.8-60.2c-4-18.6-6.2-45-6.2-72
			c0-26.5,2.2-53.5,6.2-72.6c5.1-21.9,19.7-45.6,38.8-60.2c19.7-14.6,45.6-24.2,69.2-24.2h14.1c23.1,0,50.1,9.6,69.8,24.2
			c19.7,14.6,34.9,38.8,38.8,60.2c3.9,19.1,6.2,46.7,6.2,72.6c0,26.4-2.3,53.4-6.2,72c-3.9,21.4-19.1,45.6-38.8,60.2
			c-19.7,14.6-46.7,24.2-69.8,24.2H1668.1z M1668.1,2052.7c-29.8,0-61.3,26.4-69.2,52.9v-0.6c-3.4,18.6-5.1,43.3-5.1,65.3
			c0,21.9,1.7,46.1,5.1,64.7v-0.6c7.9,26.4,39.4,52.9,69.2,52.9h14.1c30.4,0,61.3-26.4,69.8-52.9v0.6c4-18.6,5.1-42.8,5.1-64.7
			c0-21.9-1.1-46.7-5.1-65.3v0.6c-8.4-26.5-39.4-52.9-69.8-52.9H1668.1z"/>
		<path id="XMLID_252_" d="M1848.1,2328.4v-314.5h92.8c51.8,0,94.5,41.1,94.5,94c0,37.7-24.7,72.6-57.9,87.2
			c3.9,7.3,10.1,15.2,14.6,23.1c9.6,16.3,19.1,33.2,28.7,47.8c5.1,9,11.8,19.1,18,28.7h-0.6c5.1,9,15.8,25.3,20.3,33.8h-47.8l-76-126
			H1887v126H1848.1z M1887,2162.4h54c29.8,0,54.6-24.2,54.6-54.6c0-29.8-24.8-54.6-54.6-54.6h-54V2162.4z"/>
		<path id="XMLID_250_" d="M2218.4,2183.8l79.3,144.6h-45l-68.7-124.9l0.6,0.6c-4.5-6.2-11.8-10.7-19.1-10.7h-34.3v135h-38.8v-314.5
			h38.8v139.5h7.9l23.6-36c11.2-16.3,21.4-32.6,32.6-48.4v0.6c7.9-11.8,16.3-25.3,25.3-37.7c3.4-5.6,9-12.9,12.4-18h47.8l-96.8,142.9
			c14.6,5.1,29.3,17.4,40,35.4L2218.4,2183.8z"/>
		<path id="XMLID_248_" d="M2349.5,2304.2v0.6c-19.7-16.3-25.9-44.4-27.6-55.7l38.8-8.4c1.7,8.4,12.9,49.5,59.1,49.5
			c23.6,0,38.8-11.2,46.7-20.3c5.1-7.3,9.6-18.6,9.6-27s-1.7-16.9-6.2-21.4c-4.5-5.6-22.5-18.6-41.1-31.5
			c-4.5-1.7-12.4-7.9-15.8-11.8c-33.2-21.9-56.8-38.8-64.7-50.1c-8.4-12.9-13.5-28.1-13.5-39.9c0-20.3,9.6-39.4,22-52.9
			c19.7-20.3,39.9-24.2,68.1-24.2c19.7,0,38.8,7.3,55.1,19.1c15.8,12.4,28.1,35.5,32.6,58.5l-38.8,8.4c-5.1-25.3-27-46.1-48.9-46.1
			c-21.9,0-30.9,2.8-39.4,11.8c-1.7,1.7-10.7,11.8-10.7,24.8c0,4.5,3.4,11.2,6.7,17.4c20.3,18,41.6,30.9,60.8,45
			c23.1,16.3,47.8,34.3,56.8,45.6c10.7,12.9,16.3,30.9,15.8,49.5c0,16.3-6.7,36-18,50.1c-13.5,14.6-38.8,34.9-77.1,34.9
			C2391.1,2330.1,2368,2321.1,2349.5,2304.2z"/>
	</g>
</g>

<style>
#text-printworks #print {
		opacity: 0;
		-webkit-animation: showingText 1s linear 0.3s forwards;
		        animation: showingText 1s linear 0.3s forwards;
	}

	#text-printworks #works {
		opacity: 0;
		-webkit-animation: showingText 1s linear 0.6s forwards;
		        animation: showingText 1s linear 0.6s forwards;
	}


	#circles path {
			opacity: 0;
			-webkit-transform-origin: 50% 50%;
			    -ms-transform-origin: 50% 50%;
			        transform-origin: 50% 50%;
			-webkit-transform: scale(0);
			    -ms-transform: scale(0);
			        transform: scale(0);
	}

	#circles #c-pink path:nth-child(1),
	#circles #c-blue path:nth-child(1),
	#circles #c-yellow path:nth-child(1),
	#circles #c-silver path:nth-child(1) {
		-webkit-animation: showingCircles 0.3s linear 0s forwards;
		        animation: showingCircles 0.3s linear 0s forwards;
	}

	#circles #c-pink path:nth-child(2),
	#circles #c-blue path:nth-child(2),
	#circles #c-yellow path:nth-child(2),
	#circles #c-silver path:nth-child(2) {
		-webkit-animation: showingCircles 0.3s linear 0.05s forwards;
		        animation: showingCircles 0.3s linear 0.05s forwards;
	}

	#circles #c-pink path:nth-child(3),
	#circles #c-blue path:nth-child(3),
	#circles #c-yellow path:nth-child(3),
	#circles #c-silver path:nth-child(3) {
		-webkit-animation: showingCircles 0.3s linear 0.1s forwards;
		        animation: showingCircles 0.3s linear 0.1s forwards;
	}

	#circles #c-pink path:nth-child(4),
	#circles #c-blue path:nth-child(4),
	#circles #c-yellow path:nth-child(4),
	#circles #c-silver path:nth-child(4) {
		-webkit-animation: showingCircles 0.3s linear 0.15s forwards;
		        animation: showingCircles 0.3s linear 0.15s forwards;
	}

	#circles #c-pink path:nth-child(5),
	#circles #c-blue path:nth-child(5),
	#circles #c-yellow path:nth-child(5),
	#circles #c-silver path:nth-child(5) {
		-webkit-animation: showingCircles 0.3s linear 0.2s forwards;
		        animation: showingCircles 0.3s linear 0.2s forwards;
	}

	#circles #c-pink path:nth-child(6),
	#circles #c-blue path:nth-child(6),
	#circles #c-yellow path:nth-child(6),
	#circles #c-silver path:nth-child(6) {
		-webkit-animation: showingCircles 0.3s linear 0.25s forwards;
		        animation: showingCircles 0.3s linear 0.25s forwards;
	}

	#circles #c-pink path:nth-child(7),
	#circles #c-blue path:nth-child(7),
	#circles #c-yellow path:nth-child(7),
	#circles #c-silver path:nth-child(7) {
		-webkit-animation: showingCircles 0.3s linear 0.3s forwards;
		        animation: showingCircles 0.3s linear 0.3s forwards;
	}

	#circles #c-pink path:nth-child(8),
	#circles #c-blue path:nth-child(8),
	#circles #c-yellow path:nth-child(8),
	#circles #c-silver path:nth-child(8) {
		-webkit-animation: showingCircles 0.3s linear 0.35s forwards;
		        animation: showingCircles 0.3s linear 0.35s forwards;
	}

	#circles #c-pink path:nth-child(9),
	#circles #c-blue path:nth-child(9),
	#circles #c-yellow path:nth-child(9),
	#circles #c-silver path:nth-child(9) {
		-webkit-animation: showingCircles 0.3s linear 0.4s forwards;
		        animation: showingCircles 0.3s linear 0.4s forwards;
	}

	#circles #c-pink path:nth-child(10),
	#circles #c-blue path:nth-child(10),
	#circles #c-yellow path:nth-child(10),
	#circles #c-silver path:nth-child(10) {
		-webkit-animation: showingCircles 0.3s linear 0.45s forwards;
		        animation: showingCircles 0.3s linear 0.45s forwards;
	}

	#circles #c-pink path:nth-child(11),
	#circles #c-blue path:nth-child(11),
	#circles #c-yellow path:nth-child(11),
	#circles #c-silver path:nth-child(11) {
		-webkit-animation: showingCircles 0.3s linear 0.5s forwards;
		        animation: showingCircles 0.3s linear 0.5s forwards;
	}
	#circles #c-pink path:nth-child(12),
	#circles #c-blue path:nth-child(12),
	#circles #c-yellow path:nth-child(12),
	#circles #c-silver path:nth-child(12) {
		-webkit-animation: showingCircles 0.3s linear 0.55s forwards;
		        animation: showingCircles 0.3s linear 0.55s forwards;
	}
	#circles #c-pink path:nth-child(13),
	#circles #c-blue path:nth-child(13),
	#circles #c-yellow path:nth-child(13),
	#circles #c-silver path:nth-child(13) {
		-webkit-animation: showingCircles 0.3s linear 0.6s forwards;
		        animation: showingCircles 0.3s linear 0.6s forwards;
	}
	#circles #c-pink path:nth-child(14),
	#circles #c-blue path:nth-child(14),
	#circles #c-yellow path:nth-child(14),
	#circles #c-silver path:nth-child(14) {
		-webkit-animation: showingCircles 0.3s linear 0.65s forwards;
		        animation: showingCircles 0.3s linear 0.65s forwards;
	}
	#circles #c-pink path:nth-child(15),
	#circles #c-blue path:nth-child(15),
	#circles #c-yellow path:nth-child(15),
	#circles #c-silver path:nth-child(15) {
		-webkit-animation: showingCircles 0.3s linear 0.7s forwards;
		        animation: showingCircles 0.3s linear 0.7s forwards;
	}
	#circles #c-pink path:nth-child(16),
	#circles #c-blue path:nth-child(16),
	#circles #c-yellow path:nth-child(16),
	#circles #c-silver path:nth-child(16) {
		-webkit-animation: showingCircles 0.3s linear 0.75s forwards;
		        animation: showingCircles 0.3s linear 0.75s forwards;
	}
	#circles #c-pink path:nth-child(17),
	#circles #c-blue path:nth-child(17),
	#circles #c-yellow path:nth-child(17),
	#circles #c-silver path:nth-child(17) {
		-webkit-animation: showingCircles 0.3s linear 0.8s forwards;
		        animation: showingCircles 0.3s linear 0.8s forwards;
	}
	#circles #c-pink path:nth-child(18),
	#circles #c-blue path:nth-child(18),
	#circles #c-yellow path:nth-child(18),
	#circles #c-silver path:nth-child(18) {
		-webkit-animation: showingCircles 0.3s linear 0.85s forwards;
		        animation: showingCircles 0.3s linear 0.85s forwards;
	}
	#circles #c-pink path:nth-child(19),
	#circles #c-blue path:nth-child(19),
	#circles #c-yellow path:nth-child(19),
	#circles #c-silver path:nth-child(19) {
		-webkit-animation: showingCircles 0.3s linear 0.9s forwards;
		        animation: showingCircles 0.3s linear 0.9s forwards;
	}
	#circles #c-pink path:nth-child(20),
	#circles #c-blue path:nth-child(20),
	#circles #c-yellow path:nth-child(20),
	#circles #c-silver path:nth-child(20) {
		-webkit-animation: showingCircles 0.3s linear 0.95s forwards;
		        animation: showingCircles 0.3s linear 0.95s forwards;
	}
	#circles #c-pink path:nth-child(21),
	#circles #c-blue path:nth-child(21),
	#circles #c-yellow path:nth-child(21),
	#circles #c-silver path:nth-child(21) {
		-webkit-animation: showingCircles 0.3s linear 1s forwards;
		        animation: showingCircles 0.3s linear 1s forwards;
	}
	#circles #c-pink path:nth-child(22),
	#circles #c-blue path:nth-child(22),
	#circles #c-yellow path:nth-child(22),
	#circles #c-silver path:nth-child(22) {
		-webkit-animation: showingCircles 0.3s linear 1.05s forwards;
		        animation: showingCircles 0.3s linear 1.05s forwards;
	}



	@-webkit-keyframes showingCircles {
		to {
			opacity: 1;
			-webkit-transform: scale(1);
			        transform: scale(1);
		}
	}


	@-webkit-keyframes showingText {
		to {
			opacity: 1;
		}
	}


</style>

</svg>
