<svg version="1.1" id="simmer-animation" xmlns="http://www.w3.org/2000/svg" xmlns:xlink="http://www.w3.org/1999/xlink" x="0px" y="0px"
	 viewBox="0 0 335.333 116.636" enable-background="new 0 0 335.333 116.636" xml:space="preserve">
<defs>
	<!-- Developed by Nazariy Kereya -->
	<linearGradient id="shape_wave_gradient" radientUnits="objectBoundingBox" x1="50%" y1="100%" x2="50%" y2="0%" >
		<stop  offset="0" style="stop-color:#241222"/>
		<stop  offset="0.1743" style="stop-color:#241222"/>
		<stop  offset="0.1786" style="stop-color:#241222"/>
		<stop  offset="0.2489" style="stop-color:#271325"/>
		<stop  offset="0.3162" style="stop-color:#2E182B"/>
		<stop  offset="0.3823" style="stop-color:#391F36"/>
		<stop  offset="0.4472" style="stop-color:#482844"/>
		<stop  offset="0.4796" style="stop-color:#502E4C"/>
		<stop  offset="0.5483" style="stop-color:#563152"/>
		<stop  offset="0.7181" style="stop-color:#62395E"/>
		<stop  offset="0.8735" style="stop-color:#693E65"/>
		<stop  offset="1" style="stop-color:#6B3F67"/>
	</linearGradient>
	<linearGradient id="buble_grad1" gradientUnits="objectBoundingBox" x1="50%" y1="0%" x2="50%" y2="100%" > 
		<stop  offset="0" style="stop-color:#E5E5E5"/>
		<stop  offset="0.0115" style="stop-color:#E4E4E4"/>
		<stop  offset="0.4218" style="stop-color:#CACACA"/>
		<stop  offset="0.7643" style="stop-color:#B9B9B9"/>
		<stop  offset="0.9949" style="stop-color:#B3B3B3"/>
	</linearGradient>
	<linearGradient id="buble_grad2" gradientUnits="objectBoundingBox" x1="50%" y1="0%" x2="50%" y2="100%" > 
		<stop  offset="0.0051" style="stop-color:#B3B3B3"/>
		<stop  offset="0.2357" style="stop-color:#B9B9B9"/>
		<stop  offset="0.5782" style="stop-color:#CACACA"/>
		<stop  offset="0.9885" style="stop-color:#E4E4E4"/>
		<stop  offset="1" style="stop-color:#E5E5E5"/>
	</linearGradient>
	<linearGradient id="buble_grad3" gradientUnits="objectBoundingBox" x1="50%" y1="0%" x2="50%" y2="100%" > 
			<stop  offset="0" style="stop-color:#AEB9CA"/>
			<stop  offset="1" style="stop-color:#B5BBC3"/>
	</linearGradient>
	<linearGradient id="buble_grad4" gradientUnits="objectBoundingBox" x1="50%" y1="0%" x2="50%" y2="100%" > 
		<stop  offset="0" style="stop-color:#FFFFFF"/>
		<stop  offset="0.1832" style="stop-color:#DFE3EA"/>
		<stop  offset="0.5283" style="stop-color:#ADB8C8"/>
		<stop  offset="0.813" style="stop-color:#91A0B4"/>
		<stop  offset="1" style="stop-color:#8797AC"/>
	</linearGradient>
	<linearGradient id="buble_grad5" gradientUnits="objectBoundingBox" x1="50%" y1="0%" x2="50%" y2="100%" > 
		<stop  offset="0" style="stop-color:#FFFFFF"/>
		<stop  offset="0.1454" style="stop-color:#FCFCFE"/>
		<stop  offset="0.3041" style="stop-color:#F1F4FA"/>
		<stop  offset="0.4691" style="stop-color:#DEE8F6"/>
		<stop  offset="0.6384" style="stop-color:#C5D6EF"/>
		<stop  offset="0.8111" style="stop-color:#A3C1E4"/>
		<stop  offset="0.9843" style="stop-color:#75A8D9"/>
		<stop  offset="1" style="stop-color:#70A6D9"/>
	</linearGradient>
	<linearGradient id="buble_grad6" gradientUnits="objectBoundingBox" x1="50%" y1="100%" x2="50%" y2="0%" > 
			<stop  offset="0" style="stop-color:#DBDBEC"/>
			<stop  offset="0.1591" style="stop-color:#D4D4E2"/>
			<stop  offset="0.4252" style="stop-color:#CACBD7"/>
			<stop  offset="0.7012" style="stop-color:#C4C5D0"/>
			<stop  offset="1" style="stop-color:#C1C3CD"/>
	</linearGradient>
	<linearGradient id="buble_grad7" gradientUnits="objectBoundingBox" x1="50%" y1="0%" x2="50%" y2="100%" gradientTransform="matrix(-1.0318 0.2144 -0.1509 -1.0209 221.1439 318.2336)">
		<stop  offset="0" style="stop-color:#FFFFFF"/>
		<stop  offset="0.0391" style="stop-color:#FBFBFB"/>
		<stop  offset="0.3329" style="stop-color:#DBDBDB"/>
		<stop  offset="0.601" style="stop-color:#C3C3C3"/>
		<stop  offset="0.8323" style="stop-color:#B4B4B4"/>
		<stop  offset="1" style="stop-color:#AEAEAE"/>
	</linearGradient>

	<clipPath id="clip-cirShape">
		<path d="M100.756,52.046C98.918,31.66,81.794,15.684,60.929,15.684
		c-21.317,0-38.734,16.678-39.929,37.696c-0.044,0.763-0.07,1.53-0.07,2.304c0,22.09,17.908,39.998,40,39.998
		c22.091,0,40-17.908,40-39.998C100.929,54.456,100.866,53.245,100.756,52.046z"/>
	</clipPath>
	<clipPath id="clip-text">
			<path d="M139.234,58.686c-1.276-1.594-2.846-2.818-4.667-3.639c-1.562-0.703-3.149-1.357-4.72-1.945
				c-1.362-0.509-2.524-1.099-3.457-1.755c-0.343-0.241-0.752-0.599-0.752-0.938c0-0.352,0.089-0.54,0.352-0.745
				c0.888-0.69,2.818-0.602,5.301,0.345c1.434,0.547,2.556,1.135,3.334,1.746l2.015,1.581l5.377-11.542l-1.848-0.855
				c-1.505-0.697-3.086-1.237-4.697-1.603c-1.623-0.369-3.322-0.556-5.047-0.556c-3.958,0-7.432,1.282-10.326,3.81
				c-2.976,2.598-4.484,5.755-4.484,9.384c0,2.26,0.63,4.238,1.858,5.892c0.068,0.092,0.13,0.187,0.202,0.277
				c1.265,1.582,2.813,2.817,4.6,3.671c1.561,0.746,3.155,1.424,4.735,2.014c1.365,0.511,2.529,1.102,3.458,1.754
				c0.754,0.531,0.754,0.926,0.754,1.117c0,0.464-0.154,0.764-0.55,1.07c-0.523,0.404-1.303,0.611-2.318,0.611
				c-2.29,0-4.696-1.245-7.15-3.699l-1.686-1.687l-6.251,8.656l1.487,1.816c0.852,0.975,2.197,2.014,4.093,3.166
				c2.27,1.41,4.891,2.123,7.791,2.123c3.884,0,7.327-1.383,10.231-4.111c2.939-2.764,4.429-6.057,4.429-9.789
				c0-2.219-0.609-4.167-1.798-5.809C139.41,58.926,139.328,58.803,139.234,58.686z"/>
			<polygon points="153.226,59.608 153.902,38.63 142.537,40.63 143.06,59.206 143.191,63.874 142.482,78.201 
				153.817,78.201 153.115,63.022 			"/>
			<polygon points="192.718,78.201 191.603,63.053 191.576,59.981 191.382,39.444 181.019,39.143 174.906,55.056 
				169.548,38.688 158.115,40.485 157.847,59.76 157.79,63.823 156.962,78.201 167.465,78.201 167.056,63.044 167.121,61.138 
				169.694,68.88 178.798,68.435 181.806,60.136 181.809,60.126 181.81,60.136 181.932,63.06 181.641,78.201 			"/>
			<polygon points="230.644,78.201 229.529,63.053 229.493,59.126 229.308,39.444 218.945,39.143 212.831,55.056 
				207.474,38.688 196.041,40.485 195.771,59.826 195.715,63.823 194.887,78.201 205.39,78.201 204.981,63.044 205.047,61.138 
				207.62,68.88 216.722,68.435 219.735,60.126 219.858,63.06 219.567,78.201 			"/>
			<polygon points="244.095,68.783 243.836,63.048 253.431,63.048 253.829,59.215 254.41,53.63 244.155,53.63 
				244.321,48.753 255.554,48.753 256.528,39.286 233.248,39.286 233.78,59.116 233.908,63.873 233.201,78.201 255.654,78.201 
				256.631,68.783 			"/>
			<path d="M278.37,61.721c0.733-0.558,1.399-1.186,2.004-1.869c0.517-0.582,0.991-1.203,1.41-1.873
				c1.329-2.121,2.002-4.498,2.002-7.064c0-3.477-1.191-6.328-3.542-8.472c-2.296-2.095-5.357-3.157-9.097-3.157h-13.048
				l0.536,19.969l0.124,4.618l-0.707,14.329h11.029l-0.619-13.436h0.665l8.226,14.66l9.939-5.092L278.37,61.721z M268.823,48.451
				h0.506c3.578,0,3.878,1.466,3.878,2.969c0,1.556-0.31,2.716-0.918,3.446c-0.335,0.401-0.943,0.936-2.354,0.936h-1.338
				L268.823,48.451z"/>
	</clipPath>

	<filter id="sofGlow" x="-50%" y="-50%" height="200%" width="200%">
    <feMorphology operator="dilate" radius="1" in="SourceAlpha" result="thicken" />
    <feGaussianBlur id="blur-deviation" in="thicken" stdDeviation="0.5" result="blurred" />
    <feFlood flood-color="rgb(255,255,255)" result="glowColor" />
    <feComposite in="glowColor" in2="blurred" operator="in" result="softGlow_colored" />
    <feMerge>
      <feMergeNode in="softGlow_colored"/>
      <feMergeNode in="SourceGraphic"/>
    </feMerge>
	</filter>
	<!-- Developed by Nazariy Kereya -->
</defs>
<rect width="335.333" height="116.636"/>
<g id="text-part">
	<g id="text">
		<g id="simmer-text" filter="url(#sofGlow)">
			<path fill="#502E4C" d="M139.234,58.686c-1.276-1.594-2.846-2.818-4.667-3.639c-1.562-0.703-3.149-1.357-4.72-1.945
				c-1.362-0.509-2.524-1.099-3.457-1.755c-0.343-0.241-0.752-0.599-0.752-0.938c0-0.352,0.089-0.54,0.352-0.745
				c0.888-0.69,2.818-0.602,5.301,0.345c1.434,0.547,2.556,1.135,3.334,1.746l2.015,1.581l5.377-11.542l-1.848-0.855
				c-1.505-0.697-3.086-1.237-4.697-1.603c-1.623-0.369-3.322-0.556-5.047-0.556c-3.958,0-7.432,1.282-10.326,3.81
				c-2.976,2.598-4.484,5.755-4.484,9.384c0,2.26,0.63,4.238,1.858,5.892c0.068,0.092,0.13,0.187,0.202,0.277
				c1.265,1.582,2.813,2.817,4.6,3.671c1.561,0.746,3.155,1.424,4.735,2.014c1.365,0.511,2.529,1.102,3.458,1.754
				c0.754,0.531,0.754,0.926,0.754,1.117c0,0.464-0.154,0.764-0.55,1.07c-0.523,0.404-1.303,0.611-2.318,0.611
				c-2.29,0-4.696-1.245-7.15-3.699l-1.686-1.687l-6.251,8.656l1.487,1.816c0.852,0.975,2.197,2.014,4.093,3.166
				c2.27,1.41,4.891,2.123,7.791,2.123c3.884,0,7.327-1.383,10.231-4.111c2.939-2.764,4.429-6.057,4.429-9.789
				c0-2.219-0.609-4.167-1.798-5.809C139.41,58.926,139.328,58.803,139.234,58.686z"/>
			<polygon fill="#502E4C" points="153.226,59.608 153.902,38.63 142.537,40.63 143.06,59.206 143.191,63.874 142.482,78.201 
				153.817,78.201 153.115,63.022 			"/>
			<polygon fill="#502E4C" points="192.718,78.201 191.603,63.053 191.576,59.981 191.382,39.444 181.019,39.143 174.906,55.056 
				169.548,38.688 158.115,40.485 157.847,59.76 157.79,63.823 156.962,78.201 167.465,78.201 167.056,63.044 167.121,61.138 
				169.694,68.88 178.798,68.435 181.806,60.136 181.809,60.126 181.81,60.136 181.932,63.06 181.641,78.201 			"/>
			<polygon fill="#502E4C" points="230.644,78.201 229.529,63.053 229.493,59.126 229.308,39.444 218.945,39.143 212.831,55.056 
				207.474,38.688 196.041,40.485 195.771,59.826 195.715,63.823 194.887,78.201 205.39,78.201 204.981,63.044 205.047,61.138 
				207.62,68.88 216.722,68.435 219.735,60.126 219.858,63.06 219.567,78.201 			"/>
			<polygon fill="#4E304A" points="244.095,68.783 243.836,63.048 253.431,63.048 253.829,59.215 254.41,53.63 244.155,53.63 
				244.321,48.753 255.554,48.753 256.528,39.286 233.248,39.286 233.78,59.116 233.908,63.873 233.201,78.201 255.654,78.201 
				256.631,68.783 			"/>
			<path fill="#502E4C" d="M278.37,61.721c0.733-0.558,1.399-1.186,2.004-1.869c0.517-0.582,0.991-1.203,1.41-1.873
				c1.329-2.121,2.002-4.498,2.002-7.064c0-3.477-1.191-6.328-3.542-8.472c-2.296-2.095-5.357-3.157-9.097-3.157h-13.048
				l0.536,19.969l0.124,4.618l-0.707,14.329h11.029l-0.619-13.436h0.665l8.226,14.66l9.939-5.092L278.37,61.721z M268.823,48.451
				h0.506c3.578,0,3.878,1.466,3.878,2.969c0,1.556-0.31,2.716-0.918,3.446c-0.335,0.401-0.943,0.936-2.354,0.936h-1.338
				L268.823,48.451z"/>
		</g>
		<g filter="url(#sofGlow)">
			<path fill="#502E4C" d="M290.239,74.701c-0.772,0-1.441,0.289-1.991,0.861c-0.544,0.568-0.82,1.234-0.82,1.98
				c0,0.744,0.209,1.363,0.621,1.844c0.422,0.496,1.016,0.748,1.763,0.748c0.742,0,1.398-0.297,1.944-0.881
				c0.543-0.578,0.82-1.314,0.82-2.186C292.576,75.52,291.767,74.701,290.239,74.701z"/>
			<g>
				<polygon fill="#502E4C" points="294.796,64.107 295.156,71.955 294.758,80.004 299.586,79.104 299.225,71.443 299.624,63.207 
									"/>
				<path fill="#502E4C" d="M297.587,55.887c-0.792,0-1.498,0.31-2.1,0.922c-0.599,0.611-0.902,1.316-0.902,2.096
					c0,0.773,0.226,1.425,0.67,1.939c0.454,0.526,1.083,0.793,1.872,0.793c0.782,0,1.478-0.311,2.07-0.925
					c0.587-0.609,0.885-1.351,0.885-2.203c0-0.852-0.218-1.508-0.649-1.952C299,56.112,298.38,55.887,297.587,55.887z"/>
			</g>
			<path fill="#502E4C" d="M313.933,65.075c-1.138-1.326-2.742-1.999-4.771-1.999c-2.034,0-3.829,0.985-5.334,2.927
				c-1.488,1.92-2.243,4.291-2.243,7.044c0,2.066,0.603,3.807,1.795,5.172c1.199,1.375,2.735,2.072,4.564,2.072
				c2.215,0,4.073-0.969,5.526-2.879c1.435-1.889,2.163-4.285,2.163-7.122C315.632,68.142,315.06,66.387,313.933,65.075z
				 M310.8,75.123c-0.467,0.697-1.139,1.035-2.05,1.035c-0.917,0-1.637-0.379-2.199-1.154c-0.574-0.791-0.864-1.918-0.864-3.352
				c0-2.711,0.977-4.029,2.983-4.029c1.925,0,2.859,1.412,2.859,4.314C311.53,73.332,311.284,74.404,310.8,75.123z"/>
		</g>
	</g>
	<g clip-path="url(#clip-text)">
		<path id="text-wave" fill="url(#shape_wave_gradient)" d="M558.542,60.276c-13.167-2.057-63.958-2.151-92.729-0.451
		c-28.771,1.701-87.229-1.959-87.229-1.959c-14.083-1.8-50.583,0.967-62.417,2.41c-11.833,1.443-27.667,0-27.667,0
		c-13.167-2.057-63.958-2.151-92.729-0.451c-28.771,1.701-87.229-1.959-87.229-1.959v21.56h450V60.276z"/>
	</g>
	<g id="text-bubles" clip-path="url(#clip-text)">
		<g>
			<ellipse fill="url(#buble_grad1)" cx="134.687" cy="81.188" rx="1.247" ry="1.258"/>
			<path fill="url(#buble_grad2)" d="M135.983,81.115c0,0.705-0.58,1.238-1.28,1.238c-0.699,0-1.296-0.438-1.303-1.211
				c-0.008-0.76,0.604-1.342,1.303-1.342C135.402,79.801,135.983,80.41,135.983,81.115z"/>
			<circle fill="url(#buble_grad3)" cx="134.691" cy="81.125" r="1.256"/>
			<path fill="url(#buble_grad4)" d="M135.563,80.445c0.276,0.689-0.269,0.705-0.896,0.705c-0.918,0-0.919-0.541-0.833-0.705
				c0.229-0.432,0.499-0.545,0.856-0.537C135.019,79.916,135.403,80.039,135.563,80.445z"/>
			<path fill="url(#buble_grad5)" d="M135.415,80.24c0.028,0.023,0.021,0.07-0.051,0.047c-0.355-0.127-0.779-0.311-1.291-0.039
				c-0.047,0.025-0.075-0.016-0.049-0.041C134.457,79.801,135.044,79.93,135.415,80.24z"/>
			<path fill="url(#buble_grad6)" d="M133.729,81.822c-0.197-0.223-0.056-0.414,0.128-0.238c0.262,0.252,1.403,0.381,1.728-0.135
					c0.079-0.127,0.291-0.115,0.17,0.16C135.448,82.301,134.385,82.57,133.729,81.822z"/>
			<path fill="url(#buble_grad7)" d="M134.295,82.264c0.341,0.115,0.987-0.018,1.314-0.336
				C135.365,82.357,134.607,82.49,134.295,82.264z"/>
		</g>
		<g>
			<ellipse fill="url(#buble_grad1)" cx="137.556" cy="81.124" rx="1.044" ry="1.052"/>
			<path fill="url(#buble_grad2)" d="M138.641,81.063c0,0.59-0.486,1.037-1.072,1.037c-0.586,0-1.086-0.365-1.091-1.013
				c-0.007-0.636,0.505-1.124,1.091-1.124C138.155,79.962,138.641,80.472,138.641,81.063z"/>
			<circle fill="url(#buble_grad3)" cx="137.559" cy="81.071" r="1.052"/>
			<path fill="url(#buble_grad4)" d="M138.29,80.501c0.23,0.577-0.225,0.591-0.751,0.591c-0.769,0-0.77-0.453-0.697-0.591
				c0.191-0.359,0.417-0.456,0.717-0.45C137.834,80.058,138.155,80.163,138.29,80.501z"/>
			<path fill="url(#buble_grad5)" d="M138.166,80.331c0.024,0.019,0.018,0.059-0.042,0.038c-0.297-0.107-0.652-0.26-1.081-0.033
				c-0.04,0.021-0.063-0.014-0.041-0.035C137.363,79.962,137.855,80.07,138.166,80.331z"/>
			<path fill="url(#buble_grad6)" d="M136.754,81.656c-0.165-0.188-0.046-0.348,0.107-0.2c0.22,0.211,1.175,0.321,1.447-0.114
					c0.066-0.106,0.244-0.096,0.143,0.135C138.194,82.056,137.303,82.281,136.754,81.656z"/>
			<path fill="url(#buble_grad7)" d="M137.227,82.026c0.286,0.095,0.827-0.017,1.101-0.283
				C138.124,82.104,137.489,82.215,137.227,82.026z"/>
		</g>
		<g>
			<ellipse fill="url(#buble_grad1)" cx="128.395" cy="81.15" rx="0.912" ry="0.918"/>
			<path fill="url(#buble_grad2)" d="M129.343,81.098c0,0.516-0.425,0.906-0.936,0.906c-0.512,0-0.949-0.32-0.953-0.887
				c-0.006-0.555,0.441-0.982,0.953-0.982C128.918,80.135,129.343,80.58,129.343,81.098z"/>
			<circle fill="url(#buble_grad3)" cx="128.398" cy="81.105" r="0.919"/>
			<path fill="url(#buble_grad4)" d="M129.036,80.605c0.202,0.505-0.197,0.518-0.656,0.518c-0.671,0-0.672-0.396-0.609-0.518
				c0.167-0.313,0.365-0.397,0.626-0.393C128.637,80.219,128.919,80.311,129.036,80.605z"/>
			<path fill="url(#buble_grad5)" d="M128.928,80.457c0.021,0.017,0.015,0.051-0.037,0.035c-0.26-0.094-0.57-0.229-0.945-0.031
				c-0.035,0.02-0.054-0.011-0.036-0.029C128.227,80.135,128.655,80.229,128.928,80.457z"/>
			<path fill="url(#buble_grad6)" d="M127.694,81.615c-0.144-0.165-0.041-0.305,0.094-0.176c0.191,0.184,1.026,0.28,1.263-0.1
					c0.058-0.092,0.213-0.083,0.125,0.119C128.952,81.964,128.174,82.16,127.694,81.615z"/>
			<path fill="url(#buble_grad7)" d="M128.108,81.938c0.249,0.083,0.722-0.015,0.961-0.248
				C128.892,82.006,128.336,82.104,128.108,81.938z"/>
		</g>
		<g>
			<ellipse fill="url(#buble_grad1)" cx="151.902" cy="81.231" rx="1.114" ry="1.123"/>
			<path fill="url(#buble_grad2)" d="M153.06,81.166c0,0.629-0.519,1.106-1.143,1.106c-0.625,0-1.159-0.391-1.165-1.081
				c-0.007-0.68,0.54-1.199,1.165-1.199C152.541,79.993,153.06,80.536,153.06,81.166z"/>
			<circle fill="url(#buble_grad3)" cx="151.905" cy="81.174" r="1.123"/>
			<path fill="url(#buble_grad4)" d="M152.685,80.567c0.247,0.615-0.24,0.631-0.802,0.631c-0.82,0-0.821-0.482-0.744-0.631
				c0.204-0.383,0.446-0.486,0.765-0.479C152.198,80.093,152.542,80.205,152.685,80.567z"/>
			<path fill="url(#buble_grad5)" d="M152.553,80.385c0.025,0.021,0.018,0.063-0.045,0.041c-0.318-0.115-0.697-0.277-1.154-0.035
				c-0.042,0.022-0.067-0.016-0.044-0.037C151.696,79.993,152.22,80.108,152.553,80.385z"/>
			<path fill="url(#buble_grad6)" d="M151.047,81.799c-0.176-0.201-0.05-0.371,0.114-0.213c0.234,0.224,1.253,0.342,1.543-0.123
					c0.071-0.112,0.261-0.102,0.153,0.145C152.583,82.226,151.632,82.467,151.047,81.799z"/>
			<path fill="url(#buble_grad7)" d="M151.551,82.194c0.304,0.103,0.881-0.017,1.174-0.301
				C152.508,82.277,151.83,82.394,151.551,82.194z"/>
		</g>
		<g>
			<ellipse fill="url(#buble_grad1)" cx="151.837" cy="81.075" rx="0.85" ry="0.858"/>
			<path fill="url(#buble_grad2)" d="M152.72,81.026c0,0.479-0.396,0.844-0.872,0.844c-0.477,0-0.885-0.299-0.889-0.826
				c-0.005-0.518,0.412-0.914,0.889-0.914C152.324,80.13,152.72,80.546,152.72,81.026z"/>
			<circle fill="url(#buble_grad3)" cx="151.839" cy="81.032" r="0.856"/>
			<path fill="url(#buble_grad4)" d="M152.434,80.569c0.188,0.467-0.183,0.48-0.612,0.48c-0.626,0-0.627-0.369-0.568-0.48
				c0.156-0.293,0.34-0.371,0.584-0.367C152.063,80.206,152.324,80.292,152.434,80.569z"/>
			<path fill="url(#buble_grad5)" d="M152.333,80.429c0.02,0.018,0.014,0.049-0.035,0.031c-0.243-0.086-0.531-0.209-0.881-0.027
				c-0.032,0.018-0.051-0.01-0.034-0.027C151.679,80.13,152.079,80.218,152.333,80.429z"/>
			<path fill="url(#buble_grad6)" d="M151.184,81.507c-0.135-0.152-0.038-0.281,0.087-0.162c0.179,0.172,0.956,0.262,1.177-0.092
					c0.054-0.086,0.199-0.078,0.117,0.109C152.356,81.835,151.631,82.017,151.184,81.507z"/>
			<path fill="url(#buble_grad7)" d="M151.569,81.81c0.232,0.078,0.673-0.014,0.896-0.23C152.299,81.872,151.781,81.962,151.569,81.81
				z"/>
		</g>
		<g>
			<ellipse fill="url(#buble_grad1)" cx="163.692" cy="81.155" rx="1.492" ry="1.504"/>
			<path fill="url(#buble_grad2)" d="M165.243,81.067c0,0.844-0.695,1.482-1.53,1.482c-0.837,0-1.552-0.523-1.56-1.449
				c-0.009-0.908,0.722-1.605,1.56-1.605C164.548,79.495,165.243,80.224,165.243,81.067z"/>
			<circle fill="url(#buble_grad3)" cx="163.697" cy="81.079" r="1.503"/>
			<path fill="url(#buble_grad4)" d="M164.742,80.265c0.33,0.824-0.322,0.845-1.074,0.845c-1.097,0-1.1-0.646-0.997-0.845
				c0.274-0.512,0.597-0.651,1.025-0.642C164.09,79.631,164.549,79.781,164.742,80.265z"/>
			<path fill="url(#buble_grad5)" d="M164.564,80.022c0.034,0.027,0.024,0.084-0.061,0.054c-0.426-0.153-0.933-0.37-1.546-0.048
				c-0.056,0.031-0.088-0.02-0.058-0.05C163.417,79.495,164.119,79.649,164.564,80.022z"/>
			<path fill="url(#buble_grad6)" d="M162.547,81.913c-0.236-0.268-0.066-0.495,0.153-0.285c0.313,0.301,1.678,0.459,2.066-0.162
					c0.095-0.151,0.349-0.137,0.205,0.193C164.604,82.487,163.332,82.809,162.547,81.913z"/>
			<path fill="url(#buble_grad7)" d="M163.223,82.443c0.408,0.138,1.18-0.021,1.572-0.403
				C164.504,82.556,163.596,82.713,163.223,82.443z"/>
		</g>
		<g>
			<path fill="url(#buble_grad1)" d="M165.777,80.977c0,0.537-0.432,0.971-0.964,0.971c-0.533,0-0.964-0.434-0.964-0.971
				c0-0.539,0.431-0.973,0.964-0.973C165.345,80.004,165.777,80.438,165.777,80.977z"/>
			<path fill="url(#buble_grad2)" d="M165.815,80.92c0,0.545-0.449,0.957-0.988,0.957c-0.541,0-1.003-0.338-1.008-0.934
				c-0.006-0.588,0.466-1.039,1.008-1.039C165.366,79.905,165.815,80.376,165.815,80.92z"/>
			<circle fill="url(#buble_grad3)" cx="164.817" cy="80.928" r="0.971"/>
			<path fill="url(#buble_grad4)" d="M165.492,80.403c0.213,0.531-0.208,0.543-0.694,0.543c-0.708,0-0.71-0.416-0.644-0.543
				c0.177-0.332,0.386-0.422,0.662-0.416C165.07,79.993,165.367,80.09,165.492,80.403z"/>
			<path fill="url(#buble_grad5)" d="M165.377,80.245c0.022,0.017,0.016,0.055-0.039,0.035c-0.275-0.1-0.603-0.238-0.999-0.031
				c-0.037,0.02-0.058-0.012-0.038-0.033C164.635,79.905,165.09,80.004,165.377,80.245z"/>
			<path fill="url(#buble_grad6)" d="M164.074,81.467c-0.153-0.174-0.043-0.32,0.099-0.184c0.203,0.193,1.084,0.295,1.335-0.105
					c0.062-0.098,0.226-0.088,0.132,0.125C165.403,81.837,164.581,82.044,164.074,81.467z"/>
			<path fill="url(#buble_grad7)" d="M164.51,81.809c0.263,0.088,0.763-0.014,1.016-0.26C165.339,81.881,164.752,81.983,164.51,81.809
				z"/>
		</g>
		<g>
			<ellipse fill="url(#buble_grad1)" cx="177.366" cy="81.345" rx="1.294" ry="1.303"/>
			<path fill="url(#buble_grad2)" d="M178.712,81.27c0,0.731-0.603,1.285-1.327,1.285c-0.728,0-1.346-0.453-1.354-1.255
				c-0.007-0.789,0.626-1.394,1.354-1.394C178.109,79.906,178.712,80.538,178.712,81.27z"/>
			<circle fill="url(#buble_grad3)" cx="177.371" cy="81.28" r="1.304"/>
			<path fill="url(#buble_grad4)" d="M178.276,80.574c0.287,0.714-0.277,0.732-0.93,0.732c-0.952,0-0.953-0.561-0.865-0.732
				c0.238-0.444,0.519-0.565,0.89-0.557C177.712,80.023,178.11,80.154,178.276,80.574z"/>
			<path fill="url(#buble_grad5)" d="M178.124,80.363c0.028,0.024,0.02,0.072-0.054,0.047c-0.369-0.134-0.809-0.322-1.34-0.042
				c-0.049,0.027-0.078-0.017-0.051-0.043C177.128,79.906,177.737,80.04,178.124,80.363z"/>
			<path fill="url(#buble_grad6)" d="M176.373,82.004c-0.203-0.232-0.057-0.43,0.134-0.248c0.273,0.262,1.454,0.398,1.792-0.141
					c0.083-0.131,0.304-0.119,0.178,0.168C178.158,82.5,177.054,82.779,176.373,82.004z"/>
			<path fill="url(#buble_grad7)" d="M176.961,82.463c0.352,0.119,1.023-0.019,1.363-0.35
				C178.071,82.561,177.284,82.697,176.961,82.463z"/>
		</g>
		<g>
			<path fill="url(#buble_grad1)" d="M190.743,81.342c0,0.619-0.499,1.123-1.116,1.123c-0.615,0-1.115-0.504-1.115-1.123
				c0-0.623,0.5-1.125,1.115-1.125C190.244,80.217,190.743,80.719,190.743,81.342z"/>
			<path fill="url(#buble_grad2)" d="M190.786,81.276c0,0.63-0.518,1.106-1.143,1.106c-0.628,0-1.161-0.391-1.166-1.081
				c-0.007-0.681,0.538-1.2,1.166-1.2C190.268,80.101,190.786,80.644,190.786,81.276z"/>
			<circle fill="url(#buble_grad3)" cx="189.632" cy="81.285" r="1.123"/>
			<path fill="url(#buble_grad4)" d="M190.412,80.676c0.247,0.615-0.238,0.631-0.802,0.631c-0.821,0-0.822-0.482-0.746-0.631
				c0.206-0.383,0.447-0.486,0.767-0.479C189.923,80.202,190.268,80.314,190.412,80.676z"/>
			<path fill="url(#buble_grad5)" d="M190.28,80.495c0.025,0.02,0.018,0.061-0.046,0.04c-0.317-0.116-0.696-0.277-1.156-0.037
				c-0.041,0.023-0.065-0.014-0.042-0.037C189.421,80.101,189.947,80.217,190.28,80.495z"/>
			<path fill="url(#buble_grad6)" d="M188.772,81.909c-0.176-0.202-0.05-0.372,0.115-0.214c0.233,0.225,1.252,0.342,1.543-0.123
					c0.073-0.111,0.263-0.101,0.153,0.145C190.309,82.336,189.357,82.576,188.772,81.909z"/>
			<path fill="url(#buble_grad7)" d="M189.277,82.305c0.304,0.102,0.883-0.017,1.176-0.301
				C190.235,82.389,189.555,82.506,189.277,82.305z"/>
		</g>
		<g>
			<ellipse fill="url(#buble_grad1)" cx="185.92" cy="81.328" rx="0.917" ry="0.924"/>
			<path fill="url(#buble_grad2)" d="M186.873,81.275c0,0.518-0.426,0.91-0.939,0.91c-0.517,0-0.954-0.32-0.959-0.891
				c-0.006-0.559,0.442-0.986,0.959-0.986C186.447,80.309,186.873,80.756,186.873,81.275z"/>
			<circle fill="url(#buble_grad3)" cx="185.924" cy="81.283" r="0.923"/>
			<path fill="url(#buble_grad4)" d="M186.565,80.781c0.203,0.508-0.196,0.52-0.659,0.52c-0.675,0-0.676-0.398-0.613-0.52
				c0.169-0.316,0.368-0.4,0.631-0.395C186.164,80.391,186.447,80.484,186.565,80.781z"/>
			<path fill="url(#buble_grad5)" d="M186.456,80.633c0.022,0.018,0.016,0.051-0.037,0.033c-0.261-0.096-0.573-0.229-0.95-0.031
				c-0.034,0.021-0.054-0.01-0.035-0.029C185.75,80.309,186.183,80.404,186.456,80.633z"/>
			<path fill="url(#buble_grad6)" d="M185.216,81.797c-0.143-0.166-0.041-0.307,0.095-0.178c0.192,0.184,1.03,0.281,1.27-0.1
					c0.059-0.094,0.216-0.084,0.126,0.119C186.481,82.146,185.699,82.344,185.216,81.797z"/>
			<path fill="url(#buble_grad7)" d="M185.632,82.119c0.25,0.086,0.726-0.012,0.967-0.246
				C186.419,82.189,185.861,82.287,185.632,82.119z"/>
		</g>
		<g>
			<ellipse fill="url(#buble_grad1)" cx="202.106" cy="81.494" rx="1.643" ry="1.656"/>
			<path fill="url(#buble_grad2)" d="M203.814,81.4c0,0.927-0.764,1.631-1.684,1.631c-0.927,0-1.711-0.575-1.719-1.596
				c-0.01-1.001,0.792-1.769,1.719-1.769C203.05,79.667,203.814,80.471,203.814,81.4z"/>
			<circle fill="url(#buble_grad3)" cx="202.113" cy="81.412" r="1.654"/>
			<path fill="url(#buble_grad4)" d="M203.263,80.514c0.362,0.908-0.354,0.93-1.183,0.93c-1.209,0-1.211-0.711-1.099-0.93
				c0.303-0.564,0.659-0.716,1.13-0.706C202.544,79.817,203.05,79.982,203.263,80.514z"/>
			<path fill="url(#buble_grad5)" d="M203.067,80.249c0.039,0.029,0.027,0.09-0.066,0.059c-0.468-0.17-1.027-0.408-1.703-0.053
				c-0.062,0.034-0.097-0.021-0.064-0.055C201.801,79.667,202.578,79.837,203.067,80.249z"/>
			<path fill="url(#buble_grad6)" d="M200.845,82.332c-0.258-0.297-0.072-0.547,0.17-0.314c0.344,0.329,1.846,0.504,2.275-0.18
					c0.106-0.168,0.386-0.151,0.225,0.213C203.112,82.961,201.71,83.315,200.845,82.332z"/>
			<path fill="url(#buble_grad7)" d="M201.591,82.916c0.447,0.148,1.3-0.025,1.732-0.445
				C203.001,83.037,202.002,83.211,201.591,82.916z"/>
		</g>
		<g>
			<ellipse fill="url(#buble_grad1)" cx="200.849" cy="81.408" rx="1.181" ry="1.191"/>
			<path fill="url(#buble_grad2)" d="M202.077,81.342c0,0.666-0.549,1.172-1.209,1.172c-0.667,0-1.231-0.414-1.236-1.146
				c-0.008-0.72,0.569-1.271,1.236-1.271C201.528,80.096,202.077,80.673,202.077,81.342z"/>
			<circle fill="url(#buble_grad3)" cx="200.854" cy="81.352" r="1.189"/>
			<path fill="url(#buble_grad4)" d="M201.681,80.705c0.261,0.65-0.254,0.668-0.85,0.668c-0.869,0-0.871-0.51-0.79-0.668
				c0.217-0.406,0.474-0.516,0.812-0.508C201.164,80.203,201.528,80.322,201.681,80.705z"/>
			<path fill="url(#buble_grad5)" d="M201.54,80.514c0.028,0.021,0.021,0.064-0.048,0.043c-0.336-0.123-0.738-0.295-1.224-0.039
				c-0.044,0.025-0.07-0.016-0.046-0.04C200.631,80.096,201.188,80.217,201.54,80.514z"/>
			<path fill="url(#buble_grad6)" d="M199.943,82.012c-0.185-0.215-0.052-0.393,0.122-0.227c0.247,0.236,1.327,0.363,1.636-0.129
					c0.077-0.121,0.277-0.107,0.162,0.154C201.573,82.465,200.563,82.719,199.943,82.012z"/>
			<path fill="url(#buble_grad7)" d="M200.479,82.43c0.321,0.107,0.935-0.018,1.245-0.318C201.492,82.52,200.774,82.645,200.479,82.43
				z"/>
		</g>
		<g>
			<ellipse fill="url(#buble_grad1)" cx="197.771" cy="81.391" rx="0.917" ry="0.926"/>
			<path fill="url(#buble_grad2)" d="M198.725,81.338c0,0.52-0.427,0.912-0.939,0.912c-0.518,0-0.955-0.322-0.96-0.893
				c-0.006-0.559,0.442-0.986,0.96-0.986C198.298,80.371,198.725,80.819,198.725,81.338z"/>
			<circle fill="url(#buble_grad3)" cx="197.776" cy="81.346" r="0.923"/>
			<path fill="url(#buble_grad4)" d="M198.418,80.844c0.203,0.508-0.197,0.52-0.659,0.52c-0.676,0-0.677-0.398-0.613-0.52
				c0.168-0.314,0.368-0.398,0.63-0.393C198.015,80.455,198.298,80.549,198.418,80.844z"/>
			<path fill="url(#buble_grad5)" d="M198.307,80.698c0.023,0.016,0.017,0.049-0.036,0.031c-0.262-0.094-0.573-0.227-0.951-0.029
				c-0.033,0.02-0.054-0.012-0.035-0.029C197.601,80.371,198.035,80.467,198.307,80.698z"/>
			<path fill="url(#buble_grad6)" d="M197.068,81.86c-0.144-0.166-0.041-0.307,0.095-0.176c0.192,0.184,1.03,0.281,1.27-0.101
					c0.06-0.092,0.216-0.082,0.126,0.119C198.333,82.209,197.55,82.409,197.068,81.86z"/>
			<path fill="url(#buble_grad7)" d="M197.485,82.184c0.249,0.084,0.725-0.014,0.967-0.246
				C198.271,82.254,197.714,82.35,197.485,82.184z"/>
		</g>
		<g>
			<ellipse fill="url(#buble_grad1)" cx="198.031" cy="81.398" rx="0.983" ry="0.991"/>
			<path fill="url(#buble_grad2)" d="M199.053,81.34c0,0.556-0.457,0.976-1.007,0.976c-0.556,0-1.024-0.344-1.03-0.954
				c-0.005-0.599,0.475-1.059,1.03-1.059C198.596,80.304,199.053,80.785,199.053,81.34z"/>
			<circle fill="url(#buble_grad3)" cx="198.035" cy="81.348" r="0.991"/>
			<path fill="url(#buble_grad4)" d="M198.723,80.811c0.218,0.543-0.212,0.557-0.707,0.557c-0.724,0-0.725-0.425-0.657-0.557
				c0.181-0.338,0.395-0.428,0.676-0.422C198.293,80.394,198.596,80.492,198.723,80.811z"/>
			<path fill="url(#buble_grad5)" d="M198.605,80.652c0.024,0.017,0.019,0.054-0.04,0.035c-0.279-0.102-0.613-0.244-1.018-0.032
				c-0.036,0.02-0.059-0.012-0.038-0.033C197.848,80.304,198.313,80.405,198.605,80.652z"/>
			<path fill="url(#buble_grad6)" d="M197.277,81.899c-0.154-0.178-0.044-0.329,0.101-0.189c0.205,0.198,1.104,0.302,1.361-0.107
					c0.064-0.1,0.231-0.09,0.135,0.128C198.632,82.275,197.794,82.487,197.277,81.899z"/>
			<path fill="url(#buble_grad7)" d="M197.723,82.247c0.268,0.09,0.778-0.015,1.036-0.265
				C198.565,82.32,197.968,82.424,197.723,82.247z"/>
		</g>
		<g>
			<ellipse fill="url(#buble_grad1)" cx="208.123" cy="81.455" rx="1.206" ry="1.215"/>
			<path fill="url(#buble_grad2)" d="M209.378,81.385c0,0.681-0.562,1.197-1.235,1.197c-0.681,0-1.257-0.422-1.263-1.17
				c-0.007-0.735,0.582-1.298,1.263-1.298C208.816,80.114,209.378,80.704,209.378,81.385z"/>
			<circle fill="url(#buble_grad3)" cx="208.128" cy="81.394" r="1.214"/>
			<path fill="url(#buble_grad4)" d="M208.972,80.736c0.267,0.665-0.261,0.682-0.867,0.682c-0.888,0-0.889-0.522-0.806-0.682
				c0.221-0.415,0.482-0.525,0.828-0.518C208.443,80.223,208.816,80.345,208.972,80.736z"/>
			<path fill="url(#buble_grad5)" d="M208.828,80.541c0.029,0.021,0.021,0.066-0.049,0.043c-0.343-0.124-0.753-0.299-1.249-0.039
				c-0.044,0.025-0.072-0.015-0.047-0.041C207.899,80.114,208.469,80.238,208.828,80.541z"/>
			<path fill="url(#buble_grad6)" d="M207.198,82.07c-0.189-0.218-0.054-0.403,0.125-0.231c0.252,0.242,1.354,0.37,1.669-0.132
					c0.08-0.123,0.284-0.111,0.166,0.157C208.861,82.531,207.831,82.791,207.198,82.07z"/>
			<path fill="url(#buble_grad7)" d="M207.746,82.497c0.328,0.11,0.954-0.018,1.271-0.326
				C208.779,82.587,208.047,82.715,207.746,82.497z"/>
		</g>
		<g>
			<ellipse fill="url(#buble_grad1)" cx="214.632" cy="81.581" rx="0.744" ry="0.749"/>
			<path fill="url(#buble_grad2)" d="M215.405,81.537c0,0.42-0.346,0.739-0.762,0.739c-0.421,0-0.776-0.26-0.779-0.722
				c-0.004-0.453,0.358-0.801,0.779-0.801C215.059,80.753,215.405,81.117,215.405,81.537z"/>
			<circle fill="url(#buble_grad3)" cx="214.634" cy="81.543" r="0.749"/>
			<path fill="url(#buble_grad4)" d="M215.155,81.136c0.164,0.411-0.16,0.421-0.534,0.421c-0.548,0-0.549-0.322-0.498-0.421
				c0.137-0.255,0.298-0.324,0.512-0.32C214.83,80.821,215.059,80.896,215.155,81.136z"/>
			<path fill="url(#buble_grad5)" d="M215.066,81.016c0.019,0.013,0.014,0.041-0.03,0.027c-0.211-0.077-0.465-0.185-0.771-0.024
				c-0.027,0.016-0.045-0.009-0.029-0.025C214.493,80.753,214.844,80.83,215.066,81.016z"/>
			<path fill="url(#buble_grad6)" d="M214.061,81.96c-0.118-0.135-0.034-0.249,0.076-0.143c0.156,0.149,0.836,0.229,1.03-0.081
					c0.049-0.076,0.175-0.069,0.102,0.097C215.087,82.245,214.452,82.404,214.061,81.96z"/>
			<path fill="url(#buble_grad7)" d="M214.399,82.224c0.201,0.068,0.589-0.011,0.784-0.201
				C215.036,82.279,214.585,82.357,214.399,82.224z"/>
		</g>
		<g>
			<ellipse fill="url(#buble_grad1)" cx="226.753" cy="81.586" rx="1.116" ry="1.123"/>
			<path fill="url(#buble_grad2)" d="M227.913,81.52c0,0.63-0.519,1.108-1.143,1.108c-0.63,0-1.162-0.391-1.168-1.084
				c-0.006-0.679,0.538-1.2,1.168-1.2C227.394,80.345,227.913,80.891,227.913,81.52z"/>
			<circle fill="url(#buble_grad3)" cx="226.758" cy="81.529" r="1.123"/>
			<path fill="url(#buble_grad4)" d="M227.538,80.919c0.247,0.616-0.24,0.631-0.801,0.631c-0.822,0-0.823-0.482-0.746-0.631
				c0.205-0.383,0.446-0.486,0.766-0.479C227.049,80.447,227.394,80.558,227.538,80.919z"/>
			<path fill="url(#buble_grad5)" d="M227.405,80.739c0.027,0.019,0.02,0.062-0.046,0.04c-0.315-0.116-0.697-0.277-1.154-0.037
				c-0.041,0.023-0.067-0.014-0.044-0.038C226.546,80.345,227.073,80.46,227.405,80.739z"/>
			<path fill="url(#buble_grad6)" d="M225.898,82.154c-0.177-0.202-0.051-0.372,0.114-0.214c0.233,0.224,1.253,0.342,1.545-0.122
					c0.073-0.114,0.263-0.103,0.152,0.145C227.436,82.581,226.483,82.821,225.898,82.154z"/>
			<path fill="url(#buble_grad7)" d="M226.404,82.55c0.303,0.101,0.883-0.018,1.176-0.302
				C227.359,82.632,226.682,82.75,226.404,82.55z"/>
		</g>
		<g>
			<ellipse fill="url(#buble_grad1)" cx="222.907" cy="81.487" rx="0.852" ry="0.859"/>
			<path fill="url(#buble_grad2)" d="M223.792,81.438c0,0.482-0.396,0.846-0.871,0.846c-0.481,0-0.888-0.297-0.893-0.826
				c-0.004-0.518,0.411-0.916,0.893-0.916C223.396,80.542,223.792,80.958,223.792,81.438z"/>
			<circle fill="url(#buble_grad3)" cx="222.91" cy="81.446" r="0.857"/>
			<path fill="url(#buble_grad4)" d="M223.506,80.979c0.188,0.471-0.183,0.483-0.612,0.483c-0.627,0-0.627-0.369-0.568-0.483
				c0.156-0.291,0.34-0.371,0.584-0.365C223.133,80.62,223.396,80.704,223.506,80.979z"/>
			<path fill="url(#buble_grad5)" d="M223.404,80.842c0.021,0.014,0.016,0.047-0.034,0.029c-0.241-0.088-0.532-0.211-0.882-0.025
				c-0.03,0.016-0.051-0.012-0.033-0.029C222.749,80.542,223.151,80.628,223.404,80.842z"/>
			<path fill="url(#buble_grad6)" d="M222.255,81.921c-0.135-0.152-0.039-0.283,0.087-0.162c0.179,0.17,0.956,0.26,1.18-0.092
					c0.056-0.088,0.2-0.08,0.116,0.109C223.427,82.249,222.701,82.432,222.255,81.921z"/>
			<path fill="url(#buble_grad7)" d="M222.641,82.223c0.23,0.078,0.674-0.012,0.896-0.229
				C223.37,82.288,222.853,82.378,222.641,82.223z"/>
		</g>
		<g>
			<ellipse fill="url(#buble_grad1)" cx="238.286" cy="81.47" rx="1.182" ry="1.191"/>
			<path fill="url(#buble_grad2)" d="M239.514,81.4c0,0.668-0.55,1.172-1.21,1.172c-0.668,0-1.232-0.412-1.238-1.146
				c-0.006-0.719,0.57-1.271,1.238-1.271C238.965,80.155,239.514,80.732,239.514,81.4z"/>
			<circle fill="url(#buble_grad3)" cx="238.291" cy="81.41" r="1.189"/>
			<path fill="url(#buble_grad4)" d="M239.118,80.763c0.261,0.655-0.255,0.669-0.85,0.669c-0.869,0-0.871-0.512-0.789-0.669
				c0.217-0.405,0.471-0.514,0.811-0.507C238.6,80.264,238.965,80.381,239.118,80.763z"/>
			<path fill="url(#buble_grad5)" d="M238.975,80.572c0.029,0.021,0.021,0.065-0.047,0.044c-0.335-0.123-0.739-0.295-1.224-0.04
				c-0.043,0.025-0.072-0.014-0.047-0.039C238.066,80.155,238.625,80.277,238.975,80.572z"/>
			<path fill="url(#buble_grad6)" d="M237.38,82.072c-0.188-0.215-0.054-0.395,0.122-0.227c0.247,0.234,1.325,0.361,1.636-0.13
					c0.078-0.122,0.278-0.108,0.162,0.153C239.008,82.523,238,82.777,237.38,82.072z"/>
			<path fill="url(#buble_grad7)" d="M237.917,82.492c0.32,0.105,0.935-0.021,1.245-0.32
				C238.928,82.576,238.212,82.703,237.917,82.492z"/>
		</g>
		<g>
			<ellipse fill="url(#buble_grad1)" cx="237.391" cy="81.453" rx="0.851" ry="0.857"/>
			<path fill="url(#buble_grad2)" d="M238.277,81.403c0,0.481-0.396,0.845-0.872,0.845c-0.481,0-0.889-0.298-0.894-0.826
				c-0.003-0.518,0.412-0.916,0.894-0.916C237.881,80.505,238.277,80.922,238.277,81.403z"/>
			<circle fill="url(#buble_grad3)" cx="237.394" cy="81.41" r="0.857"/>
			<path fill="url(#buble_grad4)" d="M237.99,80.944c0.19,0.471-0.184,0.482-0.611,0.482c-0.627,0-0.628-0.368-0.568-0.482
				c0.156-0.292,0.339-0.371,0.583-0.366C237.618,80.583,237.881,80.668,237.99,80.944z"/>
			<path fill="url(#buble_grad5)" d="M237.887,80.807c0.021,0.015,0.016,0.047-0.033,0.031c-0.242-0.088-0.533-0.212-0.882-0.028
				c-0.031,0.018-0.052-0.01-0.034-0.028C237.232,80.505,237.635,80.594,237.887,80.807z"/>
			<path fill="url(#buble_grad6)" d="M236.738,81.887c-0.135-0.154-0.039-0.285,0.089-0.163c0.177,0.17,0.954,0.261,1.178-0.093
					c0.056-0.087,0.2-0.079,0.116,0.111C237.912,82.212,237.185,82.395,236.738,81.887z"/>
			<path fill="url(#buble_grad7)" d="M237.125,82.188c0.23,0.078,0.674-0.013,0.897-0.23
				C237.854,82.251,237.338,82.341,237.125,82.188z"/>
		</g>
		<g>
			<ellipse fill="url(#buble_grad1)" cx="235.165" cy="81.407" rx="0.851" ry="0.859"/>
			<path fill="url(#buble_grad2)" d="M236.05,81.358c0,0.482-0.396,0.846-0.871,0.846c-0.482,0-0.889-0.297-0.894-0.826
				c-0.004-0.518,0.411-0.916,0.894-0.916C235.655,80.461,236.05,80.877,236.05,81.358z"/>
			<circle fill="url(#buble_grad3)" cx="235.168" cy="81.366" r="0.857"/>
			<path fill="url(#buble_grad4)" d="M235.764,80.899c0.188,0.471-0.184,0.482-0.611,0.482c-0.628,0-0.629-0.369-0.569-0.482
				c0.157-0.291,0.34-0.371,0.584-0.365C235.391,80.539,235.655,80.623,235.764,80.899z"/>
			<path fill="url(#buble_grad5)" d="M235.662,80.762c0.021,0.014,0.016,0.047-0.033,0.031c-0.242-0.09-0.533-0.213-0.883-0.027
				c-0.03,0.016-0.052-0.012-0.033-0.029C235.006,80.461,235.41,80.549,235.662,80.762z"/>
			<path fill="url(#buble_grad6)" d="M234.511,81.842c-0.135-0.154-0.038-0.285,0.089-0.164c0.178,0.17,0.955,0.262,1.178-0.092
					c0.057-0.088,0.201-0.08,0.117,0.109C235.685,82.168,234.96,82.352,234.511,81.842z"/>
			<path fill="url(#buble_grad7)" d="M234.899,82.143c0.23,0.078,0.673-0.012,0.897-0.229
				C235.629,82.207,235.111,82.297,234.899,82.143z"/>
		</g>
		<g>
			<ellipse fill="url(#buble_grad1)" cx="262.849" cy="81.641" rx="1.313" ry="1.323"/>
			<path fill="url(#buble_grad2)" d="M264.215,81.565c0,0.741-0.611,1.304-1.344,1.304c-0.744,0-1.372-0.46-1.379-1.274
				c-0.006-0.802,0.635-1.415,1.379-1.415C263.604,80.179,264.215,80.821,264.215,81.565z"/>
			<path fill="url(#buble_grad3)" d="M264.176,81.574c0,0.732-0.59,1.323-1.324,1.323c-0.729,0-1.321-0.591-1.321-1.323
				c0-0.73,0.592-1.324,1.321-1.324C263.587,80.25,264.176,80.843,264.176,81.574z"/>
			<path fill="url(#buble_grad4)" d="M263.774,80.856c0.291,0.727-0.283,0.743-0.943,0.743c-0.969,0-0.971-0.567-0.878-0.743
				c0.241-0.451,0.523-0.572,0.899-0.564C263.199,80.299,263.604,80.43,263.774,80.856z"/>
			<path fill="url(#buble_grad5)" d="M263.616,80.645c0.032,0.023,0.024,0.072-0.052,0.047c-0.374-0.137-0.823-0.328-1.362-0.044
				c-0.047,0.026-0.079-0.015-0.051-0.044C262.604,80.179,263.226,80.315,263.616,80.645z"/>
			<path fill="url(#buble_grad6)" d="M261.841,82.309c-0.208-0.236-0.061-0.438,0.137-0.25c0.273,0.264,1.473,0.402,1.818-0.144
					c0.086-0.136,0.309-0.121,0.18,0.17C263.653,82.815,262.532,83.096,261.841,82.309z"/>
			<path fill="url(#buble_grad7)" d="M262.438,82.776c0.356,0.119,1.04-0.02,1.385-0.356
				C263.564,82.872,262.766,83.011,262.438,82.776z"/>
		</g>
		<g>
			<ellipse fill="url(#buble_grad1)" cx="264.39" cy="81.504" rx="0.983" ry="0.991"/>
			<path fill="url(#buble_grad2)" d="M265.414,81.446c0,0.556-0.457,0.978-1.007,0.978c-0.558,0-1.027-0.345-1.033-0.956
				c-0.004-0.599,0.476-1.059,1.033-1.059C264.957,80.409,265.414,80.89,265.414,81.446z"/>
			<circle fill="url(#buble_grad3)" cx="264.394" cy="81.454" r="0.991"/>
			<path fill="url(#buble_grad4)" d="M265.083,80.916c0.218,0.544-0.212,0.557-0.706,0.557c-0.726,0-0.727-0.426-0.658-0.557
				c0.181-0.337,0.393-0.429,0.675-0.423C264.652,80.499,264.957,80.597,265.083,80.916z"/>
			<path fill="url(#buble_grad5)" d="M264.965,80.757c0.024,0.017,0.017,0.054-0.039,0.036c-0.279-0.102-0.616-0.245-1.02-0.032
				c-0.035,0.02-0.06-0.012-0.039-0.033C264.207,80.409,264.673,80.511,264.965,80.757z"/>
			<path fill="url(#buble_grad6)" d="M263.635,82.005c-0.155-0.178-0.045-0.329,0.102-0.188c0.205,0.197,1.103,0.301,1.363-0.108
					c0.064-0.101,0.231-0.09,0.135,0.128C264.992,82.382,264.153,82.594,263.635,82.005z"/>
			<path fill="url(#buble_grad7)" d="M264.082,82.354c0.268,0.089,0.779-0.015,1.038-0.266
				C264.925,82.426,264.328,82.53,264.082,82.354z"/>
		</g>
		<g>
			<ellipse fill="url(#buble_grad1)" cx="263.353" cy="81.38" rx="0.918" ry="0.926"/>
			<path fill="url(#buble_grad2)" d="M264.308,81.327c0,0.518-0.427,0.912-0.939,0.912c-0.521,0-0.959-0.322-0.963-0.891
				c-0.005-0.559,0.442-0.99,0.963-0.99C263.881,80.359,264.308,80.81,264.308,81.327z"/>
			<circle fill="url(#buble_grad3)" cx="263.357" cy="81.333" r="0.924"/>
			<path fill="url(#buble_grad4)" d="M264,80.833c0.203,0.506-0.198,0.52-0.659,0.52c-0.677,0-0.678-0.398-0.614-0.52
				c0.17-0.314,0.366-0.4,0.63-0.395C263.597,80.445,263.881,80.535,264,80.833z"/>
			<path fill="url(#buble_grad5)" d="M263.889,80.685c0.022,0.016,0.017,0.051-0.037,0.033c-0.261-0.094-0.575-0.229-0.951-0.029
				c-0.032,0.018-0.055-0.012-0.036-0.031C263.182,80.359,263.617,80.454,263.889,80.685z"/>
			<path fill="url(#buble_grad6)" d="M262.649,81.849c-0.145-0.166-0.042-0.307,0.096-0.176c0.191,0.184,1.029,0.281,1.272-0.1
					c0.06-0.096,0.215-0.086,0.125,0.119C263.915,82.201,263.131,82.398,262.649,81.849z"/>
			<path fill="url(#buble_grad7)" d="M263.066,82.175c0.249,0.084,0.727-0.014,0.968-0.25
				C263.852,82.242,263.296,82.339,263.066,82.175z"/>
		</g>
		<g>
			<path fill="url(#buble_grad1)" d="M280.07,81.456c0,0.51-0.409,0.924-0.919,0.924c-0.506,0-0.916-0.414-0.916-0.924
				c0-0.512,0.41-0.928,0.916-0.928C279.661,80.529,280.07,80.945,280.07,81.456z"/>
			<path fill="url(#buble_grad2)" d="M280.107,81.402c0,0.52-0.427,0.911-0.939,0.911c-0.52,0-0.958-0.321-0.963-0.892
				c-0.005-0.559,0.443-0.986,0.963-0.986C279.68,80.435,280.107,80.882,280.107,81.402z"/>
			<circle fill="url(#buble_grad3)" cx="279.156" cy="81.41" r="0.924"/>
			<path fill="url(#buble_grad4)" d="M279.798,80.906c0.204,0.509-0.197,0.521-0.659,0.521c-0.677,0-0.678-0.398-0.613-0.521
				c0.169-0.314,0.366-0.398,0.629-0.394C279.396,80.517,279.68,80.61,279.798,80.906z"/>
			<path fill="url(#buble_grad5)" d="M279.688,80.758c0.023,0.017,0.017,0.05-0.037,0.034c-0.26-0.096-0.574-0.229-0.951-0.031
				c-0.032,0.021-0.055-0.01-0.036-0.03C278.981,80.435,279.417,80.529,279.688,80.758z"/>
			<path fill="url(#buble_grad6)" d="M278.448,81.923c-0.145-0.167-0.041-0.307,0.096-0.176c0.191,0.184,1.029,0.279,1.271-0.102
					c0.06-0.094,0.215-0.083,0.126,0.121C279.714,82.275,278.93,82.472,278.448,81.923z"/>
			<path fill="url(#buble_grad7)" d="M278.865,82.247c0.249,0.086,0.727-0.014,0.968-0.247
				C279.651,82.317,279.094,82.413,278.865,82.247z"/>
		</g>
		<g>
			<path fill="url(#buble_grad1)" d="M278.181,81.454c0,0.512-0.409,0.926-0.919,0.926c-0.506,0-0.916-0.414-0.916-0.926
				c0-0.512,0.41-0.926,0.916-0.926C277.772,80.529,278.181,80.943,278.181,81.454z"/>
			<path fill="url(#buble_grad2)" d="M278.218,81.402c0,0.518-0.427,0.912-0.939,0.912c-0.52,0-0.958-0.322-0.963-0.893
				c-0.005-0.559,0.443-0.986,0.963-0.986C277.792,80.435,278.218,80.884,278.218,81.402z"/>
			<circle fill="url(#buble_grad3)" cx="277.267" cy="81.41" r="0.924"/>
			<path fill="url(#buble_grad4)" d="M277.91,80.908c0.204,0.508-0.198,0.518-0.659,0.518c-0.677,0-0.678-0.395-0.613-0.518
				c0.169-0.314,0.366-0.4,0.629-0.395C277.507,80.519,277.792,80.611,277.91,80.908z"/>
			<path fill="url(#buble_grad5)" d="M277.799,80.759c0.022,0.016,0.017,0.051-0.037,0.033c-0.26-0.096-0.575-0.229-0.951-0.029
				c-0.032,0.018-0.055-0.012-0.036-0.031C277.092,80.435,277.528,80.529,277.799,80.759z"/>
			<path fill="url(#buble_grad6)" d="M276.559,81.923c-0.145-0.166-0.042-0.307,0.096-0.176c0.191,0.184,1.029,0.281,1.271-0.102
					c0.06-0.094,0.215-0.084,0.126,0.119C277.825,82.275,277.042,82.472,276.559,81.923z"/>
			<path fill="url(#buble_grad7)" d="M276.976,82.249c0.249,0.082,0.727-0.016,0.968-0.248
				C277.762,82.316,277.206,82.413,276.976,82.249z"/>
		</g>
	</g>
</g>
<g id="shape">
	<path id="circle-shape" filter="url(#sofGlow)" fill="#4E304A" d="M100.756,52.046C98.918,31.66,81.794,15.684,60.929,15.684
		c-21.317,0-38.734,16.678-39.929,37.696c-0.044,0.763-0.07,1.53-0.07,2.304c0,22.09,17.908,39.998,40,39.998
		c22.091,0,40-17.908,40-39.998C100.929,54.456,100.866,53.245,100.756,52.046z"/>
	<g clip-path="url(#clip-cirShape)">
		<path id="shape-wave" fill="url(#shape_wave_gradient)" d="M202.865,51.507c-1.469,0.319-5.199,1.206-6.971,1.545
		c-14.158,2.713-13.01,0.969-23.724-1.163c-10.714-2.131-20.855-0.193-39.413,1.551c-4.792,0.45-12.575-0.359-15.684-0.744
		c0,0-8.664-2.436-14.198-1.189c-1.469,0.319-5.199,1.206-6.971,1.545c-14.158,2.713-13.01,0.969-23.724-1.163
		c-10.714-2.131-20.854-0.193-39.413,1.551c-4.791,0.45-12.575-0.359-15.684-0.744V96.25h185.781V51.507z"/>
	</g>
	<g id="bg-shape-bubles" clip-path="url(#clip-cirShape)">
		<circle opacity="0.07" fill="#FFFFFF" cx="38.699" cy="105.73" r="10.906"/>
		<circle opacity="0.07" fill="#FFFFFF" cx="79.737" cy="104.356" r="9.662"/>
		<circle opacity="0.07" fill="#FFFFFF" cx="73.823" cy="102.394" r="6.044"/>
		<circle opacity="0.07" fill="#FFFFFF" cx="51.135" cy="102.999" r="6.888"/>
		<circle opacity="0.07" fill="#FFFFFF" cx="44.343" cy="101.648" r="3.922"/>
		<circle opacity="0.07" fill="#FFFFFF" cx="36.908" cy="101.648" r="1.35"/>
		<circle opacity="0.07" fill="#FFFFFF" cx="43.221" cy="101.647" r="2.707"/>
		<circle opacity="0.07" fill="#FFFFFF" cx="37.656" cy="101.043" r="1.35"/>
		<circle opacity="0.07" fill="#FFFFFF" cx="43.828" cy="101.043" r="1.35"/>
		<circle opacity="0.07" fill="#FFFFFF" cx="71.044" cy="101.043" r="1.35"/>
		<circle opacity="0.07" fill="#FFFFFF" cx="60.414" cy="101.043" r="4.688"/>
	</g>
	<g id="shape-bubles" clip-path="url(#clip-cirShape)">
		<g>
			<ellipse fill="url(#buble_grad1)" cx="58.21" cy="102.948" rx="0.921" ry="0.93"/>
			<path fill="url(#buble_grad2)" d="M59.167,102.895c0,0.521-0.429,0.914-0.945,0.914c-0.516,0-0.958-0.323-0.962-0.895
				c-0.005-0.561,0.447-0.99,0.962-0.99C58.738,101.924,59.167,102.375,59.167,102.895z"/>
			<circle fill="url(#buble_grad3)" cx="58.213" cy="102.903" r="0.927"/>
			<path fill="url(#buble_grad4)" d="M58.858,102.399c0.204,0.51-0.199,0.521-0.663,0.521c-0.677,0-0.679-0.398-0.614-0.521
				c0.168-0.315,0.368-0.402,0.632-0.396C58.456,102.008,58.739,102.102,58.858,102.399z"/>
			<path fill="url(#buble_grad5)" d="M58.748,102.249c0.021,0.02,0.015,0.053-0.037,0.035c-0.263-0.096-0.576-0.23-0.954-0.028
				c-0.035,0.019-0.055-0.015-0.037-0.032C58.041,101.924,58.474,102.02,58.748,102.249z"/>
			<path fill="url(#buble_grad6)" d="M57.503,103.419c-0.146-0.166-0.041-0.308,0.094-0.177c0.195,0.185,1.037,0.282,1.275-0.101
				c0.059-0.094,0.216-0.084,0.126,0.118C58.773,103.771,57.988,103.968,57.503,103.419z"/>
			<path fill="url(#buble_grad7)" d="M57.921,103.745c0.251,0.084,0.729-0.016,0.97-0.25
				C58.712,103.815,58.152,103.911,57.921,103.745z"/>
		</g>
		<g>
			<ellipse fill="url(#buble_grad1)" cx="54.316" cy="103.025" rx="0.921" ry="0.93"/>
			<path fill="url(#buble_grad2)" d="M55.273,102.971c0,0.522-0.429,0.915-0.944,0.915c-0.517,0-0.958-0.322-0.963-0.894
				c-0.005-0.561,0.446-0.991,0.963-0.991C54.844,102.001,55.273,102.45,55.273,102.971z"/>
			<circle fill="url(#buble_grad3)" cx="54.319" cy="102.98" r="0.928"/>
			<path fill="url(#buble_grad4)" d="M54.964,102.477c0.203,0.508-0.199,0.521-0.663,0.521c-0.677,0-0.679-0.4-0.614-0.521
				c0.168-0.315,0.368-0.402,0.631-0.396C54.561,102.086,54.844,102.179,54.964,102.477z"/>
			<path fill="url(#buble_grad5)" d="M54.854,102.326c0.021,0.018,0.016,0.053-0.037,0.033c-0.263-0.094-0.576-0.228-0.954-0.028
				c-0.035,0.019-0.056-0.012-0.038-0.03C54.147,102.002,54.579,102.097,54.854,102.326z"/>
			<path fill="url(#buble_grad6)" d="M53.609,103.496c-0.146-0.167-0.042-0.308,0.094-0.177c0.194,0.185,1.037,0.282,1.276-0.101
				c0.058-0.093,0.215-0.084,0.125,0.119C54.878,103.847,54.093,104.045,53.609,103.496z"/>
			<path fill="url(#buble_grad7)" d="M54.027,103.821c0.251,0.084,0.729-0.014,0.969-0.249
				C54.818,103.89,54.257,103.986,54.027,103.821z"/>
		</g>
		<g>
			<ellipse fill="url(#buble_grad1)" cx="58.618" cy="103.209" rx="1.381" ry="1.393"/>
			<path fill="url(#buble_grad2)" d="M60.054,103.13c0,0.781-0.644,1.371-1.418,1.371c-0.774,0-1.436-0.482-1.444-1.34
				c-0.008-0.842,0.669-1.488,1.444-1.488C59.411,101.673,60.054,102.348,60.054,103.13z"/>
			<circle fill="url(#buble_grad3)" cx="58.623" cy="103.14" r="1.392"/>
			<path fill="url(#buble_grad4)" d="M59.59,102.387c0.306,0.763-0.298,0.782-0.993,0.782c-1.017,0-1.018-0.599-0.921-0.782
				c0.252-0.475,0.551-0.602,0.947-0.595C58.987,101.799,59.412,101.939,59.59,102.387z"/>
			<path fill="url(#buble_grad5)" d="M59.426,102.161c0.031,0.026,0.022,0.078-0.056,0.051c-0.395-0.141-0.865-0.344-1.432-0.044
				c-0.051,0.028-0.083-0.02-0.055-0.045C58.364,101.675,59.013,101.817,59.426,102.161z"/>
			<path fill="url(#buble_grad6)" d="M57.558,103.914c-0.218-0.248-0.062-0.46,0.143-0.265c0.29,0.278,1.554,0.424,1.913-0.15
					c0.088-0.141,0.323-0.127,0.188,0.178C59.462,104.443,58.285,104.741,57.558,103.914z"/>
			<path fill="url(#buble_grad7)" d="M58.185,104.403c0.376,0.125,1.092-0.022,1.454-0.375
				C59.371,104.507,58.53,104.652,58.185,104.403z"/>
		</g>
		<g>
			<ellipse fill="url(#buble_grad1)" cx="62.223" cy="103.317" rx="1.225" ry="1.236"/>
			<path fill="url(#buble_grad2)" d="M63.496,103.247c0,0.693-0.569,1.217-1.256,1.217c-0.688,0-1.275-0.43-1.281-1.188
				c-0.008-0.748,0.593-1.32,1.281-1.32C62.927,101.956,63.496,102.554,63.496,103.247z"/>
			<path fill="url(#buble_grad3)" d="M63.462,103.259c0,0.68-0.553,1.232-1.235,1.232c-0.682,0-1.234-0.553-1.234-1.232
				c0-0.686,0.552-1.236,1.234-1.236C62.908,102.022,63.462,102.573,63.462,103.259z"/>
			<path fill="url(#buble_grad4)" d="M63.084,102.589c0.271,0.676-0.263,0.693-0.881,0.693c-0.902,0-0.904-0.533-0.818-0.693
				c0.224-0.422,0.49-0.535,0.842-0.529C62.549,102.065,62.927,102.19,63.084,102.589z"/>
			<path fill="url(#buble_grad5)" d="M62.939,102.389c0.028,0.021,0.021,0.068-0.05,0.043c-0.349-0.127-0.766-0.305-1.27-0.039
				c-0.045,0.025-0.072-0.016-0.048-0.041C61.997,101.956,62.573,102.085,62.939,102.389z"/>
			<path fill="url(#buble_grad6)" d="M61.282,103.944c-0.193-0.223-0.055-0.41,0.125-0.236c0.258,0.246,1.38,0.375,1.698-0.133
					c0.077-0.125,0.286-0.113,0.167,0.156C62.972,104.413,61.927,104.677,61.282,103.944z"/>
			<path fill="url(#buble_grad7)" d="M61.837,104.376c0.336,0.113,0.971-0.021,1.292-0.33
				C62.889,104.468,62.145,104.597,61.837,104.376z"/>
		</g>
		<g>
			<ellipse fill="url(#buble_grad1)" cx="58.123" cy="103.243" rx="1.225" ry="1.234"/>
			<path fill="url(#buble_grad2)" d="M59.397,103.171c0,0.693-0.57,1.219-1.257,1.219c-0.687,0-1.274-0.432-1.28-1.189
				c-0.008-0.748,0.593-1.32,1.28-1.32C58.827,101.88,59.397,102.477,59.397,103.171z"/>
			<circle fill="url(#buble_grad3)" cx="58.128" cy="103.182" r="1.235"/>
			<path fill="url(#buble_grad4)" d="M58.986,102.512c0.27,0.676-0.265,0.693-0.882,0.693c-0.9,0-0.903-0.531-0.818-0.693
				c0.225-0.422,0.49-0.535,0.842-0.527C58.451,101.991,58.828,102.116,58.986,102.512z"/>
			<path fill="url(#buble_grad5)" d="M58.84,102.311c0.027,0.024,0.02,0.068-0.05,0.045c-0.35-0.125-0.766-0.305-1.269-0.039
				c-0.045,0.025-0.073-0.016-0.049-0.039C57.898,101.88,58.475,102.007,58.84,102.311z"/>
			<path fill="url(#buble_grad6)" d="M57.183,103.868c-0.193-0.223-0.055-0.41,0.125-0.236c0.258,0.246,1.379,0.377,1.697-0.133
					c0.079-0.125,0.287-0.113,0.167,0.158C58.873,104.337,57.828,104.6,57.183,103.868z"/>
			<path fill="url(#buble_grad7)" d="M57.739,104.299c0.333,0.113,0.969-0.018,1.291-0.33
				C58.79,104.391,58.046,104.522,57.739,104.299z"/>
		</g>
		<g>
			<path fill="url(#buble_grad1)" d="M64.788,103.059c0,1.197-0.961,2.162-2.144,2.162c-1.186,0-2.145-0.965-2.145-2.162
				c0-1.195,0.958-2.162,2.145-2.162C63.827,100.897,64.788,101.864,64.788,103.059z"/>
			<path fill="url(#buble_grad2)" d="M64.873,102.936c0,1.213-0.998,2.127-2.2,2.127c-1.203,0-2.229-0.748-2.24-2.078
				c-0.014-1.307,1.038-2.309,2.24-2.309C63.875,100.676,64.873,101.723,64.873,102.936z"/>
			<circle fill="url(#buble_grad3)" cx="62.652" cy="102.952" r="2.161"/>
			<path fill="url(#buble_grad4)" d="M64.152,101.782c0.474,1.184-0.463,1.213-1.542,1.213c-1.578,0-1.581-0.928-1.433-1.213
				c0.393-0.738,0.857-0.936,1.471-0.922C63.216,100.869,63.877,101.088,64.152,101.782z"/>
			<path fill="url(#buble_grad5)" d="M63.899,101.434c0.046,0.037,0.034,0.121-0.087,0.078c-0.613-0.223-1.342-0.535-2.223-0.068
				c-0.079,0.043-0.127-0.031-0.085-0.072C62.249,100.676,63.259,100.897,63.899,101.434z"/>
			<path fill="url(#buble_grad6)" d="M60.999,104.153c-0.339-0.385-0.096-0.715,0.219-0.412c0.451,0.432,2.414,0.66,2.969-0.232
					c0.136-0.217,0.502-0.197,0.293,0.275C63.955,104.973,62.127,105.436,60.999,104.153z"/>
			<path fill="url(#buble_grad7)" d="M61.971,104.91c0.584,0.197,1.696-0.033,2.259-0.578
				C63.812,105.073,62.508,105.299,61.971,104.91z"/>
		</g>
		<g>
			<path fill="url(#buble_grad1)" d="M71.21,103.198c0,0.766-0.614,1.381-1.37,1.381c-0.759,0-1.37-0.615-1.37-1.381
				c0-0.764,0.611-1.381,1.37-1.381C70.595,101.817,71.21,102.434,71.21,103.198z"/>
			<path fill="url(#buble_grad2)" d="M71.264,103.118c0,0.775-0.638,1.359-1.406,1.359c-0.769,0-1.426-0.479-1.433-1.326
				c-0.009-0.836,0.664-1.477,1.433-1.477C70.626,101.675,71.264,102.343,71.264,103.118z"/>
			<path fill="url(#buble_grad3)" d="M71.224,103.13c0,0.764-0.617,1.381-1.383,1.381c-0.761,0-1.378-0.617-1.378-1.381
				c0-0.762,0.617-1.381,1.378-1.381C70.608,101.749,71.224,102.368,71.224,103.13z"/>
			<path fill="url(#buble_grad4)" d="M70.804,102.382c0.303,0.758-0.296,0.777-0.987,0.777c-1.008,0-1.011-0.596-0.915-0.777
				c0.25-0.471,0.548-0.598,0.939-0.59C70.205,101.798,70.626,101.938,70.804,102.382z"/>
			<path fill="url(#buble_grad5)" d="M70.64,102.159c0.03,0.025,0.022,0.078-0.055,0.049c-0.392-0.141-0.856-0.34-1.421-0.043
				c-0.051,0.027-0.081-0.02-0.056-0.045C69.588,101.675,70.232,101.817,70.64,102.159z"/>
			<path fill="url(#buble_grad6)" d="M68.787,103.897c-0.217-0.246-0.061-0.457,0.14-0.262c0.289,0.273,1.542,0.418,1.9-0.15
					c0.087-0.139,0.32-0.125,0.187,0.178C70.677,104.421,69.509,104.718,68.787,103.897z"/>
			<path fill="url(#buble_grad7)" d="M69.409,104.382c0.374,0.127,1.085-0.021,1.443-0.369
				C70.585,104.483,69.753,104.63,69.409,104.382z"/>
		</g>
		<g>
			<ellipse fill="url(#buble_grad1)" cx="73.346" cy="103.443" rx="1.37" ry="1.381"/>
			<path fill="url(#buble_grad2)" d="M74.771,103.365c0,0.773-0.637,1.359-1.407,1.359c-0.769,0-1.424-0.48-1.432-1.328
				c-0.009-0.836,0.663-1.479,1.432-1.479C74.134,101.918,74.771,102.588,74.771,103.365z"/>
			<circle fill="url(#buble_grad3)" cx="73.351" cy="103.375" r="1.381"/>
			<path fill="url(#buble_grad4)" d="M74.311,102.627c0.303,0.756-0.295,0.773-0.985,0.773c-1.008,0-1.011-0.592-0.916-0.773
				c0.252-0.473,0.548-0.598,0.941-0.592C73.713,102.043,74.134,102.182,74.311,102.627z"/>
			<path fill="url(#buble_grad5)" d="M74.147,102.402c0.03,0.027,0.022,0.08-0.054,0.051c-0.392-0.141-0.857-0.342-1.42-0.045
				c-0.053,0.031-0.082-0.018-0.056-0.045C73.095,101.918,73.74,102.061,74.147,102.402z"/>
			<path fill="url(#buble_grad6)" d="M72.295,104.143c-0.217-0.246-0.063-0.457,0.139-0.264c0.29,0.277,1.544,0.42,1.899-0.148
					c0.087-0.139,0.321-0.125,0.188,0.176C74.185,104.666,73.016,104.963,72.295,104.143z"/>
			<path fill="url(#buble_grad7)" d="M72.917,104.627c0.374,0.125,1.084-0.021,1.443-0.371
				C74.093,104.728,73.26,104.873,72.917,104.627z"/>
		</g>
		<g>
			<ellipse fill="url(#buble_grad1)" cx="73.529" cy="103.4" rx="0.856" ry="0.863"/>
			<path fill="url(#buble_grad2)" d="M74.419,103.35c0,0.486-0.398,0.851-0.878,0.851c-0.481,0-0.891-0.299-0.895-0.83
				c-0.006-0.524,0.414-0.922,0.895-0.922C74.02,102.449,74.419,102.869,74.419,103.35z"/>
			<circle fill="url(#buble_grad3)" cx="73.531" cy="103.359" r="0.863"/>
			<path fill="url(#buble_grad4)" d="M74.131,102.891c0.188,0.475-0.186,0.484-0.617,0.484c-0.631,0-0.633-0.371-0.572-0.484
				c0.157-0.295,0.341-0.373,0.588-0.369C73.756,102.525,74.022,102.613,74.131,102.891z"/>
			<path fill="url(#buble_grad5)" d="M74.029,102.752c0.019,0.016,0.013,0.047-0.034,0.031c-0.245-0.088-0.537-0.213-0.888-0.027
				c-0.032,0.016-0.052-0.012-0.034-0.029C73.37,102.449,73.773,102.537,74.029,102.752z"/>
			<path fill="url(#buble_grad6)" d="M72.871,103.836c-0.135-0.152-0.039-0.283,0.088-0.162c0.18,0.172,0.963,0.264,1.186-0.094
					c0.054-0.086,0.2-0.078,0.117,0.109C74.052,104.166,73.322,104.351,72.871,103.836z"/>
			<path fill="url(#buble_grad7)" d="M73.26,104.141c0.232,0.078,0.677-0.014,0.902-0.23
				C73.995,104.203,73.473,104.297,73.26,104.141z"/>
		</g>
		<g>
			<ellipse fill="url(#buble_grad1)" cx="77.627" cy="103.231" rx="0.856" ry="0.863"/>
			<path fill="url(#buble_grad2)" d="M78.517,103.182c0,0.484-0.398,0.85-0.879,0.85c-0.48,0-0.89-0.299-0.895-0.832
				c-0.005-0.521,0.415-0.922,0.895-0.922C78.119,102.278,78.517,102.697,78.517,103.182z"/>
			<circle fill="url(#buble_grad3)" cx="77.63" cy="103.188" r="0.863"/>
			<path fill="url(#buble_grad4)" d="M78.23,102.719c0.189,0.475-0.185,0.488-0.617,0.488c-0.629,0-0.631-0.373-0.572-0.488
				c0.157-0.293,0.343-0.373,0.587-0.365C77.856,102.356,78.12,102.444,78.23,102.719z"/>
			<path fill="url(#buble_grad5)" d="M78.128,102.58c0.02,0.018,0.015,0.049-0.034,0.033c-0.246-0.09-0.537-0.215-0.889-0.027
				c-0.031,0.018-0.05-0.014-0.033-0.029C77.47,102.278,77.873,102.365,78.128,102.58z"/>
			<path fill="url(#buble_grad6)" d="M76.97,103.668c-0.136-0.156-0.038-0.285,0.087-0.166c0.181,0.174,0.965,0.266,1.187-0.092
				c0.056-0.088,0.202-0.08,0.118,0.111C78.15,103.994,77.42,104.182,76.97,103.668z"/>
			<path fill="url(#buble_grad7)" d="M77.359,103.971c0.233,0.078,0.678-0.012,0.903-0.23
				C78.094,104.035,77.573,104.125,77.359,103.971z"/>
		</g>
		<g>
			<ellipse fill="url(#buble_grad1)" cx="34.751" cy="103.126" rx="1.003" ry="1.011"/>
			<path fill="url(#buble_grad2)" d="M35.795,103.183c0-0.566-0.466-0.996-1.03-0.996c-0.563,0-1.043,0.352-1.048,0.973
				c-0.007,0.612,0.485,1.082,1.048,1.082C35.328,104.242,35.795,103.752,35.795,103.183z"/>
			<circle fill="url(#buble_grad3)" cx="34.756" cy="103.175" r="1.012"/>
			<path fill="url(#buble_grad4)" d="M35.458,103.724c0.221-0.554-0.216-0.568-0.722-0.568c-0.739,0-0.741,0.434-0.671,0.568
				c0.185,0.345,0.402,0.438,0.69,0.433C35.02,104.152,35.329,104.05,35.458,103.724z"/>
			<path fill="url(#buble_grad5)" d="M35.339,103.888c0.022-0.02,0.017-0.058-0.04-0.038c-0.288,0.104-0.628,0.25-1.042,0.033
				c-0.037-0.021-0.059,0.013-0.04,0.033C34.567,104.242,35.039,104.139,35.339,103.888z"/>
			<path fill="url(#buble_grad6)" d="M33.982,102.614c-0.159,0.181-0.046,0.334,0.103,0.193c0.211-0.202,1.131-0.309,1.39,0.109
					c0.064,0.101,0.235,0.092,0.138-0.13C35.365,102.23,34.509,102.014,33.982,102.614z"/>
			<path fill="url(#buble_grad7)" d="M34.437,102.259c0.273-0.093,0.794,0.017,1.058,0.272
				C35.299,102.184,34.689,102.076,34.437,102.259z"/>
		</g>
		<g>
			<ellipse fill="url(#buble_grad1)" cx="38.337" cy="102.764" rx="1.442" ry="1.454"/>
			<path fill="url(#buble_grad2)" d="M39.837,102.847c0-0.816-0.671-1.432-1.481-1.432c-0.811,0-1.5,0.504-1.507,1.4
				c-0.009,0.878,0.696,1.551,1.507,1.551C39.166,104.367,39.837,103.663,39.837,102.847z"/>
			<circle fill="url(#buble_grad3)" cx="38.342" cy="102.836" r="1.455"/>
			<path fill="url(#buble_grad4)" d="M39.353,103.624c0.318-0.797-0.313-0.816-1.039-0.816c-1.063,0-1.064,0.624-0.964,0.816
				c0.264,0.496,0.577,0.63,0.99,0.621C38.722,104.238,39.166,104.092,39.353,103.624z"/>
			<path fill="url(#buble_grad5)" d="M39.179,103.859c0.033-0.026,0.025-0.082-0.056-0.053c-0.413,0.149-0.902,0.36-1.497,0.045
				c-0.053-0.028-0.085,0.021-0.057,0.048C38.072,104.367,38.75,104.219,39.179,103.859z"/>
			<path fill="url(#buble_grad6)" d="M37.23,102.029c-0.227,0.26-0.065,0.48,0.147,0.276c0.305-0.29,1.625-0.444,1.999,0.156
					c0.092,0.147,0.337,0.133,0.198-0.186C39.219,101.476,37.988,101.165,37.23,102.029z"/>
			<path fill="url(#buble_grad7)" d="M37.884,101.516c0.393-0.131,1.143,0.024,1.521,0.392
				C39.123,101.41,38.246,101.257,37.884,101.516z"/>
		</g>
		<g>
			<ellipse fill="url(#buble_grad1)" cx="35.995" cy="102.432" rx="1.892" ry="1.908"/>
			<path fill="url(#buble_grad2)" d="M37.964,102.541c0-1.071-0.88-1.879-1.943-1.879c-1.063,0-1.969,0.661-1.979,1.836
				c-0.012,1.154,0.916,2.039,1.979,2.039C37.084,104.537,37.964,103.612,37.964,102.541z"/>
			<circle fill="url(#buble_grad3)" cx="36.003" cy="102.526" r="1.909"/>
			<path fill="url(#buble_grad4)" d="M37.328,103.56c0.418-1.046-0.409-1.072-1.362-1.072c-1.393,0-1.396,0.819-1.265,1.072
				c0.347,0.651,0.757,0.826,1.3,0.814C36.501,104.367,37.084,104.174,37.328,103.56z"/>
			<path fill="url(#buble_grad5)" d="M37.101,103.868c0.044-0.034,0.033-0.106-0.074-0.068c-0.542,0.196-1.184,0.473-1.964,0.06
				c-0.07-0.037-0.113,0.027-0.075,0.063C35.647,104.537,36.538,104.343,37.101,103.868z"/>
			<path fill="url(#buble_grad6)" d="M34.544,101.467c-0.299,0.342-0.088,0.631,0.192,0.361c0.399-0.381,2.133-0.58,2.623,0.206
					c0.12,0.194,0.443,0.176,0.26-0.241C37.154,100.74,35.539,100.331,34.544,101.467z"/>
			<path fill="url(#buble_grad7)" d="M35.401,100.795c0.517-0.173,1.498,0.031,1.997,0.514
				C37.027,100.653,35.876,100.453,35.401,100.795z"/>
		</g>
		<g>
			<ellipse fill="url(#buble_grad1)" cx="37.252" cy="102.807" rx="0.926" ry="0.934"/>
			<path fill="url(#buble_grad2)" d="M38.215,102.862c0-0.525-0.431-0.92-0.95-0.92c-0.521,0-0.963,0.322-0.968,0.898
				c-0.006,0.564,0.447,0.998,0.968,0.998C37.784,103.839,38.215,103.385,38.215,102.862z"/>
			<path fill="url(#buble_grad3)" d="M38.189,102.854c0-0.516-0.418-0.932-0.935-0.932c-0.514,0-0.933,0.416-0.933,0.932
				c0,0.518,0.419,0.934,0.933,0.934C37.771,103.788,38.189,103.372,38.189,102.854z"/>
			<path fill="url(#buble_grad4)" d="M37.905,103.36c0.203-0.512-0.201-0.523-0.668-0.523c-0.682,0-0.683,0.4-0.618,0.523
				c0.169,0.318,0.37,0.404,0.635,0.4C37.499,103.755,37.785,103.661,37.905,103.36z"/>
			<path fill="url(#buble_grad5)" d="M37.794,103.512c0.02-0.018,0.016-0.053-0.038-0.035c-0.265,0.096-0.579,0.23-0.96,0.029
				c-0.033-0.02-0.055,0.014-0.038,0.029C37.082,103.839,37.518,103.741,37.794,103.512z"/>
			<path fill="url(#buble_grad6)" d="M36.541,102.337c-0.145,0.166-0.043,0.307,0.095,0.176c0.195-0.186,1.043-0.285,1.284,0.102
					c0.058,0.096,0.216,0.084,0.127-0.119C37.819,101.983,37.029,101.782,36.541,102.337z"/>
			<path fill="url(#buble_grad7)" d="M36.962,102.009c0.253-0.086,0.732,0.014,0.976,0.25
				C37.756,101.938,37.194,101.843,36.962,102.009z"/>
		</g>
		<g>
			<path fill="url(#buble_grad1)" d="M85.827,102.505c0,0.748-0.596,1.348-1.333,1.348c-0.739,0-1.336-0.6-1.336-1.348
				c0-0.742,0.597-1.344,1.336-1.344C85.231,101.161,85.827,101.763,85.827,102.505z"/>
			<path fill="url(#buble_grad2)" d="M85.879,102.431c0,0.756-0.62,1.324-1.368,1.324c-0.751,0-1.388-0.467-1.396-1.293
				c-0.008-0.814,0.645-1.438,1.396-1.438C85.258,101.025,85.879,101.677,85.879,102.431z"/>
			<path fill="url(#buble_grad3)" d="M85.845,102.443c0,0.742-0.604,1.342-1.351,1.342c-0.74,0-1.343-0.6-1.343-1.342
				c0-0.744,0.603-1.346,1.343-1.346C85.24,101.097,85.845,101.699,85.845,102.443z"/>
			<path fill="url(#buble_grad4)" d="M85.431,101.712c0.295,0.738-0.287,0.756-0.96,0.756c-0.981,0-0.983-0.578-0.891-0.756
				c0.243-0.457,0.532-0.582,0.914-0.576C84.847,101.144,85.26,101.281,85.431,101.712z"/>
			<path fill="url(#buble_grad5)" d="M85.273,101.495c0.03,0.023,0.022,0.076-0.054,0.049c-0.381-0.139-0.834-0.334-1.384-0.043
				c-0.05,0.027-0.08-0.018-0.054-0.043C84.247,101.025,84.874,101.161,85.273,101.495z"/>
			<path fill="url(#buble_grad6)" d="M83.468,103.189c-0.209-0.24-0.061-0.443,0.138-0.258c0.28,0.271,1.503,0.41,1.848-0.143
					c0.085-0.137,0.312-0.125,0.185,0.172C85.308,103.699,84.17,103.988,83.468,103.189z"/>
			<path fill="url(#buble_grad7)" d="M84.073,103.661c0.363,0.123,1.057-0.021,1.406-0.363
				C85.219,103.761,84.407,103.904,84.073,103.661z"/>
		</g>
		<g>
			<path fill="url(#buble_grad1)" d="M86.042,102.923c0,1.257-1.006,2.27-2.249,2.27c-1.247,0-2.253-1.013-2.253-2.27
				c0-1.256,1.006-2.272,2.253-2.272C85.036,100.651,86.042,101.667,86.042,102.923z"/>
			<path fill="url(#buble_grad2)" d="M86.132,102.794c0,1.271-1.047,2.233-2.312,2.233c-1.265,0-2.342-0.787-2.354-2.184
				c-0.013-1.372,1.09-2.423,2.354-2.423C85.086,100.421,86.132,101.519,86.132,102.794z"/>
			<path fill="url(#buble_grad3)" d="M86.071,102.809c0,1.256-1.019,2.271-2.276,2.271c-1.25,0-2.267-1.016-2.267-2.271
				c0-1.253,1.017-2.271,2.267-2.271C85.052,100.538,86.071,101.556,86.071,102.809z"/>
			<path fill="url(#buble_grad4)" d="M85.376,101.581c0.497,1.243-0.486,1.275-1.621,1.275c-1.656,0-1.661-0.977-1.504-1.275
				c0.412-0.774,0.901-0.982,1.544-0.97C84.391,100.621,85.086,100.852,85.376,101.581z"/>
			<path fill="url(#buble_grad5)" d="M85.108,101.215c0.05,0.041,0.038,0.128-0.09,0.081c-0.645-0.231-1.408-0.562-2.336-0.07
				c-0.082,0.044-0.134-0.033-0.09-0.076C83.377,100.421,84.435,100.651,85.108,101.215z"/>
			<path fill="url(#buble_grad6)" d="M82.064,104.071c-0.355-0.406-0.104-0.749,0.228-0.432c0.477,0.453,2.539,0.693,3.121-0.244
					c0.143-0.231,0.529-0.206,0.311,0.29C85.167,104.932,83.247,105.421,82.064,104.071z"/>
			<path fill="url(#buble_grad7)" d="M83.085,104.868c0.613,0.207,1.783-0.033,2.374-0.607
				C85.018,105.038,83.648,105.277,83.085,104.868z"/>
		</g>
		<g>
			<path fill="url(#buble_grad1)" d="M89.824,102.949c0,0.87-0.696,1.568-1.555,1.568c-0.859,0-1.556-0.698-1.556-1.568
				c0-0.867,0.696-1.568,1.556-1.568C89.128,101.381,89.824,102.082,89.824,102.949z"/>
			<path fill="url(#buble_grad2)" d="M89.885,102.861c0,0.879-0.724,1.542-1.596,1.542c-0.875,0-1.616-0.544-1.626-1.507
				c-0.009-0.949,0.751-1.674,1.626-1.674C89.162,101.222,89.885,101.98,89.885,102.861z"/>
			<path fill="url(#buble_grad3)" d="M89.842,102.871c0,0.866-0.703,1.567-1.571,1.567c-0.861,0-1.566-0.701-1.566-1.567
				c0-0.866,0.705-1.569,1.566-1.569C89.14,101.303,89.842,102.006,89.842,102.871z"/>
			<path fill="url(#buble_grad4)" d="M89.363,102.023c0.344,0.858-0.335,0.881-1.119,0.881c-1.145,0-1.146-0.675-1.037-0.881
				c0.282-0.535,0.618-0.679,1.064-0.67C88.683,101.361,89.162,101.519,89.363,102.023z"/>
			<path fill="url(#buble_grad5)" d="M89.176,101.77c0.036,0.03,0.028,0.087-0.061,0.056c-0.446-0.16-0.973-0.387-1.614-0.048
				c-0.055,0.031-0.091-0.021-0.061-0.051C87.982,101.222,88.713,101.381,89.176,101.77z"/>
			<path fill="url(#buble_grad6)" d="M87.077,103.742c-0.246-0.279-0.074-0.517,0.157-0.298c0.329,0.314,1.753,0.479,2.156-0.168
				c0.097-0.159,0.364-0.144,0.211,0.199C89.218,104.338,87.894,104.673,87.077,103.742z"/>
			<path fill="url(#buble_grad7)" d="M87.781,104.293c0.422,0.143,1.23-0.025,1.637-0.42
				C89.116,104.41,88.168,104.576,87.781,104.293z"/>
		</g>
		<g>
			<path fill="url(#buble_grad1)" d="M87.883,102.576c0,0.869-0.695,1.568-1.555,1.568c-0.859,0-1.557-0.699-1.557-1.568
				c0-0.867,0.697-1.569,1.557-1.569C87.188,101.007,87.883,101.708,87.883,102.576z"/>
			<path fill="url(#buble_grad2)" d="M87.945,102.489c0,0.878-0.724,1.541-1.596,1.541c-0.874,0-1.616-0.542-1.624-1.507
				c-0.012-0.948,0.75-1.674,1.624-1.674C87.221,100.848,87.945,101.607,87.945,102.489z"/>
			<path fill="url(#buble_grad3)" d="M87.903,102.5c0,0.865-0.703,1.566-1.572,1.566c-0.862,0-1.565-0.701-1.565-1.566
				c0-0.867,0.703-1.568,1.565-1.568C87.2,100.932,87.903,101.633,87.903,102.5z"/>
			<path fill="url(#buble_grad4)" d="M87.423,101.651c0.342,0.858-0.337,0.879-1.121,0.879c-1.143,0-1.144-0.674-1.036-0.879
				c0.285-0.536,0.621-0.681,1.065-0.671C86.743,100.988,87.221,101.146,87.423,101.651z"/>
			<path fill="url(#buble_grad5)" d="M87.237,101.397c0.034,0.029,0.028,0.088-0.063,0.056c-0.445-0.16-0.971-0.388-1.613-0.049
				c-0.053,0.03-0.092-0.022-0.062-0.051C86.042,100.848,86.774,101.007,87.237,101.397z"/>
			<path fill="url(#buble_grad6)" d="M85.135,103.37c-0.244-0.281-0.072-0.518,0.158-0.298c0.329,0.312,1.754,0.478,2.155-0.168
				c0.099-0.16,0.365-0.143,0.213,0.199C87.279,103.965,85.954,104.302,85.135,103.37z"/>
			<path fill="url(#buble_grad7)" d="M85.841,103.921c0.423,0.143,1.229-0.024,1.637-0.421
				C87.174,104.036,86.228,104.203,85.841,103.921z"/>
		</g>
	</g>
</g>
<style>
	#simmer-animation #shape-wave {
		-webkit-animation: moveWaveShape 4s linear 0s infinite;
		        animation: moveWaveShape 4s linear 0s infinite;
	}

	#simmer-animation #text-wave {
		-webkit-animation: moveWaveText 8s linear 0s infinite;
		        animation: moveWaveText 8s linear 0s infinite;
	}

/* bg-bubles */
	#simmer-animation #bg-shape-bubles circle:nth-child(1) {
		-webkit-animation: moveBgBubles 8s linear 0s infinite;
		        animation: moveBgBubles 8s linear 0s infinite;
	}
	#simmer-animation #bg-shape-bubles circle:nth-child(2) {
		-webkit-animation: moveBgBubles 8s linear -4s infinite;
		        animation: moveBgBubles 8s linear -4s infinite;
	}
	#simmer-animation #bg-shape-bubles circle:nth-child(3) {
		-webkit-animation: moveBgBubles 6s linear -5s infinite;
		        animation: moveBgBubles 6s linear -5s infinite;
	}
	#simmer-animation #bg-shape-bubles circle:nth-child(4) {
		-webkit-animation: moveBgBubles 6s linear -3s infinite;
		        animation: moveBgBubles 6s linear -3s infinite;
	}
	#simmer-animation #bg-shape-bubles circle:nth-child(5) {
		-webkit-animation: moveBgBubles 4s linear -1s infinite;
		        animation: moveBgBubles 4s linear -1s infinite;
	}
	#simmer-animation #bg-shape-bubles circle:nth-child(6) {
		-webkit-animation: moveBgBubles 3s linear -2s infinite;
		        animation: moveBgBubles 3s linear -2s infinite;
	}
	#simmer-animation #bg-shape-bubles circle:nth-child(7) {
		-webkit-animation: moveBgBubles 5s linear -3.5s infinite;
		        animation: moveBgBubles 5s linear -3.5s infinite;
	}
	#simmer-animation #bg-shape-bubles circle:nth-child(8) {
		-webkit-animation: moveBgBubles 3.5s linear -1.3s infinite;
		        animation: moveBgBubles 3.5s linear -1.3s infinite;
	}
	#simmer-animation #bg-shape-bubles circle:nth-child(9) {
		-webkit-animation: moveBgBubles 4.5s linear -0.5s infinite;
		        animation: moveBgBubles 4.5s linear -0.5s infinite;
	}
	#simmer-animation #bg-shape-bubles circle:nth-child(10) {
		-webkit-animation: moveBgBubles 4s linear 0s infinite;
		        animation: moveBgBubles 4s linear 0s infinite;
	}
	#simmer-animation #bg-shape-bubles circle:nth-child(11) {
		-webkit-animation: moveBgBubles 6s linear -1s infinite;
		        animation: moveBgBubles 6s linear -1s infinite;
	}

/* shape-bubles */
	#simmer-animation #shape-bubles g:nth-child(1) {
		-webkit-animation: moveShapeBubles 3s linear 0s infinite;
		        animation: moveShapeBubles 3s linear 0s infinite;
	}
	#simmer-animation #shape-bubles g:nth-child(2) {
		-webkit-animation: moveShapeBubles 3.2s linear -1.5s infinite;
		        animation: moveShapeBubles 3.2s linear -1.5s infinite;
	}
	#simmer-animation #shape-bubles g:nth-child(3) {
		-webkit-animation: moveShapeBubles 4s linear -0.4s infinite;
		        animation: moveShapeBubles 4s linear -0.4s infinite;
	}
	#simmer-animation #shape-bubles g:nth-child(4) {
		-webkit-animation: moveShapeBubles 3.5s linear -1.2s infinite;
		        animation: moveShapeBubles 3.5s linear -1.2s infinite;
	}
	#simmer-animation #shape-bubles g:nth-child(5) {
		-webkit-animation: moveShapeBubles 3.9s linear -1.75s infinite;
		        animation: moveShapeBubles 3.9s linear -1.75s infinite;
	}
	#simmer-animation #shape-bubles g:nth-child(6) {
		-webkit-animation: moveShapeBubles 5s linear 0s infinite;
		        animation: moveShapeBubles 5s linear 0s infinite;
	}
	#simmer-animation #shape-bubles g:nth-child(7) {
		-webkit-animation: moveShapeBubles 4.2s linear -1s infinite;
		        animation: moveShapeBubles 4.2s linear -1s infinite;
	}
	#simmer-animation #shape-bubles g:nth-child(8) {
		-webkit-animation: moveShapeBubles 3.5s linear -3s infinite;
		        animation: moveShapeBubles 3.5s linear -3s infinite;
	}
	#simmer-animation #shape-bubles g:nth-child(9) {
		-webkit-animation: moveShapeBubles 3s linear 0s infinite;
		        animation: moveShapeBubles 3s linear 0s infinite;
	}
	#simmer-animation #shape-bubles g:nth-child(10) {
		-webkit-animation: moveShapeBubles 4s linear -1.4s infinite;
		        animation: moveShapeBubles 4s linear -1.4s infinite;
	}
	#simmer-animation #shape-bubles g:nth-child(11) {
		-webkit-animation: moveShapeBubles 3.6s linear -0.5s infinite;
		        animation: moveShapeBubles 3.6s linear -0.5s infinite;
	}
	#simmer-animation #shape-bubles g:nth-child(12) {
		-webkit-animation: moveShapeBubles 4.8s linear -3.5s infinite;
		        animation: moveShapeBubles 4.8s linear -3.5s infinite;
	}
	#simmer-animation #shape-bubles g:nth-child(13) {
		-webkit-animation: moveShapeBubles 5.2s linear -2s infinite;
		        animation: moveShapeBubles 5.2s linear -2s infinite;
	}
	#simmer-animation #shape-bubles g:nth-child(14) {
		-webkit-animation: moveShapeBubles 3.7s linear -3s infinite;
		        animation: moveShapeBubles 3.7s linear -3s infinite;
	}
	#simmer-animation #shape-bubles g:nth-child(15) {
		-webkit-animation: moveShapeBubles 4s linear 0s infinite;
		        animation: moveShapeBubles 4s linear 0s infinite;
	}
	#simmer-animation #shape-bubles g:nth-child(16) {
		-webkit-animation: moveShapeBubles 5.2s linear -2.5s infinite;
		        animation: moveShapeBubles 5.2s linear -2.5s infinite;
	}
	#simmer-animation #shape-bubles g:nth-child(17) {
		-webkit-animation: moveShapeBubles 4.8s linear -4s infinite;
		        animation: moveShapeBubles 4.8s linear -4s infinite;
	}
	#simmer-animation #shape-bubles g:nth-child(18) {
		-webkit-animation: moveShapeBubles 4.3s linear -1s infinite;
		        animation: moveShapeBubles 4.3s linear -1s infinite;
	}

/* text-bubles */
	#simmer-animation #text-bubles g:nth-child(1) {
		-webkit-animation: moveTextBubles 4s linear 0s infinite;
		        animation: moveTextBubles 4s linear 0s infinite;
	}
	#simmer-animation #text-bubles g:nth-child(2) {
		-webkit-animation: moveTextBubles 3.5s linear -1.5s infinite;
		        animation: moveTextBubles 3.5s linear -1.5s infinite;
	}
	#simmer-animation #text-bubles g:nth-child(3) {
		-webkit-animation: moveTextBubles 3s linear -2s infinite;
		        animation: moveTextBubles 3s linear -2s infinite;
	}
	#simmer-animation #text-bubles g:nth-child(4) {
		-webkit-animation: moveTextBubles 4.1s linear -2s infinite;
		        animation: moveTextBubles 4.1s linear -2s infinite;
	}
	#simmer-animation #text-bubles g:nth-child(5) {
		-webkit-animation: moveTextBubles 3.2s linear 0s infinite;
		        animation: moveTextBubles 3.2s linear 0s infinite;
	}
	#simmer-animation #text-bubles g:nth-child(6) {
		-webkit-animation: moveTextBubles 4.5s linear -3s infinite;
		        animation: moveTextBubles 4.5s linear -3s infinite;
	}
	#simmer-animation #text-bubles g:nth-child(7) {
		-webkit-animation: moveTextBubles 3s linear -2s infinite;
		        animation: moveTextBubles 3s linear -2s infinite;
	}
	#simmer-animation #text-bubles g:nth-child(8) {
		-webkit-animation: moveTextBubles 4s linear 0s infinite;
		        animation: moveTextBubles 4s linear 0s infinite;
	}
	#simmer-animation #text-bubles g:nth-child(9) {
		-webkit-animation: moveTextBubles 4.1s linear -3.5s infinite;
		        animation: moveTextBubles 4.1s linear -3.5s infinite;
	}
	#simmer-animation #text-bubles g:nth-child(10) {
		-webkit-animation: moveTextBubles 2.8s linear -0.5s infinite;
		        animation: moveTextBubles 2.8s linear -0.5s infinite;
	}
	#simmer-animation #text-bubles g:nth-child(11) {
		-webkit-animation: moveTextBubles 4.4s linear -1.2s infinite;
		        animation: moveTextBubles 4.4s linear -1.2s infinite;
	}
	#simmer-animation #text-bubles g:nth-child(12) {
		-webkit-animation: moveTextBubles 3.9s linear -3s infinite;
		        animation: moveTextBubles 3.9s linear -3s infinite;
	}
	#simmer-animation #text-bubles g:nth-child(13) {
		-webkit-animation: moveTextBubles 3.5s linear -0.2s infinite;
		        animation: moveTextBubles 3.5s linear -0.2s infinite;
	}
	#simmer-animation #text-bubles g:nth-child(14) {
		-webkit-animation: moveTextBubles 3.2s linear -2.1s infinite;
		        animation: moveTextBubles 3.2s linear -2.1s infinite;
	}
	#simmer-animation #text-bubles g:nth-child(15) {
		-webkit-animation: moveTextBubles 3.7s linear -0.5s infinite;
		        animation: moveTextBubles 3.7s linear -0.5s infinite;
	}
	#simmer-animation #text-bubles g:nth-child(16) {
		-webkit-animation: moveTextBubles 3s linear 0s infinite;
		        animation: moveTextBubles 3s linear 0s infinite;
	}
	#simmer-animation #text-bubles g:nth-child(17) {
		-webkit-animation: moveTextBubles 3.1s linear -2.2s infinite;
		        animation: moveTextBubles 3.1s linear -2.2s infinite;
	}
	#simmer-animation #text-bubles g:nth-child(18) {
		-webkit-animation: moveTextBubles 2.8s linear 0s infinite;
		        animation: moveTextBubles 2.8s linear 0s infinite;
	}
	#simmer-animation #text-bubles g:nth-child(19) {
		-webkit-animation: moveTextBubles 4.1s linear -1.7s infinite;
		        animation: moveTextBubles 4.1s linear -1.7s infinite;
	}
	#simmer-animation #text-bubles g:nth-child(20) {
		-webkit-animation: moveTextBubles 3.1s linear -0.7s infinite;
		        animation: moveTextBubles 3.1s linear -0.7s infinite;
	}
	#simmer-animation #text-bubles g:nth-child(21) {
		-webkit-animation: moveTextBubles 2.9s linear -2.5s infinite;
		        animation: moveTextBubles 2.9s linear -2.5s infinite;
	}
	#simmer-animation #text-bubles g:nth-child(22) {
		-webkit-animation: moveTextBubles 4s linear -1s infinite;
		        animation: moveTextBubles 4s linear -1s infinite;
	}
	#simmer-animation #text-bubles g:nth-child(23) {
		-webkit-animation: moveTextBubles 3.5s linear -3.2s infinite;
		        animation: moveTextBubles 3.5s linear -3.2s infinite;
	}
	#simmer-animation #text-bubles g:nth-child(24) {
		-webkit-animation: moveTextBubles 3s linear -2s infinite;
		        animation: moveTextBubles 3s linear -2s infinite;
	}
	#simmer-animation #text-bubles g:nth-child(25) {
		-webkit-animation: moveTextBubles 2.9s linear -1.5s infinite;
		        animation: moveTextBubles 2.9s linear -1.5s infinite;
	}
	#simmer-animation #text-bubles g:nth-child(26) {
		-webkit-animation: moveTextBubles 3.2s linear 0s infinite;
		        animation: moveTextBubles 3.2s linear 0s infinite;
	}
	
/* keyframes */

	@-webkit-keyframes moveWaveShape {
		to {
			-webkit-transform: translate(-100px, 0px);
			        transform: translate(-100px, 0px);
		}
	}

	@keyframes moveWaveShape {
		to {
			-webkit-transform: translate(-100px, 0px);
			        transform: translate(-100px, 0px);
		}
	}

	@-webkit-keyframes moveWaveText {
		to {
			-webkit-transform: translate(-270px, 0px);
			        transform: translate(-270px, 0px);
		}
	}

	@keyframes moveWaveText {
		to {
			-webkit-transform: translate(-270px, 0px);
			        transform: translate(-270px, 0px);
		}
	}

	@-webkit-keyframes moveBgBubles {
		to {
			-webkit-transform: translate(0px, -110px);
			        transform: translate(0px, -110px);
		}
	}

	@keyframes moveBgBubles {
		to {
			-webkit-transform: translate(0px, -110px);
			        transform: translate(0px, -110px);
		}
	}

	@-webkit-keyframes moveShapeBubles {
		0% {
			opacity: 1;
			-webkit-transform: translate(0px, 0px);
			        transform: translate(0px, 0px);
		}
		25% {
			-webkit-transform: translate(1px, -13px);
			        transform: translate(1px, -13px);
		}
		50% {
			-webkit-transform: translate(0px, -26px);
			        transform: translate(0px, -26px);
		}
		75% {
			opacity: 1;
			-webkit-transform: translate(1px, -39px);
			        transform: translate(1px, -39px);
		}
		100% {
			opacity: 0;
			-webkit-transform: translate(0px, -50px);
			        transform: translate(0px, -50px);
		}
	}

	@keyframes moveShapeBubles {
		0% {
			opacity: 1;
			-webkit-transform: translate(0px, 0px);
			        transform: translate(0px, 0px);
		}
		25% {
			-webkit-transform: translate(1px, -13px);
			        transform: translate(1px, -13px);
		}
		50% {
			-webkit-transform: translate(0px, -26px);
			        transform: translate(0px, -26px);
		}
		75% {
			opacity: 1;
			-webkit-transform: translate(1px, -39px);
			        transform: translate(1px, -39px);
		}
		100% {
			opacity: 0;
			-webkit-transform: translate(0px, -50px);
			        transform: translate(0px, -50px);
		}
	}

	@-webkit-keyframes moveTextBubles {
		0% {
			opacity: 1;
			-webkit-transform: translate(0px, 0px);
			        transform: translate(0px, 0px);
		}
		75% {
			opacity: 1;
			-webkit-transform: translate(0px, -15px);
			        transform: translate(0px, -15px);
		}
		100% {
			opacity: 0;
			-webkit-transform: translate(0px, -20px);
			        transform: translate(0px, -20px);
		}
	}

	@keyframes moveTextBubles {
		0% {
			opacity: 1;
			-webkit-transform: translate(0px, 0px);
			        transform: translate(0px, 0px);
		}
		75% {
			opacity: 1;
			-webkit-transform: translate(0px, -15px);
			        transform: translate(0px, -15px);
		}
		100% {
			opacity: 0;
			-webkit-transform: translate(0px, -20px);
			        transform: translate(0px, -20px);
		}
	}
</style>
</svg>