<?xml version="1.0" encoding="utf-8"?>
<!-- Generator: Adobe Illustrator 19.0.0, SVG Export Plug-In . SVG Version: 6.00 Build 0)  -->
<svg version="1.1" id="Graph-Data-1" xmlns="http://www.w3.org/2000/svg" xmlns:xlink="http://www.w3.org/1999/xlink" x="0px"
	 y="0px" viewBox="0 0 965 600" style="enable-background:new 0 0 965 600;" xml:space="preserve">
<style type="text/css">
	.st0{fill:#DDDDDD;}
	.st1{enable-background:new;}
	.st2{fill:#180D38;}
	.st3{fill:url(#Blue_1_);}
	.st4{fill:url(#Pink-Horizontal_1_);}
	.st5{fill:url(#Pink-Vertical_1_);}
	.st6{fill:#FFFFFF;}
	.st7{fill:none;stroke:#FFFFFF;stroke-width:4;stroke-dasharray:11.8,7.9;}
</style>
<path id="X-Axis" class="st0" d="M936.864,525L947,533l-10.136,8v-5.333l-853.175,0c-0.933,0-1.689-1.194-1.689-2.667
	c0-1.473,0.756-2.667,1.689-2.667l853.175,0V525z"/>
<path id="Y-Axis" class="st0" d="M44,66.142L53.429,59l9.429,7.142h-6.286l0,449.967c0,0.492-1.407,0.891-3.143,0.891
	c-1.736,0-3.143-0.399-3.143-0.891l0-449.967H44z"/>
<g class="st1">
	<path class="st2" d="M20.001,400.698c0,1.569,0.522,2.808,1.567,3.716s2.476,1.362,4.292,1.362c1.868,0,3.313-0.438,4.331-1.313
		s1.528-2.124,1.528-3.745c0-0.996-0.179-2.132-0.537-3.408h1.455c0.371,0.99,0.557,2.21,0.557,3.662
		c0,2.103-0.638,3.726-1.914,4.868s-3.089,1.714-5.439,1.714c-1.472,0-2.761-0.275-3.867-0.825s-1.96-1.344-2.559-2.383
		s-0.898-2.261-0.898-3.667c0-1.498,0.273-2.806,0.82-3.926l1.426,0.703C20.255,398.537,20.001,399.618,20.001,400.698z"/>
	<path class="st2" d="M25.841,381.802c2.285,0,4.082,0.578,5.391,1.733s1.963,2.762,1.963,4.819c0,2.103-0.643,3.726-1.929,4.868
		s-3.101,1.714-5.444,1.714c-2.324,0-4.126-0.573-5.405-1.719s-1.919-2.773-1.919-4.883c0-2.051,0.651-3.652,1.953-4.805
		S23.549,381.802,25.841,381.802z M25.841,393.179c1.934,0,3.4-0.412,4.399-1.235s1.499-2.02,1.499-3.589
		c0-1.582-0.498-2.777-1.494-3.584s-2.464-1.211-4.404-1.211c-1.921,0-3.377,0.402-4.37,1.206s-1.489,1.994-1.489,3.569
		c0,1.582,0.5,2.785,1.499,3.608S23.934,393.179,25.841,393.179z"/>
	<path class="st2" d="M33,372.3l-12.656,4.844v0.078c1.003-0.091,2.194-0.137,3.574-0.137H33v1.533H18.722v-2.5l11.777-4.521v-0.078
		l-11.777-4.561v-2.48H33v1.66H23.8c-1.055,0-2.2-0.045-3.438-0.137v0.078L33,370.962V372.3z"/>
	<path class="st2" d="M22.882,351.509c1.445,0,2.557,0.493,3.335,1.479s1.167,2.397,1.167,4.233v1.68H33v1.66H18.722v-3.701
		C18.722,353.292,20.109,351.509,22.882,351.509z M25.958,358.901v-1.494c0-1.471-0.237-2.536-0.713-3.193s-1.237-0.986-2.285-0.986
		c-0.944,0-1.647,0.309-2.109,0.928s-0.693,1.582-0.693,2.891v1.855H25.958z"/>
	<path class="st2" d="M33,348.521H18.722v-1.66h12.773v-6.299H33V348.521z"/>
	<path class="st2" d="M33,330.181v7.959H18.722v-7.959h1.475v6.299h4.6v-5.918h1.465v5.918h5.254v-6.299H33z"/>
	<path class="st2" d="M33,317.515v1.885l-6.279,3.838L33,327.144v1.758l-7.461-4.746l-6.816,4.424v-1.836l5.654-3.545l-5.654-3.574
		v-1.768l6.758,4.424L33,317.515z"/>
	<path class="st2" d="M33,315.474H18.722v-1.66H33V315.474z"/>
	<path class="st2" d="M33,305.503v1.66H20.197v4.521h-1.475v-10.703h1.475v4.521H33z"/>
	<path class="st2" d="M25.861,295.2l-7.139-3.809v-1.797l8.74,4.766H33v1.68h-5.459l-8.818,4.756v-1.816L25.861,295.2z"/>
	<path class="st2" d="M25.841,270.044c2.285,0,4.082,0.578,5.391,1.733s1.963,2.762,1.963,4.819c0,2.103-0.643,3.726-1.929,4.868
		s-3.101,1.714-5.444,1.714c-2.324,0-4.126-0.573-5.405-1.719s-1.919-2.773-1.919-4.883c0-2.051,0.651-3.652,1.953-4.805
		S23.549,270.044,25.841,270.044z M25.841,281.421c1.934,0,3.4-0.412,4.399-1.235s1.499-2.02,1.499-3.589
		c0-1.582-0.498-2.777-1.494-3.584s-2.464-1.211-4.404-1.211c-1.921,0-3.377,0.402-4.37,1.206s-1.489,1.994-1.489,3.569
		c0,1.582,0.5,2.785,1.499,3.608S23.934,281.421,25.841,281.421z"/>
	<path class="st2" d="M33,265.2v1.66H18.722v-7.959h1.475v6.299h5.225v-5.918h1.475v5.918H33z"/>
	<path class="st2" d="M33,242.368l-4.541,1.777v5.723L33,251.626v1.68l-14.336-5.645v-1.396L33,240.649V242.368z M26.964,244.663
		l-4.424,1.66c-0.56,0.215-1.247,0.436-2.061,0.664c0.625,0.143,1.312,0.348,2.061,0.615l4.424,1.68V244.663z"/>
	<path class="st2" d="M33,227.534v1.895l-11.982,7.803v0.078c1.406-0.104,2.695-0.156,3.867-0.156H33v1.533H18.722v-1.875
		l11.934-7.783v-0.078c-0.176,0.013-0.74,0.042-1.694,0.088s-1.636,0.062-2.046,0.049h-8.193v-1.553H33z"/>
	<path class="st2" d="M33,214.634l-4.541,1.777v5.723L33,223.892v1.68l-14.336-5.645v-1.396L33,212.915V214.634z M26.964,216.929
		l-4.424,1.66c-0.56,0.215-1.247,0.436-2.061,0.664c0.625,0.143,1.312,0.348,2.061,0.615l4.424,1.68V216.929z"/>
	<path class="st2" d="M33,210.952H18.722v-1.66h12.773v-6.299H33V210.952z"/>
	<path class="st2" d="M25.861,196.938l-7.139-3.809v-1.797l8.74,4.766H33v1.68h-5.459l-8.818,4.756v-1.816L25.861,196.938z"/>
	<path class="st2" d="M29.201,181.313c1.257,0,2.236,0.456,2.939,1.367s1.055,2.148,1.055,3.711c0,1.693-0.218,2.995-0.654,3.906
		h-1.602c0.247-0.586,0.442-1.224,0.586-1.914s0.215-1.374,0.215-2.051c0-1.107-0.21-1.94-0.63-2.5s-1.004-0.84-1.753-0.84
		c-0.495,0-0.9,0.099-1.216,0.298s-0.607,0.531-0.874,0.996s-0.569,1.173-0.908,2.124c-0.476,1.328-1.038,2.277-1.689,2.847
		s-1.501,0.854-2.549,0.854c-1.101,0-1.976-0.414-2.627-1.24s-0.977-1.92-0.977-3.281c0-1.419,0.261-2.725,0.781-3.916l1.445,0.518
		c-0.495,1.178-0.742,2.324-0.742,3.438c0,0.879,0.188,1.566,0.566,2.061s0.901,0.742,1.572,0.742c0.495,0,0.9-0.091,1.216-0.273
		s0.605-0.49,0.869-0.923s0.555-1.095,0.874-1.987c0.534-1.498,1.106-2.528,1.719-3.091S28.224,181.313,29.201,181.313z"/>
	<path class="st2" d="M33,178.394H18.722v-1.66H33V178.394z"/>
	<path class="st2" d="M29.201,164.761c1.257,0,2.236,0.456,2.939,1.367s1.055,2.148,1.055,3.711c0,1.693-0.218,2.995-0.654,3.906
		h-1.602c0.247-0.586,0.442-1.224,0.586-1.914s0.215-1.374,0.215-2.051c0-1.107-0.21-1.94-0.63-2.5s-1.004-0.84-1.753-0.84
		c-0.495,0-0.9,0.099-1.216,0.298s-0.607,0.531-0.874,0.996s-0.569,1.173-0.908,2.124c-0.476,1.328-1.038,2.277-1.689,2.847
		s-1.501,0.854-2.549,0.854c-1.101,0-1.976-0.414-2.627-1.24s-0.977-1.92-0.977-3.281c0-1.419,0.261-2.725,0.781-3.916l1.445,0.518
		c-0.495,1.178-0.742,2.324-0.742,3.438c0,0.879,0.188,1.566,0.566,2.061s0.901,0.742,1.572,0.742c0.495,0,0.9-0.091,1.216-0.273
		s0.605-0.49,0.869-0.923s0.555-1.095,0.874-1.987c0.534-1.498,1.106-2.528,1.719-3.091S28.224,164.761,29.201,164.761z"/>
</g>
<g class="st1">
	<path class="st2" d="M298.127,551.723v9.238c0,1.628-0.492,2.907-1.475,3.838s-2.334,1.396-4.053,1.396s-3.048-0.469-3.989-1.406
		s-1.411-2.227-1.411-3.867v-9.199h1.66v9.316c0,1.191,0.326,2.106,0.977,2.744s1.608,0.957,2.871,0.957
		c1.205,0,2.132-0.32,2.783-0.962s0.977-1.561,0.977-2.759v-9.297H298.127z"/>
	<path class="st2" d="M313.059,566h-1.895l-7.803-11.982h-0.078c0.104,1.406,0.156,2.695,0.156,3.867V566h-1.533v-14.277h1.875
		l7.783,11.934h0.078c-0.013-0.176-0.042-0.74-0.088-1.694s-0.062-1.636-0.049-2.046v-8.193h1.553V566z"/>
	<path class="st2" d="M326.038,555.883c0,1.445-0.493,2.557-1.479,3.335s-2.397,1.167-4.233,1.167h-1.68V566h-1.66v-14.277h3.701
		C324.254,551.723,326.038,553.109,326.038,555.883z M318.645,558.959h1.494c1.471,0,2.536-0.237,3.193-0.713
		s0.986-1.237,0.986-2.285c0-0.944-0.309-1.647-0.928-2.109s-1.582-0.693-2.891-0.693h-1.855V558.959z"/>
	<path class="st2" d="M330.686,560.063V566h-1.66v-14.277h3.916c1.751,0,3.045,0.335,3.882,1.006s1.255,1.68,1.255,3.027
		c0,1.888-0.957,3.164-2.871,3.828l3.877,6.416h-1.963l-3.457-5.938H330.686z M330.686,558.637h2.275
		c1.172,0,2.031-0.232,2.578-0.698s0.82-1.164,0.82-2.095c0-0.944-0.278-1.624-0.835-2.041s-1.45-0.625-2.681-0.625h-2.158V558.637z
		"/>
	<path class="st2" d="M349.348,566h-7.959v-14.277h7.959v1.475h-6.299v4.6h5.918v1.465h-5.918v5.254h6.299V566z"/>
	<path class="st2" d="M363.909,558.725c0,2.356-0.64,4.158-1.919,5.405s-3.12,1.87-5.522,1.87h-3.955v-14.277h4.375
		c2.22,0,3.945,0.615,5.176,1.846S363.909,556.518,363.909,558.725z M362.151,558.783c0-1.862-0.467-3.265-1.401-4.209
		s-2.323-1.416-4.165-1.416h-2.412v11.406h2.021c1.979,0,3.467-0.486,4.463-1.46S362.151,560.69,362.151,558.783z"/>
	<path class="st2" d="M367.092,566v-14.277h1.66V566H367.092z"/>
	<path class="st2" d="M378.781,553.002c-1.568,0-2.808,0.522-3.716,1.567s-1.362,2.476-1.362,4.292c0,1.868,0.438,3.313,1.313,4.331
		c0.876,1.019,2.124,1.528,3.745,1.528c0.996,0,2.133-0.179,3.408-0.537v1.455c-0.989,0.371-2.21,0.557-3.662,0.557
		c-2.103,0-3.726-0.638-4.868-1.914s-1.714-3.089-1.714-5.439c0-1.472,0.275-2.761,0.825-3.867c0.551-1.106,1.345-1.96,2.383-2.559
		c1.039-0.599,2.261-0.898,3.667-0.898c1.498,0,2.807,0.273,3.926,0.82l-0.703,1.426
		C380.943,553.256,379.862,553.002,378.781,553.002z"/>
	<path class="st2" d="M389.68,566h-1.66v-12.803h-4.521v-1.475h10.703v1.475h-4.521V566z"/>
	<path class="st2" d="M405.324,566l-1.777-4.541h-5.723L396.066,566h-1.68l5.645-14.336h1.396L407.043,566H405.324z
		 M403.029,559.965l-1.66-4.424c-0.215-0.56-0.436-1.247-0.664-2.061c-0.143,0.625-0.348,1.312-0.615,2.061l-1.68,4.424H403.029z"/>
	<path class="st2" d="M409.006,551.723h4.033c1.895,0,3.266,0.283,4.111,0.85c0.847,0.566,1.27,1.462,1.27,2.686
		c0,0.847-0.235,1.545-0.708,2.095c-0.472,0.55-1.16,0.906-2.065,1.069v0.098c2.168,0.371,3.252,1.511,3.252,3.418
		c0,1.276-0.431,2.272-1.294,2.988c-0.862,0.716-2.068,1.074-3.618,1.074h-4.98V551.723z M410.666,557.836h2.734
		c1.172,0,2.016-0.184,2.529-0.552c0.515-0.368,0.771-0.988,0.771-1.86c0-0.801-0.286-1.379-0.859-1.733
		c-0.572-0.354-1.484-0.532-2.734-0.532h-2.441V557.836z M410.666,559.242v5.342h2.979c1.152,0,2.021-0.223,2.603-0.669
		c0.583-0.446,0.874-1.145,0.874-2.095c0-0.886-0.298-1.536-0.894-1.953s-1.502-0.625-2.72-0.625H410.666z"/>
	<path class="st2" d="M421.965,566v-14.277h1.66V566H421.965z"/>
	<path class="st2" d="M427.541,566v-14.277h1.66v12.773h6.299V566H427.541z"/>
	<path class="st2" d="M437.922,566v-14.277h1.66V566H437.922z"/>
	<path class="st2" d="M447.893,566h-1.66v-12.803h-4.521v-1.475h10.703v1.475h-4.521V566z"/>
	<path class="st2" d="M458.195,558.861l3.809-7.139h1.797l-4.766,8.74V566h-1.68v-5.459l-4.756-8.818h1.816L458.195,558.861z"/>
	<path class="st2" d="M483.352,558.842c0,2.285-0.577,4.082-1.733,5.391c-1.155,1.309-2.762,1.963-4.819,1.963
		c-2.103,0-3.726-0.643-4.868-1.929s-1.714-3.101-1.714-5.444c0-2.324,0.573-4.126,1.719-5.405c1.146-1.279,2.773-1.919,4.883-1.919
		c2.051,0,3.652,0.651,4.805,1.953S483.352,556.55,483.352,558.842z M471.975,558.842c0,1.934,0.412,3.4,1.235,4.399
		c0.824,0.999,2.021,1.499,3.589,1.499c1.582,0,2.777-0.498,3.584-1.494c0.808-0.996,1.211-2.464,1.211-4.404
		c0-1.921-0.401-3.377-1.206-4.37c-0.804-0.993-1.993-1.489-3.569-1.489c-1.582,0-2.784,0.5-3.608,1.499
		C472.387,555.48,471.975,556.935,471.975,558.842z"/>
	<path class="st2" d="M488.195,566h-1.66v-14.277h7.959v1.475h-6.299v5.225h5.918v1.475h-5.918V566z"/>
	<path class="st2" d="M513.449,558.725c0,2.356-0.64,4.158-1.919,5.405s-3.12,1.87-5.522,1.87h-3.955v-14.277h4.375
		c2.221,0,3.945,0.615,5.176,1.846S513.449,556.518,513.449,558.725z M511.691,558.783c0-1.862-0.467-3.265-1.401-4.209
		c-0.934-0.944-2.322-1.416-4.165-1.416h-2.412v11.406h2.021c1.979,0,3.467-0.486,4.463-1.46S511.691,560.69,511.691,558.783z"/>
	<path class="st2" d="M525.607,566l-1.777-4.541h-5.723L516.35,566h-1.68l5.645-14.336h1.396L527.326,566H525.607z M523.313,559.965
		l-1.66-4.424c-0.215-0.56-0.436-1.247-0.664-2.061c-0.143,0.625-0.348,1.312-0.615,2.061l-1.68,4.424H523.313z"/>
	<path class="st2" d="M533.684,566h-1.66v-12.803h-4.521v-1.475h10.703v1.475h-4.521V566z"/>
	<path class="st2" d="M549.328,566l-1.777-4.541h-5.723L540.07,566h-1.68l5.645-14.336h1.396L551.047,566H549.328z M547.033,559.965
		l-1.66-4.424c-0.215-0.56-0.436-1.247-0.664-2.061c-0.143,0.625-0.348,1.312-0.615,2.061l-1.68,4.424H547.033z"/>
</g>
<g class="st1">
	<path class="st2" d="M559.563,560.521c0-1.726,0.252-3.34,0.757-4.844c0.504-1.504,1.231-2.822,2.183-3.955h1.582
		c-0.938,1.257-1.643,2.637-2.114,4.141c-0.473,1.504-0.708,3.05-0.708,4.639c0,1.563,0.24,3.089,0.723,4.58
		c0.481,1.491,1.175,2.852,2.08,4.082h-1.563c-0.957-1.106-1.687-2.399-2.188-3.877C559.813,563.81,559.563,562.221,559.563,560.521
		z"/>
	<path class="st2" d="M574.798,551.723h1.787L571.438,566h-1.641l-5.117-14.277h1.758l3.281,9.238
		c0.377,1.062,0.677,2.093,0.898,3.096c0.234-1.055,0.54-2.106,0.918-3.154L574.798,551.723z"/>
	<path class="st2" d="M587.542,560.639c0,1.745-0.439,3.107-1.318,4.087s-2.094,1.47-3.643,1.47c-0.957,0-1.807-0.225-2.549-0.674
		s-1.315-1.094-1.719-1.934c-0.404-0.84-0.605-1.823-0.605-2.949c0-1.745,0.436-3.104,1.309-4.077
		c0.872-0.974,2.083-1.46,3.633-1.46c1.497,0,2.687,0.498,3.569,1.494C587.101,557.592,587.542,558.939,587.542,560.639z
		 M579.388,560.639c0,1.367,0.273,2.409,0.82,3.125s1.351,1.074,2.412,1.074c1.061,0,1.866-0.356,2.417-1.069
		c0.55-0.713,0.825-1.756,0.825-3.13c0-1.36-0.275-2.395-0.825-3.101c-0.551-0.706-1.362-1.06-2.437-1.06
		c-1.062,0-1.862,0.349-2.402,1.045C579.657,558.22,579.388,559.259,579.388,560.639z"/>
	<path class="st2" d="M592.005,566h-1.621v-15.195h1.621V566z"/>
	<path class="st2" d="M596.966,555.297v6.943c0,0.872,0.198,1.523,0.596,1.953c0.396,0.43,1.019,0.645,1.865,0.645
		c1.119,0,1.938-0.306,2.456-0.918s0.776-1.611,0.776-2.998v-5.625h1.621V566h-1.338l-0.234-1.436h-0.088
		c-0.332,0.527-0.793,0.931-1.382,1.211c-0.59,0.28-1.262,0.42-2.017,0.42c-1.303,0-2.277-0.31-2.925-0.928
		c-0.648-0.618-0.972-1.608-0.972-2.969v-7.002H596.966z"/>
	<path class="st2" d="M621.36,566v-6.963c0-0.853-0.183-1.492-0.547-1.919c-0.365-0.427-0.932-0.64-1.699-0.64
		c-1.01,0-1.755,0.29-2.236,0.869c-0.482,0.579-0.723,1.472-0.723,2.676V566h-1.621v-6.963c0-0.853-0.183-1.492-0.547-1.919
		c-0.365-0.427-0.935-0.64-1.709-0.64c-1.016,0-1.76,0.305-2.231,0.913c-0.473,0.608-0.708,1.606-0.708,2.993V566h-1.621v-10.703
		h1.318l0.264,1.465h0.078c0.306-0.521,0.737-0.928,1.294-1.221s1.18-0.439,1.87-0.439c1.673,0,2.767,0.605,3.281,1.816h0.078
		c0.318-0.56,0.781-1.003,1.387-1.328s1.295-0.488,2.07-0.488c1.211,0,2.117,0.311,2.72,0.933c0.602,0.622,0.903,1.616,0.903,2.983
		V566H621.36z"/>
	<path class="st2" d="M630.843,566.195c-1.582,0-2.831-0.481-3.745-1.445c-0.915-0.964-1.372-2.302-1.372-4.014
		c0-1.726,0.425-3.096,1.274-4.111s1.99-1.523,3.423-1.523c1.341,0,2.402,0.441,3.184,1.323s1.172,2.046,1.172,3.491v1.025h-7.373
		c0.032,1.257,0.35,2.21,0.952,2.861c0.602,0.651,1.45,0.977,2.544,0.977c1.152,0,2.291-0.241,3.418-0.723v1.445
		c-0.573,0.247-1.115,0.425-1.626,0.532C632.182,566.142,631.565,566.195,630.843,566.195z M630.403,556.459
		c-0.859,0-1.545,0.28-2.056,0.84c-0.512,0.56-0.813,1.335-0.903,2.324h5.596c0-1.022-0.229-1.805-0.684-2.349
		C631.9,556.73,631.249,556.459,630.403,556.459z"/>
	<path class="st2" d="M639.241,563.676l0.146,0.225c-0.17,0.651-0.414,1.408-0.732,2.271c-0.319,0.862-0.651,1.665-0.996,2.407
		h-1.221c0.176-0.677,0.369-1.514,0.581-2.51c0.211-0.996,0.359-1.794,0.444-2.393H639.241z"/>
	<path class="st2" d="M656.038,551.723h1.787L652.679,566h-1.641l-5.117-14.277h1.758l3.281,9.238
		c0.377,1.062,0.677,2.093,0.898,3.096c0.234-1.055,0.54-2.106,0.918-3.154L656.038,551.723z"/>
	<path class="st2" d="M666.126,566l-0.322-1.523h-0.078c-0.534,0.671-1.066,1.125-1.597,1.362c-0.531,0.237-1.193,0.356-1.987,0.356
		c-1.062,0-1.894-0.273-2.495-0.82c-0.603-0.547-0.903-1.325-0.903-2.334c0-2.161,1.729-3.294,5.186-3.398l1.816-0.059v-0.664
		c0-0.84-0.181-1.46-0.542-1.86s-0.939-0.601-1.733-0.601c-0.893,0-1.901,0.273-3.027,0.82l-0.498-1.24
		c0.527-0.286,1.104-0.511,1.733-0.674c0.628-0.163,1.258-0.244,1.89-0.244c1.275,0,2.222,0.283,2.837,0.85s0.923,1.475,0.923,2.725
		V566H666.126z M662.464,564.857c1.009,0,1.802-0.276,2.378-0.83s0.864-1.328,0.864-2.324v-0.967l-1.621,0.068
		c-1.289,0.046-2.219,0.246-2.788,0.601c-0.57,0.354-0.854,0.906-0.854,1.655c0,0.586,0.177,1.032,0.532,1.338
		C661.329,564.704,661.825,564.857,662.464,564.857z"/>
	<path class="st2" d="M675.55,555.102c0.475,0,0.901,0.039,1.279,0.117l-0.225,1.504c-0.443-0.098-0.834-0.146-1.172-0.146
		c-0.866,0-1.606,0.352-2.222,1.055s-0.923,1.579-0.923,2.627V566h-1.621v-10.703h1.338l0.186,1.982h0.078
		c0.396-0.696,0.875-1.233,1.436-1.611C674.264,555.29,674.879,555.102,675.55,555.102z"/>
	<path class="st2" d="M678.694,552.396c0-0.371,0.091-0.643,0.273-0.815c0.182-0.173,0.41-0.259,0.684-0.259
		c0.26,0,0.484,0.088,0.674,0.264c0.188,0.176,0.283,0.446,0.283,0.811s-0.095,0.637-0.283,0.815
		c-0.189,0.179-0.414,0.269-0.674,0.269c-0.273,0-0.502-0.09-0.684-0.269C678.785,553.033,678.694,552.761,678.694,552.396z
		 M680.452,566h-1.621v-10.703h1.621V566z"/>
	<path class="st2" d="M688.411,566.195c-1.582,0-2.831-0.481-3.745-1.445c-0.915-0.964-1.372-2.302-1.372-4.014
		c0-1.726,0.425-3.096,1.274-4.111s1.99-1.523,3.423-1.523c1.341,0,2.402,0.441,3.184,1.323s1.172,2.046,1.172,3.491v1.025h-7.373
		c0.032,1.257,0.35,2.21,0.952,2.861c0.602,0.651,1.45,0.977,2.544,0.977c1.152,0,2.291-0.241,3.418-0.723v1.445
		c-0.573,0.247-1.115,0.425-1.626,0.532C689.75,566.142,689.134,566.195,688.411,566.195z M687.972,556.459
		c-0.859,0-1.545,0.28-2.056,0.84c-0.512,0.56-0.813,1.335-0.903,2.324h5.596c0-1.022-0.229-1.805-0.684-2.349
		C689.469,556.73,688.817,556.459,687.972,556.459z"/>
	<path class="st2" d="M698.567,564.857c0.286,0,0.563-0.021,0.83-0.063c0.267-0.042,0.479-0.086,0.635-0.132v1.24
		c-0.176,0.085-0.435,0.154-0.776,0.21s-0.649,0.083-0.923,0.083c-2.07,0-3.105-1.091-3.105-3.271v-6.367h-1.533v-0.781l1.533-0.674
		l0.684-2.285h0.938v2.48h3.105v1.26h-3.105v6.299c0,0.645,0.152,1.14,0.459,1.484C697.613,564.685,698.033,564.857,698.567,564.857
		z"/>
	<path class="st2" d="M700.472,555.297h1.738l2.344,6.104c0.514,1.394,0.833,2.399,0.957,3.018h0.078
		c0.084-0.332,0.262-0.9,0.532-1.704c0.27-0.804,1.153-3.276,2.651-7.417h1.738l-4.6,12.188c-0.456,1.204-0.988,2.059-1.597,2.563
		c-0.609,0.505-1.356,0.757-2.241,0.757c-0.495,0-0.983-0.056-1.465-0.166v-1.299c0.357,0.078,0.758,0.117,1.201,0.117
		c1.113,0,1.907-0.625,2.383-1.875l0.596-1.523L700.472,555.297z"/>
	<path class="st2" d="M716.829,562.299c0-0.847,0.226-1.595,0.679-2.246c0.452-0.651,1.265-1.309,2.437-1.973
		c-0.554-0.618-0.93-1.087-1.128-1.406c-0.199-0.319-0.356-0.651-0.474-0.996s-0.176-0.703-0.176-1.074
		c0-0.977,0.318-1.738,0.957-2.285c0.638-0.547,1.526-0.82,2.666-0.82c1.055,0,1.885,0.271,2.49,0.815s0.908,1.301,0.908,2.271
		c0,0.696-0.222,1.34-0.664,1.929c-0.443,0.589-1.176,1.187-2.197,1.792l3.975,3.818c0.364-0.403,0.655-0.877,0.874-1.421
		c0.218-0.544,0.401-1.138,0.552-1.782h1.641c-0.443,1.862-1.11,3.274-2.002,4.238l2.92,2.842h-2.236l-1.807-1.738
		c-0.769,0.69-1.55,1.185-2.344,1.484c-0.795,0.3-1.68,0.449-2.656,0.449c-1.4,0-2.485-0.345-3.257-1.035
		S716.829,563.517,716.829,562.299z M721.282,564.74c1.568,0,2.871-0.501,3.906-1.504l-4.268-4.141
		c-0.723,0.442-1.234,0.809-1.533,1.099c-0.3,0.29-0.521,0.601-0.664,0.933c-0.144,0.332-0.215,0.71-0.215,1.133
		c0,0.762,0.252,1.365,0.757,1.812C719.77,564.518,720.442,564.74,721.282,564.74z M719.769,554.564
		c0,0.449,0.117,0.877,0.352,1.284s0.635,0.896,1.201,1.47c0.84-0.488,1.424-0.939,1.753-1.353c0.328-0.413,0.493-0.891,0.493-1.431
		c0-0.501-0.168-0.91-0.503-1.226c-0.336-0.315-0.783-0.474-1.343-0.474c-0.58,0-1.05,0.156-1.411,0.469
		S719.769,554.037,719.769,554.564z"/>
	<path class="st2" d="M745.638,551.723h1.787L742.278,566h-1.641l-5.117-14.277h1.758l3.281,9.238
		c0.377,1.062,0.677,2.093,0.898,3.096c0.234-1.055,0.54-2.106,0.918-3.154L745.638,551.723z"/>
	<path class="st2" d="M753.665,566.195c-1.582,0-2.831-0.481-3.745-1.445c-0.915-0.964-1.372-2.302-1.372-4.014
		c0-1.726,0.425-3.096,1.274-4.111s1.99-1.523,3.423-1.523c1.341,0,2.402,0.441,3.184,1.323s1.172,2.046,1.172,3.491v1.025h-7.373
		c0.032,1.257,0.35,2.21,0.952,2.861c0.602,0.651,1.45,0.977,2.544,0.977c1.152,0,2.291-0.241,3.418-0.723v1.445
		c-0.573,0.247-1.115,0.425-1.626,0.532C755.004,566.142,754.388,566.195,753.665,566.195z M753.226,556.459
		c-0.859,0-1.545,0.28-2.056,0.84c-0.512,0.56-0.813,1.335-0.903,2.324h5.596c0-1.022-0.229-1.805-0.684-2.349
		C754.723,556.73,754.071,556.459,753.226,556.459z"/>
	<path class="st2" d="M761.985,566h-1.621v-15.195h1.621V566z"/>
	<path class="st2" d="M774.661,560.639c0,1.745-0.439,3.107-1.318,4.087s-2.094,1.47-3.643,1.47c-0.957,0-1.807-0.225-2.549-0.674
		s-1.315-1.094-1.719-1.934c-0.404-0.84-0.605-1.823-0.605-2.949c0-1.745,0.436-3.104,1.309-4.077
		c0.872-0.974,2.083-1.46,3.633-1.46c1.497,0,2.687,0.498,3.569,1.494C774.22,557.592,774.661,558.939,774.661,560.639z
		 M766.507,560.639c0,1.367,0.273,2.409,0.82,3.125s1.351,1.074,2.412,1.074c1.061,0,1.866-0.356,2.417-1.069
		c0.55-0.713,0.825-1.756,0.825-3.13c0-1.36-0.275-2.395-0.825-3.101c-0.551-0.706-1.362-1.06-2.437-1.06
		c-1.062,0-1.862,0.349-2.402,1.045C766.776,558.22,766.507,559.259,766.507,560.639z"/>
	<path class="st2" d="M781.78,566.195c-1.55,0-2.749-0.477-3.599-1.431s-1.274-2.303-1.274-4.048c0-1.79,0.431-3.174,1.294-4.15
		c0.862-0.977,2.091-1.465,3.687-1.465c0.514,0,1.028,0.056,1.543,0.166c0.514,0.11,0.918,0.241,1.211,0.391l-0.498,1.377
		c-0.358-0.144-0.749-0.262-1.172-0.356c-0.424-0.095-0.798-0.142-1.123-0.142c-2.175,0-3.262,1.387-3.262,4.16
		c0,1.315,0.265,2.324,0.796,3.027c0.53,0.703,1.316,1.055,2.358,1.055c0.892,0,1.807-0.192,2.744-0.576v1.436
		C783.769,566.01,782.867,566.195,781.78,566.195z"/>
	<path class="st2" d="M786.888,552.396c0-0.371,0.091-0.643,0.273-0.815c0.182-0.173,0.41-0.259,0.684-0.259
		c0.26,0,0.484,0.088,0.674,0.264c0.188,0.176,0.283,0.446,0.283,0.811s-0.095,0.637-0.283,0.815
		c-0.189,0.179-0.414,0.269-0.674,0.269c-0.273,0-0.502-0.09-0.684-0.269C786.979,553.033,786.888,552.761,786.888,552.396z
		 M788.646,566h-1.621v-10.703h1.621V566z"/>
	<path class="st2" d="M795.54,564.857c0.286,0,0.563-0.021,0.83-0.063c0.267-0.042,0.479-0.086,0.635-0.132v1.24
		c-0.176,0.085-0.435,0.154-0.776,0.21s-0.649,0.083-0.923,0.083c-2.07,0-3.105-1.091-3.105-3.271v-6.367h-1.533v-0.781l1.533-0.674
		l0.684-2.285h0.938v2.48h3.105v1.26h-3.105v6.299c0,0.645,0.152,1.14,0.459,1.484C794.586,564.685,795.006,564.857,795.54,564.857z
		"/>
	<path class="st2" d="M797.444,555.297h1.738l2.344,6.104c0.514,1.394,0.833,2.399,0.957,3.018h0.078
		c0.084-0.332,0.262-0.9,0.532-1.704c0.27-0.804,1.153-3.276,2.651-7.417h1.738l-4.6,12.188c-0.456,1.204-0.988,2.059-1.597,2.563
		c-0.609,0.505-1.356,0.757-2.241,0.757c-0.495,0-0.983-0.056-1.465-0.166v-1.299c0.357,0.078,0.758,0.117,1.201,0.117
		c1.113,0,1.907-0.625,2.383-1.875l0.596-1.523L797.444,555.297z"/>
	<path class="st2" d="M812.62,560.521c0,1.712-0.253,3.308-0.757,4.785c-0.505,1.478-1.232,2.764-2.183,3.857h-1.563
		c0.904-1.224,1.598-2.583,2.08-4.077c0.481-1.494,0.723-3.022,0.723-4.585c0-1.589-0.236-3.135-0.708-4.639
		c-0.473-1.504-1.177-2.884-2.114-4.141h1.582c0.957,1.14,1.686,2.463,2.188,3.97C812.369,557.199,812.62,558.81,812.62,560.521z"/>
</g>
<g id="box" clip-path="url(#clip-box-data)">
	<g id="box-data">
		
		<radialGradient id="Blue_1_" cx="-233.4814" cy="900.8616" r="0.8597" gradientTransform="matrix(420.2733 -116.0441 -116.044 -420.2735 202739.625 352031.0938)" gradientUnits="userSpaceOnUse">
			<stop  offset="0" style="stop-color:#C2E6FA"/>
			<stop  offset="1" style="stop-color:#2E89BD"/>
		</radialGradient>
		<rect id="Blue" x="74" y="81" class="st3" width="850" height="436"/>
		
		<linearGradient id="Pink-Horizontal_1_" gradientUnits="userSpaceOnUse" x1="-234.2142" y1="901.4988" x2="-233.7934" y2="901.4988" gradientTransform="matrix(-850 0 0 439 -198210 -395459)">
			<stop  offset="0" style="stop-color:#ED1E79"/>
			<stop  offset="1" style="stop-color:#ED1E79;stop-opacity:0"/>
		</linearGradient>
		<rect id="Pink-Horizontal" x="74" y="81" class="st4" width="850" height="436"/>
		
		<linearGradient id="Pink-Vertical_1_" gradientUnits="userSpaceOnUse" x1="-233.9558" y1="901.7744" x2="-233.4901" y2="901.7744" gradientTransform="matrix(-8.000000e-014 436 851 1.560000e-013 -766911 102106)">
			<stop  offset="0" style="stop-color:#ED1E79"/>
			<stop  offset="1" style="stop-color:#ED1E79;stop-opacity:0"/>
		</linearGradient>
		<rect id="Pink-Vertical" x="74" y="81" class="st5" width="850" height="435"/>
	</g>
	<g id="TD-text">
		<g class="st1">
				<path class="st6" d="M155.585,432.68c0,1.886-0.512,3.327-1.535,4.324s-2.496,1.496-4.418,1.496h-3.164v-11.422h3.5
					c1.776,0,3.156,0.492,4.141,1.477S155.585,430.915,155.585,432.68z M154.179,432.727c0-1.489-0.374-2.612-1.121-3.367
					s-1.858-1.133-3.332-1.133h-1.93v9.125h1.617c1.583,0,2.773-0.39,3.57-1.168S154.179,434.253,154.179,432.727z"/>
				<path class="st6" d="M163.202,438.5l-0.258-1.219h-0.063c-0.427,0.536-0.853,0.899-1.277,1.09s-0.954,0.285-1.59,0.285
					c-0.849,0-1.515-0.219-1.996-0.656s-0.723-1.06-0.723-1.867c0-1.729,1.383-2.636,4.148-2.719l1.453-0.047v-0.531
					c0-0.672-0.145-1.168-0.434-1.488s-0.751-0.48-1.387-0.48c-0.714,0-1.521,0.219-2.422,0.656l-0.398-0.992
					c0.422-0.229,0.884-0.409,1.387-0.539s1.007-0.195,1.512-0.195c1.021,0,1.777,0.227,2.27,0.68s0.738,1.18,0.738,2.18v5.844
					H163.202z M160.272,437.586c0.808,0,1.441-0.222,1.902-0.664s0.691-1.063,0.691-1.859v-0.773l-1.297,0.055
					c-1.031,0.036-1.774,0.196-2.23,0.48s-0.684,0.726-0.684,1.324c0,0.469,0.142,0.825,0.426,1.07S159.762,437.586,160.272,437.586z"
					/>
				<path class="st6" d="M169.601,437.586c0.229,0,0.45-0.017,0.664-0.051s0.383-0.069,0.508-0.105v0.992
					c-0.141,0.067-0.348,0.124-0.621,0.168s-0.52,0.066-0.738,0.066c-1.656,0-2.484-0.872-2.484-2.617v-5.094h-1.227v-0.625
					l1.227-0.539l0.547-1.828h0.75v1.984h2.484v1.008h-2.484v5.039c0,0.516,0.122,0.911,0.367,1.188S169.174,437.586,169.601,437.586z
					"/>
				<path class="st6" d="M177.749,438.5l-0.258-1.219h-0.063c-0.427,0.536-0.853,0.899-1.277,1.09s-0.954,0.285-1.59,0.285
					c-0.849,0-1.515-0.219-1.996-0.656s-0.723-1.06-0.723-1.867c0-1.729,1.383-2.636,4.148-2.719l1.453-0.047v-0.531
					c0-0.672-0.145-1.168-0.434-1.488s-0.751-0.48-1.387-0.48c-0.714,0-1.521,0.219-2.422,0.656l-0.398-0.992
					c0.422-0.229,0.884-0.409,1.387-0.539s1.007-0.195,1.512-0.195c1.021,0,1.777,0.227,2.27,0.68s0.738,1.18,0.738,2.18v5.844
					H177.749z M174.819,437.586c0.808,0,1.441-0.222,1.902-0.664s0.691-1.063,0.691-1.859v-0.773l-1.297,0.055
					c-1.031,0.036-1.774,0.196-2.23,0.48s-0.684,0.726-0.684,1.324c0,0.469,0.142,0.825,0.426,1.07S174.309,437.586,174.819,437.586z"
					/>
				<path class="st6" d="M192.257,427.079h1.43l-4.117,11.422h-1.313l-4.094-11.422h1.406l2.625,7.391
					c0.302,0.849,0.542,1.675,0.719,2.477c0.188-0.844,0.433-1.685,0.734-2.523L192.257,427.079z"/>
				<path class="st6" d="M200.327,438.5l-0.258-1.219h-0.063c-0.427,0.536-0.853,0.899-1.277,1.09s-0.954,0.285-1.59,0.285
					c-0.849,0-1.515-0.219-1.996-0.656s-0.723-1.06-0.723-1.867c0-1.729,1.383-2.636,4.148-2.719l1.453-0.047v-0.531
					c0-0.672-0.145-1.168-0.434-1.488s-0.751-0.48-1.387-0.48c-0.714,0-1.521,0.219-2.422,0.656l-0.398-0.992
					c0.422-0.229,0.884-0.409,1.387-0.539s1.007-0.195,1.512-0.195c1.021,0,1.777,0.227,2.27,0.68s0.738,1.18,0.738,2.18v5.844
					H200.327z M197.397,437.586c0.808,0,1.441-0.222,1.902-0.664s0.691-1.063,0.691-1.859v-0.773l-1.297,0.055
					c-1.031,0.036-1.774,0.196-2.23,0.48s-0.684,0.726-0.684,1.324c0,0.469,0.142,0.825,0.426,1.07S196.887,437.586,197.397,437.586z"
					/>
				<path class="st6" d="M205.257,438.5h-1.297v-12.156h1.297V438.5z"/>
				<path class="st6" d="M207.897,427.618c0-0.297,0.073-0.515,0.219-0.652s0.328-0.207,0.547-0.207c0.208,0,0.388,0.07,0.539,0.211
					s0.227,0.356,0.227,0.648s-0.075,0.509-0.227,0.652s-0.331,0.215-0.539,0.215c-0.219,0-0.401-0.071-0.547-0.215
					S207.897,427.91,207.897,427.618z M209.304,438.5h-1.297v-8.563h1.297V438.5z"/>
				<path class="st6" d="M217.882,437.352h-0.07c-0.599,0.87-1.495,1.305-2.688,1.305c-1.12,0-1.991-0.383-2.613-1.148
					s-0.934-1.854-0.934-3.266s0.313-2.508,0.938-3.289s1.495-1.172,2.609-1.172c1.161,0,2.052,0.422,2.672,1.266h0.102l-0.055-0.617
					l-0.031-0.602v-3.484h1.297V438.5h-1.055L217.882,437.352z M215.288,437.571c0.886,0,1.527-0.241,1.926-0.723
					s0.598-1.259,0.598-2.332v-0.273c0-1.214-0.202-2.079-0.605-2.598s-1.048-0.777-1.934-0.777c-0.761,0-1.343,0.296-1.746,0.887
					s-0.605,1.426-0.605,2.504c0,1.094,0.2,1.919,0.602,2.477S214.512,437.571,215.288,437.571z"/>
				<path class="st6" d="M227.124,438.5l-0.258-1.219h-0.063c-0.427,0.536-0.853,0.899-1.277,1.09s-0.954,0.285-1.59,0.285
					c-0.849,0-1.515-0.219-1.996-0.656s-0.723-1.06-0.723-1.867c0-1.729,1.383-2.636,4.148-2.719l1.453-0.047v-0.531
					c0-0.672-0.145-1.168-0.434-1.488s-0.751-0.48-1.387-0.48c-0.714,0-1.521,0.219-2.422,0.656l-0.398-0.992
					c0.422-0.229,0.884-0.409,1.387-0.539s1.007-0.195,1.512-0.195c1.021,0,1.777,0.227,2.27,0.68s0.738,1.18,0.738,2.18v5.844
					H227.124z M224.194,437.586c0.808,0,1.441-0.222,1.902-0.664s0.691-1.063,0.691-1.859v-0.773l-1.297,0.055
					c-1.031,0.036-1.774,0.196-2.23,0.48s-0.684,0.726-0.684,1.324c0,0.469,0.142,0.825,0.426,1.07S223.684,437.586,224.194,437.586z"
					/>
				<path class="st6" d="M233.522,437.586c0.229,0,0.45-0.017,0.664-0.051s0.383-0.069,0.508-0.105v0.992
					c-0.141,0.067-0.348,0.124-0.621,0.168s-0.52,0.066-0.738,0.066c-1.656,0-2.484-0.872-2.484-2.617v-5.094h-1.227v-0.625
					l1.227-0.539l0.547-1.828h0.75v1.984h2.484v1.008h-2.484v5.039c0,0.516,0.122,0.911,0.367,1.188S233.096,437.586,233.522,437.586z
					"/>
				<path class="st6" d="M240.022,438.657c-1.266,0-2.265-0.386-2.996-1.156s-1.098-1.841-1.098-3.211c0-1.38,0.34-2.477,1.02-3.289
					s1.593-1.219,2.738-1.219c1.073,0,1.922,0.353,2.547,1.059s0.938,1.637,0.938,2.793v0.82h-5.898
					c0.026,1.005,0.28,1.769,0.762,2.289s1.16,0.781,2.035,0.781c0.922,0,1.833-0.192,2.734-0.578v1.156
					c-0.458,0.198-0.892,0.34-1.301,0.426S240.601,438.657,240.022,438.657z M239.671,430.868c-0.688,0-1.235,0.224-1.645,0.672
					s-0.649,1.067-0.723,1.859h4.477c0-0.817-0.183-1.444-0.547-1.879S240.348,430.868,239.671,430.868z"/>
				<path class="st6" d="M251.21,437.352h-0.07c-0.599,0.87-1.495,1.305-2.688,1.305c-1.12,0-1.991-0.383-2.613-1.148
					s-0.934-1.854-0.934-3.266s0.313-2.508,0.938-3.289s1.495-1.172,2.609-1.172c1.161,0,2.052,0.422,2.672,1.266h0.102l-0.055-0.617
					l-0.031-0.602v-3.484h1.297V438.5h-1.055L251.21,437.352z M248.616,437.571c0.886,0,1.527-0.241,1.926-0.723
					s0.598-1.259,0.598-2.332v-0.273c0-1.214-0.202-2.079-0.605-2.598s-1.048-0.777-1.934-0.777c-0.761,0-1.343,0.296-1.746,0.887
					s-0.605,1.426-0.605,2.504c0,1.094,0.2,1.919,0.602,2.477S247.84,437.571,248.616,437.571z"/>
				<path class="st6" d="M259.538,427.079h3.227c1.516,0,2.612,0.227,3.289,0.68s1.016,1.169,1.016,2.148
					c0,0.677-0.188,1.235-0.566,1.676s-0.929,0.726-1.652,0.855v0.078c1.734,0.297,2.602,1.208,2.602,2.734
					c0,1.021-0.345,1.817-1.035,2.391s-1.655,0.859-2.895,0.859h-3.984V427.079z M260.866,431.969h2.188
					c0.938,0,1.612-0.147,2.023-0.441s0.617-0.79,0.617-1.488c0-0.641-0.229-1.103-0.688-1.387s-1.188-0.426-2.188-0.426h-1.953
					V431.969z M260.866,433.094v4.273h2.383c0.922,0,1.616-0.179,2.082-0.535s0.699-0.915,0.699-1.676
					c0-0.708-0.238-1.229-0.715-1.563s-1.202-0.5-2.176-0.5H260.866z"/>
				<path class="st6" d="M270.929,429.938v5.555c0,0.698,0.159,1.219,0.477,1.563s0.815,0.516,1.492,0.516
					c0.896,0,1.551-0.245,1.965-0.734s0.621-1.289,0.621-2.398v-4.5h1.297v8.563h-1.07l-0.188-1.148h-0.07
					c-0.266,0.422-0.634,0.745-1.105,0.969s-1.009,0.336-1.613,0.336c-1.042,0-1.821-0.247-2.34-0.742s-0.777-1.286-0.777-2.375
					v-5.602H270.929z"/>
				<path class="st6" d="M285.054,436.165c0,0.797-0.297,1.411-0.891,1.844s-1.427,0.648-2.5,0.648c-1.136,0-2.021-0.18-2.656-0.539
					v-1.203c0.411,0.208,0.853,0.372,1.324,0.492s0.926,0.18,1.363,0.18c0.677,0,1.198-0.108,1.563-0.324s0.547-0.546,0.547-0.988
					c0-0.333-0.145-0.618-0.434-0.855s-0.853-0.517-1.691-0.84c-0.797-0.297-1.363-0.556-1.699-0.777s-0.586-0.473-0.75-0.754
					s-0.246-0.617-0.246-1.008c0-0.698,0.284-1.249,0.852-1.652s1.347-0.605,2.336-0.605c0.922,0,1.823,0.188,2.703,0.563
					l-0.461,1.055c-0.859-0.354-1.638-0.531-2.336-0.531c-0.614,0-1.078,0.097-1.391,0.289s-0.469,0.458-0.469,0.797
					c0,0.229,0.059,0.425,0.176,0.586s0.306,0.315,0.566,0.461s0.761,0.356,1.5,0.633c1.016,0.37,1.702,0.742,2.059,1.117
					S285.054,435.597,285.054,436.165z"/>
				<path class="st6" d="M287.054,427.618c0-0.297,0.073-0.515,0.219-0.652s0.328-0.207,0.547-0.207c0.208,0,0.388,0.07,0.539,0.211
					s0.227,0.356,0.227,0.648s-0.075,0.509-0.227,0.652s-0.331,0.215-0.539,0.215c-0.219,0-0.401-0.071-0.547-0.215
					S287.054,427.91,287.054,427.618z M288.46,438.5h-1.297v-8.563h1.297V438.5z"/>
				<path class="st6" d="M297.069,438.5v-5.539c0-0.698-0.159-1.219-0.477-1.563s-0.815-0.516-1.492-0.516
					c-0.896,0-1.552,0.242-1.969,0.727s-0.625,1.284-0.625,2.398v4.492h-1.297v-8.563h1.055l0.211,1.172h0.063
					c0.266-0.422,0.638-0.749,1.117-0.98s1.013-0.348,1.602-0.348c1.031,0,1.808,0.249,2.328,0.746s0.781,1.293,0.781,2.387v5.586
					H297.069z"/>
				<path class="st6" d="M304.647,438.657c-1.266,0-2.265-0.386-2.996-1.156s-1.098-1.841-1.098-3.211c0-1.38,0.34-2.477,1.02-3.289
					s1.593-1.219,2.738-1.219c1.073,0,1.922,0.353,2.547,1.059s0.938,1.637,0.938,2.793v0.82h-5.898
					c0.026,1.005,0.28,1.769,0.762,2.289s1.16,0.781,2.035,0.781c0.922,0,1.833-0.192,2.734-0.578v1.156
					c-0.458,0.198-0.892,0.34-1.301,0.426S305.226,438.657,304.647,438.657z M304.296,430.868c-0.688,0-1.235,0.224-1.645,0.672
					s-0.649,1.067-0.723,1.859h4.477c0-0.817-0.183-1.444-0.547-1.879S304.973,430.868,304.296,430.868z"/>
				<path class="st6" d="M315.53,436.165c0,0.797-0.297,1.411-0.891,1.844s-1.427,0.648-2.5,0.648c-1.136,0-2.021-0.18-2.656-0.539
					v-1.203c0.411,0.208,0.853,0.372,1.324,0.492s0.926,0.18,1.363,0.18c0.677,0,1.198-0.108,1.563-0.324s0.547-0.546,0.547-0.988
					c0-0.333-0.145-0.618-0.434-0.855s-0.853-0.517-1.691-0.84c-0.797-0.297-1.363-0.556-1.699-0.777s-0.586-0.473-0.75-0.754
					s-0.246-0.617-0.246-1.008c0-0.698,0.284-1.249,0.852-1.652s1.347-0.605,2.336-0.605c0.922,0,1.823,0.188,2.703,0.563
					l-0.461,1.055c-0.859-0.354-1.638-0.531-2.336-0.531c-0.614,0-1.078,0.097-1.391,0.289s-0.469,0.458-0.469,0.797
					c0,0.229,0.059,0.425,0.176,0.586s0.306,0.315,0.566,0.461s0.761,0.356,1.5,0.633c1.016,0.37,1.702,0.742,2.059,1.117
					S315.53,435.597,315.53,436.165z"/>
				<path class="st6" d="M323.163,436.165c0,0.797-0.297,1.411-0.891,1.844s-1.427,0.648-2.5,0.648c-1.136,0-2.021-0.18-2.656-0.539
					v-1.203c0.411,0.208,0.853,0.372,1.324,0.492s0.926,0.18,1.363,0.18c0.677,0,1.198-0.108,1.563-0.324s0.547-0.546,0.547-0.988
					c0-0.333-0.145-0.618-0.434-0.855s-0.853-0.517-1.691-0.84c-0.797-0.297-1.363-0.556-1.699-0.777s-0.586-0.473-0.75-0.754
					s-0.246-0.617-0.246-1.008c0-0.698,0.284-1.249,0.852-1.652s1.347-0.605,2.336-0.605c0.922,0,1.823,0.188,2.703,0.563
					l-0.461,1.055c-0.859-0.354-1.638-0.531-2.336-0.531c-0.614,0-1.078,0.097-1.391,0.289s-0.469,0.458-0.469,0.797
					c0,0.229,0.059,0.425,0.176,0.586s0.306,0.315,0.566,0.461s0.761,0.356,1.5,0.633c1.016,0.37,1.702,0.742,2.059,1.117
					S323.163,435.597,323.163,436.165z"/>
		</g>
		<g class="st1">
			<path class="st6" d="M152.527,415.5h-1.992v-15.363h-5.426v-1.77h12.844v1.77h-5.426V415.5z"/>
			<path class="st6" d="M162.523,408.375v7.125h-1.992v-17.133h4.699c2.102,0,3.654,0.402,4.658,1.207s1.506,2.016,1.506,3.633
				c0,2.266-1.148,3.797-3.445,4.594l4.652,7.699h-2.355l-4.148-7.125H162.523z M162.523,406.665h2.73
				c1.406,0,2.438-0.279,3.094-0.838s0.984-1.396,0.984-2.514c0-1.133-0.334-1.949-1.002-2.449s-1.74-0.75-3.217-0.75h-2.59V406.665z"
				/>
			<path class="st6" d="M186.136,415.5l-2.133-5.449h-6.867l-2.109,5.449h-2.016l6.773-17.203h1.676l6.738,17.203H186.136z
				 M183.382,408.258l-1.992-5.309c-0.258-0.672-0.523-1.496-0.797-2.473c-0.172,0.75-0.418,1.574-0.738,2.473l-2.016,5.309H183.382z"
				/>
			<path class="st6" d="M204.23,406.77c0,2.828-0.768,4.99-2.303,6.486s-3.744,2.244-6.627,2.244h-4.746v-17.133h5.25
				c2.664,0,4.734,0.738,6.211,2.215S204.23,404.122,204.23,406.77z M202.121,406.84c0-2.234-0.561-3.918-1.682-5.051
				s-2.787-1.699-4.998-1.699h-2.895v13.688h2.426c2.375,0,4.16-0.584,5.355-1.752S202.121,409.129,202.121,406.84z"/>
			<path class="st6" d="M208.05,415.5v-17.133h1.992V415.5H208.05z"/>
			<path class="st6" d="M220.015,415.5h-1.992v-15.363h-5.426v-1.77h12.844v1.77h-5.426V415.5z"/>
			<path class="st6" d="M228.019,415.5v-17.133h1.992V415.5H228.019z"/>
			<path class="st6" d="M249.582,406.911c0,2.742-0.693,4.898-2.08,6.469s-3.314,2.355-5.783,2.355c-2.523,0-4.471-0.771-5.842-2.314
				s-2.057-3.721-2.057-6.533c0-2.789,0.688-4.951,2.063-6.486s3.328-2.303,5.859-2.303c2.461,0,4.383,0.781,5.766,2.344
				S249.582,404.161,249.582,406.911z M235.929,406.911c0,2.32,0.494,4.08,1.482,5.279s2.424,1.799,4.307,1.799
				c1.898,0,3.332-0.598,4.301-1.793s1.453-2.957,1.453-5.285c0-2.305-0.482-4.053-1.447-5.244s-2.393-1.787-4.283-1.787
				c-1.898,0-3.342,0.6-4.33,1.799S235.929,404.622,235.929,406.911z"/>
			<path class="st6" d="M266.785,415.5h-2.273l-9.363-14.379h-0.094c0.125,1.688,0.188,3.234,0.188,4.641v9.738h-1.84v-17.133h2.25
				l9.34,14.32h0.094c-0.016-0.211-0.051-0.889-0.105-2.033s-0.074-1.963-0.059-2.455v-9.832h1.863V415.5z"/>
			<path class="st6" d="M282.265,415.5l-2.133-5.449h-6.867l-2.109,5.449h-2.016l6.773-17.203h1.676l6.738,17.203H282.265z
				 M279.511,408.258l-1.992-5.309c-0.258-0.672-0.523-1.496-0.797-2.473c-0.172,0.75-0.418,1.574-0.738,2.473l-2.016,5.309H279.511z"
				/>
			<path class="st6" d="M286.683,415.5v-17.133h1.992v15.328h7.559v1.805H286.683z"/>
			<path class="st6" d="M319.05,406.77c0,2.828-0.768,4.99-2.303,6.486s-3.744,2.244-6.627,2.244h-4.746v-17.133h5.25
				c2.664,0,4.734,0.738,6.211,2.215S319.05,404.122,319.05,406.77z M316.941,406.84c0-2.234-0.561-3.918-1.682-5.051
				s-2.787-1.699-4.998-1.699h-2.895v13.688h2.426c2.375,0,4.16-0.584,5.355-1.752S316.941,409.129,316.941,406.84z"/>
			<path class="st6" d="M333.64,415.5l-2.133-5.449h-6.867l-2.109,5.449h-2.016l6.773-17.203h1.676l6.738,17.203H333.64z
				 M330.886,408.258l-1.992-5.309c-0.258-0.672-0.523-1.496-0.797-2.473c-0.172,0.75-0.418,1.574-0.738,2.473l-2.016,5.309H330.886z"
				/>
			<path class="st6" d="M343.332,415.5h-1.992v-15.363h-5.426v-1.77h12.844v1.77h-5.426V415.5z"/>
			<path class="st6" d="M362.105,415.5l-2.133-5.449h-6.867l-2.109,5.449h-2.016l6.773-17.203h1.676l6.738,17.203H362.105z
				 M359.351,408.258l-1.992-5.309c-0.258-0.672-0.523-1.496-0.797-2.473c-0.172,0.75-0.418,1.574-0.738,2.473l-2.016,5.309H359.351z"
				/>
		</g>
	</g>
	<g id="BD-text">
		<g class="st1">
				<path class="st6" d="M365.745,331.953c0,2.121-0.576,3.743-1.727,4.864c-1.151,1.123-2.808,1.684-4.97,1.684h-3.56v-12.85h3.938
					c1.998,0,3.551,0.554,4.658,1.661S365.745,329.966,365.745,331.953z M364.163,332.005c0-1.676-0.42-2.938-1.261-3.788
					s-2.09-1.274-3.749-1.274h-2.171v10.266h1.819c1.781,0,3.12-0.438,4.017-1.313S364.163,333.722,364.163,332.005z"/>
				<path class="st6" d="M374.313,338.5l-0.29-1.371h-0.07c-0.48,0.604-0.959,1.013-1.437,1.227c-0.478,0.213-1.074,0.32-1.789,0.32
					c-0.955,0-1.703-0.246-2.245-0.738s-0.813-1.192-0.813-2.101c0-1.945,1.556-2.965,4.667-3.059l1.635-0.053v-0.598
					c0-0.756-0.162-1.313-0.487-1.675c-0.325-0.359-0.846-0.54-1.561-0.54c-0.803,0-1.711,0.246-2.725,0.738l-0.448-1.116
					c0.475-0.258,0.995-0.46,1.561-0.606s1.132-0.22,1.7-0.22c1.148,0,2,0.255,2.554,0.765s0.83,1.327,0.83,2.452v6.574H374.313z
					 M371.018,337.472c0.908,0,1.622-0.249,2.141-0.747s0.777-1.195,0.777-2.092v-0.87l-1.459,0.062
					c-1.16,0.041-1.996,0.222-2.509,0.541s-0.77,0.815-0.77,1.489c0,0.527,0.16,0.929,0.479,1.204S370.443,337.472,371.018,337.472z"
					/>
				<path class="st6" d="M381.512,337.472c0.258,0,0.507-0.019,0.747-0.058c0.24-0.037,0.431-0.077,0.571-0.118v1.116
					c-0.158,0.076-0.391,0.139-0.698,0.189c-0.308,0.049-0.585,0.074-0.831,0.074c-1.863,0-2.795-0.981-2.795-2.944v-5.73h-1.38
					v-0.703l1.38-0.606l0.615-2.057h0.844v2.232h2.795v1.134h-2.795v5.669c0,0.58,0.138,1.025,0.413,1.336
					S381.031,337.472,381.512,337.472z"/>
				<path class="st6" d="M390.679,338.5l-0.29-1.371h-0.07c-0.48,0.604-0.959,1.013-1.437,1.227c-0.478,0.213-1.074,0.32-1.789,0.32
					c-0.955,0-1.703-0.246-2.245-0.738s-0.813-1.192-0.813-2.101c0-1.945,1.556-2.965,4.667-3.059l1.635-0.053v-0.598
					c0-0.756-0.162-1.313-0.487-1.675c-0.325-0.359-0.846-0.54-1.561-0.54c-0.803,0-1.711,0.246-2.725,0.738l-0.448-1.116
					c0.475-0.258,0.995-0.46,1.561-0.606s1.132-0.22,1.7-0.22c1.148,0,2,0.255,2.554,0.765s0.83,1.327,0.83,2.452v6.574H390.679z
					 M387.383,337.472c0.908,0,1.622-0.249,2.141-0.747s0.777-1.195,0.777-2.092v-0.87l-1.459,0.062
					c-1.16,0.041-1.996,0.222-2.509,0.541s-0.77,0.815-0.77,1.489c0,0.527,0.16,0.929,0.479,1.204S386.809,337.472,387.383,337.472z"
					/>
				<path class="st6" d="M399.661,338.5v-12.85h1.494v12.85H399.661z"/>
				<path class="st6" d="M411.052,338.5v-6.231c0-0.785-0.179-1.371-0.536-1.758s-0.917-0.58-1.679-0.58
					c-1.008,0-1.746,0.272-2.215,0.817s-0.703,1.444-0.703,2.698v5.054h-1.459v-9.633h1.187l0.237,1.318h0.07
					c0.299-0.475,0.718-0.842,1.257-1.104c0.539-0.26,1.14-0.391,1.802-0.391c1.16,0,2.033,0.28,2.619,0.84s0.879,1.454,0.879,2.685
					v6.284H411.052z"/>
				<path class="st6" d="M419.85,330.001h-2.452v8.499h-1.459v-8.499h-1.723v-0.659l1.723-0.527v-0.536
					c0-2.367,1.034-3.551,3.103-3.551c0.51,0,1.107,0.103,1.793,0.308l-0.378,1.169c-0.563-0.182-1.043-0.272-1.441-0.272
					c-0.551,0-0.958,0.184-1.222,0.549c-0.264,0.367-0.396,0.954-0.396,1.763v0.624h2.452V330.001z"/>
				<path class="st6" d="M429.922,333.675c0,1.57-0.396,2.797-1.187,3.679s-1.884,1.322-3.278,1.322c-0.861,0-1.626-0.202-2.294-0.606
					s-1.184-0.984-1.547-1.74s-0.545-1.641-0.545-2.654c0-1.57,0.393-2.793,1.178-3.669s1.875-1.314,3.27-1.314
					c1.348,0,2.419,0.448,3.213,1.345S429.922,332.146,429.922,333.675z M422.583,333.675c0,1.23,0.246,2.168,0.738,2.813
					s1.216,0.967,2.171,0.967s1.681-0.321,2.176-0.962c0.495-0.643,0.742-1.581,0.742-2.817c0-1.225-0.247-2.154-0.742-2.79
					s-1.227-0.954-2.193-0.954c-0.955,0-1.676,0.313-2.162,0.94S422.583,332.433,422.583,333.675z"/>
				<path class="st6" d="M436.874,328.692c0.428,0,0.812,0.035,1.151,0.105l-0.202,1.354c-0.398-0.088-0.75-0.132-1.055-0.132
					c-0.779,0-1.445,0.316-1.999,0.949s-0.831,1.421-0.831,2.364v5.168h-1.459v-9.633h1.204l0.167,1.784h0.07
					c0.357-0.627,0.788-1.11,1.292-1.45S436.271,328.692,436.874,328.692z"/>
				<path class="st6" d="M452.105,338.5v-6.267c0-0.768-0.164-1.343-0.492-1.728c-0.328-0.383-0.838-0.575-1.529-0.575
					c-0.908,0-1.579,0.261-2.013,0.782s-0.65,1.324-0.65,2.408v5.379h-1.459v-6.267c0-0.768-0.164-1.343-0.492-1.728
					c-0.328-0.383-0.841-0.575-1.538-0.575c-0.914,0-1.583,0.274-2.008,0.821c-0.425,0.549-0.638,1.446-0.638,2.694v5.054h-1.459
					v-9.633h1.187l0.237,1.318h0.07c0.275-0.469,0.664-0.835,1.165-1.099s1.062-0.396,1.683-0.396c1.506,0,2.49,0.545,2.953,1.635
					h0.07c0.287-0.504,0.703-0.902,1.248-1.195s1.166-0.439,1.863-0.439c1.09,0,1.906,0.28,2.448,0.84s0.813,1.454,0.813,2.685v6.284
					H452.105z"/>
				<path class="st6" d="M460.64,338.676c-1.424,0-2.547-0.434-3.37-1.301s-1.235-2.071-1.235-3.612c0-1.553,0.383-2.786,1.147-3.7
					s1.791-1.371,3.08-1.371c1.207,0,2.162,0.397,2.865,1.191s1.055,1.841,1.055,3.142v0.923h-6.636
					c0.029,1.131,0.315,1.989,0.857,2.575s1.305,0.879,2.289,0.879c1.037,0,2.063-0.217,3.076-0.65v1.301
					c-0.516,0.223-1.003,0.382-1.463,0.479C461.846,338.627,461.29,338.676,460.64,338.676z M460.244,329.914
					c-0.773,0-1.39,0.252-1.85,0.756s-0.731,1.201-0.813,2.092h5.036c0-0.92-0.205-1.624-0.615-2.114
					C461.592,330.159,461.006,329.914,460.244,329.914z"/>
				<path class="st6" d="M473.226,337.208h-0.079c-0.674,0.979-1.682,1.468-3.023,1.468c-1.26,0-2.239-0.431-2.939-1.292
					s-1.051-2.086-1.051-3.674s0.352-2.821,1.055-3.7s1.682-1.318,2.936-1.318c1.307,0,2.309,0.475,3.006,1.424h0.114l-0.062-0.694
					l-0.035-0.677v-3.92h1.459V338.5h-1.187L473.226,337.208z M470.308,337.455c0.996,0,1.719-0.271,2.167-0.813
					c0.448-0.541,0.672-1.416,0.672-2.623v-0.308c0-1.365-0.227-2.339-0.681-2.923c-0.454-0.582-1.18-0.874-2.176-0.874
					c-0.855,0-1.51,0.333-1.964,0.997c-0.454,0.666-0.682,1.604-0.682,2.817c0,1.23,0.226,2.159,0.677,2.786
					S469.435,337.455,470.308,337.455z"/>
				<path class="st6" d="M482.595,325.651h3.63c1.705,0,2.938,0.255,3.7,0.765s1.143,1.315,1.143,2.417
					c0,0.762-0.212,1.391-0.637,1.885c-0.425,0.496-1.045,0.816-1.859,0.963v0.088c1.951,0.334,2.927,1.359,2.927,3.076
					c0,1.148-0.388,2.045-1.164,2.689s-1.862,0.967-3.257,0.967h-4.482V325.651z M484.089,331.153h2.461
					c1.055,0,1.813-0.165,2.276-0.496s0.694-0.89,0.694-1.675c0-0.721-0.258-1.24-0.773-1.56s-1.336-0.479-2.461-0.479h-2.197V331.153
					z M484.089,332.418v4.808h2.681c1.037,0,1.818-0.2,2.343-0.603c0.524-0.4,0.786-1.029,0.786-1.885
					c0-0.797-0.268-1.383-0.804-1.758s-1.353-0.563-2.448-0.563H484.089z"/>
				<path class="st6" d="M495.409,328.868v6.249c0,0.785,0.179,1.371,0.536,1.758s0.917,0.58,1.679,0.58
					c1.008,0,1.745-0.275,2.211-0.826s0.698-1.45,0.698-2.698v-5.063h1.459v9.633h-1.204l-0.211-1.292h-0.079
					c-0.299,0.475-0.713,0.838-1.243,1.09s-1.136,0.378-1.815,0.378c-1.172,0-2.049-0.278-2.632-0.835s-0.875-1.447-0.875-2.672
					v-6.302H495.409z"/>
				<path class="st6" d="M511.3,335.873c0,0.896-0.334,1.588-1.002,2.074s-1.605,0.729-2.813,0.729c-1.277,0-2.273-0.202-2.988-0.606
					v-1.354c0.463,0.234,0.96,0.419,1.49,0.554s1.041,0.202,1.533,0.202c0.762,0,1.348-0.121,1.758-0.364s0.615-0.614,0.615-1.112
					c0-0.375-0.162-0.695-0.487-0.962s-0.96-0.582-1.903-0.945c-0.896-0.334-1.533-0.625-1.911-0.875
					c-0.378-0.248-0.659-0.531-0.844-0.848s-0.277-0.694-0.277-1.134c0-0.785,0.319-1.404,0.958-1.858s1.515-0.682,2.628-0.682
					c1.037,0,2.051,0.211,3.041,0.633l-0.519,1.187c-0.967-0.398-1.843-0.598-2.628-0.598c-0.691,0-1.213,0.108-1.564,0.325
					s-0.527,0.516-0.527,0.896c0,0.258,0.066,0.478,0.198,0.659s0.344,0.354,0.637,0.519s0.855,0.401,1.688,0.712
					c1.143,0.416,1.915,0.835,2.316,1.257S511.3,335.234,511.3,335.873z"/>
				<path class="st6" d="M513.55,326.257c0-0.334,0.082-0.578,0.246-0.733s0.369-0.233,0.615-0.233c0.234,0,0.437,0.079,0.606,0.237
					s0.255,0.401,0.255,0.729s-0.085,0.573-0.255,0.733c-0.17,0.162-0.372,0.242-0.606,0.242c-0.246,0-0.451-0.08-0.615-0.242
					C513.632,326.831,513.55,326.585,513.55,326.257z M515.132,338.5h-1.459v-9.633h1.459V338.5z"/>
				<path class="st6" d="M524.817,338.5v-6.231c0-0.785-0.179-1.371-0.536-1.758s-0.917-0.58-1.679-0.58
					c-1.008,0-1.746,0.272-2.215,0.817s-0.703,1.444-0.703,2.698v5.054h-1.459v-9.633h1.187l0.237,1.318h0.07
					c0.299-0.475,0.718-0.842,1.257-1.104c0.539-0.26,1.14-0.391,1.802-0.391c1.16,0,2.033,0.28,2.619,0.84s0.879,1.454,0.879,2.685
					v6.284H524.817z"/>
				<path class="st6" d="M533.343,338.676c-1.424,0-2.547-0.434-3.37-1.301s-1.235-2.071-1.235-3.612c0-1.553,0.383-2.786,1.147-3.7
					s1.791-1.371,3.08-1.371c1.207,0,2.162,0.397,2.865,1.191s1.055,1.841,1.055,3.142v0.923h-6.636
					c0.029,1.131,0.315,1.989,0.857,2.575s1.305,0.879,2.289,0.879c1.037,0,2.063-0.217,3.076-0.65v1.301
					c-0.516,0.223-1.003,0.382-1.463,0.479C534.549,338.627,533.993,338.676,533.343,338.676z M532.947,329.914
					c-0.773,0-1.39,0.252-1.85,0.756s-0.731,1.201-0.813,2.092h5.036c0-0.92-0.205-1.624-0.615-2.114
					C534.295,330.159,533.709,329.914,532.947,329.914z"/>
				<path class="st6" d="M545.586,335.873c0,0.896-0.334,1.588-1.002,2.074s-1.605,0.729-2.813,0.729
					c-1.277,0-2.273-0.202-2.988-0.606v-1.354c0.463,0.234,0.96,0.419,1.49,0.554s1.041,0.202,1.533,0.202
					c0.762,0,1.348-0.121,1.758-0.364s0.615-0.614,0.615-1.112c0-0.375-0.162-0.695-0.487-0.962s-0.96-0.582-1.903-0.945
					c-0.896-0.334-1.533-0.625-1.911-0.875c-0.378-0.248-0.659-0.531-0.844-0.848s-0.277-0.694-0.277-1.134
					c0-0.785,0.319-1.404,0.958-1.858s1.515-0.682,2.628-0.682c1.037,0,2.051,0.211,3.041,0.633l-0.519,1.187
					c-0.967-0.398-1.843-0.598-2.628-0.598c-0.691,0-1.213,0.108-1.564,0.325s-0.527,0.516-0.527,0.896
					c0,0.258,0.066,0.478,0.198,0.659s0.344,0.354,0.637,0.519s0.855,0.401,1.688,0.712c1.143,0.416,1.915,0.835,2.316,1.257
					S545.586,335.234,545.586,335.873z"/>
				<path class="st6" d="M554.173,335.873c0,0.896-0.334,1.588-1.002,2.074s-1.605,0.729-2.813,0.729
					c-1.277,0-2.273-0.202-2.988-0.606v-1.354c0.463,0.234,0.96,0.419,1.49,0.554s1.041,0.202,1.533,0.202
					c0.762,0,1.348-0.121,1.758-0.364s0.615-0.614,0.615-1.112c0-0.375-0.162-0.695-0.487-0.962s-0.96-0.582-1.903-0.945
					c-0.896-0.334-1.533-0.625-1.911-0.875c-0.378-0.248-0.659-0.531-0.844-0.848s-0.277-0.694-0.277-1.134
					c0-0.785,0.319-1.404,0.958-1.858s1.515-0.682,2.628-0.682c1.037,0,2.051,0.211,3.041,0.633l-0.519,1.187
					c-0.967-0.398-1.843-0.598-2.628-0.598c-0.691,0-1.213,0.108-1.564,0.325s-0.527,0.516-0.527,0.896
					c0,0.258,0.066,0.478,0.198,0.659s0.344,0.354,0.637,0.519s0.855,0.401,1.688,0.712c1.143,0.416,1.915,0.835,2.316,1.257
					S554.173,335.234,554.173,335.873z"/>
		</g>
		<g class="st1">
			<path class="st6" d="M433.288,292.012h5.646c2.652,0,4.571,0.396,5.756,1.189s1.777,2.046,1.777,3.76
				c0,1.185-0.33,2.162-0.991,2.933s-1.625,1.27-2.892,1.497v0.137c3.035,0.52,4.553,2.114,4.553,4.785
				c0,1.786-0.604,3.181-1.812,4.184S442.43,312,440.261,312h-6.973V292.012z M435.612,300.571h3.828c1.641,0,2.821-0.258,3.541-0.772
				s1.08-1.383,1.08-2.604c0-1.121-0.401-1.93-1.203-2.427s-2.078-0.745-3.828-0.745h-3.418V300.571z M435.612,302.54v7.479h4.17
				c1.613,0,2.828-0.313,3.644-0.937s1.224-1.602,1.224-2.933c0-1.239-0.417-2.151-1.251-2.734s-2.104-0.875-3.808-0.875H435.612z"/>
			<path class="st6" d="M451.431,312v-19.988h2.324V312H451.431z"/>
			<path class="st6" d="M468.028,301.528h6.795v9.721c-1.058,0.337-2.133,0.593-3.227,0.766s-2.36,0.26-3.801,0.26
				c-3.026,0-5.382-0.9-7.068-2.7s-2.529-4.322-2.529-7.567c0-2.078,0.417-3.898,1.251-5.462s2.035-2.757,3.603-3.582
				s3.404-1.237,5.51-1.237c2.133,0,4.12,0.392,5.961,1.176l-0.902,2.051c-1.805-0.766-3.541-1.148-5.209-1.148
				c-2.434,0-4.334,0.725-5.701,2.174s-2.051,3.459-2.051,6.029c0,2.698,0.658,4.744,1.976,6.139s3.252,2.092,5.804,2.092
				c1.386,0,2.739-0.159,4.061-0.479v-6.152h-4.471V301.528z"/>
			<path class="st6" d="M502.851,301.815c0,3.3-0.896,5.822-2.687,7.567S495.796,312,492.433,312h-5.537v-19.988h6.125
				c3.108,0,5.523,0.861,7.246,2.584S502.851,298.725,502.851,301.815z M500.39,301.897c0-2.606-0.654-4.571-1.962-5.893
				s-3.252-1.982-5.831-1.982h-3.377v15.969h2.83c2.771,0,4.854-0.682,6.248-2.044S500.39,304.568,500.39,301.897z"/>
			<path class="st6" d="M519.872,312l-2.488-6.357h-8.012L506.911,312h-2.352l7.902-20.07h1.955l7.861,20.07H519.872z
				 M516.659,303.551l-2.324-6.193c-0.301-0.784-0.61-1.745-0.93-2.885c-0.2,0.875-0.487,1.837-0.861,2.885l-2.352,6.193H516.659z"/>
			<path class="st6" d="M531.179,312h-2.324v-17.924h-6.33v-2.064h14.984v2.064h-6.33V312z"/>
			<path class="st6" d="M553.081,312l-2.488-6.357h-8.012L540.12,312h-2.352l7.902-20.07h1.955l7.861,20.07H553.081z M549.868,303.551
				l-2.324-6.193c-0.301-0.784-0.61-1.745-0.93-2.885c-0.2,0.875-0.487,1.837-0.861,2.885l-2.352,6.193H549.868z"/>
		</g>
	</g>
	<g id="ED-text">
		<g class="st1">
			<path class="st6" d="M654.281,141.5h-14.326v-25.699h14.326v2.654h-11.338v8.279h10.652v2.637h-10.652v9.457h11.338V141.5z"/>
			<path class="st6" d="M677.08,141.5h-3.393l-6.908-11.303l-7.031,11.303h-3.164l8.543-13.43l-7.963-12.27h3.305l6.381,10.178
				l6.434-10.178h3.182l-7.963,12.164L677.08,141.5z"/>
			<path class="st6" d="M688.664,141.5h-2.988v-23.045h-8.139v-2.654h19.266v2.654h-8.139V141.5z"/>
			<path class="st6" d="M703.658,130.813V141.5h-2.988v-25.699h7.049c3.152,0,5.481,0.604,6.987,1.811s2.259,3.023,2.259,5.449
				c0,3.398-1.723,5.695-5.168,6.891l6.979,11.549h-3.533l-6.223-10.688H703.658z M703.658,128.247h4.096
				c2.109,0,3.656-0.419,4.641-1.257s1.477-2.095,1.477-3.771c0-1.699-0.501-2.924-1.503-3.674s-2.61-1.125-4.825-1.125h-3.885
				V128.247z"/>
			<path class="st6" d="M737.25,141.5h-14.326v-25.699h14.326v2.654h-11.338v8.279h10.652v2.637h-10.652v9.457h11.338V141.5z"/>
			<path class="st6" d="M754.318,141.5l-8.719-22.781h-0.141c0.164,1.805,0.246,3.949,0.246,6.434V141.5h-2.76v-25.699h4.5
				L755.584,137h0.141l8.209-21.199h4.465V141.5h-2.988v-16.559c0-1.898,0.082-3.961,0.246-6.188h-0.141l-8.789,22.746H754.318z"/>
			<path class="st6" d="M789.773,141.5h-14.326v-25.699h14.326v2.654h-11.338v8.279h10.652v2.637h-10.652v9.457h11.338V141.5z"/>
			<path class="st6" d="M825.334,128.405c0,4.242-1.151,7.485-3.454,9.729s-5.616,3.366-9.94,3.366h-7.119v-25.699h7.875
				c3.996,0,7.102,1.107,9.316,3.322S825.334,124.432,825.334,128.405z M822.17,128.51c0-3.352-0.841-5.877-2.522-7.576
				s-4.181-2.549-7.497-2.549h-4.342v20.531h3.639c3.563,0,6.24-0.876,8.033-2.628S822.17,131.944,822.17,128.51z"/>
			<path class="st6" d="M847.219,141.5l-3.199-8.174h-10.301l-3.164,8.174h-3.023l10.16-25.805h2.514l10.107,25.805H847.219z
				 M843.088,130.637l-2.988-7.963c-0.387-1.008-0.785-2.244-1.195-3.709c-0.258,1.125-0.627,2.361-1.107,3.709l-3.023,7.963H843.088z
				"/>
			<path class="st6" d="M861.756,141.5h-2.988v-23.045h-8.139v-2.654h19.266v2.654h-8.139V141.5z"/>
			<path class="st6" d="M889.916,141.5l-3.199-8.174h-10.301l-3.164,8.174h-3.023l10.16-25.805h2.514L893.01,141.5H889.916z
				 M885.785,130.637l-2.988-7.963c-0.387-1.008-0.785-2.244-1.195-3.709c-0.258,1.125-0.627,2.361-1.107,3.709l-3.023,7.963H885.785z
				"/>
		</g>
		<g class="st1">
				<path class="st6" d="M683.717,165.225c0,2.356-0.64,4.158-1.919,5.405s-3.12,1.87-5.522,1.87h-3.955v-14.277h4.375
					c2.221,0,3.945,0.615,5.176,1.846S683.717,163.018,683.717,165.225z M681.959,165.284c0-1.862-0.467-3.265-1.401-4.209
					c-0.934-0.944-2.322-1.416-4.165-1.416h-2.412v11.406h2.021c1.979,0,3.467-0.486,4.463-1.46S681.959,167.191,681.959,165.284z"/>
				<path class="st6" d="M693.238,172.5l-0.322-1.523h-0.078c-0.533,0.671-1.065,1.125-1.597,1.362
					c-0.53,0.237-1.192,0.356-1.987,0.356c-1.061,0-1.893-0.273-2.495-0.82c-0.602-0.547-0.903-1.325-0.903-2.334
					c0-2.161,1.729-3.294,5.186-3.398l1.816-0.059v-0.664c0-0.84-0.181-1.46-0.542-1.86s-0.938-0.601-1.733-0.601
					c-0.892,0-1.9,0.273-3.027,0.82l-0.498-1.24c0.527-0.286,1.105-0.511,1.733-0.674c0.629-0.163,1.259-0.244,1.89-0.244
					c1.276,0,2.222,0.283,2.837,0.85s0.923,1.475,0.923,2.725v7.305H693.238z M689.576,171.358c1.01,0,1.802-0.276,2.378-0.83
					s0.864-1.328,0.864-2.324v-0.967l-1.621,0.068c-1.289,0.046-2.218,0.246-2.788,0.601c-0.569,0.354-0.854,0.906-0.854,1.655
					c0,0.586,0.178,1.032,0.532,1.338C688.442,171.205,688.938,171.358,689.576,171.358z"/>
				<path class="st6" d="M701.236,171.358c0.287,0,0.563-0.021,0.83-0.063c0.268-0.042,0.479-0.086,0.635-0.132v1.24
					c-0.176,0.085-0.435,0.154-0.776,0.21s-0.649,0.083-0.923,0.083c-2.07,0-3.105-1.091-3.105-3.271v-6.367h-1.533v-0.781
					l1.533-0.674l0.684-2.285h0.938v2.48h3.105v1.26h-3.105v6.299c0,0.645,0.153,1.14,0.459,1.484
					C700.283,171.185,700.703,171.358,701.236,171.358z"/>
				<path class="st6" d="M711.422,172.5l-0.322-1.523h-0.078c-0.533,0.671-1.065,1.125-1.597,1.362
					c-0.53,0.237-1.192,0.356-1.987,0.356c-1.061,0-1.893-0.273-2.495-0.82c-0.602-0.547-0.903-1.325-0.903-2.334
					c0-2.161,1.729-3.294,5.186-3.398l1.816-0.059v-0.664c0-0.84-0.181-1.46-0.542-1.86s-0.938-0.601-1.733-0.601
					c-0.892,0-1.9,0.273-3.027,0.82l-0.498-1.24c0.527-0.286,1.105-0.511,1.733-0.674c0.629-0.163,1.259-0.244,1.89-0.244
					c1.276,0,2.222,0.283,2.837,0.85s0.923,1.475,0.923,2.725v7.305H711.422z M707.76,171.358c1.01,0,1.802-0.276,2.378-0.83
					s0.864-1.328,0.864-2.324v-0.967l-1.621,0.068c-1.289,0.046-2.218,0.246-2.788,0.601c-0.569,0.354-0.854,0.906-0.854,1.655
					c0,0.586,0.178,1.032,0.532,1.338C706.626,171.205,707.122,171.358,707.76,171.358z"/>
				<path class="st6" d="M730.455,162.383c0,1.445-0.493,2.557-1.479,3.335s-2.397,1.167-4.233,1.167h-1.68v5.615h-1.66v-14.277h3.701
					C728.672,158.223,730.455,159.61,730.455,162.383z M723.063,165.459h1.494c1.472,0,2.536-0.237,3.193-0.713
					c0.658-0.476,0.986-1.237,0.986-2.285c0-0.944-0.309-1.647-0.928-2.109c-0.618-0.462-1.582-0.693-2.891-0.693h-1.855V165.459z"/>
				<path class="st6" d="M742.438,167.139c0,1.745-0.439,3.107-1.318,4.087s-2.093,1.47-3.643,1.47c-0.957,0-1.807-0.225-2.549-0.674
					s-1.314-1.094-1.719-1.934c-0.403-0.84-0.605-1.823-0.605-2.949c0-1.745,0.437-3.104,1.309-4.077
					c0.873-0.974,2.084-1.46,3.633-1.46c1.498,0,2.688,0.498,3.569,1.494C741.997,164.092,742.438,165.44,742.438,167.139z
					 M734.283,167.139c0,1.367,0.273,2.409,0.82,3.125s1.352,1.074,2.412,1.074c1.062,0,1.867-0.356,2.417-1.069
					c0.551-0.713,0.825-1.756,0.825-3.13c0-1.36-0.274-2.395-0.825-3.101c-0.55-0.706-1.362-1.06-2.437-1.06
					c-1.061,0-1.861,0.349-2.402,1.045C734.554,164.72,734.283,165.759,734.283,167.139z"/>
				<path class="st6" d="M754.02,172.5l-1.963-6.279c-0.123-0.384-0.354-1.257-0.693-2.617h-0.078c-0.26,1.14-0.488,2.019-0.684,2.637
					l-2.021,6.26h-1.875l-2.92-10.703h1.699c0.69,2.688,1.216,4.736,1.577,6.143s0.568,2.354,0.62,2.842h0.078
					c0.072-0.371,0.188-0.852,0.347-1.44c0.16-0.589,0.298-1.057,0.415-1.401l1.963-6.143h1.758l1.914,6.143
					c0.365,1.12,0.612,2.061,0.742,2.822h0.078c0.026-0.234,0.097-0.596,0.21-1.084c0.114-0.488,0.793-3.115,2.036-7.881h1.68
					l-2.959,10.703H754.02z"/>
				<path class="st6" d="M765.357,172.696c-1.582,0-2.83-0.481-3.745-1.445c-0.914-0.964-1.372-2.302-1.372-4.014
					c0-1.726,0.425-3.096,1.274-4.111s1.991-1.523,3.423-1.523c1.342,0,2.402,0.441,3.184,1.323s1.172,2.046,1.172,3.491v1.025h-7.373
					c0.033,1.257,0.351,2.21,0.952,2.861c0.603,0.651,1.45,0.977,2.544,0.977c1.152,0,2.292-0.241,3.418-0.723v1.445
					c-0.572,0.247-1.114,0.425-1.626,0.532C766.697,172.642,766.08,172.696,765.357,172.696z M764.918,162.959
					c-0.859,0-1.544,0.28-2.056,0.84c-0.511,0.56-0.812,1.335-0.903,2.324h5.596c0-1.022-0.228-1.805-0.684-2.349
					C766.416,163.231,765.765,162.959,764.918,162.959z"/>
				<path class="st6" d="M776.939,161.602c0.476,0,0.902,0.039,1.279,0.117l-0.225,1.504c-0.442-0.098-0.833-0.146-1.172-0.146
					c-0.865,0-1.606,0.352-2.222,1.055s-0.923,1.579-0.923,2.627v5.742h-1.621v-10.703h1.338l0.186,1.982h0.078
					c0.397-0.696,0.876-1.233,1.436-1.611C775.654,161.791,776.27,161.602,776.939,161.602z"/>
				<path class="st6" d="M784.742,172.696c-1.582,0-2.83-0.481-3.745-1.445c-0.914-0.964-1.372-2.302-1.372-4.014
					c0-1.726,0.425-3.096,1.274-4.111s1.991-1.523,3.423-1.523c1.342,0,2.402,0.441,3.184,1.323s1.172,2.046,1.172,3.491v1.025h-7.373
					c0.033,1.257,0.351,2.21,0.952,2.861c0.603,0.651,1.45,0.977,2.544,0.977c1.152,0,2.292-0.241,3.418-0.723v1.445
					c-0.572,0.247-1.114,0.425-1.626,0.532C786.082,172.642,785.465,172.696,784.742,172.696z M784.303,162.959
					c-0.859,0-1.544,0.28-2.056,0.84c-0.511,0.56-0.812,1.335-0.903,2.324h5.596c0-1.022-0.228-1.805-0.684-2.349
					C785.801,163.231,785.149,162.959,784.303,162.959z"/>
				<path class="st6" d="M798.727,171.065h-0.088c-0.748,1.087-1.868,1.631-3.359,1.631c-1.399,0-2.488-0.479-3.267-1.436
					c-0.777-0.957-1.167-2.317-1.167-4.082s0.391-3.135,1.172-4.111s1.869-1.465,3.262-1.465c1.452,0,2.565,0.527,3.34,1.582h0.127
					l-0.068-0.771l-0.039-0.752v-4.355h1.621V172.5h-1.318L798.727,171.065z M795.484,171.338c1.107,0,1.909-0.301,2.407-0.903
					s0.747-1.574,0.747-2.915v-0.342c0-1.517-0.252-2.6-0.757-3.247c-0.504-0.647-1.31-0.972-2.417-0.972
					c-0.95,0-1.678,0.369-2.183,1.108c-0.504,0.739-0.757,1.782-0.757,3.13c0,1.367,0.251,2.399,0.752,3.096
					C793.779,170.99,794.515,171.338,795.484,171.338z"/>
				<path class="st6" d="M809.137,158.223h4.033c1.895,0,3.266,0.283,4.111,0.85c0.847,0.566,1.27,1.462,1.27,2.686
					c0,0.847-0.235,1.545-0.708,2.095c-0.472,0.55-1.16,0.906-2.065,1.069v0.098c2.168,0.371,3.252,1.511,3.252,3.418
					c0,1.276-0.431,2.272-1.294,2.988c-0.862,0.716-2.068,1.074-3.618,1.074h-4.98V158.223z M810.797,164.336h2.734
					c1.172,0,2.016-0.184,2.529-0.552c0.515-0.368,0.771-0.988,0.771-1.86c0-0.801-0.286-1.379-0.859-1.733
					c-0.572-0.354-1.484-0.532-2.734-0.532h-2.441V164.336z M810.797,165.743v5.342h2.979c1.152,0,2.021-0.223,2.603-0.669
					c0.583-0.446,0.874-1.145,0.874-2.095c0-0.886-0.298-1.536-0.894-1.953s-1.502-0.625-2.72-0.625H810.797z"/>
				<path class="st6" d="M823.375,161.797v6.943c0,0.872,0.199,1.523,0.596,1.953c0.397,0.43,1.02,0.645,1.865,0.645
					c1.12,0,1.938-0.306,2.456-0.918s0.776-1.611,0.776-2.998v-5.625h1.621V172.5h-1.338l-0.234-1.436h-0.088
					c-0.332,0.527-0.792,0.931-1.382,1.211c-0.589,0.28-1.261,0.42-2.017,0.42c-1.302,0-2.276-0.31-2.925-0.928
					c-0.647-0.618-0.972-1.608-0.972-2.969v-7.002H823.375z"/>
				<path class="st6" d="M841.031,169.581c0,0.996-0.371,1.765-1.113,2.305s-1.783,0.811-3.125,0.811c-1.419,0-2.525-0.225-3.32-0.674
					v-1.504c0.515,0.261,1.066,0.466,1.655,0.615c0.59,0.149,1.157,0.225,1.704,0.225c0.847,0,1.498-0.135,1.953-0.405
					c0.456-0.271,0.684-0.682,0.684-1.235c0-0.417-0.181-0.773-0.542-1.069s-1.065-0.646-2.114-1.05
					c-0.996-0.371-1.704-0.695-2.124-0.972s-0.732-0.591-0.938-0.942s-0.308-0.771-0.308-1.26c0-0.872,0.355-1.561,1.064-2.065
					c0.71-0.505,1.684-0.757,2.92-0.757c1.152,0,2.279,0.234,3.379,0.703l-0.576,1.318c-1.074-0.442-2.047-0.664-2.92-0.664
					c-0.768,0-1.348,0.12-1.738,0.361s-0.586,0.573-0.586,0.996c0,0.286,0.073,0.53,0.22,0.732s0.383,0.394,0.708,0.576
					c0.326,0.183,0.951,0.446,1.875,0.791c1.27,0.462,2.128,0.928,2.573,1.396C840.809,168.282,841.031,168.871,841.031,169.581z"/>
				<path class="st6" d="M843.531,158.897c0-0.371,0.092-0.643,0.273-0.815c0.183-0.173,0.41-0.259,0.684-0.259
					c0.261,0,0.485,0.088,0.674,0.264c0.189,0.176,0.283,0.446,0.283,0.811s-0.094,0.637-0.283,0.815
					c-0.188,0.179-0.413,0.269-0.674,0.269c-0.273,0-0.501-0.09-0.684-0.269C843.623,159.534,843.531,159.261,843.531,158.897z
					 M845.289,172.5h-1.621v-10.703h1.621V172.5z"/>
				<path class="st6" d="M856.051,172.5v-6.924c0-0.872-0.198-1.523-0.596-1.953c-0.396-0.43-1.019-0.645-1.865-0.645
					c-1.119,0-1.939,0.303-2.461,0.908c-0.521,0.605-0.781,1.604-0.781,2.998v5.615h-1.621v-10.703h1.318l0.264,1.465h0.078
					c0.332-0.527,0.798-0.936,1.396-1.226c0.6-0.29,1.267-0.435,2.002-0.435c1.289,0,2.26,0.311,2.91,0.933
					c0.651,0.622,0.977,1.616,0.977,2.983v6.982H856.051z"/>
				<path class="st6" d="M865.523,172.696c-1.582,0-2.83-0.481-3.745-1.445c-0.914-0.964-1.372-2.302-1.372-4.014
					c0-1.726,0.425-3.096,1.274-4.111s1.991-1.523,3.423-1.523c1.342,0,2.402,0.441,3.184,1.323s1.172,2.046,1.172,3.491v1.025h-7.373
					c0.033,1.257,0.351,2.21,0.952,2.861c0.603,0.651,1.45,0.977,2.544,0.977c1.152,0,2.292-0.241,3.418-0.723v1.445
					c-0.572,0.247-1.114,0.425-1.626,0.532C866.863,172.642,866.246,172.696,865.523,172.696z M865.084,162.959
					c-0.859,0-1.544,0.28-2.056,0.84c-0.511,0.56-0.812,1.335-0.903,2.324h5.596c0-1.022-0.228-1.805-0.684-2.349
					C866.582,163.231,865.931,162.959,865.084,162.959z"/>
				<path class="st6" d="M879.127,169.581c0,0.996-0.371,1.765-1.113,2.305s-1.783,0.811-3.125,0.811c-1.419,0-2.525-0.225-3.32-0.674
					v-1.504c0.515,0.261,1.066,0.466,1.655,0.615c0.59,0.149,1.157,0.225,1.704,0.225c0.847,0,1.498-0.135,1.953-0.405
					c0.456-0.271,0.684-0.682,0.684-1.235c0-0.417-0.181-0.773-0.542-1.069s-1.065-0.646-2.114-1.05
					c-0.996-0.371-1.704-0.695-2.124-0.972s-0.732-0.591-0.938-0.942s-0.308-0.771-0.308-1.26c0-0.872,0.355-1.561,1.064-2.065
					c0.71-0.505,1.684-0.757,2.92-0.757c1.152,0,2.279,0.234,3.379,0.703l-0.576,1.318c-1.074-0.442-2.047-0.664-2.92-0.664
					c-0.768,0-1.348,0.12-1.738,0.361s-0.586,0.573-0.586,0.996c0,0.286,0.073,0.53,0.22,0.732s0.383,0.394,0.708,0.576
					c0.326,0.183,0.951,0.446,1.875,0.791c1.27,0.462,2.128,0.928,2.573,1.396C878.904,168.282,879.127,168.871,879.127,169.581z"/>
				<path class="st6" d="M888.668,169.581c0,0.996-0.371,1.765-1.113,2.305s-1.783,0.811-3.125,0.811c-1.419,0-2.525-0.225-3.32-0.674
					v-1.504c0.515,0.261,1.066,0.466,1.655,0.615c0.59,0.149,1.157,0.225,1.704,0.225c0.847,0,1.498-0.135,1.953-0.405
					c0.456-0.271,0.684-0.682,0.684-1.235c0-0.417-0.181-0.773-0.542-1.069s-1.065-0.646-2.114-1.05
					c-0.996-0.371-1.704-0.695-2.124-0.972s-0.732-0.591-0.938-0.942s-0.308-0.771-0.308-1.26c0-0.872,0.355-1.561,1.064-2.065
					c0.71-0.505,1.684-0.757,2.92-0.757c1.152,0,2.279,0.234,3.379,0.703l-0.576,1.318c-1.074-0.442-2.047-0.664-2.92-0.664
					c-0.768,0-1.348,0.12-1.738,0.361s-0.586,0.573-0.586,0.996c0,0.286,0.073,0.53,0.22,0.732s0.383,0.394,0.708,0.576
					c0.326,0.183,0.951,0.446,1.875,0.791c1.27,0.462,2.128,0.928,2.573,1.396C888.445,168.282,888.668,168.871,888.668,169.581z"/>
		</g>
	</g>
</g>
<rect id="TD-Boundary" x="71.5" y="378" class="st7" width="308" height="141"/>
<rect id="BD-Boundary" x="71.5" y="265" class="st7" width="516" height="254"/>

<defs>
		<clipPath id="clip-box-data">
			<rect id="mask-box-data" x="74" y="81" class="st3" width="850" height="436"/>
		</clipPath>
</defs>

<style>
	#Graph-Data-1 #box-data {
		-webkit-transform-origin: 74px 517px;
		    -ms-transform-origin: 74px 517px;
		        transform-origin: 74px 517px;
		-webkit-transform: scale(2.85, 3.2);
		    -ms-transform: scale(2.85, 3.2);
		        transform: scale(2.85, 3.2);
		-webkit-animation: scalingTdData 5s linear 1s forwards;
		        animation: scalingTdData 5s linear 1s forwards;
	}


	#Graph-Data-1 #TD-text {
		-webkit-transform-origin: 74px 517px;
		    -ms-transform-origin: 74px 517px;
		        transform-origin: 74px 517px;
		-webkit-transform: scale(2.8, 2.8);
		    -ms-transform: scale(2.8, 2.8);
		        transform: scale(2.8, 2.8);
		-webkit-animation: scalingTdData 5s linear 1s forwards;
		        animation: scalingTdData 5s linear 1s forwards;
	}
	#Graph-Data-1 #TD-Boundary {
		-webkit-transform-origin: 74px 517px;
		    -ms-transform-origin: 74px 517px;
		        transform-origin: 74px 517px;
		-webkit-transform: scale(2.85, 3.2);
		    -ms-transform: scale(2.85, 3.2);
		        transform: scale(2.85, 3.2);
		-webkit-animation: scalingTdData 5s linear 1s forwards;
		        animation: scalingTdData 5s linear 1s forwards;
	}


	#Graph-Data-1 #BD-text {
		opacity: 0;
		-webkit-transform-origin: 74px 517px;
		    -ms-transform-origin: 74px 517px;
		        transform-origin: 74px 517px;
		-webkit-transform: scale(1.7, 1.7);
		    -ms-transform: scale(1.7, 1.7);
		        transform: scale(1.7, 1.7);
		-webkit-animation: showingTextData 1s linear 2s forwards, scalingData 2s linear 4s forwards;
		        animation: showingTextData 1s linear 2s forwards, scalingData 2s linear 4s forwards;
	}
	#Graph-Data-1 #BD-Boundary {
		-webkit-transform-origin: 74px 517px;
		    -ms-transform-origin: 74px 517px;
		        transform-origin: 74px 517px;
		-webkit-transform: scale(1.7, 1.8);
		    -ms-transform: scale(1.7, 1.8);
		        transform: scale(1.7, 1.8);
		-webkit-animation: scalingData 2s linear 4s forwards;
		        animation: scalingData 2s linear 4s forwards;
	}

	#Graph-Data-1 #ED-text {
		opacity: 0;
		-webkit-animation: showingTextData 1s linear 5s forwards;
		        animation: showingTextData 1s linear 5s forwards;
	}

	@-webkit-keyframes scalingData {
		to {
			-webkit-transform: scale(1, 1);
			        transform: scale(1, 1);
		}
	}

	@keyframes scalingData {
		to {
			-webkit-transform: scale(1, 1);
			        transform: scale(1, 1);
		}
	}

	@-webkit-keyframes scalingTdData {
		40% {
			-webkit-transform: scale(1.7, 1.8);
			        transform: scale(1.7, 1.8);
		}
		60% {
			-webkit-transform: scale(1.7, 1.8);
			        transform: scale(1.7, 1.8);
		}
		100% {
			-webkit-transform: scale(1, 1);
			        transform: scale(1, 1);
		}
	}

	@keyframes scalingTdData {
		40% {
			-webkit-transform: scale(1.7, 1.8);
			        transform: scale(1.7, 1.8);
		}
		60% {
			-webkit-transform: scale(1.7, 1.8);
			        transform: scale(1.7, 1.8);
		}
		100% {
			-webkit-transform: scale(1, 1);
			        transform: scale(1, 1);
		}
	}

	@-webkit-keyframes showingTextData {
		to {
			opacity: 1;
		}
	}

	@keyframes showingTextData {
		to {
			opacity: 1;
		}
	}
</style>
</svg>