<svg version="1.1" id="signature-logo-animation" xmlns="http://www.w3.org/2000/svg" xmlns:xlink="http://www.w3.org/1999/xlink"
	 x="0px" y="0px" viewBox="0 0 720 150" enable-background="new 0 0 720 150" xml:space="preserve">
<path id="el-iDots" style="opacity: 0;" fill="#4A5B73" d="M292,55.7c0.8-1.4,1.8-2.2,2.8-2.6c1-0.3,1.9-0.3,2.6,0.2c0.7,0.4,1.1,1.2,1.3,2.3
		c0.2,1.1-0.1,2.3-1,3.7c-0.9,1.4-1.8,2.2-2.8,2.6c-1,0.3-1.9,0.2-2.6-0.2c-0.7-0.5-1.1-1.2-1.3-2.3C290.8,58.3,291.1,57.1,292,55.7
		z"/>
<defs>
	<clipPath id="clip_by1">
		<path d="M25.8,71.3c-1.8,1.1-3.6,2.1-5.3,3.1c-1.8,1-3.6,1.9-5.5,2.7c-0.5,0.2-0.8,0.6-0.9,1
				c-0.2,0.4-0.1,0.8,0.1,1.2c0.2,0.3,0.5,0.6,1,0.8c0.5,0.2,1.1,0,1.9-0.3c2.4-1,4.7-2.1,7-3.4l5-2.9c4.9-3,9.6-6.4,14.2-10.3
				c4.6-3.8,8.5-7.6,11.7-11.3c3.3-3.7,5.6-7,7.1-10.1c1.5-3.1,1.5-5.4,0.2-6.9c-6.5-1.9-4.4,3.7-4.4,3.7c0.6,0.5,0.4,1.6-0.6,3.5
				c-1,1.9-2.6,4.2-4.9,6.8c-2.3,2.7-5.1,5.6-8.6,8.8c-3.4,3.2-7.3,6.3-11.4,9.3L25.8,71.3z"/>
	</clipPath>
	<clipPath id="clip_by2">
		<path d="M104.7,99.5c-0.3-0.5-0.9-0.8-1.8-1c-3.8-1.1-7.6-1.2-11.3-0.5c-3.8,0.8-7.4,2.1-10.9,3.9
				c1.9-3,3.9-6,5.8-9c1.9-3,3.7-5.7,5.3-8.2c1.6-2.5,2.9-4.5,4-6.2c1.1-1.7,1.7-2.6,2-3c0.5-0.8,0.7-1.5,0.7-2.1
				c0-0.7-0.2-1.1-0.6-1.4c-0.4-0.3-1-0.3-1.7-0.1c-0.8,0.2-1.7,0.8-2.8,1.8c-1.2,1.1-2.7,2.3-4.6,3.8c-1.9,1.4-3.8,2.7-5.6,3.9
				c-1.9,1.2-3.6,2-5.2,2.6c-1.6,0.6-2.6,0.6-3.2-0.1c-0.6-0.7-0.6-1.7,0.1-3c0.7-1.3,1.7-2.7,2.9-4.1c1.2-1.4,2.5-2.8,3.7-4
				c1.2-1.2,2.1-2.1,2.6-2.4c0.5-0.5,0.9-1.1,1-1.7c0.2-0.6,0.1-1-0.2-1.3c-0.3-0.3-0.9-0.4-1.6-0.3s-1.8,0.5-3.1,1.3
				c-1.2,0.7-2.2,1.3-3.1,1.9c-0.9,0.6-1.8,1.2-2.8,1.9c-1,0.7-2.1,1.4-3.4,2.2c-1.2,0.8-2.8,1.7-4.8,2.7c-0.1,0-0.1,0.1-0.2,0.1
				c-2.7,1.2-5.2,2-7.3,2.4c-2.2,0.4-4.2,0.5-5.9,0.2c-1.7-0.2-3.2-0.7-4.3-1.5c-1.2-0.8-2.2-1.6-3-2.6c1.4-2.6,2.2-5,2.4-7.2
				c0.2-2.2-0.6-3.5-2.3-3.9c-1.2-0.3-2.3-0.2-3.1,0.4c-0.9,0.6-1.4,1.4-1.8,2.6c-0.3,1.1-0.5,2.4-0.3,3.9c0.1,1.5,0.5,2.9,1.2,4.4
				c-0.9,1.3-1.8,2.6-3,3.8c-1.1,1.2-2.3,2.3-3.4,3.2c-1.2,0.9-2.3,1.5-3.4,1.8c-1.1,0.3-2.2,0.2-3.2-0.3c-1.3-0.7-1.9-2-1.7-4
				c0.2-2,0.9-4.3,2.1-7l3.2-6.4c2-3.5,4.4-7,7-10.6c2.7-3.6,5.3-6.8,7.8-9.6c2.5-2.8,4.8-5,6.7-6.6c2-1.6,3.3-2.1,4-1.7
				c1.9,0.7,5-2.1,4.4-3.7c-1-1.1-2.4-1.4-4.2-0.9c-1.8,0.5-3.9,1.6-6.1,3.3c-2.2,1.7-4.6,3.8-7.1,6.4c-2.5,2.6-4.9,5.4-7.3,8.5
				s-4.6,6.3-6.6,9.6c-2.1,3.3-3.7,6.5-5,9.6l-1.9,5c-0.8,2.8-1.2,5.2-0.9,7.3c0.2,2.1,1.2,3.7,2.8,4.8c1.4,0.9,2.9,1.3,4.4,1.1
				c1.5-0.2,3.1-0.8,4.7-1.7c1.6-1,3.1-2.2,4.6-3.7c1.5-1.5,2.8-3.2,4-4.9c1,1.2,2.2,2.1,3.7,2.9c1.5,0.8,3.2,1.3,5.3,1.5
				c2,0.2,4.4,0,7-0.5c2.6-0.5,5.5-1.6,8.6-3.2c0.2-0.1,0.4-0.2,0.6-0.3c1.1-0.6,2.2-1.3,3.3-2.2c1.4-1,2.7-2,4-3
				c-1.4,1-2.6,2.1-3.6,3.4c-1,1.3-1.8,2.6-2.3,3.8S69.5,84,69.4,85c0,1.1,0.3,1.9,0.9,2.6c1.4,1.5,3.9,1.7,7.4,0.6
				c3.6-1.2,8-3.9,13.3-8.2c-2.6,3.9-5.3,8.2-8.2,12.8c-2.9,4.6-5.7,9-8.2,13.2c-3.5,2.5-6.4,5.1-8.6,7.9c-2.3,2.8-3.9,5.2-4.7,7.2
				c-0.5,1.2-0.7,2.3-0.3,3.1c0.3,0.8,0.9,1.4,1.6,1.6c0.8,0.2,1.7-0.1,2.8-0.8c1.1-0.7,2.3-2,3.4-3.9c0.6-1.1,1.6-2.7,2.8-4.7
				c1.3-2.1,2.8-4.4,4.6-7.1c1.8-1.5,3.7-2.8,5.6-4c2-1.2,4-2.2,6.2-3s4.4-1.2,6.7-1.4c2.3-0.2,4.7,0.1,7.1,0.7c0.8,0.2,1.4,0.2,2,0.1
				s0.9-0.5,1-0.8C105,100.4,105,100,104.7,99.5z M44.5,69.5c-0.1,0.7-0.4,1.6-0.9,2.7C43.2,71,43,70,43.1,69.2c0.1-0.8,0.4-1.1,0.9-1
				C44.4,68.4,44.6,68.8,44.5,69.5z"/>
	</clipPath>
	<clipPath id="clip_p1">
		<path d="M209.2,29.8c0.4-0.2,0.7-0.3,1-0.5c0.3-0.2,0.7-0.3,1-0.5c1.2-0.4,2-0.9,2.4-1.5
				c0.5-0.6,0.6-1.2,0.3-1.7c-0.2-0.5-0.8-0.9-1.6-1.1c-0.9-0.2-2-0.1-3.4,0.3c-1.3,0.5-2.8,1.3-4.3,2.4c-1.5,1.1-3.2,2.5-5,4.2
				l-5.3,5.8c-2.5,2.9-5,6-7.5,9.5c-2.5,3.5-5,7.1-7.5,10.8c-2.5,3.7-4.9,7.7-7.3,11.4s-4.5,6.9-6.6,10.9l-3.2,5
				c-2.6,4-4.8,8.1-6.4,11.2c-1.7,3.1-2.7,4.9-3,5.6c-0.5,1.1-0.7,2-0.6,2.9c0.2,0.8,0.5,1.4,1,1.7c0.5,0.3,1.2,0.3,1.9-0.1
				c0.7-0.3,1.4-1.1,2-2.3c0.7-1.6,2-4.2,3.8-7.6c1.8-3.4,4-7.4,6.6-11.9l3-5.1c2.2-3.9,4.7-8,7.3-12.1c2.6-4.1,5.3-8.2,8-12.1
				c2.7-3.9,5.5-7.6,8.2-11.1c2.7-3.4,5.4-6.4,8-8.9C203.8,32.8,206.1,30.9,209.2,29.8z"/>
	</clipPath>
	<clipPath id="clip_p2">
		<path d="M167.6,84.6c8.4-0.5,16.1-1.7,23.1-3.6c7-1.9,13.3-4.2,18.9-6.9c5.5-2.7,10.3-5.8,14.2-9.2
				c3.9-3.4,6.8-6.8,8.8-10.3c2-3.5,2.9-6.9,2.8-10.2c-0.1-3.3-1.3-6.4-3.6-9.2c-2.2-2.6-5.4-4.3-9.4-5.1c-4-0.8-8.4-0.9-13.1-0.3
				l-9.6,1.7c-3.1,0.7-6.1,1.6-9.1,2.7c-3.1,1.1-5.9,2.2-8.7,3.4c-2.8,1.2-5.4,2.5-7.8,3.8c-2.4,1.3-4.6,2.6-6.4,3.8
				c-0.7,0.5-1.2,1.1-1.4,1.9c-0.2,0.8-0.2,1.4,0.1,2c0.3,0.5,0.8,0.9,1.5,0.9c0.7,0.1,1.7-0.3,2.8-1.2c3.6-2.5,7.4-4.7,11.5-6.6
				c4.1-1.9,8.2-3.6,12.4-4.9l7.5-2.1c5.6-1.2,10.6-1.6,15.2-1.2c4.6,0.3,8,1.6,10.3,3.9c1.8,1.8,2.7,4,2.7,6.7s-0.8,5.5-2.5,8.4
				c-1.7,2.9-4.2,5.9-7.5,8.9c-3.3,3-7.4,5.7-12.2,8.2c-4.8,2.5-10.4,4.6-16.7,6.3c-6.3,1.7-13.3,2.7-20.8,3.1L166,80c0,0-3.4,0-4.8,0
				c-1.5,0-3-0.3-4.5-0.4c-2-0.1-3.4,0-4.1,0.6c-0.7,0.5-0.9,1.1-0.6,1.9c0.3,0.8,0.9,1.5,2,2.1c1.1,0.6,2.4,0.9,3.9,0.9h4.1
				L167.6,84.6z"/>
	</clipPath>
	<clipPath id="clip_paige3">
		<path d="M302.3,127.5c1.5,0.4,3.1-0.2,5-1.8s3.9-3.9,6-6.9c2.2-3,4.4-6.6,6.8-10.7
				c2.4-4.1,5-8.6,7.7-13.3l4.1-7l4.4-7.5c0.7-1.2,1.1-2.1,1.1-3c0-0.8-0.1-1.4-0.5-1.8c-0.3-0.4-0.8-0.5-1.5-0.4
				c-0.6,0.1-1.2,0.6-1.9,1.3c-0.9,1.2-2.3,2.4-4.2,3.8c-1.9,1.4-3.8,2.6-5.7,3.7c-1.9,1.1-3.7,1.9-5.4,2.4c-1.7,0.5-2.7,0.4-3.2-0.2
				c-0.5-0.7-0.4-1.6,0.2-2.7c0.6-1.1,1.6-2.3,3-3.5c1.4-1.2,3-2.4,4.9-3.5c1.9-1.2,3.9-2.1,6-2.9c0.8-0.1,1.5-0.1,2.2-0.2
				s1.4-0.1,2.2-0.1c1.5,0,2.7-0.2,3.5-0.8c0.8-0.5,1.3-1,1.4-1.6c0.1-0.6-0.1-1.1-0.8-1.5c-0.6-0.4-1.6-0.5-2.9-0.3
				c-1.1,0.2-2.5,0.3-4.3,0.6c-1.8,0.2-3.8,0.6-6.2,1.1c-2.3,0.5-4.9,1.3-7.7,2.3c-2.8,1-5.7,2.4-8.6,4.1c-2.7,1.2-5.3,2.4-7.7,3.4
				c-2.4,1-4.6,1.8-6.6,2.4c-2,0.6-3.7,0.9-5.1,1c-1.4,0.1-2.4-0.1-3-0.8c-0.6-0.7-0.7-2-0.3-3.9c0.4-1.9,1.4-4.1,3.1-6.7
				c0.8-1.2,0.9-2.2,0.1-2.9c-0.8-0.7-1.9-0.6-3.2,0.2c-1.1,0.7-2.6,1.7-4.4,3.1c-1.9,1.4-4.2,2.7-7,4.1c0,0,0,0,0,0
				c-2.9,1.5-5.3,2.7-7.4,3.6c-2.1,0.9-3.8,1.6-5.3,2.1c-1.5,0.5-2.8,0.8-4,1c-1.2,0.2-2.3,0.3-3.5,0.2c-1.2-0.1-1.9-0.4-2.3-0.9
				s-0.4-1.2-0.3-1.9c0.2-0.7,0.4-1.5,0.9-2.3c0.4-0.8,0.8-1.5,1.2-2c0.4-0.5,0.5-1,0.5-1.5c-0.1-0.5-0.3-0.8-0.6-1
				c-0.3-0.2-0.7-0.2-1.2-0.1c-0.5,0.1-0.9,0.4-1.4,0.9c-1.4,1.4-3,2.8-4.7,4.1c-1.7,1.4-3.4,2.5-5.1,3.5c-1.7,1-3.2,1.7-4.5,2.1
				c-1.4,0.4-2.3,0.3-2.8-0.3c-0.6-0.6-0.4-1.7,0.8-3.3c1.1-1.5,2.7-3.1,4.8-4.5c2.1-1.5,4.4-2.6,7-3.5c2.6-0.9,5.1-1,7.5-0.3
				l-0.5-0.5c0.9,0.2,1.7,0.2,2.2-0.1c0.5-0.3,0.8-0.6,0.8-1s-0.3-0.9-0.8-1.3c-0.5-0.5-1.3-0.8-2.4-0.9c-1.3-0.2-2.8-0.1-4.4,0.2
				c-1.6,0.3-3.3,0.8-5,1.4c-1.7,0.6-3.4,1.4-5,2.4c-1.7,1-3.2,2.1-4.6,3.4c-1.3,1-2.4,2.1-3.2,3.2c-0.8,1.2-1.4,2.3-1.7,3.4
				c-0.3,1.1-0.4,2.1-0.2,3.1c0.2,0.9,0.7,1.7,1.6,2.2c1.1,0.7,2.3,1,3.8,0.8c1.4-0.2,3-0.6,4.6-1.3c1.6-0.7,3.3-1.7,4.9-2.9
				c1.7-1.2,3.2-2.5,4.7-3.8c-0.2,0.9-0.4,1.7-0.4,2.5c0,0.8,0.1,1.6,0.3,2.3c0.2,0.7,0.7,1.3,1.3,1.7c0.6,0.4,1.5,0.7,2.7,0.8
				c1.9,0.1,3.9-0.2,6.2-0.9c2.2-0.7,4.5-1.5,6.7-2.6c2.2-1,4.3-2,6.3-3c1.9-1,3.5-1.8,4.6-2.3c0.7-0.4,1.5-0.8,2.3-1.2
				c0.8-0.4,1.6-0.9,2.3-1.3c0.8-0.5,1.7-1,2.6-1.6c-1.5,2.6-2.3,5.1-2.4,7.4c-0.1,2.3,0.5,3.9,1.9,4.6c2,1.1,5.4,0.9,10-0.6
				c4.6-1.4,10.2-3.8,16.9-7c0.2-0.1,0.4-0.2,0.5-0.3c0.1-0.1,0.3-0.1,0.4-0.2c1.3-0.8,2.7-1.4,4-2c1.5-0.6,3-1.2,4.5-1.7
				c-2.2,1.4-4,2.8-5.4,4.3c-1.4,1.5-2.3,2.9-3,4.2c-0.6,1.3-0.9,2.5-0.9,3.5c0,1,0.3,1.8,0.9,2.3c0.7,0.6,1.7,0.9,3.1,0.9
				c1.4,0,3-0.4,4.8-1c1.8-0.6,3.7-1.5,5.7-2.8c2-1.2,4.1-2.7,6.1-4.5c-0.8,1.6-1.5,3.2-2.3,4.8s-1.6,3.2-2.4,4.7l-4.3,8
				c-1.9,3.3-3.7,6.4-5.4,9.2c-1.7,2.8-3.3,5.2-4.8,7.3c-1.4,2-2.7,3.5-3.7,4.5c-1,1-1.7,1.3-2,0.9
				C305.7,122.1,299.8,124.2,302.3,127.5z"/>
	</clipPath>
	<clipPath id="clip_paige4">
		<path d="M370.1,71.5c0.1,0.8-0.3,1.4-1,2c-0.7,0.6-1.7,1-2.8,1.4c-1.2,0.3-2.4,0.6-3.7,0.7
				c-1.3,0.1-2.5,0.1-3.5-0.2c0,0-2.6-0.7-3.7-0.2c-1.9,0.8-3.4,1.4-4.5,2c-2.9,1.5-5.9,3-8.9,4.6c-3,1.6-6.3,3.6-10,6.1l-6.2,4.3
				c-4.2,3.2-8.1,6.7-11.7,10.6c-3.6,3.9-6.6,7.6-8.9,11.1c-2.4,3.5-3.9,6.6-4.5,9.1c-0.7,2.6-0.1,4.1,1.7,4.6c0,0,5.8-0.1,3.4-5.5
				c-0.5-0.5-0.3-1.5,0.5-3c0.8-1.5,1.9-3.4,3.5-5.5c1.5-2.1,3.3-4.3,5.4-6.7c2-2.4,4.2-4.6,6.4-6.7l6.4-5.3c2.3-1.7,4.7-3.4,7.2-5
				c2.5-1.6,4.8-3.1,7.1-4.4c2.2-1.3,4.3-2.5,6.2-3.5c1.4-0.8,2.7-1.4,3.6-1.8c0.3-0.1,0.5-0.2,0.8-0.4l0,0c0.3-0.1,0.6-0.2,0.8-0.4
				l1-0.5c1.4-0.7,3.8-0.7,3.8-0.7c1.5,0.3,3.2,0.3,5.2,0.1c2-0.2,3.8-0.7,5.6-1.4c1.7-0.7,3.1-1.6,4.2-2.8s1.4-2.5,1.1-3.9
				C374.5,70.1,371.4,69.2,370.1,71.5z"/>
	</clipPath>
	<clipPath id="clip_paige5">
		<path d="M354.7,78.8c0,1.2,0.2,2.4,0.7,3.6c0.8,2.3,2.3,3.9,4.6,4.8c2.3,0.9,5.2,1.1,8.5,0.8
				s7.2-1.2,11.4-2.7c4.2-1.4,8.6-3.3,13.1-5.5c0.9-0.5,1.4-0.9,1.6-1.4c0.2-0.5,0.2-0.8,0-1.1c-0.2-0.3-0.7-0.4-1.3-0.5
				c-0.7-0.1-1.4,0.1-2.3,0.5c-8.7,4.2-15.9,6.5-21.4,7c-5.5,0.5-9-0.6-10.4-3.4c-0.5-0.9-0.7-1.8-0.7-2.7c0-1.6,0.6-2.7,0.6-2.7
				c0.6-1.2,1.5-2.1,2.7-3c1.2-0.8,2.3-1.4,3.5-1.8c1.2-0.4,2.3-0.5,3.2-0.4c0.9,0.1,1.5,0.5,1.6,1.2c0,0,3.3,1.7,4.4-1.4
				c-0.4-1.4-1.5-2.3-3.2-2.8c-1.7-0.5-3.7-0.5-5.7,0c-2.1,0.5-4.1,1.4-6.1,2.7c-2,1.4-3.3,3.1-4.1,5.2
				C355.4,75.2,354.7,77.2,354.7,78.8z"/>
	</clipPath>
	<clipPath id="clip_b1">
		<path d="M454.7,98.4c0-0.3-0.1-0.7-0.3-1c-0.8-1.5-1.2-3.4-1.2-5.7c0-2.2,0.3-4.7,1-7.5
				c0.7-2.7,1.6-5.6,2.8-8.7c1.2-3.1,2.7-6.2,4.3-9.3l3.2-5.8c3.2-5.5,6.7-10.7,10.5-15.7c3.8-5,7.8-9.6,11.8-12.6l3.7-3.3
				c1-0.8,2-1.5,3.1-2.1c0.9-0.5,1.5-1.1,1.6-1.7c0.2-0.6,0.1-1.2-0.3-1.6c-0.3-0.5-0.9-0.7-1.6-0.8c-0.7-0.1-1.4,0.1-2.1,0.6
				c-1.2,0.8-2.3,1.7-3.4,2.6c-1.1,0.9-2.2,1.8-3.3,2.8l-3.5,3.4c-4.2,4.3-8.1,8.9-11.7,13.9S462.8,55.9,460,61l-2.6,5
				c-1.8,3.6-3.3,7-4.5,10.3c-1.2,3.3-2.2,6.4-2.8,9.3c-0.7,2.9-1,5.4-1,7.6c0,2.2,0.3,4,1,5.3C450,98.5,452.7,102.1,454.7,98.4z"/>
	</clipPath>
	<clipPath id="clip_b2">
		<path d="M450,98.5c-4.2-0.1-7.6-0.5-10.2-1.2c-2.6-0.7-4.4-1.4-5.4-1.9c-1.1-0.6-2-0.9-2.7-0.7
				c-0.7,0.2-1.3,0.5-1.6,1c-0.3,0.5-0.4,1.2-0.2,1.9c0.2,0.7,0.6,1.3,1.4,1.8c0.5,0.4,2,0.9,4.4,1.6c2.4,0.7,5.6,1.2,9.5,1.4
				c3.9,0.2,8.6,0,13.9-0.6c5.3-0.7,11.2-2.2,17.6-4.6c8.3-3.1,14.5-6.6,18.6-10.4c4.1-3.8,6.4-7.5,6.8-11.1c0.5-3.6-0.8-6.8-3.7-9.6
				c-2.9-2.8-7.3-4.8-13.1-5.9c5.8-2.6,10.1-5.7,12.9-9.1c2.8-3.4,4.4-6.7,4.6-9.9c0.3-3.2-0.7-5.9-2.8-8.3c-2.1-2.4-5.3-3.8-9.5-4.3
				l-5.9-0.2c-3.9,0.2-7.7,0.7-11.4,1.7c-3.7,1-7.2,2.2-10.4,3.7s-6.1,3.1-8.6,4.9c-2.5,1.8-4.5,3.6-6,5.3c-0.5,0.6-0.7,1.2-0.6,1.9
				c0.2,0.6,0.5,1.1,1,1.4c0.5,0.3,1.1,0.4,1.7,0.3c0.7-0.1,1.3-0.6,1.8-1.5c0.2-0.5,1.1-1.4,2.7-2.8c1.5-1.4,3.6-2.9,6.3-4.5
				c2.6-1.6,5.6-3.1,9.1-4.5c3.4-1.4,7.1-2.2,11-2.6L487,32h0.4c4,0,6.9,1.5,8.6,3.6c1.7,2.1,2.2,4.4,1.5,7.2
				c-0.7,2.8-2.6,5.7-5.7,8.7s-7.5,5.7-13.1,7.9c-2.1-0.2-4.3-0.2-6.7,0c-2.4,0.2-4.8,0.4-7.4,0.8L460,61l-1.7,0.3
				c-2.8,0.5-4.3,1.4-4.5,2.5c-0.2,1.1,1,1.8,3.7,2.1l3.9,0.1c1.7,0,3.7-0.2,6-0.7c4.2-0.7,7.9-1.5,11-2.6c6.3,0.5,11.1,1.8,14.2,4.1
				c3.1,2.3,4.5,5,4.4,8.1c-0.2,3.1-2.1,6.4-5.6,9.7c-3.5,3.3-8.7,6.3-15.5,8.8c-4.1,1.5-7.9,2.6-11.4,3.3c-3.5,0.7-6.8,1.2-9.7,1.5
				L450,98.5z"/>
	</clipPath>
	<clipPath id="clip_baller3">
		<path d="M596.4,37.3c-2.7-0.5-4.2,1.9-3.5,4.2c0.2,0.4-0.1,1.3-1,2.7c-0.9,1.4-2.3,3.2-4.1,5.2
				c-1.8,2.1-3.9,4.3-6.4,6.8c-2.5,2.5-5.2,5-8.2,7.5l-7.9,6.3c-1.8,1.3-3.5,2.6-5.2,3.8c-1.7,1.2-3.4,2.3-5.2,3.3
				c-0.1,0.1-0.2,0.1-0.2,0.2c-1.7,0.8-3.3,1.4-5,1.9c-1.8,0.5-3.5,0.9-5.2,1c-1.7,0.1-3.3,0-4.7-0.3c-1.4-0.3-2.7-0.9-3.7-1.6
				c1.2-1.7,1.9-3.4,2.1-5c0.2-1.1,0-1.9-0.5-2.4c-0.5-0.5-1-0.7-1.7-0.6c0-0.5-0.3-0.9-0.9-1.4c-1.1-0.6-2.7-0.8-4.9-0.4
				c-2.2,0.3-4.2,1.1-6.1,2.1c-2.2,0.9-4.1,2.2-5.9,3.7c-1.7,1.5-3.1,3.2-4.1,4.9c-1,1.7-1.5,3.4-1.5,5c0,1.6,0.7,2.9,2,3.9
				c1.2,0.9,2.7,1.4,4.4,1.3c1.7,0,3.4-0.4,5.1-1.2c1.7-0.7,3.5-1.7,5.2-3c1.7-1.2,3.2-2.6,4.5-4.2c1.2,0.9,2.6,1.5,4.3,1.9
				c1.7,0.4,3.6,0.6,5.6,0.5c2-0.1,4.2-0.5,6.4-1.1c2.3-0.6,4.6-1.5,6.9-2.8c0.5-0.2,0.8-0.5,1-0.7c1.6-1,3.3-2.1,4.9-3.3l5.9-4.4
				c3.9-3,7.8-6.3,11.7-9.7c3.8-3.5,7.1-6.8,9.9-10c2.8-3.2,4.8-6.1,6-8.6C597.6,40.3,597.6,38.5,596.4,37.3z M531.2,77.1
				c0,0.2,0.1,0.6,0.2,1c-0.9,1.2-2,2.4-3.3,3.4c-1.3,1-2.6,1.9-3.9,2.6c-1.3,0.7-2.5,1.1-3.7,1.2c-1.1,0.1-2-0.1-2.6-0.8
				c-0.8-0.7-1.1-1.6-0.9-2.8c0.2-1.2,0.7-2.4,1.6-3.6c0.9-1.2,2.1-2.4,3.6-3.5c1.5-1.1,3.2-2,4.9-2.6c1.6-0.4,2.9-0.4,3.8-0.1
				c0.2,0.2,0.3,0.2,0.6,0.2c0.2,0,0.5,0,0.7,0.1c-0.5,0.6-0.8,1.3-1,2.1C531.1,75.3,531.1,76.1,531.2,77.1z"/>
	</clipPath>
	<clipPath id="clip_baller4">
		<path d="M603.4,71.2c3.9-3,7.8-6.3,11.7-9.7c3.8-3.5,7.1-6.8,9.9-10c2.8-3.2,4.8-6.1,6-8.6
				c1.2-2.5,1.2-4.4,0-5.5c-2.5-0.3-4,2.1-3.5,4.2c0.2,0.4-0.1,1.3-1,2.7c-0.9,1.4-2.3,3.2-4.1,5.2c-1.8,2.1-3.9,4.3-6.4,6.8
				c-2.5,2.5-5.2,5-8.2,7.5l-7.9,6.3c-1.8,1.3-3.5,2.6-5.2,3.8c-1.7,1.2-3.4,2.3-5.2,3.3c0,0,0,0,0,0c-0.8,0.4-2.2,1.1-4.4,2.1
				c-2.2,1-4.5,2-6.9,2.9c-2.4,0.9-4.8,1.6-7,2c-2.2,0.4-3.8,0.3-4.6-0.5c-1.1-0.9-1.4-2.5-0.8-4.7c0.5-2.2,1.5-4.8,3-7.7l4.4-7.4
				c1.9-3,4-6,6.2-8.9c2.2-2.9,4.2-5.4,6.1-7.6c1.9-2.2,3.6-3.8,4.9-4.9c1.4-1.1,2.2-1.4,2.5-0.9c2.6,0.4,4.5-2.4,3.5-4.2
				c-1.3-1.2-3.3-1-6,0.7c-2.7,1.7-5.5,4.2-8.6,7.6s-6.1,7.3-9.1,11.7c-3,4.4-5.5,8.7-7.5,12.8l-2.4,5.6c-0.9,2.6-1.5,4.8-1.6,6.7
				c-0.1,1.9,0.3,3.4,1.2,4.4c0.8,0.9,2,1.4,3.5,1.6c1.5,0.1,3.2,0,5.1-0.4c1.9-0.4,3.9-0.9,5.9-1.7c2-0.7,4-1.5,5.9-2.4
				c1.9-0.8,3.6-1.6,5.1-2.4c1.2-0.6,2.2-1.1,2.9-1.5c0.2-0.1,0.4-0.2,0.6-0.3c0.4-0.1,0.6-0.3,0.8-0.5c1.7-1.1,3.5-2.3,5.2-3.5
				L603.4,71.2z"/>	
	</clipPath>
	<clipPath id="clip_baller5">
		<path d="M628.7,75.2c-1.9,0.8-3.4,1.4-4.5,2c-0.8,0.4-2.2,1.1-4.4,2.1c-2.2,1-4.5,2-6.9,2.9
				c-2.4,0.9-4.8,1.6-7,2c-2.2,0.4-3.8,0.3-4.6-0.5c-1.1-0.9-1.4-2.5-0.8-4.7c0.5-2.2,1.5-4.8,3-7.7l4.4-7.4c1.9-3,4-6,6.2-8.9
				c2.2-2.9,4.2-5.4,6.1-7.6c1.9-2.2,3.6-3.8,4.9-4.9c1.4-1.1,2.2-1.4,2.5-0.9c3,0.6,5-1.7,3.5-4.2c-1.3-1.2-3.3-1-6,0.7
				c-2.7,1.7-5.5,4.2-8.6,7.6c-3.1,3.4-6.1,7.3-9.1,11.7c-3,4.4-5.5,8.7-7.5,12.8l-2.4,5.6c-0.9,2.6-1.5,4.8-1.6,6.7
				c-0.1,1.9,0.3,3.4,1.2,4.4c0.8,0.9,2,1.4,3.5,1.6c1.5,0.1,3.2,0,5.1-0.4c1.9-0.4,3.9-0.9,5.9-1.7c2-0.7,4-1.5,5.9-2.4
				c1.9-0.8,3.6-1.6,5.1-2.4c1.5-0.7,2.6-1.3,3.5-1.8c0,0,0,0,0.1,0l0.1,0c0.2-0.1,0.3-0.1,0.4-0.2l1.4-0.7c1.3-0.7,2.6-1.1,3.8-0.7
				c1.5,0.3,3.2,0.3,5.2,0.1c2-0.2,3.8-0.7,5.6-1.4c1.7-0.7,3.1-1.6,4.2-2.8c1-1.2,1.4-2.5,1.1-3.9c-1.1-1.3-4.3-0.1-4.4,1.4
				c0.1,0.8-0.3,1.4-1,2c-0.7,0.6-1.7,1-2.8,1.4c-1.2,0.3-2.4,0.6-3.7,0.7s-2.5,0.1-3.5-0.2C631.3,75,630,75,628.7,75.2z"/>
	</clipPath>
	<clipPath id="clip_baller6">
		<path d="M628.1,78.8c0,1.2,0.2,2.4,0.7,3.6c0.8,2.3,2.3,3.9,4.6,4.8c2.3,0.9,5.2,1.1,8.5,0.8
				c3.4-0.3,7.2-1.2,11.4-2.7c4.2-1.4,8.6-3.3,13.1-5.5c2.6-1.2,4.9-2.7,6.8-4.4c1.9,0.9,4.6,0.9,7.9-0.1c-0.5,0.6-1.2,1.5-1.9,2.6
				c-0.7,1.1-1.2,2.2-1.6,3.4c-0.4,1.2-0.6,2.4-0.6,3.5c0,1.2,0.4,2.1,1.3,2.8c0.9,0.8,2.5,1.1,4.6,1c2.1-0.1,4.6-0.6,7.4-1.4
				c2.8-0.8,5.8-1.9,9.1-3.1c3.2-1.3,6.4-2.7,9.6-4.2c0.5-0.3,0.9-0.7,1-1c0.1-0.4,0-0.8-0.2-1.1c-0.3-0.3-0.7-0.6-1.2-0.7
				c-0.5-0.1-1,0-1.6,0.3c-2.6,1.3-5.3,2.5-8,3.5c-2.7,1-5.2,1.9-7.5,2.6c-2.3,0.7-4.3,1.1-5.9,1.3c-1.7,0.2-2.7,0.1-3.2-0.4
				c-0.5-0.5-0.7-1.1-0.7-1.9c0-0.8,0.2-1.7,0.7-2.7c0.5-1,1.1-1.9,2-2.9c0.8-1,1.9-1.8,3-2.5c0.7-0.5,1.1-1,1.2-1.6
				c0.1-0.6,0-1.1-0.3-1.5c-0.3-0.4-0.8-0.6-1.5-0.8c-0.7-0.1-1.6,0.1-2.6,0.5c-3.4,1.6-6.2,2.2-8.4,1.9c1-1.1,1.7-2.2,2.2-3.5
				c0.5-1.2,0.4-2.1-0.3-2.6c-0.7-0.5-1.5-0.7-2.6-0.6c-1,0.1-2.1,0.6-3,1.3c-1,0.8-1.5,1.8-1.7,3c-0.1,0.9,0.1,1.7,0.5,2.6
				c-1.1,0.9-2.2,1.7-3.5,2.4c-1.2,0.8-2.3,1.4-3.1,1.7c0,0,0,0,0,0c-8.7,4.2-15.9,6.5-21.4,7c-5.5,0.5-9-0.6-10.4-3.4
				c-0.5-0.9-0.7-1.8-0.7-2.7c0-0.7,0.2-1.6,0.6-2.7c0.6-1.2,1.5-2.1,2.7-3c1.2-0.8,2.3-1.4,3.5-1.8c1.2-0.4,2.3-0.5,3.2-0.4
				c0.9,0.1,1.5,0.5,1.6,1.2c0.8,1.1,4.6,0.7,4.4-1.4c-0.4-1.4-1.5-2.3-3.2-2.8c-1.7-0.5-3.7-0.5-5.7,0c-2.1,0.5-4.1,1.4-6.1,2.7
				c-2,1.4-3.3,3.1-4.1,5.2C628.3,76.3,628.1,77.5,628.1,78.8z"/>
	</clipPath>
</defs>
<path id="path-by2" clip-path="url(#clip_by2)" stroke-dashoffset="323.7" stroke-dasharray="323.7" fill="none" stroke="#4A5B73"  stroke-width="6" stroke-miterlimit="10" d="M61.4,38.9l-1.7-2.2c-1.5-1.8-8.5,3.5-8.5,3.5
	S29.7,60.7,25.3,76.7s10.3,8.8,10.3,8.8s8.6-8.4,9.5-12.4s1.2-6.7-0.7-7c-2.1-0.6-2.7,3.4-2.8,3.8c0,0-0.6,6,6.5,9.9
	c7.2,4,14.5,0.7,15.5,0.2c6.3-3,12-6.5,17.1-10.6c0.5-0.5,4.5-1.7,1.4,1.2c-2.9,2.6-8.9,9.4-9.4,10.3c-0.6,1-3.4,8.3,5.8,5.1
	c8.8-3.1,14-9.3,14.9-10.1s5-4.2,2.2,0.2c-2.8,4.4-29.2,45.2-29.2,45.2s-5.2,5-3.8,0c1.3-5,17.2-17,17.2-17s11.4-9.2,27.6-2.4"/>
<path id="path-by1" clip-path="url(#clip_by1)" stroke-dashoffset="72.5" stroke-dasharray="72.5" fill="none" stroke="#4A5B73" stroke-width="6" stroke-miterlimit="10" d="M11.3,81c0,0,30.9-13.7,45.3-34.5c0,0,8.1-8.8,1.2-12.8
	"/>
<path id="path-p1" clip-path="url(#clip_p1)" stroke-dashoffset="108.5" stroke-dasharray="108.5" fill="none" stroke="#4A5B73" stroke-width="6" stroke-miterlimit="10" d="M216.5,24.4c0,0-14,3.8-23.5,17.9s-37.5,54.5-41.2,66.6"
	/>
<path id="path-p2" clip-path="url(#clip_p2)" stroke-dashoffset="178.9" stroke-dasharray="178.9" fill="none" stroke="#4A5B73" stroke-width="6" stroke-miterlimit="10" d="M164.9,50.4c0,0,30-24.2,56.8-17.9
	c26.7,7.1,0.5,32.6-3.2,34.2c0,0-27.9,20.4-68.5,14.4"/>
<path id="path-paige3" clip-path="url(#clip_paige3)" stroke-dashoffset="301.92" stroke-dasharray="301.92" fill="none" stroke="#4A5B73" stroke-width="6" stroke-miterlimit="10" d="M257.1,72c0,0-11.5-6.3-24.8,8.6
	c0,0-5.7,11.3,7.3,4.7c0,0,7.2-3.9,8.3-5.8c1.1-0.4,6.5-6.9,2.1,1c-3.5,9.8,10,4.8,10,4.8s22.8-10.3,25.3-12.8c2.9-2.8,0.6,2,0,2
	c-0.3,0.1-7.9,16.2,7,10.7c14.2-5.2,22-9.2,22-9.2s13.3-5.8,21.6-5.9c0,0,4.5,1-2.2,1.4c-4.5,0.5-9.9,1.3-15,5.8
	c-5,4.5-6.2,7.7-6.2,7.7s-3.1,6.3,6.5,2.9c9.6-3.3,15.4-10.5,15.4-10.5s2.7-2.7,0.1,1.9c-2.5,4.5-13.8,25-13.8,25
	s-9.1,15.8-12.3,18.8c-2.3,2.2-6.1,3.4-6.4,0.7"/>
<path id="path-paige4" clip-path="url(#clip_paige4)" stroke-dashoffset="103.54" stroke-dasharray="103.54" fill="none" stroke="#4A5B73" stroke-width="6" stroke-miterlimit="10" d="M307.9,127.5c-4.3,1.2-5.8-3.8-5.8-3.8
	c-0.1-1,0.2-2.5,1.3-4.7c3.9-8.1,19.4-24.1,29-30.2s24.4-12.5,24.4-12.5s10.7,1.9,14.6-2.3c2.5-2.7,1.1-4.2-0.3-4.9"/>
<path id="path-paige5" clip-path="url(#clip_paige5)" stroke-dashoffset="71.2" stroke-dasharray="71.2" fill="none" stroke="#4A5B73" stroke-width="6" stroke-miterlimit="10" d="M374.1,72.8c-0.6-1.7-2.9-3.7-2.9-3.7
	c-0.8-0.4-1.5-0.6-1.5-0.6s-12.8-0.8-12.8,11.2s23.4,3.8,23.4,3.8l16.6-7.3"/>
<path id="path-b1" clip-path="url(#clip_b1)" stroke-dashoffset="98.83" stroke-dasharray="98.83" fill="none" stroke="#4A5B73" stroke-width="6" stroke-miterlimit="10" d="M497,21.5c0,0-24,14.5-39.5,48
	c-9.5,20.5-6.7,29.9-3.1,34.1"/>
<path id="path-b2" clip-path="url(#clip_b2)" stroke-dashoffset="253.4" stroke-dasharray="253.4" fill="none" stroke="#4A5B73" stroke-width="6" stroke-miterlimit="10" d="M447.2,48.9c4.1-5.4,19.2-21.8,45.5-17.9
	c0,0,16.4,4.4,2,21.4c0,0-17,13.5-37.9,12.3c0,0-3.4-0.9,0.6-1.8s24.3-4.1,32.9,0.6s8.8,9.5,8.8,9.5s5.6,11.1-22.2,22.4
	c-28.4,11.6-46.7,0.5-48.1-0.2"/>
<path id="path-baller3" clip-path="url(#clip_baller3)" stroke-dashoffset="151.45" stroke-dasharray="151.45" fill="none" stroke="#4A5B73" stroke-width="6" stroke-miterlimit="10" d="M534.8,71.3c0,0-7.1-5-17.8,5.8
	c0,0-8,11.4,4.2,10.5c0,0,10.5-3.7,13.6-9.9c3.1-6.3,0.9-5.3,0.9-5.3s-7.1,4.8,0.1,7.9c7.2,3.1,16.8-0.3,16.8-0.3s22.6-14,31.2-23.7
	c8.6-9.7,10-12,10-12s4.3-8.4-1.9-4.9"/>
<path id="path-baller4" clip-path="url(#clip_baller4)" stroke-dashoffset="150.42" stroke-dasharray="150.42" fill="none" stroke="#4A5B73" stroke-width="6" stroke-miterlimit="10" d="M596.6,41.6c-0.3-4.3-4.8-2.3-4.8-2.3
	c-1,0.6-2.3,1.5-4,2.7c-11.7,9.2-23.7,34.8-23.7,34.8s-5.8,12.3,8.2,8.9c13.9-3.4,33.3-17.8,33.3-17.8s19.2-17.1,21.5-21.3
	c1.9-3.5,4.6-10.1-0.5-7.5"/>
<path id="path-baller5" clip-path="url(#clip_baller5)" stroke-dashoffset="115.77" stroke-dasharray="115.77" fill="none" stroke="#4A5B73" stroke-width="6" stroke-miterlimit="10" d="M629.1,42.6c2.3-4.5-2.5-3.5-2.5-3.5
	c-1,0.5-2.2,1.3-3.8,2.5c-10,7.7-23.3,34-23.3,34s-7.2,14.1,8.5,10.1l22-9.4c0,0,14.6,2.4,15.2-5.2c0,0-0.1-1.2-1.2-2"/>
<path id="path-baller6" clip-path="url(#clip_baller6)" stroke-dashoffset="155.1" stroke-dasharray="155.1" fill="none" stroke="#4A5B73" stroke-width="6" stroke-miterlimit="10" d="M646.5,73.1c0.3-2.3-2.4-4-2.4-4
	c-1.4-1-4.3-1.3-10.7,2.6c0,0-11.1,12.1,6,14.5c0,0,20.7-2.6,30.5-10.5s6.5-8.2,6.5-8.2s-8.8,5-0.9,6.8c0,0,7-0.3,9.1-1.7
	s3.6-0.7,1.8,0.4s-6.5,4.2-6.7,9.5s5,4.2,5,4.2s20.8-5.6,27.4-10"/>
<style>
	#path-by1 {
		-webkit-animation: drawIn 0.09s linear 0s forwards;
		        animation: drawIn 0.09s linear 0s forwards;
	}
	#path-by2 {
		-webkit-animation: drawIn 0.39s linear 0.09s forwards;
		        animation: drawIn 0.39s linear 0.09s forwards;
	}
	#path-p1 {
		-webkit-animation: drawIn 0.13s linear 0.48s forwards;
		        animation: drawIn 0.13s linear 0.48s forwards;
	}
	#path-p2 {
		-webkit-animation: drawIn 0.21s linear 0.61s forwards;
		        animation: drawIn 0.21s linear 0.61s forwards;
	}
	#path-paige3 {
		-webkit-animation: drawIn 0.36s linear 0.82s forwards;
		        animation: drawIn 0.36s linear 0.82s forwards;
	}
	#path-paige4 {
		-webkit-animation: drawIn 0.12s linear 1.18s forwards;
		        animation: drawIn 0.12s linear 1.18s forwards;
	}
	#path-paige5 {
		-webkit-animation: drawIn 0.09s linear 1.31s forwards;
		        animation: drawIn 0.09s linear 1.31s forwards;
	}
	#path-b1 {
		-webkit-animation: drawIn 0.12s linear 1.39s forwards;
		        animation: drawIn 0.12s linear 1.39s forwards;
	}
	#path-b2 {
		-webkit-animation: drawIn 0.3s linear 1.51s forwards;
		        animation: drawIn 0.3s linear 1.51s forwards;
	}
	#path-baller3 {
		-webkit-animation: drawIn 0.18s linear 1.81s forwards;
		        animation: drawIn 0.18s linear 1.81s forwards;
	}
	#path-baller4 {
		-webkit-animation: drawIn 0.18s linear 1.99s forwards;
		        animation: drawIn 0.18s linear 1.99s forwards;
	}
	#path-baller5 {
		-webkit-animation: drawIn 0.14s linear 2.18s forwards;
		        animation: drawIn 0.14s linear 2.18s forwards;
	}
	#path-baller6 {
		-webkit-animation: drawIn 0.19s linear 2.31s forwards;
		        animation: drawIn 0.19s linear 2.31s forwards;
	}


	#el-iDots {
		-webkit-animation: showIDot 0.05s linear 0.96s forwards;
		        animation: showIDot 0.05s linear 0.96s forwards;
	}

	@-webkit-keyframes drawIn {
		to {
			stroke-dashoffset: 0;
		}
	}

	@keyframes drawIn {
		to {
			stroke-dashoffset: 0;
		}
	}

	@-webkit-keyframes showIDot {
		to {
			opacity: 1;
		}
	}

	@keyframes showIDot {
		to {
			opacity: 1;
		}
	}
</style>
</svg>