<svg id="graphic-r" xmlns="http://www.w3.org/2000/svg" viewBox="0 0 1577.42 1969.6">
  <defs>
    <clipPath id="mask-r1_1">
      <path d="M461.25,1245.66H674.93c510.62,0,668.81-324.69,668.81-568.9,0-316.36-266.42-527.27-663.26-527.27H17.23v-44.4H680.48c419.05,0,707.66,230.33,707.66,566.12,0,260.86-174.84,618.85-713.21,618.85H461.25Z" fill="#fff"/>
    </clipPath>
    <clipPath id="mask-r1_2">
      <path d="M461.25,1154.08H663.83c424.59,0,577.23-255.31,577.23-477.32,0-263.64-222-435.69-571.68-435.69H17.23v-44.4H669.38c371.86,0,616.08,191.48,616.08,477.32,0,238.66-172.06,524.49-621.63,524.49H461.25Z" fill="#fff"/>
    </clipPath>
    <clipPath id="mask-r1_3">
      <path d="M461.25,1062.5H655.51c291.38,0,485.64-155.4,485.64-383,0-219.24-180.38-346.89-482.87-346.89h-641V288.24H658.28c327.46,0,527.27,147.09,527.27,391.3,0,252.53-213.68,427.36-530,427.36H461.25Z" fill="#fff"/>
    </clipPath>
    <clipPath id="mask-r1_4">
      <path d="M17.23,424.23V379.82H647.18c280.29,0,435.69,105.46,435.69,296.94,0,205.36-174.83,338.57-435.69,338.57H461.25V970.92H647.18c238.66,0,391.29-116.55,391.29-294.16,0-163.73-133.21-252.53-391.29-252.53H17.23Z" fill="#fff"/>
    </clipPath>
    <clipPath id="mask-r1_5">
      <path d="M461.25,1337.24h222c599.42,0,763.16-394.07,763.16-660.48,0-366.31-310.82-618.85-754.84-618.85H17.23V13.51H691.58c469,0,799.24,274.73,799.24,657.7,0,197-88.81,466.22-352.45,607.75-131.68,69.85-266.89,99.61-432.91,102.68H461.25Z" fill="#fff"/>
    </clipPath>
    <clipPath id="mask-r2_1">
      <rect x="17.23" y="424.23" width="44.4" height="1531.87" fill="#fff"/>
    </clipPath>
    <clipPath id="mask-r2_2">
      <rect x="117.13" y="424.23" width="44.4" height="1531.87" fill="#fff"/>
    </clipPath>
    <clipPath id="mask-r2_3">
      <rect x="217.03" y="424.23" width="44.4" height="1531.87" fill="#fff"/>
    </clipPath>
    <clipPath id="mask-r2_4">
      <rect x="316.94" y="424.23" width="44.4" height="1531.87" fill="#fff"/>
    </clipPath>
    <clipPath id="mask-r2_5">
      <polygon points="461.25 1381.64 461.25 1956.09 416.84 1956.09 416.84 424.23 461.25 424.23 461.25 970.92 461.25 1381.64" fill="#fff"/>
    </clipPath>
    <clipPath id="mask-r3_1">
      <path d="M1138.37,1279l421.82,677.13h-50l-410.71-657.7Q1108.73,1269.24,1138.37,1279Z" fill="#fff"/>
    </clipPath>
    <clipPath id="mask-r3_2">
      <path d="M755.41,1378.87,1119,1956.09h-52.73L705.46,1381.64C719.85,1374.37,736.68,1374,755.41,1378.87Z" fill="#fff"/>
    </clipPath>
    <clipPath id="mask-r3_3">
      <path d="M858.09,1370.54l369.09,585.55h-52.73l-363.54-580C815.9,1357,832.42,1356.46,858.09,1370.54Z" fill="#fff"/>
    </clipPath>
    <clipPath id="mask-r3_4">
      <path d="M958,1348.34l383,607.75h-58.28L908,1359.44C913.84,1342.08,928.57,1336,958,1348.34Z" fill="#fff"/>
    </clipPath>
    <clipPath id="mask-r3_5">
      <path d="M1052.35,1320.59,1452,1956.09h-55.5l-388.52-621.62C1015.51,1323.16,1027.75,1316.17,1052.35,1320.59Z" fill="#fff"/>
    </clipPath>
  </defs>
  <g id="lines">
    <g clip-path="url(#mask-r1_1)">
      <path class="line1" d="M0,225H775.1c261,0,472.54,211.56,472.54,472.54s-211.56,472.53-472.54,472.53H446.57" fill="none" stroke="#f9f5ef" stroke-miterlimit="10" stroke-width="500" stroke-dasharray="2589" stroke-dashoffset="2589"></path>
    </g>
    <g clip-path="url(#mask-r1_2)">
      <path class="line1" d="M0,225H775.1c261,0,472.54,211.56,472.54,472.54s-211.56,472.53-472.54,472.53H446.57" fill="none" stroke="#f9f5ef" stroke-miterlimit="10" stroke-width="500" stroke-dasharray="2589" stroke-dashoffset="2589"></path>
    </g>
    <g clip-path="url(#mask-r1_3)">
      <path class="line1" d="M0,225H775.1c261,0,472.54,211.56,472.54,472.54s-211.56,472.53-472.54,472.53H446.57" fill="none" stroke="#f9f5ef" stroke-miterlimit="10" stroke-width="500" stroke-dasharray="2589" stroke-dashoffset="2589"></path>
    </g>
    <g clip-path="url(#mask-r1_4)">
      <path class="line1" d="M0,225H775.1c261,0,472.54,211.56,472.54,472.54s-211.56,472.53-472.54,472.53H446.57" fill="none" stroke="#f9f5ef" stroke-miterlimit="10" stroke-width="500" stroke-dasharray="2589" stroke-dashoffset="2589"></path>
    </g>
    <g clip-path="url(#mask-r1_5)">
      <path class="line1" d="M0,225H775.1c261,0,472.54,211.56,472.54,472.54s-211.56,472.53-472.54,472.53H446.57" fill="none" stroke="#f9f5ef" stroke-miterlimit="10" stroke-width="500" stroke-dasharray="2589" stroke-dashoffset="2589"></path>
    </g>
    <g clip-path="url(#mask-r2_1)">
      <path class="line2" d="M239.24,379.82V1969.6" fill="none" stroke="#f9f5ef" stroke-miterlimit="10" stroke-width="500" stroke-dasharray="1590" stroke-dashoffset="1590"></path>
    </g>
    <g clip-path="url(#mask-r2_2)">
      <path class="line2" d="M239.24,379.82V1969.6" fill="none" stroke="#f9f5ef" stroke-miterlimit="10" stroke-width="500" stroke-dasharray="1590" stroke-dashoffset="1590"></path>
    </g>
    <g clip-path="url(#mask-r2_3)">
      <path class="line2" d="M239.24,379.82V1969.6" fill="none" stroke="#f9f5ef" stroke-miterlimit="10" stroke-width="500" stroke-dasharray="1590" stroke-dashoffset="1590"></path>
    </g>
    <g clip-path="url(#mask-r2_4)">
      <path class="line2" d="M239.24,379.82V1969.6" fill="none" stroke="#f9f5ef" stroke-miterlimit="10" stroke-width="500" stroke-dasharray="1590" stroke-dashoffset="1590"></path>
    </g>
    <g clip-path="url(#mask-r2_5)">
      <path class="line2" d="M239.24,379.82V1969.6" fill="none" stroke="#f9f5ef" stroke-miterlimit="10" stroke-width="500" stroke-dasharray="1590" stroke-dashoffset="1590"></path>
    </g>
    <g clip-path="url(#mask-r3_1)">
      <path class="line3" d="M1099.53,1215.3v754.3" fill="none" stroke="#f9f5ef" stroke-miterlimit="10" stroke-width="1000" stroke-dasharray="755" stroke-dashoffset="755"></path>
    </g>
    <g clip-path="url(#mask-r3_2)">
      <path class="line3" d="M1099.53,1215.3v754.3" fill="none" stroke="#f9f5ef" stroke-miterlimit="10" stroke-width="1000" stroke-dasharray="755" stroke-dashoffset="755"></path>
    </g>
    <g clip-path="url(#mask-r3_3)">
      <path class="line3" d="M1099.53,1215.3v754.3" fill="none" stroke="#f9f5ef" stroke-miterlimit="10" stroke-width="1000" stroke-dasharray="755" stroke-dashoffset="755"></path>
    </g>
    <g clip-path="url(#mask-r3_4)">
      <path class="line3" d="M1099.53,1215.3v754.3" fill="none" stroke="#f9f5ef" stroke-miterlimit="10" stroke-width="1000" stroke-dasharray="755" stroke-dashoffset="755"></path>
    </g>
    <g clip-path="url(#mask-r3_5)">
      <path class="line3" d="M1099.53,1215.3v754.3" fill="none" stroke="#f9f5ef" stroke-miterlimit="10" stroke-width="1000" stroke-dasharray="755" stroke-dashoffset="755"></path>
    </g>
  </g>
  <style>
    #graphic-r {
      background: black;
     }
    #graphic-r .line1 {
      -webkit-animation: drawIn 1s ease-in 0s forwards;
              animation: drawIn 1s ease-in 0s forwards;
    }
    #graphic-r .line2 {
      -webkit-animation: drawIn 0.8s linear 0.9s forwards;
              animation: drawIn 0.8s linear 0.9s forwards;
    }
    #graphic-r .line3 {
      -webkit-animation: drawIn 0.7s ease-out 1.5s forwards;
              animation: drawIn 0.7s ease-out 1.5s forwards;
    }

    @-webkit-keyframes drawIn {
      to {
        stroke-dashoffset:  0px;
      }
    }

    @keyframes drawIn {
      to {
        stroke-dashoffset:  0px;
      }
    }
  </style>
</svg>
