<svg id="gladstone-house-anim" xmlns="http://www.w3.org/2000/svg" xmlns:xlink="http://www.w3.org/1999/xlink" viewBox="0 0 2099.81 253.3">
  <defs>
    <clipPath id="clip-let-1">
      <path d="M65.32,177.49c0,13.25,5.54,18.48,13.56,18.48s13.56-5.23,13.56-18.48V155.63H79.5V114.34h64.69V237.26h-26.5l-7.39-11.72C99.52,236,87.81,241,72.4,241,21,241,11.09,213.86,11.09,126.65c0-83.48,17.86-114.3,67.79-114.3,27.72,0,52.69,11.71,61.61,39.44,2.76,8.61,3.7,19.7,3.7,37.59H92.44V76.44C92.44,63.19,86.9,58,78.88,58S65.32,63.19,65.32,76.44Z" fill="none"/>
    </clipPath>
    <clipPath id="clip-let-2">
      <path d="M165.18,237.23V16h51.75V189.8h49.7l-8.19,47.43Z" fill="none"/>
    </clipPath>
    <clipPath id="clip-let-3">
      <polygon points="361.68 166.37 348.75 75.5 348.12 75.5 335.81 166.37 333.02 209.51 328.7 237.23 279.39 237.23 317.61 16.04 379.85 16.04 418.07 237.23 368.76 237.23 364.44 209.51 361.68 166.37" fill="none"/>
    </clipPath>
    <clipPath id="clip-let-4">
      <path d="M335.81,166.37h25.87q23.42,21.57,2.76,43.14H333Q314.54,191,335.81,166.37Z" fill="none"/>
    </clipPath>
    <clipPath id="clip-let-5">
      <path d="M439.05,16h52.37c58.55,0,76.41,14.79,76.41,110.61,0,84.71-12.63,110.61-76.41,110.61H439.05ZM490.8,194.72c23.4,0,25.25-8.33,25.25-48.68V106c0-40.35-1.85-48.68-25.25-48.68Z" fill="none"/>
    </clipPath>
    <clipPath id="clip-let-6">
      <path d="M670.73,84.43c-.63-24-7.71-30.82-18.8-30.82-9.86,0-15.09,6.76-15.09,14.78,0,26.5,83.16,48.05,83.16,109.67,0,44.36-26.81,62.84-69.63,62.84-54.54,0-64.69-37.9-64.69-77.31h48.06v10.18c0,14.78,8,25.87,20.33,25.87,10.46,0,17.85-6.17,17.85-17.85,0-29.26-83.17-52.07-83.17-111.52,0-37.28,29.57-57.92,63.47-57.92,38.81,0,65.31,25.56,65.31,62.52v9.56Z" fill="none"/>
    </clipPath>
    <clipPath id="clip-let-7">
      <path d="M821.74,61.65V237.26H770V61.65H729.93V16H861.77V61.65Z" fill="none"/>
    </clipPath>
    <clipPath id="clip-let-8">
      <path d="M875,61.65c7.39-35.74,31.42-49.3,64.37-49.3s57,13.56,64.38,49.3c2.47,11.4,3.38,31.11,3.38,65s-.94,53.6-3.38,65C996.32,227.39,972.3,241,939.34,241s-57-13.57-64.37-49.31c-2.48-11.4-3.39-31.11-3.39-65S872.52,73.05,875,61.65Zm50.84,115.22c0,13.25,5.54,18.48,13.56,18.48s13.56-5.23,13.56-18.48V76.44c0-13.25-5.54-18.48-13.56-18.48s-13.56,5.23-13.56,18.48Z" fill="none"/>
    </clipPath>
    <clipPath id="clip-let-9">
      <path d="M1028.11,237.23V16h49.59l33.58,98h.63V16h44.35V237.23h-48l-35.12-114.59h-.62V237.23Z" fill="none"/>
    </clipPath>
    <clipPath id="clip-let-10">
      <path d="M1177.28,237.23V16h112.14V61.65H1229V99.24h49.9v47.43H1229V189.8h63.46v47.43Z" fill="none"/>
    </clipPath>
    <clipPath id="clip-let-11">
      <path d="M1494.63,237.23h-51.75V142.4l-24.66,10.41v84.42h-51.75V16h51.75v79.5l24.66-10.41V16h51.75Z" fill="none"/>
    </clipPath>
    <clipPath id="clip-let-12">
      <path d="M1519,61.65c7.4-35.74,31.42-49.3,64.38-49.3s57,13.56,64.4,49.3c2.47,11.4,3.38,31.11,3.38,65s-.93,53.6-3.38,65c-7.39,35.74-31.42,49.31-64.4,49.31s-57-13.57-64.38-49.31c-2.47-11.4-3.38-31.11-3.38-65S1516.52,73.05,1519,61.65Zm50.84,115.22c0,13.25,5.55,18.48,13.57,18.48s13.56-5.23,13.56-18.48V76.44c0-13.25-5.55-18.48-13.56-18.48s-13.57,5.23-13.57,18.48Z" fill="none"/>
    </clipPath>
    <clipPath id="clip-let-13">
      <path d="M1800.29,16V183c0,37-22.8,57.92-64.09,57.92s-64.09-21-64.09-57.92V16h51.75V176.87c0,11.09,2.76,17.26,12.31,17.26s12.31-6.17,12.31-17.26V16Z" fill="none"/>
    </clipPath>
    <clipPath id="clip-let-14">
      <path d="M1903.22,84.46c-.63-24-7.71-30.83-18.8-30.83-9.86,0-15.09,6.77-15.09,14.79,0,26.5,83.17,48.05,83.17,109.67,0,44.36-26.82,62.84-69.64,62.84-54.54,0-64.69-37.9-64.69-77.31h48.06v10.17c0,14.79,8,25.88,20.33,25.88,10.46,0,17.85-6.17,17.85-17.86,0-29.26-83.16-52.06-83.16-111.51,0-37.28,29.57-57.92,63.46-57.92,38.81,0,65.31,25.56,65.31,62.52v9.56Z" fill="none"/>
    </clipPath>
    <clipPath id="clip-let-15">
      <path d="M1973.51,237.23V16h112.14V61.65h-60.39V99.24h49.9v47.43h-49.9V189.8h63.46v47.43Z" fill="none"/>
    </clipPath>
  </defs>
  <g id="line-text">
    <g clip-path="url(#clip-let-1)">
      <path id="line-text" d="M115.84,91.75V69.83s.38-37.42-35.14-37.42S38.36,65.94,36.1,75.12c-2.34,9.45-2,110,0,110,0,0,12.94,33.55,44.31,33.55s45.88-4,48.47-20.41c0-16.26.85-65.78.85-65.78l-52.09.86" fill="none" stroke="#000" stroke-miterlimit="10" stroke-width="74" stroke-dasharray="493" stroke-dashoffset="493"></path>
    </g>
    <g clip-path="url(#clip-let-2)">
      <path d="M190.68,12.35V213.83h77.48" fill="none" stroke="#000" stroke-miterlimit="10" stroke-width="54" stroke-dasharray="279" stroke-dashoffset="279"></path>
    </g>
    <g clip-path="url(#clip-let-3)">
      <path d="M301.8,243.5,337.33,16H360l35.53,225" fill="none" stroke="#000" stroke-miterlimit="10" stroke-width="52" stroke-dasharray="481" stroke-dashoffset="481"></path>
    </g>
    <g clip-path="url(#clip-let-4)">
      <path d="M301.8,187.94h89.57" fill="none" stroke="#000" stroke-miterlimit="10" stroke-width="44" stroke-dasharray="90" stroke-dashoffset="90"></path>
    </g>
    <g clip-path="url(#clip-let-5)">
      <path d="M463.94,243.5V39.12l39.5-.66s30.8,2.26,35.9,31.93c6.24,31.75,0,119.64,0,119.64s-12.28,26.06-35.9,26.06h-48" fill="none" stroke="#000" stroke-miterlimit="10" stroke-width="54" stroke-dasharray="511" stroke-dashoffset="511"></path>
    </g>
    <g clip-path="url(#clip-let-6)">
      <path d="M695.25,91.75s9.07-65.39-45-59c-41.17,2.64-49.1,41-27,63.12S714.52,161.84,693,196.82c-18.52,40.44-55.56,28.56-67.47,17-10.77-9.07-18.14-44.41-18.7-56.32" fill="none" stroke="#000" stroke-miterlimit="10" stroke-width="54" stroke-dasharray="452" stroke-dashoffset="452"></path>
    </g>
    <g clip-path="url(#clip-let-7)">
      <path d="M729.93,38.2H861.77" fill="none" stroke="#000" stroke-miterlimit="10" stroke-width="47" stroke-dasharray="132" stroke-dashoffset="132"></path>
      <path d="M795.85,42.9V237.23" fill="none" stroke="#000" stroke-miterlimit="10" stroke-width="52" stroke-dasharray="195" stroke-dashoffset="195"></path>
    </g>
    <g clip-path="url(#clip-let-8)">
      <path d="M898.92,123.87c.46-29.22,1.46-51.43,2.41-56.88,0,0-2.84-20.41,38-33.74,0,0,40.51,2.84,40.51,43.1s-1.33,117.07-1.33,117.07-11.71,27.71-36.09,27.71S905,207.4,900.85,195.35c-2.3-6.74-2.66-51.3-2.21-80.17" fill="none" stroke="#000" stroke-miterlimit="10" stroke-width="57" stroke-dasharray="475" stroke-dashoffset="475"></path>
    </g>
    <g clip-path="url(#clip-let-9)">
      <path d="M1049.91,245.29V12.35l85.84,228.55V8.88" fill="none" stroke="#000" stroke-miterlimit="10" stroke-width="51" stroke-dasharray="710" stroke-dashoffset="710"></path>
    </g>
    <g clip-path="url(#clip-let-10)">
      <path d="M1294.62,32.83l-95.09-.14V213.83h100.35" fill="none" stroke="#000" stroke-miterlimit="10" stroke-width="59" stroke-dasharray="377" stroke-dashoffset="377"></path>
      <path d="M1210.59,120.28h76.53" fill="none" stroke="#000" stroke-miterlimit="10" stroke-width="59" stroke-dasharray="77" stroke-dashoffset="77"></path>
    </g>
    <g clip-path="url(#clip-let-11)">
      <path d="M1390.3,12.35V241l5.1-108.77,76.16-31.75-.19-57.26-1.13-34.3s-1,53,0,78.1V245.29" fill="none" stroke="#000" stroke-miterlimit="10" stroke-width="56" stroke-dasharray="749" stroke-dashoffset="749"></path>
    </g>
    <g clip-path="url(#clip-let-12)">
      <path d="M1542.53,121.42c-.1-31.1,1.31-57.3,4.53-63.46,4.13-14.32,28.49-24,36.32-25,0,0,32.46,3.79,37.66,27.78,5.79,26.69,3.69,118.2-.85,134.59,0,0-9.64,24.71-31.18,24.71s-37.42-11.05-42.52-27.49c-2.47-8-3.87-53.94-4-83.07" fill="none" stroke="#000" stroke-miterlimit="10" stroke-width="56" stroke-dasharray="475" stroke-dashoffset="475"></path>
    </g>
    <g clip-path="url(#clip-let-13)">
      <path d="M1697,8.88V181.51s.14,41.82,39.19,39.62,40.75-26.86,41.6-39.62,0-172.63,0-172.63" fill="none" stroke="#000" stroke-miterlimit="10" stroke-width="61" stroke-dasharray="474" stroke-dashoffset="474"></path>
    </g>
    <g clip-path="url(#clip-let-14)">
      <path d="M1929.83,87.12s-5.84-55.87-44.5-53.87-46.59,35.84-37.52,50.47c8.79,23.24,77.11,63.21,78.81,79.37s6,56.41-36.57,60.37-48.31-44.5-49.24-68.31" fill="none" stroke="#000" stroke-miterlimit="10" stroke-width="54" stroke-dasharray="443" stroke-dashoffset="443"></path>
    </g>
    <g clip-path="url(#clip-let-15)">
      <path d="M2089.61,35h-91.38l.76,178.87h93.45" fill="none" stroke="#000" stroke-miterlimit="10" stroke-width="55" stroke-dasharray="364" stroke-dashoffset="364"></path>
      <path d="M2003.15,123.28h76.54" fill="none" stroke="#000" stroke-miterlimit="10" stroke-width="50" stroke-dasharray="77" stroke-dashoffset="77"></path>
    </g>
  </g>
  <style>
  #gladstone-house-anim #line-text > g:nth-child(1) > path  {
      -webkit-animation: drawIn 0.3s linear 0.1s forwards;
              animation: drawIn 0.3s linear 0.1s forwards;
    }

    #gladstone-house-anim #line-text > g:nth-child(2) > path {
      -webkit-animation: drawIn 0.3s linear 0.3s forwards;
              animation: drawIn 0.3s linear 0.3s forwards;
    }

    #gladstone-house-anim #line-text > g:nth-child(3) > path {
      -webkit-animation: drawIn 0.3s linear 0.5s forwards;
              animation: drawIn 0.3s linear 0.5s forwards;
    }
    #gladstone-house-anim #line-text > g:nth-child(4) > path {
      -webkit-animation: drawIn 0.2s linear 0.6s forwards;
              animation: drawIn 0.2s linear 0.6s forwards;
    }

    #gladstone-house-anim #line-text > g:nth-child(5) > path {
      -webkit-animation: drawIn 0.3s linear 0.7s forwards;
              animation: drawIn 0.3s linear 0.7s forwards;
    }

    #gladstone-house-anim #line-text > g:nth-child(6) > path {
      -webkit-animation: drawIn 0.3s linear 0.9s forwards;
              animation: drawIn 0.3s linear 0.9s forwards;
    }

    #gladstone-house-anim #line-text > g:nth-child(7) > path:nth-child(1)  {
      -webkit-animation: drawIn 0.2s linear 1.1s forwards;
              animation: drawIn 0.2s linear 1.1s forwards;
    }
    #gladstone-house-anim #line-text > g:nth-child(7) > path:nth-child(2)  {
      -webkit-animation: drawIn 0.2s linear 1.2s forwards;
              animation: drawIn 0.2s linear 1.2s forwards;
    }

    #gladstone-house-anim #line-text > g:nth-child(8) > path {
      -webkit-animation: drawIn 0.3s linear 1.3s forwards;
              animation: drawIn 0.3s linear 1.3s forwards;
    }

    #gladstone-house-anim #line-text > g:nth-child(9) > path {
      -webkit-animation: drawIn 0.3s linear 1.5s forwards;
              animation: drawIn 0.3s linear 1.5s forwards;
    }

    #gladstone-house-anim #line-text > g:nth-child(10) > path:nth-child(1)  {
      -webkit-animation: drawIn 0.3s linear 1.7s forwards;
              animation: drawIn 0.3s linear 1.7s forwards;
    }
    #gladstone-house-anim #line-text > g:nth-child(10) > path:nth-child(2)  {
      -webkit-animation: drawIn 0.2s linear 1.8s forwards;
              animation: drawIn 0.2s linear 1.8s forwards;
    }

    #gladstone-house-anim #line-text > g:nth-child(11) > path {
      -webkit-animation: drawIn 0.3s linear 1.9s forwards;
              animation: drawIn 0.3s linear 1.9s forwards;
    }

    #gladstone-house-anim #line-text > g:nth-child(12) > path {
      -webkit-animation: drawIn 0.3s linear 2.1s forwards;
              animation: drawIn 0.3s linear 2.1s forwards;
    }

    #gladstone-house-anim #line-text > g:nth-child(13) > path {
      -webkit-animation: drawIn 0.3s linear 2.3s forwards;
              animation: drawIn 0.3s linear 2.3s forwards;
    }

    #gladstone-house-anim #line-text > g:nth-child(14) > path {
      -webkit-animation: drawIn 0.3s linear 2.5s forwards;
              animation: drawIn 0.3s linear 2.5s forwards;
    }

    #gladstone-house-anim #line-text > g:nth-child(15) > path:nth-child(1)  {
      -webkit-animation: drawIn 0.3s linear 2.7s forwards;
              animation: drawIn 0.3s linear 2.7s forwards;
    }
    #gladstone-house-anim #line-text > g:nth-child(15) > path:nth-child(2)  {
      -webkit-animation: drawIn 0.2s linear 2.8s forwards;
              animation: drawIn 0.2s linear 2.8s forwards;
    }


    #gladstone-house-anim #line-text > g {
      -webkit-transform-origin: 1050px 253.3px;
          -ms-transform-origin: 1050px 253.3px;
              transform-origin: 1050px 253.3px;
      -webkit-transform: scale(1, 0.3);
          -ms-transform: scale(1, 0.3);
              transform: scale(1, 0.3);
      -webkit-animation: scaleIn 0.5s ease-out forwards;
              animation: scaleIn 0.5s ease-out forwards;
    }

    #gladstone-house-anim #line-text > g:nth-child(1) {
      -webkit-animation-delay: 0.1s;
              animation-delay: 0.1s;
    }
    #gladstone-house-anim #line-text > g:nth-child(2) {
      -webkit-animation-delay: 0.3s;
              animation-delay: 0.3s;
    }
    #gladstone-house-anim #line-text > g:nth-child(3),
    #gladstone-house-anim #line-text > g:nth-child(4) {
      -webkit-animation-delay: 0.5s;
              animation-delay: 0.5s;
    }
    #gladstone-house-anim #line-text > g:nth-child(5) {
      -webkit-animation-delay: 0.7s;
              animation-delay: 0.7s;
    }
    #gladstone-house-anim #line-text > g:nth-child(6) {
      -webkit-animation-delay: 0.9s;
              animation-delay: 0.9s;
    }
    #gladstone-house-anim #line-text > g:nth-child(7) {
      -webkit-animation-delay: 1.1s;
              animation-delay: 1.1s;
    }
    #gladstone-house-anim #line-text > g:nth-child(8) {
      -webkit-animation-delay: 1.3s;
              animation-delay: 1.3s;
    }
    #gladstone-house-anim #line-text > g:nth-child(9) {
      -webkit-animation-delay: 1.5s;
              animation-delay: 1.5s;
    }
    #gladstone-house-anim #line-text > g:nth-child(10) {
      -webkit-animation-delay: 1.7s;
              animation-delay: 1.7s;
    }
    #gladstone-house-anim #line-text > g:nth-child(11) {
      -webkit-animation-delay: 1.9s;
              animation-delay: 1.9s;
    }
    #gladstone-house-anim #line-text > g:nth-child(12) {
      -webkit-animation-delay: 2.1s;
              animation-delay: 2.1s;
    }
    #gladstone-house-anim #line-text > g:nth-child(13) {
      -webkit-animation-delay: 2.3s;
              animation-delay: 2.3s;
    }
    #gladstone-house-anim #line-text > g:nth-child(14) {
      -webkit-animation-delay: 2.5s;
              animation-delay: 2.5s;
    }
    #gladstone-house-anim #line-text > g:nth-child(15) {
      -webkit-animation-delay: 2.7s;
              animation-delay: 2.7s;
    }


    @-webkit-keyframes drawIn {
      to {
        stroke-dashoffset:  0px;
      }
    }

    @keyframes drawIn {
      to {
        stroke-dashoffset:  0px;
      }
    }

    @-webkit-keyframes scaleIn {
      to {
        -webkit-transform: scale(1, 1);
                transform: scale(1, 1);
      }
    }

    @keyframes scaleIn {
      to {
        -webkit-transform: scale(1, 1);
                transform: scale(1, 1);
      }
    }
  </style>
</svg>
