<svg version="1.1" id="rsp-animation" xmlns="http://www.w3.org/2000/svg" xmlns:xlink="http://www.w3.org/1999/xlink" x="0px"
	 y="0px" viewBox="-30 -30 160 160" enable-background="new 0 0 100 100" xml:space="preserve">
<defs>
	<clipPath id="clip_silver_shadow">
		<path d="M79.114,63.84L51.919,50.243c-1.878-0.939-4.922-0.939-6.799,0L17.924,63.84
					c-1.877,0.938-1.877,2.461,0,3.399L45.12,80.838c1.877,0.938,4.921,0.938,6.799,0l27.195-13.599
					C80.991,66.301,80.991,64.778,79.114,63.84z"/>
	</clipPath>
	<clipPath id="clip_blue_shadow">
		<path d="M79.114,51.756L51.919,38.157c-1.878-0.938-4.922-0.938-6.799,0L17.924,51.756
			c-1.877,0.938-1.877,2.46,0,3.399L45.12,68.753c1.877,0.938,4.921,0.938,6.799,0l27.195-13.598
			C80.991,54.216,80.991,52.694,79.114,51.756z"/>
	</clipPath>
	<clipPath id="clip_blue_shape">
		<path id="clip-blue" d="M83.988,53.874c0-3-2.432-5.432-5.432-5.432H13.375c-3,0-5.432,2.432-5.432,5.432v5.432h10.864v8.148
				c0,1.501,1.217,2.717,2.716,2.717s2.716-1.217,2.716-2.717v-8.148h5.432c0,1.499,1.217,2.716,2.716,2.716
				c1.499,0,2.716-1.217,2.716-2.716h29.875v2.716c0,1.499,1.217,2.716,2.716,2.716s2.716-1.217,2.716-2.716v-2.716h13.579V53.874z"
				/>
	</clipPath>
	<clipPath id="clip_silver_shape">
		<path id="clip-silver" d="M7.943,57.306v10.865c0,2.998,2.432,5.43,5.432,5.43h65.181c3,0,5.432-2.432,5.432-5.43V57.306H7.943z"/>
	</clipPath>
	<clipPath id="clip_pink_shape">
		<path id="clip-pink" d="M51.397,55.329h-5.432c-3,0-5.432,2.431-5.432,5.43v27.159c0,3.001,2.432,5.432,5.432,5.432h5.432
				c3,0,5.432-2.431,5.432-5.432V60.76C56.829,57.76,54.397,55.329,51.397,55.329z"/>
	</clipPath>
	<filter id="filter_shadow" x="-20%" y="-20%" width="140%" height="140%" filterUnits="objectBoundingBox" primitiveUnits="userSpaceOnUse" color-interpolation-filters="linearRGB">
			<feDropShadow stdDeviation="0 0.5" in="SourceGraphic" dx="0" dy="0.5" flood-color="#000000" flood-opacity="0.5" x="0%" y="0%" width="100%" height="100%" result="dropShadow"/>
	</filter>
</defs>
<g id="shapes">
	<circle id="bg-grey-circle" fill="#777777" cx="50" cy="50" r="110"/>
	<g id="bg-shadow" opacity="0" filter="url(#filter_shadow)">
		<path fill="#F50057" d="M51.397,55.329h-5.432c-3,0-5.432,2.431-5.432,5.43v27.159c0,3.001,2.432,5.432,5.432,5.432h5.432
			c3,0,5.432-2.431,5.432-5.432V60.76C56.829,57.76,54.397,55.329,51.397,55.329z"/>
		<path fill="#9E9E9E" d="M89.42,17.306h-5.432v5.432h2.716c1.499,0,2.716,1.217,2.716,2.716v5.432v2.716
			c0,3-2.432,5.432-5.432,5.432H70.408H56.829c-6.001,0-10.864,4.864-10.864,10.864v5.433h5.432v-5.433
			c0-3.001,2.432-5.432,5.432-5.432h13.579h13.579c5.999,0,10.864-4.863,10.864-10.864v-2.716v-8.148
			C94.851,19.738,92.419,17.306,89.42,17.306z"/>
		<path fill="#CFCFCF" d="M7.943,17.306v10.865c0,2.998,2.432,5.43,5.432,5.43h65.181c3,0,5.432-2.432,5.432-5.43V17.306H7.943z"/>
		<path fill="#3F51B5" d="M83.988,11.874c0-3-2.432-5.432-5.432-5.432H13.375c-3,0-5.432,2.432-5.432,5.432v5.432h10.864v8.148
			c0,1.501,1.217,2.717,2.716,2.717s2.716-1.217,2.716-2.717v-8.148h5.432c0,1.499,1.217,2.716,2.716,2.716
			c1.499,0,2.716-1.217,2.716-2.716h29.875v2.716c0,1.499,1.217,2.716,2.716,2.716s2.716-1.217,2.716-2.716v-2.716h13.579V11.874z"/>
	</g>
	<path id="dark-silver-shape" fill="#9E9E9E" d="M89.42,17.306h-5.432v5.432h2.716c1.499,0,2.716,1.217,2.716,2.716v5.432v2.716
				c0,3-2.432,5.432-5.432,5.432H70.408H56.829c-6.001,0-10.864,4.864-10.864,10.864v5.433h5.432v-5.433
				c0-3.001,2.432-5.432,5.432-5.432h13.579h13.579c5.999,0,10.864-4.863,10.864-10.864v-2.716v-8.148
				C94.851,19.738,92.419,17.306,89.42,17.306z"/>
	<g clip-path="url(#clip_pink_shape)" filter="url(#filter_shadow)">
		<path id="pink-shape" fill="#F50057" d="M79.438,75.783L52.243,62.186c-1.878-0.939-4.922-0.939-6.799,0L18.248,75.783
			c-1.877,0.938-1.877,2.461,0,3.399l27.196,13.599c1.877,0.938,4.921,0.938,6.799,0l27.195-13.599
			C81.315,78.244,81.315,76.721,79.438,75.783z"/>
	</g>
	<g id="silver-shape" clip-path="url(#clip_silver_shape)" filter="url(#filter_shadow)">
		<g id="silver-grow">
			<path fill="#CFCFCF" d="M79.114,63.84L51.919,50.243c-1.878-0.939-4.922-0.939-6.799,0L17.924,63.84
				c-1.877,0.938-1.877,2.461,0,3.399L45.12,80.838c1.877,0.938,4.921,0.938,6.799,0l27.195-13.599
				C80.991,66.301,80.991,64.778,79.114,63.84z"/>
			<g clip-path="url(#clip_silver_shadow)">
				<path id="silver-shadow" fill="#9E9E9E" d="M79.438,75.783L52.243,62.186c-1.878-0.939-4.922-0.939-6.799,0L18.248,75.783
					c-1.877,0.938-1.877,2.461,0,3.399l27.196,13.599c1.877,0.938,4.921,0.938,6.799,0l27.195-13.599
					C81.315,78.244,81.315,76.721,79.438,75.783z"/>
			</g>
		</g>
	</g>
	<g id="blue-shape" clip-path="url(#clip_blue_shape)" filter="url(#filter_shadow)">
		<g id="blue-grow">
			<path fill="#3F51B5" d="M79.114,51.756L51.919,38.157c-1.878-0.938-4.922-0.938-6.799,0L17.924,51.756
				c-1.877,0.938-1.877,2.46,0,3.399L45.12,68.753c1.877,0.938,4.921,0.938,6.799,0l27.195-13.598
				C80.991,54.216,80.991,52.694,79.114,51.756z"/>
			<g clip-path="url(#clip_blue_shadow)">
				<path id="blue-shadow" fill="#303F9F" d="M79.114,51.756L51.919,38.157c-1.878-0.938-4.922-0.938-6.799,0L17.924,51.756
					c-1.877,0.938-1.877,2.46,0,3.399L45.12,68.753c1.877,0.938,4.921,0.938,6.799,0l27.195-13.598
					C80.991,54.216,80.991,52.694,79.114,51.756z"/>
			</g>
		</g>
	</g>
</g>
<style>
	#rsp-animation #blue-shape {
		-webkit-transform: translate(0px, -42px);
		    -ms-transform: translate(0px, -42px);
		        transform: translate(0px, -42px);
		-webkit-animation: moveBlueShape 1.75s ease-in-out 0s forwards;
		        animation: moveBlueShape 1.75s ease-in-out 0s forwards;
	}
	#rsp-animation #blue-shadow {
		-webkit-transform: translate(0px, 33px);
		    -ms-transform: translate(0px, 33px);
		        transform: translate(0px, 33px);
		-webkit-animation: moveBlueShadow 1.75s ease-in-out 0s forwards;
		        animation: moveBlueShadow 1.75s ease-in-out 0s forwards;
	}
	#rsp-animation #blue-grow {
		-webkit-transform-origin: 50px 50px;
		    -ms-transform-origin: 50px 50px;
		        transform-origin: 50px 50px;
		-webkit-animation: tranBlSl 1.75s ease-in-out 0s forwards;
		        animation: tranBlSl 1.75s ease-in-out 0s forwards;
	}
	#rsp-animation #clip-blue {
		-webkit-transform-origin: 50px 54px;
		    -ms-transform-origin: 50px 54px;
		        transform-origin: 50px 54px;
		-webkit-transform: scale(1, 3.5);
		    -ms-transform: scale(1, 3.5);
		        transform: scale(1, 3.5);
		-webkit-animation: maskBlue 1.75s ease-in-out 0s forwards;
		        animation: maskBlue 1.75s ease-in-out 0s forwards;
	}

	#rsp-animation #silver-shape {
		-webkit-transform: translate(0px, -21px);
		    -ms-transform: translate(0px, -21px);
		        transform: translate(0px, -21px);
		-webkit-animation: moveSilverShape 1.75s ease-in-out 0s forwards;
		        animation: moveSilverShape 1.75s ease-in-out 0s forwards;
	}
	#rsp-animation #silver-shadow {
		-webkit-transform: translate(0px, 21px);
		    -ms-transform: translate(0px, 21px);
		        transform: translate(0px, 21px);
		-webkit-animation: moveSilverShadow 1.75s ease-in-out 0s forwards;
		        animation: moveSilverShadow 1.75s ease-in-out 0s forwards;
	}
	#rsp-animation #silver-grow {
		-webkit-transform-origin: 50px 65.5px;
		    -ms-transform-origin: 50px 65.5px;
		        transform-origin: 50px 65.5px;
		-webkit-animation: tranBlSl 1.75s ease-in-out 0s forwards;
		        animation: tranBlSl 1.75s ease-in-out 0s forwards;
	}
	#rsp-animation #clip-silver {
		-webkit-transform-origin: 50px 65.5px;
		    -ms-transform-origin: 50px 65.5px;
		        transform-origin: 50px 65.5px;
		-webkit-transform: scale(1, 2.5);
		    -ms-transform: scale(1, 2.5);
		        transform: scale(1, 2.5);
		-webkit-animation: maskSilver 1.75s ease-in-out 0s forwards;
		        animation: maskSilver 1.75s ease-in-out 0s forwards;
	}

	#rsp-animation #pink-shape {
		-webkit-transform-origin: 50px 87px;
		    -ms-transform-origin: 50px 87px;
		        transform-origin: 50px 87px;
		-webkit-transform: scale(1, 1.5);
		    -ms-transform: scale(1, 1.5);
		        transform: scale(1, 1.5);
		-webkit-animation: tranPink 1.75s ease-in-out 0s forwards;
		        animation: tranPink 1.75s ease-in-out 0s forwards;
	}
	#rsp-animation #clip-pink {
		-webkit-transform-origin: 48.5px 85px;
		    -ms-transform-origin: 48.5px 85px;
		        transform-origin: 48.5px 85px;
		-webkit-transform: scale(4.5, 1.5);
		    -ms-transform: scale(4.5, 1.5);
		        transform: scale(4.5, 1.5);
		-webkit-animation: maskPink 1.75s ease-in-out 0s forwards;
		        animation: maskPink 1.75s ease-in-out 0s forwards;
	}

	#rsp-animation #dark-silver-shape {
		-webkit-transform-origin: 48.7px 55.3px;
		    -ms-transform-origin: 48.7px 55.3px;
		        transform-origin: 48.7px 55.3px;
		-webkit-transform: scale(1, 0);
		    -ms-transform: scale(1, 0);
		        transform: scale(1, 0);
		-webkit-animation: tranDarkSilver 1.75s ease-in-out 0s forwards;
		        animation: tranDarkSilver 1.75s ease-in-out 0s forwards;
	}

	#rsp-animation #bg-shadow {
		-webkit-animation: showShadow 0.1s ease-in 1.9s forwards;
		        animation: showShadow 0.1s ease-in 1.9s forwards;
	}

	#rsp-animation #shapes {
		-webkit-transform-origin: 50px 50px;
		    -ms-transform-origin: 50px 50px;
		        transform-origin: 50px 50px;
		-webkit-animation: showEntaireShape 2s linear 0s forwards;
		        animation: showEntaireShape 2s linear 0s forwards;
  }
  #rsp-animation #bg-grey-circle {
		-webkit-transform-origin: 50px 50px;
		    -ms-transform-origin: 50px 50px;
		        transform-origin: 50px 50px;
		-webkit-transform: scale(0, 0);
		    -ms-transform: scale(0, 0);
		        transform: scale(0, 0);
		-webkit-animation: growBgGreyShape 0.5s ease-out 1.4s forwards;
		        animation: growBgGreyShape 0.5s ease-out 1.4s forwards;
	}

	@-webkit-keyframes moveBlueShape {
		0% {
			-webkit-transform: translate(0px, -62px);
			        transform: translate(0px, -62px);
		}
		75% {
			-webkit-transform: translate(0px, 20px);
			        transform: translate(0px, 20px);
		}
		100% {
			-webkit-transform: translate(0px, -42px);
			        transform: translate(0px, -42px);
		}
	}

	@keyframes moveBlueShape {
		0% {
			-webkit-transform: translate(0px, -62px);
			        transform: translate(0px, -62px);
		}
		75% {
			-webkit-transform: translate(0px, 20px);
			        transform: translate(0px, 20px);
		}
		100% {
			-webkit-transform: translate(0px, -42px);
			        transform: translate(0px, -42px);
		}
	}
	@-webkit-keyframes moveBlueShadow {
		0% {
			-webkit-transform: translate(0px, 43px);
			        transform: translate(0px, 43px);
		}
		75% {
			-webkit-transform: translate(0px, 2px);
			        transform: translate(0px, 2px);
		}
		100% {
			-webkit-transform: translate(0px, 33px);
			        transform: translate(0px, 33px);
		}
	}
	@keyframes moveBlueShadow {
		0% {
			-webkit-transform: translate(0px, 43px);
			        transform: translate(0px, 43px);
		}
		75% {
			-webkit-transform: translate(0px, 2px);
			        transform: translate(0px, 2px);
		}
		100% {
			-webkit-transform: translate(0px, 33px);
			        transform: translate(0px, 33px);
		}
	}
	@-webkit-keyframes tranBlSl {
		0% {
			-webkit-transform: scale(1, 1);
			        transform: scale(1, 1);
		}
		75% {
			-webkit-transform: scale(1, 1);
			        transform: scale(1, 1);
		}
		100% {
			-webkit-transform: scale(1.8, 1.8);
			        transform: scale(1.8, 1.8);
		}
	}
	@keyframes tranBlSl {
		0% {
			-webkit-transform: scale(1, 1);
			        transform: scale(1, 1);
		}
		75% {
			-webkit-transform: scale(1, 1);
			        transform: scale(1, 1);
		}
		100% {
			-webkit-transform: scale(1.8, 1.8);
			        transform: scale(1.8, 1.8);
		}
	}
	@-webkit-keyframes maskBlue {
		0% {
			-webkit-transform: scale(1, 3.5);
			        transform: scale(1, 3.5);
		}
		75% {
			-webkit-transform: scale(1, 3.5);
			        transform: scale(1, 3.5);
		}
		100% {
			-webkit-transform: scale(1, 1);
			        transform: scale(1, 1);
		}
	}
	@keyframes maskBlue {
		0% {
			-webkit-transform: scale(1, 3.5);
			        transform: scale(1, 3.5);
		}
		75% {
			-webkit-transform: scale(1, 3.5);
			        transform: scale(1, 3.5);
		}
		100% {
			-webkit-transform: scale(1, 1);
			        transform: scale(1, 1);
		}
	}

	@-webkit-keyframes moveSilverShape {
		0% {
			-webkit-transform: translate(0px, -31px);
			        transform: translate(0px, -31px);
		}
		75% {
			-webkit-transform: translate(0px, 10px);
			        transform: translate(0px, 10px);
		}
		100% {
			-webkit-transform: translate(0px, -40px);
			        transform: translate(0px, -40px);
		}
	}

	@keyframes moveSilverShape {
		0% {
			-webkit-transform: translate(0px, -31px);
			        transform: translate(0px, -31px);
		}
		75% {
			-webkit-transform: translate(0px, 10px);
			        transform: translate(0px, 10px);
		}
		100% {
			-webkit-transform: translate(0px, -40px);
			        transform: translate(0px, -40px);
		}
	}
	@-webkit-keyframes moveSilverShadow {
		0% {
			-webkit-transform: translate(0px, 31px);
			        transform: translate(0px, 31px);
		}
		75% {
			-webkit-transform: translate(0px, -10px);
			        transform: translate(0px, -10px);
		}
		100% {
			-webkit-transform: translate(0px, 40px);
			        transform: translate(0px, 40px);
		}
	}
	@keyframes moveSilverShadow {
		0% {
			-webkit-transform: translate(0px, 31px);
			        transform: translate(0px, 31px);
		}
		75% {
			-webkit-transform: translate(0px, -10px);
			        transform: translate(0px, -10px);
		}
		100% {
			-webkit-transform: translate(0px, 40px);
			        transform: translate(0px, 40px);
		}
	}
	@-webkit-keyframes maskSilver {
		0% {
			-webkit-transform: scale(1, 2.5);
			        transform: scale(1, 2.5);
		}
		75% {
			-webkit-transform: scale(1, 2.5);
			        transform: scale(1, 2.5);
		}
		100% {
			-webkit-transform: scale(1, 1);
			        transform: scale(1, 1);
		}
	}
	@keyframes maskSilver {
		0% {
			-webkit-transform: scale(1, 2.5);
			        transform: scale(1, 2.5);
		}
		75% {
			-webkit-transform: scale(1, 2.5);
			        transform: scale(1, 2.5);
		}
		100% {
			-webkit-transform: scale(1, 1);
			        transform: scale(1, 1);
		}
	}

	@-webkit-keyframes tranPink {
		0% {
			-webkit-transform: scale(1, 1);
			        transform: scale(1, 1);
		}
		75% {
			-webkit-transform: scale(1, 1);
			        transform: scale(1, 1);
		}
		100% {
			-webkit-transform: scale(1, 1.5);
			        transform: scale(1, 1.5);
		}
	}

	@keyframes tranPink {
		0% {
			-webkit-transform: scale(1, 1);
			        transform: scale(1, 1);
		}
		75% {
			-webkit-transform: scale(1, 1);
			        transform: scale(1, 1);
		}
		100% {
			-webkit-transform: scale(1, 1.5);
			        transform: scale(1, 1.5);
		}
	}
	@-webkit-keyframes maskPink {
		0% {
			-webkit-transform: scale(4.5, 1.5);
			        transform: scale(4.5, 1.5);
		}
		75% {
			-webkit-transform: scale(4.5, 1.5);
			        transform: scale(4.5, 1.5);
		}
		100% {
			-webkit-transform: scale(1, 1);
			        transform: scale(1, 1);
		}
	}
	@keyframes maskPink {
		0% {
			-webkit-transform: scale(4.5, 1.5);
			        transform: scale(4.5, 1.5);
		}
		75% {
			-webkit-transform: scale(4.5, 1.5);
			        transform: scale(4.5, 1.5);
		}
		100% {
			-webkit-transform: scale(1, 1);
			        transform: scale(1, 1);
		}
	}

	@-webkit-keyframes tranDarkSilver {
		0% {
			opacity: 0;
			-webkit-transform: scale(0, 0);
			        transform: scale(0, 0);
		}
		75% {
			opacity: 0;
			-webkit-transform: scale(0, 0);
			        transform: scale(0, 0);
		}
		75.1% {
			opacity: 1;
			-webkit-transform: scale(0, 0);
			        transform: scale(0, 0);
		}
		100% {
			opacity: 1;
			-webkit-transform: scale(1, 1);
			        transform: scale(1, 1);
		}
	}

	@keyframes tranDarkSilver {
		0% {
			opacity: 0;
			-webkit-transform: scale(0, 0);
			        transform: scale(0, 0);
		}
		75% {
			opacity: 0;
			-webkit-transform: scale(0, 0);
			        transform: scale(0, 0);
		}
		75.1% {
			opacity: 1;
			-webkit-transform: scale(0, 0);
			        transform: scale(0, 0);
		}
		100% {
			opacity: 1;
			-webkit-transform: scale(1, 1);
			        transform: scale(1, 1);
		}
	}

	@-webkit-keyframes showShadow {
		to {
			opacity: 1;
		}
	}

	@keyframes showShadow {
		to {
			opacity: 1;
		}
	}

	@-webkit-keyframes showEntaireShape {
		0% {
			-webkit-transform: translate(0px, 0px) scale(0.5, 0.5);
			        transform: translate(0px, 0px) scale(0.5, 0.5);
		}
		70% {
			-webkit-transform: translate(0px, 0px) scale(0.8, 0.8);
			        transform: translate(0px, 0px) scale(0.8, 0.8);
			-webkit-animation-timing-function: ease-out;
			        animation-timing-function: ease-out;
		}
		80% {
			-webkit-transform: translate(0px, -10px) scale(0.94, 0.94);
			        transform: translate(0px, -10px) scale(0.94, 0.94);
			-webkit-animation-timing-function: ease-in;
			        animation-timing-function: ease-in;
		}
		90% {
			-webkit-transform: translate(0px, 0px) scale(0.97, 0.97);
			        transform: translate(0px, 0px) scale(0.97, 0.97);
			-webkit-animation-timing-function: ease-out;
			        animation-timing-function: ease-out;
		}
		95% {
			-webkit-transform: translate(0px, -4px) scale(0.99, 0.99);
			        transform: translate(0px, -4px) scale(0.99, 0.99);
			-webkit-animation-timing-function: ease-in;
			        animation-timing-function: ease-in;
		}
		100% {
			-webkit-transform: translate(0px, 0px) scale(1, 1);
			        transform: translate(0px, 0px) scale(1, 1);
		}
	}

	@keyframes showEntaireShape {
		0% {
			-webkit-transform: translate(0px, 0px) scale(0.5, 0.5);
			        transform: translate(0px, 0px) scale(0.5, 0.5);
		}
		70% {
			-webkit-transform: translate(0px, 0px) scale(0.8, 0.8);
			        transform: translate(0px, 0px) scale(0.8, 0.8);
			-webkit-animation-timing-function: ease-out;
			        animation-timing-function: ease-out;
		}
		80% {
			-webkit-transform: translate(0px, -10px) scale(0.94, 0.94);
			        transform: translate(0px, -10px) scale(0.94, 0.94);
			-webkit-animation-timing-function: ease-in;
			        animation-timing-function: ease-in;
		}
		90% {
			-webkit-transform: translate(0px, 0px) scale(0.97, 0.97);
			        transform: translate(0px, 0px) scale(0.97, 0.97);
			-webkit-animation-timing-function: ease-out;
			        animation-timing-function: ease-out;
		}
		95% {
			-webkit-transform: translate(0px, -4px) scale(0.99, 0.99);
			        transform: translate(0px, -4px) scale(0.99, 0.99);
			-webkit-animation-timing-function: ease-in;
			        animation-timing-function: ease-in;
		}
		100% {
			-webkit-transform: translate(0px, 0px) scale(1, 1);
			        transform: translate(0px, 0px) scale(1, 1);
		}
	}

	@-webkit-keyframes growBgGreyShape {
		to {
			-webkit-transform: scale(1, 1);
			        transform: scale(1, 1);
			opacity: 0;
		}
	}

	@keyframes growBgGreyShape {
		to {
			-webkit-transform: scale(1, 1);
			        transform: scale(1, 1);
			opacity: 0;
		}
	}
</style>
</svg>