<svg version="1.1" id="srs-animation" xmlns="http://www.w3.org/2000/svg" xmlns:xlink="http://www.w3.org/1999/xlink" x="0px"
	 y="0px" viewBox="-30 -30 160 160" enable-background="new 0 0 100 100" xml:space="preserve">
<defs>
	<filter id="filter_shadow" x="-20%" y="-20%" width="140%" height="140%" filterUnits="objectBoundingBox" primitiveUnits="userSpaceOnUse" color-interpolation-filters="linearRGB">
			<feDropShadow stdDeviation="0 0.5" in="SourceGraphic" dx="0" dy="0.5" flood-color="#000000" flood-opacity="0.5" x="0%" y="0%" width="100%" height="100%" result="dropShadow"/>
	</filter>
</defs>
<g id="entaire-shape">
	<circle id="bg-grey-circle" fill="#777777" cx="50" cy="50" r="110"/>
	<g filter="url(#filter_shadow)">
		<rect x="15.326" y="34.144" fill="#EEEEEE" width="70.13" height="50.694"/>
		<path fill="#FFFFFF" d="M85.593,51.32v-2.438h-2.444V48.88H69.747V34.256h-0.006v-1.221h-2.438V48.88H51.464v-1.216h-0.006V33.035
			H49.02V48.88H33.174V33.035h-2.438V48.88H14.891v2.438h15.846v15.846H14.891v2.438h2.444v0.002h13.401v14.624h0.006v1.221h2.438
			V69.604H49.02v1.216h0.006v14.629h2.438V69.604H67.31v15.846h2.438V69.604h15.846v-2.438H69.747V51.32H85.593z M46.589,51.318
			v0.002h2.431v15.843H33.181V53.563h-0.006v-2.245H46.589z M53.896,67.166v-0.002h-2.431V51.32h15.839v13.601h0.006v2.245H53.896z"
			/>
		<path fill="#E0E0E0" d="M85.158,34.144V81.53c0,1.377-1.117,2.494-2.494,2.494H17.82c-1.377,0-2.494-1.117-2.494-2.494V34.144
			h-4.988v49.88c0,2.756,2.233,4.988,4.988,4.988h69.832c2.755,0,4.988-2.232,4.988-4.988v-49.88H85.158z"/>
	</g>
	<path id="header" filter="url(#filter_shadow)" fill="#AAAAAA" d="M85.158,9.204H15.326c-2.755,0-4.988,2.233-4.988,4.988v19.952h79.808V14.192
		C90.146,11.437,87.913,9.204,85.158,9.204z M40.266,24.169c-1.377,0-2.494-1.117-2.494-2.495c0-1.378,1.117-2.493,2.494-2.493
		s2.494,1.116,2.494,2.493S41.643,24.169,40.266,24.169z M60.218,24.169c-1.377,0-2.494-1.117-2.494-2.495
		c0-1.378,1.117-2.493,2.494-2.493s2.494,1.116,2.494,2.493S61.595,24.169,60.218,24.169z"/>
	<polygon id="chart1" fill="#CCCCCC" points="62.29,56.682 56.07,51.736 34.031,69.261 23.011,60.499 14.44,70.887 14.44,84.838 
		85.456,84.838 85.456,38.262 "/>
	<path id="chart2" fill="#999999" d="M62.192,71.37l-12.244-7.347L35.255,78.716l-8.571-6.122L14.44,84.838h71.016V54.415
		L62.192,71.37z"/>
</g>
<style>
	#srs-animation #chart1 {
		-webkit-transform-origin: 50px 84.85px;
		    -ms-transform-origin: 50px 84.85px;
		        transform-origin: 50px 84.85px;
		-webkit-transform: scale(1, 0);
		    -ms-transform: scale(1, 0);
		        transform: scale(1, 0);
		-webkit-animation: scaleIn 1.3s ease-in-out 0s forwards, changeChartColor1 1s ease-in 0.5s forwards;
		        animation: scaleIn 1.3s ease-in-out 0s forwards, changeChartColor1 1s ease-in 0.5s forwards;
	}

	#srs-animation #chart2 {
		-webkit-transform-origin: 50px 84.85px;
		    -ms-transform-origin: 50px 84.85px;
		        transform-origin: 50px 84.85px;
		-webkit-transform: scale(1, 0);
		    -ms-transform: scale(1, 0);
		        transform: scale(1, 0);
		-webkit-animation: scaleIn 1s ease-in-out 0.3s forwards, changeChartColor2 1s ease-in 0.5s forwards;
		        animation: scaleIn 1s ease-in-out 0.3s forwards, changeChartColor2 1s ease-in 0.5s forwards;
	}

	#srs-animation #header {
		-webkit-animation: changeHeaderColor 1.5s ease-in 0s forwards;
		        animation: changeHeaderColor 1.5s ease-in 0s forwards;
	}

	#srs-animation #entaire-shape {
		-webkit-transform-origin: 50px 50px;
		    -ms-transform-origin: 50px 50px;
		        transform-origin: 50px 50px;
		-webkit-animation: showEntaireShape 2s linear 0s forwards;
		        animation: showEntaireShape 2s linear 0s forwards;
  }

  #srs-animation #bg-grey-circle {
		-webkit-transform-origin: 50px 50px;
		    -ms-transform-origin: 50px 50px;
		        transform-origin: 50px 50px;
		-webkit-transform: scale(0, 0);
		    -ms-transform: scale(0, 0);
		        transform: scale(0, 0);
		-webkit-animation: growBgGreyShape 0.5s ease-out 1s forwards;
		        animation: growBgGreyShape 0.5s ease-out 1s forwards;
	}

	@-webkit-keyframes scaleIn {
		to {
			-webkit-transform: scale(1, 1);
			        transform: scale(1, 1);
		}
	}

	@keyframes scaleIn {
		to {
			-webkit-transform: scale(1, 1);
			        transform: scale(1, 1);
		}
	}

	@-webkit-keyframes changeHeaderColor {
		to {
			fill: #FF5722;
		}
	}

	@keyframes changeHeaderColor {
		to {
			fill: #FF5722;
		}
	}

	@-webkit-keyframes changeChartColor1 {
		to {
			fill: #FF8A50;
		}
	}

	@keyframes changeChartColor1 {
		to {
			fill: #FF8A50;
		}
	}

	@-webkit-keyframes changeChartColor2 {
		to {
			fill: #C63F17;
		}
	}

	@keyframes changeChartColor2 {
		to {
			fill: #C63F17;
		}
	}

	@-webkit-keyframes showEntaireShape {
		0% {
			-webkit-transform: translate(0px, 0px) scale(0.5, 0.5);
			        transform: translate(0px, 0px) scale(0.5, 0.5);
		}
		50% {
			-webkit-transform: translate(0px, 0px) scale(0.9, 0.9);
			        transform: translate(0px, 0px) scale(0.9, 0.9);
			-webkit-animation-timing-function: ease-out;
			        animation-timing-function: ease-out;
		}
		60% {
			-webkit-transform: translate(0px, -10px) scale(0.95, 0.95);
			        transform: translate(0px, -10px) scale(0.95, 0.95);
			-webkit-animation-timing-function: ease-in;
			        animation-timing-function: ease-in;
		}
		70% {
			-webkit-transform: translate(0px, 0px) scale(0.97, 0.97);
			        transform: translate(0px, 0px) scale(0.97, 0.97);
			-webkit-animation-timing-function: ease-out;
			        animation-timing-function: ease-out;
		}
		75% {
			-webkit-transform: translate(0px, -4px) scale(0.99, 0.99);
			        transform: translate(0px, -4px) scale(0.99, 0.99);
			-webkit-animation-timing-function: ease-in;
			        animation-timing-function: ease-in;
		}
		80% {
			-webkit-transform: translate(0px, 0px) scale(1, 1);
			        transform: translate(0px, 0px) scale(1, 1);
		}
		100% {
			-webkit-transform: translate(0px, 0px) scale(1, 1);
			        transform: translate(0px, 0px) scale(1, 1);
		}
	}

	@keyframes showEntaireShape {
		0% {
			-webkit-transform: translate(0px, 0px) scale(0.5, 0.5);
			        transform: translate(0px, 0px) scale(0.5, 0.5);
		}
		50% {
			-webkit-transform: translate(0px, 0px) scale(0.9, 0.9);
			        transform: translate(0px, 0px) scale(0.9, 0.9);
			-webkit-animation-timing-function: ease-out;
			        animation-timing-function: ease-out;
		}
		60% {
			-webkit-transform: translate(0px, -10px) scale(0.95, 0.95);
			        transform: translate(0px, -10px) scale(0.95, 0.95);
			-webkit-animation-timing-function: ease-in;
			        animation-timing-function: ease-in;
		}
		70% {
			-webkit-transform: translate(0px, 0px) scale(0.97, 0.97);
			        transform: translate(0px, 0px) scale(0.97, 0.97);
			-webkit-animation-timing-function: ease-out;
			        animation-timing-function: ease-out;
		}
		75% {
			-webkit-transform: translate(0px, -4px) scale(0.99, 0.99);
			        transform: translate(0px, -4px) scale(0.99, 0.99);
			-webkit-animation-timing-function: ease-in;
			        animation-timing-function: ease-in;
		}
		80% {
			-webkit-transform: translate(0px, 0px) scale(1, 1);
			        transform: translate(0px, 0px) scale(1, 1);
		}
		100% {
			-webkit-transform: translate(0px, 0px) scale(1, 1);
			        transform: translate(0px, 0px) scale(1, 1);
		}
	}

	@-webkit-keyframes growBgGreyShape {
		to {
			-webkit-transform: scale(1, 1);
			        transform: scale(1, 1);
			opacity: 0;
		}
	}

	@keyframes growBgGreyShape {
		to {
			-webkit-transform: scale(1, 1);
			        transform: scale(1, 1);
			opacity: 0;
		}
	}
</style>
</svg>