<svg id="рhone-animation" xmlns="http://www.w3.org/2000/svg" xmlns:xlink="http://www.w3.org/1999/xlink" viewBox="0 0 1065 790">
<defs>
	<linearGradient id="pb-grad-lin1" gradientUnits="userSpaceOnUse" x1="9184.6543" y1="5225.1177" x2="9267.0068" y2="6522.7896" gradientTransform="matrix(-0.5021 -0.8648 0.8648 -0.5021 154.315 11220.6992)">
		<stop  offset="0" style="stop-color:#939598"/>
		<stop  offset="1" style="stop-color:#58595B"/>
	</linearGradient>
	<linearGradient id="pb-grad-lin2" gradientUnits="userSpaceOnUse" x1="9178.0273" y1="4779.355" x2="9217.2891" y2="6089.2666" gradientTransform="matrix(-0.5021 -0.8648 0.8648 -0.5021 154.315 11220.6992)">
		<stop  offset="0" style="stop-color:#A7A9AC"/>
		<stop  offset="1" style="stop-color:#414042"/>
	</linearGradient>
	<linearGradient id="pb-grad-lin3" gradientUnits="userSpaceOnUse" x1="9050.3281" y1="4783.1807" x2="9089.5898" y2="6093.0938" gradientTransform="matrix(-0.5021 -0.8648 0.8648 -0.5021 154.315 11220.6992)">
		<stop  offset="0" style="stop-color:#BCBEC0"/>
		<stop  offset="1" style="stop-color:#414042"/>
	</linearGradient>
	<linearGradient id="pb-grad-lin4" gradientUnits="userSpaceOnUse" x1="9064.9199" y1="4782.7476" x2="9104.1816" y2="6092.6567" gradientTransform="matrix(-0.5021 -0.8648 0.8648 -0.5021 154.315 11220.6992)">
		<stop  offset="0" style="stop-color:#7519BA"/>
		<stop  offset="1" style="stop-color:#230378"/>
	</linearGradient>
	<linearGradient id="pb-grad-lin5" gradientUnits="userSpaceOnUse" x1="9214.0752" y1="5411.6226" x2="9263.5049" y2="6898.9976" gradientTransform="matrix(-0.5021 -0.8648 0.8648 -0.5021 154.315 11220.6992)">
		<stop  offset="0" style="stop-color:#E6E7E8"/>
		<stop  offset="1" style="stop-color:#414042"/>
	</linearGradient>
	<linearGradient id="pb-grad-lin6" gradientUnits="userSpaceOnUse" x1="9181.0059" y1="4336.0723" x2="9237.084" y2="6112.6089" gradientTransform="matrix(-0.5021 -0.8648 0.8648 -0.5021 154.315 11220.6992)">
		<stop  offset="3.623190e-03" style="stop-color:#939598"/>
		<stop  offset="1" style="stop-color:#E6E7E8"/>
	</linearGradient>
	<linearGradient id="pb-grad-lin7" gradientUnits="userSpaceOnUse" x1="9079.915" y1="5589.4941" x2="9087.7959" y2="5589.4941" gradientTransform="matrix(-0.5021 -0.8648 0.8648 -0.5021 154.315 11220.6992)">
		<stop  offset="0" style="stop-color:#7519BA"/>
		<stop  offset="1" style="stop-color:#230378"/>
	</linearGradient>
	<linearGradient id="pb-grad-lin8" gradientUnits="userSpaceOnUse" x1="9085.3662" y1="5506.8306" x2="9070.1641" y2="5921.624" gradientTransform="matrix(-0.5021 -0.8648 0.8648 -0.5021 154.315 11220.6992)">
		<stop  offset="0" style="stop-color:#C93BDE"/>
		<stop  offset="1" style="stop-color:#4615A5"/>
	</linearGradient>
	<linearGradient id="pb-grad-lin9" gradientUnits="userSpaceOnUse" x1="9079.9268" y1="5638.3076" x2="9087.7959" y2="5638.3076" gradientTransform="matrix(-0.5021 -0.8648 0.8648 -0.5021 154.315 11220.6992)">
		<stop  offset="0" style="stop-color:#7519BA"/>
		<stop  offset="1" style="stop-color:#230378"/>
	</linearGradient>
	<linearGradient id="pb-grad-lin10" gradientUnits="userSpaceOnUse" x1="9087.1484" y1="5506.896" x2="9071.9473" y2="5921.688" gradientTransform="matrix(-0.5021 -0.8648 0.8648 -0.5021 154.315 11220.6992)">
		<stop  offset="0" style="stop-color:#C93BDE"/>
		<stop  offset="1" style="stop-color:#4615A5"/>
	</linearGradient>
	<linearGradient id="pb-grad-lin11" gradientUnits="userSpaceOnUse" x1="9079.9238" y1="5690.958" x2="9087.7959" y2="5690.958" gradientTransform="matrix(-0.5021 -0.8648 0.8648 -0.5021 154.315 11220.6992)">
		<stop  offset="0" style="stop-color:#7519BA"/>
		<stop  offset="1" style="stop-color:#230378"/>
	</linearGradient>
	<linearGradient id="pb-grad-lin12" gradientUnits="userSpaceOnUse" x1="9089.0762" y1="5506.9668" x2="9073.874" y2="5921.7607" gradientTransform="matrix(-0.5021 -0.8648 0.8648 -0.5021 154.315 11220.6992)">
		<stop  offset="0" style="stop-color:#C93BDE"/>
		<stop  offset="1" style="stop-color:#4615A5"/>
	</linearGradient>
	<linearGradient id="pb-grad-lin13" gradientUnits="userSpaceOnUse" x1="9220.1367" y1="5863.416" x2="9278.1367" y2="6273.877" gradientTransform="matrix(-0.5021 -0.8648 0.8648 -0.5021 154.315 11220.6992)">
		<stop  offset="0" style="stop-color:#A7A9AC"/>
		<stop  offset="1" style="stop-color:#58595B"/>
	</linearGradient>
	<linearGradient id="pb-grad-lin14" gradientUnits="userSpaceOnUse" x1="9214.3193" y1="5447.0454" x2="9253.5811" y2="6414.3091" gradientTransform="matrix(-0.5021 -0.8648 0.8648 -0.5021 154.315 11220.6992)">
		<stop  offset="0" style="stop-color:#42B2F1"/>
		<stop  offset="1" style="stop-color:#2A54D3"/>
	</linearGradient>
	<linearGradient id="pb-grad-lin15" gradientUnits="userSpaceOnUse" x1="9209.9004" y1="5169.646" x2="9232.6533" y2="5978.0371" gradientTransform="matrix(-0.5021 -0.8648 0.8648 -0.5021 154.315 11220.6992)">
		<stop  offset="0" style="stop-color:#42B2F1"/>
		<stop  offset="1" style="stop-color:#2A54D3"/>
	</linearGradient>
	<linearGradient id="pb-grad-lin16" gradientUnits="userSpaceOnUse" x1="-114.5778" y1="157.1245" x2="-98.9476" y2="180.5697" gradientTransform="matrix(1 0 0 1 620.3073 0)">
		<stop  offset="0" style="stop-color:#FDEF67"/>
		<stop  offset="1" style="stop-color:#F7A455"/>
	</linearGradient>
	<linearGradient id="pb-grad-lin17" gradientUnits="userSpaceOnUse" x1="339.3146" y1="385.3965" x2="399.7878" y2="385.3965">
		<stop  offset="0" style="stop-color:#FDEF67"/>
		<stop  offset="1" style="stop-color:#F7A455"/>
	</linearGradient>
	<linearGradient id="pb-grad-lin18" gradientUnits="userSpaceOnUse" x1="362.547" y1="379.2043" x2="370.2547" y2="379.2043">
		<stop  offset="0" style="stop-color:#CF294D"/>
		<stop  offset="1" style="stop-color:#860048"/>
	</linearGradient>
	<linearGradient id="pb-grad-lin19" gradientUnits="userSpaceOnUse" x1="362.6407" y1="371.7817" x2="366.6589" y2="419.7137">
		<stop  offset="0" style="stop-color:#D8089D"/>
		<stop  offset="1" style="stop-color:#E02DD2"/>
	</linearGradient>
	<linearGradient id="pb-grad-lin20" gradientUnits="userSpaceOnUse" x1="594.3373" y1="440.0854" x2="281.2716" y2="-102.1604">
		<stop  offset="0" style="stop-color:#FFFFFF;stop-opacity:0.15"/>
		<stop  offset="1" style="stop-color:#FFFFFF;stop-opacity:0"/>
	</linearGradient>
</defs>
<g id="rain">
	<g opacity="0.26" style="mix-blend-mode: soft-light">
		<g>
			<path fill="#FFFFFF" d="M132.19,620L-66.62,505.31l0.35-0.6L133.58,620H132.19z"/>
			<path fill="#FFFFFF" d="M26.58,489.75l-93.2-53.77l0.35-0.6l93.2,53.77L26.58,489.75z"/>
			<path fill="#FFFFFF" d="M252.35,620l-121.4-70.04l0.35-0.6L253.74,620H252.35z"/>
			<path fill="#FFFFFF" d="M146.88,489.83l-213.5-123.17l0.35-0.6l213.5,123.17L146.88,489.83z"/>
			<path fill="#FFFFFF" d="M372.51,620l-8.16-4.71l0.35-0.6l9.21,5.31H372.51z"/>
			<path fill="#FFFFFF" d="M492.67,620L63.16,372.22l0.35-0.6L494.06,620H492.67z"/>
			<path fill="#FFFFFF" d="M279.29,427.59L-67,227.81l0.35-0.6l346.29,199.78L279.29,427.59z"/>
			<path fill="#FFFFFF" d="M612.82,620L460,531.84l0.35-0.6L614.22,620H612.82z"/>
			<path fill="#FFFFFF" d="M224.57,326.7L-67,158.49l0.35-0.6L224.92,326.1L224.57,326.7z"/>
			<path fill="#FFFFFF" d="M732.98,620L376.49,414.34l0.35-0.6L734.38,620H732.98z"/>
		</g>
		<g>
			<path fill="#FFFFFF" d="M104.99,179.76l-171.61-99l0.35-0.6l171.61,99L104.99,179.76z"/>
			<path fill="#FFFFFF" d="M665.53,503.13L361.54,327.76l0.35-0.6l303.99,175.37L665.53,503.13z"/>
			<path fill="#FFFFFF" d="M868.11,620l-75.95-43.81l0.35-0.6L869.5,620H868.11z"/>
			<path fill="#FFFFFF" d="M226.76,180.69L22.01,62.57l0.35-0.6l204.74,118.12L226.76,180.69z"/>
			<path fill="#FFFFFF" d="M785.68,503.13L428.19,296.89l0.35-0.6l357.49,206.24L785.68,503.13z"/>
			<path fill="#FFFFFF" d="M988.27,620l-46.32-26.72l0.35-0.6L989.66,620H988.27z"/>
			<path fill="#FFFFFF" d="M183.55,86.44L-66.62-57.88l0.35-0.6L183.9,85.84L183.55,86.44z"/>
			<path fill="#FFFFFF" d="M1014.25,565.67L368.68,193.24l0.35-0.6l645.56,372.42L1014.25,565.67z"/>
			<path fill="#FFFFFF" d="M26.58-73.44l-93.2-53.77l0.35-0.6l93.2,53.77L26.58-73.44z"/>
			<path fill="#FFFFFF" d="M528.21,215.95L130.95-13.23l0.35-0.6l397.26,229.18L528.21,215.95z"/>
			<path fill="#FFFFFF" d="M1135,566.01L684.41,306.06l0.35-0.6L1135,565.21V566.01z"/>
			<path fill="#FFFFFF" d="M146.88-73.35l-213.5-123.17l0.35-0.6l213.5,123.17L146.88-73.35z"/>
			<path fill="#FFFFFF" d="M942.41,385.59L364.35,52.1l0.35-0.6l578.07,333.49L942.41,385.59z"/>
			<path fill="#FFFFFF" d="M1135,496.69l-92.83-53.55l0.35-0.6l92.48,53.35V496.69z"/>
			<path fill="#FFFFFF" d="M706.06,179.92L63.16-190.97l0.35-0.6l642.89,370.89L706.06,179.92z"/>
			<path fill="#FFFFFF" d="M1135,427.37l-57.96-33.44l0.35-0.6l57.61,33.24V427.37z"/>
			<path fill="#FFFFFF" d="M279.29-135.6L-67-335.38l0.35-0.6l346.29,199.78L279.29-135.6z"/>
			<path fill="#FFFFFF" d="M732.82,126.04L460-31.35l0.35-0.6l272.82,157.39L732.82,126.04z"/>
			<path fill="#FFFFFF" d="M1135,358.05L834.13,184.48l0.35-0.6L1135,357.25V358.05z"/>
			<path fill="#FFFFFF" d="M-26.26-382l251.18,144.91l-0.35,0.6L-27.66-382H-26.26z"/>
			<path fill="#FFFFFF" d="M886.96,145.64L376.49-148.85l0.35-0.6l510.47,294.49L886.96,145.64z"/>
			<path fill="#FFFFFF" d="M1135,288.73L959.95,187.75l0.35-0.6L1135,287.93V288.73z"/>
		</g>
		<g>
			<path fill="#FFFFFF" d="M665.53-61.32L361.54-236.69l0.35-0.6L665.87-61.92L665.53-61.32z"/>
			<path fill="#FFFFFF" d="M1088.31,182.59L792.16,11.74l0.35-0.6l296.15,170.85L1088.31,182.59z"/>
			<path fill="#FFFFFF" d="M785.68-61.32L428.19-267.56l0.35-0.6L786.03-61.92L785.68-61.32z"/>
			<path fill="#FFFFFF" d="M1135,140.2L941.95,28.83l0.35-0.6L1135,139.4V140.2z"/>
			<path fill="#FFFFFF" d="M1014.25,1.22L368.68-371.2l0.35-0.6L1014.59,0.62L1014.25,1.22z"/>
			<path fill="#FFFFFF" d="M471.52-382l57.03,32.9l-0.35,0.6L470.13-382H471.52z"/>
			<path fill="#FFFFFF" d="M1135,1.56L684.41-258.38l0.35-0.6L1135,0.76V1.56z"/>
			<path fill="#FFFFFF" d="M591.68-382l351.08,202.54l-0.35,0.6L590.29-382H591.68z"/>
			<path fill="#FFFFFF" d="M1135-67.76l-92.83-53.55l0.35-0.6L1135-68.56V-67.76z"/>
			<path fill="#FFFFFF" d="M1135-137.07l-57.96-33.44l0.35-0.6l57.61,33.24V-137.07z"/>
			<path fill="#FFFFFF" d="M1135-206.39L834.13-379.97l0.35-0.6L1135-207.2V-206.39z"/>
			<path fill="#FFFFFF" d="M1135-275.71L959.95-376.7l0.35-0.6L1135-276.52V-275.71z"/>
		</g>
	</g>
</g>
<g id="phone_base">
	<path opacity="0.63" fill="#3570DF" d="M90.99,600.65l195.53,112.26c16.2,9.3,42.6,9.29,58.66-0.04l499.9-290.24
		c15.78-9.16,15.66-24.13-0.26-33.27L644.55,274.38c-16.03-9.2-38.24-11.45-65.16,4.18L91.37,561.9
		C71.44,573.47,72.96,589.87,90.99,600.65z" style="mix-blend-mode: multiply"/>
	<path fill="#093CAF" d="M285.83,645.5L90.3,533.24l-0.02-0.01c-9.54-5.71-14.77-13.05-14.72-20.68
		c0.03-5.35,2.69-13.23,15.12-20.45l488.01-283.34c30.34-17.61,52.93-12,66.55-4.18l200.27,114.98c8.18,4.7,12.69,11.05,12.71,17.9
		c0.02,6.79-4.4,13.1-12.44,17.77l-499.9,290.24c-8.25,4.79-19.13,7.19-30.01,7.19C305.01,652.64,294.13,650.26,285.83,645.5z
		 M580.08,211.15L92.07,494.48c-8.95,5.19-13.7,11.45-13.74,18.08c-0.04,6.61,4.7,13.1,13.36,18.28L287.21,643.1
		c15.86,9.11,41.56,9.09,57.28-0.03l499.9-290.24c7.15-4.15,11.08-9.61,11.07-15.37c-0.01-5.82-4.04-11.32-11.32-15.51
		L643.86,206.97c-6.64-3.81-15.54-7.07-26.56-7.07C606.78,199.9,594.34,202.87,580.08,211.15z"/>
	<path fill="#093CAF" d="M285.83,675.03L90.3,562.77l-0.02-0.01c-9.54-5.7-14.77-13.05-14.72-20.68
		c0.03-5.35,2.69-13.23,15.12-20.45l488.01-283.34c30.34-17.61,52.93-11.99,66.55-4.18l200.27,114.98
		c8.18,4.7,12.69,11.05,12.71,17.9c0.02,6.79-4.4,13.1-12.44,17.77l-499.9,290.24c-8.25,4.79-19.13,7.19-30.02,7.19
		C305,682.18,294.13,679.79,285.83,675.03z M580.08,240.68L92.07,524.02c-8.95,5.19-13.7,11.45-13.74,18.08
		c-0.04,6.61,4.7,13.1,13.36,18.28l195.52,112.25c15.86,9.11,41.56,9.09,57.28-0.03l499.9-290.24c7.15-4.15,11.08-9.61,11.07-15.37
		c-0.01-5.82-4.04-11.32-11.32-15.51L643.86,236.5c-6.64-3.81-15.54-7.07-26.56-7.07C606.78,229.43,594.34,232.4,580.08,240.68z"/>
	<g>
	<path fill="url(#pb-grad-lin1)" d="M88.57,439.46c-27.8,16.14-23.31,50.91,1.32,65.03l189.92,109.15
			c23.04,13.26,54.33,10.15,77.55-3.33l484.63-281.37c27.18-15.87,28.79-49.59,1.49-65.24L652.24,154.01
			c-25.53-14.49-46.37-14.89-78.41,3.71L88.57,439.46z"/>
	<path fill="url(#pb-grad-lin2)" d="M69.65,473.57c0.45,5.51,2.16,10.96,5.03,15.9c3.47,5.98,8.62,11.24,15.21,15.01l189.92,109.15
			c23.04,13.26,54.33,10.15,77.56-3.33l484.63-281.37c19.95-11.65,26.12-32.92,17.19-49.6c0,0,14.23,28.73-18.33,47.63
			L356.22,608.33c-24.14,14.01-54.39,15.35-75.28,3.32L91.02,502.51c-6.02-3.45-11.5-8.2-15.21-13.83
			C72.71,483.97,70.02,476.6,69.65,473.57z"/>
	</g>
	<path fill="url(#pb-grad-lin3)" d="M796.01,325.09c7.28,4.42,9.83,24.81,4.84,27.71l-9,5.25c5-2.9,3.74-24.07-3.54-28.5L796.01,325.09z
		"/>
	<path fill="url(#pb-grad-lin4)" d="M374.62,569.74c7.28,4.42,9.83,24.81,4.84,27.71l-9,5.25c5-2.9,3.74-24.07-3.54-28.49L374.62,569.74
		z"/>
	<g>
		<path fill="url(#pb-grad-lin5)" d="M592.24,150.18c-0.22,0.09-0.44,0.18-0.66,0.27c-4.15,1.66-8.47,3.75-12.96,6.36L90.61,440.14
			c-0.02,0.01-0.03,0.02-0.05,0.03l-0.28,0.16c-12.8,7.43-15.58,14.79-15.62,20.37c-0.05,7.96,5.33,15.58,15.16,21.46l195.56,112.27
			c16.87,9.69,44.21,9.67,60.93-0.04l499.9-290.24c8.33-4.84,12.47-11.32,12.45-18.45c-0.01-2.99-1.04-5.62-2.64-8.38
			c-2.12-3.66-5.66-6.98-10.46-9.73L645.31,152.62c-4.72-2.71-10.51-5.15-17.33-6.46c-9.66-1.93-21.39-1.5-35.22,3.83
			C592.58,150.05,592.42,150.11,592.24,150.18z M79.22,460.73c0.04-6.3,4.64-12.29,13.3-17.31l488.01-283.34
			c28.83-16.74,50.11-11.51,62.89-4.17l200.27,114.98c7,4.02,10.86,9.25,10.87,14.73c0.01,5.43-3.76,10.61-10.62,14.6l-499.9,290.24
			c-15.47,8.98-40.77,9-56.38,0.03L92.13,478.24C83.76,473.23,79.18,467.01,79.22,460.73z"/>
		<path fill="url(#pb-grad-lin6)" d="M90.99,480.2l195.53,112.26c16.2,9.3,42.6,9.29,58.66-0.04l499.9-290.24
			c15.78-9.16,15.66-24.13-0.26-33.27L644.55,153.94c-16.03-9.2-38.24-11.45-65.16,4.18L91.37,441.45
			C71.44,453.02,72.96,469.42,90.99,480.2z"/>
	</g>
	<g>
		<path fill="url(#pb-grad-lin7)" d="M420.6,557.72c-1.88,1.09-3.43,3.35-3.52,5.23c-0.09,1.96,0.55,2.48,1.1,2.8l2.29,1.15l15.12-10
			l1.12-5.08c0,0-1.54-0.66-2.1-0.96c-0.96-0.51-2.38,0.09-3.64,0.82L420.6,557.72z"/>
		<path fill="url(#pb-grad-lin8)" d="M437.66,553.62l0,1.07c0,1.88-1.53,4.32-3.41,5.41l-11.17,6.49c-1.88,1.09-3.42,0.44-3.43-1.44
			l0-1.07c0-1.88,1.53-4.32,3.41-5.41l11.17-6.49C436.11,551.09,437.66,551.74,437.66,553.62z"/>
		<path fill="url(#pb-grad-lin9)" d="M454.9,537.8c-1.88,1.09-3.42,3.35-3.51,5.23c-0.09,1.96,0.55,2.48,1.1,2.8l2.28,1.15l31.07-19.25
			l1.15-4.7c0,0-1.57-1.03-2.13-1.33c-0.96-0.51-2.37,0.09-3.63,0.82L454.9,537.8z"/>
		<path fill="url(#pb-grad-lin10)" d="M487.74,524.8l0,0.57c0,2.02-1.64,4.63-3.66,5.81l-26.59,15.44c-2.02,1.17-3.67,0.48-3.68-1.54
			l0-0.57c0-2.02,1.64-4.63,3.66-5.81l26.59-15.44C486.08,522.08,487.73,522.78,487.74,524.8z"/>
		<path fill="url(#pb-grad-lin11)" d="M500.57,511.29c-1.88,1.09-3.42,3.35-3.51,5.23c-0.09,1.96,0.55,2.48,1.1,2.8l2.28,1.15
			l31.08-19.26l0.88-4.51c0,0-1.3-1.22-1.86-1.52c-0.96-0.51-2.37,0.09-3.63,0.82L500.57,511.29z"/>
		<path fill="url(#pb-grad-lin12)" d="M533.13,498.44l0,0.57c0,2.02-1.64,4.63-3.66,5.81l-26.31,15.28c-2.02,1.17-3.67,0.48-3.68-1.54
			l0-0.57c0-2.02,1.64-4.63,3.66-5.81l26.31-15.28C531.47,495.73,533.13,496.42,533.13,498.44z"/>
	</g>
	<path opacity="0.49" fill="url(#pb-grad-lin13)" d="M679.62,189.7l70.13,40.26c0.92,0.53,0.81,1.47-0.25,2.09
		c-1.06,0.62-2.69,0.69-3.61,0.16l-70.13-40.26c-0.92-0.53-0.81-1.47,0.25-2.09S678.69,189.17,679.62,189.7z"/>
	<g>
		<path fill="url(#pb-grad-lin14)" d="M585.75,161.13c1.38-0.8,3.08-0.8,4.46-0.01l240.37,138c1.19,0.68,1.2,2.4,0.01,3.09
			L351.03,580.65c-1.38,0.8-3.08,0.8-4.46,0.01l-240.37-138c-1.19-0.68-1.2-2.4-0.01-3.09L585.75,161.13z"/>
		<path fill="url(#pb-grad-lin15)" d="M831.63,299.55c0.19,0.33,0.3,0.71,0.3,1.12c0,0.81-0.41,1.53-1.11,1.93L351.25,581.03
			c-1.51,0.88-3.39,0.88-4.91,0.01l-240.37-138c-0.7-0.4-1.12-1.12-1.12-1.93c0-0.81,0.41-1.53,1.11-1.93l479.57-278.43
			c1.51-0.88,3.39-0.88,4.91-0.01l240.37,138C831.16,298.93,831.44,299.22,831.63,299.55z M105.92,441.78
			c0.12,0.2,0.28,0.37,0.49,0.49l240.37,138c1.24,0.71,2.78,0.71,4.02-0.01l479.57-278.43c0.42-0.24,0.67-0.68,0.67-1.16
			c0-0.48-0.25-0.92-0.67-1.16l-240.37-138c-1.24-0.71-2.78-0.71-4.02,0.01L106.41,439.95c-0.42,0.24-0.67,0.68-0.67,1.16
			C105.74,441.35,105.81,441.58,105.92,441.78z"/>
	</g>
</g>
<g id="messages">
	<g>
		<path opacity="0.6" fill="#3570DF" d="M786.21,316.28l-153.87-88.76c-7.02-4.05-15.67-4.05-22.69,0l-40.89,23.61
			c-2.87,1.66-4.64,4.72-4.64,8.04c0,1.66,0.44,3.25,1.24,4.64c0.8,1.39,1.96,2.57,3.4,3.4l139.39,80.94
			c7.02,4.05,15.67,4.05,22.69,0L786.21,316.28z" style="mix-blend-mode: multiply"/>
		<g>
			<path fill="#3CA3BA" d="M771.74,288.44L632.34,207.5c-7.02-4.05-15.67-4.05-22.69,0l-40.89,23.61c-2.87,1.66-4.64,3.89-4.64,3.89
				s0.44,7.4,1.24,8.79c0.8,1.39,1.96,2.57,3.4,3.4l139.39,80.94c7.02,4.05,15.67,4.05,22.69,0c0,0,32.9-18.77,38.1-21.64
				c5.2-2.87,17.26-10.19,17.26-10.19v-4.19l-9.84-0.82C776.38,291.29,773.17,289.26,771.74,288.44z"/>
			<path fill="#F2F8FF" d="M786.21,292.1l-153.87-88.76c-7.02-4.05-15.67-4.05-22.69,0l-40.89,23.61c-2.87,1.66-4.64,4.72-4.64,8.04
				c0,1.66,0.44,3.25,1.24,4.64c0.8,1.39,1.96,2.57,3.4,3.4l139.39,80.94c7.02,4.05,15.67,4.05,22.69,0L786.21,292.1z"/>
			<polygon fill="#49DCCC" points="724.65,285.85 743.51,296.8 739.76,298.97 720.89,288.02 			"/>
			<polygon fill="#49DCCC" points="679.44,247.01 742.31,283.79 738.55,285.96 675.69,249.18 			"/>
			<polygon fill="#49DCCC" points="747.28,286.66 754.13,290.67 750.37,292.84 743.52,288.83 			"/>
			<polygon fill="#49DCCC" points="699.31,295.62 722.38,309 718.63,311.17 695.56,297.79 			"/>
			<polygon fill="#49DCCC" points="721.31,296.07 733,302.87 729.24,305.04 717.56,298.24 			"/>
			<polygon fill="#49DCCC" points="701.45,284.37 716.35,293.2 712.59,295.37 697.69,286.54 			"/>
			<polygon fill="#49DCCC" points="633.91,233.2 704.64,274.28 700.89,276.45 630.16,235.37 			"/>
			<polygon fill="#49DCCC" points="619.17,224.72 628.95,230.33 625.19,232.5 615.41,226.89 			"/>
			<polygon fill="#49DCCC" points="656.54,234.01 672.16,243.02 668.41,245.19 652.79,236.18 			"/>
			<polygon fill="#49DCCC" points="623.57,215 651.58,231.14 647.82,233.31 619.81,217.17 			"/>
			<polygon fill="#49DCCC" points="608.58,242.97 683.51,286.48 679.76,288.65 604.82,245.14 			"/>
			<polygon fill="#49DCCC" points="595.58,235.5 603.61,240.11 599.86,242.27 591.82,237.67 			"/>
			<polygon fill="#49DCCC" points="630.58,243.42 694.13,280.36 690.37,282.52 626.82,245.59 			"/>
			<polygon fill="#49DCCC" points="602.48,227.23 625.61,240.55 621.86,242.72 598.72,229.39 			"/>
		</g>
	</g>
	<g>
		<path opacity="0.6" fill="#3570DF" d="M657.63,339.9c-0.8-1.39-1.96-2.57-3.4-3.4L476.05,232.79l-28.22,16.3
			c-2.87,1.66-4.64,4.72-4.64,8.04c0,1.66,0.44,3.25,1.24,4.64c0.8,1.39,1.96,2.57,3.4,3.4l167.04,97.27
			c7.02,4.05,15.67,4.05,22.69,0l14.97-8.87c6.33-4.07,6.33-9.01,6.33-9.01C658.87,342.89,658.43,341.29,657.63,339.9z" style="mix-blend-mode: multiply"/>
		<g>
			<path fill="#3CA3BA" d="M654.23,316.48l-167.04-97.27c-7.02-4.05-15.67-4.05-22.69,0l-16.66,9.85c-2.87,1.66-4.64,3.89-4.64,3.89
				s0.44,7.4,1.24,8.79c0.8,1.39,1.96,2.57,3.4,3.4l167.04,97.27c7.02,4.05,15.67,4.05,22.69,0c0,0,10.99-6.12,16.2-8.99
				c5.2-2.87,5.1-13.05,5.1-13.05S655.67,317.31,654.23,316.48z"/>
			<path fill="#F2F8FF" d="M657.63,315.73c-0.8-1.39-1.96-2.57-3.4-3.4L476.05,208.62l-28.22,16.3c-2.87,1.66-4.64,4.72-4.64,8.04
				c0,1.66,0.44,3.25,1.24,4.64c0.8,1.39,1.96,2.57,3.4,3.4l167.04,97.27c7.02,4.05,15.67,4.05,22.69,0l14.97-8.87
				c6.33-4.07,6.33-9.01,6.33-9.01C658.87,318.71,658.43,317.12,657.63,315.73z"/>
			<polygon fill="#49DCCC" points="629.77,314.71 636.62,318.72 632.87,320.88 626.02,316.87 			"/>
			<polygon fill="#49DCCC" points="605.03,300.19 624.8,311.84 621.05,314.01 601.28,302.36 			"/>
			<polygon fill="#49DCCC" points="488.76,244.92 587.14,302.33 583.38,304.5 485.01,247.09 			"/>
			<polygon fill="#49DCCC" points="474.01,236.44 483.79,242.05 480.04,244.22 470.26,238.61 			"/>
			<polygon fill="#49DCCC" points="511.39,245.73 597.75,296.2 594,298.37 507.63,247.9 			"/>
			<polygon fill="#49DCCC" points="478.41,226.72 506.42,242.86 502.67,245.03 474.66,228.89 			"/>
		</g>
	</g>
	<g>
		<path opacity="0.6" fill="#3570DF" d="M643.86,398.84l-76.66-44.13c-7.02-4.05-15.67-4.05-22.69,0l-6.65,3.89
			c-2.87,1.66-4.64,4.72-4.64,8.04c0,1.66,0.44,3.25,1.24,4.64c0.8,1.39,1.96,2.57,3.4,3.4l62.18,36.31
			c6.22,3.59,13.73,3.99,20.24,1.22l0.03-0.01C621.13,411.84,643.86,398.84,643.86,398.84z" style="mix-blend-mode: multiply"/>
		<g>
			<path fill="#3CA3BA" d="M629.38,370.99l-62.18-36.31c-7.02-4.05-15.67-4.05-22.69,0l-6.65,3.89c-2.87,1.66-4.64,3.89-4.64,3.89
				s0.44,7.4,1.24,8.79c0.8,1.39,1.96,2.57,3.4,3.4l62.18,36.31c7.02,4.05,15.67,4.05,22.69,0l21.13-12.11v-4.19l-9.84-0.82
				C634.02,373.84,630.81,371.82,629.38,370.99z"/>
			<path fill="#F2F8FF" d="M643.86,374.66l-76.66-44.13c-7.02-4.05-15.67-4.05-22.69,0l-6.65,3.89c-2.87,1.66-4.64,4.72-4.64,8.04
				c0,1.66,0.44,3.25,1.24,4.64c0.8,1.39,1.96,2.57,3.4,3.4l62.18,36.31c6.22,3.59,13.73,3.99,20.24,1.22l0.03-0.01
				C621.13,387.66,643.86,374.66,643.86,374.66z"/>
			<polygon fill="#49DCCC" points="558.11,341.08 571.24,348.45 567.49,350.62 554.36,343.24 			"/>
			<polygon fill="#49DCCC" points="576.36,351.5 589.73,359.21 585.97,361.38 572.61,353.66 			"/>
		</g>
	</g>
	<g>
		<path opacity="0.6" fill="#3570DF" d="M593.58,427.77L482.8,364.14c-7.02-4.05-15.67-4.05-22.69,0l-20.36,10.75
			c-2.87,1.66-4.64,4.72-4.64,8.04c0,1.66,0.44,3.25,1.24,4.64c0.8,1.39,1.96,2.57,3.4,3.4l96.3,55.81
			c6.23,3.59,13.73,3.99,20.24,1.21l0.04-0.02C557.15,447.62,593.58,427.77,593.58,427.77z" style="mix-blend-mode: multiply"/>
		<g>
			<path fill="#3CA3BA" d="M579.1,399.92l-96.3-55.81c-7.02-4.05-15.67-4.05-22.69,0l-20.36,10.75c-2.87,1.66-4.64,3.89-4.64,3.89
				s0.44,7.4,1.24,8.79c0.8,1.39,1.96,2.57,3.4,3.4l96.3,55.81c7.02,4.05,15.67,4.05,22.69,0l34.84-18.97v-4.19l-9.84-0.82
				C583.74,402.77,580.53,400.75,579.1,399.92z"/>
			<path fill="#F2F8FF" d="M593.58,403.59L482.8,339.97c-7.02-4.05-15.67-4.05-22.69,0l-20.36,10.75c-2.87,1.66-4.64,4.72-4.64,8.04
				c0,1.66,0.44,3.25,1.24,4.64c0.8,1.39,1.96,2.57,3.4,3.4l96.3,55.81c6.23,3.59,13.73,3.99,20.24,1.21l0.04-0.02
				C557.15,423.45,593.58,403.59,593.58,403.59z"/>
			<polygon fill="#49DCCC" points="490.84,365.04 471.97,354.09 475.73,351.92 494.59,362.87 			"/>
			<polygon fill="#49DCCC" points="468.21,364.23 461.36,360.22 465.11,358.05 471.96,362.06 			"/>
			<polygon fill="#49DCCC" points="492.95,378.74 473.18,367.1 476.93,364.93 496.7,376.58 			"/>
			<polygon fill="#49DCCC" points="538.48,392.56 510.84,376.6 514.6,374.44 542.23,390.39 			"/>
			<polygon fill="#49DCCC" points="553.22,401.04 543.44,395.42 547.2,393.26 556.98,398.87 			"/>
			<polygon fill="#49DCCC" points="515.85,391.75 500.23,382.73 503.98,380.56 519.6,389.58 			"/>
			<polygon fill="#49DCCC" points="548.82,410.75 520.81,394.62 524.57,392.45 552.58,408.59 			"/>
		</g>
	</g>
	<g>
		<path opacity="0.6" fill="#3570DF" d="M486.22,438.87c-0.8-1.39-1.96-2.57-3.4-3.4L304.65,331.76l-46.16,26.54
			c-2.87,1.66-4.64,4.72-4.64,8.04c0,1.66,0.44,3.25,1.24,4.64c0.8,1.39,1.96,2.57,3.4,3.4l167.04,97.27
			c7.02,4.05,15.67,4.05,22.69,0l32.92-19.12c6.33-4.07,6.33-9.01,6.33-9.01C487.47,441.85,487.02,440.25,486.22,438.87z" style="mix-blend-mode: multiply"/>
		<g>
			<path fill="#3CA3BA" d="M482.82,415.44l-167.04-97.27c-7.02-4.05-15.67-4.05-22.69,0l-34.61,20.09
				c-2.87,1.66-4.64,3.89-4.64,3.89s0.44,7.4,1.24,8.79c0.8,1.39,1.96,2.57,3.4,3.4l167.04,97.27c7.02,4.05,15.67,4.05,22.69,0
				c0,0,28.94-16.36,34.14-19.23c5.2-2.87,5.1-13.05,5.1-13.05S484.26,416.27,482.82,415.44z"/>
			<path fill="#F2F8FF" d="M486.22,414.69c-0.8-1.39-1.96-2.57-3.4-3.4L304.65,307.58l-46.16,26.54c-2.87,1.66-4.64,4.72-4.64,8.04
				c0,1.66,0.44,3.25,1.24,4.64c0.8,1.39,1.96,2.57,3.4,3.4l167.04,97.27c7.02,4.05,15.67,4.05,22.69,0l32.92-19.12
				c6.33-4.07,6.33-9.01,6.33-9.01C487.47,417.67,487.02,416.08,486.22,414.69z"/>
			<polygon fill="#49DCCC" points="458.36,413.67 465.22,417.68 461.46,419.85 454.61,415.84 			"/>
			<polygon fill="#49DCCC" points="433.63,399.15 453.4,410.8 449.64,412.97 429.87,401.32 			"/>
			<polygon fill="#49DCCC" points="315.07,345.2 413.45,402.61 409.69,404.78 311.31,347.37 			"/>
			<polygon fill="#49DCCC" points="300.32,336.72 310.1,342.33 306.35,344.5 296.57,338.89 			"/>
			<polygon fill="#49DCCC" points="339.98,344.69 426.35,395.16 422.59,397.33 336.23,346.86 			"/>
			<polygon fill="#49DCCC" points="307.01,325.69 335.02,341.82 331.26,343.99 303.25,327.85 			"/>
			<polygon fill="#49DCCC" points="313.7,359.86 364.99,389.69 361.24,391.86 309.95,362.03 			"/>
			<polygon fill="#49DCCC" points="280.73,340.86 308.73,357 304.98,359.16 276.97,343.03 			"/>
		</g>
	</g>
	<g>
		<path opacity="0.6" fill="#3570DF" d="M355.85,452.96c-0.8-1.39-1.96-2.57-3.4-3.4l-125.91-73.17l-16.69,10.17
			c-2.87,1.66-4.64,4.72-4.64,8.04c0,1.66,0.44,3.25,1.24,4.64c0.8,1.39,1.96,2.57,3.4,3.4l114.38,66.5
			c7.02,4.05,15.67,4.05,22.69,0l3.84-2.52c6.33-4.07,6.33-9.01,6.33-9.01C357.1,455.94,356.66,454.35,355.85,452.96z" style="mix-blend-mode: multiply"/>
		<g>
			<path fill="#3CA3BA" d="M352.46,429.54l-114.38-66.5c-7.02-4.05-15.67-4.05-22.69,0l-5.53,3.5c-2.87,1.66-4.64,3.89-4.64,3.89
				s0.44,7.4,1.24,8.79c0.8,1.39,1.96,2.57,3.4,3.4l114.38,66.5c7.02,4.05,17.38,3.52,22.29,0.79c1.02-0.57,2.95-1.71,5.47-3.43
				c4.91-3.36,5.1-13.05,5.1-13.05S353.89,430.37,352.46,429.54z"/>
			<path fill="#F2F8FF" d="M355.85,428.79c-0.8-1.39-1.96-2.57-3.4-3.4l-125.91-73.17l-16.69,10.17c-2.87,1.66-4.64,4.72-4.64,8.04
				c0,1.66,0.44,3.25,1.24,4.64c0.8,1.39,1.96,2.57,3.4,3.4l114.38,66.5c7.02,4.05,15.67,4.05,22.69,0l3.84-2.52
				c6.33-4.07,6.33-9.01,6.33-9.01C357.1,431.77,356.66,430.17,355.85,428.79z"/>
			<polygon fill="#49DCCC" points="328,427.76 334.85,431.77 331.1,433.94 324.24,429.93 			"/>
			<polygon fill="#49DCCC" points="303.26,413.25 323.03,424.9 319.28,427.06 299.51,415.42 			"/>
			<polygon fill="#49DCCC" points="262.28,389.55 295.98,409.26 292.22,411.43 258.52,391.72 			"/>
			<polygon fill="#49DCCC" points="229.3,370.55 257.31,386.68 253.56,388.85 225.55,372.72 			"/>
		</g>
	</g>
	<g>
		<path opacity="0.6" fill="#3570DF" d="M408.95,533.84l-76.66-44.13c-7.02-4.05-15.67-4.05-22.69,0l-6.65,3.89
			c-2.87,1.66-4.64,4.72-4.64,8.04c0,1.66,0.44,3.25,1.24,4.64c0.8,1.39,1.96,2.57,3.4,3.4l62.18,36.31
			c6.22,3.59,13.73,3.99,20.24,1.22l0.03-0.01C386.23,546.84,408.95,533.84,408.95,533.84z" style="mix-blend-mode: multiply"/>
		<g>
			<path fill="#3CA3BA" d="M394.47,506l-62.18-36.31c-7.02-4.05-15.67-4.05-22.69,0l-6.65,3.89c-2.87,1.66-4.64,3.89-4.64,3.89
				s0.44,7.4,1.24,8.79c0.8,1.39,1.96,2.57,3.4,3.4l62.18,36.31c7.02,4.05,15.67,4.05,22.69,0l21.13-12.11v-4.19l-9.84-0.82
				C399.12,508.85,395.91,506.83,394.47,506z"/>
			<path fill="#F2F8FF" d="M408.95,509.66l-76.66-44.13c-7.02-4.05-15.67-4.05-22.69,0l-6.65,3.89c-2.87,1.66-4.64,4.72-4.64,8.04
				c0,1.66,0.44,3.25,1.24,4.64c0.8,1.39,1.96,2.57,3.4,3.4l62.18,36.31c6.22,3.59,13.73,3.99,20.24,1.22l0.03-0.01
				C386.23,522.66,408.95,509.66,408.95,509.66z"/>
			<polygon fill="#49DCCC" points="323.21,476.08 336.34,483.45 332.59,485.62 319.46,478.25 			"/>
			<polygon fill="#49DCCC" points="341.46,486.5 354.82,494.21 351.07,496.38 337.7,488.67 			"/>
			<polygon fill="#49DCCC" points="359.63,496.94 380.12,508.69 376.36,510.86 355.87,499.11 			"/>
		</g>
	</g>
	<g>
		<path opacity="0.6" fill="#3570DF" d="M350.81,567.68l-153.87-88.76c-7.02-4.05-15.67-4.05-22.69,0l-40.89,23.61
			c-2.87,1.66-4.64,4.72-4.64,8.04c0,1.66,0.44,3.25,1.24,4.64c0.8,1.39,1.96,2.57,3.4,3.4l139.39,80.94
			c7.02,4.05,15.67,4.05,22.69,0L350.81,567.68z" style="mix-blend-mode: multiply"/>
		<g>
			<path fill="#3CA3BA" d="M336.34,539.84L196.94,458.9c-7.02-4.05-15.67-4.05-22.69,0l-40.89,23.61c-2.87,1.66-4.64,3.89-4.64,3.89
				s0.44,7.4,1.24,8.79c0.8,1.39,1.96,2.57,3.4,3.4l139.39,80.94c7.02,4.05,15.67,4.05,22.69,0c0,0,32.9-18.77,38.1-21.64
				c5.2-2.87,17.26-10.19,17.26-10.19v-4.19l-9.84-0.82C340.98,542.69,337.77,540.66,336.34,539.84z"/>
			<path fill="#F2F8FF" d="M350.81,543.5l-153.87-88.76c-7.02-4.05-15.67-4.05-22.69,0l-40.89,23.61c-2.87,1.66-4.64,4.72-4.64,8.04
				c0,1.66,0.44,3.25,1.24,4.64c0.8,1.39,1.96,2.57,3.4,3.4l139.39,80.94c7.02,4.05,15.67,4.05,22.69,0L350.81,543.5z"/>
			<polygon fill="#49DCCC" points="289.25,537.25 308.11,548.2 304.36,550.37 285.49,539.42 			"/>
			<polygon fill="#49DCCC" points="244.04,498.41 306.91,535.19 303.15,537.36 240.29,500.58 			"/>
			<polygon fill="#49DCCC" points="311.88,538.06 318.73,542.07 314.97,544.24 308.12,540.23 			"/>
			<polygon fill="#49DCCC" points="263.91,547.02 286.98,560.4 283.23,562.57 260.16,549.19 			"/>
			<polygon fill="#49DCCC" points="285.91,547.47 297.6,554.27 293.84,556.44 282.16,549.64 			"/>
			<polygon fill="#49DCCC" points="266.05,535.77 280.95,544.6 277.19,546.77 262.29,537.94 			"/>
			<polygon fill="#49DCCC" points="198.51,484.6 269.24,525.68 265.49,527.85 194.76,486.77 			"/>
			<polygon fill="#49DCCC" points="183.77,476.12 193.55,481.73 189.79,483.9 180.01,478.29 			"/>
			<polygon fill="#49DCCC" points="221.14,485.41 236.76,494.42 233.01,496.59 217.39,487.58 			"/>
			<polygon fill="#49DCCC" points="188.17,466.4 216.18,482.54 212.42,484.71 184.41,468.57 			"/>
			<polygon fill="#49DCCC" points="173.18,494.37 248.11,537.88 244.36,540.05 169.42,496.54 			"/>
			<polygon fill="#49DCCC" points="160.18,486.9 168.21,491.51 164.46,493.67 156.42,489.07 			"/>
			<polygon fill="#49DCCC" points="195.18,494.82 258.73,531.76 254.97,533.92 191.42,496.99 			"/>
			<polygon fill="#49DCCC" points="167.08,478.63 190.21,491.95 186.46,494.12 163.32,480.79 			"/>
		</g>
	</g>
	<g>
		<path opacity="0.6" fill="#3570DF" d="M222.23,591.3c-0.8-1.39-1.96-2.57-3.4-3.4L40.65,484.19l-28.22,16.3
			c-2.87,1.66-4.64,4.72-4.64,8.04c0,1.66,0.44,3.25,1.24,4.64c0.8,1.39,1.96,2.57,3.4,3.4l167.04,97.27
			c7.02,4.05,15.67,4.05,22.69,0l14.97-8.87c6.33-4.07,6.33-9.01,6.33-9.01C223.47,594.29,223.03,592.69,222.23,591.3z" style="mix-blend-mode: multiply"/>
		<g>
			<path fill="#3CA3BA" d="M218.83,567.88L51.79,470.62c-7.02-4.05-15.67-4.05-22.69,0l-16.66,9.85c-2.87,1.66-4.64,3.89-4.64,3.89
				s0.44,7.4,1.24,8.79c0.8,1.39,1.96,2.57,3.4,3.4l167.04,97.27c7.02,4.05,15.67,4.05,22.69,0c0,0,10.99-6.12,16.2-8.99
				c5.2-2.87,5.1-13.05,5.1-13.05S220.27,568.71,218.83,567.88z"/>
			<path fill="#F2F8FF" d="M222.23,567.13c-0.8-1.39-1.96-2.57-3.4-3.4L40.65,460.02l-28.22,16.3c-2.87,1.66-4.64,4.72-4.64,8.04
				c0,1.66,0.44,3.25,1.24,4.64c0.8,1.39,1.96,2.57,3.4,3.4l167.04,97.27c7.02,4.05,15.67,4.05,22.69,0l14.97-8.87
				c6.33-4.07,6.33-9.01,6.33-9.01C223.47,570.11,223.03,568.52,222.23,567.13z"/>
			<polygon fill="#49DCCC" points="194.37,566.11 201.22,570.12 197.47,572.28 190.62,568.27 			"/>
			<polygon fill="#49DCCC" points="169.63,551.59 189.4,563.24 185.65,565.41 165.88,553.76 			"/>
			<polygon fill="#49DCCC" points="53.36,496.32 151.74,553.73 147.98,555.9 49.61,498.49 			"/>
			<polygon fill="#49DCCC" points="38.61,487.84 48.39,493.45 44.64,495.62 34.86,490.01 			"/>
			<polygon fill="#49DCCC" points="75.99,497.13 162.35,547.6 158.6,549.77 72.23,499.3 			"/>
			<polygon fill="#49DCCC" points="43.01,478.12 71.02,494.26 67.27,496.43 39.26,480.29 			"/>
		</g>
	</g>
	<g>
		<path opacity="0.6" fill="#3570DF" d="M208.46,650.24l-76.66-44.13c-7.02-4.05-15.67-4.05-22.69,0l-6.65,3.89
			c-2.87,1.66-4.64,4.72-4.64,8.04c0,1.66,0.44,3.25,1.24,4.64c0.8,1.39,1.96,2.57,3.4,3.4l62.18,36.31
			c6.22,3.59,13.73,3.99,20.24,1.22l0.03-0.01C185.73,663.24,208.46,650.24,208.46,650.24z" style="mix-blend-mode: multiply"/>
		<g>
			<path fill="#3CA3BA" d="M193.98,622.39l-62.18-36.31c-7.02-4.05-15.67-4.05-22.69,0l-6.65,3.89c-2.87,1.66-4.64,3.89-4.64,3.89
				s0.44,7.4,1.24,8.79c0.8,1.39,1.96,2.57,3.4,3.4l62.18,36.31c7.02,4.05,15.67,4.05,22.69,0l21.13-12.11v-4.19l-9.84-0.82
				C198.62,625.24,195.41,623.22,193.98,622.39z"/>
			<path fill="#F2F8FF" d="M208.46,626.06l-76.66-44.13c-7.02-4.05-15.67-4.05-22.69,0l-6.65,3.89c-2.87,1.66-4.64,4.72-4.64,8.04
				c0,1.66,0.44,3.25,1.24,4.64c0.8,1.39,1.96,2.57,3.4,3.4l62.18,36.31c6.22,3.59,13.73,3.99,20.24,1.22l0.03-0.01
				C185.73,639.06,208.46,626.06,208.46,626.06z"/>
			<polygon fill="#49DCCC" points="122.71,592.48 135.84,599.85 132.09,602.02 118.96,594.64 			"/>
			<polygon fill="#49DCCC" points="140.96,602.9 154.33,610.61 150.57,612.78 137.21,605.06 			"/>
		</g>
	</g>
	<g>
		<path opacity="0.6" fill="#3570DF" d="M158.18,679.17L47.4,615.54c-7.02-4.05-15.67-4.05-22.69,0L4.35,626.29
			c-2.87,1.66-4.64,4.72-4.64,8.04c0,1.66,0.44,3.25,1.24,4.64c0.8,1.39,1.96,2.57,3.4,3.4l96.3,55.81
			c6.23,3.59,13.73,3.99,20.24,1.21l0.04-0.02C121.75,699.02,158.18,679.17,158.18,679.17z" style="mix-blend-mode: multiply"/>
		<g>
			<path fill="#3CA3BA" d="M143.7,651.32l-96.3-55.81c-7.02-4.05-15.67-4.05-22.69,0L4.35,606.27c-2.87,1.66-4.64,3.89-4.64,3.89
				s0.44,7.4,1.24,8.79c0.8,1.39,1.96,2.57,3.4,3.4l96.3,55.81c7.02,4.05,15.67,4.05,22.69,0l34.84-18.97v-4.19l-9.84-0.82
				C148.34,654.17,145.13,652.15,143.7,651.32z"/>
			<path fill="#F2F8FF" d="M158.18,654.99L47.4,591.37c-7.02-4.05-15.67-4.05-22.69,0L4.35,602.11c-2.87,1.66-4.64,4.72-4.64,8.04
				c0,1.66,0.44,3.25,1.24,4.64c0.8,1.39,1.96,2.57,3.4,3.4l96.3,55.81c6.23,3.59,13.73,3.99,20.24,1.21l0.04-0.02
				C121.75,674.85,158.18,654.99,158.18,654.99z"/>
			<polygon fill="#49DCCC" points="55.44,616.44 36.57,605.49 40.33,603.32 59.19,614.27 			"/>
			<polygon fill="#49DCCC" points="32.81,615.63 25.96,611.62 29.71,609.45 36.56,613.46 			"/>
			<polygon fill="#49DCCC" points="57.55,630.14 37.78,618.49 41.53,616.33 61.3,627.98 			"/>
			<polygon fill="#49DCCC" points="103.08,643.96 75.44,628 79.2,625.84 106.83,641.79 			"/>
			<polygon fill="#49DCCC" points="117.82,652.44 108.04,646.82 111.8,644.66 121.58,650.27 			"/>
			<polygon fill="#49DCCC" points="80.45,643.15 64.83,634.13 68.58,631.96 84.2,640.98 			"/>
			<polygon fill="#49DCCC" points="113.42,662.15 85.41,646.02 89.17,643.85 117.18,659.99 			"/>
		</g>
	</g>
	<g>
		<path opacity="0.6" fill="#3570DF" d="M50.82,690.27c-0.8-1.39-1.96-2.57-3.4-3.4l-178.18-103.71l-46.16,26.54
			c-2.87,1.66-4.64,4.72-4.64,8.04c0,1.66,0.44,3.25,1.24,4.64c0.8,1.39,1.96,2.57,3.4,3.4l167.04,97.27
			c7.02,4.05,15.67,4.05,22.69,0l32.92-19.12c6.33-4.07,6.33-9.01,6.33-9.01C52.07,693.25,51.62,691.65,50.82,690.27z" style="mix-blend-mode: multiply"/>
		<g>
			<path fill="#3CA3BA" d="M47.42,666.84l-167.04-97.27c-7.02-4.05-15.67-4.05-22.69,0l-34.61,20.09c-2.87,1.66-4.64,3.89-4.64,3.89
				s0.44,7.4,1.24,8.79c0.8,1.39,1.96,2.57,3.4,3.4l167.04,97.27c7.02,4.05,15.67,4.05,22.69,0c0,0,28.94-16.36,34.14-19.23
				c5.2-2.87,5.1-13.05,5.1-13.05S48.86,667.67,47.42,666.84z"/>
			<path fill="#F2F8FF" d="M50.82,666.09c-0.8-1.39-1.96-2.57-3.4-3.4l-178.18-103.71l-46.16,26.54c-2.87,1.66-4.64,4.72-4.64,8.04
				c0,1.66,0.44,3.25,1.24,4.64c0.8,1.39,1.96,2.57,3.4,3.4l167.04,97.27c7.02,4.05,15.67,4.05,22.69,0l32.92-19.12
				c6.33-4.07,6.33-9.01,6.33-9.01C52.07,669.07,51.62,667.48,50.82,666.09z"/>
			<polygon fill="#49DCCC" points="22.96,665.07 29.82,669.08 26.06,671.25 19.21,667.24 			"/>
			<polygon fill="#49DCCC" points="-1.77,650.55 18,662.2 14.24,664.37 -5.53,652.72 			"/>
			<polygon fill="#49DCCC" points="-120.33,596.6 -21.95,654.01 -25.71,656.18 -124.09,598.77 			"/>
			<polygon fill="#49DCCC" points="-135.08,588.12 -125.3,593.73 -129.05,595.9 -138.83,590.29 			"/>
			<polygon fill="#49DCCC" points="-95.42,596.09 -9.05,646.56 -12.81,648.73 -99.17,598.26 			"/>
			<polygon fill="#49DCCC" points="-128.39,577.09 -100.38,593.22 -104.14,595.39 -132.15,579.25 			"/>
			<polygon fill="#49DCCC" points="-121.7,611.26 -70.41,641.09 -74.16,643.26 -125.45,613.43 			"/>
			<polygon fill="#49DCCC" points="-154.67,592.26 -126.67,608.4 -130.42,610.56 -158.43,594.43 			"/>
		</g>
	</g>
	<g>
		<path opacity="0.6" fill="#3570DF" d="M-79.55,704.36c-0.8-1.39-1.96-2.57-3.4-3.4l-125.91-73.17l-16.69,10.17
			c-2.87,1.66-4.64,4.72-4.64,8.04c0,1.66,0.44,3.25,1.24,4.64c0.8,1.39,1.96,2.57,3.4,3.4l114.38,66.5
			c7.02,4.05,15.67,4.05,22.69,0l3.84-2.52c6.33-4.07,6.33-9.01,6.33-9.01C-78.3,707.34-78.74,705.75-79.55,704.36z" style="mix-blend-mode: multiply"/>
		<g>
			<path fill="#3CA3BA" d="M-82.94,680.94l-114.38-66.5c-7.02-4.05-15.67-4.05-22.69,0l-5.53,3.5c-2.87,1.66-4.64,3.89-4.64,3.89
				s0.44,7.4,1.24,8.79c0.8,1.39,1.96,2.57,3.4,3.4l114.38,66.5c7.02,4.05,17.38,3.52,22.29,0.79c1.02-0.57,2.95-1.71,5.47-3.43
				c4.91-3.36,5.1-13.05,5.1-13.05S-81.51,681.77-82.94,680.94z"/>
			<path fill="#F2F8FF" d="M-79.55,680.19c-0.8-1.39-1.96-2.57-3.4-3.4l-125.91-73.17l-16.69,10.17c-2.87,1.66-4.64,4.72-4.64,8.04
				c0,1.66,0.44,3.25,1.24,4.64c0.8,1.39,1.96,2.57,3.4,3.4l114.38,66.5c7.02,4.05,15.67,4.05,22.69,0l3.84-2.52
				c6.33-4.07,6.33-9.01,6.33-9.01C-78.3,683.17-78.74,681.57-79.55,680.19z"/>
			<polygon fill="#49DCCC" points="-107.4,679.16 -100.55,683.17 -104.3,685.34 -111.16,681.33 			"/>
			<polygon fill="#49DCCC" points="-132.14,664.65 -112.37,676.3 -116.12,678.46 -135.89,666.82 			"/>
			<polygon fill="#49DCCC" points="-173.12,640.95 -139.42,660.66 -143.18,662.83 -176.88,643.12 			"/>
			<polygon fill="#49DCCC" points="-206.1,621.95 -178.09,638.08 -181.84,640.25 -209.85,624.12 			"/>
		</g>
	</g>
	<g>
		<path opacity="0.6" fill="#3570DF" d="M-26.45,785.24l-76.66-44.13c-7.02-4.05-15.67-4.05-22.69,0l-6.65,3.89
			c-2.87,1.66-4.64,4.72-4.64,8.04c0,1.66,0.44,3.25,1.24,4.64c0.8,1.39,1.96,2.57,3.4,3.4l62.18,36.31
			c6.22,3.59,13.73,3.99,20.24,1.22l0.03-0.01C-49.17,798.24-26.45,785.24-26.45,785.24z" style="mix-blend-mode: multiply"/>
		<g>
			<path fill="#3CA3BA" d="M-40.93,757.4l-62.18-36.31c-7.02-4.05-15.67-4.05-22.69,0l-6.65,3.89c-2.87,1.66-4.64,3.89-4.64,3.89
				s0.44,7.4,1.24,8.79c0.8,1.39,1.96,2.57,3.4,3.4l62.18,36.31c7.02,4.05,15.67,4.05,22.69,0l21.13-12.11v-4.19l-9.84-0.82
				C-36.28,760.25-39.49,758.23-40.93,757.4z"/>
			<path fill="#F2F8FF" d="M-26.45,761.06l-76.66-44.13c-7.02-4.05-15.67-4.05-22.69,0l-6.65,3.89c-2.87,1.66-4.64,4.72-4.64,8.04
				c0,1.66,0.44,3.25,1.24,4.64c0.8,1.39,1.96,2.57,3.4,3.4l62.18,36.31c6.22,3.59,13.73,3.99,20.24,1.22l0.03-0.01
				C-49.17,774.06-26.45,761.06-26.45,761.06z"/>
			<polygon fill="#49DCCC" points="-112.19,727.48 -99.06,734.85 -102.81,737.02 -115.94,729.65 			"/>
			<polygon fill="#49DCCC" points="-93.94,737.9 -80.58,745.61 -84.33,747.78 -97.7,740.07 			"/>
			<polygon fill="#49DCCC" points="-75.77,748.34 -55.28,760.09 -59.04,762.26 -79.53,750.51 			"/>
		</g>
	</g>
</g>
<g id="smile" opacity="0">
	<path fill="url(#pb-grad-lin16)" d="M542.62,188.93c0-14-11.39-31.9-25.44-39.98c-7.77-4.47-14.73-5-19.39-2.22l-7.83,4.47
		c0,0,1.78,3.96,1.78,8.45c0,14,11.39,31.9,25.44,39.98c6.31,3.63,11.48,6.46,11.48,6.46l7.98-4.29l-0.01,0
		C540.37,199.55,542.62,195.16,542.62,188.93z"/>
	<g>
		<ellipse transform="matrix(0.7992 -0.6011 0.6011 0.7992 -5.103 342.0327)" fill="#FDEF67" cx="509.32" cy="178.65" rx="19.02" ry="33.62"/>
		<path fill="#24307D" d="M516.84,196.82c0.86,0,1.69-0.1,2.47-0.31c2.55-0.67,4.51-2.43,5.51-4.95c0.34-0.85-0.08-1.8-0.92-2.14
			c-0.85-0.34-1.8,0.08-2.14,0.92c-0.62,1.55-1.75,2.58-3.28,2.98c-3.12,0.82-7.76-0.99-12.11-4.71c-4.61-3.94-8.16-9.35-9.49-14.46
			c-0.23-0.88-1.13-1.41-2.01-1.18c-0.88,0.23-1.41,1.13-1.18,2.01c1.5,5.74,5.44,11.77,10.54,16.13
			C508.56,194.82,513.02,196.82,516.84,196.82z"/>
		<path fill="#24307D" d="M522.92,178.86c0-2.3-1.43-4.99-3.18-6.01c-1.76-1.02-3.18,0.03-3.18,2.33s1.43,4.99,3.18,6.01
			C521.5,182.2,522.92,181.16,522.92,178.86z"/>
		<path fill="#24307D" d="M502.12,166.84c0-2.3-1.43-4.99-3.18-6.01c-1.76-1.02-3.18,0.03-3.18,2.33c0,2.3,1.43,4.99,3.18,6.01
			C500.69,170.19,502.12,169.15,502.12,166.84z"/>
	</g>
</g>
<g id="love" opacity="0">
	<path fill="url(#pb-grad-lin17)" d="M399.79,399.71c0-15.23-12.32-34.7-27.55-43.5c-8.63-4.98-16.32-5.46-21.37-2.18l-8.2,4.55
		l-3.35,14.22l23.22,40.21c0,0,18.65,2.37,22.46,2.58l-3.28,2.9l2.47,0.35l8.08-4.54c0.5-0.24,0.94-0.51,1.4-0.81l-0.03-0.01
		C397.7,410.96,399.79,406.27,399.79,399.71z M371.03,401.45l-14.68-23.15c-1.66-2.54-2.69-5.35-2.69-7.82
		c0-4.8,3.89-6.42,8.68-3.65c4.8,2.77,8.68,8.96,8.68,13.74c0-4.78,16.36,14.01,14.74,14.65L371.03,401.45z"/>
	<path fill="url(#pb-grad-lin18)" d="M362.55,382.3l1.17-0.56c0,0,1.52-1.65,3.78-2.51c2.49-0.95,2.75-0.42,2.75-0.42
		s-5.58-3.24-6.48-2.62C362.54,377.04,362.55,377.02,362.55,382.3z"/>
	<path fill="#FDEF67" d="M363.78,360.94c-15.23-8.79-27.58-3.58-27.58,11.66c0,15.23,12.35,34.71,27.58,43.5
		c15.23,8.79,27.58,3.57,27.58-11.66S379.01,369.74,363.78,360.94z"/>
	<path fill="url(#pb-grad-lin19)" d="M375.43,402.69l-11.29,4.77L349,383.58c-1.71-2.62-2.78-5.52-2.78-8.07c0-4.95,4.3-7.07,8.96-3.77
		c3.82,2.71,7.85,7.02,8.96,12.22c0,0,4.02-4.72,8.97-1.86c4.95,2.86,7.82,6.82,8.22,12.53
		C381.65,399.35,377.1,402.03,375.43,402.69z"/>
</g>
<path id="light" fill="url(#pb-grad-lin20)" d="M104.32,0c0,0,0.53,439.23,0.53,439.38c0,1.93-0.29,3.14,2.7,4.67l234.79,134.12
	l4.64,2.68c1.1,0.63,2.45,0.63,3.55,0l4.64-2.68l474.12-274.93c1.42-0.82,2.48-1.1,2.62-3.81l0.01,0.01v-0.07
	c0.04-0.26,0.06-0.53,0.06-0.79c0-0.27-0.04-296.16-0.04-296.16L104.32,0z"/>
<style>
	#рhone-animation {
		transform: translate(30px, -120px);
	}

	#рhone-animation #messages {
		transform: translate(-435.4px, 251.4px);
		animation: moveMessages 7s ease-in-out 0s infinite;
	}

	#рhone-animation #messages > g:nth-child(1) {
		animation: showMessage1 7s ease-in-out 0s infinite;
	}
	#рhone-animation #messages > g:nth-child(2) {
		animation: showMessage2 7s ease-in-out 0s infinite;
	}
	#рhone-animation #messages > g:nth-child(3) {
		animation: showMessage3 7s ease-in-out 0s infinite;
	}
	#рhone-animation #messages > g:nth-child(4) {
		animation: showMessage4 7s ease-in-out 0s infinite;
	}
	#рhone-animation #messages > g:nth-child(5) {
		animation: showMessage5 7s ease-in-out 0s infinite;
	}
	#рhone-animation #messages > g:nth-child(6) {
		animation: showMessage6 7s ease-in-out 0s infinite;
	}
	#рhone-animation #messages > g:nth-child(7) {
		animation: showMessage7 7s ease-in-out 0s infinite;
	}

	#рhone-animation #messages > g:nth-child(7) {
		animation: showMessage7 7s ease-in-out 0s infinite;
	}
	#рhone-animation #messages > g:nth-child(8) {
		animation: showMessage8 7s ease-in-out 0s infinite;
	}
	#рhone-animation #messages > g:nth-child(9) {
		animation: showMessage9 7s ease-in-out 0s infinite;
	}
	#рhone-animation #messages > g:nth-child(10) {
		animation: showMessage10 7s ease-in-out 0s infinite;
	}
	#рhone-animation #messages > g:nth-child(11) {
		animation: showMessage11 7s ease-in-out 0s infinite;
	}
	#рhone-animation #messages > g:nth-child(12) {
		animation: showMessage12 7s ease-in-out 0s infinite;
	}
	#рhone-animation #messages > g:nth-child(13) {
		animation: showMessage13 7s ease-in-out 0s infinite;
	}
	#рhone-animation #messages > g:nth-child(14) {
		animation: showMessage14 7s ease-in-out 0s infinite;
	}

	#рhone-animation #smile {
		transform: translate(0px, 50px);
		animation: showSmile 6s ease-in-out 0s infinite;
	}

	#рhone-animation #love {
		transform: translate(0px, 70px);
		animation: showLove 6s ease-in-out 0s infinite;
	}

	@keyframes moveMessages {
		0% {
			transform: translate(0px, 0px);
		}
		9.3%, 14.3% {
			transform: translate(75.4px, -42.6px);
		} 
		23.6%, 28.6% {
			transform: translate(135.4px, -77.4px);
		}
		37.89%, 42.89% {
			transform: translate(195.4px, -112.2px);
		}  
		52.19%, 57.19% {
			transform: translate(245.4px, -141.2px);
		} 
		66.48%, 71.48% {
			transform: translate(325.4px, -187.6px);
		}
		80.78%, 85.78% {
			transform: translate(375.4px, -216.6px);
		} 
		95.07%, 100% {
			transform: translate(435.4px, -251.4px);
		} 
	}

	@keyframes showMessage1 {
		0% {
			opacity: 1;
		}
		9.3%, 100% {
			opacity: 0;
		}
	}

	@keyframes showMessage2 {
		0%, 14.3% {
			opacity: 1;
		}
		23.6%, 100% {
			opacity: 0;
		}
	}

	@keyframes showMessage3 {
		0%, 28.6% {
			opacity: 1;
		}
		37.89%, 100% {
			opacity: 0;
		}
	}

	@keyframes showMessage4 {
		0%, 42.89% {
			opacity: 1;
		}
		52.19%, 100% {
			opacity: 0;
		}
	}

	@keyframes showMessage5 {
		0%, 57.19% {
			opacity: 1;
		}
		66.48%, 100% {
			opacity: 0;
		}
	}

	@keyframes showMessage6 {
		0%, 71.48% {
			opacity: 1;
		}
		80.78%, 100% {
			opacity: 0;
		}
	}

	@keyframes showMessage7 {
		0%, 85.78% {
			opacity: 1;
		}
		95.07%, 100% {
			opacity: 0;
		}
	}

	@keyframes showMessage8 {
		0% {
			opacity: 0;
		}
		9.3%, 100% {
			opacity: 1;
		}
	}

	@keyframes showMessage9 {
		0%, 14.3% {
			opacity: 0;
		}
		23.6%, 100% {
			opacity: 1;
		}
	}

	@keyframes showMessage10 {
		0%, 28.6% {
			opacity: 0;
		}
		37.89%, 100% {
			opacity: 1;
		}
	}

	@keyframes showMessage11 {
		0%, 42.89% {
			opacity: 0;
		}
		52.19%, 100% {
			opacity: 1;
		}
	}

	@keyframes showMessage12 {
		0%, 57.19% {
			opacity: 0;
		}
		66.48%, 100% {
			opacity: 1;
		}
	}

	@keyframes showMessage13 {
		0%, 71.48% {
			opacity: 0;
		}
		80.78%, 100% {
			opacity: 1;
		}
	}

	@keyframes showMessage14 {
		0%, 85.78% {
			opacity: 0;
		}
		95.07%, 100% {
			opacity: 1;
		}
	}

	@keyframes showSmile {
		0%, 28.6% {
			opacity: 0;
			transform: translate(0px, 80px);
		}
		38.6% {
			opacity: 1;
		}
		48.6%, 100% {
			opacity: 0;
			transform: translate(0px, -200px);
		}
	}

	@keyframes showLove {
		0%, 57.2% {
			opacity: 0;
			transform: translate(0px, 50px);
		}
		67.2% {
			opacity: 1;
		}
		77.2%, 100% {
			opacity: 0;
			transform: translate(0px, -200px);
		}
	}

</style>
</svg>
