<svg id="delivery" xmlns="http://www.w3.org/2000/svg" viewBox="0 -50 837 430">
	<g id="road">
		<g id="part-road">
			<path d="M635.8,307.4H834" transform="translate(1.5)" fill="none" stroke="#e0e0e0" stroke-linecap="round" stroke-miterlimit="10" stroke-width="3"/>
			<path d="M571,307.4c-75.8,2.1-172.2,1.5-276.3,0-91.3-2.1-176.7-3.1-237.3,0" transform="translate(1.5)" fill="none" stroke="#e0e0e0" stroke-linecap="round" stroke-miterlimit="10" stroke-width="3"/>
			<line x1="32.6" y1="307.3" x2="1.5" y2="307.4" fill="none" stroke="#e0e0e0" stroke-linecap="round" stroke-miterlimit="10" stroke-width="3"/>
		</g>
		<use href="#part-road" transform="translate(837, 0)" />
		<use href="#part-road" transform="translate(-837, 0)" />
	</g>
	<g id="truck">
		<g id="truck-body">
			<path d="M448.6,305.1a10.46,10.46,0,0,1-1.3,2.3H364.4a30.18,30.18,0,0,0-9-.7,106.42,106.42,0,0,1-12.6.7H60.6c5.3-18.3,29.7-39.9,45.5-48.6,64.5-35.9,92.4,40.5,137.7.2,11.8-10.5,25.4-20,40.7-24.5,52.8-15.6,57.5,37.9,90.3,38.1,13.1.1,26.3-7.9,39.7-3.3,11,3.8,35.2,33,34.1,35.8Z" transform="translate(1.5)" fill="#eee" opacity="0.5"/>
			<path d="M316.1,265.9h34.1s4.3-.7,5.6-6.2c3.1-13.7,12.7-46.1,51.4-45.4,49.2,1,51.8,50.7,51.8,50.7,50.2,1.2,106,1,165.2,0-1.3-12.1-1.2-35.3,0-68.4-102.4-1.1-199.3-1.8-273.6-.7C350.6,195.9,316.1,195.8,316.1,265.9Z" transform="translate(1.5)" fill="#eee"/>
			<path d="M316.1,196.5c-1.4,21.3-1.1,44.8,0,69.4h34.1s4.3-.7,5.6-6.2c3.1-13.7,12.7-46.1,51.4-45.4,49.2,1,51.8,50.7,51.8,50.7,50.2,1.2,106,1,165.2,0-1.3-12.1-1.2-35.3,0-68.4-102.4-1.1-199.3-1.8-273.6-.7" transform="translate(1.5)" fill="none" stroke="#e0e0e0" stroke-linecap="round" stroke-miterlimit="10" stroke-width="3"/>
			<path d="M316.1,196.5c2.1-55.5,2.4-108,0-155.9-.6-5.3,3.5-6.5,3.5-6.5,90.1-1,192.1-.9,300.7,0,4.4.3,3.9,4.1,3.9,4.1V65.4a1171.87,1171.87,0,0,1,0,131.2" transform="translate(1.5)" fill="none" stroke="#e0e0e0" stroke-linecap="round" stroke-miterlimit="10" stroke-width="3"/>
			<path d="M309.2,264.2a115.08,115.08,0,0,1,.1-26.3,3.36,3.36,0,0,1,2.8-2.8,44.17,44.17,0,0,1,15.4-.2,4.71,4.71,0,0,1,3.5,3.9,121.74,121.74,0,0,1,.5,25s-.5,3-2.7,3.9a99.09,99.09,0,0,1-16.2.2A4,4,0,0,1,309.2,264.2Z" transform="translate(1.5)" fill="#e0e0e0"/>
			<path d="M791,220.5V211H777.5s-4.3,1.2-4.3,3.9v12.3s-1.1,2.4,4,2.6c1.6.1,3.6.1,5.5.1C782.8,230,780.7,220.5,791,220.5Z" transform="translate(1.5)" fill="#eee"/>
			<path d="M791,211H777.5s-4.3,1.2-4.3,3.9v12.3s-1.1,2.4,4,2.6,13.8,0,13.8,0Z" transform="translate(1.5)" fill="none" stroke="#e0e0e0" stroke-miterlimit="10" stroke-width="2"/>
			<path d="M781,238.5c5.1-.9,10-1.2,14.5-.2a2.63,2.63,0,0,1,2,2.7,171,171,0,0,1,1,21.5s-.2,4.4-2.9,5.4c-4.1,1.4-8.8,1.5-14.1.7,0,0-2.5.1-2.5-1.6-.3-10-.2-19.3.9-26.7C779.7,240.3,779.8,238.7,781,238.5Z" transform="translate(1.5)" fill="#e0e0e0"/>
			<path d="M675.6,159c-8.9,0-17,.1-24,.5-5.5.2-7.4-6.1-7.4-6.1-.7-20.2-.8-40.2,0-59.8.2-5.9,3.4-5.6,3.4-5.6h49.3s7.9-1.3,9.3,4.3c1.9,7.4,5.9,23.3,9.5,38.7C715.7,130.9,677.6,126.3,675.6,159Z" transform="translate(1.5)" fill="#eee"/>
			<path d="M644.2,93.5c-.8,19.6-.7,39.6,0,59.8,0,0,1.8,6.4,7.4,6.1,16.8-.9,39.9-.4,64.4.3,0,0,4.8-.6,4.5-6.5-3.5-18.7-11.4-49.8-14.3-61.1-1.4-5.5-9.3-4.3-9.3-4.3H647.6" transform="translate(1.5)" fill="none" stroke="#e0e0e0" stroke-linecap="round" stroke-miterlimit="10" stroke-width="3"/>
			<path d="M624.2,265h26.1s2.3-.1,2.8-3.4c1.8-11.4,9.7-48,51.6-47.3,41.6.6,50.1,36.4,51.7,48,0,0,.6,3.6,2.9,3.6H791V191.3a6.48,6.48,0,0,0-4.8-6.1,219.9,219.9,0,0,0-36.7-8.5c-4.3-.7-4.5-6.3-4.5-6.3a551.07,551.07,0,0,0-20-83.3,32.6,32.6,0,0,0-22.6-21.6,701,701,0,0,0-78.2,0" transform="translate(1.5)" fill="none" stroke="#e0e0e0" stroke-linecap="round" stroke-miterlimit="10" stroke-width="3"/>
			<path d="M648.6,180.6h21.6s6.9,2.4,5,6.8-5.1,3.9-5.1,3.9H648.6s-6.2-1-5-5.3A7.92,7.92,0,0,1,648.6,180.6Z" transform="translate(1.5)" fill="#e0e0e0"/>
			<path d="M330.6,42.7c91.1.5,183.9,1,278.2,0" transform="translate(1.5)" fill="none" stroke="#e0e0e0" stroke-linecap="round" stroke-miterlimit="10" stroke-width="2"/>
		</g>
		<g>
			<path d="M746.3,259.7s-7.4-37-40.3-35.9-41.8,29.9-41.8,29.9-7.6,30.7,14.8,45.1c22.9,14.6,51.6,10.9,63.2-13.7C746.3,278.7,747.7,270.3,746.3,259.7Z" transform="translate(1.5)" fill="#e0e0e0"/>
			<path d="M695.4,258.8s-6.2,10.5,3.3,16.7c11.4,3,15.7-4.5,15.7-4.5s6.4-11.6-5.5-16.3C699.8,252.6,696.2,257.3,695.4,258.8Z" transform="translate(1.5)" fill="#f5f5f5"/>
		</g>
		<g>
			<path d="M364.4,267.4c-1.1,20.7,20,34,20,34,.8,1,19.6,10.6,40.6,2.6,22.5-7.3,24-36.1,23.5-40.6,0,0-.6-24.4-28.1-37s-46.7,13.9-46.7,13.9C368.8,246.4,365.8,255.6,364.4,267.4Z" transform="translate(1.5)" fill="#e0e0e0"/>
			<path d="M400.6,256.5s-9.8,7.6-2.4,16,15.8,2.2,15.8,2.2,5.3-4.5,5.1-8-1.3-8.6-4.2-10.2S404,253.6,400.6,256.5Z" transform="translate(1.5)" fill="#f5f5f5"/>
		</g>
	</g>
	<g transform="translate(100, 0)">
		<g id="man-shadow">
			<line x1="383.2" y1="367.3" x2="435.1" y2="367.3" fill="none" stroke="#bdbdbd" stroke-linecap="round" stroke-miterlimit="10" stroke-width="2"/>
			<line x1="128.6" y1="367.3" x2="200.1" y2="367.3" fill="none" stroke="#bdbdbd" stroke-linecap="round" stroke-miterlimit="10" stroke-width="2"/>
		</g>
		<g id="man">
			<g id="legs">
				<g id="rigth-leg">
					<g id="right-shin">
						<path d="M230.2,267.6c-6.7,9.4-50.5,86-50.5,86-3,4.9,3,8.4,6.6,4.1l64.6-72.8C256.4,272.6,240.5,260.8,230.2,267.6Z" transform="translate(1.5)" fill="#ffc093"/>
						<g id="right-foot">
							<path d="M167,344.65c4.8,1.6,9.91,4.08,9.71,4.35a7.52,7.52,0,0,1,2.1-5.2c4.2-4.3,6.6,1.4,5.8,2.2a30.78,30.78,0,0,0-2.5,3.6,8.38,8.38,0,0,0,2.7,2.9,26.17,26.17,0,0,0,4.8,2.2h0a9.35,9.35,0,0,1-3,7.6l-3.5,3.6-21.61-13.29C158.56,349.31,163,344.15,167,344.65Z" transform="translate(1.5)" fill="#002984" stroke="#002984" stroke-miterlimit="10" stroke-width="0.56"/>
							<path d="M161.49,352.61l-5.39-3.31c-.9-.3-.6-5.9,4.6-6a21.81,21.81,0,0,1,6.29,1.35C171.41,348.89,166.63,354.06,161.49,352.61Z" transform="translate(1.5)" fill="#002984" stroke="#002984" stroke-miterlimit="10" stroke-width="0.56"/>
						</g>
					</g>
					<g id="right-thign">
						<path d="M250.9,284.9l16-18.1c10.6-17.7,0-40.7-17.1-29,0,0-12.6,20-19.6,29.8C222.3,279.3,241.2,294.7,250.9,284.9Z" transform="translate(1.5)" fill="#ffc093"/>
						<path d="M270,271.5s36.2-43.3,38.2-50.3c0,0,14.4-19.9,13.6-25S300.3,171,282,180.1l-32,45.3s-9.2,13.2-9.5,16-2.8,6.9-3.5,7.3-4.1,7.1-4.1,8.2,18.6,18.9,30.9,17.7C263.9,274.4,268.6,274.1,270,271.5Z" transform="translate(1.5)" fill="#7986cb"/>
						<path id="shadow-short1" d="M301.65,231.65c3.54-4.87,6.06-8.74,6.55-10.45,0,0,14.4-19.9,13.6-25S300.3,171,282,180.1l-32,45.3s-2.3,3.3-4.64,6.95C243.73,236.6,270.35,244.85,301.65,231.65Z" transform="translate(1.5)" fill="#49599a"/>
						<path id="shadow-short2" d="M270,271.5a25.88,25.88,0,0,1,1.4-17.3c4.1-9.1,15.2-18.8,15.2-18.8s9.3-15.5,10.5-18.1,6.4-12.6,10.1-10.6,4.9,8.9,4.9,8.9-14.8,21.8-16.6,24.3C293.5,242.5,270.3,271.9,270,271.5Z" transform="translate(1.5)" fill="#49599a"/>
					</g>
				</g>
				<g id="left-leg">
					<g id="left-shin">
						<path d="M314,284.1a16.32,16.32,0,0,0,4.9,5.48l0,.12c12.8,8.1,73.7,50.1,73.7,50.1h.1L406.6,351c5.8,3.3,12-.2,8.1-6.9L403,335.3c-33.5-31.3-27.5-45.1-59.6-57.9C341.92,276.12,306.7,269.18,314,284.1Z" transform="translate(1.5)" fill="#ffc093"/>
						<g id="left-foot">
							<path d="M401.9,366.7l19-17.5s-2.7-5.4-6.7-7.8-5.3-2.4-5.3-2.4a33.15,33.15,0,0,1-4.7,5.6,3.94,3.94,0,0,1-3.9.6l-3.9-2.1s-5.1,3.6-3.5,5,6.4,1.1,6.4,1.1l-5.6,9.7C391.22,365.1,395.45,366.67,401.9,366.7Z" transform="translate(1.5)" fill="#002984" stroke="#002984" stroke-miterlimit="10" stroke-width="0.56"/>
							<path d="M393.7,358.9c-9,1.2-7.7,7.8-7.7,7.8h15.9C403.85,360.91,399.22,357.87,393.7,358.9Z" transform="translate(1.5)" fill="#002984" stroke="#002984" stroke-miterlimit="10" stroke-width="0.56"/>
						</g>
					</g>
					<g id="left-thign">
						<path d="M341.94,275c-.7-3.27-.06-9.34.16-15.72-7-16.8-35.1-14.1-35.1,6.8,2.06,7.21,4.28,13.54,7,18,3.8,7,22.64,16.74,29.45,10.53C342.77,291.33,341.48,278.92,341.94,275Z" transform="translate(1.5)" fill="#ffc093"/>
						<path d="M300,187.6s24.6-7.9,42.2,7.6c0,0,9.6,3.5,4.4,28.2,0,0-2.2,40.4-1.6,43.4,0,0,1.6,4.4-1.4,5.4s-10.3,4-35.7,3.7c0,0-1.6,0-3.7-3.5-2-4.7-11.5-41.6-14.4-57.9S295.5,189.5,300,187.6Z" transform="translate(1.5)" fill="#7986cb"/>
					</g>
				</g>
				<path id="shadow-tshirt" d="M280.1,190.3s32.9,29.8,49,27.6c0,0,18.4-2.3,19-4.4a33.62,33.62,0,0,0,.8-6.9s-30.8-19-54.5-18.4C294.5,188.2,280.7,188.9,280.1,190.3Z" transform="translate(1.5)" fill="#49599a"/>
			</g>
			<g id="body">
				<g>
					<path d="M358.2,79.2s-3.4-6.3,6-19.7c-.9-6.9-19.9-4.4-18.9,2.5a21.93,21.93,0,0,1-4,13.5C339.8,81.9,356.8,85.6,358.2,79.2Z" transform="translate(1.5)" fill="#ffc093"/>
					<path d="M337.3,72.6s.1-.1,1.2-1.6c4.1,1.8,15.4,2.5,22.5,3.1.7.1.1,3.3-.4,4,0,0-.9,3.9-1.1,4.3s4.7,18-5.8,47.4a147.16,147.16,0,0,0-.1,15.9c.5,5.5-2.6,21-4,25.3a8.1,8.1,0,0,0,1.7,7.6s4.1,2.4-2.7,10c0,0-1.6.8,1.9,4.8s4.4,13.3,2.1,16.3-12.1,5.7-23.3,3.3-32.1-15.5-33.8-16.5-18.7-7.2-18.7-7.2-4.5-2-1.7-6.5,9.4-17.2,9.8-18.4,4.1-29.9,6.2-40.5,14.8-37.7,27.3-42.6,15.5-5.7,15.5-5.7Z" transform="translate(1.5)" fill="#3f51b5"/>
					<path d="M338.4,196.8c-1.5-1.7-4.9-5.1-7.5-8.5s4.6-4.3,4.6-4.3,2.5-6.3,0-8.4-6.6.1-7.3-2.1,6.9-1.5,9.5-2.7.7-9.5.2-12.5-.8-11.9-1.4-14.6,9-20.5,14.4-27.2,5.2,5.8,5.2,5.8c-.7,2.4-1.5,4.8-2.4,7.4a147.16,147.16,0,0,0-.1,15.9c.5,5.5-2.6,21-4,25.3a8.1,8.1,0,0,0,1.7,7.6s4.1,2.4-2.7,10c0,0-1.6.8,1.9,4.8a14.69,14.69,0,0,1,3,7.3C353.4,200.6,350.4,210.2,338.4,196.8Z" transform="translate(1.5)" fill="#303f9f"/>
				</g>
				<g id="head">
					<path d="M336,28.3l-9.6,6.6s-1.8,1.5-1,2.7,4,3.3,4,3.3l2.1,1.4Z" transform="translate(1.5)" fill="#ff9367"/>
					<path d="M350.1,64s29.1,3.5,35.5-22.3-16.4-30.2-16.4-30.2-15.7-6.8-28.1,9.7c0,0-11.2,13.6-14,26.7S332,63.6,332,63.6a15.93,15.93,0,0,0,5,.4C339.2,63.7,344.5,60.2,350.1,64Z" transform="translate(1.5)" fill="#ffc093"/>
					<path d="M362.3,43.5s-4.6,17.2,4.3,18.7c0,0,8.1-2.1,11.9-7.3s11.2-10.1,5.8-32c0,0-5.4-14.3-31.1-13.8s-11.9,11.8-11.9,11.8a26.11,26.11,0,0,1,2.7-3.1c.7-.6,6.4-.7,7.2,6.2a39.09,39.09,0,0,1-.6,12.5s-1.7,4.8-.5,5.3a3.46,3.46,0,0,0,3.6-.9c.5-.8,2-2.9,2-2.9s3-7.9,7.7-4.2.4,8.8.4,8.8A2.07,2.07,0,0,1,362.3,43.5Z" transform="translate(1.5)" fill="#a36233"/>
				</g>
				<g id="box-down">
					<rect x="257.3" y="78.4" width="72.3" height="56.2" fill="#ffb300"/>
					<rect x="293" y="78.4" width="1" height="56.2" fill="#f57c00"/>
					<polygon points="257.3 78.4 307.9 78.4 257.5 84.2 257.3 78.4" fill="#ffa000"/>
					<rect x="288.4" y="78.4" width="10.1" height="12.1" fill="#e0e0e0"/>
					<polygon points="288.4 80.7 298.6 79.5 298.6 78.4 288.4 78.4 288.4 80.7" fill="#bdbdbd"/>
				</g>
				<g id="hand">
					<path d="M255.6,97.2l.4-16c-2.3,0-5.9.9-5.6,8.6.2,5.9,5.4,15.4,5.4,15.4Z" transform="translate(1.5)" fill="#ffc093"/>
					<path d="M320.8,130.1c3.7-1.5,13.8-36.7,19.9-43.6,4.1-4.6,12.7-5.6,17.9-2.2,5.7,3.8,7.6,11.4,7.3,18.2-3.4,19.8-27.8,46.7-37.7,48.6C318.2,152.4,313.2,138.6,320.8,130.1Z" transform="translate(1.5)" fill="#ffc093"/>
					<path d="M255.5,92c4.5,24.4,59,40.8,65.3,38.1,15-.2,19.1,19.3,7.4,21.1-4.5.8-63.5-6.4-73.2-47.2C253.9,97.8,254,93.7,255.5,92Z" transform="translate(1.5)" fill="#ffc093"/>
					<path d="M364.9,111.4c-.1-1,4-11.2,4-11.2,2.1-13.9-12.1-20.1-12.1-20.1s-17.5-5.6-24.1,13a16.41,16.41,0,0,1-1,4.8,16.08,16.08,0,0,0-.9,5s-.7,4.1-1.6,5.5,29,11.7,33.5,9.8C362.6,118.1,365.2,113.9,364.9,111.4Z" transform="translate(1.5)" fill="#303f9f"/>
				</g>
				<g id="box-up">
					<rect x="246.9" y="32" width="61" height="46.4" fill="#fb8c00"/>
					<rect x="276.99" y="32" width="1.03" height="46.4" fill="#e65100"/>
					<rect x="272.5" y="32" width="10.1" height="12.1" fill="#e0e0e0"/>
				</g>
			</g>
		</g>
	</g>
	<style>
		#delivery #man #legs #left-leg {
			-webkit-transform-origin: 318.68px 188.19px;
			    -ms-transform-origin: 318.68px 188.19px;
			        transform-origin: 318.68px 188.19px;
			-webkit-transform: rotate(45deg) scale(1, 1.1);
			    -ms-transform: rotate(45deg) scale(1, 1.1);
			        transform: rotate(45deg) scale(1, 1.1);
			-webkit-animation: rotateToStart 1s ease-in-out 0s infinite alternate;
			        animation: rotateToStart 1s ease-in-out 0s infinite alternate;
		}

		#delivery #man #legs #left-leg #left-shin {
			-webkit-transform-origin: 335px 280px;
			    -ms-transform-origin: 335px 280px;
			        transform-origin: 335px 280px;
			-webkit-transform: rotate(45deg);
			    -ms-transform: rotate(45deg);
			        transform: rotate(45deg);
			-webkit-animation: rotateToStart 1s ease-in-out 0s infinite alternate;
			        animation: rotateToStart 1s ease-in-out 0s infinite alternate;
		}

		#delivery #man #legs #rigth-leg {
			-webkit-transform-origin: 299.14px 191.87px;
			    -ms-transform-origin: 299.14px 191.87px;
			        transform-origin: 299.14px 191.87px;
			-webkit-transform: rotate(-50deg) scale(1, 1);
			    -ms-transform: rotate(-50deg) scale(1, 1);
			        transform: rotate(-50deg) scale(1, 1);
			-webkit-animation: rotateToStart 1s ease-in-out 0s infinite alternate;
			        animation: rotateToStart 1s ease-in-out 0s infinite alternate;
		}

		#delivery #man #legs #rigth-leg #right-shin {
			-webkit-transform-origin: 242.35px 273.51px;
			    -ms-transform-origin: 242.35px 273.51px;
			        transform-origin: 242.35px 273.51px;
			-webkit-transform: rotate(-40deg);
			    -ms-transform: rotate(-40deg);
			        transform: rotate(-40deg);
			-webkit-animation: rotateToStart 1s ease-in-out 0s infinite alternate;
			        animation: rotateToStart 1s ease-in-out 0s infinite alternate;
		}

		#delivery #man {
			-webkit-transform: translate(0px, -30px);
			    -ms-transform: translate(0px, -30px);
			        transform: translate(0px, -30px);
			-webkit-animation: moveToStart 0.5s ease-in-out -0.5s infinite alternate;
			        animation: moveToStart 0.5s ease-in-out -0.5s infinite alternate;
		}


		#delivery #man #legs #left-leg #left-foot > path:nth-child(2) {
			-webkit-transform-origin: 398px 360px;
			    -ms-transform-origin: 398px 360px;
			        transform-origin: 398px 360px;
			-webkit-transform: rotate(-45deg) scale(1, 1.3);
			    -ms-transform: rotate(-45deg) scale(1, 1.3);
			        transform: rotate(-45deg) scale(1, 1.3);
			-webkit-animation: rotateToStart 1s ease-in-out 0s infinite alternate;
			        animation: rotateToStart 1s ease-in-out 0s infinite alternate;
		}

		#delivery #man #legs #rigth-leg #right-foot > path:nth-child(2) {
			-webkit-transform-origin: 165.5px 348.5px;
			    -ms-transform-origin: 165.5px 348.5px;
			        transform-origin: 165.5px 348.5px;
			-webkit-transform: rotate(68deg) scale(1, 1.1);
			    -ms-transform: rotate(68deg) scale(1, 1.1);
			        transform: rotate(68deg) scale(1, 1.1);
			-webkit-animation: rotateToStart 1s ease-in-out 0s infinite alternate;
			        animation: rotateToStart 1s ease-in-out 0s infinite alternate;
		}

		#delivery #man #legs #shadow-tshirt {
			-webkit-transform: translate(0px, -5px);
			    -ms-transform: translate(0px, -5px);
			        transform: translate(0px, -5px);
			-webkit-animation: moveToStart 1s ease-in-out 0s infinite alternate;
			        animation: moveToStart 1s ease-in-out 0s infinite alternate;
		}

		#delivery #man #body {
			-webkit-transform-origin: 318.68px 138.46px;
			    -ms-transform-origin: 318.68px 138.46px;
			        transform-origin: 318.68px 138.46px;
			-webkit-transform: rotate(-2deg) scale(1, 1);
			    -ms-transform: rotate(-2deg) scale(1, 1);
			        transform: rotate(-2deg) scale(1, 1);
			-webkit-animation: rotateToStart 1s ease-in-out 0s infinite alternate;
			        animation: rotateToStart 1s ease-in-out 0s infinite alternate;
		}

		#delivery #man #head {
			-webkit-transform-origin: 352px 60.72px;
			    -ms-transform-origin: 352px 60.72px;
			        transform-origin: 352px 60.72px;
			-webkit-transform: rotate(-4deg) scale(1, 1);
			    -ms-transform: rotate(-4deg) scale(1, 1);
			        transform: rotate(-4deg) scale(1, 1);
			-webkit-animation: rotateToStart 1s ease-in-out 0s infinite alternate;
			        animation: rotateToStart 1s ease-in-out 0s infinite alternate;
		}

		#delivery #box-up {
			-webkit-transform: translate(10px, 0px);
			    -ms-transform: translate(10px, 0px);
			        transform: translate(10px, 0px);
			-webkit-animation: moveToStart 1s ease-in-out -1s infinite alternate;
			        animation: moveToStart 1s ease-in-out -1s infinite alternate;
		}

		#delivery #man #shadow-short1 {
			-webkit-animation: showShortShadow 1s ease-in-out 0s infinite alternate;
			        animation: showShortShadow 1s ease-in-out 0s infinite alternate;
		}
		#delivery #man #shadow-short2 {
			-webkit-animation: showShortShadow 1s ease-in-out -1s infinite alternate;
			        animation: showShortShadow 1s ease-in-out -1s infinite alternate;
		}

		#delivery #road {
			-webkit-transform: translate(-837px, 0px);
			    -ms-transform: translate(-837px, 0px);
			        transform: translate(-837px, 0px);
			-webkit-animation: moveBg 10s linear 0s infinite;
			        animation: moveBg 10s linear 0s infinite;
		}

		#delivery #truck {
			-webkit-transform: translate(-837px, 0px);
			    -ms-transform: translate(-837px, 0px);
			        transform: translate(-837px, 0px);
			-webkit-animation: moveBg 7s linear 0s infinite;
			        animation: moveBg 7s linear 0s infinite;
		}

		#delivery #truck #truck-body {
			-webkit-transform: translate(0px, -5px);
			    -ms-transform: translate(0px, -5px);
			        transform: translate(0px, -5px);
			-webkit-animation: moveToStart 0.5s linear 0s infinite alternate;
			        animation: moveToStart 0.5s linear 0s infinite alternate;
		}

		#delivery #man-shadow > line:nth-child(2)  {
			-webkit-animation: moveManShadow1 2s ease-in-out 0s infinite;
			        animation: moveManShadow1 2s ease-in-out 0s infinite;
		}

		#delivery #man-shadow > line:nth-child(1)  {
			-webkit-animation: moveManShadow2 2s ease-in-out -1s infinite;
			        animation: moveManShadow2 2s ease-in-out -1s infinite;
		}


		@-webkit-keyframes rotateToStart {
			to {
				-webkit-transform: rotate(0deg) scale(1, 1);
				        transform: rotate(0deg) scale(1, 1);
			}
		}


		@keyframes rotateToStart {
			to {
				-webkit-transform: rotate(0deg) scale(1, 1);
				        transform: rotate(0deg) scale(1, 1);
			}
		}

		@-webkit-keyframes moveToStart {
			to {
				-webkit-transform: translate(0px, 0px);
				        transform: translate(0px, 0px);
			}
		}

		@keyframes moveToStart {
			to {
				-webkit-transform: translate(0px, 0px);
				        transform: translate(0px, 0px);
			}
		}

		@-webkit-keyframes showShortShadow {
			0% {
				opacity: 1;
			}
			31% {
				opacity: 1;
			}
			32% {
				opacity: 0;
			}
			100% {
				opacity: 0;
			}
		}

		@keyframes showShortShadow {
			0% {
				opacity: 1;
			}
			31% {
				opacity: 1;
			}
			32% {
				opacity: 0;
			}
			100% {
				opacity: 0;
			}
		}

		@-webkit-keyframes moveBg {
			0% {
				-webkit-transform: translate(-837px, 0px);
				        transform: translate(-837px, 0px);
			}
			100% {
				-webkit-transform: translate(837px, 0px);
				        transform: translate(837px, 0px);
			}
		}

		@keyframes moveBg {
			0% {
				-webkit-transform: translate(-837px, 0px);
				        transform: translate(-837px, 0px);
			}
			100% {
				-webkit-transform: translate(837px, 0px);
				        transform: translate(837px, 0px);
			}
		}

		@-webkit-keyframes moveManShadow1 {
			0% {
				opacity: 1;
				-webkit-transform: translate(0px, 0px);
				        transform: translate(0px, 0px);
			}
			50% {
				opacity: 1;
				-webkit-transform: translate(230px, 0px);
				        transform: translate(230px, 0px);
			}
			60% {
				opacity: 0;
				-webkit-transform: translate(220px, 0px);
				        transform: translate(220px, 0px);
			}
			85% {
				opacity: 0;
				-webkit-transform: translate(0px, 0px);
				        transform: translate(0px, 0px);
			}
			100% {
				opacity: 1;
				-webkit-transform: translate(0px, 0px);
				        transform: translate(0px, 0px);
			}
		}

		@keyframes moveManShadow1 {
			0% {
				opacity: 1;
				-webkit-transform: translate(0px, 0px);
				        transform: translate(0px, 0px);
			}
			50% {
				opacity: 1;
				-webkit-transform: translate(230px, 0px);
				        transform: translate(230px, 0px);
			}
			60% {
				opacity: 0;
				-webkit-transform: translate(220px, 0px);
				        transform: translate(220px, 0px);
			}
			85% {
				opacity: 0;
				-webkit-transform: translate(0px, 0px);
				        transform: translate(0px, 0px);
			}
			100% {
				opacity: 1;
				-webkit-transform: translate(0px, 0px);
				        transform: translate(0px, 0px);
			}
		}

		@-webkit-keyframes moveManShadow2 {
			0% {
				opacity: 1;
				-webkit-transform: translate(-230px, 0px);
				        transform: translate(-230px, 0px);
			}
			50% {
				opacity: 1;
				-webkit-transform: translate(0px, 5px);
				        transform: translate(0px, 5px);
			}
			60% {
				opacity: 0;
				-webkit-transform: translate(0px, 5px);
				        transform: translate(0px, 5px);
			}
			85% {
				opacity: 0;
				-webkit-transform: translate(-230px, 0px);
				        transform: translate(-230px, 0px);
			}
			100% {
				opacity: 1;
				-webkit-transform: translate(-230px, 0px);
				        transform: translate(-230px, 0px);
			}
		}

		@keyframes moveManShadow2 {
			0% {
				opacity: 1;
				-webkit-transform: translate(-230px, 0px);
				        transform: translate(-230px, 0px);
			}
			50% {
				opacity: 1;
				-webkit-transform: translate(0px, 5px);
				        transform: translate(0px, 5px);
			}
			60% {
				opacity: 0;
				-webkit-transform: translate(0px, 5px);
				        transform: translate(0px, 5px);
			}
			85% {
				opacity: 0;
				-webkit-transform: translate(-230px, 0px);
				        transform: translate(-230px, 0px);
			}
			100% {
				opacity: 1;
				-webkit-transform: translate(-230px, 0px);
				        transform: translate(-230px, 0px);
			}
		}
	</style>
</svg>