<svg version="1.1" id="voodoo-loader" xmlns="http://www.w3.org/2000/svg" xmlns:xlink="http://www.w3.org/1999/xlink" x="0px"
	 y="0px" viewBox="0 0 1699.83 1661.92" style="enable-background:new 0 0 1699.83 1661.92;" xml:space="preserve">
<style type="text/css">
	#voodoo-loader .stVoodooLoaderWhite{fill:#FFFFFF;}
	#voodoo-loader .stVoodooLoaderSilver{fill:#CCCCCC;}
	#voodoo-loader .stVoodooLoaderOrange{fill:#FFB02A;}
	#voodoo-loader .stVoodooLoaderPink1{fill:#94005E;}
	#voodoo-loader .stVoodooLoaderPink2{fill:#C60085;}
	#voodoo-loader .stVoodooLoaderBlue{fill:#00FFFF;}
	#voodoo-loader .stVoodooLoaderBlack{fill:#000000;}
	#voodoo-loader .stVoodooLoaderStroke{fill:none;stroke:#ff0000;stroke-width:150;stroke-linecap:round;stroke-miterlimit:10;}
</style>
<defs>
	<clipPath id="clip-mouth">
		<path class="stVoodooLoaderBlack" d="M1030.32,1355.07c18.71-11.2,36.5-24.2,53.22-39.32l-18.23-19.69c0,0-18.97,13.7-47.92,30.2l-4.09-9.15
			c-5.86-9.13-14.73-15.6-25.25-20.64c-3.24,11.2-4.29,22.12-1.38,32.58l4.99,11.09c-13.04,6.65-27.22,13.28-42.01,19.23l-3.46-10.53
			c-4.86-9.69-13.02-17.07-22.95-23.17c-4.38,10.81-6.56,21.58-4.75,32.28l3.74,11.42c-19.13,6.15-38.69,10.64-57.7,12.32v-17.09
			c-1.62-10.72-7.05-20.26-14.6-29.17c-7.55,8.91-12.98,18.45-14.6,29.17v17.09c-19.02-1.68-38.58-6.17-57.7-12.32l3.74-11.42
			c1.82-10.7-0.37-21.47-4.75-32.28c-9.93,6.11-18.1,13.48-22.95,23.17l-3.46,10.53c-14.79-5.95-28.97-12.58-42.01-19.23l4.99-11.09
			c2.91-10.46,1.86-21.38-1.38-32.58c-10.53,5.03-19.39,11.51-25.25,20.64l-4.09,9.15c-28.95-16.5-47.92-30.2-47.92-30.2l-18.23,19.69
			c16.72,15.12,34.51,28.12,53.22,39.32l-5.36,11.97c-3.15,10.7-1.42,19.63,3.98,26.76c8.91-0.72,16.74-5.36,22.65-14.84l4.44-9.93
			c14.73,7.24,29.94,13.48,45.6,18.86l-4.25,12.93c-2.01,10.98,0.63,19.69,6.74,26.22c8.8-1.64,16.08-7.07,20.99-17.11l4.42-13.48
			c21.51,5.86,43.77,10.26,66.59,13.5v9.37c1.53,11.05,6.76,18.51,14.6,22.8c7.83-4.29,13.06-11.75,14.6-22.8v-9.37
			c22.82-3.24,45.08-7.64,66.59-13.5l4.42,13.48c4.9,10.04,12.19,15.47,20.99,17.11c6.11-6.52,8.75-15.23,6.74-26.22l-4.25-12.93
			c15.67-5.38,30.88-11.62,45.6-18.86l4.44,9.93c5.91,9.48,13.74,14.11,22.65,14.84c5.4-7.13,7.13-16.06,3.98-26.76L1030.32,1355.07z"
			/>
	</clipPath>
</defs>
<g id="voodoo-head">
	<g>
		<path d="M1393.18,948.97c42.74,149.66,64.86,279.55-26,351.81c0,0,24.33,113.77-67.57,173.57c-46.85,30.48-92.78,1.86-92.78,1.86
			s-18.25,74.05-76.96,66.39c-58.71-7.66-73.31-91.19-73.31-91.19c-47.09,40.05-113.33,58.01-205.39,58.34c0,0-0.83,0-1.25,0
			c-0.42,0-1.25,0-1.25,0c-92.06-0.33-158.3-18.29-205.39-58.34c0,0-14.6,83.53-73.31,91.19s-76.96-66.39-76.96-66.39
			s-45.93,28.62-92.78-1.86c-91.91-59.81-67.57-173.57-67.57-173.57c-90.86-72.26-68.73-202.15-26-351.81H1393.18z"/>
		<g>
			<path class="stVoodooLoaderBlue" d="M534.8,1382.49c0,0,0.55,39.39-16.96,65.65c16.41,44.86,48.69,64.55,67.84,47.59
				c-27.35-6.02-43.77-49.24-43.77-49.24s15.86-22.43,9.85-48.69C541.92,1385.77,534.8,1382.49,534.8,1382.49z"/>
			<path class="stVoodooLoaderBlue" d="M464.78,1255.57c0,0-16.41,54.16-42.12,63.46s-57.99,0-57.99,0s-6.56,120.9,74.4,130.75
				c-27.51-18.2-36.16-86.05-31.18-85.89C407.88,1363.89,466.97,1334.89,464.78,1255.57z"/>
			<path class="stVoodooLoaderBlue" d="M360.84,1047.68c-10.39,50.88-29.54,180.53,14.77,233.05c-27.35-1.64-54.18-44.47-59.63-96.83
				c-7.18-68.86,18.25-184.95,24.77-213.09c20.02,10.94,42.52,21.2,67.22,30.64C391.63,1004.66,367.53,1014.97,360.84,1047.68z"/>
			<path class="stVoodooLoaderBlue" d="M1165.03,1382.49c0,0-0.55,39.39,16.96,65.65c-16.41,44.86-48.69,64.55-67.84,47.59
				c27.35-6.02,43.77-49.24,43.77-49.24s-15.86-22.43-9.85-48.69C1157.91,1385.77,1165.03,1382.49,1165.03,1382.49z"/>
			<path class="stVoodooLoaderBlue" d="M1235.05,1255.57c0,0,16.41,54.16,42.12,63.46s57.99,0,57.99,0s6.56,120.9-74.4,130.75
				c27.51-18.2,36.16-86.05,31.18-85.89C1291.95,1363.89,1232.86,1334.89,1235.05,1255.57z"/>
			<path class="stVoodooLoaderBlue" d="M1338.99,1047.68c10.39,50.88,29.54,180.53-14.77,233.05c27.35-1.64,54.18-44.47,59.63-96.83
				c7.18-68.86-18.25-184.95-24.77-213.09c-20.02,10.94-42.52,21.2-67.22,30.64C1308.21,1004.66,1332.3,1014.97,1338.99,1047.68z"/>
		</g>
	</g>
	<g>
		<path class="stVoodooLoaderWhite" d="M1225.05,1023.61c0,0-17.51,7.66-49.81,17.7c-19.65,6.08-44.77,13.09-74.77,19.76
				c-63.61,14.18-149.09,26.98-250.56,27.09c-101.47-0.11-186.94-12.91-250.56-27.09c-30-6.67-55.12-13.68-74.77-19.76
				c-32.3-10.04-49.81-17.7-49.81-17.7s-14.49,132.96,52.82,256.71c8.95,16.46,19.34,32.76,31.42,48.56
				c95.96,125.54,267.08,132.06,289.64,132.37v0.02c0,0,0.42,0,1.25,0c0.83,0,1.25,0,1.25,0v-0.02
				c22.56-0.31,193.68-6.83,289.64-132.37c12.08-15.8,22.47-32.1,31.42-48.56C1239.54,1156.57,1225.05,1023.61,1225.05,1023.61z"/>
		<path class="stVoodooLoaderSilver" d="M1225.05,1023.61c0,0-17.51,7.66-49.81,17.7c-19.65,6.08-44.77,13.09-74.77,19.76
				c-63.61,14.18-149.09,26.98-250.56,27.09c-101.47-0.11-186.94-12.91-250.56-27.09c-30-6.67-55.12-13.68-74.77-19.76
				c-32.3-10.04-49.81-17.7-49.81-17.7s-14.49,132.96,52.82,256.71c3.72-10.04,8.93-19.56,16.11-24.75
				c28.45,30.64,159.74,47.05,248.37-13.13c18.6,1.09,40.48-19.69,40.48-19.69l-83.15-85.34c0,0,49.74,7.4,99.26,7.64v0.02h1.25h1.25
				v-0.02c49.52-0.24,99.26-7.64,99.26-7.64l-83.15,85.34c0,0,21.88,20.79,40.48,19.69c88.63,60.18,219.92,43.77,248.37,13.13
				c7.18,5.19,12.39,14.71,16.11,24.75C1239.54,1156.57,1225.05,1023.61,1225.05,1023.61z"/>
		<g id="left-eye">
			<path d="M552.96,1111.46c0,0,154.21,14.02,275.4,13.62c-17.18,25.17-39.85,37.29-39.85,37.29s-41.95,117.65-159.53,104.03
					s-142.52-138.25-142.52-138.25L552.96,1111.46z"/>
			<path id="left-eye-orange" class="stVoodooLoaderOrange" d="M553.92,1169.31l192.42,0.03c0,0-30.23,67.88-102.98,61.4C570.62,1224.27,553.92,1169.31,553.92,1169.31z"/>
		</g>
		<g id="right-eye">
			<path d="M1146.89,1111.5c0,0-154.22,13.96-275.41,13.51c17.17,25.18,39.83,37.3,39.83,37.3s41.9,117.66,159.49,104.09
					s142.58-138.19,142.58-138.19L1146.89,1111.5z"/>
			<path id="right-eye-orange" class="stVoodooLoaderOrange" d="M1145.9,1169.35l-192.42-0.04c0,0,30.2,67.89,102.95,61.45S1145.9,1169.35,1145.9,1169.35z"/>
		</g>
	</g>
	<path id="draw-mouth" clip-path="url(#clip-mouth)" class="stVoodooLoaderStroke" d="M611.72,1296.05c0,0,200.85,214.05,476.28,0" stroke-dashoffset="524.02" stroke-dasharray="524.02"></path>
	<g id="mouth-stitches" clip-path="url(#clip-mouth)">
		<circle id="mouth-stitch1" cx="688.43" cy="1346.93" r="10"/>
		<circle id="mouth-stitch2" cx="758.84" cy="1377.35" r="10"/>
		<circle id="mouth-stitch3" cx="849.92" cy="1395.26" r="10"/>
		<circle id="mouth-stitch4" cx="939.7" cy="1377.35" r="10"/>
		<circle id="mouth-stitch5" cx="1011.29" cy="1346.29" r="10"/>
	</g>
	<path id="mouth-аа" d="M669.51,1355.07c-18.71-11.2-36.5-24.2-53.22-39.32l18.23-19.69c0,0,18.97,13.7,47.92,30.2
		c8.58,5.08,17.16,9.74,25.73,13.9c13.04,6.65,27.22,13.28,42.01,19.23c8.55,4.07,17.77,7.3,27.42,10
		c19.13,6.15,38.69,10.64,57.7,12.32c11,1.37,17.57,1.93,29.19,0c19.02-1.68,38.58-6.17,57.7-12.32c10.32-3.39,19.8-6.74,27.42-10
		c14.79-5.95,28.97-12.58,42.01-19.23c9.41-4.54,18.15-9.15,25.73-13.9c28.95-16.5,47.92-30.2,47.92-30.2l18.23,19.69
		c-16.72,15.12-34.51,28.12-53.22,39.32c-7.01,4.42-15.9,9.13-25.71,13.96c-14.73,7.24-29.94,13.48-45.6,18.86
		c-9.79,3.41-19.17,6.36-27.9,8.56c-21.51,5.86-43.77,10.26-66.59,13.5c-10.11,1.51-19.88,1.64-29.19,0
		c-22.82-3.24-45.08-7.64-66.59-13.5c-10.02-2.7-19.41-5.53-27.9-8.56c-15.67-5.38-30.88-11.62-45.6-18.86
		C686.02,1364.71,677.34,1360.12,669.51,1355.07z"/>
</g>
<g id="hat">
	<path d="M306.66,948.97c-44.95-31.69-70.4-67.75-70.4-106.04c0-74.93,97.47-141.41,247.89-182.92
		c21.8-132.08,10.44-264.12-37.81-396.1c0,0,129.06-144.25,402.34-145.13v-0.02h1.25h1.25v0.02
		c273.27,0.88,402.34,145.13,402.34,145.13c-48.25,131.97-59.61,264.01-37.81,396.1c150.42,41.51,247.89,107.99,247.89,182.92
		c0,38.29-25.45,74.36-70.4,106.04c-19.06,18.35-89.75,52.16-168.13,74.64c0,0-17.51,7.66-49.81,17.7
		c-19.65,6.08-44.77,13.09-74.77,19.76c-63.61,14.18-149.09,26.98-250.56,27.09c-101.47-0.11-186.94-12.91-250.56-27.09
		c-30-6.67-55.12-13.68-74.77-19.76c-32.3-10.04-49.81-17.7-49.81-17.7C412.22,1006.07,354.92,982.77,306.66,948.97z"/>
	<path class="stVoodooLoaderBlue" d="M531.81,591.77l46.6,23.35c6.74-128.68-18.07-330.78-18.07-330.78l132.76-93.37c0,0-112.33,29.18-186.73,75.86
		C525.38,381.42,536.02,491.01,531.81,591.77z"/>
	<path class="stVoodooLoaderBlue" d="M577.9,658.96l-48.83-24.71c-3.97,45.49-11.32,88.98-22.71,130.05c0,0,15.37,10.98,43.11,25.74L577.9,658.96z"
		/>
	<path class="stVoodooLoaderBlue" d="M1168.02,591.77l-46.6,23.35c-6.74-128.68,18.07-330.78,18.07-330.78l-132.76-93.37
		c0,0,112.33,29.18,186.73,75.86C1174.45,381.42,1163.81,491.01,1168.02,591.77z"/>
	<path class="stVoodooLoaderBlue" d="M1121.93,658.96l48.83-24.71c3.97,45.49,11.32,88.98,22.71,130.05c0,0-15.37,10.98-43.11,25.74L1121.93,658.96
		z"/>
	<path class="stVoodooLoaderBlue" d="M1369.85,770.38c2.71,7.99,4.11,16.15,4.11,24.4c0,107.2-234.06,194.08-522.8,194.08h-1.25h-1.25
		c-288.74,0-522.8-86.87-522.8-194.08c0-8.25,1.4-16.41,4.11-24.4c-15.6,18.78-24.01,38.73-24.01,59.41
		c0,111.27,242.96,201.47,542.69,201.47h1.25h1.25c299.73,0,542.69-90.2,542.69-201.47
		C1393.85,809.12,1385.45,789.16,1369.85,770.38z"/>
	<g>
		<path class="stVoodooLoaderPink1" d="M1077.41,822.7c-21.49,8.29-45.38,16.32-71.45,23.17c-8.05,2.12-16.3,4.14-24.75,6
			c-39.65,8.8-83.68,14.55-131.3,14.55c-47.62,0-91.64-5.76-131.3-14.55c-8.45-1.86-16.7-3.87-24.75-6
			c-26.06-6.85-49.96-14.88-71.45-23.17l22.39-139.31c17.57,5.71,37.79,10,58.54,13.22c5.08,0.79,10.18,1.51,15.27,2.17
			c65.6,8.47,131.3,7.16,131.3,7.16s65.69,1.31,131.3-7.16c5.1-0.66,10.2-1.38,15.27-2.17c20.74-3.22,40.96-7.51,58.54-13.22
			L1077.41,822.7z"/>
		<path class="stVoodooLoaderPink2" d="M1005.96,845.88c-8.05,2.12-16.3,4.14-24.75,6c-39.65,8.8-83.68,14.55-131.3,14.55
			c-47.62,0-91.64-5.76-131.3-14.55c-8.45-1.86-16.7-3.87-24.75-6l9.48-149.26c5.08,0.79,10.18,1.51,15.27,2.17
			c65.6,8.47,131.3,7.16,131.3,7.16s65.69,1.31,131.3-7.16c5.1-0.66,10.2-1.38,15.27-2.17L1005.96,845.88z"/>
	</g>
</g>
<style>
	#voodoo-loader #mouth-stitch1 {
		-webkit-transform-origin: 688.43px 1346.93px;
		    -ms-transform-origin: 688.43px 1346.93px;
		        transform-origin: 688.43px 1346.93px;
		-webkit-animation: drawStitch 1s ease-in-out -0.3s infinite alternate;
		        animation: drawStitch 1s ease-in-out -0.3s infinite alternate;
	}
	#voodoo-loader #mouth-stitch2 {
		-webkit-transform-origin: 758.84px 1377.35px;
		    -ms-transform-origin: 758.84px 1377.35px;
		        transform-origin: 758.84px 1377.35px;
		-webkit-animation: drawStitch 1s ease-in-out -0.15s infinite alternate;
		        animation: drawStitch 1s ease-in-out -0.15s infinite alternate;
	}
	#voodoo-loader #mouth-stitch3 {
		-webkit-transform-origin: 849.92px 1395.26px;
		    -ms-transform-origin: 849.92px 1395.26px;
		        transform-origin: 849.92px 1395.26px;
		-webkit-animation: drawStitch 1s ease-in-out 0s infinite alternate;
		        animation: drawStitch 1s ease-in-out 0s infinite alternate;
	}
	#voodoo-loader #mouth-stitch4 {
		-webkit-transform-origin: 939.7px 1377.35px;
		    -ms-transform-origin: 939.7px 1377.35px;
		        transform-origin: 939.7px 1377.35px;
		-webkit-animation: drawStitch 1s ease-in-out 0.15s infinite alternate;
		        animation: drawStitch 1s ease-in-out 0.15s infinite alternate;
	}
	#voodoo-loader #mouth-stitch5 {
		-webkit-transform-origin: 1011.29px 1346.29px;
		    -ms-transform-origin: 1011.29px 1346.29px;
		        transform-origin: 1011.29px 1346.29px;
		-webkit-animation: drawStitch 1s ease-in-out 0.3s infinite alternate;
		        animation: drawStitch 1s ease-in-out 0.3s infinite alternate;
	}

	#voodoo-loader #hat {
		-webkit-transform-origin: 849.92px 790.4px;
		    -ms-transform-origin: 849.92px 790.4px;
		        transform-origin: 849.92px 790.4px;
		-webkit-animation: moveHat 1s ease-in-out 0s infinite alternate;
		        animation: moveHat 1s ease-in-out 0s infinite alternate;
	}
	#voodoo-loader #voodoo-head {
		-webkit-animation: moveHead 1s ease-in-out 0s infinite alternate;
		        animation: moveHead 1s ease-in-out 0s infinite alternate;
	}

	#voodoo-loader #left-eye {
		-webkit-transform-origin: 662.66px 1146.68px;
		    -ms-transform-origin: 662.66px 1146.68px;
		        transform-origin: 662.66px 1146.68px;
		-webkit-transform: rotate(32deg) scale(1, 0.7);
		    -ms-transform: rotate(32deg) scale(1, 0.7);
		        transform: rotate(32deg) scale(1, 0.7);
		-webkit-animation: tranLeftEye 1s ease-in-out 0s infinite alternate;
		        animation: tranLeftEye 1s ease-in-out 0s infinite alternate;
	}
	#voodoo-loader #left-eye-orange {
		-webkit-transform-origin: 650.13px 1169.33px;
		    -ms-transform-origin: 650.13px 1169.33px;
		        transform-origin: 650.13px 1169.33px;
		-webkit-transform: scale(1, 0);
		    -ms-transform: scale(1, 0);
		        transform: scale(1, 0);
		-webkit-animation: tranEye 1s ease-in-out 0s infinite alternate;
		        animation: tranEye 1s ease-in-out 0s infinite alternate;
	}

	#voodoo-loader #right-eye {
		-webkit-transform-origin: 1037.17px 1149.38px;
		    -ms-transform-origin: 1037.17px 1149.38px;
		        transform-origin: 1037.17px 1149.38px;
		-webkit-transform: rotate(-32deg) scale(1, 0.7);
		    -ms-transform: rotate(-32deg) scale(1, 0.7);
		        transform: rotate(-32deg) scale(1, 0.7);
		-webkit-animation: tranRightEye 1s ease-in-out 0s infinite alternate;
		        animation: tranRightEye 1s ease-in-out 0s infinite alternate;
	}
	#voodoo-loader #right-eye-orange {
		-webkit-transform-origin: 1049.69px 1169.31px;
		    -ms-transform-origin: 1049.69px 1169.31px;
		        transform-origin: 1049.69px 1169.31px;
		-webkit-transform: scale(1, 0);
		    -ms-transform: scale(1, 0);
		        transform: scale(1, 0);
		-webkit-animation: tranEye 1s ease-in-out 0s infinite alternate;
		        animation: tranEye 1s ease-in-out 0s infinite alternate;
	}

	@-webkit-keyframes moveHat {
		100% {
			-webkit-transform: translate(0px, 20px) scale(1, 1) skew(0deg, -0.5deg);
			        transform: translate(0px, 20px) scale(1, 1) skew(0deg, -0.5deg);
		}
	}

	@keyframes moveHat {
		100% {
			-webkit-transform: translate(0px, 20px) scale(1, 1) skew(0deg, -0.5deg);
			        transform: translate(0px, 20px) scale(1, 1) skew(0deg, -0.5deg);
		}
	}

	@-webkit-keyframes moveHead {
		100% {
			-webkit-transform: translate(0px, 12px);
			        transform: translate(0px, 12px);
		}
	}

	@keyframes moveHead {
		100% {
			-webkit-transform: translate(0px, 12px);
			        transform: translate(0px, 12px);
		}
	}

	@-webkit-keyframes tranLeftEye {
		to {
			-webkit-transform: rotate(34.6deg) scale(1, 1);
			        transform: rotate(34.6deg) scale(1, 1);
		}
	}

	@keyframes tranLeftEye {
		to {
			-webkit-transform: rotate(34.6deg) scale(1, 1);
			        transform: rotate(34.6deg) scale(1, 1);
		}
	}

	@-webkit-keyframes tranRightEye {
		to {
			-webkit-transform: rotate(-34.6deg) scale(1, 1);
			        transform: rotate(-34.6deg) scale(1, 1);
		}
	}

	@keyframes tranRightEye {
		to {
			-webkit-transform: rotate(-34.6deg) scale(1, 1);
			        transform: rotate(-34.6deg) scale(1, 1);
		}
	}

	@-webkit-keyframes tranEye {
		to {
			-webkit-transform: scale(1, 1);
			        transform: scale(1, 1);
		}
	}

	@keyframes tranEye {
		to {
			-webkit-transform: scale(1, 1);
			        transform: scale(1, 1);
		}
	}

	@-webkit-keyframes drawStitch {
		0% {
			-webkit-transform: scale(1, 1);
			        transform: scale(1, 1);
		}
		30% {
			-webkit-transform: scale(1, 1);
			        transform: scale(1, 1);
		}
		70% {
			-webkit-transform: scale(6, 6);
			        transform: scale(6, 6);
		}
		100% {
			-webkit-transform: scale(6, 6);
			        transform: scale(6, 6);
		}
	}

	@keyframes drawStitch {
		0% {
			-webkit-transform: scale(1, 1);
			        transform: scale(1, 1);
		}
		30% {
			-webkit-transform: scale(1, 1);
			        transform: scale(1, 1);
		}
		70% {
			-webkit-transform: scale(6, 6);
			        transform: scale(6, 6);
		}
		100% {
			-webkit-transform: scale(6, 6);
			        transform: scale(6, 6);
		}
	}
	
</style>
</svg>