<svg id="Short" xmlns="http://www.w3.org/2000/svg" viewBox="0 0 9903.99 6246.99">
  <title>path</title>
  <path id="pl8-5" d="M7664.15,3731.14c22.19,13.07,51.31,9.83,73.69-2.9s39-33.59,52.64-55.45c79.7-127.85,69.44-289.33,71.91-440,.37-22.56,3.9-49.68,24.36-59.2,12-5.6,26.06-2.91,39.07-.37,140.26,27.4,330,16.4,469.2-16" fill="none" stroke="#8fd894" stroke-linecap="round" stroke-miterlimit="10" stroke-width="20"/>
  <path id="pl8-4" d="M5769,3624.65c-3.87,60.91,44,113.83,97.25,143.64a332,332,0,0,0,223.19,35.84c57.66-11.19,111.08-37.52,166.38-57.32a762.16,762.16,0,0,1,213.62-43.33c41-2.31,91,4.1,107.88,41.56,12.91,28.71-4.89,60-17.84,88.66C6501,3963.23,6458,4088.23,6507,4203.23c31.66,74.31,93,134,157,157.42,85.42,31.27,177.36,42.7,268.31,41.28,41.15-.65,82.8-4.24,121.59-18s74.8-38.58,95.61-74.09c38.31-65.39,17.9-147.4,7.75-222.51-4-29.77-5.47-62.72,12.22-87,18.33-25.16,64.1-33.55,94.53-40.11" fill="none" stroke="#8fd894" stroke-linecap="round" stroke-miterlimit="10" stroke-width="20"/>
  <path id="pl8-1" d="M3956.66,3589.78l-51.64-1.55c-164,4-341.12,40.33-459.15,153.41-40.67,39-76.51,86.61-85.68,142.17-12,72.72,23.3,144.59,63.42,206.42s87.2,122.08,103.25,194c6.57,29.45,6.8,62.9-11.57,86.84-20.05,26.15-56.52,33.51-89.43,32.05-54.15-2.42-105.72-23.3-154.37-47.19a1194.77,1194.77,0,0,1-204.95-127.89c-49.6-38.43-100.59-92-91.54-154.08,5.79-39.76,35.45-71.66,66.52-97.14,48.34-39.65,103.37-70.55,151.33-110.65s87.54-92.92,98.77-154.41c30.4-166.55-113.14-137.7-173.6-153.55" fill="none" stroke="#8fd894" stroke-linecap="round" stroke-miterlimit="10" stroke-width="60"/>
  <path id="pl8-2" d="M4053,3590.23c121-1,259-7,429.9,82.08,101,52.65,168.78,172,152,284.68-8.42,56.62-38,109.22-40.75,166.4-3.18,66.26,34.73,133.81,94.82,161.92s138.84,12.24,180.33-39.52c42.71-53.29,41.39-127.91,44.87-196.11s20.33-145.94,80.44-178.34c46.14-24.87,102.59-14.28,153.56-2.08,77.14,18.46,154.41,39.27,233.64,42.84s162.06-11.68,225.66-59.07,103.3-131.31,83.6-208.13" fill="none" stroke="#8fd894" stroke-linecap="round" stroke-miterlimit="10" stroke-width="60"/>
  <path id="pl8-3" d="M5696,3697.23c28-316,18-849,20.13-1098.62.05-6,.29-12.75-3.21-17.66-11.92-16.72-54.81-14.74-66.75-38.51-3.3-6.56-3.22-14.24-3-21.58a1099.17,1099.17,0,0,1,11.71-130.62c1.49-9.93,4.43-21.53,13.81-25.11,5.06-1.94,10.72-.89,16,.18,30.65,6.16,61.37,12,91.81,19.17,20.24,4.77,60,6.92,74.76,23.52,7.24,8.11,6.84,20.27,6,31.11q-4.91,65.17-9.79,130.37c-.83,11-3.21,24.3-13.53,28.29-5.38,2.08-11.41.86-17-.39l-34.68-7.68c-8.47-1.87-18.81-3.17-24.44,3.41-3.57,4.17-4.23,10.13-4,15.6C5764,2847.23,5750,3405.23,5809,3693.23" fill="none" stroke="#8fd894" stroke-linecap="round" stroke-miterlimit="10" stroke-width="20"/>
</svg>
