<svg id="Short" xmlns="http://www.w3.org/2000/svg" viewBox="0 0 5461.07 2079.27">
  <title>path</title>
  <path id="pl8-5" d="M7664.15,3731.14c22.19,13.07,51.31,9.83,73.69-2.9s39-33.59,52.64-55.45c79.7-127.85,69.44-289.33,71.91-440,.37-22.56,3.9-49.68,24.36-59.2,12-5.6,26.06-2.91,39.07-.37,140.26,27.4,330,16.4,469.2-16" transform="translate(-2943.95 -2354.05)" fill="none" stroke="#8fd894" stroke-linecap="round" stroke-miterlimit="10" stroke-width="20"/>
  <path id="pl8-4" d="M7264,3960.23c-30.43,6.56-76.2,14.95-94.53,40.11-17.69,24.28-16.24,57.23-12.22,87,10.15,75.11,30.56,157.12-7.75,222.51-20.81,35.51-56.82,60.34-95.61,74.09s-80.44,17.34-121.59,18c-90.95,1.42-182.89-10-268.31-41.28-64-23.42-125.33-83.11-157-157.42-49-115-6-240,52.45-369.53,12.95-28.69,30.75-59.95,17.84-88.66-16.86-37.46-66.86-43.87-107.88-41.56a762.16,762.16,0,0,0-213.62,43.33c-55.3,19.8-108.72,46.13-166.38,57.32a332,332,0,0,1-223.19-35.84c-53.26-29.81-101.12-82.73-97.25-143.64" transform="translate(-2943.95 -2354.05)" fill="none" stroke="#8fd894" stroke-linecap="round" stroke-miterlimit="10" stroke-width="20"/>
  <path id="pl8-1" d="M3956.66,3589.78l-51.64-1.55c-164,4-341.12,40.33-459.15,153.41-40.67,39-76.51,86.61-85.68,142.17-12,72.72,23.3,144.59,63.42,206.42s87.2,122.08,103.25,194c6.57,29.45,6.8,62.9-11.57,86.84-20.05,26.15-56.52,33.51-89.43,32.05-54.15-2.42-105.72-23.3-154.37-47.19a1194.77,1194.77,0,0,1-204.95-127.89c-49.6-38.43-100.59-92-91.54-154.08,5.79-39.76,35.45-71.66,66.52-97.14,48.34-39.65,103.37-70.55,151.33-110.65s87.54-92.92,98.77-154.41c30.4-166.55-113.14-137.7-173.6-153.55" transform="translate(-2943.95 -2354.05)" fill="none" stroke="#8fd894" stroke-linecap="round" stroke-miterlimit="10" stroke-width="60"/>
  <path id="pl8-2" d="M5691.13,3644.9c19.7,76.82-20,160.74-83.6,208.13s-146.43,62.65-225.66,59.07-156.5-24.38-233.64-42.84c-51-12.2-107.42-22.79-153.56,2.08-60.11,32.4-77,110.14-80.44,178.34s-2.16,142.82-44.87,196.11c-41.49,51.76-120.24,67.63-180.33,39.52s-98-95.66-94.82-161.92c2.74-57.18,32.33-109.78,40.75-166.4,16.74-112.65-51.05-232-152-284.68-170.9-89.08-308.9-83.08-429.9-82.08" transform="translate(-2943.95 -2354.05)" fill="none" stroke="#8fd894" stroke-linecap="round" stroke-miterlimit="10" stroke-width="60"/>
  <path id="pl8-3" d="M5696,3697.23c28-316,18-849,20.13-1098.62.05-6,.29-12.75-3.21-17.66-11.92-16.72-54.81-14.74-66.75-38.51-3.3-6.56-3.22-14.24-3-21.58a1099.17,1099.17,0,0,1,11.71-130.62c1.49-9.93,4.43-21.53,13.81-25.11,5.06-1.94,10.72-.89,16,.18,30.65,6.16,61.37,12,91.81,19.17,20.24,4.77,60,6.92,74.76,23.52,7.24,8.11,6.84,20.27,6,31.11q-4.91,65.17-9.79,130.37c-.83,11-3.21,24.3-13.53,28.29-5.38,2.08-11.41.86-17-.39l-34.68-7.68c-8.47-1.87-18.81-3.17-24.44,3.41-3.57,4.17-4.23,10.13-4,15.6C5764,2847.23,5750,3405.23,5809,3693.23" transform="translate(-2943.95 -2354.05)" fill="none" stroke="#8fd894" stroke-linecap="round" stroke-miterlimit="10" stroke-width="20"/>
</svg>
