<svg version="1.1" id="service-b" xmlns="http://www.w3.org/2000/svg" xmlns:xlink="http://www.w3.org/1999/xlink" x="0px" y="0px"
	 viewBox="0 0 160 160" enable-background="new 0 0 160 160" xml:space="preserve">
<defs>
	<clipPath id="clip-star1">
		<path d="M32.96,76.99c-0.22-0.68-0.82-1.12-1.53-1.12c0,0,0,0,0,0l-5.76,0.01c0,0,0,0,0,0
			c-0.28,0-0.5-0.16-0.58-0.43l-1.77-5.48c-0.22-0.68-0.82-1.11-1.54-1.11c-0.72,0-1.32,0.44-1.54,1.11l-1.77,5.48
			c-0.09,0.26-0.31,0.43-0.59,0.43c0,0,0,0,0,0l-5.76-0.01c0,0,0,0,0,0c-0.71,0-1.31,0.44-1.53,1.12c-0.22,0.68,0.01,1.39,0.59,1.81
			l4.67,3.38c0.22,0.16,0.31,0.43,0.22,0.69l-1.79,5.47c-0.22,0.68,0.01,1.39,0.59,1.81c0.58,0.42,1.32,0.42,1.9,0l4.65-3.39
			c0.22-0.16,0.5-0.16,0.73,0l4.65,3.39c0.29,0.21,0.62,0.32,0.95,0.32s0.66-0.11,0.95-0.32c0.58-0.42,0.81-1.13,0.59-1.8l-1.79-5.47
			c-0.09-0.26,0-0.53,0.22-0.69l4.67-3.38C32.95,78.38,33.18,77.67,32.96,76.99z"/>
	</clipPath>
	<clipPath id="clip-star2">
		<path d="M58.76,76.99c-0.22-0.68-0.83-1.11-1.54-1.12l-5.76,0.01c-0.32,0.03-0.5-0.16-0.59-0.43l-1.77-5.48
			c-0.22-0.68-0.82-1.11-1.54-1.11h0c-0.72,0-1.32,0.44-1.54,1.11l-1.77,5.48c-0.09,0.26-0.3,0.4-0.59,0.43l-5.76-0.01c0,0,0,0,0,0
			c-0.71,0-1.31,0.44-1.53,1.12c-0.22,0.68,0.01,1.39,0.59,1.81l4.67,3.38c0.22,0.16,0.31,0.43,0.22,0.69l-1.79,5.47
			c-0.22,0.68,0.01,1.39,0.59,1.81s1.32,0.42,1.9,0l4.65-3.39c0.22-0.16,0.5-0.16,0.73,0l4.65,3.39c0.29,0.21,0.62,0.32,0.95,0.32
			c0.33,0,0.66-0.11,0.95-0.32c0.58-0.42,0.81-1.13,0.59-1.8l-1.79-5.47c-0.09-0.26,0-0.53,0.22-0.69l4.67-3.38
			C58.75,78.38,58.98,77.67,58.76,76.99z"/>
	</clipPath>
	<clipPath id="clip-star3">
		<path d="M84.55,76.99c-0.22-0.68-0.82-1.12-1.53-1.12c0,0,0,0,0,0l-5.76,0.01c0,0,0,0,0,0
			c-0.27,0-0.5-0.16-0.58-0.43l-1.77-5.48c-0.22-0.68-0.82-1.11-1.54-1.11h0c-0.72,0-1.32,0.44-1.54,1.11l-1.77,5.48
			c-0.09,0.26-0.34,0.4-0.59,0.43l-5.76-0.01c0,0,0,0,0,0c-0.71,0-1.31,0.44-1.53,1.12c-0.22,0.68,0.01,1.39,0.59,1.81l4.67,3.38
			c0.22,0.16,0.31,0.43,0.22,0.69l-1.79,5.47c-0.22,0.68,0.01,1.39,0.59,1.81s1.32,0.42,1.9,0l4.65-3.39c0.22-0.16,0.5-0.16,0.73,0
			l4.65,3.39c0.29,0.21,0.62,0.32,0.95,0.32c0.33,0,0.66-0.11,0.95-0.32c0.58-0.42,0.81-1.13,0.59-1.8l-1.79-5.47
			c-0.09-0.26,0-0.53,0.22-0.69l4.67-3.38C84.54,78.38,84.77,77.67,84.55,76.99z"/>
	</clipPath>
	<clipPath id="clip-star4">
		<path d="M110.34,76.99c-0.22-0.68-0.81-1.11-1.54-1.12l-5.76,0.01c0,0,0,0,0,0c-0.28,0-0.5-0.16-0.58-0.43
			l-1.77-5.48c-0.22-0.68-0.82-1.11-1.54-1.11c-0.72,0-1.32,0.44-1.54,1.11l-1.77,5.48c-0.09,0.26-0.31,0.43-0.59,0.43c0,0,0,0,0,0
			l-5.76-0.01c0,0,0,0,0,0c-0.71,0-1.31,0.44-1.53,1.12c-0.22,0.68,0.01,1.39,0.59,1.81l4.67,3.38c0.22,0.16,0.31,0.43,0.22,0.69
			l-1.79,5.47c-0.22,0.68,0.01,1.39,0.59,1.81c0.58,0.42,1.32,0.42,1.9,0l4.65-3.39c0.22-0.16,0.5-0.16,0.73,0l4.65,3.39
			c0.29,0.21,0.62,0.32,0.95,0.32s0.66-0.11,0.95-0.32c0.58-0.42,0.81-1.13,0.59-1.8l-1.79-5.47c-0.09-0.26,0-0.53,0.22-0.69
			l4.67-3.38C110.33,78.38,110.56,77.67,110.34,76.99z"/>
	</clipPath>
	<clipPath id="clip-star5">
		<path d="M139.38,77.02c-0.35-1.08-1.35-1.81-2.49-1.81c0,0,0,0-0.01,0l-5.48,0.01l-1.68-5.21
			c-0.35-1.08-1.35-1.81-2.49-1.81h0c-1.14,0-2.14,0.73-2.49,1.81l-1.68,5.21l-5.48-0.01c0,0,0,0-0.01,0c-1.14,0-2.13,0.73-2.49,1.81
			c-0.35,1.08,0.03,2.26,0.95,2.93l4.44,3.21l-1.7,5.21c-0.35,1.08,0.03,2.26,0.95,2.93c0.46,0.33,1,0.5,1.54,0.5
			c0.54,0,1.08-0.17,1.54-0.5l4.43-3.23l4.43,3.23c0.92,0.67,2.16,0.67,3.08,0c0.92-0.67,1.3-1.84,0.95-2.92l-1.7-5.21l4.44-3.21
			C139.34,79.28,139.73,78.1,139.38,77.02z"/>
	</clipPath>
	<!-- developed by Nazariy Kereya -->
</defs>
<circle id="bg-circleB" fill="#F4D873" cx="70.66" cy="80" r="43.47"/>
<path id="draw-circleB" style="mix-blend-mode: multiply;opacity:0;" fill-rule="evenodd" clip-rule="evenodd" fill="none" stroke="#F4D873" stroke-width="3" stroke-linecap="round" stroke-miterlimit="10" d="
	M102.73,80c0,13.53,10.97,24.5,24.5,24.5c13.53,0,24.5-10.97,24.5-24.5c0-13.53-10.97-24.5-24.5-24.5
	C113.7,55.5,102.73,66.47,102.73,80" stroke-dashoffset="154" stroke-dasharray="154"/>
<g id="last-star" opacity="0">
	<path id="outline-star" fill="none" stroke="#333886" stroke-width="3" stroke-linecap="round" stroke-linejoin="round" stroke-miterlimit="10" d="
			M128.29,70.47l1.77,5.48c0.15,0.47,0.57,0.77,1.06,0.77l5.76-0.01c1.08,0,1.53,1.38,0.66,2.02l-4.67,3.38
			c-0.4,0.29-0.56,0.78-0.41,1.25l1.79,5.47c0.34,1.03-0.85,1.88-1.72,1.25l-4.65-3.39c-0.4-0.29-0.92-0.29-1.31,0l-4.65,3.39
			c-0.87,0.64-2.05-0.22-1.72-1.25l1.79-5.47c0.15-0.47-0.01-0.96-0.41-1.25l-4.67-3.38c-0.88-0.63-0.42-2.02,0.66-2.02l5.76,0.01
			c0.49,0,0.91-0.3,1.06-0.77l1.77-5.48C126.5,69.45,127.96,69.45,128.29,70.47z"/>
</g>
<g id="star-poins">
	<g clip-path="url(#clip-star1)">
		<circle id="star-poin1" opacity="0" fill="#333886" cx="21.77" cy="80.57" r="14"/>
	</g>
	<g clip-path="url(#clip-star2)">
		<circle id="star-poin2" opacity="0" fill="#333886" cx="47.57" cy="80.57" r="14"/>
	</g>
	<g clip-path="url(#clip-star3)">
		<circle id="star-poin3" opacity="0" fill="#333886" cx="73.36" cy="80.57" r="14"/>
	</g>
	<g clip-path="url(#clip-star4)">
		<circle id="star-poin4" opacity="0" fill="#333886" cx="99.15" cy="80.57" r="14"/>
	</g>
	<g clip-path="url(#clip-star5)">
		<circle id="star-poin5" opacity="0" fill="#333886" cx="127.23" cy="80.57" r="14"/>
	</g>
</g>
<style>
	#service-b #bg-circleB {
		-webkit-transform-origin: 70.66px 80px;
		    -ms-transform-origin: 70.66px 80px;
		        transform-origin: 70.66px 80px;
		-webkit-transform: scale(0, 0);
		    -ms-transform: scale(0, 0);
		        transform: scale(0, 0);
		-webkit-animation: growBg 1s ease-in-out 0s forwards;
		        animation: growBg 1s ease-in-out 0s forwards;
	}

	#service-b #star-poin1 {
		-webkit-transform-origin: 21.77px 80.57px;
		    -ms-transform-origin: 21.77px 80.57px;
		        transform-origin: 21.77px 80.57px;
		-webkit-transform: scale(0.35, 0.35);
		    -ms-transform: scale(0.35, 0.35);
		        transform: scale(0.35, 0.35);
		-webkit-animation: fadeIn 0.1s ease-in-out 0.8s forwards, growBg 0.7s ease-in-out 1s forwards;
		        animation: fadeIn 0.1s ease-in-out 0.8s forwards, growBg 0.7s ease-in-out 1s forwards;
	}
	#service-b #star-poin2 {
		-webkit-transform-origin: 47.57px 80.57px;
		    -ms-transform-origin: 47.57px 80.57px;
		        transform-origin: 47.57px 80.57px;
		-webkit-transform: scale(0.35, 0.35);
		    -ms-transform: scale(0.35, 0.35);
		        transform: scale(0.35, 0.35);
		-webkit-animation: fadeIn 0.1s ease-in-out 0.9s forwards, growBg 0.7s ease-in-out 1.15s forwards;
		        animation: fadeIn 0.1s ease-in-out 0.9s forwards, growBg 0.7s ease-in-out 1.15s forwards;
	}
	#service-b #star-poin3 {
		-webkit-transform-origin: 73.36px 80.57px;
		    -ms-transform-origin: 73.36px 80.57px;
		        transform-origin: 73.36px 80.57px;
		-webkit-transform: scale(0.35, 0.35);
		    -ms-transform: scale(0.35, 0.35);
		        transform: scale(0.35, 0.35);
		-webkit-animation: fadeIn 0.1s ease-in-out 1s forwards, growBg 0.7s ease-in-out 1.3s forwards;
		        animation: fadeIn 0.1s ease-in-out 1s forwards, growBg 0.7s ease-in-out 1.3s forwards;
	}
	#service-b #star-poin4 {
		-webkit-transform-origin: 99.15px 80.57px;
		    -ms-transform-origin: 99.15px 80.57px;
		        transform-origin: 99.15px 80.57px;
		-webkit-transform: scale(0.35, 0.35);
		    -ms-transform: scale(0.35, 0.35);
		        transform: scale(0.35, 0.35);
		-webkit-animation: fadeIn 0.1s ease-in-out 1.1s forwards, growBg 0.7s ease-in-out 1.45s forwards;
		        animation: fadeIn 0.1s ease-in-out 1.1s forwards, growBg 0.7s ease-in-out 1.45s forwards;
	}
	#service-b #star-poin5 {
		-webkit-transform-origin: 127.23px 80.57px;
		    -ms-transform-origin: 127.23px 80.57px;
		        transform-origin: 127.23px 80.57px;
		-webkit-transform: scale(0.35, 0.35);
		    -ms-transform: scale(0.35, 0.35);
		        transform: scale(0.35, 0.35);
		-webkit-animation: fadeIn 0.1s ease-in-out 1.2s forwards, growBg 0.7s ease-in-out 1.6s forwards, fadeOut 0.05s ease-in-out 2.9s forwards;
		        animation: fadeIn 0.1s ease-in-out 1.2s forwards, growBg 0.7s ease-in-out 1.6s forwards, fadeOut 0.05s ease-in-out 2.9s forwards;
	}

	#service-b #draw-circleB {
		-webkit-animation: fadeIn 0.01s ease-in-out 2s forwards, drawIn 0.9s ease-in 2s forwards;
		        animation: fadeIn 0.01s ease-in-out 2s forwards, drawIn 0.9s ease-in 2s forwards;
	}

	#service-b #last-star {
		-webkit-animation: fadeIn 0.01s ease-in-out 2.29s forwards;
		        animation: fadeIn 0.01s ease-in-out 2.29s forwards;
	}

	@-webkit-keyframes growBg {
		to {
			-webkit-transform: scale(1, 1);
			        transform: scale(1, 1);
		}
	}

	@keyframes growBg {
		to {
			-webkit-transform: scale(1, 1);
			        transform: scale(1, 1);
		}
	}

	@-webkit-keyframes drawIn {
		to {
			stroke-dashoffset: 0px;
		}
	}

	@keyframes drawIn {
		to {
			stroke-dashoffset: 0px;
		}
	}

	@-webkit-keyframes fadeIn {
		from {
			opacity: 0;
		}
		to {
			opacity: 1;
		}
	}

	@keyframes fadeIn {
		from {
			opacity: 0;
		}
		to {
			opacity: 1;
		}
	}

	@-webkit-keyframes fadeOut {
		from {
			opacity: 1;
		}
		to {
			opacity: 0;
		}
	}

	@keyframes fadeOut {
		from {
			opacity: 1;
		}
		to {
			opacity: 0;
		}
	}
</style>
</svg>