<svg version="1.1" id="service-c" xmlns="http://www.w3.org/2000/svg" xmlns:xlink="http://www.w3.org/1999/xlink" x="0px" y="0px"
	 viewBox="0 0 160 160" enable-background="new 0 0 160 160" xml:space="preserve">
<defs>
	<clipPath id="clip-Cloud1">
		<path d="M47.44,77.73c0-6.09-7.1-11.05-15.83-11.05c-8.88,0-15.83,4.85-15.83,11.05c0,6.2,6.95,11.05,15.83,11.05
				c1.07,0,2.17-0.08,3.31-0.25l3.04,3.61c0.29,0.34,0.68,0.52,1.09,0.52c0.19,0,0.39-0.04,0.58-0.12c0.6-0.26,0.94-0.84,0.87-1.49
				l-0.44-3.96C44.69,85.06,47.44,81.58,47.44,77.73z"/>
	</clipPath>
	<clipPath id="clip-Cloud2">
		<path d="M74.96,66.67c-8.73,0-15.82,4.96-15.82,11.05c0,3.86,2.75,7.34,7.37,9.36l-0.44,3.96
			c-0.07,0.65,0.27,1.23,0.87,1.49c0.19,0.08,0.39,0.12,0.58,0.12c0.41,0,0.81-0.18,1.09-0.52l3.04-3.61
			c1.11,0.16,2.22,0.25,3.32,0.25c8.87,0,15.83-4.85,15.83-11.05C90.78,71.53,83.83,66.67,74.96,66.67z"/>
	</clipPath>
	<clipPath id="clip-Cloud3">
		<path d="M142.87,77.9c0-6.21-6.76-11.07-15.4-11.07c-8.64,0-15.4,4.86-15.4,11.07s6.77,11.07,15.4,11.07
			c0.84,0,1.7-0.05,2.58-0.16l2.39,2.83c0.46,0.55,1.12,0.84,1.8,0.84c0.31,0,0.63-0.06,0.93-0.19c0.96-0.41,1.53-1.39,1.42-2.43
			l-0.32-2.84C140.43,84.98,142.87,81.63,142.87,77.9z"/>
	</clipPath>
	<!-- developed by Nazariy Kereya -->
</defs>
<circle id="bg-circleC" fill="#99C24D" cx="71.41" cy="80" r="43.49"/>
<path id="draw-circleC" style="mix-blend-mode: multiply;opacity:0;" fill-rule="evenodd" clip-rule="evenodd" fill="none" stroke="#99C24D" stroke-width="3" stroke-linecap="round" stroke-miterlimit="10" d="
	M102.97,80c0,13.53,10.97,24.5,24.5,24.5c13.53,0,24.5-10.97,24.5-24.5c0-13.53-10.97-24.5-24.5-24.5
	C113.94,55.5,102.97,66.47,102.97,80" stroke-dashoffset="154" stroke-dasharray="154"/>
<path opacity="0" id="last-cloud" fill="none" stroke="#333886" stroke-width="3" stroke-linecap="round" stroke-linejoin="round" stroke-miterlimit="10" d="
		M113.57,77.9c0,5.38,6.28,9.57,13.9,9.57c1.08,0,2.15-0.09,3.19-0.26c0,0,0.17-0.03,0,0l2.92,3.46c0.55,0.65,1.6,0.2,1.51-0.65
		l-0.44-3.93c-0.21,0.09,0,0,0,0c4.1-1.69,6.72-4.75,6.72-8.2c0-5.38-6.28-9.57-13.9-9.57C119.85,68.33,113.57,72.53,113.57,77.9z"
		/>
<g id="cloud-points">
	<g clip-path="url(#clip-Cloud1)">
		<circle id="cloud-point1" opacity="0" fill="#333886" cx="31.61" cy="77.24" r="17.56"/>
	</g>
	<g clip-path="url(#clip-Cloud2)">
		<circle id="cloud-point2" opacity="0" fill="#333886" cx="74.96" cy="77.24" r="17.56"/>
	</g>
	<g clip-path="url(#clip-Cloud3)">
		<circle id="cloud-point3" opacity="0" fill="#333886" cx="127.47" cy="77.24" r="17.56"/>
	</g>
</g>
<style>
	#service-c #bg-circleC {
		-webkit-transform-origin: 71.41px 80px;
		    -ms-transform-origin: 71.41px 80px;
		        transform-origin: 71.41px 80px;
		-webkit-transform: scale(0, 0);
		    -ms-transform: scale(0, 0);
		        transform: scale(0, 0);
		-webkit-animation: growBg 1s ease-in-out 0s forwards;
		        animation: growBg 1s ease-in-out 0s forwards;
	}

	#service-c #cloud-points #cloud-point1 {
		-webkit-transform-origin: 31.61px 77.24px;
		    -ms-transform-origin: 31.61px 77.24px;
		        transform-origin: 31.61px 77.24px;
		-webkit-transform: scale(0.3, 0.3);
		    -ms-transform: scale(0.3, 0.3);
		        transform: scale(0.3, 0.3);
		-webkit-animation: fadeIn 0.1s ease-in-out 0.8s forwards, growCloudPoint 0.7s ease-in-out 0.9s forwards;
		        animation: fadeIn 0.1s ease-in-out 0.8s forwards, growCloudPoint 0.7s ease-in-out 0.9s forwards;
	}
	#service-c #cloud-points #cloud-point2 {
		-webkit-transform-origin: 74.96px 77.24px;
		    -ms-transform-origin: 74.96px 77.24px;
		        transform-origin: 74.96px 77.24px;
		-webkit-transform: scale(0.3, 0.3);
		    -ms-transform: scale(0.3, 0.3);
		        transform: scale(0.3, 0.3);
		-webkit-animation: fadeIn 0.1s ease-in-out 0.9s forwards, growCloudPoint 0.7s ease-in-out 1.1s forwards;
		        animation: fadeIn 0.1s ease-in-out 0.9s forwards, growCloudPoint 0.7s ease-in-out 1.1s forwards;
	}
	#service-c #cloud-points #cloud-point3 {
		-webkit-transform-origin: 127.47px 77.24px;
		    -ms-transform-origin: 127.47px 77.24px;
		        transform-origin: 127.47px 77.24px;
		-webkit-transform: scale(0.3, 0.3);
		    -ms-transform: scale(0.3, 0.3);
		        transform: scale(0.3, 0.3);
		-webkit-animation: fadeIn 0.1s ease-in-out 1s forwards, growCloudPoint 0.7s ease-in-out 1.3s forwards, fadeOut 0.05s ease-in-out 2.6s forwards;
		        animation: fadeIn 0.1s ease-in-out 1s forwards, growCloudPoint 0.7s ease-in-out 1.3s forwards, fadeOut 0.05s ease-in-out 2.6s forwards;
	}

	#service-c #draw-circleC {
		-webkit-animation: fadeIn 0.01s ease-in-out 1.7s forwards, drawIn 0.9s ease-in 1.7s forwards;
		        animation: fadeIn 0.01s ease-in-out 1.7s forwards, drawIn 0.9s ease-in 1.7s forwards;
	}

	#service-c #last-cloud {
		-webkit-animation: fadeIn 0.01s ease-in-out 1.94s forwards;
		        animation: fadeIn 0.01s ease-in-out 1.94s forwards;
	}

	@-webkit-keyframes growBg {
		to {
			-webkit-transform: scale(1, 1);
			        transform: scale(1, 1);
		}
	}

	@keyframes growBg {
		to {
			-webkit-transform: scale(1, 1);
			        transform: scale(1, 1);
		}
	}

	@-webkit-keyframes growCloudPoint {
		to {
			-webkit-transform: scale(1.2, 1);
			        transform: scale(1.2, 1);
		}
	}

	@keyframes growCloudPoint {
		to {
			-webkit-transform: scale(1.2, 1);
			        transform: scale(1.2, 1);
		}
	}

	@-webkit-keyframes drawIn {
		to {
			stroke-dashoffset: 0px;
		}
	}

	@keyframes drawIn {
		to {
			stroke-dashoffset: 0px;
		}
	}

	@-webkit-keyframes fadeIn {
		from {
			opacity: 0;
		}
		to {
			opacity: 1;
		}
	}

	@keyframes fadeIn {
		from {
			opacity: 0;
		}
		to {
			opacity: 1;
		}
	}

	@-webkit-keyframes fadeOut {
		from {
			opacity: 1;
		}
		to {
			opacity: 0;
		}
	}

	@keyframes fadeOut {
		from {
			opacity: 1;
		}
		to {
			opacity: 0;
		}
	}
</style>
</svg>