<svg version="1.1" id="service-a" xmlns="http://www.w3.org/2000/svg" xmlns:xlink="http://www.w3.org/1999/xlink" x="0px" y="0px"
	 viewBox="0 0 160 160" enable-background="new 0 0 160 160" xml:space="preserve">
<defs>
	<!--developed by Nazariy Kereya -->
</defs>
<circle id="bg-blue-circle" fill-rule="evenodd" clip-rule="evenodd" fill="#79BFBC" cx="78.06" cy="91.63" r="43.5"/>
<path id="draw-circle" style="mix-blend-mode: multiply;opacity:0;" fill-rule="evenodd" clip-rule="evenodd" fill="none" stroke="#79BFBC" stroke-width="3" stroke-linecap="round" stroke-miterlimit="10" d="
	M111.37,62.73c13.53,0,24.5-10.97,24.5-24.5c0-13.53-10.97-24.5-24.5-24.5c-13.53,0-24.5,10.97-24.5,24.5
	C86.87,51.76,97.84,62.73,111.37,62.73" stroke-dashoffset="155" stroke-dasharray="155"/>
<g id="bars">
	<path fill="none" stroke="#333886" stroke-width="8" stroke-linecap="round" stroke-miterlimit="10" d="M36.41,121.44v-14.4" stroke-dashoffset="14.4" stroke-dasharray="14.5"></path>
	<path fill="none" stroke="#333886" stroke-width="8" stroke-linecap="round" stroke-miterlimit="10" d="M55.15,121.44V92.58" stroke-dashoffset="28.77" stroke-dasharray="28.87"></path>
	<path fill="none" stroke="#333886" stroke-width="8" stroke-linecap="round" stroke-miterlimit="10" d="M73.89,121.45v-43.3" stroke-dashoffset="43.3" stroke-dasharray="43.4"></path>
	<path fill="none" stroke="#333886" stroke-width="8" stroke-linecap="round" stroke-miterlimit="10" d="M92.63,121.45V63.77" stroke-dashoffset="57.59" stroke-dasharray="57.69"></path>
	<path fill="none" stroke="#333886" stroke-width="8" stroke-linecap="round" stroke-miterlimit="10" d="M111.37,121.45V31.23" stroke-dashoffset="90.13" stroke-dasharray="90.23"></path>
</g>
<g id="arrow">
	<g id="show-arrow" opacity="0">
		<path fill="#333886" d="M113.87,61.2v60.24c0,1.38-1.12,2.5-2.5,2.5s-2.5-1.12-2.5-2.5V61.2H113.87z"/>
		<path fill="none" stroke="#333886" stroke-width="3" stroke-linejoin="round" stroke-miterlimit="10" d="M123.79,40.12
			l-10.63-10.63c-0.45-0.47-1.09-0.76-1.79-0.76c-0.7,0-1.33,0.29-1.78,0.75L98.94,40.12c-0.98,0.98-0.98,2.56,0,3.54
			s2.56,0.98,3.54,0l6.39-6.39v84.23c0,1.38,1.12,2.5,2.5,2.5c1.38,0,2.5-1.12,2.5-2.5V37.27l6.39,6.39c0.98,0.98,2.56,0.98,3.54,0
			S124.77,41.1,123.79,40.12z"/>
	</g>
	<g id="draw-arrow">
		<path id="rightPartArr" opacity="0" fill="#333886" d="M124.86,44.72L124.86,44.72c-1.56,1.56-4.09,1.56-5.66,0l-10.66-10.66
			c-1.56-1.56-1.56-4.09,0-5.66l0,0c1.56-1.56,4.09-1.56,5.66,0l10.66,10.66C126.42,40.62,126.42,43.16,124.86,44.72z"/>
		<path id="leftPartArr" opacity="0" fill="#333886" d="M97.88,44.72L97.88,44.72c1.56,1.56,4.09,1.56,5.66,0l10.66-10.66
			c1.56-1.56,1.56-4.09,0-5.66l0,0c-1.56-1.56-4.09-1.56-5.66,0L97.88,39.06C96.32,40.62,96.32,43.16,97.88,44.72z"/>
	</g>
</g>
<style>
	#service-a #bg-blue-circle {
		-webkit-transform-origin: 78.06px 91.63px;
		    -ms-transform-origin: 78.06px 91.63px;
		        transform-origin: 78.06px 91.63px;
		-webkit-transform: scale(0, 0);
		    -ms-transform: scale(0, 0);
		        transform: scale(0, 0);
		-webkit-animation: growBg 1s ease-in-out 0s forwards;
		        animation: growBg 1s ease-in-out 0s forwards;
	}

	#service-a #bars path:nth-child(1) {
		opacity: 0;
		-webkit-animation: fadeIn 0.1s ease-in-out 0.8s forwards, drawIn 0.75s ease-in-out 1s forwards;
		        animation: fadeIn 0.1s ease-in-out 0.8s forwards, drawIn 0.75s ease-in-out 1s forwards;
	}
	#service-a #bars path:nth-child(2) {
		opacity: 0;
		-webkit-animation: fadeIn 0.1s ease-in-out 0.9s forwards, drawIn 0.75s ease-in-out 1.1s forwards;
		        animation: fadeIn 0.1s ease-in-out 0.9s forwards, drawIn 0.75s ease-in-out 1.1s forwards;
	}
	#service-a #bars path:nth-child(3) {
		opacity: 0;
		-webkit-animation: fadeIn 0.1s ease-in-out 1s forwards, drawIn 0.75s ease-in-out 1.2s forwards;
		        animation: fadeIn 0.1s ease-in-out 1s forwards, drawIn 0.75s ease-in-out 1.2s forwards;
	}
	#service-a #bars path:nth-child(4) {
		opacity: 0;
		-webkit-animation: fadeIn 0.1s ease-in-out 1.1s forwards, drawIn 0.75s ease-in-out 1.3s forwards;
		        animation: fadeIn 0.1s ease-in-out 1.1s forwards, drawIn 0.75s ease-in-out 1.3s forwards;
	}
	#service-a #bars path:nth-child(5) {
		opacity: 0;
		-webkit-animation: fadeIn 0.1s ease-in-out 1.2s forwards, drawIn 0.75s ease-in-out 1.4s forwards, fadeOut 0.05s ease-in-out 3s forwards;
		        animation: fadeIn 0.1s ease-in-out 1.2s forwards, drawIn 0.75s ease-in-out 1.4s forwards, fadeOut 0.05s ease-in-out 3s forwards;
	}

	#service-a #arrow #draw-arrow #rightPartArr {
		-webkit-transform-origin: 111.37px 31.23px;
		    -ms-transform-origin: 111.37px 31.23px;
		        transform-origin: 111.37px 31.23px;
		-webkit-transform: rotate(45deg);
		    -ms-transform: rotate(45deg);
		        transform: rotate(45deg);
		-webkit-animation: fadeIn 0.01s ease-in-out 2.15s forwards, rotateArrowPart 0.75s ease-in-out 2.15s forwards, fadeOut 0.05s ease-in-out 3s forwards;
		        animation: fadeIn 0.01s ease-in-out 2.15s forwards, rotateArrowPart 0.75s ease-in-out 2.15s forwards, fadeOut 0.05s ease-in-out 3s forwards;
	}
	#service-a #arrow #draw-arrow #leftPartArr {
		-webkit-transform-origin: 111.37px 31.23px;
		    -ms-transform-origin: 111.37px 31.23px;
		        transform-origin: 111.37px 31.23px;
		-webkit-transform: rotate(-45deg);
		    -ms-transform: rotate(-45deg);
		        transform: rotate(-45deg);
		-webkit-animation: fadeIn 0.01s ease-in-out 2.15s forwards, rotateArrowPart 0.75s ease-in-out 2.15s forwards, fadeOut 0.05s ease-in-out 3s forwards;
		        animation: fadeIn 0.01s ease-in-out 2.15s forwards, rotateArrowPart 0.75s ease-in-out 2.15s forwards, fadeOut 0.05s ease-in-out 3s forwards;
	}

	#service-a #arrow #show-arrow {
		-webkit-animation: fadeIn 0.01s ease-in-out 2.96s forwards;
		        animation: fadeIn 0.01s ease-in-out 2.96s forwards;
	}

	#service-a #draw-circle {
		-webkit-animation: fadeIn 0.01s ease-in-out 2.1s forwards, drawIn 0.9s ease-in 2.1s forwards;
		        animation: fadeIn 0.01s ease-in-out 2.1s forwards, drawIn 0.9s ease-in 2.1s forwards;
	}

	@-webkit-keyframes growBg {
		to {
			-webkit-transform: scale(1, 1);
			        transform: scale(1, 1);
		}
	}

	@keyframes growBg {
		to {
			-webkit-transform: scale(1, 1);
			        transform: scale(1, 1);
		}
	}

	@-webkit-keyframes drawIn {
		to {
			stroke-dashoffset: 0px;
		}
	}

	@keyframes drawIn {
		to {
			stroke-dashoffset: 0px;
		}
	}

	@-webkit-keyframes fadeIn {
		from {
			opacity: 0;
		}
		to {
			opacity: 1;
		}
	}

	@keyframes fadeIn {
		from {
			opacity: 0;
		}
		to {
			opacity: 1;
		}
	}

	@-webkit-keyframes fadeOut {
		from {
			opacity: 1;
		}
		to {
			opacity: 0;
		}
	}

	@keyframes fadeOut {
		from {
			opacity: 1;
		}
		to {
			opacity: 0;
		}
	}

	@-webkit-keyframes rotateArrowPart {
		to {
			-webkit-transform: rotate(0deg);
			        transform: rotate(0deg);
		}
	}

	@keyframes rotateArrowPart {
		to {
			-webkit-transform: rotate(0deg);
			        transform: rotate(0deg);
		}
	}
</style>
</svg>