<svg id="city-homes-loader" xmlns="http://www.w3.org/2000/svg" viewBox="0 0 1000 1286.67">
  <defs>
    <clipPath id="clip-c">
      <polygon points="618.77 147.19 525.86 181.01 447.04 221.08 540.89 543.14 611.4 592.83 594 814.83 44.45 717.47 122.39 42.09 641.75 42.09 618.77 147.19"/>
    </clipPath>
    <clipPath id="clip-h">
      <path d="M985,433,877.61,637.66,795.08,579.5l-168-16.94L544.55,504.4,445,408.87l99.54-196.69,82.52-30,168-31.83,82.53-30ZM599.74,333.24l-27.68,10.07,5.8,11.8,23.32,3.38,38.54-20.28Zm255,31.33-40.56,17.18L789.8,397.52l28.88,7.8L852,393.17Z"/>
    </clipPath>
  </defs>
  <g id="under-text" opacity="0">
    <polygon points="362.9 1180.62 362.9 1182.51 348.66 1182.51 348.66 1194.59 361.35 1194.59 361.35 1196.48 348.66 1196.48 348.66 1209.57 362.9 1209.57 362.9 1211.46 346.68 1211.46 346.68 1180.62 362.9 1180.62"/>
    <path d="M403.63,1189h-2.29c-1.46-4.27-5.29-7.09-10.93-7.09a12.15,12.15,0,0,0-9.34,4,15.64,15.64,0,0,0,0,20.23,12.1,12.1,0,0,0,9.34,4c5.64,0,9.47-2.82,10.93-7.09h2.29c-1.81,5.68-6.57,9-13.22,9a14.24,14.24,0,0,1-10.84-4.54,17.57,17.57,0,0,1,0-22.87,14.27,14.27,0,0,1,10.84-4.58c6.65,0,11.41,3.26,13.22,8.94"/>
    <polygon points="438.24 1180.62 427.31 1194.06 441.85 1211.46 439.25 1211.46 426.08 1195.6 420.04 1202.92 420.04 1211.46 418.06 1211.46 418.06 1180.62 420.04 1180.62 420.04 1199.88 435.68 1180.62 438.24 1180.62"/>
    <rect x="455.4" y="1180.62" width="1.98" height="30.84"/>
    <polygon points="496.65 1180.62 496.65 1211.46 494.8 1211.46 476.82 1185.9 475.63 1184.14 475.63 1211.46 473.65 1211.46 473.65 1180.62 475.5 1180.62 493.35 1205.95 494.67 1207.85 494.67 1180.62 496.65 1180.62"/>
    <path d="M539.46,1189h-2.3c-1.45-4.27-5.28-7.09-10.92-7.09a12.15,12.15,0,0,0-9.34,4,15.64,15.64,0,0,0,0,20.23,12.1,12.1,0,0,0,9.34,4c7.18,0,11.76-3.87,11.76-11.8H526.9v-1.9H540v1.46c0,4.36-1.19,7.84-3.61,10.35s-5.77,3.75-10.18,3.75a14.24,14.24,0,0,1-10.84-4.54,17.57,17.57,0,0,1,0-22.87,14.27,14.27,0,0,1,10.84-4.58c6.65,0,11.41,3.26,13.22,8.94"/>
    <polygon points="576.76 1180.62 576.76 1182.51 564.95 1182.51 564.95 1211.46 562.97 1211.46 562.97 1182.51 551.16 1182.51 551.16 1180.62 576.76 1180.62"/>
    <path d="M611.85,1184.63a15.79,15.79,0,0,1,4.36,11.37,16,16,0,0,1-4.36,11.46,15.8,15.8,0,0,1-22.25,0,16,16,0,0,1-4.37-11.46,15.8,15.8,0,0,1,4.37-11.41,15.85,15.85,0,0,1,22.25,0m-20.8,1.32a15.33,15.33,0,0,0,0,20.18,12.79,12.79,0,0,0,9.69,4,12.59,12.59,0,0,0,9.61-4,15.18,15.18,0,0,0,0-20.18,12.59,12.59,0,0,0-9.61-4,12.79,12.79,0,0,0-9.69,4"/>
    <polygon points="653.73 1180.62 653.73 1211.46 651.88 1211.46 633.9 1185.9 632.71 1184.14 632.71 1211.46 630.73 1211.46 630.73 1180.62 632.58 1180.62 650.42 1205.95 651.75 1207.85 651.75 1180.62 653.73 1180.62"/>
  </g>
  <path id="under-line" d="M314,1107.36H695.45" fill="none" stroke="#000" stroke-miterlimit="10" stroke-width="4.14" stroke-dasharray="381.46" stroke-dashoffset="381.46"></path>
  <g id="city-homes-text">
    <g opacity="0">
      <path d="M403.94,807.73h-12c-5.2-14.94-18-24.2-37.51-24.2-13,0-23.71,4.71-32.15,14-8.28,9.26-12.51,20.78-12.51,34.91s4.23,25.82,12.51,35.07c8.44,9.26,19.16,13.81,32.15,13.81,19.65,0,32.47-9.58,37.67-24.52h12c-6.66,22.08-24.2,34.58-49.69,34.58-16.24,0-29.55-5.52-40.11-16.72s-15.75-25.33-15.75-42.22,5.2-30.85,15.75-42,23.87-16.89,40.11-16.89c25.17,0,43,12.82,49.52,34.26"/>
      <rect x="438.7" y="775.58" width="10.72" height="113.67"/>
      <polygon points="575.26 775.58 575.26 785.64 533.21 785.64 533.21 889.24 522.49 889.24 522.49 785.64 480.44 785.64 480.44 775.58 575.26 775.58"/>
      <polygon points="698.68 775.58 652.73 845.73 652.73 889.24 641.85 889.24 641.85 845.73 595.89 775.58 608.56 775.58 642.66 827.54 647.21 835.17 651.75 827.54 686.01 775.58 698.68 775.58"/>
    </g>
    <g opacity="0">
      <polygon points="290.19 918.86 290.19 1032.53 279.48 1032.53 279.48 978.94 213.23 978.94 213.23 1032.53 202.51 1032.53 202.51 918.86 213.23 918.86 213.23 968.71 279.48 968.71 279.48 918.86 290.19 918.86"/>
      <path d="M425.46,1017.75c-10.88,11.2-24.52,16.89-41.24,16.89s-30.53-5.69-41.41-16.89-16.24-25.33-16.24-42.22c0-16.72,5.36-30.69,16.24-41.89s24.68-16.89,41.41-16.89,30.36,5.68,41.24,16.89,16.24,25.17,16.24,41.89c0,16.89-5.36,31-16.24,42.22m-74.69-77c-8.61,9.26-13,20.79-13,34.75,0,14.13,4.38,25.82,13,35.08,8.77,9.25,20,14,33.45,14s24.52-4.71,33.12-14q13.16-13.89,13.15-35.08c0-14-4.38-25.49-13.15-34.75-8.6-9.25-19.65-14-33.12-14s-24.68,4.71-33.45,14"/>
      <polygon points="592.4 918.86 592.4 1032.53 581.68 1032.53 581.68 941.11 578.59 948.9 539.3 1032.53 531.18 1032.53 491.72 948.9 488.8 941.11 488.8 1032.53 478.08 1032.53 478.08 918.86 489.12 918.86 531.67 1007.68 535.08 1015.48 538.65 1007.68 581.19 918.86 592.4 918.86"/>
      <polygon points="685.08 918.86 685.08 928.93 645.83 928.93 645.83 968.87 690.48 968.87 690.48 978.94 645.83 978.94 645.83 1022.46 703.55 1022.46 703.55 1032.53 635.11 1032.53 635.11 918.86 685.08 918.86"/>
      <path d="M793.59,947.93H782.71c-.16-13.64-8.28-21.44-21.11-21.44-12.5,0-20,7.63-20,20.14,0,5.85,1.63,10.23,5,13.15s9.74,6.33,18.83,10.07c11.7,4.55,20,9.09,24.68,13.8,4.88,4.55,7.31,10.88,7.31,18.84,0,9.9-3.08,17.86-9.42,23.54-6.17,5.69-14.29,8.61-24.52,8.61-22.57,0-36.21-13.64-36.37-34.91h10.88c.16,16.07,9.58,25.17,25.66,25.17,14.77,0,22.89-8.94,22.89-21.93,0-10.55-7-16.23-26-23.22q-15.82-6.33-22.89-13.15c-4.71-4.54-7-11-7-19.48,0-8.61,2.76-15.92,8.12-21.6q8-8.78,22.9-8.77c19.32,0,31.66,11.2,31.82,31.18"/>
    </g>
  </g>
  <g clip-path="url(#clip-h)">
    <g id="h-lines">
      <g>
        <path d="M585.81,414.26l37,26.37L872.61,349a.47.47,0,0,0,.11-.83L836.51,323l-250.7,91.27" fill="none" stroke="#000" stroke-miterlimit="10" stroke-width="7.5" stroke-dasharray="623.44" stroke-dashoffset="623.44"></path>
        <path d="M548.2,348.09l37.61,27.13L835.13,283.7a.77.77,0,0,0,.17-1.35l-36.46-25.5-175.6,64.24V179.33" fill="none" stroke="#000" stroke-miterlimit="10" stroke-width="7.5" stroke-dasharray="686.87" stroke-dashoffset="686.87"></path>
      </g>
      <g>
        <path d="M798.87,257V145.36" fill="none" stroke="#000" stroke-miterlimit="10" stroke-width="7.5" stroke-dasharray="111.64" stroke-dashoffset="111.64"></path>
        <path d="M836.51,323V129.64" fill="none" stroke="#000" stroke-miterlimit="10" stroke-width="7.5" stroke-dasharray="193.37" stroke-dashoffset="193.37"></path>
        <path d="M548.2,348.09V203.59" fill="none" stroke="#000" stroke-miterlimit="10" stroke-width="7.5" stroke-dasharray="144.5" stroke-dashoffset="144.5"></path>
        <path d="M585.81,342V189.9" fill="none" stroke="#000" stroke-miterlimit="10" stroke-width="7.5" stroke-dasharray="152.11" stroke-dashoffset="152.11"></path>
        <path d="M873.46,348.68V114.35" fill="none" stroke="#000" stroke-miterlimit="10" stroke-width="7.5" stroke-dasharray="234.33" stroke-dashoffset="234.33"></path>
      </g>
      <g>
        <path d="M873.46,348.68V640.15" fill="none" stroke="#000" stroke-miterlimit="10" stroke-width="7.5" stroke-dasharray="291.48" stroke-dashoffset="291.48"></path>
        <path d="M548.2,348.09V516.35" fill="none" stroke="#000" stroke-miterlimit="10" stroke-width="7.5" stroke-dasharray="168.26" stroke-dashoffset="168.26"></path>
        <path d="M585.81,375.22v165.3" fill="none" stroke="#000" stroke-miterlimit="10" stroke-width="7.5" stroke-dasharray="165.31" stroke-dashoffset="165.31"></path>
        <path d="M622.82,440.63V565.36" fill="none" stroke="#000" stroke-miterlimit="10" stroke-width="7.5" stroke-dasharray="124.73" stroke-dashoffset="124.73"></path>
        <path d="M836.51,392.46v223.1" fill="none" stroke="#000" stroke-miterlimit="10" stroke-width="7.5" stroke-dasharray="223.11" stroke-dashoffset="223.11"></path>
        <path d="M622.82,481.19l176.79-64.9V588.65" fill="none" stroke="#000" stroke-miterlimit="10" stroke-width="7.5" stroke-dasharray="360.69" stroke-dashoffset="360.69"></path>
      </g>
    </g>
  </g>
  <g clip-path="url(#clip-c)">
    <g id="c-lines">
      <path d="M579.6,565.63A254.51,254.51,0,0,1,419,622.41C277.8,622.41,163.37,508,163.37,366.82S277.8,111.22,419,111.22a254.5,254.5,0,0,1,159,55.46" fill="none" stroke="#000" stroke-miterlimit="10" stroke-width="7.5" stroke-dasharray="1148.49" stroke-dashoffset="1148.49"></path>
      <path d="M548.05,542.49A217,217,0,0,1,419,584.81c-120.39,0-218-97.6-218-218s97.6-218,218-218A217,217,0,0,1,535.72,182.7" fill="none" stroke="#000" stroke-miterlimit="10" stroke-width="7.5" stroke-dasharray="946.29" stroke-dashoffset="946.29"></path>
      <path d="M611.5,587.72A291.92,291.92,0,0,1,419,659.85c-161.83,0-293-131.2-293-293s131.2-293,293-293a292,292,0,0,1,199.81,78.69" fill="none" stroke="#000" stroke-miterlimit="10" stroke-width="7.5" stroke-dasharray="1350.59" stroke-dashoffset="1350.59"></path>
    </g>
  </g>
  <style>
    #city-homes-loader #h-lines > g:nth-child(1) > path {
      -webkit-animation: drawIn 1s ease-in-out 0.5s forwards;
              animation: drawIn 1s ease-in-out 0.5s forwards;
    }
    #city-homes-loader #h-lines > g:nth-child(2) > path,
    #city-homes-loader #h-lines > g:nth-child(3) > path {
      -webkit-animation: drawIn 0.6s ease-in 1s forwards;
              animation: drawIn 0.6s ease-in 1s forwards;
    }

    #city-homes-loader #c-lines > path {
      -webkit-animation: drawIn 1s ease-out 1.6s forwards;
              animation: drawIn 1s ease-out 1.6s forwards;
    }

    #city-homes-loader #city-homes-text > g:nth-child(1) {
      -webkit-transform: translate(-30px, 0px);
          -ms-transform: translate(-30px, 0px);
              transform: translate(-30px, 0px);
      -webkit-animation: showText 1.3s ease-in-out 1.6s forwards;
              animation: showText 1.3s ease-in-out 1.6s forwards;
    }


    #city-homes-loader #city-homes-text > g:nth-child(2) {
      -webkit-transform: translate(30px, 0px);
          -ms-transform: translate(30px, 0px);
              transform: translate(30px, 0px);
      -webkit-animation: showText 1.3s ease-in-out 2.1s forwards;
              animation: showText 1.3s ease-in-out 2.1s forwards;
    }

    #city-homes-loader #under-line {
      -webkit-animation: drawIn 1.3s ease-in-out 2.1s forwards;
              animation: drawIn 1.3s ease-in-out 2.1s forwards;
    }

    #city-homes-loader #under-text {
      opacity: 0;
      -webkit-transform: translate(30px, 0px);
          -ms-transform: translate(30px, 0px);
              transform: translate(30px, 0px);
      -webkit-animation: showText 1.3s ease-in-out 2.3s forwards;
              animation: showText 1.3s ease-in-out 2.3s forwards;
    }

    @-webkit-keyframes drawIn {
      to {
        stroke-dashoffset: 0px;
      }
    }

    @keyframes drawIn {
      to {
        stroke-dashoffset: 0px;
      }
    }

    @-webkit-keyframes showText {
      to {
        opacity: 1;
        -webkit-transform: translate(0px, 0px) scale(1, 1);
                transform: translate(0px, 0px) scale(1, 1);
      }
    }

    @keyframes showText {
      to {
        opacity: 1;
        -webkit-transform: translate(0px, 0px) scale(1, 1);
                transform: translate(0px, 0px) scale(1, 1);
      }
    }
  </style>
</svg>
