<svg xmlns="http://www.w3.org/2000/svg" viewBox="0 0 231 156">
	<defs>
		<clipPath id="arrow-clip">
			<polygon points="28.78 95.78 62.6 55.91 71.86 63.66 113.44 27 109.28 23.03 124.59 20.38 121 34.93 116.46 30.21 73 67.63 63.17 62.34 32.37 99.19 28.78 95.78" />
		</clipPath>
	</defs>
	<ellipse cx="169.1" cy="142.82" rx="61.9" ry="13.18" opacity="0.1"/>
	<g>
		<polygon points="11.39 116.57 0 14.15 140.84 0.92 150.48 108.45 11.39 116.57" fill="#ffe05a"/>
		<path d="M5.86,66.83l5.53,49.74,139.09-8.12L145.36,51.3C102.12,79.47,55.71,85.28,5.86,66.83Z" fill="#f8d53f"/>
		<g clip-path="url(#arrow-clip)">
			<path id="arrow-line" d="M28.78,99.12,63,58.75,73.19,66l54-48.13" fill="none" stroke="#39383a" stroke-width="16" stroke-dasharray="137.77" stroke-dashoffset="137.77"></path>
		</g>
	</g>
	<g>
		<path d="M185.22,145.39c23.37,0,42.31-26.63,42.31-59.47s-18.94-59.47-42.31-59.47H155.7c-23.37,0-42.31,26.62-42.31,59.47s18.94,59.47,42.31,59.47Z" fill="#39383a"/>
		<path d="M212.17,40.07c-7.31-8.51-16.7-13.62-26.95-13.62H155.7c-12.57,0-23.86,7.71-31.61,20,8.78,6,26.22,12.89,58.23,8C199.62,51.76,208.28,46.23,212.17,40.07Z" fill="#424345"/>
		<ellipse cx="189.37" cy="87.71" rx="38.16" ry="55.26" fill="#353436"/>
		<ellipse cx="189.88" cy="87.71" rx="33.73" ry="49.5" fill="#262626"/>
		<g>
			<path d="M209.64,57.8a37.71,37.71,0,0,1,2.89,4.38l3.32-3.82a46.59,46.59,0,0,0-3.34-5.45Z" fill="#939061"/>
			<path d="M159.05,71.28l3.78,4.31a49.72,49.72,0,0,1,2.07-7l-3.59-4.47A60.19,60.19,0,0,0,159.05,71.28Z" fill="#939061"/>
			<path d="M194,47.39a20.71,20.71,0,0,1,4.33,1.29l5.53-4.53A25.45,25.45,0,0,0,194.29,40Z" fill="#939061"/>
			<path d="M215.05,67.4c.15.36.3.73.44,1.11,1.3-.21,2.86-.44,4.26-.65-.33-1-.67-2.07-1-3.08Z" fill="#939061"/>
			<path d="M213.38,63.76c.39.74.75,1.5,1.1,2.28l3.74-2.52c-.44-1.11-.91-2.19-1.4-3.23Z" fill="#939061"/>
			<path d="M218.89,87.71c0,1,0,2-.09,3.05l3.82-.67c0-.79,0-1.58,0-2.38,0-.17,0-.34,0-.5l-3.83-2C218.86,86.05,218.89,86.87,218.89,87.71Z" fill="#939061"/>
			<path d="M217.57,75.51l4.09.36c-.34-2-.77-3.89-1.26-5.75l-4.26.21A49.87,49.87,0,0,1,217.57,75.51Z" fill="#939061"/>
			<path d="M218.31,95.85l3.57,2.33c.31-2,.53-4.14.65-6.28l-3.87.87C218.57,93.8,218.46,94.83,218.31,95.85Z" fill="#939061"/>
			<path d="M161.53,87.71c0-.28,0-.54,0-.81-1.44-.09-3.07-.19-4.44-.25,0,.35,0,.7,0,1.06a71,71,0,0,0,.65,9.56l4.37-1.42A56.92,56.92,0,0,1,161.53,87.71Z" fill="#939061"/>
			<path d="M221.61,99.84,218,97.7c-.13.71-.26,1.42-.42,2.12l3.5,2.63C221.28,101.59,221.46,100.72,221.61,99.84Z" fill="#939061"/>
			<path d="M176.68,131.75l1.65-7q-1.11-.72-2.16-1.56l-3.34,5.65A31.83,31.83,0,0,0,176.68,131.75Z" fill="#939061"/>
			<path d="M181.81,126.61a22.55,22.55,0,0,1-2-1l-2.3,6.65a25.84,25.84,0,0,0,2.75,1.45Z" fill="#939061"/>
			<path d="M218,77.45a55.51,55.51,0,0,1,.75,5.74l3.9,1.78a71.72,71.72,0,0,0-.66-7.3Z" fill="#939061"/>
			<path d="M161.68,83.58l-4.16-3.65c-.17,1.58-.29,3.17-.36,4.79l4.41,1.06C161.59,85,161.63,84.31,161.68,83.58Z" fill="#939061"/>
			<path d="M162.54,77l-3.9-3.91c-.34,1.53-.62,3.09-.85,4.68l4,4.46C162,80.44,162.22,78.7,162.54,77Z" fill="#939061"/>
			<path d="M165.93,109.33a47.86,47.86,0,0,1-1.8-4.71l-4,3.2c.54,1.7,1.13,3.36,1.8,5Z" fill="#939061"/>
			<path d="M162.69,99.14c-.15-.74-.29-1.48-.41-2.24-1.09.59-2.85,1.54-4.24,2.32.12.72.26,1.43.4,2.13Z" fill="#939061"/>
			<path d="M163.84,103.7c-.32-1-.6-2.13-.86-3.22l-4.24,2.3c.25,1.11.52,2.21.83,3.28Z" fill="#939061"/>
		</g>
		<ellipse cx="189.88" cy="87.71" rx="26.17" ry="38.41" fill="#d1d3d4"/>
		<ellipse cx="189.08" cy="87.42" rx="20.17" ry="29.91" fill="#262626"/>
		<path d="M199.76,82l6.17-11a29.8,29.8,0,0,0-3.29-5.71L196.69,76.8a9.09,9.09,0,0,0-2.28-1.7l-.26-16.63a14.12,14.12,0,0,0-5.07-.95q-.5,0-1,0l1.7,16.88a7.33,7.33,0,0,0-2.53,1L177.8,62.62a25.86,25.86,0,0,0-4,5.22l9.86,11.63A16,16,0,0,0,182.29,83H169.13a43.36,43.36,0,0,0-.23,4.46c0,.77,0,1.52.07,2.27l12.69-.33a18.31,18.31,0,0,0,.66,3.86l-10.95,8.55a32.41,32.41,0,0,0,3.1,6.27L184.57,98a10.78,10.78,0,0,0,2.14,2.22l-4.3,15.44a14.44,14.44,0,0,0,6.44,1.67l1.59-15.57a6.15,6.15,0,0,0,.74.06,6.57,6.57,0,0,0,2-.32L196.93,115a20.49,20.49,0,0,0,4.78-4.26l-5-11.47a11.32,11.32,0,0,0,1.51-1.93l7.84,6.2a37.21,37.21,0,0,0,2.16-6.72l-8-4.17a17.94,17.94,0,0,0,.36-1.83l8.6-.39c.06-1,.1-2,.1-3s0-2.15-.12-3.2l-8.78,0A16.45,16.45,0,0,0,199.76,82Z" fill="#6c6d6f"/>
		<ellipse cx="192" cy="87.42" rx="6" ry="9.02" fill="#353436"/>
		<ellipse cx="195.17" cy="87.52" rx="4.25" ry="6" fill="#d1d3d4"/>
	</g>
	<style>
		#arrow-line {
			-webkit-animation: drawInArrow 3s ease-in-out 0s infinite;
			        animation: drawInArrow 3s ease-in-out 0s infinite;
		}

		@-webkit-keyframes drawInArrow {
			30%, 90% {
				opacity: 1;
				stroke-dashoffset: 0px;
			}
			100% {
				opacity: 0;
				stroke-dashoffset: 0px;
			}
		}

		@keyframes drawInArrow {
			30%, 90% {
				opacity: 1;
				stroke-dashoffset: 0px;
			}
			100% {
				opacity: 0;
				stroke-dashoffset: 0px;
			}
		}
	</style>
</svg>
