<svg xmlns="http://www.w3.org/2000/svg" xmlns:xlink="http://www.w3.org/1999/xlink" viewBox="0 0 470 356">
	<defs>
		<linearGradient id="linear-gradient-driver1" x1="101.75" y1="134.12" x2="122.02" y2="113.85" gradientUnits="userSpaceOnUse">
			<stop offset="0" stop-color="#fe7537"/>
			<stop offset="0.89" stop-color="#ffbd35"/>
		</linearGradient>
		<clipPath id="clip-path-driver1">
			<path d="M96,340.14c-20-66.29-22.68-119.25-5.67-157h69.87C177.53,215,170.58,257,165,345.77H138.9l6.67-5.2A264.84,264.84,0,0,1,141.88,306H113.82v39.74H86.65Z" fill="none"/>
		</clipPath>
	</defs>
	<path id="etap-line1" d="M199.19,268s94.3,34.71,130.58-16.75-52.34-118-67.18-136.51-58.34-63.87-13-99.4,107.74,11.25,209,91.8" fill="none" stroke="#7a8d8e" stroke-miterlimit="10" stroke-width="4" stroke-dasharray="16 8" opacity="0.5"/>
	<g>
		<g>
			<path d="M411.46,108.08l-17.73-86.7a4,4,0,0,0-7.92,0l-17.72,86.7Z" fill="#ff4b3a"/>
			<path d="M410.64,104.11,393.73,21.38a3.94,3.94,0,0,0-4-3.23v86Z" fill="#cb372a"/>
			<polygon points="379.91 50.25 399.63 50.25 396.27 33.81 383.27 33.81 379.91 50.25" fill="#daf3ff"/>
			<polygon points="373.26 82.76 406.28 82.76 402.98 66.6 376.57 66.6 373.26 82.76" fill="#daf3ff"/>
			<polygon points="389.77 33.81 389.77 50.25 399.63 50.25 399.18 48.05 396.27 33.81 389.77 33.81" fill="#98b7d2"/>
			<polygon points="389.77 66.6 389.77 82.76 406.28 82.76 402.98 66.6 389.77 66.6" fill="#98b7d2"/>
		</g>
		<g>
			<rect x="357.83" y="98.16" width="63.87" height="11.91" rx="5.95" fill="none" stroke="#7a8d8e" stroke-miterlimit="10" stroke-width="0.25"/>
			<rect x="357.83" y="98.16" width="63.87" height="11.91" rx="5.95" fill="#cb372a"/>
			<path d="M363.79,110.06h52a6,6,0,0,0,5.95-6H357.83A6,6,0,0,0,363.79,110.06Z" fill="#882219"/>
			<path d="M415.76,98.16h-26v11.9h26a5.95,5.95,0,0,0,0-11.9Z" fill="#882219"/>
			<path d="M389.77,104.11v6h26a6,6,0,0,0,5.95-6Z" fill="#410b06"/>
		</g>
	</g>
	<g>
		<g>
			<path d="M272.21,304.37,259.52,242.3a2.89,2.89,0,0,0-5.67,0l-12.69,62.07Z" fill="#ff4b3a"/>
			<path d="M271.63,301.53,259.52,242.3a2.84,2.84,0,0,0-2.84-2.32v61.55Z" fill="#cb372a"/>
			<polygon points="249.62 262.97 263.75 262.97 261.34 251.2 252.03 251.2 249.62 262.97" fill="#daf3ff"/>
			<polygon points="244.87 286.24 268.5 286.24 266.14 274.67 247.23 274.67 244.87 286.24" fill="#daf3ff"/>
			<polygon points="256.68 251.2 256.68 262.97 263.75 262.97 263.42 261.39 261.34 251.2 256.68 251.2" fill="#98b7d2"/>
			<polygon points="256.68 274.67 256.68 286.24 268.5 286.24 266.14 274.67 256.68 274.67" fill="#98b7d2"/>
		</g>
		<g>
			<rect x="233.82" y="297.26" width="45.73" height="8.52" rx="3.87" fill="none" stroke="#7a8d8e" stroke-miterlimit="10" stroke-width="0.25"/>
			<rect x="233.82" y="297.26" width="45.73" height="8.52" rx="3.87" fill="#cb372a"/>
			<path d="M238.08,305.79h37.21a4.26,4.26,0,0,0,4.26-4.26H233.82A4.26,4.26,0,0,0,238.08,305.79Z" fill="#882219"/>
			<path d="M275.29,297.26H256.68v8.53h18.61a4.27,4.27,0,0,0,0-8.53Z" fill="#882219"/>
			<path d="M256.68,301.53v4.26h18.61a4.26,4.26,0,0,0,4.26-4.26Z" fill="#410b06"/>
		</g>
	</g>
	<ellipse cx="113.39" cy="339.43" rx="90.71" ry="16.57" opacity="0.1"/>
	<g id="driver-p1">
		<g id="d1-head">
			<g>
				<polygon points="154.07 100.61 159.46 174.17 121.05 190.19 96.81 173.89 92.84 99.62 154.07 100.61" fill="#ffab2e"/>
				<path d="M158.11,155.77l-4-55.16-61.23-1,2.9,54.28C105.6,161.07,128.17,172.38,158.11,155.77Z" fill="#ffbd35"/>
				<polygon points="154.07 100.61 92.84 99.62 93.01 102.79 154.23 102.79 154.07 100.61" fill="#df963a"/>
				<path d="M87.17,108.83h18.92a10.31,10.31,0,0,0-8.62-4.6C91.57,104.23,87.17,108.83,87.17,108.83Z" fill="#723b07"/>
				<path d="M123.13,108.83h22.58a12.79,12.79,0,0,0-10.29-4.6A20.57,20.57,0,0,0,123.13,108.83Z" fill="#723b07"/>
				<polygon points="147.05 109.97 156.91 109.97 153.22 113.58 145.71 113.58 147.05 109.97" fill="#030100"/>
				<g>
					<path d="M123.81,141.08c-2.34,11.12-12.83,4.11-12.83,4.11-.8-.62-1.65-.34-2.55.7C101.84,151.62,98,144,98,144l10.49-6.73Z" fill="#c27f2c"/>
					<path d="M107.58,141.65c-10.06,10.27-15.23-1.28-15.31-1.78,0,0,5.53,2.84,10.85-10l15.23-.35c.64,11.55,8.22,10.34,8.22,10.34-7.15,10.42-16,1.63-16,1.63A2.05,2.05,0,0,0,107.58,141.65Z" fill="#723b07"/>
				</g>
				<g>
					<path d="M110.44,110a25.49,25.49,0,0,1,.17,2.93c0,9.18-4.9,16.63-10.94,16.63s-10.94-7.45-10.94-16.63A25.49,25.49,0,0,1,88.9,110Z" fill="#577084"/>
					<path d="M90.28,121.4c1.91,4.86,5.4,8.13,9.39,8.13,4.58,0,8.49-4.27,10.12-10.33C104.59,118.22,95.77,120,90.28,121.4Z" fill="#33414e"/>
				</g>
				<path d="M127.19,121.08S111.83,141,104.53,136.7s4.68-23.32,4.68-23.32C119.91,111.18,125,114.69,127.19,121.08Z" fill="url(#linear-gradient-driver1)"/>
				<polygon points="108.86 109.97 121.83 109.97 121.05 113.58 108.86 113.02 108.86 109.97" fill="#030100"/>
				<g>
					<path d="M120.64,110a18.77,18.77,0,0,0-.26,3.12c0,9.08,6.35,16.44,14.18,16.44s14.17-7.36,14.17-16.44a19.91,19.91,0,0,0-.25-3.12Z" fill="#577084"/>
					<path d="M147.57,119.61l-26.34-1c2,6.34,7.19,10.88,13.33,10.88C140.39,129.53,145.39,125.44,147.57,119.61Z" fill="#33414e"/>
				</g>
				<g>
					<ellipse cx="158.66" cy="116.63" rx="4.94" ry="5.53" fill="#ffbd35"/>
					<path d="M157.92,117.8a.55.55,0,0,1,.09-.16,2,2,0,0,1,.42-.46,1.78,1.78,0,0,0,.17-2.4,1.07,1.07,0,0,1-.61-1,1.09,1.09,0,0,1,1.09-1.09,2.17,2.17,0,0,1,.88.38c2.23,1.57,2.59,3.68,1.37,6.25h0a1.86,1.86,0,0,1-1.74,1.19,1.89,1.89,0,0,1-1.89-1.88A1.92,1.92,0,0,1,157.92,117.8Z" fill="#ff9239"/>
				</g>
			</g>
			<g>
				<path d="M92.27,101.89H156.2S164,61.07,92.27,66.17Z" fill="#444244"/>
				<path d="M106.59,101.89H156.2A27.46,27.46,0,0,0,151,82c-20,11.39-44.41,11.29-44.41,11.29Z" fill="#3e3b3d"/>
				<rect x="101.2" y="80.49" width="34.3" height="16.16" fill="#fff700"/>
				<path d="M106.59,96.65H135.5v-8.1a107.5,107.5,0,0,1-28.91,4.69Z" fill="#e2d600"/>
				<path d="M144.43,101.89H92.27S67.47,73.4,80.65,74.11,119.63,82.19,144.43,101.89Z" fill="#747679"/>
				<path d="M118.15,85.27c-15.3-7.48-29-10.7-37.5-11.16-8.79-.47-.68,12,5.7,20.44C95.55,93.79,111.06,91.59,118.15,85.27Z" fill="#888c8f"/>
			</g>
		</g>
		<g id="d1-right-hand">
			<path d="M91.66,216.36c-19.74,5.81-40.6,4.45-51.12-12.85L49.24,186c15.06,5,29,3.72,41.85-3.12C108.48,182.62,109.14,209.75,91.66,216.36Z" fill="#008c4a"/>
			<path d="M86.71,188.41a11,11,0,0,0-.5-3.19A50.59,50.59,0,0,1,52.59,187a10.39,10.39,0,0,0-.09,1.37c0,7.47,7.66,13.51,17.11,13.51S86.71,195.88,86.71,188.41Z" fill="#00a855"/>
			<path d="M56.52,216.85a41.39,41.39,0,0,0,13,2.56l5.58-31a49.2,49.2,0,0,1-10.81.59Z" fill="#dedede"/>
			<path d="M64.31,189l-3.13,11.18a20.56,20.56,0,0,0,8.43,1.76,21.31,21.31,0,0,0,3.12-.23l2.39-13.29A48.59,48.59,0,0,1,64.31,189Z" fill="#feffff"/>
			<g>
				<polygon points="0 149.94 39.91 150.86 46.28 217.4 7.31 220.38 0 149.94" fill="#444244"/>
				<polygon points="3.29 152.35 10.05 215.44 44.16 212.55 38.38 152.84 3.29 152.35" fill="#e7c9ad"/>
				<path d="M42.07,191l-3.69-38.16-35.09-.49,4.55,42.44C20.69,197.9,32.11,196.82,42.07,191Z" fill="#ffedce"/>
				<polygon points="16.13 175.24 25.63 186.68 35.33 165.07 24.35 176.51 16.13 175.24" fill="#007338"/>
				<g>
					<polygon points="11.49 146.75 14.96 155.53 29.7 156.03 30.76 146.75 11.49 146.75" fill="#cdcdce"/>
					<polygon points="13.12 150.87 30.05 152.99 30.76 146.75 11.49 146.75 13.12 150.87" fill="#eeeff1"/>
				</g>
			</g>
			<path d="M37.71,178s10.42,5.39,11.62,10-.43,9.36-5.32,11.2l-.3-8.79S32,179.56,37.71,178Z" fill="#ffbd35"/>
		</g>
		<g>
			<polygon points="90.29 173.18 113.96 173.18 122.32 179.13 126.29 173.18 160.16 173.18 160.16 187.64 90.29 187.64 90.29 173.18" fill="#00a855"/>
			<path d="M96,340.14c-20-66.29-22.68-119.25-5.67-157h69.87C177.53,215,170.58,257,165,345.77H138.9l6.67-5.2A264.84,264.84,0,0,1,141.88,306H113.82v39.74H86.65Z" fill="#008c4a"/>
			<path d="M138.9,345.77H165q.53-8.24,1-15.95l-22,1.14c.44,3.24.93,6.45,1.48,9.61Z" fill="#352c2f"/>
			<path d="M96,340.14l-9.31,5.63h27.17V332.11H93.61C94.37,334.77,95.14,337.44,96,340.14Z" fill="#352c2f"/>
			<path d="M100.92,312.46c0-9.45-5.69-17.11-12.71-17.11a9.64,9.64,0,0,0-3.37.63q3.07,15.64,7.75,32.51C97.45,326.09,100.92,319.83,100.92,312.46Z" fill="#00a855"/>
			<path d="M155.44,311c0-9.27-5.88-16.79-13.13-16.79a10.65,10.65,0,0,0-2.26.25l.79,11.56h1c.31,7.48.92,14.69,1.78,21.69C150.28,326.85,155.44,319.7,155.44,311Z" fill="#00a855"/>
			<path d="M169.88,274.67H81.33c.54,4.12,1.16,8.3,1.89,12.56h85.84Q169.51,280.72,169.88,274.67Z" fill="#dedede"/>
			<ellipse cx="118.74" cy="244.63" rx="32.27" ry="47.99" fill="#00a855"/>
			<path d="M93.59,274.67a39.42,39.42,0,0,0,10.31,12.56h29.69a39.42,39.42,0,0,0,10.31-12.56Z" fill="#feffff"/>
			<path d="M121.14,291.1V197.18a22,22,0,0,0-4.87-.54l-.8,0V291.1Z" fill="#008e40"/>
			<path d="M121.14,197.18v-11.1h-5.67v10.59l.8,0A22,22,0,0,1,121.14,197.18Z" fill="#008047"/>
			<g>
				<rect x="115.47" y="186.08" width="5.67" height="103.15" fill="#008e40"/>
				<path d="M121.14,196.78v-10.7h-5.67v10.8a22.28,22.28,0,0,1,3.27-.24A23.79,23.79,0,0,1,121.14,196.78Z" fill="#008047"/>
			</g>
			<g>
				<rect x="113.11" y="287.75" width="10.35" height="6.24" fill="#00a963"/>
				<path d="M113.11,287.84v4a22.13,22.13,0,0,0,5.63.74,22.52,22.52,0,0,0,4.72-.51v-4.26Z" fill="#00c774"/>
			</g>
			<g>
				<polygon points="113.11 191.16 119.65 194.53 119.65 196.97 113.11 198.93 113.11 191.16" fill="#00a963"/>
				<polygon points="112.52 205.88 119.07 209.26 119.07 211.69 112.52 213.65 112.52 205.88" fill="#00c774"/>
				<polygon points="112.2 221.9 118.74 225.28 118.74 227.71 112.2 229.68 112.2 221.9" fill="#00c774"/>
				<polygon points="112.54 237.01 119.08 240.38 119.08 242.82 112.54 244.78 112.54 237.01" fill="#00c774"/>
				<polygon points="112.2 252.77 118.74 256.15 118.74 258.58 112.2 260.54 112.2 252.77" fill="#00c774"/>
				<polygon points="112.2 268.43 118.74 271.8 118.74 274.24 112.2 276.2 112.2 268.43" fill="#00c774"/>
				<polygon points="124.41 198.68 117.87 202.06 117.87 204.49 124.41 206.45 124.41 198.68" fill="#00c774"/>
				<polygon points="123.85 214.38 117.3 217.76 117.3 220.19 123.85 222.15 123.85 214.38" fill="#00c774"/>
				<polygon points="123.85 230.11 117.3 233.49 117.3 235.92 123.85 237.88 123.85 230.11" fill="#00c774"/>
				<polygon points="123.31 245.7 116.77 249.08 116.77 251.51 123.31 253.47 123.31 245.7" fill="#00c774"/>
				<polygon points="122.75 261.43 116.2 264.81 116.2 267.24 122.75 269.2 122.75 261.43" fill="#00c774"/>
				<polygon points="122.02 277.31 115.47 280.69 115.47 283.12 122.02 285.08 122.02 277.31" fill="#00c774"/>
			</g>
		</g>
		<g clip-path="url(#clip-path-driver1)">
			<path id="d1-lh-shadow" d="M153.08,239s-1.33,21,29.1,18V228.65Z" fill="#006038"/>
		</g>
		<polygon points="133.31 204.86 140.46 213.93 148.05 204.86 133.31 204.86" fill="#fff700"/>
		<g id="d1-left-hand">
			<g>
				<path d="M160.16,183.1s33.93,7.09,36.48,31.66S168.76,248.2,159.31,243s-2.36-15,0-17.1S175.66,216.46,160.16,183.1Z" fill="#008c4a"/>
				<path d="M183.79,206.72c-5.38-11.95-14.39-13.12-19.28-12.76,7.05,21.39-.81,28.5-4.16,31.12C167.73,232.86,191,222.79,183.79,206.72Z" fill="#00a855"/>
				<path d="M167.07,213.28c-.08.58-.18,1.14-.3,1.66,9.74.32,17.52,5.63,21.87,20.73A23.88,23.88,0,0,0,196.75,219C186.15,204.22,172.56,210,167.07,213.28Z" fill="#feffff"/>
				<path d="M179.42,190.86l-4.33,6.32,12.11-.5A45.72,45.72,0,0,0,179.42,190.86Z" fill="#fff700"/>
			</g>
			<g>
				<path d="M140.48,250.05s-.85,2.61-.46,2.71,1.95-2.29,1.95-2.29Z" fill="#007338"/>
				<path d="M156.29,213.34c-10.8,12.95-15.83,25.51-16.25,37.45l1.64.71c8.35-8.82,14.24-21.07,18.86-36Z" fill="#444244"/>
				<path d="M154.49,215.57l5.26,2.44c.27-.82.53-1.65.79-2.49l-4.25-2.18C155.67,214.08,155.07,214.82,154.49,215.57Z" fill="#007338"/>
			</g>
			<path d="M146,237.61l-.15.06c-2.52,1.43-3,2-2.65,4s4.92,1.53,4.92,1.53h0a1.71,1.71,0,0,0,.42,2.9c3,1.22,8.58,1.13,12.58-6.82a.37.37,0,0,0,0-.11c3-8.54-1.44-12.6-3.43-13.95a.71.71,0,0,0-1.08.48C155.34,232.15,151.66,236,146,237.61Z" fill="#ffbd35"/>
			<path d="M141.54,228.93l-.72,1.11a2.21,2.21,0,0,0,.22,2.68l2.33,2.57a2.21,2.21,0,0,0,3.12.15h0a2.2,2.2,0,0,0,.53-2.51l-1.62-3.68A2.2,2.2,0,0,0,141.54,228.93Z" fill="#ffbd35"/>
		</g>
	</g>
	<style>
		#etap-line1 {
			-webkit-animation: moveLine 0.75s linear 0s infinite;
			        animation: moveLine 0.75s linear 0s infinite;
		}

		#driver-p1 #d1-left-hand,
		#driver-p1 #d1-lh-shadow {
			-webkit-transform-origin: 160.16px 183.1px;
			    -ms-transform-origin: 160.16px 183.1px;
			        transform-origin: 160.16px 183.1px;
			-webkit-transform: rotate(7deg);
			    -ms-transform: rotate(7deg);
			        transform: rotate(7deg);
			-webkit-animation: d1MoveHand 3s ease-in-out 0s infinite alternate;
			        animation: d1MoveHand 3s ease-in-out 0s infinite alternate;
		}

		#driver-p1 #d1-right-hand {
			-webkit-transform-origin: 96.63px 196.49px;
			    -ms-transform-origin: 96.63px 196.49px;
			        transform-origin: 96.63px 196.49px;
			-webkit-transform: rotate(15deg);
			    -ms-transform: rotate(15deg);
			        transform: rotate(15deg);
			-webkit-animation: d1MoveHand 3s ease-in-out -2.6s infinite alternate;
			        animation: d1MoveHand 3s ease-in-out -2.6s infinite alternate;
		}

		#driver-p1 #d1-head {
			-webkit-transform-origin: 121.05px 190.19px;
			    -ms-transform-origin: 121.05px 190.19px;
			        transform-origin: 121.05px 190.19px;
			-webkit-transform: rotate(-3deg);
			    -ms-transform: rotate(-3deg);
			        transform: rotate(-3deg);
			-webkit-animation: d1MoveHand 3s ease-in-out -2.6s infinite alternate;
			        animation: d1MoveHand 3s ease-in-out -2.6s infinite alternate;
		}

		@-webkit-keyframes moveLine {
			to {
				stroke-dashoffset: -24px;
			}
		}

		@keyframes moveLine {
			to {
				stroke-dashoffset: -24px;
			}
		}

		@-webkit-keyframes d1MoveHand {
			75%, 100% {
				-webkit-transform: rotate(0deg);
				        transform: rotate(0deg);
			}
		}

		@keyframes d1MoveHand {
			75%, 100% {
				-webkit-transform: rotate(0deg);
				        transform: rotate(0deg);
			}
		}
	</style>
</svg>
