<svg xmlns="http://www.w3.org/2000/svg" xmlns:xlink="http://www.w3.org/1999/xlink" viewBox="0 0 488 250">
  <defs>
    <clipPath id="clip-path-stopwatch">
      <path id="clip" d="M102.42,84.15a62.93,62.93,0,0,0-22,4l7.47,20a41.66,41.66,0,0,1,53.66,24.62l20-7.38A63,63,0,0,0,102.42,84.15Z" fill="none"/>
    </clipPath>
  </defs>
  <ellipse cx="105.51" cy="231.06" rx="89.76" ry="18.94" fill="#e9e8e8"/>
  <g id="geer-icon2" opacity="0.3">
    <path d="M365.92,151.82h0l-4.64-.78a2.3,2.3,0,0,1-1.79-1.57,25,25,0,0,0-1.68-4.06A2.27,2.27,0,0,1,358,143l2.74-3.83a2.05,2.05,0,0,0-.22-2.66l-4.22-4.21a2,2,0,0,0-1.46-.62,2,2,0,0,0-1.19.38l-3.85,2.74a2.26,2.26,0,0,1-2.37.17,25,25,0,0,0-4.22-1.74,2.25,2.25,0,0,1-1.58-1.8l-.77-4.58a2.07,2.07,0,0,0-2.05-1.73h-5.95a2.07,2.07,0,0,0-2.05,1.73l-.8,4.7a2.27,2.27,0,0,1-1.56,1.79,24.54,24.54,0,0,0-4,1.7,2.26,2.26,0,0,1-2.4-.16l-3.8-2.73a2.07,2.07,0,0,0-2.65.22h0l-4.23,4.21a2.08,2.08,0,0,0-.22,2.67l2.76,3.89a2.25,2.25,0,0,1,.17,2.37,24.48,24.48,0,0,0-1.65,4.06,2.28,2.28,0,0,1-1.8,1.58L306,152a2.07,2.07,0,0,0-1.73,2V160A2.07,2.07,0,0,0,306,162l4.71.8a2.27,2.27,0,0,1,1.78,1.56,24.59,24.59,0,0,0,1.71,4,2.26,2.26,0,0,1-.16,2.4l-2.72,3.78a2.05,2.05,0,0,0,.22,2.66l4.22,4.22a2,2,0,0,0,1.46.61,2,2,0,0,0,1.19-.38l3.89-2.77a2.3,2.3,0,0,1,2.37-.17,24.16,24.16,0,0,0,3.93,1.62,2.27,2.27,0,0,1,1.56,1.8l.78,4.64a2.06,2.06,0,0,0,2,1.73h6a2.07,2.07,0,0,0,2.05-1.73l.79-4.65a2.25,2.25,0,0,1,1.57-1.79,25.33,25.33,0,0,0,4.06-1.68,2.27,2.27,0,0,1,2.38.16l3.82,2.74a2.07,2.07,0,0,0,1.21.38,2,2,0,0,0,1.46-.61l4.21-4.21a2.07,2.07,0,0,0,.23-2.67l-2.74-3.84a2.27,2.27,0,0,1-.16-2.38,24.66,24.66,0,0,0,1.68-4,2.29,2.29,0,0,1,1.8-1.58l4.64-.77a2.07,2.07,0,0,0,1.73-2.05v-6A2,2,0,0,0,365.92,151.82Zm-30,16.67a11.65,11.65,0,1,1,11.65-11.65A11.66,11.66,0,0,1,335.92,168.49Z" fill="#989898"/>
    <path d="M335.92,188.54h3a2.07,2.07,0,0,0,2.05-1.73l.79-4.65a2.25,2.25,0,0,1,1.57-1.79,25.33,25.33,0,0,0,4.06-1.68,2.27,2.27,0,0,1,2.38.16l3.82,2.74a2.07,2.07,0,0,0,1.21.38,2,2,0,0,0,1.46-.61l4.21-4.21a2.07,2.07,0,0,0,.23-2.67l-2.74-3.84a2.27,2.27,0,0,1-.16-2.38,24.66,24.66,0,0,0,1.68-4,2.29,2.29,0,0,1,1.8-1.58l4.64-.77a2.07,2.07,0,0,0,1.73-2.05v-6a2,2,0,0,0-1.7-2h0l-4.64-.78a2.3,2.3,0,0,1-1.79-1.57,25,25,0,0,0-1.68-4.06A2.27,2.27,0,0,1,358,143l2.74-3.83a2.05,2.05,0,0,0-.22-2.66l-4.22-4.21a2,2,0,0,0-1.46-.62,2,2,0,0,0-1.19.38l-3.85,2.74a2.26,2.26,0,0,1-2.37.17,25,25,0,0,0-4.22-1.74,2.25,2.25,0,0,1-1.58-1.8l-.77-4.58a2.07,2.07,0,0,0-2.05-1.73h-2.85v15.14a16.56,16.56,0,1,1,0,33.11Z" fill="#868686"/>
  </g>
  <g id="dog-icon" opacity="0.5">
    <path d="M477.61,242.85a23.24,23.24,0,0,1-10.47,2.06c-9.5,0-17.88-6.82-17.88-18,0-11.67,8.52-21.82,21.42-21.82,10.1,0,17.32,7,17.32,16.57,0,8.36-4.69,13.64-10.87,13.64a4.5,4.5,0,0,1-4.91-4.43h-.15a8.43,8.43,0,0,1-7.39,4.43c-3.71,0-6.43-2.78-6.43-7.49a13.06,13.06,0,0,1,13.42-13.3,16.45,16.45,0,0,1,6.81,1.38l-1.71,10.62c-.55,3.36-.16,4.93,1.46,5,2.46.08,5.52-3.05,5.52-9.65,0-7.48-4.81-13.22-13.66-13.22s-16.44,6.83-16.44,17.78c0,9.59,6.11,15,14.63,15a19.33,19.33,0,0,0,8.33-1.8Zm-5.05-23.64a6.41,6.41,0,0,0-1.78-.25c-3.79,0-6.75,3.74-6.75,8.12,0,2.18,1,3.54,2.82,3.54,2.13,0,4.36-2.68,4.87-6Z" fill="#989898"/>
  </g>
  <g>
    <g>
      <rect x="59.55" y="45.41" width="19.1" height="19.1" transform="translate(-14.49 26.53) rotate(-19.71)" fill="#209b55"/>
      <path d="M78.94,41.06l-5.45-15.2A6.38,6.38,0,0,0,65.33,22l-15,5.38a6.38,6.38,0,0,0-3.85,8.16l5.44,15.2Z" fill="#209b55"/>
      <path d="M66.75,28.3a6.38,6.38,0,0,0-8.16-3.85l-8.68,3.1a6.38,6.38,0,0,0-3.46,8l5.44,15.2,20.29-7.27Z" fill="#38b86f"/>
    </g>
    <g>
      <path d="M153.15,59.2l-16.36-7.83a1.72,1.72,0,0,1-.71-2.72l3.89-4a1.86,1.86,0,0,1,2.15-.31l13.53,6.47a1.87,1.87,0,0,1,1.1,2l-1.05,5.41A1.74,1.74,0,0,1,153.15,59.2Z" fill="#38b86f"/>
      <rect x="135.49" y="53.24" width="14.5" height="12.96" transform="translate(39.76 -55.77) rotate(25.57)" fill="#209b55"/>
    </g>
    <g>
      <rect x="8.92" y="97.9" width="14.5" height="12.96" transform="translate(-84.06 71.06) rotate(-62.81)" fill="#209b55"/>
      <path d="M16,94,7.66,110.09a1.73,1.73,0,0,1-2.74.63l-3.94-4a1.87,1.87,0,0,1-.25-2.16L7.59,91.22a1.84,1.84,0,0,1,2-1L15,91.38A1.75,1.75,0,0,1,16,94Z" fill="#38b86f"/>
    </g>
    <circle cx="102.42" cy="147.14" r="91.32" fill="#209b55"/>
    <path d="M189.83,142.56a90.93,90.93,0,0,0-20-57A91.31,91.31,0,0,0,31.07,204.12a91.31,91.31,0,0,0,158.76-61.56Z" fill="#38b86f"/>
    <circle cx="102.42" cy="147.14" r="72.82" fill="#d1d3de"/>
    <path d="M106.33,78.23a72.81,72.81,0,0,0-53.4,122.31A72.81,72.81,0,0,0,155.82,97.65,72.51,72.51,0,0,0,106.33,78.23Z" fill="#fcfcfc"/>
    <circle cx="102.42" cy="147.14" r="19.72" fill="#d7d3e3"/>
    <g>
      <line x1="60.09" y1="126.78" x2="50.24" y2="122.04" fill="none" stroke="#d7d3e3" stroke-linecap="round" stroke-miterlimit="10" stroke-width="5"/>
      <line x1="58.09" y1="162.68" x2="47.77" y2="166.29" fill="none" stroke="#d7d3e3" stroke-linecap="round" stroke-miterlimit="10" stroke-width="5"/>
      <line x1="82.06" y1="189.47" x2="77.32" y2="199.33" fill="none" stroke="#d7d3e3" stroke-linecap="round" stroke-miterlimit="10" stroke-width="5"/>
      <line x1="117.96" y1="191.47" x2="121.57" y2="201.8" fill="none" stroke="#d7d3e3" stroke-linecap="round" stroke-miterlimit="10" stroke-width="5"/>
      <line x1="144.75" y1="167.5" x2="154.61" y2="172.25" fill="none" stroke="#d7d3e3" stroke-linecap="round" stroke-miterlimit="10" stroke-width="5"/>
      <line x1="146.75" y1="131.61" x2="157.08" y2="127.99" fill="none" stroke="#d7d3e3" stroke-linecap="round" stroke-miterlimit="10" stroke-width="5"/>
      <line x1="122.79" y1="104.81" x2="127.53" y2="94.95" fill="none" stroke="#d7d3e3" stroke-linecap="round" stroke-miterlimit="10" stroke-width="5"/>
      
    </g>
    <circle cx="59.93" cy="30.16" r="27.91" fill="none" stroke="#209b55" stroke-miterlimit="10" stroke-width="5"/>
    <g clip-path="url(#clip-path-stopwatch)">
      <g id="stopwatch-time">
        <polygon points="102.42 147.14 170.78 121.97 127.47 78.75 102.42 147.14" fill="#fedd39"/>
        <polygon points="79.43 85.59 102.42 147.14 135.56 75.76 79.43 85.59" fill="#fdc532"/>
      </g>
    </g>
    <g id="stopwatch-lines">
      <path d="M141.84,33.72L146.22,25.25" fill="none" stroke="#e94d3e" stroke-linecap="round" stroke-miterlimit="10" stroke-width="5" stroke-dasharray="14.7" stroke-dashoffset="29.4" />
      <path d="M153.26,39.04L159.97,26.04" fill="none" stroke="#e94d3e" stroke-linecap="round" stroke-miterlimit="10" stroke-width="5" stroke-dasharray="14.7" stroke-dashoffset="29.4" />
      <path d="M164.93,44.52L169.31,36.05" fill="none" stroke="#e94d3e" stroke-linecap="round" stroke-miterlimit="10" stroke-width="5" stroke-dasharray="14.7" stroke-dashoffset="29.4" />
    </g>
    <g id="stopwatch-arrow">
      <line x1="83.95" y1="154.05" x2="161.85" y2="125.26" fill="none" stroke="#e94d3e" stroke-linecap="round" stroke-miterlimit="10" stroke-width="8"/>
      <circle cx="102.42" cy="147.14" r="9.89" fill="#d8322a"/>
    </g>
  </g>
  <style>
    #stopwatch-lines > path {
      -webkit-animation: pulseStopwatchLine 6s ease-in-out -5s infinite;
              animation: pulseStopwatchLine 6s ease-in-out -5s infinite;
    }
    #stopwatch-arrow,
    #stopwatch-time {
      -webkit-transform-origin: 102.42px 147.14px;
          -ms-transform-origin: 102.42px 147.14px;
              transform-origin: 102.42px 147.14px;
      -webkit-transform: rotate(-90deg);
          -ms-transform: rotate(-90deg);
              transform: rotate(-90deg);
      -webkit-animation: rotateArrow 3s ease-in-out 0s infinite alternate;
              animation: rotateArrow 3s ease-in-out 0s infinite alternate;
    }
    #geer-icon2 {
      -webkit-transform-origin: 335.92px 156.84px;
          -ms-transform-origin: 335.92px 156.84px;
              transform-origin: 335.92px 156.84px;
      -webkit-transform: rotate(-360deg);
          -ms-transform: rotate(-360deg);
              transform: rotate(-360deg);
      -webkit-animation: rotateGear 10s linear 0s infinite;
              animation: rotateGear 10s linear 0s infinite;
    }

    @-webkit-keyframes rotateGear {
      to {
        -webkit-transform: rotate(0deg);
                transform: rotate(0deg);
      }
    }

    @keyframes rotateGear {
      to {
        -webkit-transform: rotate(0deg);
                transform: rotate(0deg);
      }
    }

    @-webkit-keyframes pulseStopwatchLine {
      0%, 90% {
        stroke-dashoffset: 29.4px;
      }
      100% {
        stroke-dashoffset: 0px;
      }
    }

    @keyframes pulseStopwatchLine {
      0%, 90% {
        stroke-dashoffset: 29.4px;
      }
      100% {
        stroke-dashoffset: 0px;
      }
    }

    @-webkit-keyframes rotateArrow {
      0% {
        -webkit-transform: rotate(-90deg);
                transform: rotate(-90deg);
      }
      50%, 100% {
        -webkit-transform: rotate(0deg);
                transform: rotate(0deg);
      }
    }

    @keyframes rotateArrow {
      0% {
        -webkit-transform: rotate(-90deg);
                transform: rotate(-90deg);
      }
      50%, 100% {
        -webkit-transform: rotate(0deg);
                transform: rotate(0deg);
      }
    }
  </style>
</svg>
