<svg version="1.1" id="cust-loader2" xmlns="http://www.w3.org/2000/svg" xmlns:xlink="http://www.w3.org/1999/xlink" x="0px"
	 y="0px" viewBox="0 0 500 500" enable-background="new 0 0 500 500" xml:space="preserve">
<filter id="filter" x="-20%" y="-20%" width="140%" height="140%" filterUnits="objectBoundingBox" primitiveUnits="userSpaceOnUse" color-interpolation-filters="linearRGB">
	<feDropShadow stdDeviation="0 0" in="SourceGraphic" dx="4" dy="4" flood-color="#000000" flood-opacity="0.6" x="0%" y="0%" width="100%" height="100%" result="dropShadow"/>
</filter>
<rect id="bg" fill="#FFFFFF" width="500" height="500"/>
<ellipse id="portal" opacity="0.2" fill="#000000" stroke="none" cx="250" cy="447.5" rx="69" ry="9"/>
<g id="logo-group">
		<g id="logo">
			<circle id="bg-logo" fill="#D8212B" cx="250" cy="117.5" r="69"/>
			<g id="your-logo" fill="#FFFFFF" filter="url(#filter)">
				<path d="M217.5,100.2v7.7c0,0.5,0.1,0.8,0.3,1c0.1,0.1,0.2,0.2,0.3,0.2s0.4,0.1,0.8,0.2c0.6,0.1,0.8,0.5,0.8,1
					c0,0.3-0.2,0.6-0.5,0.8c-0.2,0.1-0.6,0.2-1.1,0.2h-0.6h-7.8h-0.6c-0.5,0-0.9-0.1-1.1-0.2c-0.3-0.2-0.5-0.4-0.5-0.7
					c0-0.5,0.3-0.8,0.8-1c0.5-0.1,0.7-0.2,0.8-0.2s0.2-0.1,0.2-0.2c0.2-0.2,0.3-0.5,0.3-1V102l-5-11.9c-0.2-0.4-0.5-0.8-0.8-1
					c-0.3-0.2-0.5-0.4-0.6-0.5s-0.1-0.3-0.1-0.5c0-0.6,0.4-0.9,1.3-0.9h8.6c0.5,0,0.8,0.1,0.9,0.2c0.3,0.2,0.4,0.4,0.4,0.7
					c0,0.4-0.2,0.7-0.5,0.9l-0.5,0.3c-0.2,0.1-0.3,0.3-0.3,0.6c0,0.3,0.1,0.6,0.2,0.9L217.5,100.2z M218.2,98.6l-1-2.3l1.8-4.1
					c0.2-0.4,0.2-0.8,0.2-1.4c0-0.7-0.4-1.2-1.1-1.5c-0.4-0.2-0.7-0.3-0.8-0.4s-0.2-0.3-0.2-0.6c0-0.3,0.1-0.6,0.3-0.7
					c0.1-0.1,0.3-0.2,0.5-0.2s0.5-0.1,0.9-0.1h4.3c0.8,0,1.2,0.3,1.2,1c0,0.2-0.1,0.4-0.2,0.5s-0.3,0.3-0.6,0.4
					c-0.6,0.3-1,0.5-1.2,0.8c-0.4,0.4-0.6,0.8-0.9,1.3l-0.4,0.9L218.2,98.6z"/>
				<path d="M235.3,88.7c-0.6,0.2-1,0.5-1.3,0.9s-0.4,0.9-0.4,1.6v15.7c0,1,0.1,1.8,0.4,2.2c0.2,0.4,0.6,0.6,1.2,0.8
					v1.9c-2.6-0.2-4.8-1.2-6.5-2.9c-2.3-2.3-3.4-5.4-3.4-9.5c0-2,0.3-3.9,0.9-5.5s1.5-3,2.7-4.2c0.9-0.9,1.9-1.5,2.9-2
					s2.2-0.7,3.5-0.8V88.7z M236.7,88.7v-1.9c1.3,0.1,2.4,0.3,3.5,0.8s2,1.1,2.9,2c2.4,2.3,3.6,5.6,3.6,9.7c0,4.1-1.1,7.2-3.4,9.5
					c-1.8,1.8-3.9,2.7-6.6,2.9v-1.9c0.3-0.1,0.5-0.2,0.7-0.3s0.3-0.3,0.5-0.5c0.3-0.5,0.5-1.2,0.5-2.2V91.1c0-0.6-0.1-1.1-0.3-1.5
					c-0.1-0.2-0.3-0.4-0.5-0.6S237.1,88.8,236.7,88.7z"/>
				<path d="M250.3,104.2V90.5c0-0.4-0.1-0.7-0.2-0.9c-0.1-0.1-0.1-0.2-0.2-0.2s-0.3-0.1-0.7-0.2
					c-0.5-0.2-0.7-0.5-0.7-0.9c0-0.3,0.1-0.5,0.3-0.7s0.6-0.2,1-0.2h0.5h7.8h0.5l0.6,0.1c0.2,0.1,0.4,0.2,0.5,0.3s0.2,0.3,0.2,0.5
					c0,0.5-0.2,0.8-0.7,0.9c-0.4,0.1-0.6,0.2-0.7,0.2s-0.1,0.1-0.2,0.2c-0.1,0.2-0.2,0.5-0.2,0.9v14.7c0,1,0,1.7,0.1,2.1
					s0.2,0.7,0.3,1.1c0.2,0.3,0.3,0.5,0.5,0.6s0.5,0.3,1.1,0.4v2.3h-0.4c-1.5,0-2.8-0.1-3.8-0.4c-1.2-0.3-2.2-0.8-3.1-1.4
					s-1.5-1.3-1.9-2.1C250.5,107,250.3,105.8,250.3,104.2z M261.7,111.7v-2.3c1.2-0.2,2.2-0.6,2.9-1.4c0.9-0.9,1.3-2.3,1.3-4V92.5
					c0-1.6-0.6-2.7-1.8-3.4c-0.4-0.2-0.6-0.3-0.7-0.5s-0.2-0.3-0.2-0.6c0-0.3,0.1-0.5,0.3-0.7s0.6-0.2,1.1-0.2h4.3c0.4,0,0.6,0,0.7,0
					s0.2,0.1,0.4,0.1c0.3,0.2,0.5,0.4,0.5,0.7c0,0.3-0.1,0.5-0.3,0.7c-0.1,0.1-0.3,0.2-0.8,0.5c-0.5,0.3-0.9,0.7-1.2,1.3
					s-0.4,1.2-0.4,2V104c0,2-0.4,3.6-1.3,4.9c-0.6,0.9-1.5,1.7-2.7,2.3C263.3,111.4,262.6,111.6,261.7,111.7z"/>
				<path d="M282.8,87.3v20.7c0,0.5,0.1,0.8,0.3,1c0.1,0.1,0.2,0.2,0.3,0.2s0.4,0.1,0.8,0.2c0.6,0.1,0.8,0.5,0.8,1
					c0,0.3-0.2,0.6-0.5,0.7c-0.2,0.1-0.6,0.2-1.1,0.2h-0.6H275h-0.5c-0.4,0-0.7-0.1-1-0.2s-0.3-0.4-0.3-0.7c0-0.5,0.2-0.8,0.7-0.9
					c0.4-0.1,0.6-0.2,0.7-0.2s0.1-0.1,0.2-0.2c0.1-0.2,0.2-0.5,0.2-0.9V90.5c0-0.4-0.1-0.7-0.2-0.9c-0.1-0.1-0.1-0.2-0.2-0.2
					s-0.3-0.1-0.7-0.2c-0.5-0.2-0.7-0.5-0.7-0.9c0-0.3,0.1-0.5,0.3-0.7s0.6-0.2,1-0.2h0.5H282.8z M288.2,99.5c1.1,0.2,1.9,0.3,2.5,0.5
					s1.1,0.5,1.6,0.8c0.5,0.4,0.9,0.8,1.1,1.3s0.4,1,0.4,1.6v3.6c0,0.4,0.1,0.6,0.4,0.6c0.1,0,0.2,0,0.2-0.1s0.2-0.2,0.3-0.3
					c0.3-0.4,0.6-0.6,0.9-0.6c0.2,0,0.4,0.1,0.6,0.3s0.3,0.4,0.3,0.6c0,0.4-0.2,0.8-0.5,1.3s-0.8,1-1.3,1.4c-0.5,0.4-1,0.7-1.6,0.8
					s-1.2,0.3-2,0.3c-1.5,0-2.8-0.4-3.6-1.3s-1.3-2.1-1.3-3.7v-3c0-0.7,0-1,0-1.1c-0.1-0.5-0.2-0.9-0.5-1.2c-0.3-0.4-0.8-0.7-1.5-0.7
					v-1.9c0.6-0.1,1.1-0.3,1.4-0.5c0.2-0.2,0.4-0.5,0.5-0.7s0.1-0.7,0.1-1.2v-4.7c0-0.7-0.1-1.3-0.4-1.7s-0.8-0.7-1.6-0.9v-2h0.5
					c1.3,0,2.4,0,3.3,0.1c1.4,0.1,2.6,0.6,3.6,1.3c1.5,1.1,2.3,2.6,2.3,4.7c0,1.7-0.5,3-1.5,4.1c-0.4,0.4-0.9,0.8-1.5,1.1
					S289.4,99.1,288.2,99.5z"/>
				<path d="M217.5,144.4h-7.8h-0.5c-0.4,0-0.7-0.1-1-0.2s-0.3-0.4-0.3-0.7c0-0.5,0.2-0.8,0.7-0.9
					c0.4-0.1,0.6-0.2,0.7-0.2s0.1-0.1,0.2-0.2c0.1-0.2,0.2-0.5,0.2-0.9v-17.6c0-0.4-0.1-0.7-0.2-0.9c-0.1-0.1-0.1-0.2-0.2-0.2
					s-0.3-0.1-0.7-0.2c-0.5-0.2-0.7-0.5-0.7-0.9c0-0.3,0.1-0.5,0.3-0.7s0.6-0.2,1-0.2h0.5h7.8h0.6c0.5,0,0.9,0.1,1.1,0.2
					c0.3,0.2,0.5,0.4,0.5,0.7c0,0.5-0.3,0.8-0.8,1c-0.5,0.1-0.7,0.2-0.8,0.2s-0.2,0.1-0.3,0.2c-0.2,0.2-0.3,0.5-0.3,1V144.4z
					 M218.9,144.4v-2c0.6-0.1,1-0.2,1.4-0.4s0.7-0.3,1-0.6c0.5-0.4,0.9-0.9,1.4-1.6s0.7-1.4,1-2.3c0.2-0.6,0.4-1.1,0.5-1.3
					s0.4-0.3,0.7-0.3c0.3,0,0.6,0.1,0.7,0.4c0.1,0.1,0.1,0.4,0.1,0.8v7.2H218.9z"/>
				<path d="M236.3,121.9c-0.6,0.2-1,0.5-1.3,0.9s-0.4,0.9-0.4,1.6v15.7c0,1,0.1,1.8,0.4,2.2c0.2,0.4,0.6,0.6,1.2,0.8
					v1.9c-2.6-0.2-4.8-1.2-6.5-2.9c-2.3-2.3-3.4-5.4-3.4-9.5c0-2,0.3-3.9,0.9-5.5s1.5-3,2.7-4.2c0.9-0.9,1.9-1.5,2.9-2
					s2.2-0.7,3.5-0.8V121.9z M237.7,121.9V120c1.3,0.1,2.4,0.3,3.5,0.8s2,1.1,2.9,2c2.4,2.3,3.6,5.6,3.6,9.7c0,4.1-1.1,7.2-3.4,9.5
					c-1.8,1.8-3.9,2.7-6.6,2.9V143c0.3-0.1,0.5-0.2,0.7-0.3s0.3-0.3,0.5-0.5c0.3-0.5,0.5-1.2,0.5-2.2v-15.7c0-0.6-0.1-1.1-0.3-1.5
					c-0.1-0.2-0.3-0.4-0.5-0.6S238.1,122,237.7,121.9z"/>
				<path d="M259,120v2c-1,0.2-1.5,1.1-1.5,2.5v16.4c0,0.6,0.1,1.1,0.3,1.5c0.2,0.3,0.5,0.5,1,0.7v2
					c-0.4,0-0.7,0-1-0.1s-0.7-0.2-1.2-0.4c-1.2-0.4-2.3-1.1-3.3-1.9s-1.8-1.9-2.5-3.1c-1-1.9-1.5-4.1-1.5-6.7c0-2.5,0.4-4.7,1.3-6.6
					s2.2-3.5,3.8-4.6c1-0.6,2-1.1,3.1-1.4C257.9,120,258.4,120,259,120z M268.4,141.5c-0.5,0.5-1.1,0.9-1.9,1.4s-1.5,0.9-2.2,1.2
					c-0.6,0.2-1.3,0.4-2.1,0.6s-1.4,0.2-2,0.2v-2c0.3-0.1,0.6-0.2,0.8-0.3s0.3-0.3,0.4-0.5c0.2-0.4,0.3-0.8,0.3-1.4v-5.1
					c0-0.5-0.1-0.8-0.3-1c-0.1-0.1-0.2-0.2-0.2-0.2s-0.4-0.1-0.8-0.2c-0.6-0.1-0.8-0.5-0.8-1c0-0.3,0.1-0.5,0.4-0.7s0.7-0.2,1.2-0.2
					h0.6h6.4c0.5,0,0.9,0.1,1.1,0.2s0.3,0.4,0.3,0.8c0,0.2,0,0.4-0.1,0.6s-0.2,0.3-0.5,0.5s-0.4,0.3-0.4,0.5s-0.1,0.4-0.1,0.8V141.5z
					 M260.5,121.9V120c1.9,0.2,3.5,0.5,4.7,1.1c0.4,0.2,0.6,0.2,0.8,0.2c0.2,0,0.3,0,0.4-0.1s0.3-0.3,0.6-0.7c0.2-0.3,0.5-0.4,0.8-0.4
					c0.3,0,0.6,0.1,0.7,0.3s0.2,0.5,0.2,0.9v6.8c0,0.9-0.3,1.3-1,1.3c-0.3,0-0.6-0.1-0.7-0.3s-0.3-0.5-0.4-1c-0.2-0.7-0.5-1.4-0.9-2.3
					s-0.9-1.6-1.3-2.1c-0.5-0.6-1-1-1.6-1.3S261.4,121.9,260.5,121.9z"/>
				<path d="M281.4,121.9c-0.6,0.2-1,0.5-1.3,0.9s-0.4,0.9-0.4,1.6v15.7c0,1,0.1,1.8,0.4,2.2c0.2,0.4,0.6,0.6,1.2,0.8
					v1.9c-2.6-0.2-4.8-1.2-6.5-2.9c-2.3-2.3-3.4-5.4-3.4-9.5c0-2,0.3-3.9,0.9-5.5s1.5-3,2.7-4.2c0.9-0.9,1.9-1.5,2.9-2
					s2.2-0.7,3.5-0.8V121.9z M282.9,121.9V120c1.3,0.1,2.4,0.3,3.5,0.8s2,1.1,2.9,2c2.4,2.3,3.6,5.6,3.6,9.7c0,4.1-1.1,7.2-3.4,9.5
					c-1.8,1.8-3.9,2.7-6.6,2.9V143c0.3-0.1,0.5-0.2,0.7-0.3s0.3-0.3,0.5-0.5c0.3-0.5,0.5-1.2,0.5-2.2v-15.7c0-0.6-0.1-1.1-0.3-1.5
					c-0.1-0.2-0.3-0.4-0.5-0.6S283.2,122,282.9,121.9z"/>
			</g>
		</g>
</g>
<style>
	#logo {
		transform-origin: 250px 117.5px;
		transform: rotate(-180deg);
		animation: rotateLogo 2s linear 0s infinite;
	}

	#logo-group {
		transform: translate(0px, 300px);
		animation: moveLogo 1s cubic-bezier(0.215, 0.61, 0.355, 1) 0s infinite alternate;
	}

	#portal {
		transform-origin: 250px 447.5px;
		transform: scale(0, 0);
		animation: scalePortal 1s cubic-bezier(0.215, 0.61, 0.355, 1) 0s infinite alternate;
	}

	@keyframes moveLogo {
		0% {
			transform: translate(0px, 270px);
		}
		100% {
			transform: translate(0px, 0px);
		}
	}

	@keyframes rotateLogo {
		0% {
			transform: rotate(-180deg);
		}
		100% {
			transform: rotate(180deg);
		}
	}

	@keyframes scalePortal {
		0% {
			transform: scale(1, 1);
		}
		100% {
			transform: scale(0.1, 0.1);
		}
	}

</style>
</svg>