<?xml version="1.0" encoding="utf-8"?>
<!-- Generator: Adobe Illustrator 19.0.0, SVG Export Plug-In . SVG Version: 6.00 Build 0)  -->
<svg version="1.1" id="getupmobile" xmlns="http://www.w3.org/2000/svg" xmlns:xlink="http://www.w3.org/1999/xlink" x="0px"
	 y="0px" viewBox="0 0 435.5 258.2" style="enable-background:new 0 0 435.5 258.2;" xml:space="preserve">
<style type="text/css">
	.st0{fill:#57A9DA;}
	.st1{fill:#FFFFFF;}
	.st2{fill:none;stroke:#FFFFFF;stroke-width:2;stroke-miterlimit:10;}
	.st3{fill:none;stroke:#FFFFFF;stroke-miterlimit:10;}
	.st4{fill:none;stroke:#FFFFFF;stroke-width:0.75;stroke-miterlimit:10;}
	.st5{fill:none;stroke:#FFFFFF;stroke-width:1.5;stroke-miterlimit:10;}
</style>
<rect x="0" y="0" class="st0" width="435.5" height="258.2"/>
<g id="GET" clip-path="url(#cut_GET)">
	<path id="path77" class="st1" d="
		M101.2,135.9c-7.7-0.6-15.2-3.4-20.9-7.6c-2.8-2.1-6.6-6.1-8.3-8.6c-2.8-4.2-4.8-9.1-5.8-14.1c-0.7-3.7-0.6-10.7,0.1-14.3
		c2-9.6,7.6-17.7,15.8-23c12.7-8.2,30-8.9,44.4-1.9c3.1,1.5,7.3,4.2,8.4,5.3c0.6,0.6,0.6,0.7,0.3,1.2c-0.4,0.6-9.3,11.4-9.6,11.7
		c-0.1,0.1-0.9-0.4-1.9-1.1c-4.9-3.9-11.9-6.5-17.9-6.5c-10,0-18.1,6.4-20.7,16.2c-0.8,3-0.8,7.7,0,10.9c2,8.3,8.2,14.4,16.2,16
		c5.1,1.1,9.5,0.4,15.7-2.2l2.1-0.9v-3.7v-3.7h-4.4h-4.4v-6.6v-6.6h17.3h17.3V83.8V71.1H169h24.1v6.2v6.2h-16.3h-16.3l0.1,6.2
		l0.1,6.2l10.4,0.1l10.4,0.1v-3.5v-3.5l9.4,6.6c5.2,3.6,9.4,6.7,9.4,6.8s-4.2,3.2-9.4,6.8l-9.4,6.5l-0.1-3l-0.1-3h-10.4h-10.4
		l0.1,5.6l0.1,5.6l16.8,0.1l16.8,0.1v6v6h-24.6h-24.6v-11.7v-11.7h-5h-5v8.5v8.5l-2.1,1.2C123.5,133.6,111.1,136.7,101.2,135.9
		L101.2,135.9z"/>
	<path id="path79" class="st1" d="
		M217.5,108.3V83.7h-9.2H199v-6.3v-6.3h26.4h26.4v6.3v6.3h-9.4H233v24.6V133h-7.8h-7.8V108.3z"/>
</g>

<path id="UP" clip-path="url(#cut_UP)" class="st1" d="M282,133.5
	c-6.9-0.7-13.1-3.4-17.3-7.6c-3-3-5-6.5-6.2-11.1l-0.7-2.5l-0.1-20.6l-0.1-20.6h7.8h7.8l0,19.1c0,21,0,21,1.6,24.1
	c2.2,4.1,6.2,6.4,11.4,6.4c6,0,10.5-3.5,12-9.3c0.3-1.3,0.4-4.6,0.4-20.9V71.1l21.4,0c11.7,0,22.7,0.1,24.4,0.3
	c14.3,1.2,21.9,9.3,21.3,22.8c-0.5,11.2-6.2,18.1-17.2,20.7c-2.1,0.5-3.5,0.6-10.6,0.7l-8.2,0.1v8.7v8.7h-6.3h-6.3v-18.2V96.5h5
	c2.7,0,4.9-0.1,4.9-0.2c0-0.4-13.3-19.2-13.5-19.2c-0.3,0-13.5,18.8-13.5,19.2c0,0.1,2.1,0.2,4.7,0.2h4.7V110v13.5l-1.5,1.7
	c-4.8,5.3-11.4,8.1-20.2,8.4C286,133.7,283.4,133.6,282,133.5L282,133.5z M345.3,102.6c2.2-0.9,3.7-2.2,4.7-4.2
	c0.8-1.6,0.9-2.1,1-4.2c0.2-4.6-1.2-7.6-4.5-9.3c-2.4-1.2-3.8-1.4-10.7-1.4h-6.1v9.9v9.9l7.2-0.1C343.2,103.1,344.2,103,345.3,102.6
	L345.3,102.6z"/>
<g id="Mobile">
	<polygon id="M" class="st2" points="74.8,196.8 74.8,141.8 103.5,163.3 132.2,141.8 132.2,196.8 121,196.8 121,164.5 103.5,176.9 
		85.9,164.2 85.9,196.8 	"/>
	<g id="o">
		<path class="st2" d="M168.2,178.5c0,4.9-3.9,8.8-8.8,8.8c-4.9,0-8.8-3.9-8.8-8.8c0-4.9,3.9-8.8,8.8-8.8
			C164.2,169.7,168.2,173.7,168.2,178.5z"/>
		<path class="st2" d="M178.3,178.6c0,10.5-8.5,19-19,19c-10.5,0-19-8.5-19-19c0-10.5,8.5-19,19-19
			C169.8,159.6,178.3,168.1,178.3,178.6z"/>
	</g>
	<g id="b">
		<path class="st2" d="M203.9,197.6c10.1,0.5,18.3-8.5,18.3-19c0-10.5-8.2-19-18.3-19c0,0-4.7-0.5-8.7,3.3v-20.1h-10.3v53.8h10.3
			v-2.9C195.2,193.7,197.2,197.2,203.9,197.6z"/>
		<path class="st2" d="M211.7,178.6c0,4.8-3.8,8.8-8.4,8.8c-4.6,0-8.4-3.9-8.4-8.8c0-4.8,3.8-8.8,8.4-8.8
			C207.9,169.8,211.7,173.7,211.7,178.6z"/>
	</g>
	<g id="i">
		<path class="st2" d="M239.7,148c0,3.2-2.6,5.7-5.9,5.7c-3.3,0-5.9-2.6-5.9-5.7s2.6-5.7,5.9-5.7C237.1,142.3,239.7,144.8,239.7,148
			z"/>
		<path class="st2" d="M238.9,196.8h-10.3v-36.5h10.3V196.8z"/>
	</g>
	<path id="l" class="st2" d="M257.2,196.8h-10.3v-53.9h10.3V196.8z"/>
	<g id="e">
		<path class="st2" d="M299.4,190l-7.9-6.1c-4.9,4.9-10.8,3-10.8,3l20-15c-2.7-7.2-9.7-12.4-18-12.4c-10.6,0-19.1,8.5-19.1,18.9
			s8.6,18.9,19.1,18.9C282.7,197.4,293.1,198.5,299.4,190z"/>
		<path class="st2" d="M287.4,171.4c-2.4-2.2-6.5-2.3-9.8,0c-3.3,2.3-4.6,6.3-3.2,9.3L287.4,171.4z"/>
	</g>
	<g id="iphoneX">
		<path id="countur" class="st3" d="M332.7,198.6h-19c-2.4,0-4.3-1.9-4.3-4.3v-50.6c0-2.4,1.9-4.3,4.3-4.3h19c2.4,0,4.3,1.9,4.3,4.3
			v50.6C337,196.7,335.1,198.6,332.7,198.6z"/>
		<path id="faceId" class="st1" d="M315.4,139.4l1.4,2.3c0.3,0.4,0.7,0.6,1.1,0.6h10.6c0.3,0,0.6-0.1,0.9-0.3l1.8-2.6H315.4z"/>
	</g>
</g>
<g id="line_up">
	<path id="heart" class="st1" d="M23.6,16.3c-0.3-0.1-0.7-0.6-0.7-0.6s-2.1-6.6-8.4-5.4S5.4,19.2,11.2,26s12.4,12.4,12.4,12.4
		s6.6-5.6,12.4-12.4s3.1-14.4-3.3-15.7s-8.4,5.4-8.4,5.4S23.9,16.2,23.6,16.3z"/>
	<g id="tablet">
		<path class="st1" d="M71.8,12H48.2c-1.3,0-2.4,1.1-2.4,2.4v18.8c0,1.3,1.1,2.4,2.4,2.4h23.5c1.3,0,2.4-1.1,2.4-2.4V14.4
			C74.2,13.1,73.1,12,71.8,12z M71.8,32.6H48.2V14.5h23.6V32.6z"/>
		<path class="st1" d="M55.5,21.6c0,0,1.9-3.9,5-2.9c3.1,1,3.4,2.5,3.7,3.3c0.3,0.8,1.3,0.9,1.3,0.9s2.1,1.1,1.9,3
			c-0.2,1.8-1.7,2.9-2.8,3H55c0,0-2.9-1.1-2.5-3.9C52.9,22.3,55.5,21.6,55.5,21.6z"/>
	</g>
	<g id="broke_phone">
		<path class="st1" d="M113.2,24.6h-2.6c-0.4,0-0.8-0.4-0.8-0.8v-0.2c0-0.4,0.4-0.8,0.8-0.8h2.6c0.4,0,0.8,0.4,0.8,0.8v0.2
			C114,24.3,113.7,24.6,113.2,24.6z"/>
		<path class="st1" d="M85.9,24.7h-2.6c-0.4,0-0.8-0.4-0.8-0.8v-0.2c0-0.4,0.4-0.8,0.8-0.8h2.6c0.4,0,0.8,0.4,0.8,0.8v0.2
			C86.7,24.4,86.3,24.7,85.9,24.7z"/>
		<path class="st1" d="M113.8,17.5l-2.4,2.4c-0.3,0.3-0.8,0.3-1.1,0l-0.2-0.2c-0.3-0.3-0.3-0.8,0-1.1l2.4-2.4c0.3-0.3,0.8-0.3,1.1,0
			l0.2,0.2C114.1,16.7,114.1,17.2,113.8,17.5z"/>
		<path class="st1" d="M86.4,28.8L84,31.3c-0.3,0.3-0.8,0.3-1.1,0l-0.2-0.2c-0.3-0.3-0.3-0.8,0-1.1l2.4-2.4c0.3-0.3,0.8-0.3,1.1,0
			l0.2,0.2C86.8,28,86.8,28.5,86.4,28.8z"/>
		<path class="st1" d="M84,16.1l2.4,2.4c0.3,0.3,0.3,0.8,0,1.1l-0.2,0.2c-0.3,0.3-0.8,0.3-1.1,0l-2.4-2.4c-0.3-0.3-0.3-0.8,0-1.1
			l0.2-0.2C83.2,15.8,83.7,15.8,84,16.1z"/>
		<path class="st1" d="M111.4,27.6l2.4,2.4c0.3,0.3,0.3,0.8,0,1.1l-0.2,0.2c-0.3,0.3-0.8,0.3-1.1,0l-2.4-2.4c-0.3-0.3-0.3-0.8,0-1.1
			l0.2-0.2C110.6,27.3,111.1,27.3,111.4,27.6z"/>
		<path class="st1" d="M100.3,27.2l-4.1-1.9c-0.3-0.1-0.6-0.1-1,0l-5.7,2.3c-0.3,0.2-0.5,0.4-0.4,0.8v9.4c0,1.6,1.3,3,3,3h12.1
			c1.7,0,3-1.3,3-3v-12c-0.3-0.4-0.7-0.7-1.3-0.5l-4.6,2C101,27.4,100.7,27.4,100.3,27.2z M105.4,36.3H91.3v-7.1
			c0-0.2,0.1-0.3,0.4-0.4l3.6-1.5c0.2-0.1,0.5-0.1,0.8,0l4.3,1.8c0.3,0.1,0.6,0.1,0.9,0l4.1-1.9L105.4,36.3z"/>
		<path class="st1" d="M107.2,21.7c0.1-0.1,0.2-0.1,0.2-0.3 M107.4,21.5v-9.5c0-1.6-1.4-3-3-3H92.2c-1.7,0-3,1.3-3,3v11.9
			c0,0,0.1,1.1,1.6,0.7l5-1.9c0.1-0.1,0.2-0.1,0.3,0l4.2,2.4c0.1,0.1,0.3,0.1,0.5,0l6.5-3.2 M96.6,20.5c-0.3-0.2-0.6-0.2-0.9-0.1
			 M95.7,20.4l-4,1.5c-0.1,0-0.2,0-0.2-0.2v-8.3h13.8v6.9c0,0.2-0.1,0.3-0.3,0.4l-4.1,2c-0.2,0.1-0.3,0.1-0.5,0l-3.7-2.1"/>
	</g>
	<polygon id="arow_right1" class="st1" points="124,16.6 126.4,14.2 136.6,24.4 126.4,34.6 124,32.2 131.7,24.5 	"/>
	<g id="tools">
		<path class="st1" d="M153.8,25.6l-9,9c0,0-1.3,1.8,0.3,3.6c0,0,1.7,1.3,3.4,0l6.9-6.9c0,0,0.3-0.5-0.1-0.6c-0.4-0.1-1.2-1.7-1-2.3
			c0,0,0.2-1.2,0.5-1.7c0,0,0.2-0.2,0.1-0.4c-0.1-0.1-0.8-0.8-0.9-0.8C154,25.5,154,25.5,153.8,25.6z"/>
		<path class="st1" d="M158.1,21.4l3.7-3.8c0,0,0.2-0.1,0.2-0.6c0-0.5-0.6-4.4,2.3-6.7c2.9-2.3,6.5-0.9,7.8-0.2l-4.8,2.7
			c0,0-0.2,0-0.3,0.4c-0.1,0.4-0.2,2-0.1,2.7c0.1,0.8,0.1,0.7,0.5,1c0.3,0.3,2,1.2,2,1.2s0.1,0.1,0.5-0.1c0.4-0.2,4.8-2.6,4.8-2.6
			s0.5,3.1-3.3,5.5c0,0-1.8,1-5,0.6c0,0-0.6-0.1-0.8,0.2c-0.2,0.2-2.1,1.8-2.1,1.8s-0.1,0.1-0.3-0.2s-1-1.2-1.8-1
			c0,0-1.6-0.2-2.1,0.3c-0.5,0.4-1.1-0.4-1.1-0.4S157.7,21.6,158.1,21.4z"/>
		<path class="st1" d="M148.2,16.6c-0.3-0.5-1.3-0.7-1.3-0.7c-2.1-1.7-2.9-3.5-2.9-3.5l0.8-0.8c0,0,3,1.6,3.5,3.2
			c0,0,0.3,0.6,0.8,1.3l8.9,8.8c0,0,0.3,0.4,1,0.2c0.7-0.3,1.1-0.9,1.1-0.9s1.5-0.8,1.8,1.6c0,0,0.3,1.4,1.9,2
			c1.6,0.6,0.7-0.1,2.1,1c0,0,5.7,5.4,5.9,6c0.2,0.6,1,1.2,0.1,2.7c0,0-1.4,1.7-2.3,2.2c-0.9,0.5-2.3-0.2-2.3-0.2l-6.6-6.6
			c0,0-0.3-0.1-0.3-0.9c0-0.8-1.8-2.6-2.2-2.5c0,0-0.7-0.2-0.8-0.1s-1.1-0.5-1.1-0.9s0.4-1.2,1-1.7c0.5-0.6-0.3-1.2-0.3-1.2
			L148.2,16.6z"/>
	</g>
	<polygon id="arow_right2" class="st1" points="182.9,17.4 185.3,15 195.5,25.2 185.3,35.5 182.8,33 190.6,25.3 	"/>
	<g id="phone">
		<path class="st4" d="M221.7,34.5h-12.1c-0.8,0-1.5-0.7-1.5-1.5V15.2c0-0.8,0.7-1.5,1.5-1.5h12.1c0.8,0,1.5,0.7,1.5,1.5V33
			C223.2,33.8,222.5,34.5,221.7,34.5z"/>
		<path class="st4" d="M221.4,40.9h-11.8c-2.1,0-3.8-1.7-3.8-3.8V12.3c0-2.1,1.7-3.8,3.8-3.8h11.8c2.1,0,3.8,1.7,3.8,3.8V37
			C225.2,39.1,223.5,40.9,221.4,40.9z"/>
		<path class="st1" d="M218.2,11.7H213c-0.4,0-0.7-0.3-0.7-0.7v0c0-0.4,0.3-0.7,0.7-0.7h5.2c0.4,0,0.7,0.3,0.7,0.7v0
			C218.9,11.4,218.6,11.7,218.2,11.7z"/>
		<circle class="st1" cx="215.5" cy="37.8" r="1.7"/>
	</g>
	<polygon id="arow_right3" class="st1" points="234.8,17.4 237.3,14.9 247.5,25.2 237.2,35.4 234.8,33 242.5,25.3 	"/>
	<g id="arow_up">
		<polygon class="st1" points="258.6,19.3 269.4,8.4 280.3,19.3 277.7,21.8 269.3,13.3 260.9,21.7 		"/>
		<polygon class="st1" points="258.6,28.8 269.4,18 280.3,28.8 277.7,31.3 269.3,22.9 260.9,31.2 		"/>
		<polygon class="st1" points="258.6,38.7 269.4,27.8 280.3,38.7 277.7,41.2 269.3,32.8 260.9,41.1 		"/>
	</g>
	<polygon id="arow_right4" class="st1" points="296.9,17.5 299.4,15 309.6,25.3 299.3,35.5 296.9,33.1 304.7,25.4 	"/>
	<g id="iphone">
		<path class="st4" d="M337.2,47h-14.8c-1.7,0-3.1-1.4-3.1-3.1V5.6c0-1.7,1.4-3.1,3.1-3.1h14.8c1.7,0,3.1,1.4,3.1,3.1V44
			C340.2,45.6,338.9,47,337.2,47z"/>
		<circle class="st1" cx="330.1" cy="42.4" r="2"/>
		<polygon class="st1" points="323.8,2.5 325.1,4.3 334.1,4.3 336,2.4 		"/>
	</g>
	<g id="airpods">
		<path class="st1" d="M363.1,35.6h4.9c0,0,0.1,3.5-2.4,3.5C363,39.1,363.1,36.8,363.1,35.6z"/>
		<path class="st1" d="M368,33.4l-0.1-17.7c0,0-0.4-5.2-5.4-5.7c-5-0.5-6.9,1.8-6.9,1.8v8.4c2.8,2.4,7.6,1.8,7.6,1.8v11.4H368z
			 M358,17.2c-0.7,0-1.2-0.5-1.2-1.2c0-0.7,0.5-1.2,1.2-1.2s1.2,0.5,1.2,1.2C359.2,16.6,358.7,17.2,358,17.2z M362.6,16.4
			c0,0-0.4-0.9-0.9-1c-0.6-0.1-0.6-0.2-0.6-0.2c-0.5-0.5-0.5-0.7-0.4-1.5s1-0.8,1-0.8c3.2,0,3.2,2.6,3.2,2.6
			c0.1,0.5-0.4,1.6-1.1,1.6C362.9,17.2,362.6,16.4,362.6,16.4z"/>
		<path class="st1" d="M377.3,35.7h-4.9c0,0-0.1,3.5,2.4,3.5C377.4,39.2,377.3,36.9,377.3,35.7z"/>
		<path class="st1" d="M377.3,33.5V22.1c0,0,4.7,0.6,7.6-1.8v-8.4c0,0-2-2.3-6.9-1.8c-5,0.5-5.4,5.7-5.4,5.7l-0.1,17.7H377.3z
			 M381.3,16c0-0.7,0.5-1.2,1.2-1.2s1.2,0.5,1.2,1.2c0,0.7-0.5,1.2-1.2,1.2S381.3,16.7,381.3,16z M376.8,17.3
			c-0.8-0.1-1.2-1.1-1.1-1.6c0,0,0-2.7,3.2-2.6c0,0,0.9,0.1,1,0.8s0.1,0.9-0.4,1.5c0,0,0,0.1-0.6,0.2c-0.6,0.1-0.9,1-0.9,1
			S377.5,17.3,376.8,17.3z"/>
	</g>
	<path id="star" class="st2" d="M398.2,19.8l9.1-1.8c0.5-0.1,1-0.5,1.3-1l3.6-7c0.5-0.9,1.1-0.9,1.6,0l3.9,7.6
		c0.2,0.4,0.5,0.5,0.8,0.5l8.5,1.5c0.8,0.4,0.9,1,0.4,1.7l-5.9,6c-0.3,0.4-0.5,0.8-0.3,1.2l1.1,7.9c0.1,1.4-0.6,1.9-2,1.2l-6.8-3.7
		c-0.3-0.2-0.7-0.2-1.1-0.1l-7.4,3.8c-1.1,0.3-1.6,0-1.4-1l0.9-8.3c0.1-0.4,0-0.8-0.4-1.2L398,21C397.6,20.5,397.6,20.1,398.2,19.8z
		"/>
</g>
<g id="line_down">
	<g id="screen">
		<path class="st2" d="M39.3,245.8H11.6c-1,0-1.8-0.8-1.8-1.8v-16.4c0-1,0.8-1.8,1.8-1.8h27.7c1,0,1.8,0.8,1.8,1.8V244
			C41.2,245,40.3,245.8,39.3,245.8z"/>
		<path class="st1" d="M29,245.8c0,0-0.5,3.4,0.4,4.4c0,0,1.5,0,2.1,0.8s0.7,1.1,0.7,1.1H18.6c0,0,0.4-0.7,0.9-1.2s2-0.7,2-0.7
			c1.2-0.6,0.8-4.4,0.8-4.4H29z"/>
	</g>
	<g id="bluetooth">
		<path class="st1" d="M68.2,240.4l-4.4-4.4l4.3-4.6l-6.8-6.8v8.9l-5-4.7l-1.3,1.3l5.9,5.9l-5.6,5.4l1.5,1.5l4.6-4.4v8.3L68.2,240.4
			z M65.6,240.7l-2.6,2.5v-4.9L65.6,240.7z M62.9,229.2l2.6,2.4l-2.6,2.6V229.2z"/>
		<circle class="st1" cx="58" cy="249.7" r="1.2"/>
		<circle class="st1" cx="62.2" cy="249.7" r="1.2"/>
		<circle class="st1" cx="66.4" cy="249.7" r="1.2"/>
	</g>
	<g id="arows_circle1">
		<path class="st5" d="M79.8,237.3c0-6.5,5.3-11.8,11.8-11.8c0.4,0,0.8,0,1.2,0.1"/>
		<path class="st5" d="M97.2,247.7c-1.7,0.9-3.6,1.4-5.6,1.4c-4.6,0-8.6-2.6-10.6-6.5"/>
		<path class="st5" d="M98,227.4c3.2,2.1,5.4,5.8,5.4,9.9c0,2.6-0.8,5-2.2,6.9"/>
		<polygon class="st1" points="91.9,222.1 91.7,229.5 95.9,225.9 		"/>
		<polygon class="st1" points="105,245.4 98.6,241.8 99.8,247.2 		"/>
		<polygon class="st1" points="78,245 84.6,241.6 79.4,239.7 		"/>
	</g>
	<g id="camera">
		<path class="st1" d="M134.3,229.9h-3.1c-0.2,0-0.3,0-0.3-0.1l-1.3-1.6c-0.1-0.2-0.3-0.3-0.6-0.3c-2-0.1-3.9-0.1-5.7,0
			c-0.2,0-0.4,0.1-0.5,0.2l-1.5,1.6c-0.1,0.2-0.3,0.2-0.6,0.2h-2.7c-1.2,0-2.1,1-2.1,2.1v12c0,1.2,1,2.1,2.1,2.1h16.3
			c1.2,0,2.1-1,2.1-2.1v-12C136.4,230.9,135.4,229.9,134.3,229.9z M126.1,243.4c-3,0-5.4-2.4-5.4-5.4c0-3,2.4-5.4,5.4-5.4
			c3,0,5.4,2.4,5.4,5.4C131.4,241,129,243.4,126.1,243.4z"/>
		<circle class="st1" cx="126.1" cy="238" r="3.3"/>
	</g>
	<g id="hand_maney" transform="translate(-27.592262,-1.1339286)">
		<ellipse class="st1" cx="203.6" cy="224.6" rx="2.6" ry="1.5"/>
		<path id="path197_1_" class="st1" d="M180,240.6v-9.2l2.4,0.1c2.3,0.1,2.4,0.1,2.6,0.9
			c0.3,1,0.3,15.5,0,16.5c-0.2,0.7-0.4,0.8-2.6,0.9l-2.4,0.1V240.6z"/>
		<path class="st1" d="M211.1,236.4c-0.9-0.7-0.1-1.8-0.1-1.8s0.9-0.5,1.2-2.1c0.3-1.6-1.6-2.2-1.6-2.2c-1-0.5-0.7-1.8-0.7-1.8
			l2.6-12.7c-0.3-0.3-2-1.2-8.3-1.3s-8.9,1.5-8.9,1.5l2.3,10.5c0,0,0.1,0.8-0.4,0.9c-0.5,0.1-0.8,0.4-0.8,0.4c-0.1,0.3-3.6,3-3.6,3
			c-1.3,1.3-4.1,1.7-4.1,1.7c-1,0.1-0.9,1.2-0.9,1.2v13.4c0.7,0.1,5.1,1.4,6.7,2.3c1.5,0.9,4.4,1.3,5.6,1.5c1.2,0.2,5.5,0,6.3,0
			s1.7-0.6,2.2-1.7c0.5-1.1-0.8-1.8-0.8-1.8c-0.8-1.2,0.7-1.5,0.7-1.5c1.6,0.1,2-0.7,2.3-1.7s-0.1-1.5-0.6-2.3s0.3-1.3,0.3-1.3
			c1-0.3,1.9-1.3,1.8-2.3S211.9,237.1,211.1,236.4z M208,229.8c0,0-0.2,0.8-1.4,0.8s-5.7-0.3-5.7-0.3s-1.4-0.1-1.7-1.3
			s-1.7-8.8-1.4-9.2l3.1-3.1c0,0,0.5-0.5,1.3-0.4h3.7c0,0,0.8-0.1,1.3,0.7l2.4,2.6c0,0,0.7,0.6,0.3,1.6L208,229.8z"/>
	</g>
	<g id="tools2">
		<path class="st1" d="M202.7,237.1l-9,9c0,0-1.3,1.8,0.3,3.6c0,0,1.7,1.3,3.4,0l6.9-6.9c0,0,0.3-0.5-0.1-0.6s-1.2-1.7-1-2.3
			c0,0,0.2-1.2,0.5-1.7c0,0,0.2-0.2,0.1-0.4c-0.1-0.1-0.8-0.8-0.9-0.8C202.8,237,202.9,236.9,202.7,237.1z"/>
		<path class="st1" d="M206.9,232.9l3.7-3.8c0,0,0.2-0.1,0.2-0.6c0-0.5-0.6-4.4,2.3-6.7c2.9-2.3,6.5-0.9,7.8-0.2l-4.8,2.7
			c0,0-0.2,0-0.3,0.4c-0.1,0.4-0.2,2-0.1,2.7s0.1,0.7,0.5,1c0.3,0.3,2,1.2,2,1.2s0.1,0.1,0.5-0.1c0.4-0.2,4.8-2.6,4.8-2.6
			s0.5,3.1-3.3,5.5c0,0-1.8,1-5,0.6c0,0-0.6-0.1-0.8,0.2c-0.2,0.2-2.1,1.8-2.1,1.8s-0.1,0.1-0.3-0.2s-1-1.2-1.8-1
			c0,0-1.6-0.2-2.1,0.3s-1.1-0.4-1.1-0.4S206.6,233.1,206.9,232.9z"/>
		<path class="st1" d="M197.1,228.1c-0.3-0.5-1.3-0.7-1.3-0.7c-2.1-1.7-2.9-3.5-2.9-3.5l0.8-0.8c0,0,3,1.6,3.5,3.2
			c0,0,0.3,0.6,0.8,1.3l8.9,8.8c0,0,0.3,0.4,1,0.2c0.7-0.3,1.1-0.9,1.1-0.9s1.5-0.8,1.8,1.6c0,0,0.3,1.4,1.9,2
			c1.6,0.6,0.7-0.1,2.1,1c0,0,5.7,5.4,5.9,6c0.2,0.6,1,1.2,0.1,2.7c0,0-1.4,1.7-2.3,2.2c-0.9,0.5-2.3-0.2-2.3-0.2l-6.6-6.6
			c0,0-0.3-0.1-0.3-0.9s-1.8-2.6-2.2-2.5c0,0-0.7-0.2-0.8-0.1c-0.1,0.1-1.1-0.5-1.1-0.9s0.4-1.2,1-1.7s-0.3-1.2-0.3-1.2L197.1,228.1
			z"/>
	</g>
	<g id="wifi">
		<circle class="st1" cx="249.2" cy="247" r="2.2"/>
		<path class="st1" d="M253.6,242.7c0,0-4.4-3.6-8.5,0l-1.9-1.9c0,0,5.2-5.4,12.1,0.1L253.6,242.7z"/>
		<path class="st1" d="M241.1,238.7l-1.8-1.8c-0.1-0.2,9.8-9,19.9,0l-1.9,1.8C257.4,238.4,249,231.5,241.1,238.7z"/>
		<path class="st1" d="M237.1,234.3l-1.8-1.8c0,0,12-12.6,28,0l-2,2C261.3,234.6,250.3,223.9,237.1,234.3z"/>
	</g>
	<g id="batery">
		<path class="st1" d="M297.1,230.7H274c-1.7,0-3.1,1.4-3.1,3.1v10.1c0,1.7,1.4,3.1,3.1,3.1h23.1c1.7,0,3.1-1.4,3.1-3.1v-10.1
			C300.2,232.1,298.8,230.7,297.1,230.7z M279.7,242.4c0,0.5-0.4,1-1,1h-2.7c-0.5,0-1-0.4-1-1v-8.5c0-0.5,0.4-1,1-1h2.7
			c0.5,0,1,0.4,1,1V242.4z M285.4,242.4c0,0.5-0.4,1-1,1h-2.7c-0.5,0-1-0.4-1-1v-8.5c0-0.5,0.4-1,1-1h2.7c0.5,0,1,0.4,1,1V242.4z
			 M290.9,242.4c0,0.5-0.4,1-1,1h-2.7c-0.5,0-1-0.4-1-1v-8.5c0-0.5,0.4-1,1-1h2.7c0.5,0,1,0.4,1,1V242.4z M296.9,242.4
			c0,0.5-0.4,1-1,1h-2.7c-0.5,0-1-0.4-1-1v-8.5c0-0.5,0.4-1,1-1h2.7c0.5,0,1,0.4,1,1V242.4z"/>
		<path class="st1" d="M277.7,241.9h-0.7c-0.4,0-0.6-0.3-0.6-0.6V235c0-0.4,0.3-0.6,0.6-0.6h0.7c0.4,0,0.6,0.3,0.6,0.6v6.2
			C278.4,241.6,278.1,241.9,277.7,241.9z"/>
		<path class="st1" d="M283.4,241.8h-0.7c-0.4,0-0.6-0.3-0.6-0.6V235c0-0.4,0.3-0.6,0.6-0.6h0.7c0.4,0,0.6,0.3,0.6,0.6v6.2
			C284,241.6,283.7,241.8,283.4,241.8z"/>
		<path class="st1" d="M289.1,241.8h-0.7c-0.4,0-0.6-0.3-0.6-0.6V235c0-0.4,0.3-0.6,0.6-0.6h0.7c0.4,0,0.6,0.3,0.6,0.6v6.2
			C289.8,241.6,289.5,241.8,289.1,241.8z"/>
		<path class="st1" d="M294.7,241.8h-0.7c-0.4,0-0.6-0.3-0.6-0.6V235c0-0.4,0.3-0.6,0.6-0.6h0.7c0.4,0,0.6,0.3,0.6,0.6v6.2
			C295.4,241.6,295.1,241.8,294.7,241.8z"/>
		<path class="st1" d="M302.5,241.8h-0.2c-0.5,0-0.8-0.4-0.8-0.8v-4.4c0-0.5,0.4-0.8,0.8-0.8h0.2c0.5,0,0.8,0.4,0.8,0.8v4.4
			C303.3,241.5,303,241.8,302.5,241.8z"/>
	</g>
	<g id="sale">
		<circle class="st1" cx="327.7" cy="250.3" r="3.1"/>
		<circle class="st1" cx="340.6" cy="250.4" r="3.1"/>
		<path class="st1" d="M328.1,241.3h10.4c0,0,1.1,0.5,2.8-1.6l4.8-8.5c0,0,0.8-1.3,2.1-0.6c1.3,0.7,1,2,0.4,3c-0.6,0.9-3.1,7-5.7,10
			c0,0-1.1,1.5-3.1,1.8c-2,0.3-10.8-0.1-13-0.4c-2.2-0.3-4.6-3.1-4.8-4.4s-3.5-15.8-3.5-15.8s-0.3-2.3-4.1-2.3c0,0-1.4-0.4-1.4-1.9
			c0-1.5,1.9-1.6,1.9-1.6s4.7-0.7,6.7,3.7c0,0,3.7,14.1,3.4,15.6C325.1,238.3,325.5,241,328.1,241.3z"/>
		<path class="st1" d="M335.1,234.3l5.3-5.9c0.3-0.6,0.2-1-0.4-1.1l-3.6,0v-5.7c0-0.7-0.4-1.2-1.2-1.3h-2.7c-0.6,0.1-1,0.5-1,1.2
			v5.8l-3.5,0c-0.6,0.3-0.7,0.7-0.4,1.2l5.6,5.8C333.9,235.2,334.5,235.1,335.1,234.3z"/>
	</g>
	<g id="arows_circle2">
		<path class="st5" d="M365.2,237.3c0-6.5,5.3-11.8,11.8-11.8c0.4,0,0.8,0,1.2,0.1"/>
		<path class="st5" d="M382.7,247.6c-1.7,0.9-3.6,1.4-5.6,1.4c-4.6,0-8.6-2.6-10.6-6.5"/>
		<path class="st5" d="M383.5,227.3c3.2,2.1,5.4,5.8,5.4,9.9c0,2.6-0.8,5-2.2,6.9"/>
		<polygon class="st1" points="377.4,222.1 377.2,229.4 381.3,225.9 		"/>
		<polygon class="st1" points="390.5,245.4 384,241.7 385.2,247.1 		"/>
		<polygon class="st1" points="363.5,245 370,241.5 364.9,239.6 		"/>
	</g>
	<polygon id="lightning" class="st1" points="426.8,220.9 413.2,237.3 420.3,237.3 412.2,251.4 426.8,234.7 419.5,234.4 	"/>
</g>

<defs>
		<clipPath id="cut_GET">
				<rect id="clip_GET" x="0" y="0" width="435.5" height="258.2"/>
		</clipPath>
		<clipPath id="cut_UP">
				<rect id="clip_UP" x="0" y="0" width="435.5" height="258.2"/>
		</clipPath>
</defs>

<style>

#GET {
	-webkit-transform: translateX(-300px);
	transform: translateX(-300px);
	-webkit-animation: moveText 0.5s linear 0s forwards; 
	animation: moveText 0.5s linear 0s forwards; 
}

#clip_GET {
	-webkit-transform: translateX(300px);
	transform: translateX(300px);
  -webkit-animation: moveText 0.5s linear 0s forwards;
  animation: moveText 0.5s linear 0s forwards;
}

#UP {
	-webkit-transform: translateY(300px);
	transform: translateY(300px);
	-webkit-animation: moveText 0.5s linear 0.25s forwards; 
	animation: moveText 0.5s linear 0.25s forwards; 
}

#clip_UP {
	-webkit-transform: translateY(-300px);
	transform: translateY(-300px);
  -webkit-animation: moveText 0.5s linear 0.25s forwards;
  animation: moveText 0.5s linear 0.25s forwards;
}

#M {
	stroke-dasharray: 320;
	stroke-dashoffset: 320;
	-webkit-animation: drawMobile 0.5s linear 0.75s forwards;
	animation: drawMobile 0.5s linear 0.75s forwards;
}

#o {
	stroke-dasharray: 120;
	stroke-dashoffset: 120;
	-webkit-animation: drawMobile 0.5s linear 1.25s forwards;
	animation: drawMobile 0.5s linear 1.25s forwards;
}

#b {
	stroke-dasharray: 180;
	stroke-dashoffset: 180;
	-webkit-animation: drawMobile 0.5s linear 1.75s forwards;
	animation: drawMobile 0.5s linear 1.75s forwards;
}

#i {
	stroke-dasharray: 100;
	stroke-dashoffset: 100;
	-webkit-animation: drawMobile 0.5s linear 2.25s forwards;
	animation: drawMobile 0.5s linear 2.25s forwards;
}

#l {
	stroke-dasharray: 130;
	stroke-dashoffset: 130;
	-webkit-animation: drawMobile 0.5s linear 2.75s forwards;
	animation: drawMobile 0.5s linear 2.75s forwards;
}

#e {
	stroke-dasharray: 160;
	stroke-dashoffset: 160;
	-webkit-animation: drawMobile 0.5s linear 3.25s forwards;
	animation: drawMobile 0.5s linear 3.25s forwards;
}

#iphoneX #countur {
	stroke-dasharray: 170;
	stroke-dashoffset: 170;
	-webkit-animation: drawMobile 0.5s linear 3.5s forwards;
	animation: drawMobile 0.5s linear 3.5s forwards;
}

#iphoneX #faceId {
	opacity: 0;
	-webkit-animation: showFaceId 0.5s linear 3.5s forwards;
	animation: showFaceId 0.5s linear 3.5s forwards;
}


#line_up > *, #line_down > * {
	opacity: 0;
}

#heart {
	-webkit-animation: showElement 5s linear 4s alternate infinite;
	animation: showElement 5s linear 4s alternate infinite;
}
#star {
	-webkit-animation: showElement 4.7s linear 3.8s alternate infinite;
	animation: showElement 4.7s linear 3.8s alternate infinite;
}
#airpods {
	-webkit-animation: showElement 3s linear 4.1s alternate infinite;
	animation: showElement 3s linear 4.1s alternate infinite;
}
#iphone {
	-webkit-animation: showElement 3.7s linear 4.9s alternate infinite;
	animation: showElement 3.7s linear 4.9s alternate infinite;
}
#tools {
	-webkit-animation: showElement 4.2s linear 4s alternate infinite;
	animation: showElement 4.2s linear 4s alternate infinite;
}
#broke_phone {
	-webkit-animation: showElement 3.9s linear 4.5s alternate infinite;
	animation: showElement 3.9s linear 4.5s alternate infinite;
}
#tablet {
	-webkit-animation: showElement 4.5s linear 5.2s alternate infinite;
	animation: showElement 4.5s linear 5.2s alternate infinite;
}
#phone {
	-webkit-animation: showElement 4.3s linear 5.8s alternate infinite;
	animation: showElement 4.3s linear 5.8s alternate infinite;
}
#arow_up {
	-webkit-animation: showElement 5.4s linear 7s alternate infinite;
	animation: showElement 5.4s linear 7s alternate infinite;
}
#arow_right4 {
	-webkit-animation: showElement 4.9s linear 5.1s alternate infinite;
	animation: showElement 4.9s linear 5.1s alternate infinite;
}
#arow_right3 {
	-webkit-animation: showElement 5.3s linear 4s alternate infinite;
	animation: showElement 5.3s linear 4s alternate infinite;
}
#arow_right2 {
	-webkit-animation: showElement 3.5s linear 6.5s alternate infinite;
	animation: showElement 3.5s linear 6.5s alternate infinite;
}
#arow_right1 {
	-webkit-animation: showElement 4.5s linear 6s alternate infinite;
	animation: showElement 4.5s linear 6s alternate infinite;
}



#screen {
	-webkit-animation: showElement 5.2s linear 5s alternate infinite;
	animation: showElement 5.2s linear 5s alternate infinite;
}
#bluetooth {
	-webkit-animation: showElement 3.2s linear 6.8s alternate infinite;
	animation: showElement 3.2s linear 6.8s alternate infinite;
}
#arows_circle1 {
	-webkit-animation: showElement 5.1s linear 4s alternate infinite;
	animation: showElement 5.1s linear 4s alternate infinite;
}
#camera {
	-webkit-animation: showElement 3.5s linear 6.8s alternate infinite;
	animation: showElement 3.5s linear 6.8s alternate infinite;
}
#hand_maney {
	-webkit-animation: showElement 5s linear 4.5s alternate infinite;
	animation: showElement 5s linear 4.5s alternate infinite;
}
#wifi {
	-webkit-animation: showElement 5.8s linear 5.5s alternate infinite;
	animation: showElement 5.8s linear 5.5s alternate infinite;
}
#tools2 {
	-webkit-animation: showElement 4.5s linear 7.5s alternate infinite;
	animation: showElement 4.5s linear 7.5s alternate infinite;
}
#arows_circle2 {
	-webkit-animation: showElement 5.1s linear 4.2s alternate infinite;
	animation: showElement 5.1s linear 4.2s alternate infinite;
}
#batery {
	-webkit-animation: showElement 5.1s linear 5s alternate infinite;
	animation: showElement 5.1s linear 5s alternate infinite;
}
#sale {
	-webkit-animation: showElement 4.7s linear 4s alternate infinite;
	animation: showElement 4.7s linear 4s alternate infinite;
}
#lightning {
	-webkit-animation: showElement 3.5s linear 8s alternate infinite;
	animation: showElement 3.5s linear 8s alternate infinite;
}



@-webkit-keyframes moveText {
	to {
		-webkit-transform: translate(0px, 0px);
		transform: translate(0px, 0px);
	}
}

@-webkit-keyframes drawMobile {
  to {
    stroke-dashoffset: 0;
  }
}

@-webkit-keyframes showFaceId {
	to {
    opacity: 1;
  }
}

@-webkit-keyframes showElement {
	0% {
    opacity: 0;
  }
  25% {
    opacity: 0;
  }
  30% {
    opacity: 1;
  }
  50% {
    opacity: 1;
  }
  70% {
    opacity: 1;
  }
  75% {
    opacity: 0;
  }
  100% {
    opacity: 0;
  }
}


@keyframes moveText {
	to {
		transform: translate(0px, 0px);
	}
}

@keyframes drawMobile {
  to {
    stroke-dashoffset: 0;
  }
}

@keyframes showFaceId {
	to {
    opacity: 1;
  }
}

@keyframes showElement {
	0% {
    opacity: 0;
  }
  25% {
    opacity: 0;
  }
  30% {
    opacity: 1;
  }
  50% {
    opacity: 1;
  }
  70% {
    opacity: 1;
  }
  75% {
    opacity: 0;
  }
  100% {
    opacity: 0;
  }
}

</style>	

</svg>
