<?xml version="1.0" encoding="utf-8"?>
<!-- Generator: Adobe Illustrator 19.0.0, SVG Export Plug-In . SVG Version: 6.00 Build 0)  -->
<svg version="1.1" id="giars-loader" xmlns="http://www.w3.org/2000/svg" xmlns:xlink="http://www.w3.org/1999/xlink" x="0px"
	 y="0px" viewBox="0 0 300 300" enable-background="new 0 0 300 300" xml:space="preserve">
<rect id="bg" x="0" y="0" fill="#133046" width="300" height="300"/>
<path id="main-giar" fill="#F1E4B3" d="M216.2,155l0-4l0-4l-9.4-1.8c-0.4-3.7-1.1-7.2-2.1-10.7l8-5.2l-3.1-7.4l-9.3,1.9
	c-1.7-3.2-3.8-6.2-6.1-9l5.4-7.9l-5.7-5.7l-7.9,5.4c-2.8-2.3-5.8-4.3-9.1-6.1l1.9-9.3l-7.4-3.1l-5.4,7.9c-3.4-1-6.9-1.7-10.5-2.1
	l-1.8-9.4l-4,0l-4,0l-1.8,9.4c-3.6,0.4-7.1,1.1-10.5,2.1L128,88l-7.4,3.1l1.9,9.3c-3.2,1.7-6.3,3.8-9.1,6.1l-7.9-5.4l-5.7,5.7
	l5.4,7.9c-2.3,2.8-4.3,5.8-6.1,9l-9.3-1.9l-3.1,7.4l8,5.2c-1,3.4-1.7,7-2.1,10.7l-9.4,1.8l0,4l0,4l9.4,1.8c0.4,3.7,1.1,7.2,2.1,10.7
	l-8,5.2l3.1,7.4l9.3-1.9c1.7,3.2,3.8,6.2,6.1,9l-5.4,7.9l5.7,5.7l7.9-5.4c2.8,2.3,5.8,4.3,9.1,6.1l-1.9,9.3l7.4,3.1l5.4-7.9
	c3.4,1,6.9,1.7,10.5,2.1l1.8,9.4l4,0l4,0l1.8-9.4c3.6-0.4,7.1-1.1,10.5-2.1l5.4,7.9l7.4-3.1l-1.9-9.3c3.2-1.7,6.3-3.8,9.1-6.1
	l7.9,5.4l5.7-5.7l-5.4-7.9c2.3-2.8,4.3-5.8,6.1-9l9.3,1.9l3.1-7.4l-8-5.2c1-3.4,1.7-7,2.1-10.7L216.2,155z M154,167.3l0,10.2h-8.6
	v-10.2c-7.2-1.9-12.6-8.5-12.6-16.3c0-9.3,7.6-16.9,16.9-16.9s16.9,7.6,16.9,16.9C166.6,158.8,161.2,165.4,154,167.3z"/>
<g id="small-gears">
	<path id="sm-gear1" fill="#C7402D" d="M256.9,106.5c0.2-1.6,0.3-3.2,0.2-4.9c-0.1-1.7-0.3-3.3-0.7-4.8l6.7-7.2l-2.7-4.8l-9.6,1.4
		c-1.7-1.9-3.6-3.6-5.8-4.9l-0.3-9.9l-5.4-1.5l-6,7.7c-0.9,0-1.7-0.1-2.6,0c-1.7,0.1-3.3,0.3-4.8,0.7l-7.3-6.7l-4.8,2.7l1.3,9.6
		c-1.9,1.7-3.6,3.6-4.9,5.8l-9.9,0.4l-1.5,5.3l7.8,5.9c-0.1,0.9-0.1,1.8,0,2.7c0,0.9,0.1,1.8,0.3,2.7l-7.2,6.5l2,5.1l9.9-0.5
		c1.5,2,3.3,3.9,5.4,5.4l-0.5,9.7l5,2.2l6.6-7.4c1.6,0.2,3.2,0.3,4.9,0.2c0.9,0,1.7-0.1,2.6-0.2l6.7,7.2l5.2-2l-0.6-9.8
		c2-1.5,3.9-3.3,5.4-5.4l9.7,0.5l2.2-5L256.9,106.5z M234.3,113.1l0.2,3.4l-4.5,0.2l-0.2-3.6c-4.6-0.9-8.2-4.9-8.4-9.8
		c-0.2-4.9,3-9.2,7.5-10.6l-0.2-3.6l4.5-0.2l0.2,3.4c4.9,0.7,8.9,4.8,9.1,10C242.7,107.5,239.2,112,234.3,113.1z"/>
	<path id="sm-gear2" fill="#C7402D" d="M72.1,77.8c-1.6-0.3-3.2-0.4-4.9-0.4c-1.7,0-3.3,0.2-4.8,0.6L55.3,71l-4.9,2.6l1.1,9.6
		c-1.9,1.6-3.6,3.6-5,5.7l-9.9,0l-1.6,5.3l7.6,6.2c-0.1,0.8-0.1,1.7-0.1,2.6c0,1.7,0.2,3.3,0.6,4.8l-6.9,7.1l2.6,4.9l9.7-1.1
		c1.6,1.9,3.6,3.6,5.7,5l0.1,9.9l5.2,1.6l6.1-7.6c0.9,0.1,1.8,0.1,2.7,0.1c0.9,0,1.8-0.1,2.7-0.2l6.3,7.4l5.2-1.8l-0.3-9.9
		c2.1-1.5,3.9-3.2,5.5-5.2l9.7,0.7l2.4-4.9l-7.2-6.8c0.3-1.6,0.4-3.2,0.4-4.9c0-0.9-0.1-1.7-0.2-2.6l7.3-6.5l-1.8-5.2l-9.9,0.3
		c-1.5-2.1-3.2-3.9-5.2-5.5l0.7-9.7l-4.9-2.4L72.1,77.8z M78.1,100.5l3.4-0.1l0.1,4.5L78,105c-1.1,4.6-5.1,8.1-10.1,8.2
		c-4.9,0.1-9.1-3.2-10.4-7.8l-3.6,0.1l-0.1-4.5l3.4-0.1c0.8-4.9,5-8.7,10.2-8.8S77.1,95.6,78.1,100.5z"/>
	<path id="sm-gear3" fill="#C7402D" d="M128.9,259.3c0.9,1.3,2,2.6,3.2,3.7c1.2,1.2,2.5,2.2,3.8,3l0.1,9.9l5.2,1.6l6.1-7.6
		c2.5,0.2,5.1,0.1,7.6-0.5l7,7l4.9-2.6l-1-9.7c0.6-0.6,1.3-1.1,1.9-1.8c1.2-1.2,2.2-2.5,3-3.8l9.9-0.1l1.6-5.2l-7.6-6.1
		c0.2-2.5,0.1-5.1-0.5-7.6l6.9-7.1l-2.6-4.9l-9.7,1.1c-0.6-0.7-1.2-1.4-1.9-2c-0.7-0.6-1.3-1.2-2.1-1.8l0.7-9.7l-5-2.4l-6.8,7.2
		c-2.5-0.4-5.1-0.5-7.6-0.2l-6.3-7.4l-5.2,1.8l0.3,9.9c-1.3,0.9-2.6,2-3.7,3.2c-0.6,0.6-1.2,1.3-1.7,1.9l-9.8-0.6l-2.4,5l7.2,6.7
		c-0.4,2.5-0.5,5.1-0.2,7.6l-7.4,6.3l1.8,5.2L128.9,259.3z M140.8,239l-2.5-2.4l3.1-3.2l2.6,2.5c4-2.5,9.3-2.1,12.9,1.4
		c3.6,3.4,4.2,8.7,1.8,12.8l2.6,2.5l-3.1,3.2l-2.5-2.4c-4.1,2.9-9.7,2.6-13.5-1C138.5,248.8,138,243.1,140.8,239z"/>
</g>
<style>
	#giars-loader #main-giar {
		-webkit-transform-origin: 50% 50%;
		    -ms-transform-origin: 50% 50%;
		        transform-origin: 50% 50%;
		-webkit-animation: rotateGearLeft 12s linear 0s infinite;
		        animation: rotateGearLeft 12s linear 0s infinite;
	}

	#giars-loader #small-gears {
		-webkit-transform-origin: 50% 50%;
		    -ms-transform-origin: 50% 50%;
		        transform-origin: 50% 50%;
		-webkit-animation: rotateGearRight 12s linear 0s infinite;
		        animation: rotateGearRight 12s linear 0s infinite;
	}

	#giars-loader #small-gears #sm-gear1 {
		-webkit-transform-origin: 231.99px 102.83px;
		    -ms-transform-origin: 231.99px 102.83px;
		        transform-origin: 231.99px 102.83px;
		-webkit-animation: rotateSmallGearRight 12s linear 0s infinite;
		        animation: rotateSmallGearRight 12s linear 0s infinite;
	}

	#giars-loader #small-gears #sm-gear2 {
		-webkit-transform-origin: 67.59px 102.93px;
		    -ms-transform-origin: 67.59px 102.93px;
		        transform-origin: 67.59px 102.93px;
		-webkit-animation: rotateSmallGearRight 12s linear 0s infinite;
		        animation: rotateSmallGearRight 12s linear 0s infinite;
	}

	#giars-loader #small-gears #sm-gear3 {
		-webkit-transform-origin: 149.7px 244.98px;
		    -ms-transform-origin: 149.7px 244.98px;
		        transform-origin: 149.7px 244.98px;
		-webkit-animation: rotateSmallGearRight 12s linear 0s infinite;
		        animation: rotateSmallGearRight 12s linear 0s infinite;
	}

	@-webkit-keyframes rotateGearLeft {
		to {
			-webkit-transform: rotate(-360deg);
			        transform: rotate(-360deg);
		}
	}

	@keyframes rotateGearLeft {
		to {
			-webkit-transform: rotate(-360deg);
			        transform: rotate(-360deg);
		}
	}

	@-webkit-keyframes rotateGearRight {
		to {
			-webkit-transform: rotate(360deg);
			        transform: rotate(360deg);
		}
	}

	@keyframes rotateGearRight {
		to {
			-webkit-transform: rotate(360deg);
			        transform: rotate(360deg);
		}
	}

	@-webkit-keyframes rotateSmallGearRight {
		to {
			-webkit-transform: rotate(1440deg);
			        transform: rotate(1440deg);
		}
	}

	@keyframes rotateSmallGearRight {
		to {
			-webkit-transform: rotate(1440deg);
			        transform: rotate(1440deg);
		}
	}
</style>
</svg>
