<?xml version="1.0" encoding="utf-8"?>
<!-- Generator: Adobe Illustrator 19.0.0, SVG Export Plug-In . SVG Version: 6.00 Build 0)  -->
<svg version="1.1" id="animation_envelops_space"
	 xmlns="http://www.w3.org/2000/svg" xmlns:xlink="http://www.w3.org/1999/xlink" x="0px" y="0px" viewBox="0 0 1913 549.6"
	 style="enable-background:new 0 0 1913 549.6;" xml:space="preserve">
	<style type="text/css">
		.st0{fill:#4885ED;}
		.st1{fill:#F9D45F;}
		.st2{fill:#FFFFFF;}
		.st3{opacity:0.44;}
		.st4{fill:#303F9F;}
		.st5{opacity:0.61;fill:#FFFFFF;}
		.st6{fill:url(#SVGID_1_);}
		.st7{opacity:0.54;}
		.st8{opacity:0.2;fill:#FFFFFF;enable-background:new    ;}
		.st9{opacity:0.62;fill:#FFFFFF;enable-background:new    ;}
		.st10{opacity:0.18;fill:#303F9F;enable-background:new    ;}
		.st11{fill:#DB3236;}
		.st12{opacity:0.26;fill:#4885ED;enable-background:new    ;}
		.st13{opacity:0.6;fill:url(#SVGID_2_);enable-background:new    ;}
		.st14{opacity:0.95;fill:#303F9F;enable-background:new    ;}
		.st15{fill:url(#SVGID_3_);}
		.st16{fill:url(#SVGID_4_);}
		.st17{fill:url(#SVGID_5_);}
	</style>
	<defs>
		<clipPath id = "gen_rect">
			<rect class="st0" width="1913" height="549.6"/>
		</clipPath>
	</defs>
	<g style="clip-path: url(#gen_rect);">
		<rect class="st0" width="1913" height="549.6"/>
		<g id="starsIcons">
			<path id="h1_star1" class="st1" d="M1799.8,253.7l-4.2,1.3l4.2,1.3c1.7,0.5,3,1.8,3.5,3.5l1.3,4.2l1.3-4.2c0.5-1.7,1.8-3,3.5-3.5
				l4.2-1.3l-4.2-1.3c-1.7-0.5-3-1.8-3.5-3.5l-1.3-4.2l-1.3,4.2C1802.9,251.9,1801.5,253.2,1799.8,253.7z"/>
			<path id="h1_star2" class="st1" d="M857.2,461.3l-4.2,1.2l4.2,1.3c1.7,0.5,3,1.8,3.5,3.5l1.3,4.2l1.3-4.2c0.5-1.7,1.8-3,3.5-3.5
				l4.2-1.3l-4.2-1.3c-1.7-0.5-3-1.8-3.5-3.5l-1.3-4.1l-1.3,4.2C860.2,459.5,858.9,460.8,857.2,461.3z"/>
			<path id="h1_star3" class="st2" d="M1541.6,33.4l-4.2,1.3l4.2,1.3c1.7,0.5,3,1.8,3.5,3.5l1.3,4.2l1.3-4.2c0.5-1.7,1.8-3,3.5-3.5
				l4.2-1.3l-4.2-1.3c-1.7-0.5-3-1.8-3.5-3.5l-1.3-4.2l-1.3,4.2C1544.7,31.6,1543.3,32.9,1541.6,33.4z"/>
			<path id="h1_star4" class="st2" d="M1818.3,195l-4.2,1.3l4.2,1.3c1.7,0.5,3,1.8,3.5,3.5l1.3,4.2l1.3-4.2c0.5-1.7,1.8-3,3.5-3.5
				l4.2-1.3l-4.2-1.3c-1.7-0.5-3-1.8-3.5-3.5l-1.3-4.2l-1.3,4.2C1821.4,193.2,1820,194.5,1818.3,195z"/>
			<path id="h1_star5" class="st2" d="M686.1,450.5l-4.2,1.3l4.2,1.3c1.7,0.5,3,1.8,3.5,3.5l1.3,4.2l1.3-4.2c0.5-1.7,1.8-3,3.5-3.5
				l4.2-1.3l-4.2-1.3c-1.7-0.5-3-1.8-3.5-3.5l-1.3-4.2l-1.3,4.2C689.2,448.7,687.8,450,686.1,450.5z"/>
			<path id="h1_star6" class="st2" d="M1148.5,265.9l-4.2,1.3l4.2,1.3c1.7,0.5,3,1.8,3.5,3.5l1.3,4.2l1.3-4.2c0.5-1.7,1.8-3,3.5-3.5
				l4.2-1.3l-4.2-1.3c-1.7-0.5-3-1.8-3.5-3.5l-1.3-4.2l-1.3,4.2C1151.5,264.1,1150.2,265.4,1148.5,265.9z"/>
			<circle class="st2" cx="1015.3" cy="128.1" r="4.9"/>
			<circle class="st2" cx="1637.3" cy="223.5" r="4"/>
			<circle class="st2" cx="1791.6" cy="79.8" r="4"/>
			<circle class="st2" cx="1200.7" cy="43.7" r="2.4"/>
			<circle class="st2" cx="986.5" cy="417.2" r="1.7"/>
			<path class="st3" d="M1860.6,120.7c-0.2,5-1.4,9-3.7,12c-2.3,3-5.4,4.5-9.2,4.5c-1.6,0-3-0.3-4.2-1c-1.2-0.7-2.2-1.6-2.8-2.9
				c-1.9,2.5-4.4,3.8-7.6,3.8c-1.8,0-3.5-0.5-4.8-1.6c-1.4-1.1-2.4-2.6-3-4.6c-0.6-2-0.8-4.3-0.6-6.8c0.6-4.8,2.1-8.7,4.6-11.6
				c2.5-2.9,5.6-4.4,9.3-4.4c2.8,0,5.3,0.7,7.3,2l1.8,1.2l-1.5,16.8c-0.3,2.7,0.6,4,2.8,4c1.6,0,3-1,4.1-3.1s1.7-4.8,1.8-8
				c0.3-6.4-1-11.4-4-14.9s-7.4-5.2-13.1-5.2c-3.7,0-6.9,0.9-9.8,2.8s-5.1,4.5-6.8,8c-1.7,3.4-2.6,7.3-2.8,11.7
				c-0.3,6.7,1,11.9,4,15.4c3,3.6,7.5,5.3,13.5,5.3c1.6,0,3.3-0.2,5.1-0.6c1.8-0.4,3.3-0.8,4.4-1.3l1.1,4.8c-1.2,0.8-2.8,1.4-4.7,1.9
				c-2,0.5-4,0.7-6,0.7c-5.2,0-9.7-1-13.3-3c-3.6-2-6.3-5-8.1-8.9c-1.8-3.9-2.6-8.7-2.4-14.3c0.2-5.3,1.5-10.1,3.7-14.3
				c2.2-4.2,5.3-7.4,9.1-9.7c3.9-2.3,8.2-3.4,13-3.4c4.8,0,9,1,12.5,3s6.2,4.9,7.9,8.7C1859.9,111.6,1860.8,115.7,1860.6,120.7z
				 M1831.8,124c-0.2,2.5,0,4.4,0.6,5.7c0.6,1.3,1.6,1.9,2.9,1.9c0.9,0,1.7-0.4,2.5-1.2c0.8-0.8,1.4-2,1.9-3.5l1.2-13.1
				c-0.6-0.2-1.2-0.2-1.8-0.2c-2.2,0-3.8,0.8-5,2.5C1833,117.7,1832.2,120.4,1831.8,124z"/>
			<path class="st4" d="M1168.5,122c-0.2,5-1.4,9-3.7,12c-2.3,3-5.4,4.5-9.2,4.5c-1.6,0-3-0.3-4.2-1c-1.2-0.7-2.2-1.6-2.8-2.9
				c-1.9,2.5-4.4,3.8-7.6,3.8c-1.8,0-3.5-0.5-4.8-1.6c-1.4-1.1-2.4-2.6-3-4.6c-0.6-2-0.8-4.3-0.6-6.8c0.6-4.8,2.1-8.7,4.6-11.6
				c2.5-2.9,5.6-4.4,9.3-4.4c2.8,0,5.3,0.7,7.3,2l1.8,1.2l-1.6,16.7c-0.3,2.7,0.6,4,2.8,4c1.6,0,3-1,4.1-3.1s1.7-4.8,1.8-8
				c0.3-6.4-1-11.4-4-14.9c-3-3.5-7.4-5.2-13.1-5.2c-3.7,0-6.9,0.9-9.8,2.8c-2.9,1.9-5.1,4.5-6.8,8c-1.7,3.4-2.6,7.3-2.8,11.7
				c-0.3,6.7,1,11.9,4,15.4c3,3.6,7.5,5.3,13.5,5.3c1.6,0,3.3-0.2,5.1-0.6c1.8-0.4,3.3-0.8,4.4-1.3l1.1,4.8c-1.2,0.8-2.8,1.4-4.7,1.9
				c-2,0.5-4,0.7-6,0.7c-5.2,0-9.7-1-13.3-3c-3.6-2-6.3-5-8.1-8.9c-1.8-3.9-2.6-8.7-2.4-14.3c0.2-5.3,1.5-10.1,3.7-14.3
				c2.2-4.2,5.3-7.4,9.1-9.7c3.9-2.3,8.2-3.4,13-3.4s9,1,12.5,3c3.5,2,6.2,4.9,7.9,8.7C1167.7,112.8,1168.7,117,1168.5,122z
				 M1139.8,125.3c-0.2,2.5,0,4.4,0.6,5.7s1.6,1.9,2.9,1.9c0.9,0,1.7-0.4,2.5-1.2c0.8-0.8,1.4-2,1.9-3.5l1.2-13.1
				c-0.6-0.2-1.2-0.2-1.8-0.2c-2.2,0-3.8,0.8-5,2.5C1140.9,119,1140.2,121.7,1139.8,125.3z"/>
			<path class="st5" d="M897.1,356.5c-0.1,3.8-1.1,6.8-2.8,9c-1.7,2.2-4,3.4-6.9,3.4c-1.2,0-2.2-0.3-3.1-0.8c-0.9-0.5-1.6-1.2-2.1-2.2
				c-1.4,1.9-3.3,2.9-5.7,2.9c-1.4,0-2.6-0.4-3.6-1.2c-1-0.8-1.8-2-2.3-3.5c-0.5-1.5-0.6-3.2-0.4-5.1c0.4-3.6,1.6-6.5,3.5-8.7
				c1.9-2.2,4.2-3.3,7-3.3c2.1,0,4,0.5,5.5,1.5l1.4,0.9l-1.1,12.7c-0.2,2,0.4,3,2.1,3c1.2,0,2.3-0.8,3.1-2.4c0.8-1.6,1.3-3.6,1.4-6
				c0.2-4.8-0.8-8.6-3-11.2c-2.2-2.6-5.5-3.9-9.9-3.9c-2.8,0-5.2,0.7-7.4,2.1c-2.1,1.4-3.8,3.4-5.1,6s-2,5.5-2.1,8.8
				c-0.2,5.1,0.8,8.9,3,11.6c2.2,2.7,5.6,4,10.1,4c1.2,0,2.5-0.1,3.9-0.4c1.4-0.3,2.5-0.6,3.3-1l0.8,3.6c-0.9,0.6-2.1,1-3.6,1.4
				c-1.5,0.4-3,0.5-4.5,0.5c-3.9,0-7.3-0.8-10-2.3c-2.7-1.5-4.8-3.7-6.1-6.7s-1.9-6.6-1.8-10.8c0.2-4,1.1-7.6,2.8-10.7
				c1.7-3.2,4-5.6,6.8-7.3c2.9-1.7,6.2-2.6,9.8-2.6c3.6,0,6.8,0.8,9.4,2.3c2.6,1.5,4.6,3.7,6,6.5C896.7,349.5,897.3,352.7,897.1,356.5
				z M875.5,358.9c-0.2,1.9,0,3.3,0.4,4.3c0.5,1,1.2,1.4,2.2,1.4c0.7,0,1.3-0.3,1.9-0.9c0.6-0.6,1-1.5,1.4-2.6l0.9-9.9
				c-0.4-0.1-0.9-0.2-1.3-0.2c-1.6,0-2.9,0.6-3.7,1.9C876.4,354.2,875.8,356.2,875.5,358.9z"/>
			<circle class="st2" cx="1369.5" cy="63.4" r="2"/>
		</g>
		<radialGradient id="SVGID_1_" cx="1204.6176" cy="443.988" r="96" gradientTransform="matrix(6.6043 -1.3132 0.491 2.4694 -6739.9102 1002.1611)" gradientUnits="userSpaceOnUse">
			<stop  offset="0" style="stop-color:#000000;stop-opacity:0.8"/>
			<stop  offset="0.8587" style="stop-color:#000000;stop-opacity:0.1131"/>
			<stop  offset="1" style="stop-color:#000000;stop-opacity:0"/>
		</radialGradient>
		<path class="st6" d="M1913,273.7c-127.1-34.7-318.8-35.3-526.4,5.9C1113,334,892.9,445.1,822,553.5h11.4c0.8-1.2,2.1-2,3.9-2h561.5
			c0.7-0.4,1.5-0.7,2.5-0.7H1913V273.7z"/>
		<g id="envelope3">
			<g class="st7">
				<rect x="1595.9" y="182.6" class="st8" width="20.2" height="309.9"/>
				<rect x="1661.3" y="182.6" class="st8" width="20.2" height="309.9"/>
				<rect x="1608.6" y="182.6" class="st8" width="20.2" height="309.9"/>
				<rect x="1715.9" y="182.6" class="st8" width="5.1" height="309.9"/>
				<rect x="1727.9" y="182.6" class="st8" width="5.1" height="309.9"/>
				<rect x="1690" y="182.6" class="st8" width="20.2" height="309.9"/>
				<rect x="1621.3" y="182.6" class="st8" width="4.9" height="309.9"/>
				<rect x="1636.4" y="182.6" class="st9" width="4.9" height="309.9"/>
				<rect x="1666.5" y="182.6" class="st9" width="2.5" height="309.9"/>
				<rect x="1693.5" y="182.6" class="st9" width="1.2" height="309.9"/>
				<rect x="1698.6" y="182.6" class="st9" width="1.2" height="309.9"/>
				<rect x="1651.5" y="182.6" class="st8" width="8.7" height="309.9"/>
			</g>
			<g>
				<rect x="1598" y="90.1" class="st10" width="140.8" height="85.8"/>
				<rect x="1593.1" y="95" class="st2" width="140.8" height="85.8"/>
				<g>
					<g>
						<polygon class="st11" points="1596.3,95 1593.1,95 1593.9,96.4 				"/>
						<polygon class="st4" points="1602.9,95 1599.7,95 1595.9,97.2 1597.2,98.2 				"/>
						<polygon class="st11" points="1609.2,95 1606.1,95 1596.1,100.7 1600.4,100.1 				"/>
						<polygon class="st4" points="1615.7,95 1612.6,95 1602.7,100.7 1605.8,100.7 				"/>
						<polygon class="st11" points="1622.1,95 1618.9,95 1609,100.7 1612.1,100.7 				"/>
						<polygon class="st4" points="1628.6,95 1625.5,95 1615.5,100.7 1618.7,100.7 				"/>
						<polygon class="st11" points="1634.9,95 1631.8,95 1621.9,100.7 1625,100.7 				"/>
						<polygon class="st4" points="1641.5,95 1638.3,95 1628.4,100.7 1631.5,100.7 				"/>
						<polygon class="st11" points="1647.8,95 1644.7,95 1634.7,100.7 1637.9,100.7 				"/>
						<polygon class="st4" points="1654.3,95 1651.2,95 1641.3,100.7 1644.4,100.7 				"/>
						<polygon class="st11" points="1660.7,95 1657.5,95 1647.6,100.7 1650.7,100.7 				"/>
						<polygon class="st11" points="1673.5,95 1670.4,95 1660.5,100.7 1663.6,100.7 				"/>
						<polygon class="st4" points="1680.1,95 1676.9,95 1667,100.7 1670.1,100.7 				"/>
						<polygon class="st11" points="1686.4,95 1683.3,95 1673.4,100.7 1676.5,100.7 				"/>
						<polygon class="st4" points="1692.9,95 1689.8,95 1679.9,100.7 1683,100.7 				"/>
						<polygon class="st11" points="1699.3,95 1696.2,95 1686.2,100.7 1689.3,100.7 				"/>
						<polygon class="st4" points="1705.8,95 1702.7,95 1692.8,100.7 1695.9,100.7 				"/>
						<polygon class="st11" points="1712.2,95 1709,95 1699.1,100.7 1702.2,100.7 				"/>
						<polygon class="st4" points="1718.7,95 1715.6,95 1705.6,100.7 1708.7,100.7 				"/>
						<polygon class="st11" points="1725,95 1721.9,95 1712,100.7 1715.1,100.7 				"/>
						<polygon class="st4" points="1731.6,95 1728.4,95 1718.5,100.7 1721.6,100.7 				"/>
						<polygon class="st4" points="1667.2,95 1664.1,95 1654.1,100.7 1657.3,100.7 				"/>
					</g>
					<polygon class="st4" points="1733.9,95 1733.9,95 1732.5,95 1663.5,139.9 1594.6,95 1593.1,95 1593.1,95 1593.1,96 1663.5,141.8 
						1733.9,96 			"/>
					<g>
						<g>
							<g>
								<polygon class="st11" points="1730.7,181.1 1733.9,181.1 1732.9,180 						"/>
								<polygon class="st4" points="1724.2,181.1 1727.3,181.1 1730.8,179.1 1729.9,177.9 						"/>
								<polygon class="st11" points="1717.8,181.1 1721,181.1 1728.3,177 1726.9,176 						"/>
								<polygon class="st4" points="1711.3,181.1 1714.4,181.1 1724.4,175.5 1721.2,175.5 						"/>
								<polygon class="st11" points="1705,181.1 1708.1,181.1 1718,175.5 1714.9,175.5 						"/>
								<polygon class="st4" points="1698.4,181.1 1701.6,181.1 1711.5,175.5 1708.4,175.5 						"/>
								<polygon class="st11" points="1692.1,181.1 1695.2,181.1 1705.2,175.5 1702,175.5 						"/>
								<polygon class="st4" points="1685.6,181.1 1688.7,181.1 1698.6,175.5 1695.5,175.5 						"/>
								<polygon class="st11" points="1679.2,181.1 1682.3,181.1 1692.3,175.5 1689.2,175.5 						"/>
								<polygon class="st4" points="1672.7,181.1 1675.8,181.1 1685.8,175.5 1682.6,175.5 						"/>
								<polygon class="st11" points="1666.4,181.1 1669.5,181.1 1679.4,175.5 1676.3,175.5 						"/>
								<polygon class="st11" points="1653.5,181.1 1656.6,181.1 1666.5,175.5 1663.4,175.5 						"/>
								<polygon class="st4" points="1647,181.1 1650.1,181.1 1660,175.5 1656.9,175.5 						"/>
								<polygon class="st11" points="1640.6,181.1 1643.7,181.1 1653.7,175.5 1650.5,175.5 						"/>
								<polygon class="st4" points="1634.1,181.1 1637.2,181.1 1647.1,175.5 1644,175.5 						"/>
								<polygon class="st11" points="1627.7,181.1 1630.9,181.1 1640.8,175.5 1637.7,175.5 						"/>
								<polygon class="st4" points="1621.2,181.1 1624.3,181.1 1634.3,175.5 1631.1,175.5 						"/>
								<polygon class="st11" points="1614.9,181.1 1618,181.1 1627.9,175.5 1624.8,175.5 						"/>
								<polygon class="st4" points="1608.3,181.1 1611.5,181.1 1621.4,175.5 1618.3,175.5 						"/>
								<polygon class="st11" points="1602,181.1 1605.1,181.1 1615.1,175.5 1611.9,175.5 						"/>
								<polygon class="st4" points="1595.5,181.1 1598.6,181.1 1608.5,175.5 1605.4,175.5 						"/>
								<polygon class="st4" points="1659.8,181.1 1662.9,181.1 1672.9,175.5 1669.8,175.5 						"/>
							</g>
							<g>
								<polygon class="st4" points="1657.8,138.1 1593.1,180.2 1593.1,181.1 1593.1,181.1 1594.6,181.1 1659.3,139 						"/>
								<polygon class="st4" points="1669.2,138.1 1667.7,139 1732.5,181.1 1733.9,181.1 1733.9,181.1 1733.9,180.2 						"/>
							</g>
							<polygon class="st12" points="1593.1,96 1663.6,154.3 1733.9,96 1663.5,141.8 					"/>
						</g>
					</g>
				</g>
			</g>
		</g>
		<g id="envelope2">
			<g class="st7">
				<rect x="1229.8" y="227.8" class="st8" width="36.1" height="260.3"/>
				<rect x="1346.7" y="227.8" class="st8" width="36.1" height="260.3"/>
				<rect x="1252.5" y="227.8" class="st8" width="36.1" height="260.3"/>
				<rect x="1444.3" y="227.8" class="st8" width="9.1" height="260.3"/>
				<rect x="1465.7" y="227.8" class="st8" width="9.1" height="260.3"/>
				<rect x="1398" y="227.8" class="st8" width="36.1" height="260.3"/>
				<rect x="1275.2" y="227.8" class="st8" width="8.8" height="260.3"/>
				<rect x="1302.2" y="227.8" class="st9" width="8.8" height="260.3"/>
				<rect x="1356" y="227.8" class="st9" width="4.5" height="260.3"/>
				<rect x="1404.3" y="227.8" class="st9" width="2.1" height="260.3"/>
				<rect x="1413.4" y="227.8" class="st9" width="2.1" height="260.3"/>
				<rect x="1329.2" y="227.8" class="st8" width="15.5" height="260.3"/>
			</g>
			<g>
				<rect x="1233.6" y="62.5" class="st10" width="251.6" height="153.3"/>
				<rect x="1224.8" y="71.3" class="st2" width="251.6" height="153.3"/>
				<g>
					<g>
						<polygon class="st11" points="1230.6,71.3 1224.8,71.3 1226.3,73.7 				"/>
						<polygon class="st4" points="1242.4,71.3 1236.6,71.3 1229.8,75.2 1232.2,77.1 				"/>
						<polygon class="st11" points="1253.6,71.3 1248.1,71.3 1230.2,81.4 1237.8,80.3 				"/>
						<polygon class="st4" points="1265.2,71.3 1259.7,71.3 1242,81.4 1247.5,81.4 				"/>
						<polygon class="st11" points="1276.7,71.3 1270.9,71.3 1253.3,81.4 1258.8,81.4 				"/>
						<polygon class="st4" points="1288.3,71.3 1282.7,71.3 1264.9,81.4 1270.6,81.4 				"/>
						<polygon class="st11" points="1299.5,71.3 1294,71.3 1276.3,81.4 1281.8,81.4 				"/>
						<polygon class="st4" points="1311.3,71.3 1305.6,71.3 1287.9,81.4 1293.5,81.4 				"/>
						<polygon class="st11" points="1322.6,71.3 1317,71.3 1299.2,81.4 1304.9,81.4 				"/>
						<polygon class="st4" points="1334.2,71.3 1328.7,71.3 1311,81.4 1316.5,81.4 				"/>
						<polygon class="st11" points="1345.6,71.3 1339.9,71.3 1322.2,81.4 1327.8,81.4 				"/>
						<polygon class="st11" points="1368.5,71.3 1363,71.3 1345.3,81.4 1350.8,81.4 				"/>
						<polygon class="st4" points="1380.3,71.3 1374.6,71.3 1356.9,81.4 1362.4,81.4 				"/>
						<polygon class="st11" points="1391.6,71.3 1386,71.3 1368.3,81.4 1373.9,81.4 				"/>
						<polygon class="st4" points="1403.2,71.3 1397.6,71.3 1379.9,81.4 1385.5,81.4 				"/>
						<polygon class="st11" points="1414.6,71.3 1409.1,71.3 1391.2,81.4 1396.7,81.4 				"/>
						<polygon class="st4" points="1426.2,71.3 1420.7,71.3 1403,81.4 1408.5,81.4 				"/>
						<polygon class="st11" points="1437.7,71.3 1432,71.3 1414.3,81.4 1419.8,81.4 				"/>
						<polygon class="st4" points="1449.3,71.3 1443.7,71.3 1425.9,81.4 1431.4,81.4 				"/>
						<polygon class="st11" points="1460.5,71.3 1455,71.3 1437.3,81.4 1442.9,81.4 				"/>
						<polygon class="st4" points="1472.3,71.3 1466.6,71.3 1448.9,81.4 1454.5,81.4 				"/>
						<polygon class="st4" points="1357.3,71.3 1351.7,71.3 1333.8,81.4 1339.6,81.4 				"/>
					</g>
					<polygon class="st4" points="1476.4,71.3 1476.4,71.3 1473.9,71.3 1350.6,151.5 1227.5,71.3 1224.8,71.3 1224.8,71.3 
						1224.8,73.1 1350.6,154.9 1476.4,73.1 			"/>
					<g>
						<g>
							<g>
								<polygon class="st11" points="1470.7,225.1 1476.4,225.1 1474.7,223.2 						"/>
								<polygon class="st4" points="1459.1,225.1 1464.7,225.1 1471,221.6 1469.3,219.4 						"/>
								<polygon class="st11" points="1447.7,225.1 1453.4,225.1 1466.4,217.7 1463.9,216 						"/>
								<polygon class="st4" points="1436.1,225.1 1441.6,225.1 1459.5,215.1 1453.8,215.1 						"/>
								<polygon class="st11" points="1424.8,225.1 1430.3,225.1 1448,215.1 1442.5,215.1 						"/>
								<polygon class="st4" points="1413,225.1 1418.7,225.1 1436.4,215.1 1430.9,215.1 						"/>
								<polygon class="st11" points="1401.8,225.1 1407.3,225.1 1425.2,215.1 1419.4,215.1 						"/>
								<polygon class="st4" points="1390.1,225.1 1395.7,225.1 1413.4,215.1 1407.8,215.1 						"/>
								<polygon class="st11" points="1378.7,225.1 1384.2,225.1 1402.1,215.1 1396.6,215.1 						"/>
								<polygon class="st4" points="1367.1,225.1 1372.6,225.1 1390.5,215.1 1384.8,215.1 						"/>
								<polygon class="st11" points="1355.8,225.1 1361.4,225.1 1379.1,215.1 1373.5,215.1 						"/>
								<polygon class="st11" points="1332.8,225.1 1338.3,225.1 1356,215.1 1350.5,215.1 						"/>
								<polygon class="st4" points="1321.2,225.1 1326.7,225.1 1344.4,215.1 1338.8,215.1 						"/>
								<polygon class="st11" points="1309.7,225.1 1315.3,225.1 1333.1,215.1 1327.4,215.1 						"/>
								<polygon class="st4" points="1298.1,225.1 1303.6,225.1 1321.3,215.1 1315.8,215.1 						"/>
								<polygon class="st11" points="1286.7,225.1 1292.4,225.1 1310.1,215.1 1304.5,215.1 						"/>
								<polygon class="st4" points="1275.1,225.1 1280.6,225.1 1298.5,215.1 1292.7,215.1 						"/>
								<polygon class="st11" points="1263.8,225.1 1269.3,225.1 1287,215.1 1281.5,215.1 						"/>
								<polygon class="st4" points="1252,225.1 1257.7,225.1 1275.4,215.1 1269.9,215.1 						"/>
								<polygon class="st11" points="1240.7,225.1 1246.3,225.1 1264.2,215.1 1258.4,215.1 						"/>
								<polygon class="st4" points="1229.1,225.1 1234.7,225.1 1252.4,215.1 1246.8,215.1 						"/>
								<polygon class="st4" points="1344,225.1 1349.6,225.1 1367.4,215.1 1361.9,215.1 						"/>
							</g>
							<g>
								<polygon class="st4" points="1340.5,148.3 1224.8,223.5 1224.8,225.1 1224.8,225.1 1227.5,225.1 1343.1,149.9 						"/>
								<polygon class="st4" points="1360.8,148.3 1358.1,149.9 1473.9,225.1 1476.4,225.1 1476.4,225.1 1476.4,223.5 						"/>
							</g>
							<polygon class="st12" points="1224.8,73.1 1350.8,177.2 1476.4,73.1 1350.6,154.9 					"/>
						</g>
					</g>
				</g>
			</g>
		</g>
		<g id="envelope1">
			<g class="st7">
				<rect x="927.4" y="363.6" class="st8" width="24.2" height="179.3"/>
				<rect x="1005.8" y="363.6" class="st8" width="24.2" height="179.3"/>
				<rect x="942.6" y="363.6" class="st8" width="24.2" height="179.3"/>
				<rect x="1071.3" y="363.6" class="st8" width="6.1" height="179.3"/>
				<rect x="1085.7" y="363.6" class="st8" width="6.1" height="179.3"/>
				<rect x="1040.3" y="363.6" class="st8" width="24.2" height="179.3"/>
				<rect x="957.9" y="363.6" class="st8" width="5.9" height="179.3"/>
				<rect x="976" y="363.6" class="st9" width="5.9" height="179.3"/>
				<rect x="1012.1" y="363.6" class="st9" width="3" height="179.3"/>
				<rect x="1044.5" y="363.6" class="st9" width="1.4" height="179.3"/>
				<rect x="1050.6" y="363.6" class="st9" width="1.4" height="179.3"/>
				<rect x="994.1" y="363.6" class="st8" width="10.4" height="179.3"/>
			</g>
			<g>
				<rect x="929.9" y="252.6" class="st10" width="168.9" height="102.9"/>
				<rect x="924" y="258.5" class="st2" width="168.9" height="102.9"/>
				<g>
					<g>
						<polygon class="st11" points="927.9,258.5 924,258.5 925,260.2 				"/>
						<polygon class="st4" points="935.8,258.5 931.9,258.5 927.4,261.1 929,262.4 				"/>
						<polygon class="st11" points="943.3,258.5 939.6,258.5 927.6,265.3 932.8,264.6 				"/>
						<polygon class="st4" points="951.1,258.5 947.4,258.5 935.5,265.3 939.3,265.3 				"/>
						<polygon class="st11" points="958.8,258.5 955,258.5 943.1,265.3 946.8,265.3 				"/>
						<polygon class="st4" points="966.6,258.5 962.9,258.5 950.9,265.3 954.7,265.3 				"/>
						<polygon class="st11" points="974.2,258.5 970.4,258.5 958.6,265.3 962.3,265.3 				"/>
						<polygon class="st4" points="982.1,258.5 978.2,258.5 966.4,265.3 970.1,265.3 				"/>
						<polygon class="st11" points="989.6,258.5 985.9,258.5 973.9,265.3 977.8,265.3 				"/>
						<polygon class="st4" points="997.4,258.5 993.7,258.5 981.8,265.3 985.6,265.3 				"/>
						<polygon class="st11" points="1005.1,258.5 1001.3,258.5 989.4,265.3 993.1,265.3 				"/>
						<polygon class="st11" points="1020.5,258.5 1016.7,258.5 1004.9,265.3 1008.6,265.3 				"/>
						<polygon class="st4" points="1028.4,258.5 1024.5,258.5 1012.7,265.3 1016.4,265.3 				"/>
						<polygon class="st11" points="1035.9,258.5 1032.2,258.5 1020.3,265.3 1024.1,265.3 				"/>
						<polygon class="st4" points="1043.7,258.5 1040,258.5 1028.1,265.3 1031.9,265.3 				"/>
						<polygon class="st11" points="1051.4,258.5 1047.7,258.5 1035.7,265.3 1039.4,265.3 				"/>
						<polygon class="st4" points="1059.2,258.5 1055.5,258.5 1043.6,265.3 1047.3,265.3 				"/>
						<polygon class="st11" points="1066.9,258.5 1063,258.5 1051.2,265.3 1054.9,265.3 				"/>
						<polygon class="st4" points="1074.7,258.5 1071,258.5 1059,265.3 1062.7,265.3 				"/>
						<polygon class="st11" points="1082.2,258.5 1078.5,258.5 1066.6,265.3 1070.4,265.3 				"/>
						<polygon class="st4" points="1090.2,258.5 1086.3,258.5 1074.4,265.3 1078.2,265.3 				"/>
						<polygon class="st4" points="1012.9,258.5 1009.2,258.5 997.2,265.3 1001,265.3 				"/>
					</g>
					<polygon class="st4" points="1092.9,258.5 1092.9,258.5 1091.2,258.5 1008.5,312.4 925.8,258.5 924,258.5 924,258.5 924,259.7 
						1008.5,314.6 1092.9,259.7 			"/>
					<g>
						<g>
							<g>
								<polygon class="st11" points="1089.1,361.8 1092.9,361.8 1091.8,360.5 						"/>
								<polygon class="st4" points="1081.3,361.8 1085,361.8 1089.2,359.4 1088.1,357.9 						"/>
								<polygon class="st11" points="1073.6,361.8 1077.4,361.8 1086.2,356.8 1084.5,355.7 						"/>
								<polygon class="st4" points="1065.8,361.8 1069.5,361.8 1081.5,355.1 1077.7,355.1 						"/>
								<polygon class="st11" points="1058.3,361.8 1062,361.8 1073.8,355.1 1070.1,355.1 						"/>
								<polygon class="st4" points="1050.3,361.8 1054.2,361.8 1066,355.1 1062.3,355.1 						"/>
								<polygon class="st11" points="1042.8,361.8 1046.5,361.8 1058.5,355.1 1054.7,355.1 						"/>
								<polygon class="st4" points="1035,361.8 1038.7,361.8 1050.6,355.1 1046.9,355.1 						"/>
								<polygon class="st11" points="1027.3,361.8 1031,361.8 1043,355.1 1039.3,355.1 						"/>
								<polygon class="st4" points="1019.5,361.8 1023.2,361.8 1035.2,355.1 1031.4,355.1 						"/>
								<polygon class="st11" points="1011.9,361.8 1015.7,361.8 1027.5,355.1 1023.8,355.1 						"/>
								<polygon class="st11" points="996.5,361.8 1000.2,361.8 1012.1,355.1 1008.4,355.1 						"/>
								<polygon class="st4" points="988.7,361.8 992.4,361.8 1004.3,355.1 1000.6,355.1 						"/>
								<polygon class="st11" points="981,361.8 984.7,361.8 996.7,355.1 992.9,355.1 						"/>
								<polygon class="st4" points="973.2,361.8 976.9,361.8 988.8,355.1 985.1,355.1 						"/>
								<polygon class="st11" points="965.5,361.8 969.4,361.8 981.2,355.1 977.5,355.1 						"/>
								<polygon class="st4" points="957.7,361.8 961.4,361.8 973.4,355.1 969.6,355.1 						"/>
								<polygon class="st11" points="950.2,361.8 953.9,361.8 965.8,355.1 962,355.1 						"/>
								<polygon class="st4" points="942.3,361.8 946.1,361.8 958,355.1 954.3,355.1 						"/>
								<polygon class="st11" points="934.7,361.8 938.4,361.8 950.4,355.1 946.6,355.1 						"/>
								<polygon class="st4" points="926.9,361.8 930.6,361.8 942.5,355.1 938.8,355.1 						"/>
								<polygon class="st4" points="1004,361.8 1007.8,361.8 1019.7,355.1 1016,355.1 						"/>
							</g>
							<g>
								<polygon class="st4" points="1001.6,310.2 924,360.7 924,361.8 924,361.8 925.8,361.8 1003.4,311.3 						"/>
								<polygon class="st4" points="1015.3,310.2 1013.5,311.3 1091.2,361.8 1092.9,361.8 1092.9,361.8 1092.9,360.7 						"/>
							</g>
							<polygon class="st12" points="924,259.7 1008.6,329.6 1092.9,259.7 1008.5,314.6 					"/>
						</g>
					</g>
				</g>
			</g>
		</g>
	</g>
	<g id="moon">
			<path class="st2" d="M860.7,553.5H1913V299.1c-73.6-12.1-149.2-18.4-226.2-18.4C1378,280.8,1092.5,382,860.7,553.5z"/>
			
				<linearGradient id="SVGID_2_" gradientUnits="userSpaceOnUse" x1="1386.8441" y1="65.61" x2="1386.8441" y2="338.3527" gradientTransform="matrix(1 0 0 -1 0 619.11)">
				<stop  offset="0" style="stop-color:#FFFFFF"/>
				<stop  offset="7.027966e-002" style="stop-color:#FEFAEB;stop-opacity:0.9859"/>
				<stop  offset="0.4161" style="stop-color:#FAE28D;stop-opacity:0.9168"/>
				<stop  offset="0.6966" style="stop-color:#F7D148;stop-opacity:0.8607"/>
				<stop  offset="0.8977" style="stop-color:#F5C61D;stop-opacity:0.8205"/>
				<stop  offset="1" style="stop-color:#F4C20D;stop-opacity:0.8"/>
			</linearGradient>
			<path class="st13" d="M860.7,553.5H1913V299.1c-73.6-12.1-149.2-18.4-226.2-18.4C1378.1,280.8,1092.5,382,860.7,553.5z"/>
			<path class="st14" d="M1156.7,511.2c-18.4,15.8-18.7,29.6-0.7,31.5c14.4,1.5,41.8-5.1,67.9-23.4c1.3-8.8,12.4-15.3,14.7-16.5
				c2.6-1.4,8.8-4.8,6.2-13.7C1235.8,472.1,1183.8,488,1156.7,511.2"/>
			
				<radialGradient id="SVGID_3_" cx="1151.0629" cy="516.1204" r="22" gradientTransform="matrix(2.0206 -0.9658 0.3249 0.6798 -1299.4484 1272.2855)" gradientUnits="userSpaceOnUse">
				<stop  offset="0.8275" style="stop-color:#000000;stop-opacity:0.37"/>
				<stop  offset="1" style="stop-color:#000000;stop-opacity:0"/>
			</radialGradient>
			<path class="st15" d="M1238.5,490.2c3.9,8.3-12.8,24.5-37.3,36.2s-47.7,14.6-51.6,6.3c-3.9-8.3,12.8-24.5,37.3-36.2
				S1234.6,482,1238.5,490.2z"/>
			<path class="st14" d="M1677.3,363c-3.3,1.5-3.8,3.3-1.2,4.3c5.7,2.2,22.2-0.7,20.8-4.7C1694.8,359.7,1683.1,360.4,1677.3,363"/>
			<path class="st14" d="M1521.9,473.4c-4.4,4.1-1.6,8.1,5.7,8.4c9,0.3,19.8-5.4,16.9-10.6C1540.5,466.3,1527.4,468.3,1521.9,473.4"/>
			<path class="st14" d="M1230.3,508.8c-9.7,8.7-8.2,16.3,3.3,16.9c18,0.9,47.9-15.7,44.2-27.5
				C1272.1,488.7,1243.8,496.7,1230.3,508.8"/>
			
				<radialGradient id="SVGID_4_" cx="1185.5369" cy="537.6836" r="22" gradientTransform="matrix(1.1048 -0.488 0.1719 0.389 -151.0265 878.9095)" gradientUnits="userSpaceOnUse">
				<stop  offset="0.8275" style="stop-color:#000000;stop-opacity:0.37"/>
				<stop  offset="1" style="stop-color:#000000;stop-opacity:0"/>
			</radialGradient>
			<path class="st16" d="M1275.5,498.8c2.1,4.7-7.1,13.4-20.5,19.3c-13.4,5.9-26,6.9-28.1,2.2c-2.1-4.7,7.1-13.4,20.5-19.3
				C1260.8,495,1273.4,494,1275.5,498.8z"/>
			<path class="st14" d="M1356.7,372.3c-65.3,28.3-85.3,60-46.5,73.8c80.5,28.7,328.6-49.8,327.8-103.6
				C1624,309.7,1446.6,333.4,1356.7,372.3"/>
			
				<radialGradient id="SVGID_5_" cx="1276.9485" cy="517.851" r="22" gradientTransform="matrix(6.7167 -1.5798 0.3819 1.6236 -7313.6333 1566.0032)" gradientUnits="userSpaceOnUse">
				<stop  offset="0.8275" style="stop-color:#000000;stop-opacity:0.37"/>
				<stop  offset="1" style="stop-color:#000000;stop-opacity:0"/>
			</radialGradient>
			<path class="st17" d="M1608.8,354.7c4.6,19.7-57.8,51.3-139.4,70.5c-81.6,19.2-151.5,18.8-156.2-1c-4.6-19.7,57.8-51.3,139.4-70.5
				C1534.3,334.5,1604.2,334.9,1608.8,354.7z"/>
			<path class="st14" d="M1913,406.3c-7.7,2.5-14.2,5.8-18.7,9.7c-17.6,15.1-6.9,34.8,18.7,46.9V406.3z"/>
	</g>
	

	<style>


		#animation_envelops_space #starsIcons {
			transform: translate(1200px, 400px) scale(0.3, 0.3);
			opacity: 0;
			animation: showstarsIcons 1.5s ease-out 0s forwards;
		}

		#animation_envelops_space #envelope1 {
			transform: translateY(400px);
			animation: bounceEnvelope 1.2s linear 0.3s forwards;
		}

		#animation_envelops_space #envelope2 {
			transform: translateY(400px);
			animation: bounceEnvelope 1.2s linear 0s forwards;
		}

		#animation_envelops_space #envelope3 {
			transform: translateY(400px);
			animation: bounceEnvelope 1.2s linear 0.5s forwards;
		}

		#animation_envelops_space #h1_star1, #animation_envelops_space #h1_star2 {
			animation: blinkIconStars 1s ease-in 0.5s alternate infinite;
		}

		#animation_envelops_space #h1_star3, #animation_envelops_space #h1_star4 {
			animation: blinkIconStars 1s ease-in 1s alternate infinite;
		}

		#animation_envelops_space #h1_star5, #animation_envelops_space #h1_star6 {
			animation: blinkIconStars 1s ease-in 2s alternate infinite;
		}


		@keyframes showstarsIcons {
			0% {
				opacity: 0;
		    transform: translate(1100px, 400px) scale(0.3, 0.3);
		  }
			100% {
				opacity: 1;
				transform: translate(0px, 0px) scale(1, 1);
			}
		}

		@keyframes bounceEnvelope {
			0% {
		    transform: translateY(400px);
		  }
			20% {
				transform: translateY(0px);
			}
			40% {
				transform: translateY(100px);
			}
			60% {
				transform: translateY(0px);
			}
			80% {
				transform: translateY(25px);
			}
			100% {
				transform: translateY(0px);
			}
		}

		@keyframes blinkIconStars {
			0% {
		    opacity: 1;
		  }
			100% {
				 opacity: 0;
			}
		}

		@keyframes showSVG {
			0% {
		    opacity: 0;
		  }
			100% {
				 opacity: 1;
			}
		}

	</style>

</svg>
