<?xml version="1.0" encoding="utf-8"?>
<!-- Generator: Adobe Illustrator 19.0.0, SVG Export Plug-In . SVG Version: 6.00 Build 0)  -->
<svg version="1.1" id="animation_sky_clouds"
	 xmlns="http://www.w3.org/2000/svg" xmlns:xlink="http://www.w3.org/1999/xlink" x="0px" y="0px" viewBox="0 0 1920 808.5"
	 style="enable-background:new 0 0 1920 808.5;" xml:space="preserve">
<style type="text/css">
	.st0{fill:#0268BC;}
	.st1{fill:url(#SVGID_1_);}
	.st2{fill:#005691;}
	.st3{fill:#FFFFFF;}
	.st4{fill:none;stroke:#29ACED;stroke-width:5;stroke-miterlimit:10;}
	.st5{fill:#29ACED;}
	.st6{fill:none;stroke:#FFFFFF;stroke-width:5;stroke-miterlimit:10;}
</style>
<g id="bg">
	<rect y="0" class="st0" width="1920" height="808.5"/>
	<linearGradient id="SVGID_1_" gradientUnits="userSpaceOnUse" x1="959.8792" y1="808.5" x2="959.8792" y2="469.4">
		<stop  offset="0" style="stop-color:#3288C2"/>
		<stop  offset="1" style="stop-color:#3288C2;stop-opacity:0"/>
	</linearGradient>
	<rect x="-2.3" y="469.4" class="st1" width="1924.3" height="339.1"/>
</g>
<g id="cloud1">
	<path class="st2" d="M167.2,180.8H130c-5.6-24.5-27.5-42.7-53.7-42.7h-0.1c-4.4-21.1-23.2-37-45.6-37c-7,0-13.7,1.6-19.7,4.4
		C1.3,82.1-21.8,65.6-48.6,65.6c-35.6,0-64.4,28.8-64.4,64.4c0,0.1,0,0.3,0,0.4c-2-0.3-4-0.4-6-0.4c-25.8,0-46.7,20.9-46.7,46.7
		c0,1.4,0.1,2.8,0.2,4.2h-1.1c-34.4-0.1-62.3,27.8-62.3,62.2l0,0h458.4l0,0C229.5,208.7,201.6,180.8,167.2,180.8z M-5.3,177.6
		c0.9,1.1,1.9,2.2,3,3.2h-6.8C-7.8,179.8-6.5,178.7-5.3,177.6z"/>
	<path class="st3" d="M158.2,185.8H121c-5.6-24.5-27.5-42.7-53.7-42.7h-0.1c-4.4-21.1-23.2-37-45.6-37c-7,0-13.7,1.6-19.7,4.4
		c-9.6-23.4-32.7-39.9-59.5-39.9c-35.6,0-64.4,28.8-64.4,64.4c0,0.1,0,0.3,0,0.4c-2-0.3-4-0.4-6-0.4c-25.8,0-46.7,20.9-46.7,46.7
		c0,1.4,0.1,2.8,0.2,4.2h-1.1c-34.4-0.1-62.3,27.8-62.3,62.2l0,0h458.4l0,0C220.5,213.7,192.6,185.8,158.2,185.8z M-14.3,182.6
		c0.9,1.1,1.9,2.2,3,3.2h-6.8C-16.8,184.8-15.5,183.7-14.3,182.6z"/>
</g>
<g id="cloud2">
	<path class="st4" d="M115.3,459.8c0,0,0-37.1-37.7-39.1c0,0,2.7-31.8-30.7-30.7c0,0-2.9-37-33-38.7c-30.1-1.7-37.7,20.5-39.8,24
		c0,0-26.6-14.2-38.5,19.7c0,0-23.4-3.6-31.8,26"/>
	<g>
		<polygon class="st5" points="-94.1,422.1 -116.4,422.8 -94.8,417.2 		"/>
	</g>
	<g>
		<polygon class="st5" points="115.5,459.7 -154.4,456.1 115.6,454.7 		"/>
	</g>
	<g>
		<path class="st5" d="M-132.5,426c0,0-0.5,0.1-1.3,0.5c-0.4,0.2-0.9,0.4-1.4,0.7c-0.5,0.3-1.1,0.6-1.8,1c-0.6,0.4-1.3,0.9-1.9,1.4
			c-0.3,0.3-0.7,0.6-1,0.8c-0.3,0.3-0.6,0.6-1,0.9c-0.7,0.6-1.3,1.4-1.9,2.1c-0.6,0.7-1.2,1.5-1.7,2.3c-0.5,0.8-1,1.7-1.4,2.5
			c-0.4,0.9-0.8,1.7-1.2,2.5c-0.4,0.8-0.8,1.6-1.2,2.3c-0.4,0.7-0.7,1.5-1.1,2.1c-0.2,0.3-0.4,0.6-0.6,0.9c-0.2,0.3-0.3,0.6-0.5,0.9
			c-0.3,0.5-0.6,1-0.8,1.4c-0.5,0.8-0.9,1.2-0.9,1.2l-0.4-0.1c0,0-0.1-0.5-0.1-1.5c0-0.5,0-1,0-1.7c0-0.7,0.1-1.4,0.2-2.2
			c0.1-0.8,0.3-1.7,0.6-2.5c0.3-0.9,0.7-1.8,1.1-2.7c0.5-0.9,1.1-1.8,1.7-2.6c0.6-0.9,1.4-1.7,2.1-2.5c0.7-0.8,1.5-1.6,2.2-2.3
			c0.8-0.7,1.6-1.4,2.4-1.9c0.4-0.3,0.8-0.6,1.2-0.8c0.4-0.2,0.8-0.5,1.2-0.7c0.8-0.4,1.6-0.8,2.3-1.1c0.7-0.3,1.4-0.6,2-0.7
			c0.6-0.2,1.2-0.3,1.6-0.4c0.9-0.2,1.4-0.2,1.4-0.2L-132.5,426z"/>
	</g>
	<polygon class="st5" points="-9.2,420.6 -19.2,417.4 -19.2,422.6 	"/>
</g>
<g id="cloud3">
	<path class="st2" d="M-50,721L-50,721h458.4l0,0c0-34.4-27.9-62.3-62.3-62.3H345c0.1-1.4,0.2-2.8,0.2-4.2
		c0-25.8-20.9-46.7-46.7-46.7c-2,0-4.1,0.1-6,0.4c0-0.1,0-0.3,0-0.4c0-35.6-28.8-64.4-64.4-64.4c-26.9,0-49.9,16.5-59.6,39.9
		c-6-2.8-12.6-4.4-19.7-4.4c-22.5,0-41.2,15.9-45.6,37h-0.1c-26.2,0-48.1,18.3-53.7,42.7H12.3C-22.1,658.7-50,686.6-50,721z
		 M188.6,658.7h-6.8c1-1,2-2.1,3-3.2C186,656.6,187.3,657.7,188.6,658.7z"/>
	<path class="st3" d="M-59,726L-59,726h458.4l0,0c0-34.4-27.9-62.3-62.3-62.3H336c0.1-1.4,0.2-2.8,0.2-4.2
		c0-25.8-20.9-46.7-46.7-46.7c-2,0-4.1,0.1-6,0.4c0-0.1,0-0.3,0-0.4c0-35.6-28.8-64.4-64.4-64.4c-26.9,0-49.9,16.5-59.6,39.9
		c-6-2.8-12.6-4.4-19.7-4.4c-22.5,0-41.2,15.9-45.6,37h-0.1c-26.2,0-48.1,18.3-53.7,42.7H3.3C-31.1,663.7-59,691.6-59,726z
		 M179.6,663.7h-6.8c1-1,2-2.1,3-3.2C177,661.6,178.3,662.7,179.6,663.7z"/>
</g>
<g id="cloud4">
	<path class="st2" d="M2031.8,424.8h-37.2c-5.6-24.5-27.5-42.7-53.7-42.7h-0.1c-4.4-21.1-23.2-37-45.6-37c-7,0-13.7,1.6-19.7,4.4
		c-9.6-23.4-32.7-39.9-59.5-39.9c-35.6,0-64.4,28.8-64.4,64.4c0,0.1,0,0.3,0,0.4c-2-0.3-4-0.4-6-0.4c-25.8,0-46.7,20.9-46.7,46.7
		c0,1.4,0.1,2.8,0.2,4.2h-1.1c-34.4,0-62.3,27.9-62.3,62.3l0,0h458.4l0,0C2094.1,452.6,2066.2,424.8,2031.8,424.8z M1859.3,421.5
		c0.9,1.1,1.9,2.2,3,3.2h-6.8C1856.8,423.8,1858.1,422.6,1859.3,421.5z"/>
	<path class="st3" d="M2013.8,430.8h-37.2c-5.6-24.5-27.5-42.7-53.7-42.7h-0.1c-4.4-21.1-23.2-37-45.6-37c-7,0-13.7,1.6-19.7,4.4
		c-9.6-23.4-32.7-39.9-59.5-39.9c-35.6,0-64.4,28.8-64.4,64.4c0,0.1,0,0.3,0,0.4c-2-0.3-4-0.4-6-0.4c-25.8,0-46.7,20.9-46.7,46.7
		c0,1.4,0.1,2.8,0.2,4.2h-1.1c-34.4-0.1-62.3,27.8-62.3,62.2l0,0h458.4l0,0C2076.1,458.6,2048.2,430.8,2013.8,430.8z M1841.3,427.5
		c0.9,1.1,1.9,2.2,3,3.2h-6.8C1838.8,429.8,1840.1,428.6,1841.3,427.5z"/>
</g>
<g id="cloud_right2">
	<path class="st6" d="M2104.3,707c0,0,0-41-41.7-43.2c0,0,3-35.2-34-33.9c0,0-3.2-40.9-36.5-42.8c-33.3-1.9-41.8,22.7-44,26.6
		c0,0-29.4-15.7-42.6,21.8c0,0-25.8-4-35.1,28.7"/>
	<g>
		<polygon class="st3" points="1872.5,665 1847.9,666 1871.8,660.1 		"/>
	</g>
	<g>
		<polygon class="st3" points="2104.5,706.6 1805.8,702.8 2104.5,701.6 		"/>
	</g>
	<g>
		<path class="st3" d="M1830,669.6c0,0-0.5,0.2-1.4,0.5c-0.4,0.2-1,0.4-1.6,0.8c-0.6,0.3-1.3,0.7-2,1.1c-0.7,0.5-1.4,1-2.2,1.6
			c-0.4,0.3-0.7,0.6-1.1,0.9c-0.4,0.3-0.7,0.7-1.1,1c-0.8,0.7-1.4,1.5-2.1,2.3c-0.7,0.8-1.3,1.7-1.9,2.6c-0.6,0.9-1.2,1.8-1.6,2.8
			c-0.4,1-0.9,1.9-1.3,2.8c-0.4,0.9-0.9,1.8-1.4,2.6c-0.4,0.8-0.8,1.6-1.2,2.4c-0.2,0.4-0.4,0.7-0.6,1c-0.2,0.3-0.3,0.7-0.5,1
			c-0.3,0.6-0.6,1.1-0.9,1.6c-0.5,0.9-0.9,1.4-0.9,1.4l-0.4-0.1c0,0-0.1-0.6-0.1-1.6c0-0.5,0-1.2,0-1.9c0-0.7,0.1-1.5,0.3-2.4
			c0.2-0.9,0.4-1.8,0.7-2.8c0.3-1,0.8-2,1.2-3c0.5-1,1.2-1.9,1.9-2.9c0.7-1,1.5-1.8,2.2-2.8c0.8-0.9,1.6-1.7,2.5-2.5
			c0.9-0.8,1.7-1.5,2.6-2.2c0.5-0.3,0.9-0.6,1.3-0.9c0.5-0.3,0.9-0.5,1.3-0.8c0.9-0.5,1.7-0.9,2.5-1.3c0.8-0.3,1.6-0.6,2.2-0.8
			c0.7-0.2,1.3-0.4,1.8-0.5c1-0.2,1.6-0.3,1.6-0.3L1830,669.6z"/>
	</g>
	<polygon class="st3" points="1966.5,663.5 1955.4,660 1955.4,665.8 	"/>
</g>
<g id="cloud_right1">
	<path class="st4" d="M1779.4,255.9c0,0,0.1-49.2,51.7-51.9c0,0-3.7-42.2,42.2-40.7c0,0,4-49,45.3-51.4
		c41.3-2.3,51.8,27.2,54.7,31.9c0,0,36.5-18.8,52.8,26.2c0,0,32.1-4.8,43.6,34.5"/>
	<g>
		<polygon class="st5" points="2067.8,200.1 2097.6,206.8 2067.1,205.1 		"/>
	</g>
	<g>
		<polygon class="st5" points="1779.3,250.7 2150,248.8 1779.4,255.7 		"/>
	</g>
	<g>
		<path class="st5" d="M2119.8,210.6c0,0,0.7,0.1,1.9,0.3c0.6,0.2,1.3,0.3,2.1,0.6c0.4,0.1,0.8,0.3,1.3,0.4c0.4,0.2,0.9,0.4,1.4,0.6
			c0.5,0.2,1,0.4,1.5,0.7c0.5,0.3,1.1,0.5,1.6,0.8c1.1,0.6,2.2,1.3,3.2,2.1c1.1,0.7,2.2,1.7,3.2,2.6c1.1,0.9,2,2,3,3
			c0.9,1.1,1.9,2.2,2.7,3.3c0.8,1.2,1.7,2.3,2.3,3.5c0.6,1.2,1.1,2.4,1.6,3.6c0.4,1.2,0.7,2.3,0.9,3.3c0.3,1,0.4,2,0.5,2.9
			c0.1,0.9,0.1,1.6,0.2,2.2c0.1,1.2,0,2,0,2l-0.4,0.1c0,0-0.4-0.6-1-1.7c-0.3-0.5-0.6-1.2-1-1.9c-0.2-0.4-0.3-0.8-0.6-1.2
			c-0.2-0.4-0.5-0.8-0.7-1.3c-0.5-0.9-0.9-1.9-1.5-2.9c-0.6-1-1.1-2-1.7-3.1c-0.6-1.1-1.2-2.2-1.8-3.4c-0.6-1.1-1.4-2.2-2.1-3.4
			c-0.8-1-1.6-2.1-2.5-3.1c-0.9-0.9-1.8-1.9-2.7-2.7c-0.5-0.4-0.9-0.9-1.4-1.2c-0.5-0.4-0.9-0.7-1.4-1.1c-0.4-0.4-0.9-0.7-1.4-1
			c-0.5-0.3-0.9-0.6-1.3-0.9c-0.4-0.3-0.9-0.5-1.3-0.7c-0.4-0.2-0.8-0.4-1.2-0.6c-0.7-0.4-1.4-0.6-2-0.9c-1.1-0.4-1.8-0.6-1.8-0.6
			L2119.8,210.6z"/>
	</g>
	<polygon class="st5" points="1950.4,203.8 1964.1,199.6 1964.1,206.5 	"/>
</g>

<style>

	#animation_sky_clouds #cloud1 {
		-webkit-transform: translateX(500px);
		transform: translateX(500px);
		-webkit-animation: moveCloud 2s linear 0s forwards;
		animation: moveCloud 2s linear 0s forwards;
	}

	#animation_sky_clouds #cloud2 {
		-webkit-transform: translateX(800px);
		transform: translateX(800px);
		-webkit-animation: moveCloud 3s linear 0s forwards;
		animation: moveCloud 3s linear 0s forwards;
	}

	#animation_sky_clouds #cloud3 {
		-webkit-transform: translateX(300px);
		transform: translateX(300px);
		-webkit-animation: moveCloud 1.5s linear 0s forwards;
		animation: moveCloud 1.5s linear 0s forwards;
	}

	#animation_sky_clouds #cloud4 {
		-webkit-transform: translateX(-500px);
		transform: translateX(-500px);
		-webkit-animation: moveCloud 3.5s linear 0s forwards;
		animation: moveCloud 3.5s linear 0s forwards;
	}

	#animation_sky_clouds #cloud_right1 {
		-webkit-transform: translateX(-600px);
		transform: translateX(-600px);
		-webkit-animation: moveCloud 2.5s linear 0s forwards;
		animation: moveCloud 2.5s linear 0s forwards;
	}

	#animation_sky_clouds #cloud_right2 {
		-webkit-transform: translateX(-300px);
		transform: translateX(-300px);
		-webkit-animation: moveCloud 2s linear 0s forwards;
		animation: moveCloud 2s linear 0s forwards;
	}

	@-webkit-keyframes moveCloud {
		to {
			-webkit-transform: translateX(0px);
		}
	}

	@keyframes moveCloud {
		to {
			transform: translateX(0px);
		}
	}

</style>

</svg>
