<?xml version="1.0" encoding="utf-8"?>
<!-- Generator: Adobe Illustrator 19.0.0, SVG Export Plug-In . SVG Version: 6.00 Build 0)  -->
<svg version="1.1" id="devices_zoom_animation"
	 xmlns="http://www.w3.org/2000/svg" xmlns:xlink="http://www.w3.org/1999/xlink" x="0px" y="0px" viewBox="0 0 641.1 497.6"
	 style="enable-background:new 0 0 641.1 497.6;" xml:space="preserve">
<style type="text/css">
	.st0{fill:#EFF4F7;}
	.st1{fill:#FFFFFF;}
	.st2{fill:none;stroke:#1B5FC1;stroke-width:0.9537;stroke-miterlimit:10;}
	.st3{fill:#272DAD;}
	.st4{fill:#EDB908;}
	.st5{fill:#1BB15B;}
	.st6{fill:#CF343A;}
	.st7{fill:#4248B7;}
	.st8{fill:#F4C20D;}
	.st9{fill:#4ABC57;}
	.st10{fill:#77E084;}
	.st11{fill:none;stroke:#4248B7;stroke-width:2;stroke-miterlimit:10;}
	.st12{fill:none;stroke:#272DAD;stroke-width:1.6252;stroke-miterlimit:10;}
	.st13{fill:none;stroke:#272DAD;stroke-width:1.9128;stroke-miterlimit:10;}
	.st14{fill:none;stroke:#1B5FC1;stroke-width:0.8103;stroke-miterlimit:10;}
	.st15{fill:#5CC66D;}
	.st16{fill:none;stroke:#272DAD;stroke-width:1.9128;stroke-linecap:round;stroke-miterlimit:10;}
	.st17{fill:url(#SVGID_1_);}
	.st18{fill:url(#SVGID_2_);}
	.st19{fill:#F7949C;}
	.st20{opacity:0.18;fill:#F9D45F;enable-background:new    ;}
	.st21{fill:none;stroke:#272DAD;stroke-width:1.2616;stroke-miterlimit:10;}
	.st22{fill:none;stroke:#272DAD;stroke-miterlimit:10;}
	.st23{opacity:0.81;}
	.st24{fill:#F9D45F;}
	.st25{fill:none;stroke:#272DAD;stroke-width:1.2746;stroke-miterlimit:10;}
	.st26{opacity:0.21;fill:#272DAD;enable-background:new    ;}
	.st27{fill:none;stroke:#272DAD;stroke-width:0.9109;stroke-miterlimit:10;}
	.st28{fill:none;stroke:#272DAD;stroke-width:1.3202;stroke-miterlimit:10;}
	.st29{fill:none;stroke:#272DAD;stroke-width:1.2662;stroke-miterlimit:10;}
</style>
<g id="backg">
	<path class="st0" d="M164.3,89.4c-4.9,11-6.7,23.1-10.6,34.4c-6.2,17.7-17.8,33.4-32.7,44.4c-15.6,11.4-34.6,17.7-48.2,31.5
		c-13,13.2-19.6,32.7-17.4,51.2c2.9,24.4,19.7,50.3,7.2,71.4c-7,11.7-20.7,16.9-31.7,24.7C11.4,360.6-0.6,384.7,0,408.8
		s13.8,47.3,33.9,59.7c13.6,8.4,29.7,11.8,45.6,13.1c68,5.5,134-25.2,202-31.2c25-2.2,50.1-1.1,75.1,1c27.3,2.2,54.6,5.5,80.8,13.5
		c16.7,5.1,32.7,12.1,49.3,17.5c21.3,6.9,43.4,11.1,65.7,12.5c19.7,1.3,40.2,0.1,57.9-9S642,458,641,437.8
		c-1.5-29-30.2-46.6-49.8-67.4c-24.4-25.8-36.8-66.4-21.6-99c12.4-26.6,41.4-46.2,42.2-75.6c0.7-26.2-22.1-46.6-45.3-57.4
		c-23.2-10.8-49.2-16.6-68.7-33.4c-10.9-9.4-19.1-21.6-27.9-33.1c-21.2-27.5-48-51.6-80.1-63.8C368.2-0.1,344-2.5,321.3,2.8
		c-22.4,5.3-37.1,20.4-56.8,30.8C229.1,52.2,183.8,45.7,164.3,89.4z"/>
	<path class="st1" d="M537.3,306.4L537.3,306.4c-5,0-9.1,4.1-9.1,9.1l0,0l0,0c0-5-4.1-9.1-9.1-9.1l0,0l0,0c5,0,9.1-4.1,9.1-9.1l0,0
		l0,0C528.2,302.4,532.2,306.4,537.3,306.4L537.3,306.4z"/>
	<path class="st1" d="M313.8,80.4L313.8,80.4c-5,0-9.1,4.1-9.1,9.1l0,0l0,0c0-5-4.1-9.1-9.1-9.1l0,0l0,0c5,0,9.1-4.1,9.1-9.1l0,0
		l0,0C304.8,76.4,308.8,80.4,313.8,80.4L313.8,80.4z"/>
	<circle class="st2" cx="231" cy="81.9" r="1.9"/>
	<circle class="st2" cx="92.3" cy="279.3" r="1.9"/>
	<circle class="st1" cx="554.6" cy="160.4" r="4"/>
	<circle class="st2" cx="348.8" cy="27" r="1.9"/>
	<path class="st2" d="M112.1,230.2L112.1,230.2c-5,0-9.1,4.1-9.1,9.1l0,0l0,0c0-5-4.1-9.1-9.1-9.1l0,0l0,0c5,0,9.1-4.1,9.1-9.1l0,0
		l0,0C103,226.2,107.1,230.2,112.1,230.2L112.1,230.2z"/>
	<path class="st2" d="M514.4,182.1L514.4,182.1c-5,0-9.1,4.1-9.1,9.1l0,0l0,0c0-5-4.1-9.1-9.1-9.1l0,0l0,0c5,0,9.1-4.1,9.1-9.1l0,0
		l0,0C505.4,178,509.4,182.1,514.4,182.1L514.4,182.1z"/>
	<path class="st2" d="M414.2,65.5L414.2,65.5c-5,0-9.1,4.1-9.1,9.1l0,0l0,0c0-5-4.1-9.1-9.1-9.1l0,0l0,0c5,0,9.1-4.1,9.1-9.1l0,0
		l0,0C405.2,61.5,409.2,65.5,414.2,65.5L414.2,65.5z"/>
</g>
<g id="icons">
	<g>
		<path id="XMLID_100_" class="st3" d="M62.5,392.3c-0.9,0-21.7,0-21.7-4.2v-15.3c0-12.4,9.7-22.5,21.7-22.5s21.7,10.1,21.7,22.5
			v15.3C84.1,392.3,63.4,392.3,62.5,392.3z M42.2,388.2c0.5,1,7.6,2.7,20.2,2.7s19.8-1.8,20.2-2.7V373c0-11.6-9.1-21-20.2-21
			s-20.2,9.4-20.2,21V388.2z"/>
		<path id="XMLID_95_" class="st3" d="M62.5,384.3c-0.9,0-21.7,0-21.7-4.2c0-4.1,20.8-4.2,21.7-4.2s21.7,0,21.7,4.2
			C84.1,384.2,63.4,384.3,62.5,384.3z M42.3,380.1c0.6,1,7.7,2.7,20.2,2.7s19.6-1.7,20.2-2.7c-0.6-1-7.7-2.7-20.2-2.7
			S42.8,379.1,42.3,380.1z"/>
		<path class="st3" d="M57.3,363l-1.1,0.3l1.1,0.3c0.5,0.1,0.8,0.5,1,1l0.3,1.1l0.3-1.1c0.1-0.5,0.5-0.8,1-1l1.1-0.3l-1.1-0.3
			c-0.5-0.1-0.8-0.5-1-1l-0.3-1.1l-0.3,1.1C58.1,362.5,57.8,362.9,57.3,363z"/>
		<path class="st3" d="M63.7,358.2l-1.4,0.4l1.4,0.4c0.6,0.2,1,0.6,1.2,1.2l0.4,1.4l0.4-1.4c0.2-0.6,0.6-1,1.2-1.2l1.4-0.4l-1.4-0.4
			c-0.6-0.2-1-0.6-1.2-1.2l-0.4-1.4l-0.4,1.4C64.7,357.6,64.2,358.1,63.7,358.2z"/>
		<path id="XMLID_88_" class="st3" d="M51.8,369.9L51.8,369.9c1.1,0,2.1,0,3,0c0.1,0,0.1,0,0.1,0.1c0.1,1-0.1,1.9-0.7,2.7
			c-0.4,0.5-0.9,0.7-1.6,0.9c-0.6,0.1-1.3,0.1-1.9-0.1c-1.5-0.5-2.5-1.8-2.4-3.3c0-1,0.4-1.8,1.1-2.4c1.2-1.1,3.1-1.2,4.4-0.2
			c0.1,0.1,0.2,0.2,0.3,0.2c-0.2,0.2-0.4,0.5-0.6,0.7c-0.2-0.1-0.3-0.2-0.4-0.3c-1.2-0.7-2.8-0.3-3.4,1c-0.4,0.9-0.4,1.7,0.1,2.5
			s1.3,1.2,2.3,1.1c0.5,0,0.9-0.2,1.3-0.5c0.4-0.3,0.7-0.9,0.7-1.4c-0.7,0-1.5,0-2.2,0C51.8,370.5,51.8,370.2,51.8,369.9z"/>
		<path id="XMLID_83_" class="st3" d="M68.9,373.1c-0.1,0.1-0.2,0.2-0.3,0.2c-0.3,0.2-0.7,0.3-1,0.3c-0.8-0.1-1.6-0.6-1.9-1.5
			c-0.3-1,0.1-2.2,1-2.7c0.5-0.3,1.1-0.3,1.6-0.1c0.2,0.1,0.3,0.2,0.5,0.3c0,0,0,0,0.1,0.1c0-0.1,0-0.2,0-0.4c0.3,0,0.6,0,0.9,0
			c0,0,0,0,0,0.1c0,1.3,0,2.7,0,4c0,0.4-0.1,0.8-0.3,1.2c-0.3,0.6-0.8,0.9-1.4,0.9c-0.5,0.1-1,0-1.4-0.2s-0.7-0.6-0.9-1l0,0
			c0.3-0.1,0.6-0.2,0.8-0.3v0.1c0.2,0.4,0.5,0.6,0.9,0.7c0.6,0.1,1.2-0.3,1.3-1C68.9,373.5,68.9,373.3,68.9,373.1z M69,371.4
			c0-0.1,0-0.2,0-0.3c0-0.1,0-0.2-0.1-0.3c-0.2-0.4-0.5-0.7-0.9-0.8c-0.5-0.1-0.8,0.1-1.1,0.5c-0.3,0.5-0.4,1.2,0,1.7
			c0.4,0.6,1.3,0.7,1.8,0.1C68.9,372.1,69,371.7,69,371.4z"/>
		<path id="XMLID_78_" class="st3" d="M57.8,369.2c0.7,0,1.3,0.3,1.8,1c0.6,1,0.4,2.7-1.1,3.2c-1,0.4-2.2,0.1-2.7-1
			c-0.6-1.1-0.1-2.6,1.1-3.1C57.1,369.2,57.4,369.2,57.8,369.2z M56.5,371.4c0,0.1,0,0.2,0,0.2c0,0.1,0,0.1,0.1,0.2
			c0.3,0.9,1.4,1.2,2.1,0.5c0.3-0.4,0.4-0.8,0.3-1.3c-0.2-0.8-1.1-1.2-1.8-0.8C56.7,370.5,56.5,370.9,56.5,371.4z"/>
		<path id="XMLID_73_" class="st3" d="M62.8,369.2c0.8,0,1.5,0.3,1.9,1c0.6,1,0.4,2.7-1.1,3.2c-0.9,0.3-2.1,0.1-2.7-0.9
			c-0.7-1.1-0.2-2.6,1-3.2C62.2,369.2,62.5,369.2,62.8,369.2z M61.5,371.4c0,0.1,0,0.1,0,0.2s0,0.2,0.1,0.3c0.3,0.9,1.5,1.1,2.1,0.4
			c0.3-0.4,0.4-0.9,0.2-1.4c-0.3-0.8-1.2-1.1-1.9-0.6C61.7,370.5,61.5,370.9,61.5,371.4z"/>
		<path id="XMLID_68_" class="st3" d="M76.4,370.8c-1,0.4-2,0.8-3,1.2c0.2,0.3,0.4,0.6,0.8,0.6c0.6,0.1,1-0.1,1.3-0.6
			c0.3,0.2,0.5,0.3,0.8,0.5c-0.1,0.2-0.3,0.4-0.5,0.5c-0.9,0.7-2.3,0.6-3-0.3c-0.3-0.4-0.4-0.8-0.5-1.3c0-0.7,0.1-1.3,0.6-1.7
			c0.8-0.8,2.4-0.9,3.1,0.4C76.2,370.4,76.3,370.6,76.4,370.8z M75.2,370.5L75.2,370.5c-0.2-0.3-0.4-0.5-0.8-0.5
			c-0.6,0-1.1,0.5-1.2,1c0,0.1,0,0.2,0,0.3C73.9,371,74.6,370.8,75.2,370.5z"/>
		<path id="XMLID_65_" class="st3" d="M71.7,373.4c-0.3,0-0.6,0-1,0c0-2.2,0-4.3,0-6.5c0.3,0,0.6,0,1,0
			C71.7,369.1,71.7,371.3,71.7,373.4z"/>
	</g>
	<g id="XMLID_52_">
		<path id="XMLID_62_" class="st4" d="M244.6,455.4c-0.9-0.6-1.4-1.5-1.4-2.5v-2.5l-1.4,2c-0.6,0.9-1.5,1.4-2.5,1.4h-2.5l2.1,1.4
			c0.9,0.6,1.4,1.5,1.4,2.5v2.5l1.4-2.1c0.6-0.9,1.5-1.4,2.5-1.4h2.5L244.6,455.4z"/>
		<path id="XMLID_59_" class="st4" d="M233.4,456.9c-0.5-0.1-1.1-0.1-1.7,0c-1.4,0.2-2.8,0.6-4.3,1.5c-1.7,1-3.2,2.4-4.5,4.1
			c-0.2-0.7-0.3-1.4-0.4-2.1c-0.2-1.1-0.1-2,0.1-2.9l1.1-3.8c0.7-2.5,1.4-5,2.2-7.5V446c0.2-0.7,0.4-1.4,0.5-2.1
			c0.1-1-0.2-1.9-1-2.5c-0.8-0.7-1.9-0.9-2.9-0.6s-1.7,1-2,2.1l-4,11.4c0-1.9,0.1-3.7,0.1-5.6v-1.3c0-0.9,0-1.8,0-2.7v-1.3
			c0-0.2,0-0.5,0-0.7c0-0.8,0-1.7-0.1-2.6s-0.6-1.8-1.4-2.3c-0.8-0.5-1.8-0.7-2.6-0.4c-1,0.3-1.7,1-2.1,2.2
			c-0.2,0.7-0.3,1.5-0.3,2.1c0,1.7-0.1,3.4-0.1,5.1v2.6l0,0l-0.1,3.7c-0.4-1.4-0.8-2.9-1.2-4.3c-0.5-1.7-1-3.5-1.5-5.2v-0.1
			c-0.2-0.6-0.3-1.2-0.6-1.8c-0.6-1.2-1.6-1.9-2.9-1.8c-1,0.1-1.8,0.6-2.1,1.6c0,0.1-0.1,0.2-0.1,0.3c-0.3,1.2-0.3,2.3,0,3.5
			c0.5,2.2,1,4.3,1.5,6.5c0.3,1.1,0.5,2.1,0.8,3.2c-0.4-0.7-0.9-1.3-1.3-2l-1.9-3c-0.4-0.6-0.8-1.2-1.3-1.9
			c-0.4-0.5-0.9-0.9-1.5-1.1c-0.9-0.3-1.9-0.2-2.6,0.4c-0.7,0.6-1.1,1.5-1,2.4c0.1,0.8,0.4,1.7,0.8,2.5c0.5,0.9,1,1.8,1.4,2.6
			l0.3,0.6c0.7,1.2,1.3,2.3,2,3.5l1.3,2.3c0.2,0.3,0.3,0.6,0.3,0.9l0.1,1.4c0,0.8,0.1,1.7,0.1,2.5c0.1,2.6,0.6,5.1,1.6,7.4
			c0.8,1.9,1.8,3.3,3.1,4.4l0.1,0.1c0.1,0.1,0.1,0.1,0.2,0.1c0,0,0,0.1,0,0.2l-0.2,5.4h14.8v-0.9c-0.1-1.8-0.1-3.5-0.2-5.3
			c0.4-0.2,0.7-0.5,1.1-0.7c0.2-0.1,0.4-0.3,0.7-0.4c0.5-0.3,1.1-0.7,1.6-1.1c1.7-1.4,3-3.1,4-5.3c0.7-1.5,1.3-2.6,2-3.6
			c1.4-2.1,3.1-3.6,5-4.5c0.7-0.4,1.2-1,1.4-1.9c0.1-0.5,0.1-1-0.2-1.4C234.9,457.3,234,456.9,233.4,456.9z M234,459.5
			c-0.1,0.5-0.3,0.6-0.5,0.7c-2.2,1.1-4.1,2.8-5.7,5.1c-0.7,1.1-1.4,2.3-2.1,3.9c-0.9,1.9-2,3.5-3.5,4.7c-0.4,0.4-0.9,0.7-1.5,1
			c-0.2,0.1-0.5,0.3-0.7,0.4c-0.4,0.3-0.8,0.5-1.2,0.8c-0.5,0.3-0.7,0.7-0.7,1.3c0.1,1.5,0.1,3.1,0.2,4.6h-11.2l0.1-3.6
			c0-0.9-0.1-1.1-0.8-1.7l-0.1-0.1c-1-0.9-1.9-2.1-2.6-3.8c-0.9-2.1-1.4-4.4-1.5-6.7c0-0.9-0.1-1.7-0.1-2.6l-0.1-1.4
			c0-0.5-0.2-1.1-0.5-1.6l-1.3-2.3c-0.7-1.2-1.3-2.3-2-3.5l-0.3-0.6c-0.5-0.8-1-1.7-1.4-2.6c-0.4-0.7-0.6-1.3-0.6-1.9
			c0-0.4,0.1-0.7,0.3-0.9c0.2-0.2,0.6-0.2,0.9-0.1c0.3,0.1,0.5,0.2,0.6,0.5c0.4,0.6,0.8,1.2,1.2,1.8l1.9,3c1,1.6,2.1,3.2,3.1,4.8
			c0.2,0.3,0.6,0.6,1.1,0.6c0.3,0,0.6-0.2,0.8-0.4c0.2-0.2,0.3-0.6,0.2-0.9v-0.1c-0.1-0.4-0.1-0.9-0.2-1.3c-0.4-1.7-0.8-3.4-1.2-5.2
			c-0.5-2.2-1-4.3-1.5-6.5c-0.2-0.9-0.2-1.9,0-2.8c0,0,0-0.1,0.1-0.2c0.1-0.3,0.2-0.4,0.6-0.4c0.6,0,1,0.2,1.2,0.8
			c0.2,0.5,0.4,1,0.5,1.5v0.1c0.5,1.7,1,3.5,1.5,5.2c0.6,2.2,1.3,4.5,1.9,6.7c0.1,0.3,0.3,0.6,0.4,0.8v0.1c0.3,0.4,0.9,0.6,1.4,0.4
			c0.3-0.1,0.7-0.4,0.7-1.1v-0.2c0-0.4,0-0.8,0-1.2l0.1-6.9l0,0v-0.9c0-1.7,0.1-3.4,0.1-5c0-0.4,0-1,0.2-1.6s0.5-0.9,1-1
			c0.3-0.1,0.7,0,1.2,0.2c0.3,0.2,0.6,0.5,0.6,1c0.1,0.8,0.1,1.5,0,2.3c0,0.2,0,0.5,0,0.7v1.3c0,0.9,0,1.8,0,2.7v1.3
			c0,2-0.1,4.1-0.1,6.1c0,0.8,0.3,1.4,0.9,1.9c0.4,0.3,0.8,0.3,1,0.3s0.6-0.2,0.8-0.6c0.1-0.1,0.2-0.3,0.2-0.5l4.4-12.3
			c0.2-0.5,0.5-0.8,0.9-1c0.3-0.1,0.8,0,1.2,0.3c0.3,0.3,0.4,0.6,0.4,1c-0.1,0.6-0.3,1.2-0.4,1.9v0.2c-0.7,2.5-1.4,5-2.2,7.5
			l-1.1,3.8c-0.3,1.1-0.4,2.3-0.2,3.6c0.1,0.8,0.3,1.6,0.5,2.4c0.1,0.4,0.2,0.7,0.4,0.9l0.1,0.2c0.2,0.4,0.5,0.6,0.9,0.7
			c0.4,0,0.8-0.1,1.1-0.5c0.1-0.1,0.2-0.2,0.2-0.3l0.1-0.1c1.2-1.8,2.6-3.1,4.2-4c1.3-0.7,2.5-1.1,3.6-1.3c0.5-0.1,0.9-0.1,1.3,0
			l0,0c0.2,0,0.5,0.1,0.8,0.7C234,459.3,234,459.3,234,459.5z"/>
		<path id="XMLID_58_" class="st4" d="M218.2,463.4c-5.2,2.3-4.9,9.2-4.9,9.4c0,0.5,0.4,0.8,0.9,0.8l0,0c0.5,0,0.8-0.4,0.8-0.9
			c0-0.1-0.2-5.9,3.9-7.8c0.4-0.2,0.6-0.7,0.4-1.1C219.1,463.4,218.6,463.2,218.2,463.4z"/>
		<path id="XMLID_57_" class="st4" d="M225.4,433.5c6.9,3.5,11.8,9.8,13.5,17.4c0.1,0.4,0.4,0.6,0.8,0.6c0.1,0,0.1,0,0.2,0
			c0.4-0.1,0.7-0.5,0.6-1c-1.7-8-7-14.8-14.3-18.5c-0.4-0.2-0.9,0-1.1,0.4C224.9,432.8,225,433.3,225.4,433.5z"/>
		<path id="XMLID_56_" class="st4" d="M202.2,433.5c0.1,0,0.2,0,0.4-0.1c1.9-0.9,3.9-1.6,6-2.1c4.4-1,9-0.7,13.2,0.6
			c0.4,0.1,0.9-0.1,1-0.5s-0.1-0.9-0.5-1c-4.5-1.5-9.4-1.7-14.1-0.7c-2.2,0.5-4.4,1.2-6.4,2.2c-0.4,0.2-0.6,0.7-0.4,1.1
			C201.6,433.3,201.9,433.5,202.2,433.5z"/>
		<path id="XMLID_55_" class="st4" d="M198.6,435.9c0.4-0.3,0.4-0.8,0.2-1.1c-0.3-0.4-0.8-0.4-1.1-0.2c-4.9,3.7-8.4,8.9-9.9,14.8
			c-0.1,0.4,0.1,0.9,0.6,1c0.1,0,0.1,0,0.2,0c0.4,0,0.7-0.2,0.8-0.6C190.7,444.3,194,439.3,198.6,435.9z"/>
		<path id="XMLID_54_" class="st4" d="M187.7,458c0.5,0,0.8-0.4,0.8-0.8c0-1.1,0-2.3,0.1-3.4c0-0.4-0.3-0.9-0.7-0.9
			c-0.5,0-0.9,0.3-0.9,0.7c-0.1,1.2-0.2,2.4-0.1,3.7C186.8,457.7,187.2,458,187.7,458C187.6,458,187.6,458,187.7,458z"/>
		<path id="XMLID_53_" class="st4" d="M188.8,460.5c-0.1-0.4-0.5-0.7-0.9-0.7c-0.4,0.1-0.7,0.5-0.7,0.9c0.1,0.4,0.1,0.8,0.2,1.2
			c0.1,0.4,0.4,0.6,0.8,0.6c0.1,0,0.1,0,0.2,0c0.4-0.1,0.7-0.5,0.6-1C188.9,461.3,188.9,460.9,188.8,460.5z"/>
	</g>
	<g id="XMLID_42_">
		<path id="XMLID_51_" class="st3" d="M264.8,23.1l0.9,3.1l0.9-3.1c0-0.1,0.1-0.1,0.1-0.1l3.1-0.9l-3-1c-0.1,0-0.1-0.1-0.1-0.1
			l-0.9-3.1l-1,3.1c0,0.1-0.1,0.1-0.1,0.1l-3.1,0.9l3.1,0.9C264.7,23,264.7,23.1,264.8,23.1z"/>
		<path id="XMLID_50_" class="st3" d="M251.5,41.6l-0.9-3.1l-0.9,3.1c0,0.1-0.1,0.1-0.1,0.1l-3.1,0.9l3.1,0.9c0.1,0,0.1,0.1,0.1,0.1
			l0.9,3.1l0.9-3.1c0-0.1,0.1-0.1,0.1-0.1l3.1-0.9l-3.1-0.9C251.6,41.8,251.5,41.7,251.5,41.6z"/>
		<path id="XMLID_47_" class="st3" d="M260.1,29l-1.5-5.2l-1.5,5.2c-0.3,0.9-1,1.6-1.8,1.8l-5.2,1.5l5.2,1.5c0.9,0.3,1.6,1,1.8,1.8
			l1.5,5.2l1.5-5.2c0.3-0.9,1-1.6,1.8-1.8l5.2-1.5l-5.2-1.5C261.1,30.6,260.4,29.9,260.1,29z M261.5,32.5c-1.4,0.4-2.4,1.5-2.8,2.8
			l-0.1,0.4l-0.1-0.4c-0.4-1.4-1.5-2.4-2.8-2.8l-0.4-0.1l0.4-0.1c1.4-0.4,2.4-1.5,2.8-2.8l0.1-0.4l0.1,0.4c0.4,1.4,1.5,2.4,2.8,2.8
			l0.4,0.1L261.5,32.5z"/>
		<path id="XMLID_43_" class="st3" d="M286.3,52.5l-10.1-37.4c0-0.2-0.1-0.3-0.2-0.5c-0.1-0.2-0.4-0.3-0.6-0.3l0,0l-24.6,0.1
			c-0.3,0-0.6,0.2-0.7,0.6l-10,37.4c-0.1,0.2,0,0.5,0.1,0.6c0.1,0.2,0.4,0.3,0.6,0.3l0,0h3.2c0.3,0,0.6-0.2,0.7-0.6l0.6-2.1h16.8
			l-0.5,1.7c-0.1,0.2,0,0.5,0.1,0.6c0.1,0.2,0.4,0.3,0.6,0.3l0,0h3.2c0.3,0,0.6-0.2,0.7-0.6l0.5-2h14.4l0.6,2.1
			c0.1,0.3,0.4,0.6,0.7,0.6h3.2l0,0c0.2,0,0.4-0.1,0.6-0.3C286.3,53,286.4,52.7,286.3,52.5z M265,51.8h-1.6l0.5-1.7
			c0.1-0.2,0-0.5-0.1-0.6c-0.1-0.2-0.4-0.3-0.6-0.3l0,0h-18.4c-0.3,0-0.6,0.2-0.7,0.6l-0.6,2.1h-1.6l9.5-35.9h23.1L265,51.8z
			 M283,52l-0.6-2.1c-0.1-0.3-0.4-0.6-0.7-0.6h-14.6l8.3-31.2l9.2,33.9L283,52z"/>
	</g>
	<g>
		<path id="XMLID_40_" class="st5" d="M554.3,234.5l-1.2-4.2c-0.1-0.5-0.5-0.8-0.9-0.9l-4.2-1.2l4.2-1.2c0.5-0.1,0.8-0.5,0.9-0.9
			l1.2-4.2l1.2,4.2c0.1,0.5,0.5,0.8,0.9,0.9l4.2,1.2l-4.2,1.2c-0.5,0.1-0.8,0.5-0.9,0.9L554.3,234.5z"/>
		<path id="XMLID_11_" class="st5" d="M577,262.6h-45.4c-0.2,0-0.5-0.1-0.6-0.3c-0.1-0.2-0.2-0.5-0.1-0.7l4.3-10.9
			c0.1-0.3,0.4-0.5,0.7-0.5h36.7c0.3,0,0.6,0.2,0.7,0.5l4.3,10.9c0.1,0.2,0.1,0.5-0.1,0.7C577.5,262.4,577.3,262.6,577,262.6z
			 M532.7,261.1h43.2l-3.7-9.4h-35.7L532.7,261.1z"/>
		<path id="XMLID_30_" class="st5" d="M554.3,244.9c-0.2,0-0.5-0.1-0.6-0.3c-0.4-0.4-9.6-10-9.6-18c0-5.6,4.6-10.2,10.2-10.2
			s10.2,4.6,10.2,10.2c0,6.6-9.2,17.5-9.6,18C554.8,244.7,554.6,244.9,554.3,244.9L554.3,244.9z M554.3,218.1
			c-4.7,0-8.5,3.8-8.5,8.5c0,6.1,6.4,13.7,8.5,16.1c2.1-2.6,8.5-11,8.5-16.1C562.8,221.9,559,218.1,554.3,218.1z"/>
		<path id="XMLID_27_" class="st5" d="M570.5,257.2h-32.7c-0.4,0-0.8-0.3-0.8-0.8c0-0.4,0.3-0.8,0.8-0.8h32.6c0.4,0,0.8,0.3,0.8,0.8
			C571.2,256.9,570.9,257.2,570.5,257.2z"/>
		<path id="XMLID_24_" class="st5" d="M572.7,226.1h-7.2c0,0.2,0,0.4,0,0.5c0,0.3,0,0.6-0.1,1h6.5v22.6h-35.2v-22.6h6.5
			c0-0.3,0-0.6,0-1c0-0.2,0-0.4,0-0.5H536c-0.4,0-0.8,0.3-0.8,0.8V251c0,0.4,0.3,0.8,0.8,0.8h36.7c0.4,0,0.8-0.3,0.8-0.8v-24.1
			C573.4,226.4,573.1,226.1,572.7,226.1z"/>
	</g>
	<g>
		<path id="XMLID_19_" class="st6" d="M509.6,94.9h-45.4c-0.3,0-0.5-0.1-0.6-0.3c-0.1-0.2-0.2-0.5-0.1-0.7l4.3-10.9
			c0.1-0.3,0.4-0.5,0.7-0.5h36.7c0.3,0,0.6,0.2,0.7,0.5l4.3,10.9c0.1,0.2,0.1,0.5-0.1,0.7C510.1,94.8,509.9,94.9,509.6,94.9z
			 M465.4,93.3h43.1l-3.7-9.3h-35.7L465.4,93.3z"/>
		<path id="XMLID_16_" class="st6" d="M504.8,89.9h-35.4c-0.4,0-0.8-0.3-0.8-0.8s0.3-0.8,0.8-0.8h35.4c0.4,0,0.8,0.3,0.8,0.8
			S505.2,89.9,504.8,89.9z"/>
		<path id="XMLID_10_" class="st6" d="M491.5,73.1c0-2.5-2.4-3-3.2-3.1c-0.1,0-0.3-0.1-0.4-0.1v-2.6c0.5,0.2,0.9,0.6,0.9,1.4h2.3
			c0-2.1-1.4-3.1-3.2-3.4v-1c0-0.4-0.3-0.8-0.8-0.8c-0.4,0-0.8,0.3-0.8,0.8v0.9c-1.8,0.2-3.6,1.2-3.6,3.2s1.6,2.6,3.2,3.1
			c0.1,0,0.2,0.1,0.4,0.1v3c-0.9-0.2-1.7-0.8-1.7-1.9h-2.3c0,2.4,1.8,3.6,4,3.8v1.4c0,0.4,0.3,0.8,0.8,0.8c0.4,0,0.8-0.3,0.8-0.8
			v-1.5C490.2,76.3,491.5,74.9,491.5,73.1z M485,68.3c0-0.8,0.6-1.1,1.3-1.2v2.3C485.3,69.1,485,68.9,485,68.3z M487.9,74.7v-2.5
			c0.8,0.3,1.3,0.6,1.3,1.3C489.2,74.2,488.6,74.5,487.9,74.7z"/>
		<path id="XMLID_9_" class="st6" d="M476.3,68.6c-0.2,0-0.4-0.1-0.5-0.2c-0.3-0.3-0.3-0.8,0-1.1l10.6-11.5c0.1-0.2,0.3-0.2,0.6-0.3
			c0.2,0,0.4,0.1,0.6,0.2l3.7,3.7l8.8-8.8h-2.4c-0.4,0-0.8-0.3-0.8-0.8s0.3-0.8,0.8-0.8h4.3c0.3,0,0.6,0.2,0.7,0.5s0.1,0.6-0.2,0.9
			l-10.7,10.7c-0.3,0.3-0.8,0.3-1.1,0l-3.6-3.6L477,68.4C476.7,68.5,476.5,68.6,476.3,68.6z"/>
		<path id="XMLID_6_" class="st6" d="M502,54.6c-0.4,0-0.8-0.3-0.8-0.8v-4c0-0.4,0.3-0.8,0.8-0.8c0.4,0,0.8,0.3,0.8,0.8v4
			C502.8,54.2,502.5,54.6,502,54.6z"/>
		<path id="XMLID_3_" class="st6" d="M505.3,58.3h-9l-1.6,1.6h9.7v22.6h-35.2V59.9h11.3l1.4-1.6h-13.5c-0.4,0-0.8,0.3-0.8,0.8v24.1
			c0,0.4,0.3,0.8,0.8,0.8h36.7c0.4,0,0.8-0.3,0.8-0.8V59.1C506.1,58.7,505.7,58.3,505.3,58.3z"/>
	</g>
	<g>
		<path class="st7" d="M107.8,308.6c0,0,1.3-0.8,3.7-2.3c2.5-1.5,6.1-3.6,10.8-6.1c2.3-1.3,5-2.6,7.9-4c1.4-0.7,3-1.4,4.5-2.2
			c1.6-0.8,3.2-1.5,4.9-2.3c6.7-3.1,14.5-6.3,23.1-9.6c4.3-1.5,8.8-3.2,13.5-4.7c2.3-0.8,4.7-1.6,7.2-2.3c2.4-0.7,4.9-1.5,7.4-2.2
			c2.5-0.8,5.1-1.4,7.7-2.1c2.6-0.7,5.2-1.4,7.9-2.1c2.7-0.6,5.4-1.2,8.1-1.9c1.4-0.3,2.7-0.6,4.1-0.9c1.4-0.3,2.8-0.5,4.2-0.8
			c2.8-0.5,5.7-1.1,8.5-1.7c2.9-0.5,5.8-0.9,8.7-1.4c1.5-0.2,2.9-0.5,4.4-0.7c1.5-0.2,2.9-0.4,4.4-0.6c3-0.4,5.9-0.7,8.9-1.1
			c3-0.4,6-0.5,9-0.8c1.5-0.1,3-0.3,4.5-0.4c1.5-0.1,3-0.3,4.6-0.3c3-0.1,6.1-0.3,9.1-0.4c1.5-0.1,3.1-0.1,4.6-0.2l4.6,0
			c3.1,0,6.1,0,9.2,0c1.5,0,3.1,0.1,4.6,0.1l4.6,0.2c3,0.1,6.1,0.2,9.1,0.4c3,0.2,6,0.5,9,0.7c1.5,0.1,3,0.2,4.5,0.4
			c1.5,0.1,3,0.2,4.5,0.4c3,0.4,5.9,0.8,8.8,1.1c1.5,0.2,2.9,0.4,4.4,0.6c0.7,0.1,1.5,0.2,2.2,0.3l2.2,0.4c2.9,0.5,5.7,1,8.5,1.5
			c1.4,0.2,2.8,0.5,4.2,0.7l2.1,0.4l2.1,0.5c2.7,0.6,5.5,1.2,8.2,1.8c2.7,0.6,5.4,1.2,8,1.8c2.6,0.7,5.2,1.4,7.7,2.1
			c10.2,2.6,19.5,6,28.2,8.8c4.3,1.6,8.4,3.2,12.3,4.7c1.9,0.8,3.8,1.5,5.7,2.2c1.8,0.8,3.6,1.6,5.3,2.3c3.4,1.5,6.6,2.9,9.5,4.2
			c1.5,0.7,2.9,1.3,4.2,1.9c1.3,0.7,2.6,1.3,3.8,1.9c4.7,2.4,8.5,4.3,11,5.6c2.5,1.3,3.9,2,3.9,2s-1.4-0.6-4-1.8
			c-2.6-1.2-6.4-2.9-11.3-5.1c-1.2-0.6-2.5-1.1-3.8-1.8c-1.4-0.6-2.8-1.1-4.3-1.7c-3-1.2-6.2-2.5-9.6-3.9c-1.7-0.7-3.5-1.4-5.3-2.1
			c-1.9-0.6-3.8-1.3-5.7-2c-3.9-1.4-8-2.8-12.3-4.4c-4.4-1.3-8.9-2.7-13.6-4.1c-4.7-1.5-9.6-2.7-14.7-4c-2.5-0.6-5.1-1.3-7.7-2
			c-2.6-0.6-5.3-1.1-7.9-1.7c-2.7-0.6-5.4-1.1-8.1-1.7l-2.1-0.4l-2.1-0.3c-1.4-0.2-2.8-0.5-4.2-0.7c-2.8-0.5-5.6-0.9-8.5-1.4
			l-2.1-0.3c-0.7-0.1-1.4-0.2-2.2-0.3c-1.4-0.2-2.9-0.3-4.3-0.5c-2.9-0.3-5.8-0.7-8.8-1c-1.5-0.2-2.9-0.3-4.4-0.4
			c-1.5-0.1-3-0.2-4.4-0.3c-3-0.2-6-0.5-8.9-0.7c-3-0.1-6-0.2-9-0.3l-4.5-0.2c-1.5-0.1-3-0.1-4.5-0.1c-3,0-6.1,0-9.1,0l-4.5,0
			c-1.5,0-3,0.1-4.5,0.2c-3,0.1-6,0.2-9.1,0.4c-1.5,0-3,0.2-4.5,0.3c-1.5,0.1-3,0.2-4.5,0.4c-3,0.3-6,0.4-8.9,0.8
			c-3,0.3-5.9,0.7-8.8,1c-1.5,0.2-2.9,0.3-4.4,0.5c-1.5,0.2-2.9,0.4-4.3,0.6c-2.9,0.4-5.8,0.9-8.6,1.3c-2.8,0.5-5.7,1-8.5,1.5
			c-1.4,0.3-2.8,0.5-4.2,0.8c-1.4,0.3-2.7,0.6-4.1,0.9c-2.7,0.6-5.4,1.2-8.1,1.7c-2.7,0.6-5.3,1.3-7.9,1.9c-2.6,0.6-5.2,1.2-7.7,2
			c-2.5,0.7-5,1.4-7.4,2c-2.4,0.7-4.8,1.4-7.2,2.2c-4.7,1.4-9.2,3-13.5,4.4c-2.1,0.8-4.2,1.5-6.3,2.2c-1,0.4-2,0.7-3,1.1
			c-1,0.4-2,0.8-2.9,1.1c-1.9,0.7-3.8,1.5-5.7,2.2c-1.8,0.7-3.6,1.5-5.3,2.2c-1.7,0.7-3.4,1.4-5,2.1c-1.6,0.7-3.1,1.4-4.6,2
			c-2.9,1.3-5.6,2.5-8,3.7c-4.8,2.3-8.5,4.2-11,5.6C109.1,307.8,107.8,308.6,107.8,308.6z"/>
	</g>
</g>
<g id="laptop">
	<path class="st1" d="M140.2,373.9v2.3c0,7.7,7.7,13.9,17.2,13.9h307.5c9.5,0,17.2-6.2,17.2-13.9v-2.3L140.2,373.9L140.2,373.9z"/>
	<polyline class="st1" points="140.2,373.9 173.1,324.7 449.6,324.7 482.6,373.9 	"/>
	<path class="st8" d="M363.5,205.4c-21.4,5.6-36.8-10.5-57.8-2.2c0.2-15.7-0.1-23.5,0.1-39.2c21.7-1.5,36.6,15.6,57.2,19.1
		c-3.4,4.3-4.9,6.5-8.5,11.2C358,199.5,359.8,201.6,363.5,205.4z"/>
	<path class="st9" d="M138.5,372.1v2.1c0,6.9,7.7,12.4,17.2,12.4h307.5c9.5,0,17.2-5.6,17.2-12.4v-2.1H138.5z"/>
	<path class="st10" d="M446.7,320.3H170.2l-33,49.2h342.4L446.7,320.3z M258.4,368.5l2.6-10.6c0.7-2.7,4.7-3.9,14.6-3.9h40.1h25.5
		c9.9,0,13.9,1.2,14.6,3.9l2.6,10.6H258.4z M187.8,348.1l11.7-21h180.6h37.3l11.7,21H187.8z"/>
	<g>
		<g>
			<path class="st7" d="M472.3,366.4c0,0-5.3,0.1-14.5,0.4c-4.6,0.1-10.2,0.2-16.6,0.4c-3.2,0.1-6.6,0.2-10.2,0.2
				c-3.6,0.1-7.4,0-11.3,0c-31.6,0-73.7,0-115.8,0.1s-84.2,0-115.8,0.1c-3.9,0-7.7,0.1-11.3,0c-3.6-0.1-7-0.2-10.2-0.2
				c-6.4-0.1-12-0.3-16.6-0.4c-9.2-0.2-14.5-0.4-14.5-0.4s5.3-0.1,14.5-0.4c4.6-0.1,10.2-0.2,16.6-0.4c3.2-0.1,6.6-0.2,10.2-0.2
				c3.6-0.1,7.4,0,11.3,0c31.6,0,73.7,0,115.8-0.1s84.2,0,115.8-0.1c3.9,0,7.7-0.1,11.3,0c3.6,0.1,7,0.2,10.2,0.2
				c6.4,0.1,12,0.3,16.6,0.4C467.1,366.2,472.3,366.4,472.3,366.4z"/>
		</g>
		<path class="st11" d="M410.8,366.4h61.8c0,0,2.3,18.6-26.7,17.1c-29-1.5-294.7,0-294.7,0s-25.6-0.8-20-18.2"/>
	</g>
	<polygon class="st12" points="422.5,344.9 410.8,324 373.6,324 193,324 181.2,344.9 	"/>
	<polyline class="st11" points="131.1,366.2 164.5,316.9 441.2,316.9 473.2,367.3 	"/>
	<path class="st12" d="M347.7,366.9l-2.6-10.6c-0.7-2.7-4.7-3.9-14.6-3.9H305h-40.1c-9.9,0-13.9,1.2-14.6,3.9l-2.6,10.6"/>
	<line class="st12" x1="190" y1="329.3" x2="413.8" y2="329.3"/>
	<line class="st12" x1="185.9" y1="336.6" x2="418.5" y2="336.6"/>
	<line class="st12" x1="302.6" y1="263.6" x2="302.6" y2="179.8"/>
	<path class="st13" d="M360.6,200.6c-21.4,5.6-36.8-10.5-57.8-2.2c0.2-15.7-0.1-23.5,0.1-39.2c21.7-1.5,36.6,15.6,57.2,19.1
		c-3.4,4.3-4.9,6.5-8.5,11.2C355.1,194.7,356.9,196.8,360.6,200.6z"/>
	<path class="st1" d="M189.3,205.5L189.3,205.5c-4.2,0-7.6,3.4-7.6,7.6l0,0l0,0c0-4.2-3.4-7.6-7.6-7.6l0,0l0,0
		c4.2,0,7.6-3.4,7.6-7.6l0,0l0,0C181.7,202.1,185.1,205.5,189.3,205.5L189.3,205.5z"/>
	<path class="st14" d="M215.6,238.8L215.6,238.8c-3.6,0-6.5,2.9-6.5,6.5l0,0l0,0c0-3.6-2.9-6.5-6.5-6.5l0,0l0,0
		c3.6,0,6.5-2.9,6.5-6.5l0,0l0,0C209.2,236,212.1,238.8,215.6,238.8L215.6,238.8z"/>
	<path class="st1" d="M424.8,151.7L424.8,151.7c-5,0-9.1,4.1-9.1,9.1l0,0l0,0c0-5-4.1-9.1-9.1-9.1l0,0l0,0c5,0,9.1-4.1,9.1-9.1l0,0
		l0,0C415.7,147.7,419.8,151.7,424.8,151.7L424.8,151.7z"/>
	<circle class="st1" cx="220.8" cy="275.7" r="3.4"/>
	<circle class="st14" cx="411" cy="250" r="1.6"/>
	<path class="st15" d="M431.8,128.5H183.5c-7.7,0-13.9,6.2-13.9,13.9v178.9h276V142.4C445.6,134.7,439.4,128.5,431.8,128.5z
		 M434.1,311.1H181.2V144.9h252.9L434.1,311.1L434.1,311.1z"/>
	<path class="st11" d="M164.5,317.8V138.6c0-7.4,6-13.5,13.5-13.5h250c7.4,0,13.5,6,13.5,13.5v178.8L164.5,317.8z"/>
	<rect x="175.2" y="142.2" class="st11" width="252.2" height="165.8"/>
	<path class="st1" d="M207.7,284.6c-6.2,8.1,4.2,14.5,20.6,12.6c21.2-2.4,32.2-15.7,23.1-22.2c-4-2.8-9.9-2.6-12.7-2.5
		C223,273.5,211.6,279.5,207.7,284.6"/>
	<g>
		<g>
			<path class="st7" d="M209.4,283.4c0,0,0.1-0.1,0.4-0.4c0.3-0.3,0.7-0.7,1.2-1.1c0.5-0.5,1.2-1,2-1.6c0.8-0.6,1.7-1.2,2.8-1.9
				c0.5-0.3,1.1-0.6,1.6-1c0.6-0.3,1.2-0.6,1.8-1c0.6-0.3,1.3-0.6,2-0.9c0.7-0.3,1.4-0.6,2.1-0.9c0.7-0.3,1.5-0.6,2.2-0.8
				c0.8-0.2,1.5-0.5,2.3-0.7c0.8-0.2,1.6-0.4,2.4-0.5c0.8-0.1,1.6-0.3,2.4-0.4c0.8-0.1,1.6-0.1,2.5-0.2c0.8-0.1,1.6-0.1,2.5-0.1
				c0.8,0,1.6,0,2.4,0.1c0.8,0.1,1.5,0.1,2.3,0.2c0.7,0.1,1.5,0.2,2.3,0.3c0.7,0.1,1.5,0.2,2.2,0.4c1.4,0.3,2.7,0.7,3.8,1.2
				c0.6,0.2,1.1,0.5,1.6,0.8c0.2,0.1,0.5,0.3,0.7,0.4c0.2,0.2,0.4,0.3,0.6,0.5c0.8,0.7,1.4,1.4,1.6,2.1c0.3,0.7,0.2,1.3,0.1,1.7
				c-0.1,0.4-0.2,0.6-0.2,0.6s0.1-0.2,0.1-0.6c0-0.4-0.1-0.9-0.4-1.5c-0.3-0.6-0.9-1.2-1.7-1.7c-0.2-0.1-0.4-0.2-0.6-0.4
				c-0.2-0.1-0.5-0.2-0.7-0.3c-0.5-0.2-1-0.4-1.6-0.6c-1.1-0.3-2.4-0.6-3.7-0.8c-0.7-0.1-1.4-0.2-2.1-0.2c-0.7-0.1-1.4-0.2-2.2-0.2
				c-0.8,0-1.5-0.1-2.3-0.1c-0.7,0-1.5,0-2.3,0c-0.8,0-1.6,0-2.3,0.1c-0.8,0.1-1.6,0.1-2.4,0.2c-0.8,0.1-1.6,0.2-2.3,0.3
				c-0.8,0.2-1.5,0.3-2.3,0.5c-1.5,0.4-3,0.7-4.4,1.2c-0.7,0.2-1.4,0.5-2.1,0.7c-0.7,0.3-1.3,0.5-2,0.8c-1.3,0.5-2.4,1.1-3.5,1.6
				c-1.1,0.6-2.1,1-2.9,1.5c-0.8,0.5-1.6,0.9-2.2,1.3C210.1,282.9,209.4,283.4,209.4,283.4z"/>
		</g>
		<g>
			<path class="st7" d="M255.3,280.8c0,0,0,0.3-0.1,0.7c-0.1,0.5-0.2,1.2-0.5,2c-0.1,0.4-0.4,0.9-0.6,1.4c-0.2,0.5-0.5,1-0.9,1.5
				c-0.3,0.5-0.8,1.1-1.2,1.6c-0.4,0.6-1,1.1-1.5,1.7c-1.1,1.1-2.4,2.2-4,3.1c-0.4,0.2-0.8,0.5-1.2,0.7c-0.4,0.2-0.8,0.4-1.2,0.6
				c-0.8,0.4-1.7,0.9-2.6,1.1c-0.9,0.3-1.9,0.6-2.8,1c-1,0.3-1.9,0.5-2.9,0.7c-0.5,0.1-1,0.2-1.5,0.3l-1.5,0.2c-1,0.1-2,0.3-3.1,0.4
				c-2,0.2-4.1,0.2-6.1,0.3c-2,0-4-0.1-5.9-0.2l-0.7,0c-0.3,0-0.5-0.1-0.8-0.1c-0.5-0.1-0.9-0.2-1.4-0.3c-0.9-0.2-1.8-0.5-2.7-0.8
				c-1.7-0.6-3.2-1.5-4.4-2.6c-1.2-1.1-1.9-2.6-2-3.9c-0.1-1.3,0.3-2.4,0.6-3.2c0.2-0.4,0.3-0.8,0.5-1.1c0.2-0.3,0.3-0.6,0.5-0.8
				c0.3-0.4,0.4-0.6,0.4-0.6s-0.1,0.2-0.3,0.7c-0.1,0.2-0.2,0.5-0.3,0.8c-0.1,0.3-0.3,0.7-0.4,1.1c-0.2,0.8-0.4,1.9-0.2,3
				c0.2,1.1,0.9,2.3,2,3.2c1.1,0.9,2.5,1.5,4.1,2c0.8,0.2,1.6,0.4,2.5,0.6c0.4,0.1,0.9,0.1,1.3,0.2c0.2,0,0.5,0.1,0.6,0.1l0.7,0
				c1.9,0,3.8,0,5.8,0c2-0.1,4-0.2,5.9-0.4c1-0.1,2-0.2,3-0.4l1.5-0.2c0.5-0.1,1-0.2,1.4-0.3c1-0.2,1.9-0.4,2.8-0.6
				c0.9-0.3,1.8-0.6,2.7-0.8c0.9-0.2,1.7-0.7,2.5-1c0.4-0.2,0.8-0.3,1.2-0.5c0.4-0.2,0.8-0.4,1.1-0.6c1.5-0.8,2.8-1.7,4-2.6
				c0.5-0.5,1.1-0.9,1.6-1.4c0.4-0.5,0.9-1,1.3-1.4c0.3-0.5,0.7-0.9,1-1.4c0.3-0.5,0.5-0.9,0.7-1.3c0.2-0.4,0.4-0.8,0.5-1.1
				c0.1-0.3,0.2-0.6,0.3-0.8C255.3,281,255.3,280.8,255.3,280.8z"/>
		</g>
	</g>
	<path class="st1" d="M383.3,281.9c4.7,5.6-2.5,10.5-14.3,9.7c-15.3-1-23.7-10.2-17.3-15.2c2.7-2.2,7-2.2,9.1-2.3
		C372,274.5,380.3,278.4,383.3,281.9"/>
	<g>
		<path class="st7" d="M387,281.5c0.5,0.8,0.9,1.8,1.1,2.8c0.1,1,0,2.1-0.5,3.1c-0.5,1-1.3,1.7-2.2,2.3c-0.9,0.6-1.9,1-2.9,1.3
			c-1,0.3-2,0.5-3,0.7c-1,0.2-2,0.3-3,0.3c-1,0.1-2,0.1-3,0.1c-1,0-2,0-3-0.1c-1.1,0-2.1-0.3-3.1-0.4c-1-0.2-2-0.4-3-0.7
			c-2-0.5-3.9-1.3-5.8-2.3c-0.9-0.5-1.8-1.1-2.7-1.8c-0.8-0.7-1.6-1.5-2.2-2.4c-0.6-0.9-1.1-2-1.2-3.2c-0.2-1.1-0.1-2.3,0.1-3.4
			l0.1-0.2l0.1-0.2c0.6-0.7,1.2-1.1,1.8-1.6c0.6-0.4,1.3-0.8,2-1.2c0.7-0.4,1.4-0.6,2.1-0.9c0.7-0.3,1.4-0.4,2.2-0.6l2.2-0.3
			l2.2-0.1c0.7,0,1.5,0.1,2.2,0.1c0.7,0,1.4,0.2,2.2,0.3c0.7,0.1,1.4,0.2,2.1,0.5l2.1,0.6c0.7,0.2,1.3,0.5,2,0.8
			c0.7,0.3,1.3,0.5,2,0.8l1.9,1c0.6,0.3,1.3,0.6,1.9,1c1.2,0.7,2.4,1.5,3.6,2.3c-1.3-0.6-2.6-1.2-3.8-1.9c-0.6-0.3-1.3-0.6-2-0.8
			l-2-0.8c-0.7-0.2-1.3-0.4-2-0.7c-0.7-0.2-1.3-0.5-2-0.6l-2-0.5c-0.7-0.2-1.4-0.2-2.1-0.3c-0.7-0.1-1.4-0.2-2.1-0.2
			c-0.7,0-1.4-0.1-2.1,0l-2,0.2l-2,0.4c-0.6,0.2-1.3,0.4-1.9,0.6c-0.6,0.3-1.3,0.5-1.8,0.8c-0.6,0.3-1.1,0.7-1.7,1.1
			c-0.5,0.4-1.1,0.8-1.4,1.2l0.2-0.4c-0.4,1.8-0.1,3.5,0.9,5c1,1.5,2.5,2.6,4.2,3.5c1.7,0.9,3.5,1.6,5.4,2.2
			c0.9,0.3,1.9,0.5,2.8,0.8c1,0.2,1.9,0.5,2.8,0.5c1,0.1,2,0.2,3,0.2c1,0,2,0.1,3,0.1c1,0,2-0.1,2.9-0.1c1-0.1,1.9-0.2,2.9-0.4
			c0.9-0.2,1.9-0.5,2.7-1c0.8-0.4,1.6-1,2.1-1.8c0.5-0.8,0.7-1.8,0.7-2.7C387.7,283.3,387.4,282.4,387,281.5z"/>
	</g>
	<g>
		<path class="st7" d="M429.3,303.8c0,0-0.7,0-2-0.2c-1.3-0.2-3.1-0.4-5.2-1c-1.1-0.3-2.2-0.6-3.4-1c-1.2-0.4-2.5-0.9-3.7-1.6
			c-1.2-0.7-2.5-1.5-3.6-2.7c-1-1.2-1.9-2.9-1.7-4.6c0-0.8,0.3-1.7,0.6-2.4c0.4-0.9,0.9-1.5,1.6-2.1c1.3-1.1,3-1.5,4.5-1.5
			c1.5-0.1,2.8,0.2,4.1,0.4c1.3,0.3,2.4,0.7,3.4,1.1c2.1,0.8,3.7,1.6,4.8,2.2c1.1,0.6,1.7,1,1.7,1s-0.7-0.3-1.9-0.7
			c-1.2-0.4-2.9-1-5-1.5c-1-0.3-2.2-0.5-3.4-0.7c-1.2-0.2-2.5-0.3-3.7-0.1c-0.6,0.1-1.2,0.2-1.8,0.4c-0.6,0.2-1.1,0.5-1.5,0.9
			c-0.4,0.4-0.8,0.9-1,1.3c-0.3,0.7-0.4,1.2-0.4,1.8c-0.1,1.2,0.4,2.3,1.2,3.3c0.8,1,1.9,1.8,3,2.5c2.2,1.4,4.6,2.3,6.6,3.1
			c2,0.7,3.7,1.3,5,1.7C428.6,303.6,429.3,303.8,429.3,303.8z"/>
	</g>
	<g>
		<path class="st7" d="M270.1,304.9c0,0,0.1-0.3,0.5-0.7c0.3-0.4,0.8-1.1,1.5-1.8c0.7-0.7,1.7-1.5,2.8-2.4c0.6-0.4,1.2-0.8,1.9-1.3
			c0.7-0.4,1.4-0.8,2.2-1.2c0.8-0.4,1.6-0.8,2.5-1.2c0.9-0.3,1.8-0.7,2.7-1.1c1-0.3,1.9-0.6,2.9-0.9c1-0.3,2.1-0.5,3.1-0.8
			c2.1-0.4,4.4-0.8,6.7-1c0.6-0.1,1.1-0.1,1.7-0.2l1.7-0.1c1.2,0,2.3-0.1,3.5-0.2c1.2,0,2.3,0,3.4,0c1.1,0,2.3,0.1,3.5,0.2
			c0.6,0,1.2,0.1,1.7,0.1c0.6,0.1,1.1,0.2,1.7,0.3c1.1,0.2,2.2,0.3,3.3,0.6c2.2,0.4,4.2,1,6.1,1.7c0.9,0.4,1.9,0.7,2.7,1.1
			c0.9,0.4,1.7,0.8,2.5,1.2c1.5,0.8,2.9,1.7,4,2.6c1.1,0.9,2.1,1.7,2.8,2.4c0.7,0.7,1.2,1.4,1.5,1.8c0.3,0.4,0.5,0.7,0.5,0.7
			s-0.7-0.9-2.3-2.2c-0.8-0.7-1.7-1.4-2.9-2.1c-1.2-0.7-2.6-1.5-4.1-2.2c-0.8-0.4-1.6-0.7-2.5-1c-0.9-0.3-1.8-0.6-2.7-0.9
			c-1.9-0.5-3.9-1-6-1.4c-1-0.2-2.1-0.3-3.2-0.5c-0.5-0.1-1.1-0.1-1.6-0.2c-0.5,0-1.1-0.1-1.7-0.1c-1.1-0.1-2.2-0.2-3.4-0.2
			c-1.1,0-2.3,0-3.4,0c-1.1,0-2.3,0.1-3.4,0.1l-1.7,0.1c-0.6,0.1-1.1,0.1-1.7,0.2c-2.2,0.2-4.4,0.5-6.5,0.8c-1,0.2-2.1,0.4-3.1,0.6
			c-1,0.3-2,0.5-2.9,0.8c-0.9,0.3-1.8,0.6-2.7,0.9c-0.9,0.3-1.7,0.7-2.5,1c-0.8,0.3-1.5,0.7-2.2,1c-0.7,0.4-1.3,0.7-1.9,1.1
			c-1.2,0.7-2.2,1.4-2.9,2.1c-0.8,0.6-1.4,1.2-1.7,1.6C270.3,304.6,270.1,304.9,270.1,304.9z"/>
	</g>
	<g>
		<ellipse id="XMLID_38_" class="st16" cx="221.8" cy="176.3" rx="18.3" ry="18.3"/>
		<path id="XMLID_37_" class="st16" d="M241.3,165.6c2.6,0.4,4.3,1.4,4.9,2.9c1.6,4.5-7.9,12-21.2,16.9c-13.3,4.9-25.5,5.1-27.1,0.6
			c-0.5-1.4,0-3,1.4-4.7"/>
		<path id="XMLID_36_" class="st16" d="M232.8,168c0.8,1.1,1.5,2.3,2,3.6"/>
		<path id="XMLID_35_" class="st16" d="M217.1,163.4c4-1.5,8.3-0.9,11.7,1.1"/>
	</g>
	<g>
		<linearGradient id="SVGID_1_" gradientUnits="userSpaceOnUse" x1="187.1753" y1="228.3014" x2="269.536" y2="228.3014">
			<stop  offset="0" style="stop-color:#272DAD;stop-opacity:0.3"/>
			<stop  offset="0.1835" style="stop-color:#2A30AE;stop-opacity:0.2449"/>
			<stop  offset="0.3241" style="stop-color:#3439B2;stop-opacity:0.2028"/>
			<stop  offset="0.4503" style="stop-color:#4449B8;stop-opacity:0.1649"/>
			<stop  offset="0.5683" style="stop-color:#5B60C1;stop-opacity:0.1295"/>
			<stop  offset="0.6804" style="stop-color:#797DCC;stop-opacity:9.586689e-002"/>
			<stop  offset="0.7882" style="stop-color:#9EA0DA;stop-opacity:6.354734e-002"/>
			<stop  offset="0.8924" style="stop-color:#C9CBEB;stop-opacity:3.226960e-002"/>
			<stop  offset="0.9916" style="stop-color:#FAFBFD;stop-opacity:2.531588e-003"/>
			<stop  offset="1" style="stop-color:#FFFFFF;stop-opacity:0"/>
		</linearGradient>
		<rect x="187.2" y="150" class="st17" width="82.4" height="156.7"/>
		
			<linearGradient id="SVGID_2_" gradientUnits="userSpaceOnUse" x1="309.0753" y1="225.5016" x2="402.4198" y2="225.5016" gradientTransform="matrix(-1 0 0 1 736.7113 0)">
			<stop  offset="0" style="stop-color:#272DAD;stop-opacity:0.3"/>
			<stop  offset="0.1835" style="stop-color:#2A30AE;stop-opacity:0.2449"/>
			<stop  offset="0.3241" style="stop-color:#3439B2;stop-opacity:0.2028"/>
			<stop  offset="0.4503" style="stop-color:#4449B8;stop-opacity:0.1649"/>
			<stop  offset="0.5683" style="stop-color:#5B60C1;stop-opacity:0.1295"/>
			<stop  offset="0.6804" style="stop-color:#797DCC;stop-opacity:9.586689e-002"/>
			<stop  offset="0.7882" style="stop-color:#9EA0DA;stop-opacity:6.354734e-002"/>
			<stop  offset="0.8924" style="stop-color:#C9CBEB;stop-opacity:3.226960e-002"/>
			<stop  offset="0.9916" style="stop-color:#FAFBFD;stop-opacity:2.531588e-003"/>
			<stop  offset="1" style="stop-color:#FFFFFF;stop-opacity:0"/>
		</linearGradient>
		<rect x="334.3" y="147.2" class="st18" width="93.3" height="156.7"/>
	</g>
</g>
<g id="smartphone">
	<path class="st1" d="M175.3,191.3h-68.1c-9,0-16.4-7.3-16.4-16.4V35.3c0-9,7.3-16.4,16.4-16.4h68.1c9,0,16.4,7.3,16.4,16.4v139.6
		C191.6,184,184.3,191.3,175.3,191.3z"/>
	<path class="st19" d="M90.8,170.8v1.7c0,8.7,7,15.7,15.7,15.7H172c8.7,0,15.7-7,15.7-15.7v-1.7H90.8z M138.2,186.4
		c-3.8,0-6.9-3.1-6.9-6.9c0-3.8,3.1-6.9,6.9-6.9s6.9,3.1,6.9,6.9S142,186.4,138.2,186.4z"/>
	<path class="st19" d="M170.3,18.2h-65.4c-8.7,0-15.7,7-15.7,15.7v1.7h96.9v-1.7C186.1,25.3,179,18.2,170.3,18.2z M117.3,29
		c-0.9,0-1.7-0.7-1.7-1.7c0-0.9,0.7-1.7,1.7-1.7c0.9,0,1.7,0.7,1.7,1.7C118.9,28.3,118.2,29,117.3,29z M157.1,29h-27.4
		c-0.9,0-1.7-0.7-1.7-1.7c0-0.9,0.7-1.7,1.7-1.7H157c0.9,0,1.7,0.7,1.7,1.7C158.7,28.3,158,29,157.1,29z"/>
	<rect x="89.6" y="38.7" class="st20" width="89.6" height="122.4"/>
	<path class="st11" d="M170.4,186.8h-68.1c-9.1,0-16.4-7.4-16.4-16.4V31.6c0-9.1,7.4-16.4,16.4-16.4h68.1c9.1,0,16.4,7.4,16.4,16.4
		v138.8C186.8,179.4,179.5,186.8,170.4,186.8z"/>
	<circle class="st21" cx="134.8" cy="177" r="6.9"/>
	<path class="st21" d="M156.3,26.2h-28.4c-1,0-1.7-0.8-1.7-1.7l0,0c0-1,0.8-1.7,1.7-1.7h28.4c1,0,1.7,0.8,1.7,1.7l0,0
		C158.1,25.4,157.3,26.2,156.3,26.2z"/>
	<circle class="st21" cx="115" cy="24.4" r="1.7"/>
	<line class="st22" x1="84.8" y1="33.5" x2="185.6" y2="33.5"/>
	<line class="st22" x1="85.2" y1="167.5" x2="186.1" y2="167.5"/>
	<g class="st23">
		<polygon class="st24" points="179.6,161.4 179.6,116.7 120.2,161.4 		"/>
		<polygon class="st24" points="90,39.1 90,86 152.3,39.1 		"/>
		<polygon class="st24" points="159.5,39.1 90,91.4 90,95.7 165.2,39.1 		"/>
		<polygon class="st24" points="90,147.5 179.6,80 179.6,72.5 90,139.9 		"/>
		<polygon class="st24" points="176.7,39.1 90,104.4 90,128.1 179.6,60.6 179.6,39.1 		"/>
		<polygon class="st24" points="90,136.7 179.6,69.2 179.6,63.8 90,131.3 		"/>
		<polygon class="st24" points="90,161.4 107.3,161.4 179.6,107 179.6,89.7 90,157.2 		"/>
	</g>
	<rect x="97.3" y="49" class="st21" width="76.7" height="27.6"/>
	<rect x="97.7" y="82.2" class="st25" width="27.6" height="27.6"/>
	<rect x="97.7" y="113.2" class="st25" width="27.6" height="17.2"/>
	<rect x="130.5" y="82.2" class="st25" width="43.9" height="49.1"/>
	<rect x="96.9" y="136.5" class="st25" width="77.5" height="20.7"/>
</g>
<g id="tablet">
	<path class="st1" d="M578.8,492.5H406.7c-8,0-14.6-6.5-14.6-14.6V360.4c0-8,6.5-14.6,14.6-14.6h172.2c8,0,14.6,6.5,14.6,14.6v117.5
		C593.4,486,586.9,492.5,578.8,492.5z"/>
	<g>
		<polygon class="st26" points="430.9,484.4 436.4,484.4 562.5,358.2 557,358.2 		"/>
		<polygon class="st26" points="577.3,382 577.3,358.6 451.6,484.4 475,484.4 		"/>
		<polygon class="st26" points="574.9,358.2 570.8,358.2 444.7,484.4 448.8,484.4 		"/>
		<polygon class="st26" points="577.3,393.1 577.3,384.8 477.8,484.4 486,484.4 		"/>
		<polygon class="st26" points="554.2,358.2 508.7,358.2 418.3,448.6 418.3,484.4 428.1,484.4 		"/>
		<polygon class="st26" points="488.8,484.4 577.3,484.4 577.3,395.8 		"/>
		<polygon class="st26" points="493.6,358.2 418.3,358.2 418.3,433.5 		"/>
		<polygon class="st26" points="418.3,441.7 501.8,358.2 496.3,358.2 418.3,436.2 		"/>
	</g>
	<path class="st24" d="M587,351H414.9c-8.1,0-14.6,6.5-14.6,14.5V483c0,8,6.5,14.6,14.6,14.6h172.2c8,0,14.6-6.5,14.6-14.6V365.5
		C601.6,357.5,595.1,351,587,351z M583.4,487.6H420.3V358.2h163.1V487.6z"/>
	<circle class="st27" cx="410.2" cy="423.7" r="5.5"/>
	<path class="st27" d="M589,453.3L589,453.3c-1,0-1.8-0.8-1.8-1.8v-31c0-1,0.8-1.8,1.8-1.8l0,0c1,0,1.8,0.8,1.8,1.8v31
		C590.9,452.5,590,453.3,589,453.3z"/>
	<path class="st11" d="M584.4,491.1H411.3c-7.9,0-14.3-6.4-14.3-14.3V359.5c0-7.9,6.4-14.3,14.3-14.3h173.2
		c7.9,0,14.3,6.4,14.3,14.3v117.3C598.7,484.7,592.3,491.1,584.4,491.1z"/>
	<circle class="st27" cx="589" cy="409.4" r="1.8"/>
	<rect x="426.6" y="371.4" class="st19" width="147" height="36"/>
	<rect x="424.6" y="368.4" class="st28" width="147" height="36"/>
	<rect x="474.6" y="411.4" class="st28" width="97" height="36"/>
	<rect x="425.1" y="454.9" class="st29" width="146" height="22"/>
	<rect x="425.1" y="411.9" class="st28" width="44" height="36"/>
</g>

<style>
	#devices_zoom_animation #smartphone {
		-webkit-transform-origin: 0% 0%;
		transform-origin: 0% 0%;
		-webkit-animation: scaleDevice 1s linear 0s forwards;
		animation: scaleDevice 1s linear 0s forwards;
	}

	#devices_zoom_animation #laptop {
		-webkit-transform-origin: 50% 50%;
		transform-origin: 50% 50%;
		-webkit-animation: scaleDevice 1s linear 1s forwards;
		animation: scaleDevice 1s linear 1s forwards;
	}

	#devices_zoom_animation #tablet {
		-webkit-transform-origin: 50% 100%;
		transform-origin: 50% 100%;
		-webkit-animation: scaleDevice 1s linear 2s forwards;
		animation: scaleDevice 1s linear 2s forwards;
	}

	@-webkit-keyframes scaleDevice {
		0% {
	    -webkit-transform: scale(1);
	    transform: scale(1);
	  }
	  50% {
			-webkit-transform: scale(1.2);
			transform: scale(1.2);
		}
		100% {
			-webkit-transform: scale(1);
			transform: scale(1);
		}
	}

	@keyframes scaleDevice {
		0% {
	    transform: scale(1);
	  }
	  50% {
			transform: scale(1.2);
		}
		100% {
			transform: scale(1);
		}
	}
</style>

</svg>
