<?xml version="1.0" encoding="utf-8"?>
<!-- Generator: Adobe Illustrator 19.0.0, SVG Export Plug-In . SVG Version: 6.00 Build 0)  -->
<svg version="1.1" id="geet_your_google_universe_in_order"
	 xmlns="http://www.w3.org/2000/svg" xmlns:xlink="http://www.w3.org/1999/xlink" x="0px" y="0px" viewBox="0 0 679.6 571.2"
	 style="enable-background:new 0 0 679.6 571.2;" xml:space="preserve">
<style type="text/css">
	.st0{fill:#EFF4F7;}
	.st1{fill:#77E084;}
	.st2{fill:url(#SVGID_1_);}
	.st3{fill:#4248B7;}
	.st4{opacity:0.46;}
	.st5{fill:none;stroke:#FFFFFF;stroke-miterlimit:10;}
	.st6{fill:url(#SVGID_2_);}
	.st7{fill:#EA6054;}
	.st8{fill:none;stroke:#272DAD;stroke-width:2.2008;stroke-linecap:round;stroke-linejoin:round;stroke-miterlimit:10;}
	.st9{fill:#FBBC05;}
	.st10{fill:#6EA5FF;}
	.st11{fill:#5AD179;}
	.st12{fill:#FFFFFF;}
	.st13{fill:none;stroke:#FFFFFF;stroke-width:2.487;stroke-linecap:round;stroke-miterlimit:10;}
	.st14{fill:none;stroke:#6EA1FF;stroke-width:2.487;stroke-linecap:round;stroke-miterlimit:10;}
	.st15{fill:none;stroke:#272DAD;stroke-width:2.487;stroke-linecap:round;stroke-miterlimit:10;}
	.st16{fill:none;stroke:#FFE899;stroke-width:2.487;stroke-linecap:round;stroke-miterlimit:10;}
	.st17{opacity:0.42;}
	.st18{opacity:0.49;}
	.st19{fill:none;stroke:#FFFFFF;stroke-width:2.487;stroke-linecap:round;stroke-linejoin:round;stroke-miterlimit:10;}
	.st20{fill:#FFDA5C;}
	.st21{fill:#272DAD;}
</style>
<path id="back" class="st0" d="M337,2.4c-51.8-4.7-109.7-5-153.6,23c-12.9,8.3-24.5,19.4-30.7,33.5s-6.3,31.3,2,44.2
	c3.2,4.9,17,50.8-4.7,79.3c-14.9,19.5-50.8,45.8-78.8,64.3C48.1,261.9,0.3,287,0,358.4c-0.3,65.6,61.2,86,87.1,86.6
	s56.4,13.7,58.7,39.5c1.4,16.3-9.4,31.8-7.8,48.1c1.5,15.6,25,37.8,75.6,38.6c35.5,0.5,71.3-4.2,105.3-14.6
	c41.3-12.6,79-36,121.2-45.6c62.1-14.2,128.1,2.5,190.3-10.9c11.5-2.5,23.2-6.2,32.2-13.8c13.6-11.4,19.3-30.7,16.1-48.2
	c-3.2-17.4-14.5-32.8-29.1-43c-24.9-17.4-60.5-22.3-75.4-48.7c-10.1-17.8-7-40.5,1-59.3c8.1-18.8,20.7-35.4,30-53.6
	c13.5-26.3,20.1-56.8,15.1-85.9s-22.4-56.7-48.4-70.8c-26.3-14.3-57.8-13.9-87.6-16.8c-29.3-2.8-53.1-1.9-74.3-22.6
	C387.9,15.8,367.8,5.1,337,2.4z"/>
<g id="snowball">
	<path class="st1" d="M569.1,443c0-3.2-0.7-6.2-1.2-9.3c-0.6-4.6-0.7-9.3-0.7-13.9c0-1.7,0.7-3,1.8-3.8c0.1-0.5,0.1-1,0.2-1.5
		c-0.2-1-0.2-2-0.2-3.1c-28.4,15.6-120,27-228.6,27c-131.3,0-237.7-16.7-237.7-37.3v3.4c0.1,1.8-0.1,3.5,0.1,5.3
		c0.2,3,1.2,5.9,1.6,8.8c0.9,6.8,1.1,13.4,0.1,20.2c-0.2,1.3-0.7,2.1-1.4,2.7c0,1.9-0.2,3.8-0.3,5.7v6.8c0.3,0.8,0.6,1.6,0.9,2.3
		c1,2.6,2,5.2,2.5,7.9c0.8,0,1.7,0.3,2.7,0.9c1.7,1.2,2.9,2.5,4.2,4c0.1,0,0.2,0,0.3,0c5.1-0.1,9.7,2.1,14.7,3
		c2.5,0.5,4.9,0.8,7.3,1.7c2.6,1,4.9,2.5,7.5,3.3c12,3.7,24.7,4,36.7,8c3.6,1.2,4.3,4.8,2.8,7.3c4.6,0.5,9.3,1.1,13.9,1.7
		c0.7-0.5,1.6-0.9,2.5-1c15.3-1.3,30.7-1.4,45.9,1c5.3,0.9,10.6,1.6,15.9,2.2c0.6-0.3,1.3-0.4,2.2-0.4c23.3,0,46.6,1.5,70,1.2
		c10.9-0.1,21.7,0.5,32.5,0.2c8.8-0.3,17.6-0.6,26.3,0.4c0.4-0.2,0.7-0.3,1.2-0.4c0.4-0.1,0.9-0.1,1.3-0.2c0,0,0,0,0,0c0,0,0,0,0,0
		c12.6-1.7,25.4-2.8,38.1-4.1c10.8-1.1,21.7-1.4,32.5-2.5c10.1-1.7,20.2-3.8,30.4-4.8c0.6-0.1,1.2,0,1.7,0.1
		c6.2-1.9,12.8-2.5,19.2-3.2c7.9-0.9,15.6-3,23.1-5.7c7.6-2.8,15.3-5.5,22.2-9.7c1.6-1,3.2-2,4.8-3c2-2.4,3.2-5.1,3.9-7.9
		C568.7,452.2,569.1,447.3,569.1,443z"/>
	<linearGradient id="SVGID_1_" gradientUnits="userSpaceOnUse" x1="336.1533" y1="497.2841" x2="336.1533" y2="318.0972">
		<stop  offset="0" style="stop-color:#04B04A;stop-opacity:0.49"/>
		<stop  offset="0.8471" style="stop-color:#04B04A;stop-opacity:0"/>
	</linearGradient>
	<path class="st2" d="M106.3,318.1c0,0,233.7,73.1,461.7,0l1.9,138.4c0,0-6.6,39-237.3,40.8s-230.3-44.1-230.3-44.1L106.3,318.1z"/>
	<g>
		<path class="st3" d="M336.7,63.4c6.6,0,13.3,0.6,19.8,1.3c1.6,0.2,3.3,0.4,4.9,0.6c1.6,0.2,3.3,0.4,4.9,0.7c3.3,0.5,6.6,1,9.8,1.6
			c6.5,1.2,13,2.7,19.5,4.3c3.2,0.8,6.4,1.8,9.6,2.6c3.2,1,6.4,2,9.5,3c3.1,1.1,6.3,2.2,9.4,3.3l9.3,3.7l9.2,4.1c3,1.5,6,3,9,4.5
			c5.9,3.2,11.8,6.4,17.4,10.1c1.4,0.9,2.8,1.8,4.2,2.7l4.1,2.9c2.7,2,5.5,3.9,8.1,6c2.6,2.1,5.3,4.2,7.8,6.4c2.5,2.3,5,4.5,7.5,6.8
			c1.3,1.1,2.4,2.3,3.6,3.6l3.5,3.7l3.5,3.7l3.2,3.9l3.2,3.9l1.6,1.9l0.8,1l0.8,1l6,8.1l1.5,2c0.5,0.7,0.9,1.4,1.4,2.1l2.8,4.2
			l2.7,4.2l1.4,2.1l1.2,2.2l5,8.8l1.2,2.2l1.1,2.3l2.2,4.5l2.2,4.5c0.7,1.5,1.5,3,2.1,4.6l3.9,9.3c0.6,1.6,1.3,3.1,1.9,4.7l1.7,4.8
			l3.3,9.5c0.6,1.6,1,3.2,1.5,4.8l1.4,4.8l2.7,9.7l-0.7-1.3c0.1,0.2,0.3,0.4,0.4,0.5c0.1,0.1,0.1,0.1,0.1,0.2l0.1,0.1l0.2,0.4
			c0.1,0.3,0.2,0.5,0.3,0.7c0.1,0.4,0.3,0.9,0.4,1.3c0.2,0.8,0.4,1.6,0.6,2.3l0.5,2.2l0.4,2.2c0.3,1.5,0.4,2.9,0.6,4.4
			c0.2,1.4,0.4,2.9,0.5,4.3l0.4,4.3l0.3,4.3c0.3,2.9,0.4,5.7,0.6,8.6c0.2,2.9,0.3,5.7,0.4,8.6c0.1,2.9,0.3,5.7,0.4,8.6l0.3,8.6
			c0.1,2.9,0.1,5.7,0.2,8.6l0.2,8.6l0.1,8.6l0.1,8.6l0,8.6c0,5.7,0,11.4-0.1,17.2l-0.2,17.2l-0.1-0.8c0,0.2,0.1,0.4,0.1,0.5l0,0.3
			c0,0.2,0,0.4,0,0.5c0,0.3,0,0.6-0.1,0.9c-0.1,0.5-0.2,1-0.3,1.5l-0.2,0.7l-0.3,0.6c-0.2,0.4-0.4,0.8-0.6,1.2
			c-0.2,0.4-0.4,0.7-0.6,1.1l-0.7,1c-0.5,0.7-1,1.2-1.5,1.8c-2.1,2.2-4.4,3.8-6.7,5.3c-4.7,2.9-9.6,5.1-14.5,6.9
			c-1.2,0.5-2.5,0.9-3.7,1.3c-1.2,0.4-2.5,0.9-3.7,1.2c-2.5,0.7-5,1.6-7.5,2.2c-2.5,0.7-5,1.4-7.6,1.9c-2.5,0.6-5.1,1.2-7.6,1.7
			c-5.1,1.1-10.2,2-15.3,2.9c-5.1,0.8-10.2,1.7-15.3,2.3c-10.2,1.5-20.5,2.6-30.8,3.6l-15.4,1.4l-15.4,1.1l-15.4,0.9l-15.4,0.8
			c-5.1,0.3-10.3,0.4-15.4,0.6l-7.7,0.3l-7.7,0.2l-7.7,0.2l-3.9,0.1l-1,0l-0.6,0l-0.5,0l-1.9,0c-5.2,0-10.3-0.1-15.4-0.2
			c-20.6-0.4-41.2-1.1-61.7-2.2c-20.6-1.1-41.1-2.5-61.6-4.4c-10.3-1-20.5-2.1-30.7-3.5c-10.2-1.4-20.5-2.9-30.6-4.9
			c-10.2-2-20.3-4.3-30.3-7.5c-5-1.6-10-3.5-14.8-6c-2.4-1.3-4.8-2.6-7.1-4.4c-2.3-1.7-4.5-3.7-6.2-6.4l-0.5-0.8l0-0.9
			c-0.5-9.9-0.7-19.6-0.7-29.4c0-9.8,0.1-19.6,0.4-29.3c0.6-19.6,2-39.1,4.4-58.6c1.2-9.7,2.7-19.4,4.6-29.1
			c1.9-9.6,4.2-19.2,7.1-28.7c0.8-2.4,1.5-4.7,2.3-7.1l1.3-3.5l0.6-1.8l0-0.1c0.1-0.1-0.1,0.1,0.1-0.3l0.1-0.2l0.2-0.4l0.4-0.9
			c2.2-4.5,4.6-8.8,7-13.1c5-8.5,10.4-16.8,16.2-24.7c5.8-7.9,12.1-15.6,18.7-22.9c3.3-3.7,6.7-7.2,10.2-10.8
			c3.6-3.4,7.1-6.9,10.9-10c3.7-3.3,7.6-6.2,11.5-9.3c2-1.5,4-2.9,6-4.3l3-2.2l3.1-2l6.2-4l6.4-3.7l3.2-1.9l3.3-1.7l6.5-3.4
			c8.9-4.2,17.9-8.1,27.2-11.1c2.3-0.8,4.6-1.6,7-2.3l7.1-2c4.7-1.4,9.5-2.3,14.3-3.4c1.2-0.2,2.4-0.6,3.6-0.7l3.6-0.6L293,66
			c1.2-0.2,2.4-0.4,3.6-0.5l3.6-0.4l7.3-0.8l14.6-0.9L336.7,63.4z M336.7,63.4l-14.6,0.1c-4.9,0.4-9.7,0.6-14.6,1.1l-7.2,1l-3.6,0.5
			c-1.2,0.2-2.4,0.3-3.6,0.6l-7.2,1.4l-3.6,0.7c-1.2,0.2-2.4,0.6-3.5,0.9c-4.7,1.3-9.4,2.3-14,4l-6.9,2.3c-2.3,0.8-4.5,1.8-6.8,2.6
			c-9,3.5-17.7,7.9-26.2,12.5l-6.2,3.7l-3.1,1.8l-3,2l-6,4l-5.9,4.2l-2.9,2.1l-2.8,2.2c-1.9,1.5-3.8,2.9-5.7,4.5
			c-3.6,3.1-7.4,6.2-10.8,9.5c-3.6,3.2-7,6.6-10.5,9.9c-3.4,3.4-6.8,6.8-10,10.4c-6.5,7.1-12.6,14.6-18.3,22.3
			c-5.7,7.7-11,15.8-15.8,24.1c-2.4,4.1-4.7,8.4-6.8,12.6l-0.4,0.8l-0.2,0.4l-0.1,0.2c0.2-0.4,0,0,0-0.1l0,0.1l-0.6,1.7l-1.2,3.4
			c-0.8,2.2-1.5,4.6-2.2,6.8c-2.8,9.2-5,18.5-6.9,28c-1.9,9.5-3.3,19-4.5,28.6c-2.4,19.2-3.7,38.5-4.4,57.9
			c-0.3,9.7-0.4,19.4-0.4,29.1c0.1,9.7,0.2,19.4,0.7,29l-0.5-1.7c1.1,1.7,2.7,3.2,4.5,4.6c1.8,1.4,3.9,2.6,6,3.7
			c4.3,2.2,9,4,13.8,5.5c9.5,3.1,19.5,5.4,29.5,7.3c10,1.9,20.1,3.5,30.2,4.8c10.1,1.3,20.3,2.5,30.5,3.4c20.4,2,40.8,3.4,61.3,4.4
			c20.5,1.1,41,1.8,61.5,2.2c5.1,0.1,10.3,0.2,15.4,0.2l1.9,0l0.5,0l0.4,0l1,0l3.8-0.1l7.7-0.2l7.7-0.2l7.7-0.3
			c5.1-0.2,10.2-0.3,15.4-0.6l15.4-0.7l15.3-0.9l15.3-1.1l15.3-1.4c10.2-1,20.4-2.1,30.5-3.6c5.1-0.7,10.1-1.5,15.1-2.3
			c5-0.9,10-1.8,15-2.9c2.5-0.5,5-1.1,7.4-1.7c2.5-0.5,4.9-1.2,7.4-1.9c2.5-0.6,4.8-1.4,7.3-2.1c1.2-0.4,2.4-0.8,3.6-1.2
			c1.2-0.4,2.4-0.8,3.5-1.3c4.7-1.7,9.2-3.8,13.3-6.3c2-1.3,3.9-2.7,5.4-4.2c0.3-0.4,0.7-0.8,1-1.2l0.4-0.6l0.3-0.6
			c0.1-0.2,0.2-0.4,0.3-0.6l0.1-0.3l0.1-0.2c0.1-0.2,0.1-0.3,0.1-0.4c0-0.1,0-0.1,0-0.1c0,0,0,0,0,0l0,0c0,0,0,0.2,0,0.2l-0.1-0.8
			l0.2-17.1c0.1-5.7,0-11.4,0.1-17.1l0-8.6l-0.1-8.6l-0.1-8.6l-0.2-8.5c-0.1-2.8-0.1-5.7-0.2-8.5l-0.3-8.5c-0.1-2.8-0.2-5.7-0.4-8.5
			c-0.1-2.8-0.3-5.7-0.4-8.5c-0.2-2.8-0.3-5.7-0.6-8.5l-0.3-4.2l-0.4-4.2c-0.1-1.4-0.3-2.8-0.5-4.2c-0.2-1.4-0.3-2.8-0.6-4.1l-0.3-2
			l-0.4-2c-0.1-0.7-0.3-1.2-0.5-1.9c-0.1-0.3-0.2-0.5-0.3-0.8c0-0.1-0.1-0.3-0.1-0.3c0,0,0,0,0-0.1l0,0c0,0,0,0,0,0.1
			c0.1,0.1,0.1,0.2,0.2,0.3l-0.7-1.3l-2.7-9.5l-1.3-4.7c-0.4-1.6-0.9-3.2-1.4-4.7l-3.2-9.3l-1.6-4.6c-0.6-1.5-1.2-3-1.9-4.5
			l-3.8-9.1c-0.6-1.5-1.4-3-2.1-4.5l-2.2-4.4l-2.1-4.4l-1.1-2.2l-1.2-2.1l-4.8-8.5l-1.2-2.1l-1.3-2.1l-2.7-4.1l-2.7-4.1
			c-0.5-0.7-0.9-1.4-1.4-2l-1.5-2l-5.8-7.9l-0.7-1l-0.8-0.9l-1.6-1.9l-3.2-3.7c-1.1-1.2-2.1-2.5-3.2-3.7l-3.4-3.5l-3.4-3.5l-1.7-1.8
			c-0.6-0.6-1.2-1.1-1.7-1.7c-2.4-2.3-4.7-4.5-7-6.8c-2.4-2.2-4.9-4.3-7.4-6.5c-2.4-2.2-5.1-4.1-7.6-6.2l-3.9-3
			c-1.3-1-2.7-1.9-4-2.8c-5.3-3.9-10.9-7.4-16.4-10.8c-2.9-1.6-5.7-3.3-8.6-4.9l-8.8-4.5l-9-4.2c-3-1.3-6.1-2.5-9.1-3.8
			c-3.1-1.2-6.2-2.3-9.3-3.4c-3.1-1-6.3-2.1-9.4-3c-6.4-1.8-12.7-3.6-19.2-4.9c-6.5-1.4-13-2.5-19.6-3.3
			C350,64.1,343.4,63.5,336.7,63.4z"/>
	</g>
	<g>
		<path class="st3" d="M572.3,389.4l0.8,18.3l0.7,18.3c0.5,12.2,0.8,24.4,1.2,36.6l-0.2-1.3c0.2,0.6,0.2,0.7,0.3,1
			c0,0.3,0,0.4,0.1,0.6c0,0.2,0,0.4,0,0.6l-0.1,0.5l-0.1,0.5l-0.1,0.4c-0.1,0.3-0.2,0.6-0.3,0.8c-0.2,0.4-0.4,0.9-0.7,1.3
			c-0.2,0.4-0.5,0.7-0.8,1.1c-0.5,0.6-1.1,1.3-1.6,1.8l-0.8,0.8c-0.3,0.2-0.6,0.4-0.9,0.7c-2.3,1.7-4.7,3-7.1,4
			c-4.8,2.1-9.6,3.8-14.5,5.3c-4.9,1.4-9.8,2.7-14.7,3.8c-4.9,1.1-9.8,2.1-14.8,3.1l-7.4,1.4l-7.4,1.2c-4.9,0.8-9.9,1.5-14.8,2.2
			c-5,0.7-9.9,1.4-14.9,2c-5,0.6-9.9,1.2-14.9,1.7l-7.4,0.8l-7.5,0.7c-5,0.5-9.9,1-14.9,1.4c-5,0.4-9.9,0.9-14.9,1.3l-14.9,1.2
			l-14.9,1.1l-14.9,1c-5,0.3-10,0.6-14.9,0.9l-14.9,0.8l-0.1,0l-0.1,0c-10.6-0.3-21.1-0.7-31.6-1.2c-10.5-0.5-21-1.1-31.6-1.7
			c-21-1.3-42.1-3-63-5.2c-21-2.2-41.9-4.9-62.8-8.8c-10.4-2-20.8-4.3-31-7.4c-5.1-1.6-10.2-3.3-15.2-5.5c-2.5-1.1-5-2.3-7.4-3.8
			c-2.4-1.5-4.7-3.3-6.8-5.4l-1-1.1l0.1-1.3c0.5-12.3,1-24.7,1.5-37l0.8-18.5l0.9-18.5l0.9,18.5l0.8,18.5c0.6,12.3,1,24.7,1.5,37
			l-1-2.3c1.7,1.5,3.7,2.8,5.9,4c1.1,0.6,2.1,1.2,3.3,1.8c1.1,0.6,2.2,1.1,3.4,1.7c4.6,2.1,9.5,3.7,14.4,5.3
			c9.9,3,20.1,5.2,30.3,7.2c20.5,3.9,41.3,6.5,62.2,8.7c20.9,2.2,41.8,3.8,62.7,5.1c10.5,0.7,21,1.2,31.5,1.7
			c10.5,0.5,21,0.9,31.5,1.2l-0.3,0l14.9-0.8c5-0.3,9.9-0.6,14.9-0.9l14.9-1l14.9-1.1l14.9-1.2c5-0.4,9.9-0.8,14.9-1.3
			c5-0.4,9.9-0.9,14.8-1.4l7.4-0.7l7.4-0.8c4.9-0.5,9.9-1.1,14.8-1.7c4.9-0.6,9.8-1.3,14.8-1.9c4.9-0.7,9.8-1.4,14.7-2.2l7.3-1.2
			l7.3-1.3c4.9-0.9,9.7-1.9,14.5-3c4.8-1.1,9.6-2.3,14.2-3.7c4.7-1.4,9.3-3,13.5-5c1.1-0.5,2.1-1.1,3.1-1.6c0.5-0.3,1-0.6,1.4-0.9
			c0.5-0.3,0.9-0.6,1.4-0.9c0.2-0.1,0.5-0.3,0.7-0.4l0.6-0.5c0.4-0.3,0.7-0.6,1-0.9c0.1-0.1,0.2-0.3,0.3-0.4
			c0.1-0.1,0.1-0.2,0.2-0.3c0,0,0-0.1,0-0.1c0,0,0,0,0,0c0,0,0,0,0,0s0,0,0,0c0,0,0,0.1,0,0.1c0,0,0,0,0,0.2c0,0.1,0,0.1,0.2,0.5
			l-0.2-1.3c0.6-12.2,1.1-24.4,1.8-36.5l1-18.3L572.3,389.4z"/>
	</g>
	<g>
		<path class="st3" d="M568.4,388.2c0,0,0,0.2-0.1,0.7c0,0.5-0.2,1.2-0.6,2c-0.4,0.8-1,1.8-1.9,2.8c-0.9,1-2.2,2-3.6,3
			c-1.5,1-3.2,2-5.2,3c-2,1-4.2,2-6.6,3c-2.4,1-5.1,1.9-7.9,2.9c-2.8,1-5.9,1.9-9.1,2.8c-12.9,3.7-28.8,7.4-47.2,10.6
			c-4.6,0.8-9.4,1.6-14.3,2.3c-4.9,0.7-10,1.4-15.2,2.1c-5.2,0.6-10.6,1.1-16.1,1.5c-5.5,0.4-11.1,0.8-16.8,1.2
			c-22.9,1.5-47.8,2.5-74.2,2.8c-26.3,0.3-54.1,0-82.8-1.3c-28.7-1.3-58.3-3.5-88.3-7.5c-15-2-30.1-4.5-45.1-8
			c-7.5-1.8-15-3.9-22.3-6.8c-1.8-0.7-3.7-1.5-5.5-2.4c-1.8-0.9-3.6-1.8-5.4-3c-1.8-1.2-3.5-2.5-5.1-4.3c-0.8-0.9-1.5-2-2.1-3.2
			c-0.3-0.7-0.5-1.3-0.7-2c-0.1-0.4-0.2-0.7-0.2-1.1l0-0.6c0-0.3,0-0.1,0-0.8c0.1-0.5,0-0.8,0.2-1.8c0.2-0.9,0.5-1.5,0.7-2.2
			c0.6-1.2,1.3-2.3,2.1-3.2c1.6-1.8,3.3-3.1,5.1-4.3c1.8-1.2,3.6-2.1,5.4-3c1.8-0.9,3.7-1.7,5.5-2.4c7.4-2.9,14.8-4.9,22.3-6.8
			c15-3.6,30.1-6,45.1-8c30-4,59.6-6.2,88.3-7.5c28.7-1.3,56.5-1.6,82.8-1.3c26.3,0.3,51.2,1.3,74.2,2.8c5.7,0.4,11.3,0.8,16.8,1.2
			c2.7,0.2,5.5,0.4,8.1,0.7c2.7,0.3,5.3,0.5,7.9,0.9c5.2,0.7,10.3,1.3,15.2,2.1c4.9,0.8,9.7,1.5,14.3,2.3
			c18.4,3.2,34.3,6.9,47.2,10.6c6.4,1.9,12.1,3.7,17,5.7c2.4,1,4.6,2,6.6,3c2,1,3.7,2,5.2,3c1.5,1,2.7,2,3.6,3c1,1,1.5,2,1.9,2.8
			c0.4,0.9,0.5,1.5,0.6,2C568.4,387.9,568.4,388.2,568.4,388.2z M568.4,388.2c0,0,0-0.2-0.1-0.7c0-0.5-0.2-1.2-0.6-2
			c-0.4-0.8-1-1.8-2-2.8c-0.9-1-2.2-2-3.7-3c-3-2-7-3.9-11.9-5.6c-2.4-0.9-5.1-1.7-7.9-2.6c-2.9-0.8-5.9-1.6-9.2-2.3
			c-13-2.9-29.1-5.2-47.6-6.9c-4.6-0.5-9.4-0.9-14.3-1.3c-4.9-0.4-10-0.8-15.2-1.2c-2.6-0.2-5.2-0.4-7.9-0.6
			c-2.7-0.2-5.3-0.5-8.1-0.7c-5.4-0.5-11-0.9-16.7-1.3c-22.8-1.5-47.6-2.5-73.8-2.8c-26.2-0.3-53.8,0-82.4,1.3
			c-28.5,1.3-58,3.5-87.7,7.4c-14.8,2-29.7,4.4-44.3,7.9c-7.3,1.8-14.5,3.8-21.4,6.5c-1.7,0.7-3.4,1.4-5,2.2
			c-1.6,0.8-3.2,1.6-4.6,2.6c-1.4,0.9-2.7,2-3.7,3c-0.5,0.5-0.8,1.1-1.1,1.5c-0.1,0.2-0.2,0.5-0.2,0.5c-0.1-0.1-0.1,0.6-0.1,1
			c0-0.5,0-0.1,0-0.1l0,0.2c0,0.1,0,0.2,0.1,0.3c0,0.2,0.1,0.4,0.2,0.7c0.3,0.5,0.6,1,1.1,1.5c0.9,1.1,2.2,2.1,3.7,3
			c1.4,0.9,3,1.8,4.6,2.6c1.6,0.8,3.3,1.5,5,2.2c6.9,2.7,14.1,4.7,21.4,6.5c14.6,3.5,29.5,5.9,44.3,7.9c29.7,3.9,59.2,6.1,87.7,7.4
			c28.5,1.3,56.2,1.6,82.4,1.3c26.2-0.3,51-1.3,73.8-2.8c5.7-0.4,11.3-0.8,16.7-1.3c5.4-0.5,10.8-1,15.9-1.4
			c5.2-0.4,10.3-0.7,15.2-1.2c4.9-0.4,9.7-0.8,14.3-1.3c18.5-1.8,34.6-4,47.6-6.9c3.3-0.7,6.3-1.5,9.2-2.3c2.9-0.8,5.5-1.7,7.9-2.5
			c4.9-1.7,8.9-3.6,11.9-5.6c1.5-1,2.7-2,3.7-3c1-1,1.6-2,2-2.8c0.4-0.8,0.5-1.5,0.6-2C568.4,388.4,568.4,388.2,568.4,388.2z"/>
	</g>
	<ellipse class="st3" cx="334.9" cy="390.6" rx="225.8" ry="31.5"/>
	<g class="st4">
		<line class="st5" x1="110.2" y1="382" x2="457.7" y2="356.7"/>
		<line class="st5" x1="116.1" y1="394.8" x2="510.8" y2="365.8"/>
		<line class="st5" x1="129" y1="407.5" x2="540.8" y2="377.4"/>
		<line class="st5" x1="141.9" y1="420.3" x2="551.1" y2="390.5"/>
		<line class="st5" x1="185.9" y1="431" x2="548.6" y2="404.6"/>
		<line class="st5" x1="116.1" y1="377.1" x2="166.7" y2="428"/>
		<line class="st5" x1="135.6" y1="368.7" x2="199.7" y2="432.8"/>
		<line class="st5" x1="158.2" y1="363" x2="228.1" y2="433.1"/>
		<line class="st5" x1="181.8" y1="358.9" x2="256" y2="433.1"/>
		<line class="st5" x1="207.7" y1="356.7" x2="283.9" y2="433.1"/>
		<line class="st5" x1="235.7" y1="356.7" x2="311.9" y2="433.1"/>
		<line class="st5" x1="263.6" y1="356.8" x2="339.8" y2="433"/>
		<line class="st5" x1="291.9" y1="356.8" x2="367.7" y2="433"/>
		<line class="st5" x1="319.8" y1="356.8" x2="395.6" y2="433"/>
		<line class="st5" x1="347.6" y1="356.7" x2="423.9" y2="433.2"/>
		<line class="st5" x1="375.6" y1="356.8" x2="451.8" y2="433.3"/>
		<line class="st5" x1="403.5" y1="356.8" x2="476.7" y2="430.3"/>
		<line class="st5" x1="431.4" y1="356.8" x2="500.5" y2="426"/>
		<line class="st5" x1="459.2" y1="356.8" x2="522.6" y2="420.2"/>
		<line class="st5" x1="492.4" y1="361.9" x2="541.7" y2="411.3"/>
		<line class="st5" x1="530.7" y1="372.2" x2="551.5" y2="393.1"/>
	</g>
	<linearGradient id="SVGID_2_" gradientUnits="userSpaceOnUse" x1="336.8533" y1="282.1654" x2="507.3734" y2="162.766">
		<stop  offset="0.1569" style="stop-color:#6EA5FF;stop-opacity:0"/>
		<stop  offset="1" style="stop-color:#6EA5FF;stop-opacity:0.42"/>
	</linearGradient>
	<path class="st6" d="M220.5,116c0,0,121.5-84.3,249.7,9.6c0,0,79.8,57.2,82.5,162.3s2.7,87.8,2.7,87.8l-72,28.3L220.5,116z"/>
</g>
<g id="o_planet">
	<path class="st7" d="M237.9,264.8c0.1-14.5,10.9-26.9,27.3-26.9c16,0.1,27.2,12,27.1,27.1c-0.1,15.9-12,27.2-27.4,27.1
		C249.5,292.1,237.9,280.4,237.9,264.8z"/>
	<g>
		<path class="st3" d="M260.3,290.7c0,0-0.6-0.3-1.8-0.8c-0.3-0.1-0.6-0.2-1-0.4c-0.3-0.2-0.7-0.4-1.1-0.6c-0.4-0.2-0.8-0.5-1.3-0.7
			c-0.4-0.3-0.9-0.6-1.4-1c-1.9-1.4-4.1-3.3-6.1-5.9c-2-2.6-3.8-5.9-4.8-9.9c-1-3.9-1.2-8.5-0.1-13.1c0.1-0.6,0.3-1.1,0.5-1.7
			c0.2-0.6,0.3-1.1,0.6-1.7c0.5-1.1,0.9-2.2,1.5-3.3c1.1-2.3,2.7-4.3,4.5-6.2c1.8-1.9,3.9-3.5,6.2-4.9c2.3-1.3,4.9-2.3,7.5-3
			c2.7-0.6,5.4-0.9,8.2-0.8c1.4,0.1,2.8,0.2,4.1,0.6c0.7,0.1,1.4,0.3,2,0.5l2.1,0.6c2.4,0.9,5.1,2.3,7.3,3.9
			c2.2,1.7,4.2,3.7,5.9,5.9c1.6,2.2,3,4.7,3.9,7.2c0.9,2.6,1.5,5.2,1.6,7.9c0.1,2.6,0,5.3-0.7,7.7c-0.2,1.3-0.7,2.4-1,3.6l-0.1,0.2
			l0,0.1l0,0.1l-0.1,0.1l-0.2,0.4l-0.4,0.8c-0.3,0.5-0.4,1-0.8,1.6c-2.3,4.4-5.6,7.7-9.1,10c-3.5,2.3-7.1,3.6-10.4,4.2
			c-3.3,0.6-6.2,0.5-8.5,0.3c-0.6-0.1-1.1-0.2-1.7-0.2c-0.5-0.1-1-0.2-1.4-0.3c-0.4-0.1-0.9-0.2-1.2-0.3c-0.4-0.1-0.7-0.2-1-0.3
			C260.9,290.9,260.3,290.7,260.3,290.7L260.3,290.7z M260.4,290.4c0,0,0.6,0.2,1.8,0.6c0.3,0.1,0.6,0.2,1,0.3
			c0.4,0.1,0.8,0.2,1.2,0.2c0.4,0.1,0.9,0.2,1.4,0.3c0.5,0,1.1,0.1,1.6,0.1c2.3,0.1,5.1,0.1,8.2-0.8c3.1-0.8,6.4-2.3,9.4-4.7
			c1.5-1.2,3-2.6,4.2-4.2c0.3-0.4,0.6-0.8,1-1.2c0.3-0.4,0.6-0.9,0.9-1.3c0.6-0.9,1-1.8,1.6-2.7c0.3-0.5,0.4-1,0.7-1.6l0.3-0.8
			l0.2-0.4c0-0.1,0,0.1,0,0l0,0l0-0.1l0.1-0.2c0.3-1.1,0.7-2.1,0.9-3.3c0.5-2.2,0.6-4.6,0.5-6.9c-0.1-2.4-0.6-4.7-1.4-7
			c-0.8-2.3-1.9-4.5-3.3-6.6c-1.4-2-3.2-3.9-5.2-5.5c-2-1.6-4.1-2.7-6.7-3.8c-2.3-0.8-4.9-1.5-7.4-1.7c-2.5-0.1-5.1,0-7.6,0.5
			c-2.5,0.6-4.8,1.5-7,2.6c-2.1,1.2-4.2,2.7-5.9,4.4c-1.7,1.7-3.2,3.6-4.3,5.7c-0.6,1-1.1,2.1-1.5,3.2c-0.2,0.5-0.4,1.1-0.6,1.6
			c-0.2,0.5-0.4,1.1-0.5,1.6c-1.1,4.3-1.1,8.7-0.3,12.5c0.8,3.9,2.4,7.2,4.3,9.8c1.8,2.7,4,4.6,5.9,5.9c0.5,0.3,0.9,0.7,1.3,1
			c0.4,0.3,0.9,0.5,1.3,0.7c0.4,0.2,0.8,0.4,1.1,0.6c0.3,0.2,0.7,0.3,1,0.4C259.8,290.2,260.4,290.4,260.4,290.4L260.4,290.4z"/>
	</g>
	<g>
		<path id="XMLID_3_" class="st8" d="M291.7,242c3.7-0.3,6.4,0.5,7.6,2.4c3.7,5.6-6.8,19-23.4,30s-33.1,15.3-36.8,9.8
			c-1.1-1.7-0.9-4.1,0.3-6.9"/>
		<path id="XMLID_2_" class="st8" d="M280.9,248.1c1.5,1.2,2.8,2.6,3.9,4.3"/>
		<path id="XMLID_1_" class="st8" d="M257.9,246.9c5-3.3,11-4,16.4-2.4"/>
	</g>
</g>
<g id="letter_o">
	<path class="st9" d="M305.2,265.2c-0.4-15.6,12.5-27.2,26.9-27.1c15.7,0.1,27.1,11.9,27.5,27.5c-1.3,15.6-11.5,26.3-27.5,26.5
		C317.7,292.2,305.2,281.4,305.2,265.2z M332.1,248.9c-3.6,0-6,0.8-8.6,2.7c-5.9,4.3-8.4,13-5.2,20.2c2.7,6.2,7.7,9.3,14.4,9.4
		c4,0,7.3-1.5,9.9-4.3c4.8-5.2,5.7-11.2,3.6-18C344.7,253.7,338.7,248.3,332.1,248.9z"/>
	<g>
		<g>
			<path class="st3" d="M335,251.5c0,0,0.4,0,1.1,0.1c0.7,0.1,1.8,0.2,3.1,0.5c1.3,0.3,3,0.8,4.8,1.9c0.4,0.3,0.9,0.6,1.3,0.9
				c0.4,0.4,0.8,0.7,1.2,1.1c0.8,0.8,1.4,1.9,2,3c1.1,2.2,1.9,4.9,2.1,7.8c0,0.7,0,1.4,0,2.2c-0.1,0.7-0.1,1.3-0.3,2.1
				c-0.1,0.4-0.1,0.8-0.2,1.2c-0.1,0.4-0.2,0.7-0.3,1.1c-0.2,0.7-0.5,1.5-0.8,2.2c-0.7,1.4-1.4,2.8-2.5,4.1c-1,1.2-2.2,2.4-3.6,3.4
				c-1.4,0.9-2.9,1.7-4.5,2.2c-1.6,0.5-3.3,0.7-5.1,0.6l-1.2-0.1c-0.4,0-0.8-0.1-1.3-0.2c-0.9-0.2-1.7-0.5-2.5-0.8
				c-1.6-0.6-3-1.6-4.3-2.6c-1.3-1.1-2.3-2.4-3.2-3.7c-0.9-1.4-1.5-2.8-2.1-4.3c-0.9-3-1.1-6.1-0.7-8.8c0.2-1.5,0.6-2.8,1.1-4.1
				c0.1-0.3,0.2-0.6,0.4-0.9c0.1-0.3,0.3-0.6,0.4-0.9c0.3-0.6,0.6-1.1,0.9-1.7c0.7-1,1.4-2.1,2.3-2.8c0.4-0.4,0.9-0.7,1.4-1
				c0.5-0.3,0.9-0.5,1.4-0.8c1.8-0.9,3.6-1.2,4.9-1.4c1.4-0.2,2.4-0.2,3.1-0.2C334.6,251.5,335,251.5,335,251.5z M335,251.5
				c0,0-0.4,0-1.1,0c-0.4,0-0.8,0.1-1.3,0.2c-0.5,0.1-1.1,0.3-1.7,0.5c-1.2,0.5-2.6,1.4-3.8,2.6c-0.6,0.6-1.2,1.3-1.8,2.1
				c-0.3,0.4-0.6,0.7-0.9,1.1c-0.3,0.4-0.6,0.8-0.9,1.2c-0.3,0.4-0.6,0.9-0.8,1.4c-0.1,0.2-0.2,0.5-0.4,0.7
				c-0.1,0.3-0.2,0.5-0.3,0.8c-0.4,1.1-0.7,2.2-0.9,3.3c0,0.3-0.1,0.7-0.1,1l0,0.5l0,0.3c0,0.1,0-0.1,0,0v0l0,0.1l0,0.1
				c0,0.6,0,1.3,0,1.9c0.1,1.3,0.4,2.5,0.7,3.8c0.4,1.2,1,2.5,1.7,3.6c0.8,1.1,1.6,2.2,2.7,3.1c1,0.9,2.2,1.6,3.5,2.1
				c0.6,0.2,1.3,0.5,1.9,0.6c0.3,0.1,0.6,0.2,1,0.2l1.1,0.1c1.4,0,2.7-0.1,4-0.5c1.3-0.4,2.5-1,3.7-1.8c1.1-0.8,2.1-1.7,2.9-2.8
				c0.9-1,1.5-2.2,2.1-3.4c0.2-0.6,0.5-1.2,0.7-1.8l0.3-0.9l0.2-0.9c0.1-0.6,0.2-1.3,0.2-2c0-0.5,0-1.2,0-1.8
				c-0.1-2.4-0.8-4.7-1.7-6.5c-0.2-0.5-0.5-0.9-0.8-1.3c-0.3-0.4-0.6-0.8-0.8-1.2c-0.5-0.8-1.1-1.6-1.6-2.2c-1.1-1.4-2.4-2.4-3.6-3
				c-0.6-0.3-1.1-0.6-1.6-0.7c-0.5-0.1-0.9-0.3-1.3-0.3C335.3,251.5,335,251.5,335,251.5z"/>
		</g>
		<g>
			<path class="st3" d="M308.3,274.9c0,0-0.1-0.7-0.3-1.9c0-0.3-0.1-0.6-0.2-1c0-0.4-0.1-0.8-0.1-1.3c0-0.5-0.1-0.9-0.1-1.5
				c0-0.5,0-1.1,0-1.7c0.1-2.3,0.4-5.2,1.5-8.3c1.1-3.1,2.8-6.4,5.5-9.5c2.7-3,6.3-5.7,10.7-7.4c0.5-0.2,1.1-0.4,1.7-0.6
				c0.6-0.2,1.1-0.4,1.8-0.5c1.2-0.2,2.3-0.5,3.6-0.6c2.5-0.3,5-0.1,7.6,0.3c2.5,0.4,5,1.3,7.4,2.4c2.4,1.2,4.6,2.7,6.6,4.5
				c2,1.8,3.7,4,5.1,6.4c1.4,2.4,2.4,5,3.1,7.6c0.3,1.4,0.6,2.6,0.7,4.1c0.2,1.4,0.2,2.8,0.1,4.2c-0.2,2.8-0.7,5.5-1.6,8.1
				c-1,2.6-2.2,5-3.8,7.2c-1.6,2.1-3.5,4.1-5.6,5.7c-2.1,1.5-4.4,2.9-6.8,3.8c-1.2,0.5-2.4,0.8-3.6,1.1l-0.2,0.1l-0.1,0l-0.1,0
				l-0.1,0l-0.4,0.1l-0.9,0.1c-0.6,0.1-1.1,0.2-1.7,0.3c-4.9,0.5-9.4-0.4-13.2-2c-3.8-1.6-6.9-3.9-9.2-6.3c-2.3-2.4-3.8-4.8-4.9-6.9
				c-0.3-0.5-0.5-1-0.7-1.5c-0.2-0.5-0.4-0.9-0.5-1.4c-0.2-0.4-0.3-0.8-0.5-1.2c-0.1-0.4-0.2-0.7-0.3-1
				C308.5,275.6,308.3,274.9,308.3,274.9L308.3,274.9z M308.6,274.9c0,0,0.2,0.6,0.6,1.8c0.1,0.3,0.2,0.6,0.3,1
				c0.1,0.3,0.3,0.7,0.5,1.1c0.2,0.4,0.3,0.9,0.6,1.3c0.2,0.4,0.5,0.9,0.8,1.4c0.1,0.3,0.3,0.5,0.4,0.8c0.2,0.2,0.4,0.5,0.5,0.8
				c0.4,0.5,0.7,1.1,1.2,1.6c0.5,0.5,0.9,1.1,1.4,1.6c0.5,0.5,1.1,1,1.7,1.6c2.4,2.1,5.5,4,9.1,5.2c1.8,0.5,3.8,1,5.8,1.2
				c0.5,0,1,0.1,1.5,0.1c0.5,0,1,0,1.6,0c1.1,0,2.1-0.1,3.1-0.2c0.5,0,1.1-0.2,1.7-0.3l0.9-0.2l0.4-0.1c0.1,0-0.1,0,0,0l0,0l0.1,0
				l0.2-0.1c1.1-0.3,2.2-0.6,3.2-1.1c2.1-0.8,4.1-2,6-3.4c1.9-1.4,3.5-3.1,5-5c1.4-1.9,2.6-4.1,3.6-6.4c0.9-2.3,1.4-4.8,1.6-7.3
				c0-1.3,0.1-2.5,0-3.7c0-1.2-0.4-2.6-0.5-3.8c-0.6-2.5-1.5-4.9-2.7-7.1c-1.3-2.2-2.8-4.2-4.6-6c-1.8-1.7-3.9-3.2-6.1-4.4
				c-2.2-1.1-4.5-2-6.9-2.4c-2.4-0.4-4.8-0.7-7-0.4c-1.1,0-2.3,0.3-3.5,0.5c-0.5,0.1-1.1,0.3-1.6,0.4c-0.5,0.2-1.1,0.3-1.6,0.5
				c-4.2,1.5-7.8,3.9-10.5,6.7c-2.7,2.8-4.6,6-5.7,9c-1.2,3-1.5,5.8-1.6,8.1c0,0.6,0,1.1,0,1.6c0,0.5,0.1,1,0.1,1.4
				c0,0.4,0.1,0.9,0.1,1.2c0,0.4,0.1,0.7,0.2,1C308.5,274.2,308.6,274.9,308.6,274.9L308.6,274.9z"/>
		</g>
	</g>
</g>
<g id="letter_G">
	<path class="st10" d="M192.8,246.5c12.7,0,25.3,0,38.2,0c0.5,2.9,0.9,5.7,0.7,8.5c-0.2,2.7-0.5,5.3-1,7.9c-1,5.3-3,10.2-6.4,14.5
		c-2.9,3.8-6.4,7.1-10.6,9.5c-5.3,3.1-11,4.6-17,5.2c-10.8,1.1-20.5-1.9-29.3-8c-5.2-3.6-9.2-8.3-12.3-13.9
		c-2.5-4.5-4.2-9.3-4.8-14.4c-0.6-5.1-0.6-10.3,0.8-15.4c1.6-5.6,3.8-10.9,7.5-15.4c4.7-5.6,10.2-10.2,17-13.1
		c5.5-2.4,11.3-3.6,17.2-3.5c9.8,0.1,18.7,3,26.1,9.5c0.6,0.5,1.3,1,1.9,1.6c0.1,0.1,0.2,0.3,0.2,0.3c-2.6,2.5-5.2,5.1-8,7.8
		c-0.3-0.2-1-0.6-1.6-1.1c-3.4-2.7-7.1-4.7-11.4-5.7c-12.3-2.9-24.6,1.4-31.9,11.7c-3.1,4.4-4.8,9.3-5.4,14.6
		c-0.5,4.4,0,8.7,1.4,12.9c3.4,10.2,10.4,16.8,20.7,19.7c7.1,2,14.2,1.4,20.9-1.7c8-3.7,12.8-9.9,14-18.8c0-0.3-0.1-0.6-0.1-1.2
		c-8.9,0-17.8,0-26.6,0C192.3,256,192.3,249,192.8,246.5z"/>
	<g>
		<path class="st3" d="M195.2,249.9l0.5,11.1l-0.3-0.3l26.3-0.3l1,0l0,1c-0.1,1.9-0.4,3.6-0.9,5.3c-0.3,0.8-0.5,1.7-0.8,2.5
			l-0.5,1.2c-0.2,0.4-0.4,0.8-0.6,1.2c-0.2,0.4-0.4,0.8-0.6,1.2l-0.7,1.1c-0.5,0.8-1,1.5-1.6,2.2c-0.3,0.3-0.6,0.7-0.9,1l-1,1l-1,1
			c-0.4,0.3-0.7,0.6-1.1,0.8c-1.4,1.2-3,2-4.6,2.8c-1.7,0.6-3.4,1.4-5.1,1.7c-0.9,0.2-1.7,0.4-2.6,0.6l-2.6,0.3l-1.3,0.2
			c-0.1,0-0.2,0-0.4,0l-0.3,0l-0.6,0l-1.3,0l-1.4-0.1c-1.8-0.1-3.6-0.3-5.4-0.8c-1.8-0.4-3.5-1-5.1-1.8c-1.6-0.8-3.2-1.7-4.6-2.8
			c-1.4-1.1-2.8-2.3-4-3.6c-2.5-2.6-4.5-5.5-6.2-8.6c-0.8-1.6-1.6-3.1-2.3-4.8c-0.7-1.6-1.3-3.3-1.7-5.1l0-0.1l0-0.1
			c-0.1-1.7-0.1-3.2,0-4.9c0.1-1.6,0.3-3.2,0.6-4.8c0.6-3.2,1.5-6.3,2.8-9.2c0.7-1.5,1.5-2.9,2.4-4.2c0.9-1.4,1.9-2.6,3.1-3.8
			c1.1-1.2,2.4-2.2,3.7-3.2c1.3-0.9,2.7-1.8,4.2-2.5l1.1-0.5l1.1-0.4c0.4-0.1,0.7-0.3,1.2-0.4l1.1-0.3l2.2-0.7
			c0.7-0.2,1.6-0.4,2.4-0.5c1.6-0.4,3.2-0.5,4.8-0.7c0.8-0.1,1.6,0,2.4-0.1l1.2,0l1.2,0.1c1.6,0.1,3.2,0.4,4.8,0.7
			c0.8,0.2,1.6,0.4,2.4,0.7c0.8,0.3,1.5,0.6,2.3,0.9c1.5,0.7,2.9,1.4,4.3,2.4c1.4,1,2.6,1.9,3.8,3.3l-2.2-0.1l7.8-7.6l-0.1,2.1
			c-1.2-1.2-2.7-2.5-4.2-3.6c-0.8-0.5-1.6-1.1-2.4-1.5c-0.8-0.5-1.6-0.9-2.5-1.3c-0.8-0.5-1.7-0.8-2.6-1.2c-0.9-0.4-1.8-0.7-2.7-1
			c-0.4-0.1-0.9-0.3-1.3-0.4l-1.4-0.3c-0.9-0.2-1.8-0.5-2.8-0.6c-0.9-0.1-1.9-0.3-2.8-0.4l-2.8-0.2c-0.9-0.1-1.9,0-2.8,0
			c-0.9,0-1.9,0-2.8,0.2l-2.8,0.3c-0.9,0.1-1.9,0.4-2.8,0.5c-0.9,0.2-1.9,0.4-2.8,0.6c-0.9,0.3-1.9,0.5-2.8,0.8
			c-0.9,0.3-1.7,0.6-2.6,1c-0.9,0.4-1.7,0.8-2.5,1.2c-0.8,0.4-1.6,0.9-2.4,1.4c-0.8,0.5-1.6,1-2.3,1.6c-1.5,1.1-2.9,2.4-4.2,3.8
			c-1.3,1.4-2.5,2.8-3.6,4.4c-1.1,1.5-2.1,3.2-3,4.8c-0.9,1.7-1.7,3.4-2.4,5.2c-0.7,1.8-1.3,3.6-1.8,5.4c-0.5,1.8-0.9,3.7-1.2,5.5
			l0-0.2c0,2.7,0.4,5.6,0.8,8.3c0.5,2.8,1.2,5.5,2.1,8.2c1.8,5.3,4.4,10.3,8.1,14.5c1.8,2.1,3.9,4,6.1,5.5c2.3,1.6,4.7,2.9,7.3,3.9
			l2,0.7c0.7,0.2,1.3,0.4,2,0.6c0.3,0.1,0.7,0.2,1,0.3l1.1,0.2c0.7,0.1,1.4,0.3,2.1,0.4c2.7,0.5,5.5,0.8,8.3,0.8
			c5.6,0.1,11.1-1,16.3-3.1c2.6-1.1,5-2.4,7.3-4c2.3-1.6,4.4-3.4,6.4-5.4c1-1,1.9-2.1,2.7-3.1l0.1-0.2l0.1-0.1l0,0
			c-0.1,0.2,0,0,0,0.1l0,0l0.2-0.4c0.1-0.3,0.3-0.6,0.4-0.9c0.3-0.6,0.6-1.3,0.8-1.9c1-2.6,1.9-5.2,2.5-8c0.6-2.7,1-5.5,1.2-8.3
			c0.2-2.8,0-5.6-0.3-8.4l1,0.8l-18.9-0.5L195.2,249.9z M195.2,249.9l18.9-0.5L233,249l0.8,0l0.1,0.9c0.5,2.9,0.7,5.8,0.7,8.8
			c0,3-0.3,5.9-0.8,8.8c-0.5,2.9-1.3,5.8-2.4,8.6c-0.3,0.7-0.6,1.4-0.9,2.1c-0.2,0.3-0.3,0.7-0.5,1l-0.3,0.5l-0.1,0.2l-0.1,0.1
			l-0.1,0.1l-0.2,0.2c-0.9,1.2-1.9,2.4-2.9,3.4c-2.1,2.2-4.4,4.1-6.8,5.8c-2.4,1.7-5.1,3.1-7.8,4.3c-5.5,2.3-11.5,3.5-17.5,3.4
			c-3,0-5.9-0.3-8.9-0.9c-2.8-0.6-5.8-1.3-8.6-2.4c-2.8-1.1-5.5-2.5-7.9-4.2c-2.5-1.7-4.7-3.8-6.7-6c-3.9-4.5-6.8-9.9-8.7-15.5
			c-0.9-2.8-1.7-5.7-2.2-8.6c-0.5-2.9-0.9-5.8-0.9-8.9l0-0.1l0-0.1c0.3-2.1,0.7-4,1.3-6c0.5-1.9,1.2-3.8,1.9-5.7
			c0.7-1.9,1.6-3.7,2.5-5.5c1-1.8,2-3.5,3.2-5.2c1.2-1.6,2.5-3.2,3.9-4.7c1.4-1.5,2.9-2.9,4.6-4.1c0.8-0.6,1.7-1.2,2.5-1.8
			c0.9-0.5,1.7-1.1,2.6-1.5c0.9-0.5,1.8-0.9,2.8-1.3c0.9-0.4,1.9-0.8,2.9-1.1c1-0.4,1.9-0.6,2.8-0.9c1.1-0.3,2-0.4,3-0.7
			c1-0.2,2-0.5,3-0.6l3-0.4c1-0.2,2-0.1,3-0.2c1,0,2-0.1,3,0l3,0.2c1,0.1,2,0.3,3,0.4c1,0.1,2,0.4,3,0.6l1.5,0.4
			c0.5,0.1,1,0.3,1.5,0.5c1,0.3,1.9,0.6,2.9,1c0.9,0.4,1.9,0.8,2.8,1.2c0.9,0.5,1.8,0.9,2.7,1.5c0.9,0.5,1.7,1.1,2.6,1.7
			c1.7,1.2,3.2,2.4,4.7,4l1,1l-1.1,1l-7.8,7.6l-1.1,1.1l-1.1-1.2c-0.4-0.4-0.9-1-1.5-1.4c-0.5-0.5-1.1-0.9-1.7-1.3
			c-1.2-0.8-2.5-1.5-3.8-2.1c-0.7-0.3-1.4-0.5-2-0.8c-0.7-0.2-1.4-0.4-2.1-0.6c-1.4-0.3-2.9-0.6-4.3-0.6l-1.1-0.1l-1.1,0
			c-0.7,0-1.5,0-2.2,0.1c-1.5,0.2-3,0.3-4.4,0.6c-0.7,0.2-1.4,0.3-2.2,0.5l-2.2,0.7l-1.1,0.3c-0.2,0.1-0.7,0.2-1,0.4l-1,0.4l-1,0.5
			c-1.3,0.6-2.6,1.4-3.8,2.2c-1.2,0.9-2.3,1.8-3.3,2.8c-1,1-1.9,2.2-2.7,3.4c-0.8,1.2-1.5,2.5-2.1,3.8c-1.2,2.7-2.1,5.5-2.6,8.5
			c-0.3,1.5-0.4,2.9-0.5,4.4c-0.1,1.5-0.1,3,0,4.4l0-0.2c0.4,1.5,1,3.1,1.6,4.6c0.6,1.5,1.3,3,2.1,4.5c1.6,2.9,3.5,5.6,5.7,8
			c1.1,1.2,2.4,2.3,3.6,3.2c1.3,1,2.7,1.8,4.1,2.5c1.5,0.7,3,1.2,4.5,1.6c1.6,0.4,3.2,0.6,4.8,0.7l1.2,0.1l1.3,0l0.6,0l0.3,0
			c0,0,0.2,0,0.3,0l1.2-0.2l2.4-0.3c0.8-0.1,1.6-0.4,2.4-0.6c1.6-0.3,3.1-1,4.6-1.6c1.4-0.8,2.9-1.4,4.1-2.4c0.3-0.2,0.7-0.4,1-0.7
			l0.9-0.8l0.9-0.8c0.3-0.3,0.5-0.6,0.8-0.9c0.5-0.6,1.1-1.2,1.5-1.9l0.7-1c0.2-0.3,0.4-0.7,0.6-1.1c0.2-0.4,0.4-0.7,0.6-1.1
			l0.5-1.1c0.4-0.7,0.6-1.5,0.9-2.3c0.5-1.5,0.9-3.2,1-4.8l1,1l-26.3-1l-0.3,0l0-0.3L195.2,249.9z"/>
	</g>
</g>
<g id="letter_e">
	<path class="st7" d="M500.4,258.4c-12.1,5-23.9,9.9-36,14.9c2.9,5.2,6.9,7.9,12.9,7.9c5.8,0,9.9-2.8,13.3-7.3
		c3,1.9,5.8,3.8,8.6,5.6c0.2,0.1,0.3,0.4,0.5,0.7c-2.5,3.8-5.9,6.8-9.9,9c-4,2.1-8.3,3.2-12.8,3.1c-11-0.4-20.4-5.8-24.6-16.7
		c-3.5-9.2-2.8-18.4,2.8-26.7c4.5-6.7,10.8-10.3,18.9-10.8c9.6-0.7,16.7,3.3,22,11.1C498,251.9,499.3,254.9,500.4,258.4z
		 M462.6,263.9c7.9-3.5,15.8-6.3,23.6-9.9c-1.9-3.8-5.1-5.2-8.8-5.4c-5.6-0.4-11.5,3.5-13.7,8.7
		C462.8,259.3,462.3,261.4,462.6,263.9z"/>
	<g>
		<g>
			<path class="st3" d="M464.4,267c-0.1-1.5,0.1-2.9,0.5-4.3c0.2-0.7,0.4-1.4,0.7-2.1l0.5-1l0.5-1c0.2-0.3,0.4-0.6,0.6-0.9
				c0.2-0.3,0.4-0.6,0.7-0.9l0.7-0.9c0.3-0.3,0.5-0.5,0.8-0.8c0.5-0.5,1.1-1,1.7-1.5c0.6-0.5,1.2-0.8,1.8-1.2c0.7-0.4,1.3-0.7,2-1
				c0.7-0.3,1.5-0.6,2.3-0.7c0.8-0.2,1.5-0.2,2.3-0.2c0.8,0.1,1.6,0.1,2.3,0.3c0.4,0.1,0.8,0.2,1.1,0.3c0.4,0.1,0.7,0.3,1.1,0.4
				c0.7,0.3,1.4,0.7,2,1.2c0.6,0.4,1.2,0.9,1.8,1.5c0.6,0.5,1.1,1.1,1.6,1.8l0.9,1.2l-1.5,0.8c-1.9,1-3.8,2-5.8,2.9
				c-1.9,0.9-3.9,1.8-5.9,2.6c-2,0.8-4,1.6-6.1,2.3c-2,0.7-4.1,1.4-6.2,2l-0.1-0.3c1.8-1.3,3.7-2.4,5.5-3.5c1.9-1.1,3.8-2.1,5.7-3.1
				c1.9-1,3.8-2,5.8-2.9c2-0.9,4-1.7,6-2.5l-0.5,2c-0.3-0.5-0.7-1-1.2-1.5c-0.4-0.5-0.9-0.9-1.4-1.3c-0.5-0.4-1.1-0.8-1.6-1.1
				c-0.3-0.2-0.6-0.3-0.9-0.4c-0.3-0.1-0.6-0.2-0.9-0.3c-0.6-0.2-1.2-0.3-1.9-0.4c-0.6,0-1.3-0.1-1.9,0.1c-0.7,0-1.3,0.3-1.9,0.4
				c-0.6,0.2-1.4,0.6-1.9,0.8c-0.6,0.4-1.2,0.7-1.8,1c-0.6,0.4-1.2,0.8-1.7,1.2c-0.3,0.2-0.5,0.4-0.8,0.7l-0.7,0.7
				c-0.3,0.2-0.5,0.5-0.7,0.8c-0.2,0.3-0.4,0.5-0.6,0.8l-0.6,0.9l-0.5,0.9c-0.3,0.6-0.6,1.3-0.8,1.9c-0.5,1.3-0.8,2.7-0.9,4.1
				L464.4,267z"/>
		</g>
		<g>
			<path class="st3" d="M502.3,262.1c-0.7-2.3-1.7-4.4-2.9-6.5c-1.2-2-2.5-3.9-4.1-5.6c-1.6-1.7-3.4-3.1-5.3-4.2
				c-2-1.1-4.1-1.8-6.3-2.2c-2.2-0.4-4.4-0.6-6.6-0.4c-1.1,0.1-2.3,0.3-3.3,0.5L472,244c-0.5,0.1-1.1,0.3-1.6,0.5
				c-2.1,0.7-4.2,1.7-6,2.9c-1.8,1.3-3.4,2.8-4.8,4.6c-2.7,3.6-4.2,8-4.9,12.5c-0.3,2.2-0.5,4.6-0.3,6.8c0.1,2.1,0.8,4.4,1.6,6.4
				c0.8,2.1,2,4,3.4,5.8c1.3,1.8,3.1,3.3,4.8,4.7c1,0.6,1.9,1.2,2.9,1.8l1.5,0.7c0.5,0.2,1,0.5,1.5,0.7c1.1,0.4,2.1,0.8,3.2,1.1
				l3.3,0.8l0.1,0c0.5,0.1,1.1,0.2,1.6,0.3c0.6,0.1,1.1,0.1,1.7,0.2c0.6,0,1.2,0,1.7,0l1.7-0.1l1.7-0.2l1.7-0.4
				c0.6-0.1,1.1-0.3,1.6-0.5c0.6-0.1,1.1-0.4,1.6-0.6l0.8-0.3l0.7-0.4c0.5-0.3,1-0.5,1.5-0.9l1.4-1c0.5-0.3,0.9-0.8,1.3-1.1
				c0.4-0.4,0.9-0.7,1.2-1.2l1.1-1.3c0.4-0.4,0.7-0.9,1-1.4l1-1.4l0.4,2l-8.6-6.4l2.2-0.4c-0.5,0.7-0.9,1.2-1.4,1.8
				c-0.5,0.5-1,1-1.6,1.5c-0.6,0.5-1.1,0.9-1.8,1.3c-0.6,0.4-1.2,0.8-1.9,1.1c-0.6,0.3-1.3,0.6-2,0.9c-0.7,0.2-1.4,0.5-2.1,0.6
				l-1,0.2l-1.1,0.2c-0.7,0.1-1.4,0.2-2.1,0.2l-0.5,0l-0.1,0l0,0l-0.1,0l-0.1,0l-0.2,0l-1,0c-0.3,0-0.7,0-1.1-0.1l-1.1-0.1
				c-0.7-0.2-1.5-0.3-2.2-0.6l-1.1-0.4l-1-0.5c-0.7-0.4-1.3-0.8-1.9-1.3c-0.3-0.2-0.6-0.5-0.8-0.8c-0.3-0.3-0.5-0.6-0.8-0.9
				c-0.5-0.6-0.9-1.2-1.2-1.9c-0.3-0.7-0.6-1.3-0.8-2.2l-0.3-1.2l1.2-0.5l4.4-1.8c1.5-0.6,2.9-1.3,4.4-1.8c1.5-0.6,3-1.1,4.5-1.6
				l4.5-1.6l9-3.2C496.2,264.1,499.3,263.1,502.3,262.1z M502.3,262.1c-2.9,1.4-5.8,2.8-8.6,4.2l-8.7,4.1l-4.3,2
				c-1.4,0.7-2.9,1.4-4.3,2c-1.5,0.6-3,1.2-4.4,1.8l-4.4,1.8l0.9-1.7c0.1,0.4,0.3,1,0.6,1.5c0.3,0.5,0.6,1,0.9,1.4
				c0.2,0.2,0.4,0.4,0.6,0.6c0.2,0.2,0.4,0.4,0.6,0.6c0.4,0.4,0.9,0.7,1.4,1l0.8,0.4l0.8,0.3c0.5,0.2,1.1,0.3,1.7,0.5l0.8,0.1
				l0.4,0.1c0.1,0,0.3,0,0.5,0l1,0l0.2,0l0.1,0c0.1,0-0.1,0-0.1,0l0,0l0,0l0,0l0.1,0l0.5,0c0.6,0,1.2-0.1,1.8-0.2l0.9-0.1l0.9-0.2
				c0.6-0.1,1.2-0.3,1.8-0.5c0.6-0.2,1.1-0.4,1.7-0.7c0.6-0.3,1.1-0.6,1.6-0.9c0.5-0.3,1-0.7,1.5-1.1c0.5-0.4,0.9-0.8,1.3-1.2
				c0.4-0.4,0.8-0.9,1.1-1.3l0.9-1.4l1.3,0.9l8.6,6.4l1.2,0.9l-0.8,1.1l-1.1,1.6c-0.4,0.5-0.7,1.1-1.1,1.6l-1.3,1.5
				c-0.4,0.5-0.9,0.9-1.4,1.4c-0.5,0.4-0.9,0.9-1.5,1.3l-1.6,1.1c-0.5,0.4-1.1,0.7-1.7,1l-0.9,0.5l-0.9,0.4
				c-0.6,0.2-1.2,0.5-1.8,0.7c-0.6,0.2-1.2,0.4-1.9,0.6l-1.9,0.4l-1.9,0.2l-1.9,0.1c-0.6,0-1.3,0-1.9,0c-0.6,0-1.3-0.1-1.9-0.2
				c-0.7-0.1-1.3-0.2-2-0.4l0.1,0l-3.6-0.9c-1.2-0.3-2.3-0.8-3.5-1.2c-0.6-0.2-1.1-0.5-1.7-0.8l-1.7-0.8c-1.1-0.6-2.1-1.3-3.2-2
				c-2-1.5-3.9-3.2-5.4-5.2c-1.6-2-2.9-4.2-3.8-6.5c-0.9-2.3-1.6-4.7-1.8-7.4c-0.1-2.5,0-5,0.4-7.4c0.3-2.4,1-4.9,1.8-7.2
				c0.9-2.3,2.1-4.6,3.6-6.6c1.5-2,3.4-3.8,5.5-5.3c2.1-1.4,4.4-2.5,6.8-3.3c0.6-0.2,1.2-0.4,1.8-0.5l1.7-0.4
				c1.3-0.2,2.5-0.4,3.7-0.5c2.5-0.2,5-0.1,7.5,0.4c2.5,0.6,4.8,1.7,6.9,3.2c2,1.5,3.8,3.2,5.3,5.2c1.5,2,2.7,4.1,3.6,6.3
				C501.1,257.4,501.8,259.7,502.3,262.1z"/>
		</g>
	</g>
</g>
<g id="letter_g">
	<path class="st10" d="M406.6,285.9c-0.5,0.5-0.9,0.8-1.3,1.2c-2.8,2.6-6.2,4.1-10,4.7c-7.1,1.1-13.2-1.2-18.7-5.5
		c-6-4.6-9.1-10.9-10.2-18.2c-0.6-4.2,0.1-8.4,1.6-12.4c2.8-7.5,7.8-13,15.2-15.9c7-2.8,14-2.8,20.6,1.8c1,0.7,1.8,1.5,3,2.5
		c0-1.5,0-2.8,0-3.9c1.8-0.6,7.5-0.7,11.3-0.2c0.1,0.9,0.3,1.9,0.3,2.9c0,12.4,0,24.8-0.1,37.2c0,4.3-0.1,8.6-0.5,12.9
		c-0.6,6.4-2.6,12.3-7.6,16.9c-4.2,3.9-9.2,5.9-14.9,6.2c-3.1,0.2-6.2,0.3-9.2-0.5c-7.4-2-12.9-6.5-16.7-13.1
		c-0.2-0.4-0.4-0.9-0.6-1.3c-0.1-0.2-0.1-0.5-0.1-1c3.2-1.3,6.5-2.7,10-4.2c0.4,0.8,0.8,1.4,1.2,2.1c2.1,3.5,5,6.2,9.2,7
		c3.5,0.7,6.9,0.6,10.2-0.9c4.8-2.3,6.7-6.6,7.3-11.5C406.8,290.4,406.6,288.2,406.6,285.9z M407.7,265c0-3.9-1.1-7.5-3.4-10.7
		c-2.9-3.9-6.9-6.1-11.7-5.7c-5.2,0.4-9.3,2.9-12,7.6c-1.6,2.8-2.4,5.9-2.4,9c0,2.6,0.7,5.1,1.8,7.5c4.1,9,15.7,11.5,22.7,4.8
		C406.2,274.1,407.7,269.8,407.7,265z"/>
	<g>
		<g>
			<path class="st3" d="M410.1,270.5c0,0-0.1,0.4-0.2,1.1c0,0.4-0.1,0.8-0.3,1.3c-0.1,0.5-0.2,1.1-0.4,1.8c-0.4,1.3-0.9,3-1.9,4.7
				c-0.5,0.9-1.2,1.7-2,2.6c-0.8,0.8-1.9,1.4-3,2c-2.2,1.2-5,1.9-7.9,1.8c-0.4,0-0.7-0.1-1.1-0.1l-0.6-0.1l-0.3,0l-0.3-0.1
				c-0.7-0.1-1.3-0.2-2.1-0.5c-1.5-0.5-2.9-1.2-4.2-2.1c-2.6-1.8-4.7-4.5-5.9-7.5c-0.6-1.5-1-3.2-1.2-4.8c-0.2-1.7-0.1-3.3,0.1-5
				c0.2-0.9,0.3-1.5,0.6-2.4c0.1-0.4,0.2-0.8,0.4-1.2l0.5-1.2c0.7-1.5,1.5-2.9,2.6-4.2c2.1-2.5,4.9-4.4,7.9-5.4
				c1.5-0.5,3.1-0.7,4.6-0.7c0.8,0,1.5,0.1,2.3,0.1l0.1,0l0.1,0l0,0l0.1,0l0.2,0.1l0.5,0.1c0.3,0.1,0.6,0.1,1,0.2
				c0.7,0.2,1.5,0.4,2.1,0.8c0.3,0.2,0.6,0.3,1,0.4c0.3,0.2,0.6,0.3,0.9,0.5c0.6,0.3,1.1,0.8,1.7,1.1c0.5,0.4,1,0.9,1.4,1.3
				c0.4,0.5,0.9,0.9,1.2,1.4c0.4,0.5,0.8,0.9,1,1.5c0.5,1,0.9,2.1,1.1,3c0.5,2,0.4,3.7,0.4,5.1c0,0.7-0.1,1.3-0.1,1.8
				c0,0.5-0.1,1-0.1,1.3C410.2,270.1,410.1,270.5,410.1,270.5z M410.1,270.5c0,0,0-0.4,0.1-1.1c0-0.2,0-0.4,0-0.6c0-0.2,0-0.5,0-0.7
				c0-0.3,0-0.5-0.1-0.8c-0.1-0.3-0.1-0.6-0.2-0.9c-0.1-0.7-0.4-1.3-0.6-2.1c-0.3-0.7-0.7-1.5-1.2-2.2c-0.2-0.4-0.5-0.8-0.8-1.1
				c-0.2-0.4-0.6-0.7-0.9-1.1c-0.3-0.4-0.6-0.7-0.9-1.2c-0.3-0.4-0.7-0.8-1-1.2c-0.4-0.4-0.8-0.7-1.2-1.1c-0.4-0.3-0.8-0.7-1.3-0.9
				c-0.2-0.1-0.5-0.3-0.7-0.4c-0.2-0.1-0.5-0.2-0.8-0.4c-0.5-0.3-1-0.4-1.6-0.6c-0.2-0.1-0.6-0.1-0.9-0.2l-0.5-0.1l-0.2-0.1
				c-0.1,0,0.1,0,0,0l0,0l-0.1,0l-0.1,0c-0.6-0.1-1.2-0.1-1.8-0.1c-1.2,0-2.5,0.2-3.7,0.6c-2.5,0.8-4.8,2.3-6.5,4.4
				c-0.9,1-1.6,2.2-2.2,3.5l-0.4,1c-0.1,0.3-0.2,0.6-0.3,1c-0.2,0.5-0.3,1.5-0.5,2.1c-0.2,1.4-0.3,2.8-0.1,4.2c0.2,1.4,0.5,2.7,1,4
				c1,2.5,2.7,4.7,4.9,6.2c1,0.7,2.2,1.3,3.3,1.7c0.5,0.2,1.2,0.3,1.9,0.5l0.1,0l0.1,0l0,0c0,0-0.1,0-0.1,0l0.2,0l0.4,0
				c0.3,0,0.6,0.1,0.9,0.1c2.3,0,4.6-0.5,6.4-1.5c0.9-0.5,1.7-1.1,2.5-1.7c0.4-0.3,0.8-0.5,1.2-0.8c0.4-0.3,0.7-0.5,1.1-0.8
				c0.7-0.6,1.3-1.2,1.8-1.8c0.5-0.6,1-1.2,1.3-1.8c0.2-0.3,0.3-0.6,0.5-0.8c0.1-0.3,0.2-0.5,0.3-0.8c0.1-0.2,0.2-0.5,0.3-0.7
				c0.1-0.2,0.1-0.4,0.1-0.6C410,270.9,410.1,270.5,410.1,270.5z"/>
		</g>
		<g>
			<path class="st3" d="M408.9,289.5c0.2,1.9,0.3,3.8,0.1,5.7c-0.1,1.9-0.4,3.8-1.1,5.7c-0.6,1.8-1.5,3.6-2.9,5.1
				c-0.7,0.7-1.5,1.4-2.3,1.9c-0.9,0.5-1.8,1-2.8,1.2c-1,0.3-2,0.5-3,0.5c-0.1,0-0.2,0-0.4,0l-0.4,0l-0.7,0l-1.4,0l-1.5-0.1
				c-0.5,0-1-0.1-1.5-0.2l-1.5-0.3l-1.5-0.4c-0.5-0.1-1-0.4-1.4-0.6c-0.5-0.2-0.9-0.5-1.4-0.7c-0.5-0.3-0.9-0.6-1.3-0.9
				c-0.4-0.3-0.8-0.7-1.2-1.1c-0.7-0.8-1.4-1.7-1.8-2.7c-0.2-0.5-0.4-1-0.6-1.5c-0.2-0.5-0.3-1-0.4-1.7l2.1,1.2l-10.7,4.4l0.9-1.8
				c0.3,1,0.8,2.1,1.4,3.1c0.3,0.5,0.6,1,0.9,1.5c0.4,0.5,0.7,1,1.1,1.4c1.5,1.9,3.3,3.4,5.4,4.7c1,0.7,2.1,1.1,3.2,1.7
				c0.6,0.2,1.1,0.4,1.7,0.6c0.6,0.2,1.1,0.4,1.7,0.6c1.2,0.3,2.3,0.7,3.6,0.8c1.2,0.2,2.4,0.4,3.6,0.4c2.5,0.2,4.9,0.2,7.2-0.3
				c2.3-0.5,4.5-1.3,6.4-2.7c1.9-1.3,3.6-3.1,4.9-5.1c1.3-2,2.3-4.2,3.1-6.5c0.8-2.3,1.3-4.7,1.7-7.2c0.3-2.4,0.6-4.9,0.6-7.4
				l0.1-15.3l0.2-30.6l1.5,1.5h-11l1.5-1.6l0.3,5.5l0.3,5.1l-3-4.2c-0.5-0.7-1.3-1.5-2.1-2.2c-0.8-0.7-1.7-1.3-2.6-1.8
				c-0.9-0.5-1.9-1-2.9-1.3c-0.5-0.2-1-0.3-1.5-0.4l-0.8-0.2l-0.8-0.1c-1-0.2-2.1-0.2-3.2-0.2c-0.5,0-1.1,0.1-1.6,0.1l-0.8,0.1
				c-0.3,0-0.5,0.1-0.8,0.1l-1.6,0.3c-0.5,0.1-1.1,0.3-1.6,0.4l-0.8,0.2l-0.4,0.1l-0.2,0.1l0,0l0,0c-0.1,0,0.1,0,0.1,0l0,0l-0.1,0
				l-1.6,0.6c-1.1,0.4-2,0.9-2.9,1.4c-0.5,0.2-0.9,0.6-1.3,0.9c-0.4,0.3-0.9,0.6-1.3,0.9c-0.8,0.7-1.7,1.4-2.3,2.2
				c-0.3,0.4-0.8,0.8-1.1,1.2l-1,1.3c-0.6,0.9-1.2,1.8-1.6,2.8c-0.2,0.5-0.5,1-0.7,1.5c-0.2,0.5-0.4,1-0.6,1.5
				c-0.4,1-0.7,2.1-0.9,3.1c-0.2,1-0.4,2.2-0.5,3.2l0,0.1l0,0.1c-0.2,1-0.2,2.3-0.2,3.4c0,0.6,0,1.2,0.1,1.8c0,0.6,0.1,1.2,0.2,1.8
				c0.1,1.2,0.4,2.3,0.7,3.5l0.5,1.7c0.2,0.6,0.4,1.1,0.7,1.6l0.3,0.8l0.4,0.8l0.9,1.5c0.3,0.5,0.7,1,1,1.4l0.5,0.7l0.6,0.7l1.1,1.3
				c0.4,0.4,0.9,0.8,1.3,1.2c0.4,0.4,0.9,0.8,1.3,1.2l1.5,1c0.9,0.7,2,1.3,3.1,1.8c0.5,0.3,1.1,0.6,1.6,0.8c0.5,0.2,1.1,0.4,1.7,0.6
				c1.1,0.3,2.3,0.6,3.5,0.7c1.2,0.1,2.4,0.2,3.6,0.2c1.2,0,2.4-0.1,3.6-0.3c0.6-0.1,1.2-0.2,1.8-0.4l1.8-0.5
				c1.1-0.4,2.3-0.8,3.4-1.4C406.8,290.9,407.8,290.2,408.9,289.5z M408.9,289.5c-1,0.7-1.9,1.6-3,2.2c-1,0.7-2.2,1.2-3.3,1.8
				l-1.8,0.7c-0.6,0.2-1.2,0.3-1.8,0.5c-1.2,0.3-2.5,0.5-3.8,0.6c-1.3,0.1-2.6,0.1-3.8,0.1c-1.3-0.1-2.6-0.2-3.8-0.5
				c-0.6-0.1-1.3-0.3-1.9-0.5c-0.7-0.2-1.2-0.5-1.8-0.7c-1.2-0.5-2.4-1-3.5-1.7l-1.7-1c-0.6-0.3-1-0.8-1.6-1.2
				c-0.5-0.4-1-0.8-1.5-1.2l-1.4-1.4l-0.7-0.7c-0.2-0.3-0.4-0.5-0.6-0.8c-0.4-0.5-0.8-1.1-1.2-1.6c-0.3-0.6-0.6-1.2-1-1.7
				c-0.2-0.3-0.3-0.6-0.5-0.9l-0.4-0.9c-0.2-0.6-0.5-1.2-0.7-1.8l-0.6-1.9c-0.3-1.3-0.6-2.6-0.8-3.9c-0.1-0.6-0.1-1.3-0.2-2
				c-0.1-0.7-0.1-1.3-0.1-2c0-1.3,0.1-2.6,0.3-4l0,0.2c0.1-1.3,0.3-2.5,0.5-3.7c0.3-1.2,0.6-2.4,1-3.5c0.2-0.6,0.4-1.1,0.7-1.7
				c0.2-0.6,0.5-1.1,0.8-1.7c0.5-1.1,1.2-2.1,1.8-3.2l1.1-1.5c0.4-0.5,0.8-0.9,1.2-1.4c0.8-0.9,1.8-1.7,2.7-2.5
				c0.5-0.4,1-0.7,1.5-1.1c0.5-0.3,1-0.7,1.6-1c1.1-0.6,2.2-1.2,3.3-1.6l1.6-0.6l0.1,0l0.1,0l0.1,0l0.2-0.1l0.4-0.1l0.9-0.2
				c0.6-0.2,1.2-0.3,1.8-0.5l1.8-0.3c0.3,0,0.6-0.1,0.9-0.1l0.9-0.1c0.6,0,1.2-0.1,1.8-0.1c1.2,0,2.5,0,3.7,0.3l0.9,0.1l0.9,0.2
				c0.6,0.2,1.2,0.3,1.8,0.5c1.2,0.4,2.3,0.9,3.4,1.5c1.1,0.6,2.1,1.3,3.1,2.1c1,0.8,1.8,1.7,2.6,2.8l-2.7,0.9l-0.3-5.5l-0.1-1.6
				h1.6h11h1.5l0,1.5l-0.2,30.6l-0.1,15.3c0,2.6-0.2,5.2-0.6,7.8c-0.4,2.6-1,5.2-1.8,7.7c-0.8,2.5-1.9,5-3.4,7.2
				c-1.5,2.3-3.4,4.3-5.7,5.9c-2.3,1.6-4.9,2.6-7.6,3.2c-2.7,0.6-5.4,0.6-8,0.4c-1.3,0-2.6-0.3-3.9-0.5c-1.3-0.1-2.6-0.5-3.9-0.9
				c-0.7-0.1-1.3-0.4-1.9-0.6c-0.6-0.2-1.3-0.5-1.9-0.7c-1.2-0.6-2.4-1.1-3.6-1.9c-2.3-1.4-4.4-3.2-6.1-5.3
				c-0.4-0.5-0.8-1.1-1.2-1.6c-0.4-0.6-0.7-1.1-1.1-1.7c-0.3-0.6-0.7-1.2-0.9-1.8c-0.3-0.6-0.5-1.2-0.8-2l-0.4-1.3l1.3-0.5l10.7-4.4
				l1.8-0.7l0.3,2c0,0.2,0.2,0.7,0.3,1c0.1,0.4,0.3,0.7,0.5,1.1c0.2,0.4,0.4,0.7,0.6,1c0.3,0.3,0.5,0.7,0.8,0.9
				c0.3,0.3,0.5,0.6,0.9,0.9c0.3,0.3,0.6,0.6,1,0.8c0.3,0.2,0.7,0.5,1.1,0.7c0.4,0.2,0.7,0.4,1.1,0.6l1.2,0.5l1.3,0.3
				c0.4,0.1,0.9,0.2,1.3,0.3l1.3,0.2l1.4,0.1l0.7,0l0.4,0l0.3,0c0.9,0,1.8-0.1,2.6-0.3c0.9-0.2,1.7-0.5,2.5-0.9
				c0.8-0.4,1.5-0.9,2.1-1.5c1.3-1.2,2.3-2.8,3-4.5c0.7-1.7,1.2-3.5,1.5-5.4C408.8,293.3,408.9,291.4,408.9,289.5z"/>
		</g>
	</g>
</g>
<g id="letter_l">
	<path class="st11" d="M428.5,211.3c3.9,0,7.7,0,11.7,0c0.3,6.6,0.1,13.2,0.1,19.7c0,6.6,0,13.1,0,19.7c0,6.5,0,13,0,19.5
		c0,6.6,0,13.1,0,19.6c-1.9,0.5-8.7,0.7-11.7,0.3c-0.1-0.1-0.1-0.1-0.2-0.2c0-0.1-0.1-0.1-0.1-0.2c0-0.4-0.1-0.8-0.1-1.2
		c0-25.5,0-50.9,0-76.2C428.2,212,428.3,211.8,428.5,211.3z"/>
	<g>
		<path class="st3" d="M430.7,215.1c0.3,3.2,0.5,6.5,0.7,9.7l0.6,9.7c0.1,1.6,0.2,3.2,0.2,4.9c0,1.6,0,3.2,0,4.9v9.7V293l-1.5-1.5
			h12l-1.5,1.5v-38.9v-19.5v-4.9c0-1.6-0.1-3.2,0-4.9l0.6-9.7l0.8,0.8l-6-0.4L430.7,215.1z M430.7,215.1l6-0.4l6-0.4l0.8,0l0.1,0.9
			l0.6,9.7c0.1,1.6,0,3.2,0,4.9v4.9v19.5V293v1.5h-1.5h-12h-1.5V293v-38.9v-9.7c0-1.6,0-3.2,0-4.9c0-1.6,0.1-3.2,0.2-4.9l0.6-9.7
			C430.2,221.6,430.4,218.4,430.7,215.1z"/>
	</g>
</g>
<g id="stars">
	<path class="st12" d="M349.4,485.9L349.4,485.9c0-8-6.6-14.4-14.5-14.4l0,0l0,0c8,0,14.4-6.6,14.4-14.5l0,0l0,0
		c0,8,6.6,14.4,14.5,14.4l0,0l0,0C355.8,471.4,349.4,478,349.4,485.9L349.4,485.9z"/>
	<path id="XMLID_180_" class="st12" d="M185.2,397.5l-6,1.8l6,1.8c2.4,0.7,4.3,2.6,5,5l1.8,6l1.8-6c0.7-2.4,2.6-4.3,5-5l6-1.8
		l-6-1.8c-2.4-0.7-4.3-2.6-5-5l-1.8-6l-1.8,6C189.6,394.9,187.7,396.8,185.2,397.5z"/>
	<circle id="XMLID_177_" class="st13" cx="192.4" cy="58.1" r="21.8"/>
	<path id="XMLID_176_" class="st13" d="M208.1,53.3c0.5,1.5,0.7,3.2,0.7,4.8"/>
	<circle id="XMLID_175_" class="st14" cx="219.5" cy="518.1" r="2.9"/>
	<circle id="XMLID_174_" class="st15" cx="49.7" cy="217.3" r="2.9"/>
	<circle id="XMLID_173_" class="st14" cx="171.6" cy="186.9" r="2.9"/>
	<circle id="XMLID_172_" class="st15" cx="536.9" cy="534" r="2.9"/>
	<circle id="XMLID_171_" class="st16" cx="62.5" cy="133.1" r="2.9"/>
	<g id="XMLID_158_" class="st17">
		<line id="XMLID_170_" class="st15" x1="573.1" y1="90.6" x2="572.3" y2="104.5"/>
		<line id="XMLID_169_" class="st15" x1="568.7" y1="110" x2="554.7" y2="116"/>
		<line id="XMLID_168_" class="st15" x1="552.4" y1="122" x2="557.7" y2="142.7"/>
		<line id="XMLID_167_" class="st15" x1="555.6" y1="146" x2="539" y2="148.2"/>
		<line id="XMLID_166_" class="st15" x1="533.1" y1="144.4" x2="528.5" y2="130.1"/>
		<line id="XMLID_165_" class="st15" x1="531.3" y1="125.8" x2="547.8" y2="119.1"/>
		<ellipse id="XMLID_164_" class="st15" cx="571.7" cy="108.3" rx="3.6" ry="3.6"/>
		<ellipse id="XMLID_163_" class="st15" cx="551.5" cy="118.2" rx="3.9" ry="3.9"/>
		<ellipse id="XMLID_162_" class="st15" cx="558.2" cy="145.5" rx="2.8" ry="2.8"/>
		<ellipse id="XMLID_161_" class="st15" cx="534" cy="149.3" rx="5" ry="5"/>
		<ellipse id="XMLID_160_" class="st15" cx="527.7" cy="126.6" rx="3.6" ry="3.6"/>
		<ellipse id="XMLID_159_" class="st15" cx="573.8" cy="87.2" rx="3.6" ry="3.6"/>
	</g>
	<circle id="XMLID_157_" class="st15" cx="536.9" cy="534" r="7.7"/>
	<g>
		<circle id="XMLID_156_" class="st13" cx="334.6" cy="89.5" r="1.9"/>
		<circle id="XMLID_155_" class="st13" cx="323.6" cy="104.1" r="1.9"/>
		<circle id="XMLID_154_" class="st13" cx="303.6" cy="93.2" r="1.9"/>
		<line id="XMLID_153_" class="st13" x1="305.3" y1="94" x2="321.9" y2="103.4"/>
		<line id="XMLID_152_" class="st13" x1="324.8" y1="102.7" x2="333.6" y2="91.1"/>
	</g>
	<circle id="XMLID_148_" class="st14" cx="581.9" cy="346.9" r="2.9"/>
	<circle id="XMLID_147_" class="st16" cx="625.7" cy="256.9" r="2.9"/>
	<circle id="XMLID_146_" class="st16" cx="422.7" cy="374.9" r="2.9"/>
	<g>
		<circle id="XMLID_145_" class="st15" cx="542" cy="314.4" r="1.9"/>
		<circle id="XMLID_144_" class="st15" cx="531" cy="329" r="1.9"/>
		<circle id="XMLID_143_" class="st15" cx="511" cy="318.1" r="1.9"/>
		<line id="XMLID_142_" class="st15" x1="512.7" y1="318.9" x2="529.3" y2="328.3"/>
		<line id="XMLID_141_" class="st15" x1="532.2" y1="327.6" x2="541" y2="315.9"/>
	</g>
	<g id="XMLID_128_" class="st18">
		<ellipse id="XMLID_140_" class="st15" cx="50.9" cy="365.3" rx="11.1" ry="11.1"/>
		<line id="XMLID_139_" class="st15" x1="38.9" y1="346.1" x2="32.1" y2="339.6"/>
		<line id="XMLID_138_" class="st15" x1="43.9" y1="351.1" x2="42.3" y2="349.5"/>
		<line id="XMLID_137_" class="st15" x1="19.5" y1="334.9" x2="17.9" y2="333.3"/>
		<line id="XMLID_136_" class="st15" x1="22.9" y1="346.5" x2="16.1" y2="339.9"/>
		<line id="XMLID_135_" class="st15" x1="28" y1="351.4" x2="26.4" y2="349.8"/>
		<line id="XMLID_134_" class="st15" x1="43" y1="357.6" x2="26.8" y2="341.9"/>
		<line id="XMLID_133_" class="st15" x1="43.1" y1="366" x2="34.6" y2="357.8"/>
		<line id="XMLID_132_" class="st15" x1="38.9" y1="338.1" x2="34.5" y2="334"/>
		<line id="XMLID_131_" class="st15" x1="58.7" y1="357.3" x2="42.6" y2="341.8"/>
		<line id="XMLID_130_" class="st15" x1="27.9" y1="358.5" x2="18.5" y2="349.3"/>
		<line id="XMLID_129_" class="st15" x1="43.2" y1="373.3" x2="33.8" y2="364.2"/>
	</g>
	<line id="XMLID_127_" class="st15" x1="595.7" y1="286.9" x2="618.1" y2="299.9"/>
	<line id="XMLID_126_" class="st15" x1="621.2" y1="301.7" x2="621.2" y2="301.7"/>
	<line id="XMLID_125_" class="st15" x1="602.6" y1="300" x2="625" y2="312.9"/>
	<line id="XMLID_109_" class="st15" x1="628.1" y1="314.7" x2="628.1" y2="314.7"/>
	<g id="XMLID_94_">
		<g id="XMLID_101_">
			<path id="XMLID_108_" class="st19" d="M381.2,198.4L368.6,188l23.3-28.2c2.4-2.9,5.6-5.1,9.1-6.3l2.5-0.9
				c3.2-1.1,6.3,1.6,5.9,4.9l-0.4,2.6c-0.5,3.7-2.1,7.3-4.5,10.2L381.2,198.4z"/>
			<polyline id="XMLID_107_" class="st19" points="381.4,198.8 388,204.2 392.8,198.5 389.6,188.9 			"/>
			<polyline id="XMLID_106_" class="st19" points="368.3,187.9 361.7,182.5 366.5,176.7 376.5,178 			"/>
			
				<rect id="XMLID_105_" x="368.5" y="192.8" transform="matrix(-0.7705 -0.6375 0.6375 -0.7705 537.6014 582.6694)" class="st19" width="10.4" height="3.6"/>
			<polygon id="XMLID_104_" class="st19" points="372.7,206.3 362.3,197.7 368.6,192.6 376.5,199.3 			"/>
			<path id="XMLID_103_" class="st19" d="M400.8,168.5c-1.9-2.9-3.4-4.1-6.6-5.4c1-1.4,1.6-2.1,2.9-3.5c3.1,1.5,4.5,2.7,6.6,5.4
				C402.6,166.5,402,167.2,400.8,168.5z"/>
		</g>
		<line id="XMLID_100_" class="st19" x1="388.1" y1="164.4" x2="374.1" y2="181.2"/>
		<line id="XMLID_99_" class="st19" x1="347.9" y1="216.8" x2="346.1" y2="218.9"/>
		<line id="XMLID_98_" class="st19" x1="360" y1="202.1" x2="350.3" y2="213.8"/>
		<line id="XMLID_97_" class="st19" x1="368.7" y1="209.1" x2="354.8" y2="225.9"/>
		<line id="XMLID_96_" class="st19" x1="349.8" y1="223.1" x2="346.4" y2="227.3"/>
		<line id="XMLID_95_" class="st19" x1="360.3" y1="210.4" x2="356.2" y2="215.4"/>
	</g>
	<g id="blink_x5F_stars">
		<path id="star5" class="st20" d="M269.3,157.4l-6,1.8l6,1.8c2.4,0.7,4.3,2.6,5,5l1.8,6l1.8-6c0.7-2.4,2.6-4.3,5-5l6-1.8l-6-1.8
			c-2.4-0.7-4.3-2.6-5-5l-1.8-6l-1.8,6C273.6,154.8,271.7,156.7,269.3,157.4z"/>
		<path id="star4" class="st20" d="M655.4,309.8l-1.3,0.4l1.3,0.4c0.5,0.2,1,0.6,1.1,1.1l0.4,1.3l0.4-1.3c0.2-0.5,0.6-1,1.1-1.1
			l1.3-0.4l-1.3-0.4c-0.5-0.2-1-0.6-1.1-1.1l-0.4-1.3l-0.4,1.3C656.4,309.2,656,309.6,655.4,309.8z"/>
		<path id="star3" class="st20" d="M631.7,440.6l-6,1.8l6,1.8c2.4,0.7,4.3,2.6,5,5l1.8,6l1.8-6c0.7-2.4,2.6-4.3,5-5l6-1.8l-6-1.8
			c-2.4-0.7-4.3-2.6-5-5l-1.8-6l-1.8,6C636,438,634.1,439.8,631.7,440.6z"/>
		<path id="star2" class="st21" d="M115.2,117.2l-3.8,1.1l3.8,1.1c1.5,0.5,2.7,1.7,3.2,3.2l1.1,3.8l1.1-3.8c0.5-1.5,1.7-2.7,3.2-3.2
			l3.8-1.1l-3.8-1.1c-1.5-0.5-2.7-1.7-3.2-3.2l-1.1-3.8l-1.1,3.8C117.9,115.5,116.7,116.8,115.2,117.2z"/>
		<path id="star1" class="st20" d="M43.2,482.5l-6,1.8l6,1.8c2.4,0.7,4.3,2.6,5,5l1.8,6l1.8-6c0.7-2.4,2.6-4.3,5-5l6-1.8l-6-1.8
			c-2.4-0.7-4.3-2.6-5-5l-1.8-6l-1.8,6C47.6,479.9,45.7,481.8,43.2,482.5z"/>
	</g>
	<path id="XMLID_84_" class="st12" d="M478.2,95.5l-6,1.8l6,1.8c2.4,0.7,4.3,2.6,5,5l1.8,6l1.8-6c0.7-2.4,2.6-4.3,5-5l6-1.8l-6-1.8
		c-2.4-0.7-4.3-2.6-5-5l-1.8-6l-1.8,6C482.6,92.9,480.7,94.8,478.2,95.5z"/>
	<path id="XMLID_61_" class="st13" d="M192.4,41.7c5.1,0,9.7,2.3,12.7,6"/>
	<circle id="XMLID_60_" class="st14" cx="374.5" cy="108.1" r="2.9"/>
	<circle id="XMLID_59_" class="st16" cx="319.7" cy="397.9" r="2.9"/>
</g>

<style>
	#geet_your_google_universe_in_order #back {
		-webkit-transform-origin: 50% 50%;
		-webkit-transform: scale(0);
		transform-origin: 50% 50%;
		transform: scale(0);
		opacity: 0;
		-webkit-animation: showBack 2s linear 1s forwards;
		animation: showBack 2s linear 1s forwards;
	}

	#geet_your_google_universe_in_order #snowball {
		-webkit-transform-origin: 50% 50%;
		transform-origin: 50% 50%;
		-webkit-animation: movesnowball 3s linear 0s forwards;
		animation: movesnowball 3s linear 0s forwards;
	}

	#geet_your_google_universe_in_order #o_planet, #geet_your_google_universe_in_order #letter_o, #geet_your_google_universe_in_order #letter_G, #geet_your_google_universe_in_order #letter_g, #geet_your_google_universe_in_order #letter_l, #geet_your_google_universe_in_order #letter_e {
		-webkit-transform-origin: 50% 50%;
		transform-origin: 50% 50%;
		opacity: 0.5;
	}

	#geet_your_google_universe_in_order #letter_G {
		-webkit-transform: translate(-80px, -80px);
		transform: translate(-80px, -80px);
		-webkit-animation: moveG 2s linear 0s forwards, showLetter 0s linear 2s forwards;
		animation: moveG 2s linear 0s forwards, showLetter 0s linear 2s forwards;
	}

	#geet_your_google_universe_in_order #o_planet {
		-webkit-transform: scale(3);
		transform: scale(3);
		-webkit-animation: scaleo_planet 2s linear 0s forwards, showLetter 0s linear 2.1s forwards;
		animation: scaleo_planet 2s linear 0s forwards, showLetter 0s linear 2.1s forwards;
	}

	#geet_your_google_universe_in_order #letter_o {
		-webkit-transform: translateY(100px);
		transform: translateY(100px);
		-webkit-animation: move_o 2s linear 0s forwards, showLetter 0s linear 2.2s forwards;
		animation: move_o 2s linear 0s forwards, showLetter 0s linear 2.2s forwards;
	}

	#geet_your_google_universe_in_order #letter_g {
		-webkit-transform: translate(80px, 80px);
		transform: translate(80px, 80px);
		-webkit-animation: move_g 2s linear 0s forwards, showLetter 0s linear 2.3s forwards;
		animation: move_g 2s linear 0s forwards, showLetter 0s linear 2.3s forwards;
	}

	#geet_your_google_universe_in_order #letter_l {
		-webkit-transform: translateY(-100px);
		transform: translateY(-100px);
		-webkit-animation: move_l 2s linear 0s forwards, showLetter 0s linear 2.4s forwards;
		animation: move_l 2s linear 0s forwards, showLetter 0s linear 2.4s forwards;
	}

	#geet_your_google_universe_in_order #letter_e {
		-webkit-transform: translateX(100px);
		transform: translateX(100px);
		-webkit-animation: move_e 2s linear 0s forwards, showLetter 0s linear 2.5s forwards;
		animation: move_e 2s linear 0s forwards, showLetter 0s linear 2.5s forwards;
	}


	#geet_your_google_universe_in_order #star1, #geet_your_google_universe_in_order #star2 {
		-webkit-animation: blinkStar 1s ease-out 0s alternate infinite;
		animation: blinkStar 1s ease-out 0s alternate infinite;
	}
	#geet_your_google_universe_in_order #star3, #geet_your_google_universe_in_order #star4 {
		-webkit-animation: blinkStar 1s ease-out 1s alternate infinite;
		animation: blinkStar 1s ease-out 1s alternate infinite;
	}
	#geet_your_google_universe_in_order #star5 {
		-webkit-animation: blinkStar 1s ease-out 0.5s alternate infinite;
		animation: blinkStar 1s ease-out 0.5s alternate infinite;
	}


	@-webkit-keyframes showBack {
		0% {
	    opacity: 0;
	    -webkit-transform: scale(0);
	    transform: scale(0);
	  }
		100% {
			opacity: 1;
			-webkit-transform: scale(1);
			transform: scale(1);
		}
	}

	@-webkit-keyframes movesnowball {
		0% {
	    -webkit-transform: translateX(0px);
	    transform: translateX(0px);
	  }
		20% {
	    -webkit-transform: translateX(100px);
	    transform: translateX(100px);
	  }
	  40% {
	    -webkit-transform: translateX(-50px);
	    transform: translateX(-50px);
	  }
	  60% {
	    -webkit-transform: translateX(25px);
	    transform: translateX(25px);
	  }
	  80% {
	    -webkit-transform: translateX(-12px);
	    transform: translateX(-12px);
	  }
	  100% {
	    -webkit-transform: translateX(0px);
	    transform: translateX(0px);
	  }
	}

	@-webkit-keyframes moveG {
		0% {
	    -webkit-transform: translate(-80px, -80px);
	    transform: translate(-80px, -80px);
	  }
		20% {
			-webkit-transform: translate(40px, 40px);
			transform: translate(40px, 40px);
		}
		40% {
	    -webkit-transform: translate(-20px, -20px);
	    transform: translate(-20px, -20px);
	  }
		60% {
			-webkit-transform: translate(10px, 10px);
			transform: translate(10px, 10px);
		}
		80% {
	    -webkit-transform: translate(-5px, -5px);
	    transform: translate(-5px, -5px);
	  }
		100% {
			-webkit-transform: translate(0px, 0px);
			transform: translate(0px, 0px);
		}
	}

	@-webkit-keyframes scaleo_planet {
		0% {
	    -webkit-transform: scale(3);
	    transform: scale(3);
	  }
		20% {
			-webkit-transform: scale(0.2);
			transform: scale(0.2);
		}
		40% {
	    -webkit-transform: scale(1.8);
	    transform: scale(1.8);
	  }
		60% {
			-webkit-transform: scale(0.6);
			transform: scale(0.6);
		}
		80% {
	    -webkit-transform: scale(1.3);
	    transform: scale(1.3);
	  }
		100% {
			-webkit-transform: scale(1);
			transform: scale(1);
		}
	}

	@-webkit-keyframes move_o {
		0% {
	    -webkit-transform: translateY(100px);
	    transform: translateY(100px);
	  }
		20% {
			-webkit-transform: translateY(-50px);
			transform: translateY(-50px);
		}
		40% {
	    -webkit-transform: translateY(25px);
	    transform: translateY(25px);
	  }
		60% {
			-webkit-transform: translateY(-13px);
			transform: translateY(-13px);
		}
		80% {
	    -webkit-transform: translateY(6px);
	    transform: translateY(6px);
	  }
		100% {
			-webkit-transform: translateY(0px);
			transform: translateY(0px);
		}
	}

	@-webkit-keyframes move_g {
		0% {
	    -webkit-transform: translate(80px, 80px);
	    transform: translate(80px, 80px);
	  }
		20% {
			-webkit-transform: translate(-40px, -40px);
			transform: translate(-40px, -40px);
		}
		40% {
	    -webkit-transform: translate(20px, 20px);
	    transform: translate(20px, 20px);
	  }
		60% {
			-webkit-transform: translate(-10px, -10px);
			transform: translate(-10px, -10px);
		}
		80% {
	    -webkit-transform: translate(5px, 5px);
	    transform: translate(5px, 5px);
	  }
		100% {
			-webkit-transform: translate(0px, 0px);
			transform: translate(0px, 0px);
		}
	}

	@-webkit-keyframes move_l {
		0% {
	    -webkit-transform: translateY(-100px);
	    transform: translateY(-100px);
	  }
		20% {
			-webkit-transform: translateY(50px);
			transform: translateY(50px);
		}
		40% {
	    -webkit-transform: translateY(-25px);
	    transform: translateY(-25px);
	  }
		60% {
			-webkit-transform: translateY(13px);
			transform: translateY(13px);
		}
		80% {
	    -webkit-transform: translateY(-6px);
	    transform: translateY(-6px);
	  }
		100% {
			-webkit-transform: translateY(0px);
			transform: translateY(0px);
		}
	}

	@-webkit-keyframes move_e {
		0% {
	    -webkit-transform: translateX(100px);
	    transform: translateX(100px);
	  }
		20% {
			-webkit-transform: translateX(-50px);
			transform: translateX(-50px);
		}
		40% {
	    -webkit-transform: translateX(25px);
	    transform: translateX(25px);
	  }
		60% {
			-webkit-transform: translateX(-13px);
			transform: translateX(-13px);
		}
		80% {
	    -webkit-transform: translateX(6px);
	    transform: translateX(6px);
	  }
		100% {
			-webkit-transform: translateX(0px);
			transform: translateX(0px);
		}
	}

	@-webkit-keyframes showLetter {
		0% {
	    opacity: 0.5;
	  }
		100% {
			opacity: 1;
		}
	}

	@-webkit-keyframes blinkStar {
		0% {
	    opacity: 1;
	  }
		100% {
			 opacity: 0;
		}
	}






	@keyframes showBack {
		0% {
	    opacity: 0;
	    transform: scale(0);
	  }
		100% {
			opacity: 1;
			transform: scale(1);
		}
	}

	@keyframes movesnowball {
		0% {
	    transform: translateX(0px);
	  }
		20% {
	    transform: translateX(100px);
	  }
	  40% {
	    transform: translateX(-50px);
	  }
	  60% {
	    transform: translateX(25px);
	  }
	  80% {
	    transform: translateX(-12px);
	  }
	  100% {
	    transform: translateX(0px);
	  }
	}

	@keyframes moveG {
		0% {
	    transform: translate(-80px, -80px);
	  }
		20% {
			transform: translate(40px, 40px);
		}
		40% {
	    transform: translate(-20px, -20px);
	  }
		60% {
			transform: translate(10px, 10px);
		}
		80% {
	    transform: translate(-5px, -5px);
	  }
		100% {
			transform: translate(0px, 0px);
		}
	}

	@keyframes scaleo_planet {
		0% {
	    transform: scale(3);
	  }
		20% {
			transform: scale(0.2);
		}
		40% {
	    transform: scale(1.8);
	  }
		60% {
			transform: scale(0.6);
		}
		80% {
	    transform: scale(1.3);
	  }
		100% {
			transform: scale(1);
		}
	}

	@keyframes move_o {
		0% {
	    transform: translateY(100px);
	  }
		20% {
			transform: translateY(-50px);
		}
		40% {
	    transform: translateY(25px);
	  }
		60% {
			transform: translateY(-13px);
		}
		80% {
	    transform: translateY(6px);
	  }
		100% {
			transform: translateY(0px);
		}
	}

	@keyframes move_g {
		0% {
	    transform: translate(80px, 80px);
	  }
		20% {
			transform: translate(-40px, -40px);
		}
		40% {
	    transform: translate(20px, 20px);
	  }
		60% {
			transform: translate(-10px, -10px);
		}
		80% {
	    transform: translate(5px, 5px);
	  }
		100% {
			transform: translate(0px, 0px);
		}
	}

	@keyframes move_l {
		0% {
	    transform: translateY(-100px);
	  }
		20% {
			transform: translateY(50px);
		}
		40% {
	    transform: translateY(-25px);
	  }
		60% {
			transform: translateY(13px);
		}
		80% {
	    transform: translateY(-6px);
	  }
		100% {
			transform: translateY(0px);
		}
	}

	@keyframes move_e {
		0% {
	    transform: translateX(100px);
	  }
		20% {
			transform: translateX(-50px);
		}
		40% {
	    transform: translateX(25px);
	  }
		60% {
			transform: translateX(-13px);
		}
		80% {
	    transform: translateX(6px);
	  }
		100% {
			transform: translateX(0px);
		}
	}

	@keyframes showLetter {
		0% {
	    opacity: 0.5;
	  }
		100% {
			opacity: 1;
		}
	}

	@keyframes blinkStar {
		0% {
	    opacity: 1;
	  }
		100% {
			 opacity: 0;
		}
	}

</style>

</svg>
