<?xml version="1.0" encoding="utf-8"?>
<!-- Generator: Adobe Illustrator 19.0.0, SVG Export Plug-In . SVG Version: 6.00 Build 0)  -->
<svg version="1.1" id="stages_of_digital_success" xmlns="http://www.w3.org/2000/svg" xmlns:xlink="http://www.w3.org/1999/xlink" x="0px" y="0px"
	 viewBox="0 0 644.2 558.7" style="enable-background:new 0 0 644.2 558.7;" xml:space="preserve">
<style type="text/css">
	.st0{fill:#FFFFFF;}
	.st1{fill:url(#SVGID_1_);}
	.st2{fill:url(#SVGID_2_);}
	.st3{fill:#F9D45F;}
	.st4{fill:none;stroke:#272DAD;stroke-width:3;stroke-linecap:round;stroke-linejoin:round;stroke-miterlimit:10;}
	.st5{opacity:0.36;fill:#272DAD;}
	.st6{fill:none;stroke:#272DAD;stroke-width:2;stroke-miterlimit:10;}
	.st7{fill:#272DAD;}
	.st8{fill:#EFF4F7;}
	.st9{fill:#4248B7;}
	.st10{fill:#77E084;}
	.st11{fill:none;stroke:#4248B7;stroke-width:40;stroke-miterlimit:10;}
	.st12{fill:#E06065;}
	.st13{fill:#3BD47C;}
	.st14{fill:#F7CA2F;}
	.st15{fill:none;stroke:#272DAD;stroke-width:1.9516;stroke-miterlimit:10;}
</style>
<g id="bgwhite">
	<path class="st0" d="M171,107.8c-29.4,16.3-70,18.8-85.9,48.3c-4.1,7.7-5.9,16.4-6.7,25c-2.2,26.8,5.5,53.2,9.4,79.7
		c3.9,26.6,3.2,56-13.4,77.1c-8.7,11.1-20.9,18.8-31.5,28C17.2,388.2,0.1,421,0,454.9s18.1,68.1,48.1,84c8.3,4.4,17.3,7.4,26.4,9.9
		c54.9,15.2,114.5,12.8,168-6.9c27.4-10.1,53.4-24.6,82.1-30.2c21.2-4.2,43.2-3.3,64.7-1.1c29.8,3,59.3,8.4,88.2,16.1
		c21.2,5.6,42.4,12.6,64.4,12.3c21.9-0.3,45.2-9.3,55.9-28.4c12.8-22.8,4.1-51.3-6-75.4s-21.6-50.6-13.5-75.4
		c6.5-20.2,24.5-34.2,39.8-49s29.6-34.7,25.4-55.6c-3.3-16.7-17.5-28.8-31.4-38.7c-33.9-24-71.6-43.2-101.5-72.1
		C471.9,107,459.7,51.7,413,24.9c-25.6-14.7-99-37-158.3-17C207.4,23.8,214.6,83.6,171,107.8z"/>
	
		<linearGradient id="SVGID_1_" gradientUnits="userSpaceOnUse" x1="500.1083" y1="406.2477" x2="569.8925" y2="406.2477" gradientTransform="matrix(0.7595 -0.6505 0.6505 0.7595 -135.6003 445.7122)">
		<stop  offset="0" style="stop-color:#E06065"/>
		<stop  offset="0.5137" style="stop-color:#E06065;stop-opacity:0"/>
	</linearGradient>
	<path class="st1" d="M555.5,417.5c-5.3-7-10.6-13.6-17.3-19.3c-7.9-6.8-16.1-13.1-21.6-21.5c-1.5,0.9-2.9,2-4.3,3.1
		c-14.6,12.5-16.3,34.6-3.8,49.2c12.5,14.6,34.6,16.3,49.2,3.8c1.8-1.6,3.4-3.3,4.9-5.1C560.2,424.2,558,420.7,555.5,417.5z"/>
	
		<radialGradient id="SVGID_2_" cx="374.851" cy="382.9661" r="152.0873" gradientTransform="matrix(1.1209 0 0 1.1749 -66.7128 -95.7764)" gradientUnits="userSpaceOnUse">
		<stop  offset="0" style="stop-color:#4984EF;stop-opacity:0.6"/>
		<stop  offset="0.9059" style="stop-color:#4984EF;stop-opacity:0"/>
	</radialGradient>
	<ellipse class="st2" cx="353.5" cy="354.2" rx="202.3" ry="152.8"/>
	<path id="blik_star1" class="st3" d="M542.5,136l-4.2,1.3l4.2,1.3c1.7,0.5,3,1.8,3.5,3.5l1.3,4.2l1.3-4.2c0.5-1.7,1.8-3,3.5-3.5
		l4.2-1.3l-4.2-1.3c-1.7-0.5-3-1.8-3.5-3.5l-1.3-4.2l-1.3,4.2C545.5,134.2,544.2,135.5,542.5,136z"/>
	<g>
		<ellipse id="XMLID_20_" class="st4" cx="535.3" cy="405.8" rx="35" ry="35"/>
		<path id="XMLID_19_" class="st4" d="M570.8,382.1c5,0.4,8.5,2,9.8,4.7c3.8,8.3-13,24.2-37.7,35.6s-47.7,14-51.5,5.7
			c-1.2-2.5-0.4-5.7,1.8-9.3"/>
		<path id="XMLID_18_" class="st4" d="M554.9,388.1c1.7,1.9,3.2,4.1,4.3,6.6"/>
		<path id="XMLID_17_" class="st4" d="M524.2,381.8c7.4-3.4,15.7-3.1,22.5,0.2"/>
	</g>
	<path class="st5" d="M63.9,283.6c-3.2,0-5.7-2.6-5.7-5.7c0-3.2,2.6-5.7,5.7-5.7c3.2,0,5.7,2.6,5.7,5.7S67,283.6,63.9,283.6z
		 M63.9,274.1c-2,0-3.7,1.7-3.7,3.7s1.7,3.7,3.7,3.7c2,0,3.7-1.7,3.7-3.7C67.6,275.8,65.9,274.1,63.9,274.1z"/>
	<circle id="XMLID_15_" class="st6" cx="36.2" cy="492.2" r="4.7"/>
	<circle id="XMLID_14_" class="st4" cx="608.1" cy="249.9" r="4.7"/>
	<path class="st5" d="M259.3,59.2c-3.4,0-6.2-2.8-6.2-6.2s2.8-6.2,6.2-6.2c3.4,0,6.2,2.8,6.2,6.2S262.7,59.2,259.3,59.2z
		 M259.3,49.8c-1.8,0-3.2,1.4-3.2,3.2s1.4,3.2,3.2,3.2s3.2-1.4,3.2-3.2S261,49.8,259.3,49.8z"/>
	<circle id="XMLID_59_" class="st6" cx="173.2" cy="343.9" r="4.7"/>
	<circle id="XMLID_60_" class="st6" cx="173.2" cy="344.2" r="12.3"/>
	<g>
		<ellipse id="XMLID_12_" class="st6" cx="380.8" cy="64.8" rx="3" ry="3"/>
		<ellipse id="XMLID_11_" class="st6" cx="409" cy="56.5" rx="3" ry="3"/>
		<ellipse id="XMLID_10_" class="st6" cx="424.3" cy="90" rx="3" ry="3"/>
		<line id="XMLID_9_" class="st6" x1="422.9" y1="87.2" x2="410.6" y2="59.1"/>
		<line id="XMLID_8_" class="st6" x1="406.2" y1="57.2" x2="383.6" y2="63.8"/>
	</g>
	<g>
		<line id="XMLID_7_" class="st4" x1="81.6" y1="305.5" x2="118.3" y2="325.4"/>
		<line id="XMLID_6_" class="st4" x1="123.2" y1="328.1" x2="123.3" y2="328.1"/>
		<line id="XMLID_5_" class="st4" x1="93.2" y1="326.2" x2="129.9" y2="346"/>
		<line id="XMLID_4_" class="st4" x1="134.9" y1="348.7" x2="134.9" y2="348.8"/>
	</g>
	<path id="blik_star2" class="st3" d="M118.1,427.3L118.1,427.3c-5,0-9.1,4.1-9.1,9.1l0,0l0,0c0-5-4.1-9.1-9.1-9.1l0,0l0,0c5,0,9.1-4.1,9.1-9.1l0,0
		l0,0C109,423.2,113.1,427.3,118.1,427.3L118.1,427.3z"/>
	<path id="blik_star3" class="st7" d="M576.5,487.8l-4.5,1.3l4.5,1.3c1.8,0.5,3.2,1.9,3.7,3.7l1.3,4.5l1.3-4.5
		c0.5-1.8,1.9-3.2,3.7-3.7l4.5-1.3l-4.5-1.3c-1.8-0.5-3.2-1.9-3.7-3.7l-1.3-4.5l-1.3,4.5C579.7,485.8,578.3,487.2,576.5,487.8z"/>
</g>
<g id="hand">
	<path class="st8" d="M280,445.1c0.6-20.8-2.3-25.4-7.8-34.3c-2.8-4.4-6.2-10-10.4-19.4c-5.2-11.8-5.9-23.6-6.6-36.1
		c-0.6-9.6-1.1-19.5-4-29.3c-2.7-9.3-8.2-17.9-13.5-26.3c-2.8-4.4-5.5-8.6-7.7-12.8l-0.2-0.4c-9.5-17.9-12.9-29.3-10.1-33.9
		c0.3-0.5,1.3-2.2,5.3-2.2c1.3,0,2.7,0.2,4.3,0.5c6.7,1.3,14.9,18.3,19.4,27.4c1.4,2.8,2.5,5.2,3.5,6.9c0.1,0.1,0.2,0.5,0.4,0.9
		c7.4,16,12.6,22.8,17.4,22.8c1,0,2-0.3,2.8-0.9c6.8-4.6,1.6-20.8-5.9-41.4c-1.5-4.2-2.8-7.8-3.3-9.8c-0.4-1.5-0.9-3.3-1.6-5.5
		c-3.4-11.5-10.7-36,0.6-40.2c1.3-0.5,2.5-0.7,3.5-0.7c8.4,0,12.2,15.5,14.4,24.8c0.5,2,0.9,3.7,1.3,5.1c0.5,1.9,1.4,5.9,2.3,10.6
		c5.3,25.9,8.5,37.8,13.4,39.2c0.9,0.3,1.8,0.4,2.6,0.4c1.9,0,3.5-0.7,4.8-2.1c3.5-3.9,3-12.1,2.1-21.6c-0.2-2.1-0.4-4-0.4-5.2
		c0-2.7-0.2-6.1-0.4-10.1c-0.9-16.2-2.4-43.2,6-52c1.7-1.8,3.8-2.7,6.4-2.7c1.1,0,2.2,0.2,3.5,0.5c14.4,3.6,10.5,29.3,7.1,52
		c-2.8,18.9-5.3,35.2,1.1,42.3c1.4,1.6,3,2.4,4.8,2.4c6.9,0,11.4-12.6,18.8-34.9c6-18.1,14.2-43,22-43c2.3,0,5.1,2.5,7.9,7.2
		c5.6,9.2-3.7,33.2-9.8,49.2c-2.5,6.5-4.6,12-5.7,16.1c-5.1,19.3-5.4,34-0.9,54.1l1.3,5.9l3.4-5c11.9-17.3,31.8-37.5,48.5-37.5
		c2,0,4,0.3,5.8,0.9c8.5,2.7,10.1,5.1,10.3,6.4c0.6,3.4-6.2,8.9-11.7,13.3c-2.9,2.4-6,4.8-8.4,7.2c-9.4,9.4-15.8,20.7-22,31.6
		c-7.1,12.5-13.8,24.2-24.5,33.5c-3.1,2.7-5.7,4.8-8,6.6c-13.6,11.1-13.6,12-12.7,34.7c0.1,1.5,0.1,3.1,0.2,4.8H280z"/>
	<g>
		<path class="st9" d="M272.3,443l73.7,0.6l-0.3,0.3l-0.6-33.3l0-0.2l0.2-0.1c4.4-2.5,8.8-5.2,13.1-8.1c2.1-1.4,4.2-2.9,6.2-4.5
			c2-1.6,4-3.2,5.7-5c1.7-1.8,3.3-3.9,4.9-5.9c1.6-2,3.1-4.1,4.5-6.2c1.4-2.1,2.8-4.3,4.1-6.5c0.6-1.1,1.2-2.2,1.8-3.4l1.6-3.5
			c4.3-9.3,9.5-18.3,15.9-26.4c3.2-4,6.7-7.8,10.7-11.2c2-1.7,4.1-3.2,6.2-4.6c2.2-1.4,4.5-2.6,6.9-3.6l-0.1,0
			c0.8-0.5,1.6-1.1,2.3-1.7c0.7-0.7,1.4-1.3,2-2.1c0.6-0.7,1.1-1.6,1.5-2.4c0.4-0.8,0.7-1.7,0.8-2.7c0.1-0.9,0.1-1.9,0-2.8
			c0-0.5-0.2-0.9-0.3-1.4l-0.2-0.7c-0.1-0.2-0.2-0.4-0.3-0.6c-0.2-0.4-0.4-0.9-0.6-1.2c-0.3-0.4-0.5-0.9-0.8-1.2
			c-0.6-0.7-1.3-1.3-2.1-1.8c-0.8-0.5-1.7-0.9-2.6-1.2c-0.9-0.3-1.8-0.5-2.8-0.6c-1.9-0.3-3.9-0.3-5.8-0.1c-1.9,0.1-3.9,0.4-5.8,0.8
			c-1.9,0.4-3.8,0.9-5.7,1.5l0,0l0,0c-1.1,0.3-2.2,0.6-3.3,1c-1.1,0.4-2.2,0.8-3.2,1.2c-1,0.5-2.1,0.9-3.1,1.4c-1,0.5-2.1,1-3.1,1.6
			c-1,0.6-2,1.1-3,1.8c-1,0.6-2,1.2-2.9,1.9c-0.9,0.7-1.9,1.3-2.8,2l-2.7,2.2c-0.9,0.7-1.7,1.5-2.6,2.3c-0.9,0.8-1.7,1.5-2.5,2.4
			l-2.4,2.5l-2.3,2.6c-0.8,0.9-1.5,1.8-2.2,2.7l-2.1,2.8c-0.7,0.9-1.3,1.9-1.9,2.9l-1.9,2.9l-1,1.6l-0.4-1.8l-4.2-19.1l-1-4.8
			l-0.1-0.6l-0.1-0.3l0-0.1l0-0.1l0-0.2c0-0.4-0.1-0.9-0.1-1.3c0-0.8,0-1.7,0.1-2.5c0.3-3.3,1-6.6,2-9.7c1-3.1,1.8-6.2,2.7-9.4
			l2.6-9.4l5.1-18.8l10.1-37.7c0.4-1.4,0.3-2.9,0-4.4c-0.4-1.4-1.1-2.8-2.1-3.9c-1-1.1-2.2-2.1-3.5-3c-0.6-0.4-1.4-0.8-2-1.1
			c-0.6-0.3-1.4-0.5-2.1-0.6c-3-0.5-6.1,0.2-8.5,2.1c-0.3,0.2-0.6,0.5-0.9,0.7l-0.8,0.8c-0.5,0.6-1,1.2-1.4,1.8
			c-0.4,0.7-0.9,1.3-1.2,2l-1.1,2.1l0-0.1l-21.1,67.6l0-0.2c-0.1,0.6-0.2,0.9-0.4,1.3c-0.2,0.4-0.4,0.7-0.7,1
			c-0.3,0.3-0.6,0.6-0.9,0.8c-0.3,0.2-0.6,0.5-1,0.6c-0.7,0.4-1.4,0.6-2.1,0.8l-0.5,0.1l-0.1,0l-0.1,0l0,0l-0.1,0l0,0l-0.2,0l-0.5,0
			c-0.2,0-0.5,0-0.7-0.1c-0.5,0-0.9-0.2-1.3-0.4c-0.4-0.2-0.8-0.4-1-0.7c-0.3-0.3-0.5-0.6-0.8-0.9c-0.2-0.3-0.4-0.7-0.6-1
			c-0.3-0.7-0.6-1.4-0.7-2c-0.1-0.3-0.2-0.7-0.2-1c-0.1-0.4-0.1-0.7-0.1-1.1l0,0l0-0.1l1.4-81.5l0-0.1c0-0.7,0-1.6-0.2-2.4
			c-0.2-0.8-0.4-1.6-0.7-2.3c-0.3-0.8-0.7-1.5-1.1-2.1c-0.4-0.7-1-1.2-1.6-1.8l-1-0.8c-0.3-0.3-0.7-0.4-1-0.6
			c-0.7-0.5-1.5-0.7-2.2-1.1c-0.8-0.3-1.6-0.5-2.4-0.7c-0.8-0.1-1.7-0.3-2.5-0.4c-0.7-0.1-1.6,0-2.4,0.1c-0.8,0.1-1.6,0.3-2.3,0.6
			l-0.6,0.2c-0.2,0.1-0.4,0.2-0.5,0.3c-0.4,0.2-0.7,0.4-1,0.6c-0.7,0.4-1.2,1-1.8,1.6l-0.8,0.9c-0.3,0.3-0.4,0.7-0.7,1
			c-0.5,0.7-0.7,1.5-1.1,2.2c-0.3,0.8-0.5,1.6-0.8,2.4l-0.5,2.5l0-0.1c-0.4,6.3-0.6,12.6-0.8,18.9c-0.2,6.3-0.3,12.6-0.4,19
			c0,3.2,0,6.3,0,9.5c0,3.2,0.1,6.3,0.1,9.5c0.1,3.2,0.1,6.3,0.3,9.5c0.1,3.2,0.3,6.3,0.4,9.5l0-0.1c0.1,0.5,0.1,0.9,0,1.3
			c0,0.4-0.1,0.8-0.2,1.2c-0.1,0.4-0.2,0.8-0.4,1.2c-0.2,0.4-0.4,0.8-0.6,1.1c-0.3,0.3-0.5,0.7-0.9,1c-0.3,0.3-0.7,0.5-1,0.7
			c-0.4,0.2-0.7,0.4-1.1,0.5l-0.6,0.2l-0.3,0.1l-0.1,0l0,0l-0.1,0l0,0l-0.1,0l-0.5,0.1c-0.1,0-0.1,0-0.3,0l-0.4,0
			c-0.2,0-0.5,0-0.7,0l-0.7-0.1c-0.2,0-0.4-0.1-0.7-0.2c-0.2-0.1-0.4-0.2-0.6-0.3c-0.4-0.2-0.8-0.5-1.1-0.8c-0.3-0.3-0.6-0.7-0.8-1
			c-0.2-0.4-0.4-0.7-0.6-1.1c-0.2-0.4-0.3-0.7-0.4-1.1c-0.1-0.4-0.2-0.7-0.2-1.2l0,0.1c-1.7-8.1-3.5-16.3-5.5-24.4
			c-1-4.1-2-8.1-3-12.1c-1-4-2.1-8-3.2-12l-1.7-6c-0.6-2-1.2-4-1.9-5.9c-0.7-2-1.3-3.9-2-5.9l-1.1-2.9c0-0.1-0.2-0.3-0.3-0.5
			c-0.1-0.2-0.2-0.4-0.4-0.6c-0.3-0.4-0.5-0.8-0.8-1.1c-1.2-1.5-2.7-2.6-4.3-3.3c-1.7-0.7-3.5-0.9-5.4-0.7c-0.5,0-0.9,0.2-1.4,0.2
			l-0.6,0.1l-0.7,0.2c-0.4,0.2-0.7,0.3-1.1,0.5c-0.4,0.2-0.7,0.5-1,0.7c-1.3,1.1-2.2,2.8-2.8,4.6c-1.1,3.7-1.2,7.8-0.9,11.8
			c0.1,1,0.2,2,0.4,3l0.7,2.9l1.5,6.1c2,8.1,4,16.2,6.1,24.2c2.1,8.1,4.3,16.1,6.6,24.1c0.6,2,1.2,4,1.8,5.9c0.3,1,0.6,2,1,2.9
			l0.5,1.4l0.3,0.7l0.2,0.4c0.1,0.2,0.1,0.3,0.2,0.5c0.4,1.2,0.5,2.7-0.1,4c-0.5,1.4-1.7,2.4-2.8,2.9c-1.3,0.7-2.9,0.7-4.2,0.3
			c-0.6-0.2-1.2-0.5-1.7-0.9c-0.5-0.4-1-0.7-1.5-1.3l-0.1-0.1l-0.1-0.1l-19-32.9l-9.5-16.4l-0.6-1l-0.1-0.1l0-0.1l0,0l0,0
			c0-0.1,0,0.1,0,0.1l-0.1-0.2c-0.1-0.1-0.2-0.3-0.3-0.4c-0.5-0.5-1-1.1-1.5-1.5c-1.1-0.9-2.3-1.7-3.7-2.2c-1.3-0.5-2.8-0.7-4.2-0.7
			c-1.4,0-2.9,0.4-4.3,0.8l0.1,0c-0.2,0.1-0.6,0.3-0.9,0.6c-0.3,0.2-0.6,0.5-0.9,0.7c-0.3,0.3-0.5,0.5-0.8,0.9
			c-0.3,0.3-0.5,0.6-0.7,0.9c-0.2,0.3-0.4,0.7-0.6,1c-0.2,0.3-0.3,0.7-0.5,1.1l-0.2,0.5l-0.1,0.6c-0.1,0.4-0.2,0.8-0.2,1.2l-0.1,1.2
			l0,1.2l0,0.6l0.1,0.6l0.1,1.2c0.1,0.4,0.2,0.8,0.2,1.2l0.3,1.2l0.7,2.4l-0.1-0.2c6.6,12.3,13.2,24.6,19.9,36.9
			c1.7,3.1,3.4,6.1,5.1,9.1c0.9,1.5,1.7,3,2.6,4.5l0.7,1.1l0.7,1.1c0.5,0.8,1,1.4,1.4,2.3c1.8,3.2,2.7,6.8,2.9,10.4
			c0,0.2,0,0.4,0,0.7l0,0.6l-0.1,1.3l-0.1,2.6c0,1.7,0,3.5,0,5.2c0.1,7,0.7,13.9,1.6,20.8c1,6.9,2.4,13.7,4.4,20.4
			c1.1,3.3,2.2,6.6,3.6,9.8c0.3,0.8,0.7,1.6,1.1,2.4c0.4,0.8,0.7,1.6,1.1,2.3c0.8,1.5,1.6,3.1,2.5,4.5c1.8,3,3.8,5.8,6.1,8.4
			c2.2,2.7,4.8,5,7.5,7.2l0.1,0.1l0,0.2l-1.7,28.7l-0.3,0l1.3-28.7l0.1,0.3c-2.8-2.2-5.4-4.5-7.7-7.2c-2.3-2.6-4.5-5.5-6.3-8.5
			c-1-1.5-1.8-3-2.6-4.6c-0.4-0.8-0.8-1.6-1.2-2.4c-0.4-0.8-0.8-1.6-1.1-2.4c-1.5-3.2-2.6-6.5-3.8-9.8c-1.1-3.3-2-6.7-2.8-10.2
			c-0.8-3.4-1.4-6.9-1.9-10.4c-1-6.9-1.6-13.9-1.8-21c0-1.8-0.1-3.5,0-5.3l0-2.6l0-1.3l0-0.7c0-0.1,0-0.4,0-0.6
			c-0.2-3.3-1.1-6.7-2.7-9.6c-0.4-0.7-0.9-1.4-1.4-2.1l-0.8-1.1l-0.7-1.1c-0.9-1.5-1.8-3-2.7-4.5c-1.8-3-3.5-6.1-5.2-9.1
			c-6.8-12.2-13.6-24.4-20.2-36.7l-0.1-0.1l0-0.1l-0.8-2.6l-0.3-1.3c-0.1-0.4-0.2-0.9-0.3-1.3l-0.1-1.4l-0.1-0.7l0-0.7l0-1.4
			l0.2-1.4c0-0.5,0.2-0.9,0.3-1.4l0.2-0.7l0.2-0.7c0.2-0.4,0.3-0.9,0.6-1.3c0.2-0.4,0.4-0.9,0.7-1.2c0.3-0.4,0.5-0.8,0.8-1.2
			c0.3-0.4,0.6-0.7,1-1.1c0.4-0.3,0.7-0.7,1.1-0.9c0.4-0.3,0.8-0.6,1.3-0.8l0.1,0l0.1,0c1.6-0.5,3.3-1,5-1c1.7-0.1,3.5,0.2,5.1,0.8
			c1.6,0.6,3.1,1.5,4.5,2.6c0.6,0.6,1.3,1.2,1.8,1.8c0.1,0.2,0.3,0.3,0.4,0.5l0.2,0.3l0.2,0.3l0.6,1l9.6,16.4l19.2,32.8l-0.1-0.2
			c0.5,0.5,1.3,1.1,1.9,1.3c0.7,0.2,1.4,0.2,1.9-0.1c0.7-0.4,1.3-0.8,1.5-1.4c0.2-0.6,0.2-1.3,0-2.1l-1.1-2.8c-0.4-1-0.7-2-1-3
			c-0.7-2-1.3-4-1.9-6c-2.4-8-4.5-16.1-6.7-24.2c-2.1-8.1-4.1-16.2-6.1-24.3l-1.5-6.1l-0.8-3.1c-0.2-1.1-0.3-2.2-0.4-3.2
			c-0.3-4.3-0.3-8.7,1-13c0.7-2.1,1.8-4.3,3.7-5.9c0.9-0.8,2-1.4,3.2-1.9l0.7-0.2l0.2-0.1l0.1,0l0.2,0l0.4-0.1
			c0.6-0.1,1.1-0.2,1.7-0.3c2.3-0.3,4.7,0,6.9,0.9c2.2,0.9,4.1,2.4,5.5,4.2c0.4,0.4,0.7,0.9,1,1.4c0.1,0.2,0.3,0.5,0.4,0.7
			c0.1,0.3,0.3,0.5,0.4,0.9l1.1,3c0.8,2,1.4,4,2.1,6c0.7,2,1.3,4,1.9,6l1.8,6c1.1,4,2.2,8.1,3.3,12.1c1,4.1,2,8.1,3,12.2
			c1.9,8.1,3.8,16.3,5.4,24.5l0,0.1l0,0.1c0,0.2,0.1,0.5,0.1,0.7c0.1,0.3,0.1,0.5,0.2,0.7c0.1,0.2,0.2,0.5,0.3,0.7
			c0.1,0.2,0.3,0.4,0.4,0.5c0.2,0.1,0.3,0.3,0.5,0.4c0.1,0.1,0.2,0.1,0.3,0.1c0.1,0,0.2,0.1,0.3,0.1c0.1,0,0.2,0,0.3,0.1
			c0.1,0,0.2,0,0.3,0l0.1,0c0,0,0.2,0,0.2,0l0.5-0.1l0.1,0l0,0c-0.2,0-0.1,0-0.1,0l0,0l0,0l0,0l0,0l0.2-0.1l0.4-0.1
			c0.2-0.1,0.5-0.2,0.7-0.3c0.2-0.1,0.4-0.2,0.6-0.4c0.2-0.1,0.3-0.3,0.4-0.5c0.1-0.2,0.2-0.4,0.3-0.6c0.1-0.2,0.2-0.4,0.2-0.7
			c0-0.2,0.1-0.5,0.1-0.7c0-0.2,0-0.5,0-0.7l0-0.1c-0.1-3.2-0.3-6.3-0.4-9.5c-0.1-3.2-0.2-6.3-0.2-9.5c-0.1-3.2-0.1-6.3-0.1-9.5
			c0-3.2,0-6.3,0-9.5c0.1-6.3,0.2-12.7,0.4-19c0.2-6.3,0.5-12.7,0.9-19l0-0.1l0,0l0.5-2.8c0.3-0.9,0.5-1.8,0.9-2.7
			c0.4-0.9,0.7-1.8,1.3-2.6c0.3-0.4,0.5-0.9,0.8-1.2l0.9-1.2c0.7-0.7,1.4-1.4,2.3-2c0.4-0.3,0.8-0.5,1.3-0.8
			c0.2-0.1,0.4-0.2,0.7-0.3l0.7-0.3c0.9-0.4,1.9-0.6,2.9-0.8c1-0.1,1.9-0.2,3-0.1c1,0.1,1.9,0.3,2.8,0.4c0.9,0.2,1.9,0.5,2.8,0.8
			c0.9,0.4,1.8,0.7,2.6,1.2c0.4,0.3,0.9,0.5,1.2,0.8l1.2,0.9c0.7,0.7,1.4,1.4,2,2.3c0.6,0.8,1,1.7,1.4,2.6c0.4,0.9,0.6,1.9,0.8,2.8
			c0.2,1,0.2,1.9,0.2,3l0-0.1l-1.6,81.5l0-0.1c0,0.2,0.1,0.6,0.1,0.9c0.1,0.3,0.1,0.6,0.2,0.9c0.1,0.6,0.3,1.1,0.6,1.6
			c0.1,0.3,0.3,0.5,0.4,0.7c0.2,0.2,0.3,0.4,0.5,0.5c0.2,0.2,0.4,0.3,0.5,0.4c0.2,0,0.4,0.2,0.6,0.2c0.1,0,0.1,0,0.3,0l0.5,0l0.2,0
			l0,0l0,0c0,0,0.1,0-0.1,0l0,0l0,0l0.1,0l0.1,0l0.4-0.1c0.6-0.1,1.1-0.3,1.6-0.6c0.2-0.1,0.5-0.3,0.7-0.4c0.2-0.2,0.4-0.3,0.5-0.5
			c0.2-0.2,0.3-0.4,0.4-0.6c0.1-0.2,0.2-0.5,0.2-0.5l0-0.2l0,0l21.3-67.6l0-0.1l0,0l1.1-2.3c0.4-0.7,0.9-1.4,1.4-2.2
			c0.5-0.7,1.1-1.3,1.6-2l0.9-0.9c0.3-0.3,0.6-0.6,1-0.8c2.8-2.2,6.5-3.1,10-2.4c0.9,0.2,1.7,0.3,2.6,0.8c0.7,0.4,1.5,0.8,2.2,1.3
			c1.4,0.9,2.8,2,3.9,3.4c1.1,1.3,2,2.9,2.4,4.7c0.4,1.7,0.5,3.6,0,5.3l-10.2,37.7l-5.2,18.8l-2.6,9.4c-0.9,3.1-1.8,6.3-2.8,9.4
			c-1,3.1-1.7,6.2-2,9.4c-0.1,0.8-0.1,1.6-0.1,2.4c0,0.4,0,0.8,0.1,1.2l0,0.1l0,0.1c0-0.1,0,0,0,0l0.1,0.3l0.1,0.6l1,4.8l4.1,19.1
			l-1.4-0.2l1.9-3c0.7-1,1.2-2,2-2.9l2.1-2.8c0.7-1,1.5-1.9,2.2-2.7c0.8-0.9,1.5-1.8,2.3-2.7l2.5-2.5c0.8-0.9,1.7-1.7,2.6-2.4
			c0.9-0.8,1.7-1.6,2.7-2.3l2.8-2.2c0.9-0.7,1.9-1.4,2.9-2.1c0.9-0.7,2-1.3,3-1.9c1-0.6,2-1.2,3.1-1.8c1-0.6,2.1-1.1,3.1-1.6
			c1-0.5,2.1-1,3.2-1.5c1.1-0.4,2.2-0.9,3.3-1.3c1.1-0.4,2.2-0.7,3.4-1l-0.1,0c1.9-0.6,3.9-1.1,5.8-1.5c2-0.4,4-0.7,6-0.8
			c2-0.1,4-0.1,6.1,0.1c1,0.2,2,0.3,3,0.7c1,0.3,1.9,0.7,2.8,1.3c0.9,0.6,1.7,1.2,2.4,2.1c0.4,0.4,0.6,0.8,0.9,1.3
			c0.3,0.5,0.5,0.9,0.7,1.4c0.1,0.2,0.2,0.5,0.3,0.7l0.2,0.7c0.1,0.5,0.3,1,0.4,1.5c0.2,1,0.2,2.1,0,3.1c-0.2,1-0.5,2.1-0.9,3
			c-0.4,0.9-1,1.8-1.6,2.6c-0.6,0.8-1.4,1.5-2.1,2.2c-0.8,0.7-1.6,1.3-2.5,1.8l0,0l0,0c-2.3,1-4.6,2.2-6.7,3.5
			c-2.1,1.4-4.2,2.9-6.1,4.5c-3.9,3.3-7.4,7-10.6,11c-6.4,8-11.5,16.9-15.8,26.2l-1.6,3.5c-0.6,1.2-1.2,2.3-1.8,3.4
			c-1.3,2.2-2.7,4.4-4.1,6.5c-1.5,2.1-3,4.2-4.6,6.2c-1.6,2-3.2,4-5,5.9c-1.8,1.9-3.8,3.5-5.9,5.1c-2.1,1.6-4.1,3.1-6.3,4.5
			c-4.3,2.9-8.7,5.5-13.1,8.1l0.2-0.3l0.4,33.3l0,0.3l-0.3,0l-73.7-0.8L272.3,443z"/>
	</g>
	<g>
		<path class="st9" d="M321.6,388.8c0,0-0.1-0.9-0.1-2.6c0-1.6,0.1-4,0.4-6.7c0.2-1.4,0.4-2.9,0.7-4.5c0.3-1.6,0.7-3.2,1.2-4.9
			c0.5-1.7,1-3.4,1.7-5.1c0.7-1.7,1.5-3.4,2.3-5.1c0.9-1.7,1.9-3.3,2.9-4.8c0.3-0.4,0.5-0.8,0.8-1.2c0.3-0.4,0.6-0.7,0.9-1.1
			c0.6-0.7,1.2-1.4,1.7-2.1c1.2-1.3,2.4-2.5,3.7-3.6c1.2-1.1,2.5-2,3.7-2.7c1.2-0.8,2.4-1.4,3.4-1.9c1-0.5,2-0.9,2.7-1.1
			c1.6-0.5,2.4-0.8,2.4-0.8s-0.8,0.5-2.2,1.3c-0.7,0.4-1.5,1-2.4,1.6c-0.9,0.7-1.9,1.4-2.9,2.3c-0.5,0.4-1.1,0.9-1.6,1.4
			c-0.5,0.5-1.1,1-1.6,1.6c-1.1,1.1-2.1,2.3-3.2,3.6c-1,1.3-2,2.7-3,4.2c-1,1.5-1.8,3-2.7,4.6c-0.8,1.6-1.6,3.2-2.3,4.8
			c-0.7,1.6-1.3,3.3-1.9,4.9c-0.5,1.6-1.1,3.2-1.5,4.7c-0.5,1.5-0.8,2.9-1.2,4.2C322.2,385.1,321.6,388.8,321.6,388.8z"/>
	</g>
</g>
<g id="planet">
	<path class="st10" d="M552.9,539c-74.5-38.6-159.1-60.3-248.7-60.3c-91.7,0-177.9,22.7-253.6,62.8L552.9,539z"/>
	<path class="st0" d="M160.7,508c-9.7,12.7,6.6,22.6,32.2,19.7c33.2-3.8,50.4-24.6,36.1-34.8c-6.2-4.4-15.5-4.1-19.9-4
		C184.6,490.7,166.8,500,160.7,508"/>
	<path class="st0" d="M435.4,503.8c7.4,8.8-3.9,16.5-22.4,15.2c-23.9-1.6-37-15.9-27.1-23.7c4.3-3.4,11-3.5,14.2-3.5
		C417.7,492.2,430.7,498.3,435.4,503.8"/>
	<g>
		<path class="st9" d="M557.5,527.7c0,0-1.8-1-5.2-2.7c-3.4-1.7-8.5-4.1-15-7.1c-6.5-2.9-14.5-6.3-23.7-9.8
			c-4.6-1.8-9.6-3.6-14.8-5.4c-5.2-1.9-10.7-3.9-16.5-5.8c-11.6-3.8-24.3-7.7-37.8-11.1c-13.5-3.5-28-6.6-43-9.2
			c-15-2.7-30.7-4.7-46.6-6.1c-16-1.5-32.2-2.1-48.5-2.1c-16.3,0-32.5,0.7-48.5,2.2c-16,1.5-31.6,3.6-46.6,6.4
			c-15,2.7-29.4,6-42.9,9.6c-13.5,3.6-26.1,7.6-37.7,11.6c-5.7,2.1-11.2,4.1-16.4,6c-2.6,1-5.2,1.9-7.6,2.8
			c-2.5,0.9-4.8,1.9-7.1,2.8c-2.3,0.9-4.5,1.8-6.7,2.7c-2.1,0.9-4.2,1.8-6.2,2.6c-2,0.8-3.9,1.6-5.7,2.4c-1.8,0.8-3.5,1.6-5.1,2.3
			c-3.2,1.5-6.2,2.7-8.7,3.9c-2.5,1.2-4.6,2.2-6.4,3c-3.5,1.6-5.3,2.5-5.3,2.5s1.8-1,5.2-2.7c1.7-0.9,3.8-2,6.2-3.3
			c2.5-1.3,5.3-2.7,8.5-4.3c1.6-0.8,3.3-1.6,5.1-2.5c1.8-0.8,3.7-1.7,5.6-2.6c2-0.9,4-1.9,6.1-2.8c2.1-0.9,4.3-1.9,6.6-2.9
			c2.3-1,4.6-2,7.1-3.1c2.4-1,5-2,7.6-3.1c1.3-0.5,2.6-1,3.9-1.6c1.3-0.5,2.7-1,4.1-1.5c2.8-1,5.6-2,8.5-3c11.6-4,24.3-8,37.8-11.6
			c13.6-3.7,28-6.9,43.1-9.7c15.1-2.7,30.8-4.9,46.8-6.4c16-1.5,32.4-2.2,48.7-2.2c16.3,0,32.7,0.7,48.7,2.1
			c16,1.4,31.7,3.5,46.8,6.2c15.1,2.6,29.6,5.8,43.2,9.3c13.6,3.5,26.3,7.3,38,11.2c5.8,2,11.4,3.8,16.6,5.8c5.2,2,10.1,4,14.7,6
			c9.2,3.9,17,7.6,23.4,10.7c6.4,3.2,11.3,5.8,14.7,7.7C555.7,526.7,557.5,527.7,557.5,527.7z"/>
	</g>
	<g>
		<path class="st9" d="M165.9,518.4c0,0,0-0.2-0.1-0.5c-0.1-0.3-0.1-0.9-0.1-1.6c0-0.7,0.1-1.5,0.4-2.5c0.3-1,0.7-2,1.3-3.1
			c1.3-2.2,3.4-4.6,6.1-6.9c2.7-2.3,6.1-4.5,10-6.5c3.9-2,8.3-3.7,13.2-5.2c4.8-1.4,10-2.5,15.5-3c5.5-0.5,11.2-0.5,16.9,0.6
			c2.9,0.6,5.7,1.5,8.3,3c2.6,1.5,5,3.8,5.8,7c0.1,0.4,0.2,0.7,0.2,1.1c0,0.4,0.1,0.8,0.1,1.2c0,0.4,0,0.8-0.1,1.2
			c0,0.4-0.1,0.8-0.2,1.2c-0.4,1.5-1,2.9-1.8,4.2c-1.6,2.6-3.7,4.7-6,6.6c-4.5,3.7-9.7,6.4-14.8,8.5c-5.1,2-10.3,3.5-15.2,4.5
			c-5,0.9-9.7,1.4-14.2,1.3c-4.4,0-8.4-0.5-11.9-1.3c-3.5-0.9-6.4-2-8.6-3.5c-1.1-0.7-1.9-1.5-2.6-2.2c-0.7-0.8-1.1-1.5-1.4-2.1
			c-0.3-0.6-0.5-1.1-0.6-1.5C166,518.6,165.9,518.4,165.9,518.4L165.9,518.4z M166.1,518.4c0,0,0.1,0.2,0.2,0.5
			c0.1,0.3,0.3,0.8,0.6,1.4c0.3,0.6,0.8,1.3,1.5,2c0.7,0.7,1.5,1.4,2.6,2.1c2.1,1.4,5,2.4,8.5,3.1c3.4,0.7,7.4,0.9,11.7,0.7
			c4.3-0.2,9-0.8,13.8-1.8c4.8-1.1,9.9-2.5,14.8-4.5c5-2,10-4.6,14.4-8c2.2-1.7,4.2-3.7,5.7-6c1.5-2.3,2.4-5,1.8-7.7
			c-0.3-1.2-1-2.4-1.8-3.4c-0.9-1-2-1.9-3.2-2.6c-2.4-1.4-5.1-2.3-7.9-2.9c-5.5-1.2-11.2-1.3-16.5-0.8c-5.4,0.4-10.6,1.5-15.4,2.7
			c-4.8,1.3-9.2,2.9-13.2,4.8c-3.9,1.9-7.3,4-10.1,6.2c-2.8,2.2-4.8,4.5-6.1,6.7c-0.6,1.1-1.1,2.1-1.3,3.1c-0.3,0.9-0.4,1.8-0.4,2.5
			c0,0.7,0,1.2,0.1,1.5C166.1,518.2,166.1,518.4,166.1,518.4L166.1,518.4z"/>
	</g>
	<g>
		<path class="st9" d="M442.7,510.5c0,0,0-0.1,0.1-0.4c0-0.2,0.1-0.6,0.1-1.1c0-0.9-0.3-2.4-1.2-3.9c-0.9-1.5-2.4-3.2-4.3-4.7
			c-2-1.5-4.4-3-7.2-4.2c-2.8-1.2-6-2.3-9.4-3.1c-3.4-0.8-7.1-1.4-10.9-1.5c-3.8-0.1-7.8,0.1-11.6,1.1c-1.9,0.5-3.8,1.3-5.3,2.4
			c-0.8,0.5-1.5,1.2-2.1,1.9c-0.6,0.7-1,1.6-1.1,2.4c-0.4,1.9,0.3,3.7,1.3,5.3c1.1,1.6,2.5,3,4,4.2c3.1,2.4,6.7,4.1,10.2,5.4
			c3.5,1.4,7.1,2.2,10.5,2.9c3.4,0.6,6.7,0.9,9.7,1c3,0,5.8-0.3,8.2-0.8c2.4-0.6,4.4-1.4,5.9-2.4c1.5-1,2.3-2.2,2.7-3
			c0.2-0.4,0.3-0.8,0.4-1C442.7,510.6,442.7,510.5,442.7,510.5L442.7,510.5z M442.9,510.5c0,0,0,0.1-0.1,0.4
			c-0.1,0.2-0.2,0.6-0.4,1.1c-0.4,0.9-1.2,2.1-2.7,3.2c-1.5,1.1-3.5,2.1-5.9,2.9c-2.4,0.8-5.3,1.3-8.4,1.5
			c-3.1,0.2-6.5,0.1-10.1-0.5c-3.5-0.5-7.2-1.5-10.9-2.8c-3.7-1.4-7.4-3.3-10.6-5.9c-1.6-1.3-3.2-2.8-4.3-4.7
			c-0.6-0.9-1.1-1.9-1.3-3.1c-0.1-0.5-0.2-1.1-0.2-1.7c0-0.3,0-0.6,0-0.9c0-0.3,0.1-0.5,0.1-0.8c0.5-2.4,2.2-4.1,3.9-5.3
			c1.8-1.2,3.8-1.9,5.8-2.5c4-1,8.1-1.2,12-1c7.8,0.5,14.9,2.5,20.5,5.2c2.8,1.4,5.2,2.9,7.2,4.5c1.9,1.6,3.4,3.3,4.3,4.8
			c0.9,1.6,1.2,3,1.2,4c0,0.5,0,0.9-0.1,1.1C443,510.4,442.9,510.5,442.9,510.5L442.9,510.5z"/>
	</g>
	<g>
		<path class="st9" d="M363.8,539.7c0,0,0-0.1-0.2-0.3c-0.1-0.2-0.3-0.4-0.6-0.8c-0.5-0.7-1.4-1.5-2.5-2.5c-1.2-0.9-2.7-2-4.6-2.9
			c-0.5-0.2-1-0.5-1.5-0.7c-0.5-0.2-1.1-0.4-1.6-0.6c-0.6-0.2-1.1-0.5-1.6-0.8c-0.6-0.3-1.2-0.5-1.8-0.7c-0.6-0.2-1.2-0.5-1.8-0.8
			c-0.6-0.2-1.3-0.4-2-0.6c-0.7-0.2-1.3-0.4-2-0.7c-0.7-0.2-1.4-0.4-2.1-0.6c-2.9-0.8-6-1.3-9.3-1.9c-3.3-0.4-6.6-0.9-10.1-1.1
			c-1.7-0.1-3.5-0.3-5.2-0.4c-1.8-0.1-3.5-0.1-5.3-0.2l-2.7-0.1c-0.9,0-1.7-0.1-2.6-0.1c-1.7,0-3.5,0-5.2,0.1
			c-3.4,0.1-6.8,0.5-10.1,0.9c-6.5,0.9-12.4,2.6-17.2,4.7c-0.6,0.3-1.2,0.5-1.7,0.8c-0.5,0.3-1.1,0.6-1.6,0.8
			c-0.6,0.2-1.1,0.5-1.6,0.7c-0.5,0.2-1,0.5-1.5,0.7c-0.5,0.2-0.9,0.5-1.4,0.7c-0.4,0.3-0.8,0.5-1.2,0.7c-0.8,0.4-1.5,1-2.1,1.4
			c-1.2,0.9-2.2,1.6-2.8,2.2c-0.6,0.6-1,0.8-1,0.8s0.3-0.4,0.7-1.1c0.5-0.7,1.2-1.7,2.3-2.9c1.1-1.2,2.5-2.6,4.2-3.9
			c0.4-0.4,0.9-0.7,1.4-1c0.5-0.3,1-0.7,1.5-1c1-0.7,2.3-1.1,3.5-1.7c5-2.2,11.2-3.9,17.9-4.9c3.4-0.5,6.8-0.8,10.4-1
			c1.8-0.1,3.6-0.1,5.4-0.1c0.9,0,1.8,0,2.7,0.1l2.6,0.1c1.8,0.1,3.6,0.1,5.4,0.2c1.8,0,3.6,0.3,5.3,0.4c3.5,0.2,7,0.7,10.3,1.2
			c3.3,0.6,6.6,1.2,9.6,2c0.8,0.2,1.5,0.4,2.2,0.6c0.7,0.2,1.4,0.5,2.1,0.7c0.7,0.2,1.4,0.5,2.1,0.7c0.7,0.3,1.3,0.5,1.9,0.8
			c2.6,0.9,4.8,2.3,6.5,3.7c1.8,1.3,3.2,2.8,4.2,4c1,1.3,1.6,2.4,2,3.1c0.2,0.4,0.3,0.7,0.4,0.9
			C363.8,539.6,363.8,539.7,363.8,539.7z"/>
	</g>
	<g>
		<path class="st9" d="M510,518.8c-1.3-0.4-2.6-0.8-3.9-1.1c-1.3-0.3-2.6-0.7-3.9-0.9c-0.7-0.1-1.3-0.3-1.9-0.5
			c-0.6-0.2-1.3-0.3-1.9-0.5c-1.3-0.3-2.6-0.5-3.9-0.7c-0.6-0.1-1.3-0.1-2-0.2c-0.7,0-1.3-0.1-1.9-0.1c-0.6,0-1.3,0-1.9,0.1
			c-0.6,0.1-1.3,0.2-1.9,0.3l-0.9,0.2l-0.9,0.3c-0.6,0.2-1.1,0.5-1.7,0.8c-0.3,0.1-0.5,0.3-0.8,0.5c-0.3,0.2-0.5,0.3-0.7,0.6
			c-0.5,0.4-0.9,0.9-1.3,1.3l0-0.1c-0.1,0.2-0.2,0.5-0.3,0.8c-0.1,0.3-0.1,0.7-0.2,1c0,0.7,0,1.4,0.3,2.1c0.1,0.3,0.2,0.7,0.4,1
			c0.1,0.3,0.3,0.7,0.5,1c0.4,0.6,0.9,1.2,1.4,1.8c0.6,0.5,1.1,1.1,1.7,1.6l0.9,0.7c0.3,0.2,0.7,0.5,1,0.7l1,0.7l1,0.6l1,0.6
			c0.4,0.2,0.6,0.3,1,0.5c1.5,0.6,3,1.2,4.5,1.7c1.5,0.5,3.1,0.9,4.7,1.2c0.8,0.1,1.6,0.4,2.3,0.6c0.8,0.2,1.6,0.4,2.4,0.6
			c0.8,0.2,1.6,0.3,2.4,0.5c0.8,0.2,1.6,0.3,2.4,0.4c-0.8,0.1-1.7,0.1-2.5,0.2c-0.8,0-1.7,0.1-2.5,0c-0.8,0-1.7,0-2.5-0.1
			c-0.8-0.1-1.7-0.1-2.5-0.3c-0.8-0.2-1.6-0.4-2.4-0.6c-0.8-0.2-1.6-0.4-2.4-0.7c-1.6-0.5-3.2-1.1-4.7-1.8c-0.4-0.2-0.8-0.4-1.2-0.6
			l-1.1-0.6l-1.1-0.6l-1-0.7c-0.3-0.2-0.7-0.5-1-0.7l-1-0.8c-0.7-0.5-1.3-1.2-1.9-1.8c-0.3-0.3-0.6-0.7-0.8-1
			c-0.3-0.3-0.5-0.7-0.8-1.1c-0.2-0.4-0.5-0.8-0.7-1.2c-0.2-0.4-0.4-0.8-0.5-1.3c-0.3-0.9-0.4-1.8-0.4-2.8c0-0.5,0.1-1,0.2-1.4
			c0.2-0.5,0.3-0.9,0.6-1.4l0,0l0,0c0.5-0.6,1-1.1,1.5-1.6c0.3-0.3,0.6-0.5,0.9-0.7c0.3-0.2,0.6-0.4,0.9-0.6c0.6-0.4,1.3-0.7,2-0.9
			l1-0.3l1-0.3c0.7-0.1,1.4-0.3,2.1-0.3c0.7-0.1,1.4-0.1,2.1-0.1c0.7,0,1.4,0,2.1,0.1c0.7,0,1.4,0.1,2.1,0.2
			c1.4,0.2,2.7,0.4,4.1,0.7c0.7,0.1,1.3,0.3,2,0.5c0.7,0.1,1.3,0.4,2,0.7C505.2,516.1,507.7,517.3,510,518.8z"/>
	</g>
</g>
<g id="scia">
	<defs>
	<clipPath id="cut_scia">
		<path class="st9" d="M128.6,213.7c0,0,0.2-0.3,0.6-1c0.4-0.7,0.9-1.6,1.7-2.9c1.5-2.5,3.7-6.1,6.8-10.4
			c6.1-8.8,15.6-20.9,28.8-33.6c6.6-6.4,14.1-12.9,22.6-19.1c8.4-6.2,17.8-12.2,27.9-17.5c10.1-5.3,21.1-10,32.5-13.7
			c11.4-3.7,23.4-6.4,35.4-8.1c12-1.7,24.3-2.5,36.2-2.2c12,0.2,23.7,1.5,34.9,3.7c11.2,2.2,21.8,5.1,31.6,8.8
			c9.8,3.6,18.8,7.7,26.8,12c16.1,8.6,28.3,17.8,36.4,24.6c4.1,3.4,7.1,6.2,9.2,8.2c2.1,2,3.1,3,3.1,3s-1.1-1-3.2-3
			c-2.1-1.9-5.2-4.7-9.3-8.1c-8.2-6.7-20.5-15.7-36.6-24.1c-8.1-4.2-17-8.2-26.8-11.7c-9.8-3.5-20.4-6.4-31.6-8.4
			c-11.2-2-22.8-3.2-34.7-3.3c-11.9-0.1-23.9,0.8-35.9,2.6c-11.9,1.8-23.7,4.6-35,8.4c-11.3,3.8-22,8.5-31.9,13.8
			c-9.9,5.4-19.1,11.3-27.3,17.6c-8.3,6.2-15.6,12.7-22,19.1c-12.9,12.7-22.1,24.7-28,33.4c-3,4.3-5.1,7.9-6.5,10.3
			c-0.7,1.2-1.2,2.1-1.6,2.8c-0.3,0.6-0.5,0.9-0.5,0.9L128.6,213.7z"/>
		<path class="st9" d="M112,212.9c0,0,0.2-0.4,0.6-1.1c0.4-0.7,1-1.7,1.8-3.1c1.6-2.7,4-6.5,7.2-11.2c6.5-9.4,16.6-22.4,30.7-36.1
			c7-6.8,15.1-13.8,24.1-20.5c9-6.7,19-13.2,29.9-18.9c10.8-5.7,22.5-10.8,34.8-14.7c12.2-4,25-6.9,37.9-8.8
			c12.9-1.9,26-2.7,38.8-2.4c12.8,0.3,25.4,1.6,37.4,3.9c12,2.3,23.4,5.5,33.9,9.4c10.5,3.9,20.1,8.3,28.7,13
			c17.2,9.2,30.3,19.1,39,26.4c4.4,3.7,7.6,6.7,9.9,8.8c2.2,2.1,3.4,3.2,3.4,3.2s-1.2-1.1-3.4-3.2c-2.2-2.1-5.6-5.1-9.9-8.7
			c-8.8-7.2-21.9-16.9-39.1-26c-8.6-4.5-18.2-8.9-28.7-12.6c-10.5-3.8-21.9-6.9-33.8-9c-11.9-2.2-24.5-3.4-37.2-3.5
			c-12.8-0.1-25.7,0.8-38.5,2.8c-12.8,2-25.4,5-37.5,9c-12.1,4.1-23.5,9.1-34.2,14.9c-10.6,5.8-20.4,12.2-29.3,18.9
			c-8.8,6.7-16.7,13.7-23.6,20.5c-13.8,13.6-23.6,26.5-29.9,35.8c-3.2,4.7-5.5,8.4-7,11c-0.7,1.3-1.3,2.3-1.7,3
			c-0.4,0.7-0.5,1-0.5,1L112,212.9z"/>
	</clipPath>
	</defs>
</g>
<path id="clip_scia" clip-path="url(#cut_scia)" class="st11" d="M118.3,225.7c0,0,137.5-242.9,359.4-50.2"/>
<g id="star1">
	<path id="XMLID_33_" class="st12" d="M196,221.4l-5.8,3.9l7-0.1c2.8,0,5.5,1.4,7,3.7l3.9,5.8l-0.1-7c0-2.8,1.4-5.5,3.7-7l5.8-3.9
		l-7,0.1c-2.8,0-5.5-1.4-7-3.7l-3.9-5.8l0.1,7C199.8,217.2,198.4,219.8,196,221.4z"/>
	<g>
		<path class="st9" d="M194.7,216.9c0.4-0.3,0.6-0.7,0.9-1.1c0.2-0.4,0.4-0.9,0.5-1.3c0.3-0.9,0.4-1.9,0.5-2.8c0.1-1,0.1-1.9,0-2.9
			c0-0.5,0-1-0.1-1.4l-0.1-1.4l-0.5-4.5l2.4,4.1c0.2,0.4,0.4,0.8,0.7,1.2c0.2,0.4,0.5,0.8,0.7,1.2c0.5,0.8,1.1,1.5,1.8,2.2
			c0.3,0.3,0.7,0.6,1,0.9c0.3,0.3,0.7,0.6,1.1,0.8c0.2,0.1,0.4,0.2,0.6,0.4l0.1,0.1l0,0l0,0l0,0c-0.1-0.1,0,0-0.1,0l0,0l0.1,0
			l0.3,0.2c0.5,0.2,0.8,0.3,1.2,0.4c0.4,0.1,0.9,0.2,1.4,0.2c0.5,0.1,0.9,0.1,1.4,0.1c0.9,0.1,1.9,0,2.9,0c1,0,1.9-0.1,2.9-0.3
			c1-0.1,1.9-0.3,2.8-0.5l7.6-1.6l-6.9,3.4c-1.9,0.9-3.8,1.9-5.6,3c-0.9,0.5-1.8,1.1-2.7,1.7c-0.4,0.3-0.8,0.6-1.2,0.9l-0.6,0.5
			c-0.2,0.2-0.3,0.3-0.4,0.5c0,0.1-0.1,0.1-0.1,0.2l0,0l-0.1,0.1l-0.1,0.1c-0.1,0.2-0.2,0.4-0.3,0.7c-0.2,0.5-0.3,0.9-0.4,1.4
			c-0.2,1-0.4,2-0.4,3c0,0.5,0,1,0,1.5c0,0.5,0.1,1,0.1,1.5c0,0.5,0.2,1,0.2,1.5c0.1,0.5,0.2,1,0.3,1.5l1.3,6.1l-3.1-5.4l-3.2-5.5
			l-0.8-1.3c-0.2-0.3-0.6-0.7-0.9-1c-0.7-0.6-1.5-1.1-2.4-1.4c-0.4-0.1-0.9-0.3-1.4-0.3c-0.2,0-0.5-0.1-0.7-0.1c-0.2,0-0.5,0-0.7,0
			c-1.1,0-2.1,0.1-3.1,0.2c-1,0.1-2.1,0.2-3.1,0.3c-1,0.2-2.1,0.1-3.2,0.2l-4.2,0.3l3.6-1.9c3-1.5,5.9-3.1,9-4.6
			c-2.7,2.1-5.4,4-8.1,6l-0.6-1.5c1.1-0.2,2.1-0.5,3.2-0.6l3.2-0.3c1.1-0.1,2.2-0.1,3.2-0.2c0.3,0,0.6,0,0.9,0c0.3,0,0.6,0,0.9,0.1
			c0.6,0.1,1.2,0.2,1.7,0.4c1.1,0.4,2.2,1,3.1,1.8c0.4,0.4,0.8,0.8,1.2,1.4l0.1,0.1l0.1,0.1l0.1,0.2l0.2,0.3l0.4,0.7l3.2,5.5
			l-1.8,0.7c-0.1-0.5-0.2-1.1-0.3-1.6c-0.1-0.5-0.2-1.1-0.2-1.6c-0.1-0.6-0.1-1.1-0.1-1.7c0-0.6,0-1.1,0-1.7c0-1.1,0.2-2.2,0.4-3.4
			c0.1-0.6,0.3-1.1,0.5-1.7c0.1-0.3,0.2-0.5,0.3-0.8l0.1-0.2c0,0,0-0.1,0-0.1l0.1-0.1l0.3-0.5c0.2-0.3,0.4-0.5,0.7-0.7l0.7-0.6
			c0.4-0.3,0.9-0.7,1.4-1c0.9-0.6,1.8-1.2,2.8-1.7c1.9-1.1,3.8-2.1,5.7-3.1l0.6,1.9c-1,0.2-2,0.4-3,0.5c-1,0.1-2,0.2-3,0.3
			c-1,0.1-2,0.1-3.1,0c-0.5,0-1-0.1-1.6-0.1c-0.5,0-1-0.2-1.6-0.3c-0.5-0.2-1.2-0.3-1.6-0.6l-0.3-0.2l-0.1,0l-0.1-0.1l0,0l-0.2-0.1
			c-0.2-0.1-0.5-0.3-0.7-0.4c-0.4-0.3-0.9-0.6-1.3-1c-0.4-0.3-0.8-0.7-1.2-1.1c-0.7-0.8-1.4-1.6-2-2.4c-0.3-0.4-0.6-0.9-0.9-1.3
			c-0.3-0.5-0.5-0.9-0.7-1.4l1.9-0.4l-0.1,1.5c0,0.5-0.1,1-0.1,1.5c0,0.5-0.1,1-0.2,1.5c-0.1,0.5-0.2,1-0.3,1.5
			c-0.1,0.5-0.3,1-0.4,1.5c-0.2,0.5-0.4,0.9-0.6,1.4c-0.2,0.5-0.5,0.9-0.8,1.3C195.4,216.3,195.1,216.7,194.7,216.9z"/>
	</g>
</g>
<g id="star2">
	<path id="XMLID_29_" class="st13" d="M237.7,171.1l-8.9,5.9l10.6-0.1c4.3,0,8.3,2.1,10.7,5.7l5.9,8.9l-0.1-10.6
		c0-4.3,2.1-8.3,5.7-10.7l8.9-5.9l-10.6,0.1c-4.3,0-8.3-2.1-10.7-5.7l-5.9-8.9l0.1,10.6C243.4,164.7,241.3,168.7,237.7,171.1z"/>
	<g>
		<path class="st9" d="M235.1,165c0.6-0.4,0.9-1.1,1.3-1.7c0.3-0.6,0.6-1.3,0.8-2c0.1-0.3,0.2-0.7,0.3-1c0.1-0.3,0.2-0.7,0.2-1
			c0.1-0.3,0.1-0.7,0.2-1l0.1-1c0-0.3,0-0.7,0.1-1c0-0.3,0.1-0.7,0.1-1c0-0.7,0-1.4,0-2.1c0-0.7,0-1.4-0.1-2.1l-0.2-2.1l-0.5-5.5
			l2.6,5l0.9,1.8c0.3,0.6,0.7,1.2,1,1.7c0.4,0.6,0.8,1.1,1.2,1.6c0.4,0.5,0.8,1.1,1.3,1.5c0.4,0.5,0.9,1,1.4,1.4l0.8,0.6l0.8,0.6
			c0.3,0.2,0.6,0.4,0.8,0.5l0.4,0.3c0.1,0-0.1,0-0.1,0l0,0l0,0l0,0l0.1,0l0.1,0.1l0.2,0.1c0.3,0.1,0.7,0.3,0.9,0.4l0.9,0.3
			c0.6,0.1,1.3,0.3,1.9,0.4l1,0.1l1,0.1c0.7,0.1,1.4,0,2,0.1c0.7,0,1.4,0,2.1-0.1c1.4-0.1,2.7-0.2,4.1-0.4c1.4-0.2,2.7-0.4,4.1-0.7
			l8.1-1.7l-7.3,3.8c-2.7,1.4-5.4,2.9-8,4.5c-1.3,0.8-2.6,1.6-3.8,2.5c-0.6,0.4-1.2,0.9-1.7,1.4c-0.5,0.5-1.1,1-1.4,1.4l-0.1,0.2
			l-0.1,0.1c0,0,0,0-0.1,0.1l0,0.1c-0.1,0.1-0.1,0.3-0.2,0.4c-0.1,0.3-0.3,0.7-0.4,1c-0.2,0.7-0.4,1.4-0.6,2.1
			c-0.2,0.7-0.3,1.4-0.4,2.2c-0.1,0.7-0.1,1.5-0.2,2.2c0,0.7,0,1.5,0,2.2c0,0.7,0.1,1.5,0.2,2.2c0.1,0.7,0.2,1.5,0.3,2.2
			c0.1,0.7,0.3,1.5,0.5,2.2l1.4,7l-3.4-6.2l-4.4-7.9l-1.1-2c-0.1-0.2-0.4-0.5-0.6-0.7c-0.2-0.3-0.5-0.5-0.7-0.7
			c-0.5-0.5-1-0.9-1.6-1.3c-0.6-0.4-1.2-0.7-1.8-0.9c-0.6-0.2-1.3-0.4-2-0.5c-0.7-0.1-1.3-0.1-2.1-0.1c-1.5,0-3,0.1-4.5,0.2
			c-1.5,0.1-3,0.2-4.5,0.5c-1.5,0.2-3,0.2-4.5,0.4l-4.4,0.4l3.7-2.1l6.2-3.5c2.1-1.2,4.2-2.3,6.2-3.5c-1.9,1.4-3.8,2.9-5.7,4.3
			l-5.7,4.2l-0.6-1.7c1.5-0.3,3-0.7,4.5-0.8c1.5-0.1,3-0.3,4.6-0.4c1.5-0.1,3.1-0.2,4.6-0.2c0.8,0,1.7,0,2.5,0.2
			c0.8,0.1,1.6,0.4,2.4,0.7c0.8,0.3,1.5,0.7,2.2,1.2c0.7,0.5,1.3,1,1.9,1.5c0.3,0.3,0.6,0.6,0.9,0.9c0.3,0.3,0.5,0.6,0.8,1.1l1.1,2
			l4.4,7.9l-2,0.8c-0.2-0.8-0.3-1.5-0.5-2.3c-0.1-0.8-0.3-1.6-0.3-2.4c-0.1-0.8-0.2-1.6-0.2-2.4c-0.1-0.8,0-1.6,0-2.4
			c0-0.8,0.1-1.6,0.2-2.4c0.1-0.8,0.2-1.6,0.4-2.4c0.2-0.8,0.4-1.6,0.6-2.3c0.1-0.4,0.3-0.8,0.4-1.2c0.1-0.2,0.2-0.4,0.3-0.6
			l0.4-0.6c0.6-0.8,1.2-1.3,1.8-1.9c0.6-0.5,1.3-1,1.9-1.5c1.3-0.9,2.6-1.8,3.9-2.6c2.7-1.6,5.4-3.1,8.1-4.5l0.7,2.1
			c-1.4,0.3-2.8,0.5-4.3,0.7c-1.4,0.2-2.8,0.3-4.3,0.4c-0.7,0.1-1.4,0-2.2,0.1c-0.7,0-1.5,0-2.2-0.1l-1.1-0.1l-1.1-0.1
			c-0.7-0.1-1.5-0.3-2.2-0.5l-1.1-0.4c-0.4-0.1-0.7-0.3-1-0.4l-0.5-0.3l-0.5-0.3c-0.3-0.2-0.7-0.4-0.9-0.6l-0.9-0.7l-0.9-0.7
			c-0.5-0.5-1.1-1-1.6-1.6c-0.5-0.5-1-1.1-1.4-1.7c-0.5-0.6-0.9-1.2-1.3-1.8c-0.4-0.6-0.8-1.2-1.2-1.9c-0.4-0.6-0.7-1.3-1-2l2.1-0.5
			l-0.1,2.2c0,0.7-0.1,1.5-0.1,2.2c-0.1,0.7-0.2,1.4-0.3,2.2c0,0.4-0.1,0.7-0.2,1.1c-0.1,0.4-0.1,0.7-0.2,1.1l-0.3,1.1
			c-0.1,0.4-0.2,0.7-0.3,1.1c-0.1,0.3-0.2,0.7-0.4,1c-0.1,0.3-0.3,0.7-0.4,1c-0.3,0.7-0.7,1.3-1.1,1.9
			C236.2,164.1,235.8,164.6,235.1,165z"/>
	</g>
</g>
<g id="star3">
	<path id="XMLID_37_" class="st14" d="M304.7,145.5l-11.7,2.7l11.2,4.1c4.5,1.7,7.9,5.5,9,10.2l2.7,11.6l4.1-11.2
		c1.7-4.5,5.5-7.9,10.2-9l11.6-2.7l-11.2-4.1c-4.5-1.7-7.9-5.5-9-10.2l-2.6-11.7l-4.1,11.2C313.2,141,309.4,144.4,304.7,145.5z"/>
	<g>
		<path class="st9" d="M306,141c0.8-0.3,1.5-0.9,2.1-1.4c0.6-0.6,1.1-1.2,1.6-1.9c0.3-0.3,0.5-0.7,0.7-1c0.2-0.3,0.4-0.7,0.7-1.1
			c0.2-0.4,0.4-0.7,0.6-1.1l0.6-1.1c0.2-0.4,0.3-0.8,0.5-1.2c0.2-0.4,0.3-0.8,0.5-1.2c0.3-0.8,0.6-1.6,0.9-2.4
			c0.3-0.8,0.5-1.6,0.8-2.4c0.2-0.8,0.4-1.6,0.7-2.4l2-6.3l0.5,6.7c0,0.7,0.1,1.5,0.2,2.3c0.1,0.8,0.2,1.6,0.4,2.3
			c0.3,1.5,0.7,3,1.2,4.5c0.3,0.7,0.6,1.4,0.9,2.1c0.3,0.7,0.7,1.4,1.1,2c0.2,0.3,0.4,0.7,0.6,0.9l0.3,0.5l0.2,0.2l0,0l0,0l0,0
			c0.1,0.1-0.1-0.1-0.1-0.1l0.1,0.1l0.1,0.1l0.8,0.9c0.3,0.3,0.5,0.4,0.8,0.7c0.2,0.2,0.6,0.4,0.9,0.6c0.3,0.2,0.6,0.4,1,0.6
			c0.7,0.4,1.3,0.7,2.1,1.1c0.7,0.3,1.4,0.6,2.2,0.9c0.7,0.3,1.5,0.5,2.2,0.8c0.8,0.2,1.5,0.5,2.3,0.6c0.8,0.2,1.5,0.4,2.3,0.6
			c0.8,0.2,1.6,0.3,2.3,0.5c0.8,0.1,1.6,0.3,2.3,0.4l9.1,1.1l-9,1.4c-3.6,0.5-7.1,1.2-10.6,2c-0.9,0.2-1.7,0.4-2.6,0.6
			c-0.9,0.2-1.7,0.5-2.6,0.7c-0.8,0.3-1.7,0.6-2.4,0.9l-0.6,0.3L323,154c-0.4,0.2-0.6,0.4-0.9,0.6c-0.6,0.5-1.1,1.2-1.7,1.9
			c-0.5,0.7-1,1.4-1.4,2.2c-0.4,0.8-0.9,1.5-1.2,2.3c-0.4,0.8-0.7,1.6-1.1,2.4c-0.6,1.6-1.2,3.3-1.6,5c-0.2,0.9-0.4,1.7-0.6,2.6
			l-0.4,2.6l-1.4,8.5l-1.1-8.5l-1.3-10.5l-0.3-2.6l0-0.3l0-0.2c0-0.1,0,0.1,0,0.1l0,0l0,0l0,0l0-0.1c0-0.2-0.1-0.4-0.1-0.5
			c-0.1-0.4-0.2-0.8-0.4-1.1c-0.3-0.7-0.7-1.5-1.1-2.1c-0.4-0.7-0.9-1.3-1.5-1.8c-0.5-0.6-1.2-1-1.8-1.5c-0.3-0.2-0.7-0.4-1-0.6
			l-1.1-0.5c-0.8-0.3-1.7-0.6-2.5-0.8c-0.8-0.3-1.7-0.5-2.5-0.7c-1.7-0.5-3.4-0.9-5.1-1.3c-0.9-0.2-1.7-0.4-2.5-0.7l-2.5-0.7
			l-4.3-1.2l4.2-0.8l8.1-1.6c2.7-0.5,5.4-1,8.1-1.5c-2.6,0.9-5.2,1.8-7.8,2.6l-7.9,2.5l-0.1-2l2.6,0.4c0.9,0.1,1.8,0.3,2.6,0.5
			c1.7,0.4,3.4,0.9,5.1,1.4c0.9,0.2,1.7,0.5,2.6,0.8c0.9,0.3,1.7,0.6,2.5,0.8l1.4,0.6c0.4,0.2,0.9,0.5,1.3,0.7
			c0.8,0.5,1.6,1.1,2.3,1.8c0.7,0.7,1.3,1.5,1.8,2.3c0.5,0.8,0.9,1.7,1.3,2.6c0.2,0.4,0.3,0.9,0.5,1.4c0.1,0.2,0.1,0.5,0.2,0.7
			l0,0.1l0,0.2l0,0.2l0,0.3l0.3,2.6l1.3,10.5l-2.5,0l0.5-2.8c0.2-0.9,0.4-1.8,0.6-2.7c0.5-1.8,1-3.6,1.7-5.4
			c0.4-0.9,0.7-1.7,1.1-2.6c0.4-0.9,0.9-1.7,1.3-2.5c0.5-0.8,1-1.6,1.6-2.4c0.6-0.8,1.2-1.5,1.9-2.2c0.4-0.4,0.9-0.8,1.4-1l0.7-0.4
			l0.7-0.3c0.9-0.4,1.8-0.7,2.7-1c0.9-0.3,1.8-0.5,2.7-0.8c0.9-0.2,1.8-0.5,2.7-0.7c3.6-0.8,7.2-1.5,10.8-2l0,2.5
			c-0.9-0.1-1.7-0.2-2.5-0.4c-0.8-0.1-1.6-0.3-2.4-0.5c-0.8-0.2-1.6-0.4-2.4-0.6c-0.8-0.2-1.6-0.4-2.4-0.7c-0.8-0.2-1.6-0.5-2.4-0.8
			c-0.8-0.3-1.6-0.6-2.3-1c-0.8-0.3-1.5-0.8-2.3-1.2c-0.4-0.2-0.7-0.5-1.1-0.7c-0.4-0.2-0.7-0.5-1.1-0.8c-0.4-0.3-0.7-0.6-1.1-0.9
			l-0.8-0.9l-0.1-0.1l-0.1-0.1l-0.1-0.1l0,0l0,0l-0.2-0.3l-0.4-0.5c-0.3-0.3-0.5-0.7-0.7-1.1c-0.5-0.7-0.8-1.5-1.2-2.3
			c-0.4-0.8-0.7-1.6-1-2.4c-0.6-1.6-1-3.2-1.3-4.9c-0.2-0.8-0.3-1.7-0.4-2.5c-0.1-0.8-0.2-1.7-0.2-2.6l2.5,0.4
			c-0.3,0.8-0.7,1.6-1,2.4c-0.3,0.8-0.7,1.6-1.1,2.4c-0.4,0.8-0.8,1.6-1.2,2.3c-0.2,0.4-0.4,0.8-0.6,1.1c-0.2,0.4-0.4,0.8-0.7,1.1
			l-0.7,1.1c-0.2,0.4-0.5,0.7-0.8,1.1c-0.3,0.4-0.5,0.7-0.8,1c-0.3,0.3-0.6,0.7-0.9,1c-0.6,0.6-1.3,1.2-2,1.7
			C307.7,140.4,306.9,140.9,306,141z"/>
	</g>
</g>
<g id="star4">
	<path id="XMLID_41_" class="st13" d="M375.5,171.1l-10.7,0.5l9.2,5.4c3.7,2.2,6,6.1,6.2,10.4l0.5,10.6l5.4-9.2
		c2.2-3.7,6.1-6,10.4-6.2l10.6-0.5l-9.2-5.4c-3.7-2.2-6-6.1-6.2-10.4l-0.4-10.6l-5.4,9.2C383.7,168.6,379.8,170.9,375.5,171.1z"/>
	<g>
		<path class="st9" d="M376.2,167.4c0.7-0.1,1.4-0.5,2-0.8c0.6-0.4,1.2-0.8,1.7-1.3c0.3-0.2,0.5-0.5,0.8-0.8
			c0.2-0.3,0.5-0.5,0.7-0.8c0.2-0.3,0.5-0.5,0.7-0.8l0.6-0.9c0.2-0.3,0.4-0.6,0.6-0.9c0.2-0.3,0.4-0.6,0.6-0.9
			c0.4-0.6,0.7-1.2,1.1-1.8c0.3-0.6,0.7-1.3,1-1.9l0.9-1.9l2.3-5l-0.3,5.6l-0.1,2c0,0.7,0,1.4,0,2.1c0,0.7,0.1,1.4,0.2,2
			c0.1,0.7,0.2,1.4,0.4,2c0.1,0.7,0.3,1.3,0.5,2l0.3,1l0.4,0.9c0.1,0.3,0.3,0.6,0.5,0.9l0.2,0.4l0.3,0.4c0.2,0.3,0.4,0.6,0.6,0.8
			l0.6,0.7c0.5,0.4,1,0.9,1.5,1.3l0.8,0.6l0.9,0.6c0.6,0.4,1.2,0.7,1.8,1.1c0.6,0.3,1.2,0.7,1.8,1c1.2,0.6,2.5,1.2,3.8,1.7
			c1.3,0.5,2.6,1,3.9,1.5l7.9,2.5l-8.2-0.4c-3.1-0.1-6.2-0.2-9.3-0.1c-1.5,0-3.1,0.1-4.6,0.3c-0.8,0.1-1.5,0.2-2.2,0.3
			c-0.7,0.1-1.4,0.3-2,0.6l-0.2,0.1l-0.1,0c0,0,0,0-0.1,0l-0.1,0c-0.1,0.1-0.3,0.2-0.4,0.3c-0.3,0.2-0.6,0.4-0.8,0.7
			c-0.5,0.5-1.1,1-1.6,1.6c-0.5,0.5-1,1.1-1.4,1.7c-0.5,0.6-0.9,1.2-1.3,1.9c-0.4,0.7-0.8,1.3-1.1,2c-0.4,0.7-0.7,1.3-1,2
			c-0.3,0.7-0.6,1.4-0.8,2.1c-0.3,0.7-0.5,1.4-0.7,2.2l-2.3,6.7l0.1-7.1l0.1-9.2l0-2.3c0-0.2-0.1-0.6-0.1-0.9
			c-0.1-0.3-0.1-0.7-0.2-1c-0.2-0.7-0.4-1.3-0.8-1.9c-0.3-0.6-0.7-1.2-1.1-1.8c-0.4-0.5-0.9-1-1.5-1.5c-0.5-0.4-1.1-0.8-1.8-1.2
			c-1.3-0.7-2.7-1.4-4-2.1c-1.4-0.7-2.8-1.3-4.2-1.9c-1.4-0.6-2.8-1.3-4.1-1.9l-4-1.8l4.3,0l7.2,0.1c2.4,0,4.8,0.1,7.2,0.1
			c-2.4,0.3-4.8,0.6-7.2,0.9l-7.2,0.8l0.3-1.8c1.5,0.5,3,0.9,4.4,1.6c1.4,0.7,2.8,1.3,4.2,1.9c1.4,0.7,2.8,1.4,4.2,2.1
			c0.7,0.4,1.4,0.9,2.1,1.4c0.7,0.5,1.2,1.1,1.8,1.8c0.5,0.7,1,1.4,1.4,2.1c0.4,0.7,0.7,1.5,0.9,2.3c0.1,0.4,0.2,0.8,0.3,1.2
			c0.1,0.4,0.1,0.8,0.2,1.4l0,2.3l-0.1,9.2l-2.2-0.3c0.3-0.8,0.5-1.5,0.8-2.3c0.3-0.7,0.6-1.5,0.9-2.2c0.3-0.7,0.7-1.5,1-2.2
			c0.4-0.7,0.8-1.4,1.2-2.1c0.4-0.7,0.9-1.4,1.4-2c0.5-0.7,1-1.3,1.5-1.9c0.5-0.6,1.1-1.2,1.7-1.7c0.3-0.3,0.6-0.5,1-0.8
			c0.2-0.1,0.3-0.3,0.6-0.4l0.6-0.3c0.9-0.4,1.7-0.6,2.5-0.8c0.8-0.1,1.6-0.3,2.4-0.3c1.6-0.2,3.2-0.2,4.8-0.3
			c3.2-0.1,6.3,0,9.4,0.1l-0.4,2.1c-1.4-0.5-2.8-1-4.1-1.5c-1.3-0.6-2.7-1.1-4-1.8c-0.7-0.3-1.3-0.7-1.9-1c-0.6-0.4-1.3-0.7-1.9-1.2
			l-0.9-0.6l-0.9-0.7c-0.6-0.4-1.1-1-1.7-1.5l-0.8-0.9c-0.3-0.3-0.4-0.6-0.7-0.9l-0.3-0.5l-0.3-0.5c-0.2-0.3-0.4-0.7-0.5-1l-0.5-1
			l-0.4-1.1c-0.2-0.7-0.4-1.4-0.6-2.2c-0.2-0.7-0.3-1.5-0.4-2.2c-0.1-0.7-0.2-1.5-0.2-2.2c0-0.7-0.1-1.5-0.1-2.2
			c0-0.8,0-1.5,0.1-2.3l2.1,0.6l-1.2,1.9c-0.4,0.6-0.8,1.2-1.2,1.8c-0.4,0.6-0.9,1.2-1.3,1.8c-0.2,0.3-0.5,0.6-0.7,0.9
			c-0.2,0.3-0.5,0.6-0.7,0.8l-0.8,0.8c-0.2,0.3-0.5,0.5-0.8,0.8c-0.3,0.3-0.5,0.5-0.8,0.7c-0.3,0.2-0.6,0.5-0.9,0.7
			c-0.6,0.4-1.2,0.8-1.9,1.1C377.6,167.2,376.9,167.4,376.2,167.4z"/>
	</g>
</g>
<g id="star5">
	<path id="XMLID_45_" class="st12" d="M449.5,270.6l-11.1-4.4l6.9,9.7c2.8,3.9,3.4,9,1.7,13.5l-4.4,11.1l9.7-6.9
		c3.9-2.8,9-3.4,13.5-1.7l11.1,4.4l-6.9-9.7c-2.8-3.9-3.4-9-1.7-13.5l4.5-11.1l-9.7,6.9C459.1,271.7,454,272.3,449.5,270.6z"/>
	<g>
		<path class="st9" d="M449.5,267.5c0.8,0.2,1.6,0.2,2.3,0.1c0.8-0.1,1.5-0.3,2.2-0.6c0.4-0.1,0.7-0.3,1.1-0.4
			c0.4-0.1,0.7-0.3,1.1-0.5c0.3-0.2,0.7-0.3,1-0.5l1-0.6c0.3-0.2,0.7-0.4,1-0.6c0.3-0.2,0.7-0.4,1-0.6c0.6-0.5,1.3-0.9,1.9-1.4
			c0.6-0.5,1.2-0.9,1.8-1.4l1.8-1.5l4.8-4.1l-3,5.8l-1,1.9c-0.3,0.7-0.6,1.3-0.9,2c-0.3,0.7-0.5,1.4-0.7,2.1
			c-0.2,0.7-0.4,1.4-0.6,2.1c-0.2,0.7-0.3,1.4-0.4,2.2l-0.1,1.1l0,1.1c0,0.4,0,0.7,0,1.1l0,0.5l0.1,0.5c0.1,0.4,0.1,0.8,0.2,1.1
			l0.3,0.9c0.3,0.6,0.5,1.3,0.9,2l0.5,1l0.6,1c0.4,0.6,0.8,1.2,1.2,1.9c0.5,0.6,0.9,1.2,1.4,1.8c0.9,1.2,1.9,2.3,3,3.4
			c0.5,0.6,1,1.1,1.6,1.6c0.5,0.5,1.1,1.1,1.6,1.6l7.1,6.4l-8.5-4.4c-3-1.5-6-3-9.1-4.3c-1.5-0.7-3.1-1.3-4.6-1.8
			c-0.8-0.3-1.6-0.5-2.3-0.7c-0.8-0.2-1.6-0.3-2.2-0.3l-0.2,0l-0.1,0c0,0,0,0-0.1,0l-0.1,0c-0.1,0-0.3,0.1-0.5,0.1
			c-0.4,0.1-0.8,0.2-1.1,0.3c-0.8,0.2-1.5,0.5-2.2,0.8c-0.7,0.3-1.5,0.7-2.2,1.1c-0.7,0.4-1.4,0.8-2.1,1.3c-0.7,0.5-1.4,0.9-2,1.4
			c-0.7,0.5-1.3,1-1.9,1.6c-0.6,0.5-1.2,1.1-1.8,1.7c-0.6,0.6-1.1,1.2-1.7,1.8l-5.5,5.9l3.4-7.2l4.3-9.1l1.1-2.3
			c0.1-0.2,0.2-0.6,0.3-1c0.1-0.4,0.2-0.7,0.2-1.1c0.1-0.7,0.2-1.5,0.1-2.3c0-0.8-0.2-1.5-0.3-2.2c-0.2-0.7-0.4-1.4-0.8-2.1
			c-0.3-0.7-0.7-1.3-1.2-1.9c-1-1.3-2-2.6-3.1-3.9c-1.1-1.3-2.1-2.5-3.3-3.7c-1.1-1.2-2.1-2.6-3.2-3.8l-3.3-3.8l4.4,2.1l7.1,3.3
			c2.4,1.1,4.7,2.3,7.1,3.4c-2.5-0.8-5-1.6-7.5-2.4l-7.5-2.4l1.1-1.7c1.2,1.2,2.5,2.3,3.6,3.5c1.1,1.3,2.2,2.5,3.3,3.8
			c1.1,1.3,2.2,2.6,3.1,4c0.5,0.7,1,1.5,1.4,2.3c0.4,0.8,0.7,1.7,1,2.6c0.2,0.9,0.4,1.8,0.4,2.7c0,0.9,0,1.8-0.2,2.7
			c-0.1,0.5-0.2,0.9-0.3,1.3c-0.1,0.5-0.2,0.8-0.5,1.4l-1.1,2.3l-4.3,9.1l-2.1-1.4c0.6-0.6,1.2-1.3,1.8-1.9c0.6-0.6,1.2-1.2,1.9-1.8
			c0.7-0.6,1.3-1.2,2-1.7c0.7-0.6,1.4-1,2.1-1.5c0.7-0.5,1.5-0.9,2.3-1.4c0.8-0.4,1.6-0.8,2.4-1.2c0.8-0.4,1.7-0.7,2.5-0.9
			c0.4-0.1,0.9-0.2,1.3-0.3c0.2,0,0.5-0.1,0.7-0.1l0.8,0c1.1,0,2,0.2,2.8,0.4c0.9,0.2,1.7,0.5,2.5,0.8c1.7,0.6,3.2,1.2,4.8,1.9
			c3.2,1.4,6.2,2.8,9.3,4.4l-1.4,2c-0.6-0.6-1.2-1.1-1.7-1.7c-0.6-0.6-1.1-1.1-1.6-1.7c-1.1-1.2-2.1-2.3-3.1-3.6
			c-0.5-0.6-1-1.3-1.4-1.9c-0.4-0.7-0.9-1.3-1.3-2l-0.6-1l-0.6-1.1c-0.2-0.4-0.4-0.7-0.5-1.1c-0.2-0.4-0.3-0.7-0.5-1.2l-0.4-1.3
			c-0.1-0.4-0.2-0.8-0.2-1.2l-0.1-0.7l0-0.6c0-0.4-0.1-0.8-0.1-1.2l0-1.2l0.1-1.2c0.1-0.8,0.2-1.6,0.4-2.4c0.2-0.8,0.4-1.6,0.6-2.4
			c0.2-0.8,0.5-1.5,0.8-2.3c0.3-0.8,0.6-1.5,0.9-2.2c0.3-0.7,0.7-1.4,1.2-2.2l1.8,1.6l-2,1.3c-0.7,0.4-1.4,0.8-2.1,1.2
			c-0.7,0.4-1.4,0.8-2.1,1.2c-0.4,0.2-0.7,0.3-1.1,0.5c-0.4,0.2-0.7,0.4-1.1,0.5l-1.1,0.4c-0.4,0.2-0.8,0.3-1.1,0.4
			c-0.4,0.1-0.8,0.2-1.2,0.3c-0.4,0.1-0.8,0.2-1.2,0.3c-0.8,0.2-1.6,0.2-2.4,0.2C451,267.9,450.2,267.9,449.5,267.5z"/>
	</g>
</g>
<g id="craft">
	<g>
		<polygon id="XMLID_58_" class="st10" points="488.9,205.8 473.2,207.6 465.9,198.4 476.4,190 		"/>
		<polygon id="XMLID_57_" class="st10" points="509.9,189.3 515.2,174.3 507.9,165.1 497.3,173.4 		"/>
		
			<rect id="XMLID_56_" x="477.3" y="176.8" transform="matrix(0.7837 -0.6211 0.6211 0.7837 -6.5796 340.3504)" class="st10" width="16.3" height="5.7"/>
		<polygon id="XMLID_55_" class="st10" points="467.7,174.2 484.3,161.1 490,172.3 477.3,182.4 		"/>
		<path class="st10" d="M540.2,239.1l-0.5-4.1c-0.7-5.9-3.1-11.5-6.7-16.1l-35.8-45.1l-20.2,16l35.7,45.1c3.7,4.6,8.6,8.2,14.1,10.2
			l3.9,1.4C535.7,248.3,540.8,244.3,540.2,239.1z M520.9,235.1c-1.9-2.1-2.8-3.2-4.4-5.5c5.1-2,7.4-3.8,10.5-8.3
			c1.9,2.1,2.8,3.2,4.4,5.5C528,231,525.8,232.8,520.9,235.1z"/>
	</g>
	<g id="XMLID_47_">
		<path id="XMLID_54_" class="st15" d="M473.1,187.8l20.2-16l35.7,45.1c3.7,4.6,6,10.2,6.7,16.1l0.5,4.1c0.6,5.2-4.5,9.2-9.4,7.4
			l-3.9-1.4c-5.6-2-10.5-5.6-14.1-10.2L473.1,187.8z"/>
		<polyline id="XMLID_53_" class="st15" points="472.4,188 461.9,196.4 469.2,205.6 484.9,203.8 		"/>
		<polyline id="XMLID_52_" class="st15" points="493.3,171.4 503.9,163.1 511.2,172.3 505.9,187.3 		"/>
		
			<rect id="XMLID_51_" x="473.3" y="174.8" transform="matrix(0.7837 -0.6211 0.6211 0.7837 -6.2025 337.4333)" class="st15" width="16.3" height="5.7"/>
		<polygon id="XMLID_50_" class="st15" points="463.7,172.2 480.3,159.1 486,170.3 473.3,180.4 		"/>
		<path id="XMLID_49_" class="st15" d="M512.5,227.6c5.1-2,7.4-3.8,10.5-8.3c1.9,2.1,2.8,3.2,4.4,5.5c-3.4,4.2-5.6,6-10.5,8.3
			C515,231,514.1,229.9,512.5,227.6z"/>
	</g>
</g>

<style>

	#stages_of_digital_success #planet {
		-webkit-transform: translateY(100px);
		transform: translateY(100px);
		opacity: 0;
		-webkit-animation: showPlanet 0.5s linear forwards;
		animation: showPlanet 0.5s linear forwards;
	}

	#stages_of_digital_success #hand {
		-webkit-transform: scale(0, 0.5);
		transform: scale(0, 0.5);
		-webkit-transform-origin: 50% 50%;
		transform-origin: 50% 50%;
		-webkit-animation: showHand 1.5s linear forwards;
		animation: showHand 1.5s linear forwards;
	}

	#stages_of_digital_success #craft {
	  opacity: 0;
		-webkit-transform: rotate(-110deg);
		-webkit-transform-origin: 310px 360px;
		transform: rotate(-110deg);
		transform-origin: 310px 360px;
		-webkit-animation: movecraft 1.5s linear forwards, showStar 0.3s linear forwards;
		animation: movecraft 1.5s linear forwards, showStar 0.3s linear forwards;
	}

	#stages_of_digital_success #clip_scia {
		stroke-dasharray: 420px;
		stroke-dashoffset: 420px;
		-webkit-animation: showSmoke 1.4s linear 0.2s forwards;
		animation: showSmoke 1.4s linear 0.2s forwards;
	}

	#stages_of_digital_success #star1, #stages_of_digital_success #star2, #stages_of_digital_success #star3, #stages_of_digital_success #star4, #stages_of_digital_success #star5 {
		opacity: 0;
	}

	#stages_of_digital_success #star1  {
		-webkit-animation: showStar 0.5s linear  forwards;
		animation: showStar 0.5s linear  forwards;
	}
	#stages_of_digital_success #star2  {
		-webkit-animation: showStar 0.5s linear 0.3s forwards;
		animation: showStar 0.5s linear 0.3s forwards;
	}
	#stages_of_digital_success #star3  {
		-webkit-animation: showStar 0.5s linear 0.6s forwards;
		animation: showStar 0.5s linear 0.6s forwards;
	}
	#stages_of_digital_success #star4  {
		-webkit-animation: showStar 0.5s linear 0.9s forwards;
		animation: showStar 0.5s linear 0.9s forwards;
	}
	#stages_of_digital_success #star5  {
		-webkit-animation: showStar 0.5s linear 1.1s forwards;
		animation: showStar 0.5s linear 1.1s forwards;
	}

	#stages_of_digital_success #fon_star1 {
		opacity: 0;
		-webkit-animation: showStar 1s ease-in alternate infinite;
		animation: showStar 1s ease-in alternate infinite;
	}

	#stages_of_digital_success #fon_star2 {
		opacity: 0;
		-webkit-animation: showStar 1s ease-in 0.5s alternate infinite;
		animation: showStar 1s ease-in 0.5s alternate infinite;
	}

	#stages_of_digital_success #blik_star1 {
		-webkit-animation: blikStars 1s ease-in 0.5s alternate infinite;
		animation: blikStars 1s ease-in 0.5s alternate infinite;
	}

	#stages_of_digital_success #blik_star2 {
		-webkit-animation: blikStars 1s ease-in 1s alternate infinite;
		animation: blikStars 1s ease-in 1s alternate infinite;
	}

	#stages_of_digital_success #blik_star3 {
		-webkit-animation: blikStars 1s ease-in 2s alternate infinite;
		animation: blikStars 1s ease-in 2s alternate infinite;
	}

	@-webkit-keyframes showPlanet {
		0% {
	    opacity: 0;
	    -webkit-transform: translateY(100px);
	    transform: translateY(100px);
	  }
		100% {
			 opacity: 1;
			 -webkit-transform: translateY(0px);
			 transform: translateY(0px);
		}
	}

	@-webkit-keyframes showHand {
		0% {
	    opacity: 0;
	    -webkit-transform: scale(0, 0.5);
	    transform: scale(0, 0.5);
	  }
		100% {
			 opacity: 1;
			 -webkit-transform: scale(1, 1);
			 transform: scale(1, 1);
		}
	}

	@-webkit-keyframes showStar {
		0% {
	    opacity: 0;
	  }
		100% {
			 opacity: 1;
		}
	}

	@-webkit-keyframes movecraft {
		0% {
			-webkit-transform: rotate(-110deg);
			-webkit-transform-origin: 310px 360px;
	    transform: rotate(-110deg);
			transform-origin: 310px 360px;
	  }
		100% {
			-webkit-transform: rotate(0deg);
			-webkit-transform-origin: 310px 360px;
			transform: rotate(0deg);
			transform-origin: 310px 360px;
		}
	}

	@-webkit-keyframes showSmoke {
		0% {
	    stroke-dashoffset: 420px;
	  }
		100% {
			stroke-dashoffset: 0px;
		}
	}

	@-webkit-keyframes blikStars {
		0% {
	    opacity: 1;
	  }
		100% {
			 opacity: 0;
		}
	}



	@keyframes showPlanet {
		0% {
	    opacity: 0;
	    transform: translateY(100px);
	  }
		100% {
			 opacity: 1;
			 transform: translateY(0px);
		}
	}

	@keyframes showHand {
		0% {
	    opacity: 0;
	    transform: scale(0, 0.5);
	  }
		100% {
			 opacity: 1;
			 transform: scale(1, 1);
		}
	}

	@keyframes showStar {
		0% {
	    opacity: 0;
	  }
		100% {
			 opacity: 1;
		}
	}

	@keyframes movecraft {
		0% {
	    transform: rotate(-110deg);
			transform-origin: 310px 360px;
	  }
		100% {
			transform: rotate(0deg);
			transform-origin: 310px 360px;
		}
	}

	@keyframes showSmoke {
		0% {
	    stroke-dashoffset: 420px;
	  }
		100% {
			stroke-dashoffset: 0px;
		}
	}

	@keyframes blikStars {
		0% {
	    opacity: 1;
	  }
		100% {
			 opacity: 0;
		}
	}

</style>

</svg>
