<?xml version="1.0" encoding="utf-8"?>
<!-- Generator: Adobe Illustrator 19.0.0, SVG Export Plug-In . SVG Version: 6.00 Build 0)  -->
<svg version="1.1" id="vista_d2" xmlns="http://www.w3.org/2000/svg" xmlns:xlink="http://www.w3.org/1999/xlink" x="0px"
	 y="0px" viewBox="0 0 946.6 661.6" style="enable-background:new 0 0 946.6 661.6;" xml:space="preserve">
<style type="text/css">
	.st0{fill:#D7D9E2;}
	.st1{fill:#F9D45F;}
	.st2{fill:#FFFFFF;}
	.st3{fill:#77E084;}
	.st4{fill:#303F9F;}
	.st5{fill:#F9E4A7;}
	.st6{fill:none;stroke:#4248B7;stroke-miterlimit:10;}
	.st7{fill:#4E55B7;}
	.st8{fill:#F7D77C;}
	.st9{fill:none;stroke:#4248B7;stroke-width:2;stroke-miterlimit:10;}
	.st10{fill:#4248B7;}
	.st11{fill:none;stroke:#272DAD;stroke-width:1.5708;stroke-linecap:round;stroke-miterlimit:10;}
	.st12{fill:none;stroke:#272DAD;stroke-width:1.2528;stroke-linecap:round;stroke-miterlimit:10;}
	.st13{fill:#8188C6;}
	.st14{fill:none;stroke:#303F9F;stroke-width:2.5;stroke-miterlimit:10;}
	.st15{fill:#E55C65;}
	.st16{fill:none;stroke:#303F9F;stroke-width:3;stroke-miterlimit:10;}
	.st17{fill:#88C9EA;}
	.st18{fill:none;stroke:#4248B7;stroke-width:2.5;stroke-miterlimit:10;}
	.st19{fill:none;stroke:#303F9F;stroke-width:1.5;stroke-miterlimit:10;}
	.st20{fill:none;stroke:#303F9F;stroke-width:2;stroke-miterlimit:10;}
	.st21{fill:none;stroke:#303F9F;stroke-width:10;stroke-miterlimit:10;}
</style>
<g id="bg">
	<path class="st0" d="M341.6,84.2C288.2,69.7,215.6,42.7,167,85c-47.3,41.1-1.9,90.3-26.8,127.6c-8.6,12.8-55.8,18.6-70.8,31.4
		c-22,18.9-39,48.4-31,78.5c14.1,53,97.7,47.5,104.6,102.3c6,47.5-77.8,79.9-83,134.6c-5.9,61.9,55.6,98.6,112.8,82.7
		c28.1-7.8,41.4-33,69.5-39.8c30.3-7.3,61.5,11.6,91.5,11.6c56.4,0.1,91.3-48.1,149.7-50.7c114.2-5.2,274.9,131,381.2,54.4
		c48.9-35.2,56-103.5,19.5-150.2c-32.1-41.1-104.4-58.6-99.4-122.2c2.3-28.6,33.8-50.9,26.5-81.3c-6.9-28.9-35.8-34.2-57.8-46.5
		c-62.4-34.7-32.9-84.4-69-133.8c-40.5-55.4-95.9-15.7-142.7,2.5C478.5,110.8,405.6,101.6,341.6,84.2z"/>
	<path class="st1" d="M130,45.1h9.2l1-3.6h-11.5c-0.1-0.4-0.1-0.8-0.1-1.3c0-0.4,0-0.9,0.1-1.3h12l1-3.6h-11.8
		c1.7-2.8,4.7-4.6,8.2-4.6c2.4,0,4.7,0.9,6.4,2.5l1.1-3.8c-2.2-1.5-4.8-2.3-7.5-2.3c-5.5,0-10.2,3.4-12.2,8.2h-4.8l-1,3.6h5
		c0,0.4-0.1,0.9-0.1,1.3c0,0.4,0,0.9,0.1,1.3h-3.9l-1,3.6h5.8c1.9,4.8,6.7,8.2,12.2,8.2c2.5,0,4.9-0.7,6.9-2v-4.6
		c-1.8,1.9-4.3,3-6.9,3C134.7,49.7,131.7,47.8,130,45.1z"/>
	<path id="fgf" class="st2" d="M757.9,388.2h9.2l1-3.6h-11.5c-0.1-0.4-0.1-0.8-0.1-1.3c0-0.4,0-0.9,0.1-1.3h12l1-3.6h-11.8
		c1.7-2.8,4.7-4.6,8.2-4.6c2.4,0,4.7,0.9,6.4,2.5l1.1-3.8c-2.2-1.5-4.8-2.3-7.5-2.3c-5.5,0-10.2,3.4-12.2,8.2H749l-1,3.6h5
		c0,0.4-0.1,0.9-0.1,1.3c0,0.4,0,0.9,0.1,1.3h-3.9l-1,3.6h5.8c1.9,4.8,6.7,8.2,12.2,8.2c2.5,0,4.9-0.7,6.9-2v-4.6
		c-1.8,1.9-4.3,3-6.9,3C762.6,392.8,759.6,390.9,757.9,388.2z"/>
	<path class="st3" d="M20.3,471.8h9.1l1-3.6H19c-0.1-0.4-0.1-0.8-0.1-1.3c0-0.4,0-0.9,0.1-1.3h12l1-3.6H20.3
		c1.7-2.8,4.7-4.6,8.2-4.6c2.4,0,4.7,0.9,6.4,2.5l1.1-3.8c-2.2-1.5-4.8-2.3-7.5-2.3c-5.5,0-10.2,3.4-12.2,8.2h-4.9l-1,3.6h5
		c0,0.4-0.1,0.9-0.1,1.3s0,0.9,0.1,1.3h-4l-1,3.6h5.8c1.9,4.8,6.7,8.2,12.2,8.2c2.5,0,4.9-0.7,6.9-2v-4.6c-1.8,1.9-4.3,3-6.9,3
		C25,476.4,21.9,474.6,20.3,471.8z"/>
	<g id="blik_stars">
		<path id="star4" class="st4" d="M69.5,280.5l-4.7,1.4l4.7,1.4c1.9,0.6,3.4,2.1,3.9,3.9l1.4,4.7l1.4-4.7c0.6-1.9,2.1-3.4,3.9-3.9
			l4.7-1.4l-4.7-1.4c-1.9-0.6-3.4-2.1-3.9-3.9l-1.4-4.7l-1.4,4.7C72.9,278.5,71.4,280,69.5,280.5z"/>
		<path id="star3" class="st4" d="M29.3,406.3l-3.3,1l3.3,1c1.3,0.4,2.4,1.4,2.8,2.8l1,3.3l1-3.3c0.4-1.3,1.4-2.4,2.8-2.8l3.3-1
			l-3.3-1c-1.3-0.4-2.4-1.4-2.8-2.8l-1-3.3l-1,3.3C31.6,404.9,30.6,405.9,29.3,406.3z"/>
		<path id="star2" class="st1" d="M653.1,25.6l-4.7,1.4l4.7,1.4c1.9,0.6,3.4,2.1,3.9,3.9l1.4,4.7l1.4-4.7
			c0.6-1.9,2.1-3.4,3.9-3.9l4.7-1.4l-4.7-1.4c-1.9-0.6-3.4-2.1-3.9-3.9l-1.3-4.7l-1.4,4.7C656.5,23.6,655,25.1,653.1,25.6z"/>
		<path id="star1" class="st4" d="M818.6,203.8l-3.3,1l3.3,1c1.3,0.4,2.4,1.4,2.8,2.8l1,3.3l1-3.3c0.4-1.3,1.4-2.4,2.8-2.8l3.3-1
			l-3.3-1c-1.3-0.4-2.4-1.4-2.8-2.8l-1-3.3l-1,3.3C820.9,202.4,819.9,203.4,818.6,203.8z"/>
	</g>
</g>
<g id="huts">
	<g>
		<g>
			<path class="st5" d="M234.4,213.3v34.3c0,1.9,1.5,3.3,3.3,3.3h21.5v-16.8c0-3.8,3.1-6.9,6.9-6.9h6.4c3.8,0,6.9,3.1,6.9,6.9v16.8
				h21c1.9,0,3.3-1.5,3.3-3.3v-34.3H234.4z"/>
			<path class="st6" d="M236,218.9l0.4,29.5c0,0-0.3,4.1,4.4,4.2c4.7,0.1,20.4-0.4,20.4-0.4v-18c0,0,0.6-5.2,6.1-5.8
				c5.5-0.6,9.3,0.1,9.3,0.1s4.4,2,4.7,5.8c0.3,3.8,0,18.3,0,18.3l21.1-0.3c0,0,3.6-0.1,3.7-3.5s-0.3-30-0.3-30"/>
			<path class="st4" d="M228.9,220c0,0-2.3-3.3,2.6-7.9c4.8-4.6,20.6-15.7,27.6-19.3c7-3.6,7-10.3,7-10.9s0-2.5,2.5-3.2
				c2.4-0.7,5.7-0.4,7.4,0.1c1.7,0.5,2.1,2.3,2,3.2c-0.1,0.8,0.1,5.7,4.8,9.3s17.9,9.6,30.6,21.6c0,0,3.3,3.2,2.1,6.4
				c0,0-3.4-1-17.6,3.3c0,0-5.9,1.9-14.7-0.5c-8.8-2.4-25.5,0.4-25.5,0.4s-7.6,3.1-17-0.7C240.8,221.9,238.8,220.3,228.9,220z"/>
			<g>
				<g>
					<path class="st2" d="M263.2,189.3c1-0.4,2.1-0.4,3.1-0.3c0.5,0.1,1.1,0.2,1.6,0.4c0.5,0.2,1,0.4,1.5,0.7l0.1,0.1
						c-0.1-0.1-0.1-0.1-0.1-0.1c0,0,0,0,0,0s0,0,0,0l0.1,0l0.2,0c0.1,0,0.2,0,0.4,0c0.3,0,0.5,0,0.8,0c0.6,0,1.1,0,1.7,0
						c1.1,0,2.3-0.2,3.4-0.2l-0.7,0.2c0.3-0.2,0.2-0.2,0.3-0.2l0.2-0.1c0.1,0,0.2-0.1,0.3-0.1c0.2,0,0.3-0.1,0.5-0.1
						c0.3,0,0.6-0.1,0.8-0.1c0.5,0,1.1,0,1.6,0.1c1,0.1,2,0.3,3,0.7l0,0.2c-1,0.3-2,0.5-3,0.7l-1.4,0.3l-0.7,0.1l-0.3,0.1l-0.1,0
						c0,0,0,0,0,0c0,0,0,0,0.2-0.1l-0.7,0.2c-0.6,0-1.2,0-1.7-0.1l-1.7-0.2c-0.6-0.1-1.2-0.1-1.8-0.2c-0.3,0-0.6-0.1-0.9-0.2
						c-0.2,0-0.3-0.1-0.5-0.1c-0.1,0-0.2,0-0.3-0.1l-0.2-0.1l-0.1-0.1l-0.1,0c0,0,0,0-0.2-0.1l0.1,0.1c-0.4-0.3-0.8-0.6-1.2-0.8
						c-0.4-0.2-0.9-0.4-1.3-0.6c-0.9-0.3-1.9-0.4-2.9-0.2L263.2,189.3z"/>
				</g>
				<g>
					<path class="st2" d="M253,196.3c1.4,0,2.8,0,4.2,0.2c0.7,0.1,1.4,0.2,2.1,0.5l0.5,0.2l0.5,0.2l0.5,0.2l0.4,0.1
						c1.3,0.2,2.6,0.1,4-0.2c0.7-0.1,1.3-0.3,2-0.4l1-0.3c0.1,0,0.3-0.1,0.5-0.1c0.2,0,0.4-0.1,0.5-0.1c1.4-0.3,2.9-0.3,4.3-0.3
						c0.7,0,1.4,0.1,2.1,0.2c0.7,0.1,1.4,0.3,2.1,0.4c0.7,0.2,1.3,0.3,2,0.4c0.7,0.1,1.3,0.3,2,0.4l2,0.4c0.7,0.1,1.3,0.2,2,0.3
						l0.1,0c0.7,0.1,1.4,0.2,2.1,0.3c0.7,0.1,1.4,0.1,2.1,0.2c0.4,0,0.7,0,1.1,0c0.4,0,0.7,0,1.1-0.1c0.4,0,0.7-0.1,1-0.2l0.5-0.2
						l0.5-0.2l0.1,0.1l-0.4,0.4c-0.2,0.1-0.3,0.2-0.5,0.3c-0.3,0.2-0.7,0.4-1.1,0.5c-0.7,0.3-1.5,0.4-2.2,0.5
						c-0.8,0.1-1.5,0.2-2.3,0.2c-0.8,0-1.5,0-2.3-0.1l0.1,0c-0.7,0-1.4-0.1-2.1-0.2c-0.7-0.1-1.4-0.2-2.1-0.3
						c-0.7-0.1-1.4-0.3-2.1-0.5c-0.7-0.2-1.4-0.4-2-0.6c-0.7-0.2-1.3-0.4-1.9-0.5c-0.6-0.1-1.3-0.3-2-0.3c-1.3-0.1-2.7-0.2-4,0
						l-0.5,0.1c-0.1,0-0.3,0.1-0.5,0.1l-1,0.2c-0.7,0.1-1.4,0.2-2.1,0.3c-1.4,0.1-2.8,0.2-4.3-0.1l-0.6-0.2l-0.5-0.2
						c-0.3-0.2-0.6-0.3-0.9-0.5c-0.6-0.3-1.3-0.4-1.9-0.6c-1.3-0.3-2.7-0.4-4.1-0.5L253,196.3z"/>
				</g>
				<g>
					<path class="st2" d="M238.9,206c1.4,0.2,2.7,0.5,4.1,0.7c0.7,0.1,1.4,0.3,2,0.5c0.6,0.2,1.3,0.3,2,0.4c1.3,0.1,2.7,0,4-0.3
						c1.3-0.4,2.6-1,4-1.2c2.8-0.5,5.7-0.1,8.5,0.6c1.4,0.4,2.7,0.8,4,1.1c1.3,0.3,2.7,0.6,4,0.7c0.7,0.1,1.3,0.1,1.9,0.1
						c0.6-0.1,1.3-0.2,1.9-0.4c1.3-0.3,2.6-0.7,3.9-1.2c0.6-0.2,1.3-0.5,1.9-0.8l1-0.4l1.2-0.3c1.5-0.3,2.9-0.3,4.4-0.2
						c1.4,0.1,2.8,0.3,4.2,0.5c0.7,0.1,1.4,0.3,2.1,0.5c0.7,0.2,1.4,0.4,2,0.5c1.3,0.3,2.7,0.6,4,0.9c1.3,0.2,2.7,0.4,4,0.3l0.1,0
						c0.1,0,0.3,0,0.4,0c0.1,0,0.3,0,0.4,0c0.3,0,0.6-0.1,0.9-0.1c0.6-0.1,1.2-0.2,1.7-0.4l0.1,0.2c-0.5,0.3-1.1,0.5-1.7,0.7
						c-0.3,0.1-0.6,0.2-0.9,0.3c-0.2,0-0.3,0.1-0.5,0.1c-0.2,0-0.3,0.1-0.5,0.1l0.1,0c-1.4,0.3-2.9,0.2-4.3,0.2
						c-1.4-0.1-2.8-0.3-4.2-0.5l-2-0.4c-0.7-0.1-1.3-0.2-2-0.3c-1.3-0.2-2.7-0.3-4-0.4c-1.3,0-2.7,0-3.9,0.2l-0.9,0.2l-0.9,0.3
						c-0.7,0.2-1.3,0.5-2,0.7c-1.4,0.4-2.7,0.8-4.1,1.1c-0.7,0.1-1.4,0.2-2.2,0.3c-0.8,0-1.5,0-2.2-0.1c-1.4-0.2-2.8-0.5-4.2-0.9
						c-1.4-0.4-2.7-0.8-4-1.2c-2.6-0.8-5.3-1.3-8-0.9c-0.7,0.1-1.3,0.2-2,0.4c-0.6,0.2-1.3,0.4-2,0.6c-1.4,0.3-2.9,0.4-4.3,0.2
						c-0.7-0.1-1.4-0.3-2.1-0.5c-0.6-0.3-1.3-0.4-2-0.6c-1.3-0.3-2.7-0.6-4.1-0.9L238.9,206z"/>
				</g>
			</g>
			<path class="st7" d="M274.7,228.6h-6.4c-3.8,0-6.9,3.1-6.9,7v17h20.3v-16.9C281.6,231.8,278.5,228.6,274.7,228.6z"/>
		</g>
		<g>
			<path class="st5" d="M140.3,213v34.3c0,1.9,1.5,3.3,3.3,3.3h21.5v-16.8c0-3.8,3.1-6.9,6.9-6.9h6.4c3.8,0,6.9,3.1,6.9,6.9v16.8h21
				c1.9,0,3.3-1.5,3.3-3.3V213H140.3z"/>
			<path class="st6" d="M141.9,218.6l0.4,29.5c0,0-0.3,4.1,4.4,4.2c4.7,0.1,20.4-0.4,20.4-0.4v-18c0,0,0.6-5.2,6.1-5.8
				c5.5-0.6,9.3,0.1,9.3,0.1s4.4,2,4.7,5.8s0,18.3,0,18.3l21.1-0.3c0,0,3.6-0.1,3.7-3.5s-0.3-30-0.3-30"/>
			<path class="st4" d="M134.7,219.7c0,0-2.3-3.3,2.6-7.9c4.8-4.6,20.6-15.7,27.6-19.3c7-3.6,7-10.3,7-10.9s0-2.5,2.5-3.2
				c2.4-0.7,5.7-0.4,7.4,0.1c1.7,0.5,2.1,2.3,2,3.2c-0.1,0.8,0.1,5.7,4.8,9.3s17.9,9.6,30.6,21.6c0,0,3.3,3.2,2.1,6.4
				c0,0-3.4-1-17.6,3.3c0,0-5.9,1.9-14.7-0.5c-8.8-2.4-25.5,0.4-25.5,0.4s-7.6,3.1-17-0.7C146.7,221.6,144.7,220.1,134.7,219.7z"/>
			<g>
				<g>
					<path class="st2" d="M169.1,189c1-0.4,2.1-0.4,3.1-0.3c0.5,0.1,1.1,0.2,1.6,0.4c0.5,0.2,1,0.4,1.5,0.7l0.1,0.1
						c-0.1-0.1-0.1-0.1-0.1-0.1c0,0,0,0,0,0s0,0,0,0l0.1,0l0.2,0c0.1,0,0.2,0,0.4,0c0.3,0,0.5,0,0.8,0c0.6,0,1.1,0,1.7,0
						c1.1,0,2.3-0.2,3.4-0.2l-0.7,0.2c0.3-0.2,0.2-0.2,0.3-0.2l0.2-0.1c0.1,0,0.2-0.1,0.3-0.1c0.2,0,0.3-0.1,0.5-0.1
						c0.3,0,0.6-0.1,0.8-0.1c0.5,0,1.1,0,1.6,0.1c1,0.1,2,0.3,3,0.7l0,0.2c-1,0.3-2,0.5-3,0.7l-1.4,0.3l-0.7,0.1l-0.3,0.1l-0.1,0
						c0,0,0,0,0,0c0,0,0,0,0.2-0.1l-0.7,0.2c-0.6,0-1.2,0-1.7-0.1l-1.7-0.2c-0.6-0.1-1.2-0.1-1.8-0.2c-0.3,0-0.6-0.1-0.9-0.2
						c-0.2,0-0.3-0.1-0.5-0.1c-0.1,0-0.2,0-0.3-0.1l-0.2-0.1l-0.1-0.1l-0.1,0c0,0,0,0-0.2-0.1l0.1,0.1c-0.4-0.3-0.8-0.6-1.2-0.8
						c-0.4-0.2-0.9-0.4-1.3-0.6c-0.9-0.3-1.9-0.4-2.9-0.2L169.1,189z"/>
				</g>
				<g>
					<path class="st2" d="M158.9,196c1.4,0,2.8,0,4.2,0.2c0.7,0.1,1.4,0.2,2.1,0.5l0.5,0.2l0.5,0.2l0.5,0.2l0.4,0.1
						c1.3,0.2,2.6,0.1,4-0.2c0.7-0.1,1.3-0.3,2-0.4l1-0.3c0.1,0,0.3-0.1,0.5-0.1c0.2,0,0.4-0.1,0.5-0.1c1.4-0.3,2.9-0.3,4.3-0.3
						c0.7,0,1.4,0.1,2.1,0.2c0.7,0.1,1.4,0.3,2.1,0.4c0.7,0.2,1.3,0.3,2,0.4c0.7,0.1,1.3,0.3,2,0.4l2,0.4c0.7,0.1,1.3,0.2,2,0.3
						l0.1,0c0.7,0.1,1.4,0.2,2.1,0.3c0.7,0.1,1.4,0.1,2.1,0.2c0.4,0,0.7,0,1.1,0c0.4,0,0.7,0,1.1-0.1c0.4,0,0.7-0.1,1-0.2l0.5-0.2
						l0.5-0.2l0.1,0.1l-0.4,0.4c-0.2,0.1-0.3,0.2-0.5,0.3c-0.3,0.2-0.7,0.4-1.1,0.5c-0.7,0.3-1.5,0.4-2.2,0.5
						c-0.8,0.1-1.5,0.2-2.3,0.2c-0.8,0-1.5,0-2.3-0.1l0.1,0c-0.7,0-1.4-0.1-2.1-0.2c-0.7-0.1-1.4-0.2-2.1-0.3
						c-0.7-0.1-1.4-0.3-2.1-0.5c-0.7-0.2-1.4-0.4-2-0.6c-0.7-0.2-1.3-0.4-1.9-0.5c-0.6-0.1-1.3-0.3-2-0.3c-1.3-0.1-2.7-0.2-4,0
						l-0.5,0.1c-0.1,0-0.3,0.1-0.5,0.1l-1,0.2c-0.7,0.1-1.4,0.2-2.1,0.3c-1.4,0.1-2.8,0.2-4.3-0.1l-0.6-0.2l-0.5-0.2
						c-0.3-0.2-0.6-0.3-0.9-0.5c-0.6-0.3-1.3-0.4-1.9-0.6c-1.3-0.3-2.7-0.4-4.1-0.5L158.9,196z"/>
				</g>
				<g>
					<path class="st2" d="M144.7,205.8c1.4,0.2,2.7,0.5,4.1,0.7c0.7,0.1,1.4,0.3,2,0.5c0.6,0.2,1.3,0.3,2,0.4c1.3,0.1,2.7,0,4-0.3
						c1.3-0.4,2.6-1,4-1.2c2.8-0.5,5.7-0.1,8.5,0.6c1.4,0.4,2.7,0.8,4,1.1c1.3,0.3,2.7,0.6,4,0.7c0.7,0.1,1.3,0.1,1.9,0.1
						c0.6-0.1,1.3-0.2,1.9-0.4c1.3-0.3,2.6-0.7,3.9-1.2c0.6-0.2,1.3-0.5,1.9-0.8l1-0.4l1.2-0.3c1.5-0.3,2.9-0.3,4.4-0.2
						c1.4,0.1,2.8,0.3,4.2,0.5c0.7,0.1,1.4,0.3,2.1,0.5c0.7,0.2,1.4,0.4,2,0.5c1.3,0.3,2.7,0.6,4,0.9c1.3,0.2,2.7,0.4,4,0.3l0.1,0
						c0.1,0,0.3,0,0.4,0c0.1,0,0.3,0,0.4,0c0.3,0,0.6-0.1,0.9-0.1c0.6-0.1,1.2-0.2,1.7-0.4l0.1,0.2c-0.5,0.3-1.1,0.5-1.7,0.7
						c-0.3,0.1-0.6,0.2-0.9,0.3c-0.2,0-0.3,0.1-0.5,0.1c-0.2,0-0.3,0.1-0.5,0.1l0.1,0c-1.4,0.3-2.9,0.2-4.3,0.2
						c-1.4-0.1-2.8-0.3-4.2-0.5l-2-0.4c-0.7-0.1-1.3-0.2-2-0.3c-1.3-0.2-2.7-0.3-4-0.4c-1.3,0-2.7,0-3.9,0.2l-0.9,0.2l-0.9,0.3
						c-0.7,0.2-1.3,0.5-2,0.7c-1.4,0.4-2.7,0.8-4.1,1.1c-0.7,0.1-1.4,0.2-2.2,0.3c-0.8,0-1.5,0-2.2-0.1c-1.4-0.2-2.8-0.5-4.2-0.9
						c-1.4-0.4-2.7-0.8-4-1.2c-2.6-0.8-5.3-1.3-8-0.9c-0.7,0.1-1.3,0.2-2,0.4c-0.6,0.2-1.3,0.4-2,0.6c-1.4,0.3-2.9,0.4-4.3,0.2
						c-0.7-0.1-1.4-0.3-2.1-0.5c-0.6-0.3-1.3-0.4-2-0.6c-1.3-0.3-2.7-0.6-4.1-0.9L144.7,205.8z"/>
				</g>
			</g>
		</g>
		<g>
			<path class="st8" d="M165,225.4v53.4c0,2.9,2.3,5.2,5.2,5.2h33.5v-26.2c0-6,4.8-10.8,10.8-10.8h10c6,0,10.8,4.8,10.8,10.8V284
				h32.8c2.9,0,5.2-2.3,5.2-5.2v-53.4H165z"/>
			<path class="st9" d="M167.5,234.1L168,280c0,0-0.5,6.4,6.8,6.6c7.3,0.2,31.8-0.6,31.8-0.6v-28c0,0,1-8.1,9.6-9
				c8.6-0.9,14.5,0.1,14.5,0.1s6.9,3.1,7.4,9s0,28.5,0,28.5l32.9-0.4c0,0,5.6-0.2,5.8-5.4s-0.5-46.7-0.5-46.7"/>
			<path class="st4" d="M156.4,235.8c0,0-3.5-5.2,4-12.3c7.5-7.1,32.1-24.4,43.1-30.1c11-5.7,10.8-16,11-17.1
				c0.1-1.1,0.1-3.9,3.9-4.9c3.8-1,9-0.6,11.6,0.2c2.6,0.8,3.3,3.7,3.2,5c-0.1,1.3,0.2,8.8,7.5,14.4c7.3,5.6,27.9,14.9,47.7,33.7
				c0,0,5.2,5,3.3,10c0,0-5.2-1.6-27.5,5.2c0,0-9.2,3-22.9-0.8c-13.7-3.8-39.7,0.7-39.7,0.7s-11.9,4.8-26.5-1
				C174.9,238.8,171.8,236.4,156.4,235.8z"/>
			<g>
				<g>
					<path class="st2" d="M209.9,188c1.5-0.5,3.2-0.6,4.8-0.3c0.8,0.1,1.6,0.3,2.4,0.6c0.4,0.1,0.8,0.3,1.1,0.5
						c0.4,0.2,0.7,0.4,1.1,0.6l0.1,0.1c-0.1-0.1-0.1-0.1-0.1-0.1c0,0,0,0,0,0l0,0l0.1,0c0.1,0,0.2,0,0.3,0.1c0.2,0,0.4,0.1,0.6,0.1
						c0.4,0,0.9,0.1,1.3,0.1c0.9,0,1.8,0.1,2.7,0c1.8,0,3.6-0.2,5.3-0.2l-0.7,0.2c0.3-0.2,0.3-0.2,0.4-0.2c0.1,0,0.1-0.1,0.2-0.1
						c0.1,0,0.2-0.1,0.4-0.1c0.2-0.1,0.4-0.1,0.7-0.1c0.4-0.1,0.8-0.1,1.2-0.1c0.8,0,1.6,0,2.4,0c0.8,0.1,1.6,0.1,2.4,0.3
						c0.8,0.1,1.6,0.3,2.3,0.5l0,0.2c-1.6,0.3-3.1,0.5-4.7,0.7c-0.8,0.1-1.5,0.2-2.3,0.3c-0.4,0.1-0.7,0.1-1.1,0.2l-0.5,0.1
						c-0.1,0-0.1,0-0.2,0.1l-0.1,0c0,0-0.1,0.1,0.1-0.1l-0.7,0.2c-0.9,0-1.8,0-2.7-0.1c-0.9-0.1-1.8-0.1-2.7-0.2
						c-0.9-0.1-1.8-0.1-2.7-0.3c-0.5-0.1-0.9-0.1-1.4-0.2c-0.2,0-0.5-0.1-0.7-0.2c-0.1,0-0.2-0.1-0.4-0.1c-0.1,0-0.1-0.1-0.2-0.1
						c0,0-0.1,0-0.1-0.1c0,0,0,0-0.1-0.1c0,0,0,0-0.2-0.2l0.1,0.1c-0.3-0.2-0.6-0.4-1-0.6c-0.3-0.2-0.7-0.4-1-0.5
						c-0.7-0.4-1.4-0.6-2.2-0.8c-0.7-0.2-1.5-0.3-2.3-0.4c-0.8,0-1.6,0-2.3,0.2L209.9,188z"/>
				</g>
				<g>
					<path class="st2" d="M193.9,198.9c2.2,0,4.3,0.1,6.5,0.4c1.1,0.2,2.1,0.4,3.2,0.8l0.8,0.3l0.7,0.4c0.2,0.1,0.5,0.2,0.7,0.3
						l0.7,0.2c2,0.4,4.2,0.1,6.3-0.2c1-0.2,2.1-0.4,3.1-0.6c0.5-0.1,1-0.2,1.5-0.4l0.4-0.1l0.4-0.1c0.3-0.1,0.5-0.1,0.8-0.2
						c2.2-0.4,4.4-0.5,6.6-0.3c1.1,0.1,2.2,0.2,3.3,0.4c1.1,0.2,2.2,0.4,3.2,0.7c1.1,0.3,2.1,0.5,3.1,0.7c1,0.2,2.1,0.4,3.1,0.6
						c1,0.2,2.1,0.4,3.1,0.5c1,0.2,2.1,0.3,3.1,0.4l0.1,0h0c1.1,0.2,2.2,0.3,3.3,0.4c1.1,0.1,2.3,0.2,3.4,0.2c0.6,0,1.1,0,1.7,0
						c0.3,0,0.6,0,0.8-0.1c0.3,0,0.6,0,0.8-0.1c0.3-0.1,0.6-0.1,0.8-0.1c0.3-0.1,0.5-0.1,0.8-0.2l0.8-0.3l0.7-0.4l0.1,0.1l-0.7,0.6
						l-0.8,0.5c-0.3,0.1-0.5,0.2-0.8,0.4c-0.3,0.1-0.6,0.2-0.8,0.3c-0.3,0.1-0.6,0.2-0.9,0.2c-0.3,0.1-0.6,0.1-0.9,0.2
						c-0.6,0.1-1.2,0.2-1.7,0.3c-0.6,0.1-1.2,0.1-1.8,0.1c-0.6,0-1.2,0-1.8,0c-1.2,0-2.3,0-3.5-0.2l0.1,0c-1.1-0.1-2.2-0.1-3.3-0.3
						c-1.1-0.1-2.2-0.3-3.2-0.5c-1.1-0.2-2.1-0.4-3.2-0.7c-1.1-0.3-2.1-0.6-3.2-0.9c-1.1-0.3-2-0.6-3.1-0.8c-1-0.2-2.1-0.4-3.1-0.5
						c-2.1-0.2-4.2-0.2-6.3,0.1c-0.3,0-0.5,0.1-0.8,0.1c-0.2,0-0.5,0.1-0.8,0.2c-0.5,0.1-1.1,0.2-1.6,0.3c-1.1,0.2-2.1,0.4-3.2,0.5
						c-2.2,0.2-4.4,0.4-6.6-0.1l-0.8-0.3l-0.7-0.4l-0.7-0.4l-0.7-0.3c-1-0.4-2-0.7-3-0.9c-2.1-0.4-4.2-0.6-6.4-0.7L193.9,198.9z"/>
				</g>
				<g>
					<path class="st2" d="M171.9,214.1c2.1,0.4,4.3,0.8,6.4,1.2c1.1,0.2,2.1,0.4,3.2,0.8c1,0.3,2.1,0.5,3.1,0.7
						c2.1,0.2,4.3,0.1,6.3-0.5c1-0.3,2-0.7,3.1-1c1-0.3,2.1-0.6,3.2-0.8c2.2-0.4,4.4-0.4,6.6-0.2c2.2,0.2,4.3,0.7,6.4,1.2
						c2.1,0.6,4.2,1.2,6.2,1.7c2.1,0.5,4.2,0.9,6.3,1.1c1,0.1,2.1,0.2,3.1,0.1c1-0.1,2.1-0.3,3.1-0.5c2.1-0.5,4.1-1.1,6.1-1.8
						c1-0.4,2-0.8,3-1.2l1.6-0.5l1.7-0.4c2.2-0.4,4.5-0.4,6.7-0.3c2.2,0.1,4.4,0.4,6.5,0.8c1.1,0.2,2.1,0.4,3.2,0.7
						c1.1,0.2,2.1,0.6,3.1,0.8c2.1,0.5,4.2,0.9,6.3,1.2c2.1,0.3,4.2,0.5,6.4,0.4l0.1,0l0,0c0.2,0,0.4,0,0.6,0c0.2,0,0.4,0,0.7-0.1
						c0.5-0.1,0.9-0.1,1.4-0.2c0.9-0.2,1.8-0.4,2.7-0.7l0.1,0.2c-0.8,0.4-1.7,0.8-2.6,1c-0.5,0.1-0.9,0.3-1.4,0.4
						c-0.2,0.1-0.5,0.1-0.7,0.1c-0.2,0-0.5,0.1-0.8,0.1l0.1,0c-2.2,0.3-4.4,0.3-6.6,0.1c-2.2-0.2-4.3-0.5-6.5-0.9
						c-1.1-0.2-2.1-0.5-3.2-0.7c-1-0.2-2.1-0.4-3.2-0.5c-2.1-0.3-4.2-0.5-6.3-0.6c-2.1-0.1-4.2,0-6.2,0.3l-1.4,0.3l-1.5,0.5
						c-1,0.4-2.1,0.8-3.1,1.1c-2.1,0.7-4.2,1.3-6.4,1.7c-1.1,0.2-2.2,0.4-3.3,0.5c-1.2,0-2.3-0.1-3.4-0.2c-2.2-0.3-4.3-0.8-6.4-1.3
						c-2.1-0.5-4.2-1.2-6.2-1.9c-4.1-1.2-8.4-2-12.6-1.3c-1,0.2-2.1,0.4-3.1,0.7c-1,0.3-2,0.7-3.1,0.9c-2.1,0.5-4.4,0.6-6.6,0.3
						c-1.1-0.2-2.2-0.4-3.2-0.8c-1-0.4-2-0.6-3.1-0.9c-2.1-0.5-4.2-0.9-6.3-1.4L171.9,214.1z"/>
				</g>
			</g>
			<path class="st4" d="M227.7,249.2h-10c-6,0-10.8,4.9-10.8,10.9v26.5h31.6v-26.4C238.6,254.1,233.7,249.2,227.7,249.2z"/>
		</g>
	</g>
	<g>
		<path class="st3" d="M89.4,200.2l2.7-2.1l1.9-2l0.5,1.7l0.9-1.5l3.5-1.2v0.6l2.8-1.1l0.5,1l3.2-0.6l1,0.8l3.9,1.9l-0.2,1l1.5-0.2
			l3.4,3.9c0,0,2.3,6.5,2,7.9c0,0-3.4-9.2-5.8-8.7c0,0,4.6,5.7,4.3,9.4c0,0,3.2,1.4,2.7,2.5c-0.5,1.1-1.1,2-1.1,2l-0.1,1.6l-1.5,2.3
			c0,0-0.8,1.9-1.1,2.1s-1.5,0.7-1.5,0.7l-1,2c0,0-4.9,3.3-9.7,2.6l-3.8,0.6l-1.2-1.7c0,0-4.5,0.5-5-0.6c-0.5-1.1-0.9-2.2-2.5-2.7
			c-1.7-0.5-2.7-4.1-2.7-4.1l-1.3-0.8l1-0.7c0,0-2.1-2.9-1-3.4l-0.4-2.7c0,0,0.5-3.4,1.2-4l0.2-1.9l1.4-2l1.1-1L89.4,200.2z"/>
		<g>
			<path class="st9" d="M101.6,228.8c0,0,0.2-12.7-0.6-14.4"/>
			<g>
				<path class="st10" d="M101.4,217.3c0,0,0.1-0.2,0.2-0.6c0.1-0.2,0.1-0.4,0.2-0.6c0-0.1,0.1-0.2,0.1-0.4c0-0.1,0.2-0.1,0.3-0.2
					c0.8-0.7,1.9-1.6,2.9-2.6c1-1,1.7-2.1,2-2.9c0.1-0.1,0-0.2,0.1-0.3c0.1-0.1,0.2-0.1,0.3-0.2c0.1-0.1,0.3-0.3,0.4-0.5
					c0.2-0.3,0.2-0.5,0.2-0.5s0,0,0.1,0.1c0.1,0.1,0.2,0.2,0.4,0.3c0.1,0.2,0.3,0.4,0.4,0.7c0.1,0.1,0.1,0.3,0.2,0.5
					c0,0.1,0,0.2,0,0.2c0,0.1,0,0.2-0.1,0.2c-0.4,1.3-1.4,2.6-2.4,3.7c-1,1.1-2.2,2.1-3.1,2.8c-0.1,0.1-0.2,0.2-0.3,0.2
					c-0.1,0-0.3,0-0.4,0c-0.3,0-0.5,0-0.7,0C101.6,217.3,101.4,217.3,101.4,217.3z"/>
			</g>
			<g>
				<path class="st10" d="M99.9,209c0,0-0.1-0.2-0.2-0.4c-0.1-0.1-0.1-0.3-0.2-0.4c0-0.1-0.1-0.2-0.1-0.3c0-0.1,0.1-0.1,0.1-0.2
					c0.3-0.5,0.7-1.1,1.1-1.8c0.5-0.6,1-1.2,1.4-1.7c0.1,0,0.1-0.2,0.2-0.1c0.1,0,0.2,0,0.3,0c0.2,0,0.4,0.1,0.5,0.1
					c0.3,0.1,0.4,0.2,0.4,0.2s0,0.2,0,0.5c0,0.1,0,0.3,0,0.5c0,0.1,0,0.2,0,0.3c0,0.1,0,0.1,0,0.1c0,0,0,0-0.1,0.1
					c-0.3,0.3-0.8,0.8-1.2,1.4c-0.4,0.6-0.8,1.2-1,1.6c-0.1,0,0,0.1-0.1,0.2c-0.1,0-0.2,0-0.3,0c-0.2,0-0.3,0-0.5,0.1
					C100.1,209,99.9,209,99.9,209z"/>
			</g>
			<g>
				<path class="st10" d="M100.4,213.6c0,0-0.2-0.1-0.5-0.2c-0.2-0.1-0.4-0.2-0.6-0.3c-0.1-0.1-0.2-0.1-0.3-0.2
					c-0.1-0.1-0.1-0.2-0.1-0.3c-0.4-0.8-0.9-1.9-1.4-3s-1-2.2-1.4-3c0-0.1-0.2-0.2-0.1-0.3c0-0.1,0.1-0.2,0.1-0.4
					c0-0.2,0.1-0.4,0.1-0.6c0.1-0.3,0.2-0.5,0.2-0.5s0.2,0.1,0.5,0.2c0.2,0.1,0.4,0.2,0.6,0.3c0.1,0.1,0.2,0.1,0.3,0.2
					c0.1,0.1,0.1,0.2,0.2,0.3c0.4,0.8,0.9,1.9,1.4,3s1,2.2,1.4,3c0,0.1,0.2,0.2,0.1,0.3c0,0.1-0.1,0.2-0.1,0.4
					c0,0.2-0.1,0.4-0.1,0.6C100.5,213.4,100.4,213.6,100.4,213.6z"/>
			</g>
			<g>
				<path class="st10" d="M101.7,222.4c0,0-0.2,0.1-0.6,0.1c-0.2,0-0.4,0-0.7,0c-0.1,0-0.3,0-0.4,0c-0.2,0-0.2-0.2-0.3-0.2
					c-0.9-0.7-2.1-1.6-3.1-2.8c-0.5-0.6-1-1.2-1.4-1.8c-0.2-0.3-0.4-0.6-0.6-0.9c-0.2-0.3-0.3-0.6-0.5-0.8c0-0.1-0.2-0.2-0.2-0.4
					c0-0.2,0-0.3,0-0.4c0-0.3,0.1-0.5,0.1-0.7c0.1-0.4,0.2-0.6,0.2-0.6s0.2,0.1,0.5,0.3c0.2,0.1,0.3,0.2,0.5,0.4
					c0.1,0.1,0.2,0.1,0.3,0.2c0.1,0.1,0.1,0.2,0.2,0.3c0.1,0.2,0.2,0.5,0.4,0.7c0.1,0.3,0.3,0.5,0.5,0.8c0.3,0.5,0.8,1.1,1.2,1.6
					c0.9,1,2,1.9,2.8,2.5c0.1,0.1,0.2,0.1,0.3,0.2c0.1,0.1,0.1,0.3,0.2,0.4c0.1,0.2,0.2,0.4,0.3,0.6
					C101.6,222.2,101.7,222.4,101.7,222.4z"/>
			</g>
		</g>
	</g>
	<g>
		<path class="st3" d="M323.2,209.8l2.7-2.1l1.9-2l0.5,1.7l0.9-1.5l3.5-1.2v0.6l2.8-1.1l0.5,1l3.2-0.6l1,0.8l3.9,1.9l-0.2,1l1.5-0.2
			l3.4,3.9c0,0,2.3,6.5,2,7.9c0,0-3.4-9.2-5.8-8.7c0,0,4.6,5.7,4.3,9.4c0,0,3.2,1.4,2.7,2.5c-0.5,1.1-1.1,2-1.1,2l-0.1,1.6l-1.5,2.3
			c0,0-0.8,1.9-1.1,2.1c-0.3,0.2-1.5,0.7-1.5,0.7l-1,2c0,0-4.9,3.3-9.7,2.6l-3.8,0.6l-1.2-1.7c0,0-4.5,0.5-5-0.6
			c-0.5-1.1-0.9-2.2-2.5-2.7c-1.7-0.5-2.7-4.1-2.7-4.1l-1.3-0.8l1-0.7c0,0-2.1-2.9-1-3.4l-0.4-2.7c0,0,0.5-3.4,1.2-4l0.2-1.9l1.4-2
			l1.1-1L323.2,209.8z"/>
		<g>
			<path class="st9" d="M335.4,238.3c0,0,0.2-12.7-0.6-14.4"/>
			<g>
				<path class="st10" d="M335.2,226.9c0,0,0.1-0.2,0.2-0.6c0.1-0.2,0.1-0.4,0.2-0.6c0-0.1,0.1-0.2,0.1-0.4c0-0.1,0.2-0.1,0.3-0.2
					c0.8-0.7,1.9-1.6,2.9-2.6c1-1,1.7-2.1,2-2.9c0.1-0.1,0-0.2,0.1-0.3c0.1-0.1,0.2-0.1,0.3-0.2c0.1-0.1,0.3-0.3,0.4-0.5
					c0.2-0.3,0.2-0.5,0.2-0.5s0,0,0.1,0.1c0.1,0.1,0.2,0.2,0.4,0.3c0.1,0.2,0.3,0.4,0.4,0.7c0.1,0.1,0.1,0.3,0.2,0.5
					c0,0.1,0,0.2,0,0.2c0,0.1,0,0.2-0.1,0.2c-0.4,1.3-1.4,2.6-2.4,3.7c-1,1.1-2.2,2.1-3.1,2.8c-0.1,0.1-0.2,0.2-0.3,0.2
					c-0.1,0-0.3,0-0.4,0c-0.3,0-0.5,0-0.7,0C335.4,226.9,335.2,226.9,335.2,226.9z"/>
			</g>
			<g>
				<path class="st10" d="M333.7,218.6c0,0-0.1-0.2-0.2-0.4c-0.1-0.1-0.1-0.3-0.2-0.4c0-0.1-0.1-0.2-0.1-0.3c0-0.1,0.1-0.1,0.1-0.2
					c0.3-0.5,0.7-1.1,1.1-1.8c0.5-0.6,1-1.2,1.4-1.7c0.1,0,0.1-0.2,0.2-0.1c0.1,0,0.2,0,0.3,0c0.2,0,0.4,0.1,0.5,0.1
					c0.3,0.1,0.4,0.2,0.4,0.2s0,0.2,0,0.5c0,0.1,0,0.3,0,0.5c0,0.1,0,0.2,0,0.3c0,0.1,0,0.1,0,0.1c0,0,0,0-0.1,0.1
					c-0.3,0.3-0.8,0.8-1.2,1.4c-0.4,0.6-0.8,1.2-1,1.6c-0.1,0,0,0.1-0.1,0.2c-0.1,0-0.2,0-0.3,0c-0.2,0-0.3,0-0.5,0.1
					C333.9,218.6,333.7,218.6,333.7,218.6z"/>
			</g>
			<g>
				<path class="st10" d="M334.2,223.2c0,0-0.2-0.1-0.5-0.2c-0.2-0.1-0.4-0.2-0.6-0.3c-0.1-0.1-0.2-0.1-0.3-0.2
					c-0.1-0.1-0.1-0.2-0.1-0.3c-0.4-0.8-0.9-1.9-1.4-3s-1-2.2-1.4-3c0-0.1-0.2-0.2-0.1-0.3c0-0.1,0.1-0.2,0.1-0.4
					c0-0.2,0.1-0.4,0.1-0.6c0.1-0.3,0.2-0.5,0.2-0.5s0.2,0.1,0.5,0.2c0.2,0.1,0.4,0.2,0.6,0.3c0.1,0.1,0.2,0.1,0.3,0.2
					c0.1,0.1,0.1,0.2,0.2,0.3c0.4,0.8,0.9,1.9,1.4,3s1,2.2,1.4,3c0,0.1,0.2,0.2,0.1,0.3c0,0.1-0.1,0.2-0.1,0.4
					c0,0.2-0.1,0.4-0.1,0.6C334.3,223,334.2,223.2,334.2,223.2z"/>
			</g>
			<g>
				<path class="st10" d="M335.5,232c0,0-0.2,0.1-0.6,0.1c-0.2,0-0.4,0-0.7,0c-0.1,0-0.3,0-0.4,0c-0.2,0-0.2-0.2-0.3-0.2
					c-0.9-0.7-2.1-1.6-3.1-2.8c-0.5-0.6-1-1.2-1.4-1.8c-0.2-0.3-0.4-0.6-0.6-0.9c-0.2-0.3-0.3-0.6-0.5-0.8c0-0.1-0.2-0.2-0.2-0.4
					c0-0.2,0-0.3,0-0.4c0-0.3,0.1-0.5,0.1-0.7c0.1-0.4,0.2-0.6,0.2-0.6s0.2,0.1,0.5,0.3c0.2,0.1,0.3,0.2,0.5,0.4
					c0.1,0.1,0.2,0.1,0.3,0.2c0.1,0.1,0.1,0.2,0.2,0.3c0.1,0.2,0.2,0.5,0.4,0.7c0.1,0.3,0.3,0.5,0.5,0.8c0.3,0.5,0.8,1.1,1.2,1.6
					c0.9,1,2,1.9,2.8,2.5c0.1,0.1,0.2,0.1,0.3,0.2c0.1,0.1,0.1,0.3,0.2,0.4c0.1,0.2,0.2,0.4,0.3,0.6
					C335.4,231.8,335.5,232,335.5,232z"/>
			</g>
		</g>
	</g>
</g>
<g id="line">
	<defs>
	<clipPath id="cut_line">
		<path id="itinerary" class="st4" d="M182.9,558.8c-0.9,0-1.6-0.7-1.6-1.6c0-2.7,0.1-5.4,0.4-8c0.1-0.9,0.9-1.6,1.8-1.5
			c0.9,0.1,1.6,0.9,1.5,1.8c-0.3,2.5-0.4,5.1-0.4,7.7C184.6,558.1,183.9,558.8,182.9,558.8z M186.4,535.9c-0.2,0-0.3,0-0.5-0.1
			c-0.9-0.3-1.4-1.2-1.1-2.1c1.6-5,3.6-9.8,6.1-14.4c0.4-0.8,1.4-1.1,2.2-0.7c0.8,0.4,1.1,1.4,0.7,2.2c-2.4,4.4-4.4,9-5.9,13.8
			C187.8,535.5,187.1,535.9,186.4,535.9z M201.1,509.2c-0.4,0-0.8-0.1-1.1-0.4c-0.7-0.6-0.8-1.6-0.2-2.3c3.4-4,7.2-7.7,11.3-10.9
			c0.7-0.6,1.8-0.4,2.3,0.3c0.6,0.7,0.4,1.8-0.3,2.3c-3.9,3.1-7.6,6.6-10.8,10.5C202,509,201.6,509.2,201.1,509.2z M225.1,490.2
			c-0.6,0-1.2-0.3-1.5-0.9c-0.4-0.8-0.1-1.8,0.7-2.2c4.7-2.4,9.6-4.3,14.6-5.7c0.9-0.2,1.8,0.3,2,1.2c0.2,0.9-0.3,1.8-1.2,2
			c-4.8,1.3-9.5,3.2-14,5.4C225.6,490.1,225.3,490.2,225.1,490.2z M254.5,482.1c-0.9,0-1.6-0.7-1.6-1.5c-0.1-0.9,0.6-1.7,1.5-1.8
			c1.8-0.1,3.6-0.2,5.4-0.2h10c0.9,0,1.6,0.7,1.6,1.6s-0.7,1.6-1.6,1.6h-10c-1.7,0-3.5,0.1-5.2,0.2
			C254.6,482.1,254.6,482.1,254.5,482.1z M546.8,481.9h-15.4c-0.9,0-1.6-0.7-1.6-1.6s0.7-1.6,1.6-1.6h15.4c0.9,0,1.6,0.7,1.6,1.6
			S547.7,481.9,546.8,481.9z M516,481.9h-15.4c-0.9,0-1.6-0.7-1.6-1.6s0.7-1.6,1.6-1.6H516c0.9,0,1.6,0.7,1.6,1.6
			C517.7,481.2,516.9,481.9,516,481.9z M485.3,481.9h-15.4c-0.9,0-1.6-0.7-1.6-1.6s0.7-1.6,1.6-1.6h15.4c0.9,0,1.6,0.7,1.6,1.6
			S486.2,481.9,485.3,481.9z M454.5,481.9h-15.4c-0.9,0-1.6-0.7-1.6-1.6s0.7-1.6,1.6-1.6h15.4c0.9,0,1.6,0.7,1.6,1.6
			C456.1,481.2,455.4,481.9,454.5,481.9z M423.7,481.9h-15.4c-0.9,0-1.6-0.7-1.6-1.6s0.7-1.6,1.6-1.6h15.4c0.9,0,1.6,0.7,1.6,1.6
			C425.4,481.2,424.6,481.9,423.7,481.9z M393,481.9h-15.4c-0.9,0-1.6-0.7-1.6-1.6s0.7-1.6,1.6-1.6H393c0.9,0,1.6,0.7,1.6,1.6
			S393.9,481.9,393,481.9z M362.2,481.9h-15.4c-0.9,0-1.6-0.7-1.6-1.6s0.7-1.6,1.6-1.6h15.4c0.9,0,1.6,0.7,1.6,1.6
			S363.1,481.9,362.2,481.9z M331.4,481.9H316c-0.9,0-1.6-0.7-1.6-1.6s0.7-1.6,1.6-1.6h15.4c0.9,0,1.6,0.7,1.6,1.6
			C333.1,481.2,332.3,481.9,331.4,481.9z M300.7,481.9h-15.4c-0.9,0-1.6-0.7-1.6-1.6s0.7-1.6,1.6-1.6h15.4c0.9,0,1.6,0.7,1.6,1.6
			S301.6,481.9,300.7,481.9z M562.2,481.9c-0.9,0-1.6-0.7-1.6-1.6s0.7-1.7,1.6-1.7c5-0.1,10.1-0.8,14.9-1.8c0.9-0.2,1.8,0.4,2,1.3
			s-0.4,1.8-1.3,2C572.7,481.1,567.5,481.7,562.2,481.9L562.2,481.9z M592,475.3c-0.6,0-1.2-0.4-1.5-1c-0.4-0.8,0-1.8,0.9-2.2
			c4.6-2,9-4.4,13.2-7.2c0.8-0.5,1.8-0.3,2.3,0.4c0.5,0.8,0.3,1.8-0.4,2.3c-4.3,2.9-8.9,5.5-13.7,7.5
			C592.5,475.2,592.2,475.3,592,475.3z M617.3,458.1c-0.4,0-0.8-0.2-1.2-0.5c-0.6-0.6-0.6-1.7,0-2.3c3.5-3.5,6.8-7.4,9.6-11.6
			c0.5-0.8,1.5-0.9,2.3-0.4s0.9,1.5,0.4,2.3c-2.9,4.3-6.3,8.4-10,12.1C618.2,457.9,617.7,458.1,617.3,458.1z M634.5,432.8
			c-0.2,0-0.4,0-0.7-0.1c-0.8-0.4-1.2-1.3-0.9-2.2c2-4.6,3.5-9.4,4.6-14.3c0.2-0.9,1.1-1.5,2-1.3c0.9,0.2,1.5,1.1,1.3,2
			c-1.1,5.1-2.7,10.1-4.8,14.9C635.7,432.4,635.1,432.8,634.5,432.8z M641.1,402.9L641.1,402.9c-1,0-1.7-0.8-1.6-1.7
			c0-0.8,0-1.5,0-2.3c0-4.3-0.3-8.5-1-12.7c-0.1-0.9,0.5-1.7,1.4-1.9c0.9-0.1,1.7,0.5,1.9,1.4c0.7,4.3,1,8.8,1,13.2
			c0,0.8,0,1.6,0,2.4C642.7,402.2,642,402.9,641.1,402.9z M636.2,372.8c-0.7,0-1.3-0.4-1.5-1.1c-1.7-4.7-3.9-9.3-6.5-13.6
			c-0.5-0.8-0.2-1.8,0.6-2.3c0.8-0.5,1.8-0.2,2.3,0.6c2.7,4.5,4.9,9.2,6.7,14.1c0.3,0.9-0.1,1.8-1,2.1
			C636.6,372.7,636.4,372.8,636.2,372.8z M620.6,346.5c-0.5,0-0.9-0.2-1.2-0.6c-3.3-3.7-7-7.2-11-10.2c-0.7-0.6-0.9-1.6-0.3-2.3
			c0.6-0.7,1.6-0.9,2.3-0.3c4.1,3.2,8,6.8,11.5,10.7c0.6,0.7,0.5,1.7-0.1,2.3C621.3,346.4,620.9,346.5,620.6,346.5z M596.3,327.9
			c-0.2,0-0.5-0.1-0.7-0.2c-4.5-2.3-9.2-4.1-14-5.4c-0.9-0.2-1.4-1.2-1.1-2c0.2-0.9,1.2-1.4,2-1.1c5,1.4,9.9,3.3,14.6,5.7
			c0.8,0.4,1.1,1.4,0.7,2.2C597.5,327.6,596.9,327.9,596.3,327.9z M566.9,319.6L566.9,319.6c-2.4-0.2-4.7-0.3-7-0.3h-8.3
			c-0.9,0-1.6-0.7-1.6-1.6s0.7-1.6,1.6-1.6h8.3c2.4,0,4.8,0.1,7.2,0.3c0.9,0.1,1.6,0.9,1.5,1.8C568.4,318.9,567.7,319.6,566.9,319.6z
			 M413.1,319.3L413.1,319.3c-5.3,0-10.6-0.8-15.6-2.2c-0.9-0.3-1.4-1.2-1.1-2c0.3-0.9,1.2-1.4,2-1.1c4.8,1.4,9.7,2.1,14.7,2.1
			c0.9,0,1.6,0.7,1.6,1.7C414.7,318.5,414,319.3,413.1,319.3z M536.1,319.3h-15.4c-0.9,0-1.6-0.7-1.6-1.6s0.7-1.6,1.6-1.6h15.4
			c0.9,0,1.6,0.7,1.6,1.6S537,319.3,536.1,319.3z M505.4,319.3H490c-0.9,0-1.6-0.7-1.6-1.6s0.7-1.6,1.6-1.6h15.4
			c0.9,0,1.6,0.7,1.6,1.6S506.3,319.3,505.4,319.3z M474.6,319.3h-15.4c-0.9,0-1.6-0.7-1.6-1.6s0.7-1.6,1.6-1.6h15.4
			c0.9,0,1.6,0.7,1.6,1.6S475.5,319.3,474.6,319.3z M443.8,319.3h-15.4c-0.9,0-1.6-0.7-1.6-1.6s0.7-1.6,1.6-1.6h15.4
			c0.9,0,1.6,0.7,1.6,1.6S444.7,319.3,443.8,319.3z M383.9,310.8c-0.3,0-0.6-0.1-0.9-0.3c-4.5-2.8-8.5-6.3-12-10.3
			c-0.6-0.7-0.5-1.7,0.1-2.3c0.7-0.6,1.7-0.5,2.3,0.1c3.3,3.7,7.1,7,11.3,9.7c0.8,0.5,1,1.5,0.5,2.3
			C385,310.5,384.5,310.8,383.9,310.8z M363.9,288c-0.6,0-1.2-0.3-1.5-0.9c-2.3-4.8-3.8-9.9-4.6-15.1c-0.1-0.9,0.5-1.7,1.4-1.9
			c0.9-0.1,1.7,0.5,1.9,1.4c0.8,4.9,2.2,9.7,4.3,14.2c0.4,0.8,0,1.8-0.8,2.2C364.4,287.9,364.1,288,363.9,288z M359.2,258
			c-0.1,0-0.1,0-0.2,0c-0.9-0.1-1.5-0.9-1.4-1.8c0.7-5.3,2.1-10.4,4.2-15.2c0.4-0.8,1.3-1.2,2.2-0.9c0.8,0.4,1.2,1.3,0.9,2.2
			c-2,4.6-3.3,9.4-3.9,14.3C360.7,257.4,360,258,359.2,258z M371.3,230.2c-0.4,0-0.7-0.1-1.1-0.4c-0.7-0.6-0.8-1.6-0.2-2.3
			c3.4-4.1,7.3-7.6,11.7-10.6c0.8-0.5,1.8-0.3,2.3,0.4c0.5,0.8,0.3,1.8-0.4,2.3c-4.1,2.8-7.8,6.2-11,10
			C372.2,230,371.7,230.2,371.3,230.2z M396.4,213.1c-0.7,0-1.3-0.4-1.6-1.1c-0.3-0.9,0.2-1.8,1.1-2.1c5-1.6,10.3-2.5,15.6-2.7
			c0.9-0.1,1.7,0.7,1.7,1.6s-0.7,1.7-1.6,1.7c-5,0.1-9.9,1-14.6,2.5C396.7,213.1,396.6,213.1,396.4,213.1z M473,210.5h-15.4
			c-0.9,0-1.6-0.7-1.6-1.6c0-0.9,0.7-1.6,1.6-1.6H473c0.9,0,1.6,0.7,1.6,1.6C474.6,209.8,473.9,210.5,473,210.5z M442.3,210.5h-15.4
			c-0.9,0-1.6-0.7-1.6-1.6c0-0.9,0.7-1.6,1.6-1.6h15.4c0.9,0,1.6,0.7,1.6,1.6C443.9,209.8,443.2,210.5,442.3,210.5z"/>
	</clipPath>
	</defs>
	<path id="clip_line" clip-path="url(#cut_line)" class="st21" d="M488.4,210.2h-89c0,0-37.7,6.5-39.7,56.5s57,51.2,57,51.2h156.7c0,0,78,21.5,65,91.2
		c-13.1,69.7-79.2,71.3-79.2,71.3l-304.9-1.5c0,0-66,5.5-71.5,80"/>
</g>
<g id="money2">
	<g>
		<path class="st1" d="M686.9,321.2c2.8,1,6.3,1.7,10.2,2v-84.7c-3.9-0.4-7.4-1.1-10.2-2V321.2z"/>
		<path class="st1" d="M685.4,235.8c-3.4-1.4-5.5-3.3-5.5-5.3v83.3v1.6c0,2,2.1,3.9,5.5,5.3V235.8z"/>
		<path class="st1" d="M703.4,238.7c-0.1,0-0.3,0-0.4,0c-0.9,0-1.8,0-2.7-0.1v84.8c0.9,0,1.8,0.1,2.7,0.1c0.1,0,0.3,0,0.4,0V238.7z"
			/>
		<path class="st1" d="M709.7,238.4v84.8c9.5-1,16.5-4.2,16.5-7.9v-1.6v-83.2C726.2,234.2,719.2,237.4,709.7,238.4z"/>
	</g>
	<ellipse class="st9" cx="699.9" cy="226.5" rx="22.8" ry="8.4"/>
	<g>
		<path class="st11" d="M723.1,236c0,4.6-10.4,8.2-23.2,8.2s-23.2-3.7-23.2-8.2"/>
		<path class="st11" d="M723.1,245.4c0,4.6-10.4,8.2-23.2,8.2s-23.2-3.6-23.2-8.2"/>
		<path class="st11" d="M723.1,254.8c0,4.6-10.4,8.2-23.2,8.2s-23.2-3.6-23.2-8.2"/>
		<path class="st11" d="M723.1,264.3c0,4.6-10.4,8.2-23.2,8.2s-23.2-3.7-23.2-8.2"/>
		<path class="st11" d="M723.1,273.7c0,4.6-10.4,8.2-23.2,8.2s-23.2-3.7-23.2-8.2"/>
		<path class="st11" d="M723.1,283.1c0,4.6-10.4,8.2-23.2,8.2s-23.2-3.7-23.2-8.2"/>
		<path class="st11" d="M723.1,292.5c0,4.6-10.4,8.2-23.2,8.2s-23.2-3.7-23.2-8.2"/>
		<path class="st11" d="M723.1,302c0,4.6-10.4,8.2-23.2,8.2s-23.2-3.7-23.2-8.2"/>
	</g>
	<g>
		<path class="st10" d="M723.4,312.3c-0.3,1-1,1.9-1.7,2.6c-0.8,0.8-1.6,1.4-2.6,1.9c-1.9,1.1-3.9,1.8-5.9,2.3
			c-2.1,0.5-4.2,0.9-6.3,1.1c-1.1,0.1-2.1,0.2-3.2,0.3c-1.1,0.1-2.1,0.1-3.2,0.1l-3.2,0l-3.2-0.1c-1.1-0.1-2.1-0.2-3.2-0.3
			c-1.1-0.2-2.1-0.3-3.2-0.6l-1.6-0.4l-1.6-0.5c-1-0.4-2.1-0.8-3-1.3c-1-0.5-1.9-1.1-2.9-1.8c-0.4-0.4-0.9-0.7-1.3-1.2
			c-0.4-0.5-0.8-0.8-1.1-1.5l-0.1-0.2l0-0.2l-0.5-84l0-0.6l0.5-0.3l0.7-0.4l0.8-0.5l0.5,0.7c0.5,0.7,1.2,1.3,2,1.9
			c0.8,0.6,1.6,1,2.5,1.4c0.9,0.4,1.8,0.7,2.7,1l1.4,0.4l1.4,0.3c1,0.2,2,0.4,2.9,0.5c1,0.2,2,0.2,3,0.3c1,0.1,2,0.1,3,0.2l3,0.1
			l3-0.1c1-0.1,2-0.1,3-0.2c1-0.1,2-0.2,3-0.3l1.5-0.2l1.5-0.3c0.5-0.1,1-0.2,1.4-0.3c0.5-0.1,1-0.2,1.4-0.4
			c0.5-0.1,0.9-0.3,1.4-0.5c0.5-0.2,0.9-0.3,1.3-0.6c0.9-0.4,1.7-0.9,2.5-1.4c0.7-0.5,1.4-1.2,1.8-1.9l0.5-0.8l0.8,0.5l0.4,0.2
			l0.5,0.3v0.6v41.3l0,5.2c0,1.7,0,3.4-0.1,5.2l-0.3,10.3l-0.3,10.3l-0.3,10.3l-0.3-10.3l-0.3-10.3l-0.3-10.3c0-1.7-0.1-3.4-0.1-5.2
			l0-5.2v-41.3l0.5,0.9l-0.4-0.2l1.3-0.4c-0.6,1-1.5,1.8-2.4,2.5c-0.9,0.7-1.8,1.2-2.8,1.6c-0.5,0.2-1,0.4-1.5,0.6
			c-0.5,0.2-1,0.4-1.5,0.5c-0.5,0.2-1,0.3-1.5,0.4c-0.5,0.1-1,0.3-1.5,0.4l-1.5,0.3l-1.5,0.2c-1,0.2-2.1,0.2-3.1,0.3
			c-1,0.1-2.1,0.1-3.1,0.2l-3.1,0.1l-3.1-0.1c-1-0.1-2.1-0.1-3.1-0.2c-1-0.1-2.1-0.2-3.1-0.3c-1-0.1-2.1-0.3-3.1-0.5l-1.5-0.4
			l-1.5-0.4c-1-0.3-2-0.7-3-1.1c-1-0.5-1.9-1-2.8-1.6c-0.9-0.6-1.7-1.4-2.4-2.3l1.3,0.3l-0.7,0.4l0.5-0.9l0.5,84l-0.1-0.4
			c0,0.1,0.2,0.3,0.3,0.5c0.1,0.2,0.3,0.4,0.5,0.5c0.3,0.3,0.7,0.6,1.1,1c0.8,0.6,1.6,1.1,2.5,1.6c0.9,0.5,1.8,0.8,2.8,1.2l1.5,0.5
			c0.5,0.1,1,0.2,1.5,0.4c1,0.3,2,0.4,3,0.6l3.1,0.5l3.1,0.3c1,0.1,2.1,0.1,3.2,0.2c1,0.1,2.1,0.1,3.1,0c1,0,2.1,0,3.1-0.1
			c2.1-0.1,4.2-0.3,6.2-0.7c2-0.4,4.1-1,5.9-1.9c0.9-0.5,1.8-1,2.6-1.7C722.4,314.1,723.1,313.3,723.4,312.3z"/>
	</g>
	<path class="st4" d="M706.2,228.4l-3.2-1.8c0.2,0,0.3,0,0.5,0c0.1,0,0.3,0,0.4,0c0.1,0,0.3,0,0.4,0c0.1,0,0.2,0,0.3,0
		c0.2,0,0.4,0,0.5,0.1c0.2,0,0.3,0.1,0.5,0.1s0.3,0.1,0.5,0.1c0.1,0.1,0.3,0.1,0.4,0.2c0.1,0.1,0.2,0.1,0.3,0.2
		c0.1,0.1,0.1,0.1,0.2,0.2c0,0.1,0.1,0.1,0.1,0.2s0,0.1-0.1,0.2l-0.1,0.1c0,0-0.1,0.1-0.2,0.1c-0.1,0-0.1,0.1-0.2,0.1
		C706.4,228.3,706.3,228.4,706.2,228.4 M697.3,225.4c-0.1,0-0.1,0-0.2,0s-0.1,0-0.2,0c-0.1,0-0.1,0-0.2,0c-0.1,0-0.1,0-0.2,0
		c-0.2,0-0.4,0-0.6,0s-0.4,0-0.5-0.1c-0.2,0-0.3-0.1-0.4-0.1c-0.1,0-0.3-0.1-0.4-0.2c-0.1-0.1-0.2-0.1-0.3-0.2
		c-0.1-0.1-0.1-0.1-0.2-0.2c0-0.1-0.1-0.1,0-0.2c0-0.1,0-0.1,0.1-0.2c0,0,0-0.1,0.1-0.1c0,0,0-0.1,0.1-0.1c0,0,0.1,0,0.1-0.1
		c0,0,0.1,0,0.1-0.1L697.3,225.4 M692.7,221l-2.3,0.6l1.8,1c-0.1,0.1-0.3,0.1-0.4,0.2c-0.1,0.1-0.3,0.1-0.4,0.2
		c-0.1,0.1-0.2,0.1-0.3,0.2s-0.2,0.1-0.3,0.2c-0.2,0.1-0.3,0.2-0.4,0.3c-0.1,0.1-0.2,0.2-0.3,0.3c-0.1,0.1-0.1,0.2-0.2,0.3
		c0,0.1,0,0.2,0,0.3c0,0.1,0,0.2,0.1,0.3c0.1,0.1,0.1,0.2,0.2,0.3c0.1,0.1,0.2,0.2,0.4,0.3c0.1,0.1,0.3,0.2,0.5,0.3
		c0.4,0.2,0.7,0.4,1.2,0.5c0.4,0.1,0.9,0.3,1.4,0.4c0.5,0.1,1.1,0.2,1.7,0.2c0.6,0,1.2,0.1,1.9,0c0.2,0,0.4,0,0.6,0s0.4,0,0.6,0
		c0.2,0,0.4,0,0.7,0c0.2,0,0.5,0,0.7-0.1l3.8,2.1c-0.4,0-0.7,0.1-1.1,0.1s-0.7,0-1-0.1c-0.3-0.1-0.6-0.1-1-0.2
		c-0.3-0.1-0.6-0.2-0.9-0.4l-3.5,0.9c0.2,0.1,0.5,0.2,0.7,0.3c0.2,0.1,0.5,0.2,0.8,0.3c0.3,0.1,0.5,0.2,0.8,0.2
		c0.3,0.1,0.6,0.1,0.9,0.2c0.3,0.1,0.6,0.1,0.9,0.1s0.7,0.1,1,0.1s0.7,0,1,0s0.7,0,1.1,0c0.2,0,0.4,0,0.7,0c0.2,0,0.4,0,0.6-0.1
		c0.2,0,0.4-0.1,0.6-0.1s0.4-0.1,0.6-0.1l1.6,0.9l2.3-0.6l-1.5-0.8c0.3-0.1,0.7-0.2,0.9-0.3c0.3-0.1,0.5-0.2,0.7-0.4
		c0.2-0.1,0.4-0.3,0.5-0.4c0.1-0.1,0.3-0.3,0.4-0.4c0.1-0.2,0.1-0.3,0.1-0.5c0-0.2-0.1-0.3-0.2-0.5c-0.1-0.2-0.3-0.3-0.5-0.5
		c-0.2-0.2-0.5-0.3-0.7-0.5c-0.3-0.1-0.6-0.3-0.9-0.4s-0.6-0.2-0.9-0.3c-0.3-0.1-0.7-0.2-1-0.2c-0.4-0.1-0.7-0.1-1.1-0.2
		c-0.4,0-0.8-0.1-1.2-0.1s-0.9,0-1.3,0c-0.5,0-0.9,0-1.5,0.1c-0.5,0-1,0.1-1.6,0.1l-3.5-1.9c0.1,0,0.3,0,0.4,0s0.2,0,0.4,0
		c0.1,0,0.2,0,0.4,0c0.1,0,0.2,0,0.4,0s0.4,0,0.6,0.1c0.2,0,0.4,0.1,0.6,0.1c0.2,0,0.4,0.1,0.5,0.2c0.2,0.1,0.3,0.1,0.5,0.2l3.4-0.9
		c-0.2-0.1-0.4-0.2-0.6-0.3c-0.2-0.1-0.5-0.2-0.7-0.3c-0.2-0.1-0.5-0.2-0.8-0.2c-0.3-0.1-0.5-0.1-0.8-0.2c-0.3-0.1-0.6-0.1-0.9-0.1
		s-0.6-0.1-0.9-0.1c-0.3,0-0.6,0-0.9,0s-0.6,0-0.9,0c-0.2,0-0.5,0-0.7,0c-0.2,0-0.5,0-0.7,0.1c-0.2,0-0.5,0.1-0.7,0.1
		s-0.5,0.1-0.7,0.1L692.7,221"/>
	<g>
		<path class="st1" d="M774.3,200.6c-1.1,0-2.1,0-3.1-0.1v150.8c1,0.1,2.1,0.1,3.1,0.1V200.6z"/>
		<path class="st1" d="M757.8,348.8c2.8,1,6.3,1.8,10.2,2.3V200.2c-4-0.4-7.5-1.2-10.2-2.3V348.8z"/>
		<path class="st1" d="M756.2,197.3c-3-1.4-4.7-3.1-4.7-5v150.8c0,1.9,1.8,3.6,4.7,5V197.3z"/>
		<path class="st1" d="M780.6,200.3v150.8c9.9-0.9,17.3-4.1,17.3-8V192.3C797.9,196.2,790.5,199.4,780.6,200.3z"/>
	</g>
	<g>
		<path class="st10" d="M794.8,188.4c0,0,0,0.1,0,0.3c0,0.2-0.1,0.5-0.2,0.9c-0.2,0.7-0.9,1.7-2,2.7c-1.1,1-2.6,2-4.5,2.8
			c-0.9,0.4-2,0.8-3,1.2c-1.1,0.4-2.3,0.5-3.5,0.7c-2.5,0.4-5.2,0.7-8,0.8c-2.9,0.1-5.9,0-9-0.4c-3.1-0.4-6.3-0.9-9.5-2
			c-1.6-0.6-3.1-1.2-4.6-2.2c-0.7-0.5-1.4-1.1-2-1.9c-0.6-0.8-1.1-1.7-1.1-2.9c0-0.2,0-0.4,0.1-0.7c0.1-0.3,0.1-0.6,0.2-0.8
			c0.2-0.5,0.5-0.9,0.8-1.3c0.6-0.8,1.3-1.4,2-1.9c1.5-1,3-1.7,4.6-2.2c3.2-1.1,6.4-1.7,9.5-2c6.2-0.7,12.1-0.4,17,0.4
			c1.2,0.2,2.4,0.4,3.5,0.8c1.1,0.4,2.1,0.8,3,1.2c1.9,0.9,3.4,1.9,4.5,2.8c1.1,1,1.8,1.9,2,2.7c0.1,0.4,0.2,0.7,0.2,0.9
			C794.8,188.3,794.8,188.4,794.8,188.4z M794.8,188.4c0,0,0-0.1,0-0.3c0-0.2-0.1-0.5-0.2-0.8c-0.3-0.7-1-1.6-2.2-2.4
			c-1.2-0.8-2.8-1.3-4.7-1.8c-0.9-0.2-2-0.4-3-0.6c-1.1-0.2-2.2-0.5-3.4-0.7c-4.7-0.8-10.5-1.1-16.5-0.4c-3,0.3-6.1,0.9-9,1.9
			c-1.5,0.5-2.9,1.2-4.1,2c-1.2,0.9-2.2,1.9-2.2,3.1c0-0.1,0,0,0,0l0,0l0,0.1l0,0.1c0,0.1,0,0.1,0,0.2c0,0.1,0.1,0.3,0.1,0.4
			c0.1,0.3,0.3,0.6,0.5,0.8c0.4,0.5,1,1,1.6,1.4c1.2,0.8,2.7,1.5,4.1,2c2.9,1,6,1.6,9,1.9c3,0.3,5.9,0.4,8.7,0.3
			c2.8-0.1,5.4-0.3,7.8-0.7c1.2-0.2,2.3-0.5,3.4-0.7c1.1-0.2,2.1-0.4,3-0.6c1.9-0.5,3.5-1,4.7-1.8c1.2-0.7,1.9-1.6,2.2-2.4
			c0.1-0.4,0.2-0.6,0.2-0.8C794.8,188.5,794.8,188.4,794.8,188.4z"/>
	</g>
	<g>
		<path class="st10" d="M794.7,340.5c-0.5,0.9-1.3,1.6-2.1,2.3c-0.8,0.6-1.7,1.2-2.6,1.6c-0.5,0.2-0.9,0.5-1.4,0.7
			c-0.5,0.2-1,0.4-1.4,0.6c-0.5,0.2-1,0.3-1.5,0.5l-1.5,0.4c-1,0.3-2,0.4-3,0.6c-1,0.1-2.1,0.3-3.1,0.4c-1,0.1-2.1,0.2-3.1,0.3
			l-3.1,0.1l-3.1,0c-1,0-2.1-0.1-3.1-0.1c-1,0-2.1-0.2-3.1-0.2c-1-0.1-2.1-0.3-3.1-0.4c-1-0.2-2.1-0.4-3.1-0.6
			c-0.5-0.1-1-0.3-1.5-0.4c-0.5-0.2-1-0.3-1.5-0.5c-1-0.4-2-0.8-2.9-1.4c-0.5-0.3-0.9-0.6-1.4-0.9c-0.2-0.2-0.4-0.4-0.7-0.6
			c-0.2-0.2-0.4-0.4-0.7-0.8l-0.1-0.2v-0.3l0-150.7v-1l1,0l0.9,0l0.4,0l0.4,0.3l1,0.9l1.1,0.8c0.8,0.5,1.6,0.9,2.5,1.2
			c0.4,0.2,0.9,0.3,1.4,0.5c0.5,0.2,0.9,0.3,1.4,0.4c0.9,0.3,1.9,0.5,2.8,0.7c1.9,0.4,3.9,0.6,5.8,0.8c1,0.1,2,0.2,2.9,0.2l1.5,0
			l1.4-0.1c1,0,2-0.1,3-0.1l2.9-0.2l2.9-0.4c1-0.1,1.9-0.3,2.9-0.5c0.9-0.2,1.9-0.4,2.8-0.7c0.5-0.1,0.9-0.3,1.4-0.4l1.3-0.5
			c0.4-0.2,0.8-0.4,1.3-0.6c0.4-0.2,0.8-0.5,1.1-0.8c0.4-0.3,0.7-0.6,0.9-0.9c0.1-0.2,0.2-0.3,0.3-0.5c0.1-0.1,0.1-0.1,0.1-0.2
			c0,0,0-0.1,0-0.1c0,0,0-0.1,0,0l1-0.9l0.8,0l1,0l0,1l0,74.7l0,18.7c0,6.2-0.2,12.4-0.3,18.7l-0.8,37.3l-0.7-37.3
			c-0.1-6.2-0.3-12.4-0.2-18.7l0-18.7l0-74.7l1,1l-0.8,0l1-0.9c0,0.2,0,0.3-0.1,0.4c0,0.1-0.1,0.2-0.1,0.3c-0.1,0.2-0.1,0.3-0.2,0.5
			c-0.2,0.3-0.3,0.5-0.5,0.8c-0.4,0.5-0.8,0.9-1.2,1.2c-0.4,0.4-0.9,0.6-1.4,0.9c-0.5,0.3-1,0.5-1.4,0.7l-1.5,0.6
			c-0.5,0.2-1,0.3-1.5,0.5c-1,0.3-2,0.5-3,0.8c-1,0.2-2,0.4-3,0.5c-1,0.1-2,0.3-3,0.4l-3,0.2c-1,0.1-2,0.1-3,0.1
			c-0.5,0-0.9,0-1.6,0.1l-1.5,0c-1,0-2-0.1-3-0.2c-2-0.2-4-0.5-6-0.8c-1-0.2-2-0.4-3-0.7c-0.5-0.1-1-0.3-1.5-0.5
			c-0.5-0.2-1-0.3-1.5-0.5c-1-0.4-1.9-0.9-2.8-1.4l-1.3-0.9l-1.2-1.2l0.7,0.3l-0.9,0l1-1l0,150.7l-0.1-0.5c0,0.1,0.2,0.3,0.3,0.4
			c0.2,0.2,0.3,0.3,0.5,0.5c0.3,0.3,0.7,0.6,1.1,0.8c0.8,0.5,1.7,1,2.6,1.3c0.4,0.2,0.9,0.4,1.4,0.5c0.5,0.2,0.9,0.3,1.4,0.5
			c1,0.3,1.9,0.5,2.9,0.7c1,0.2,2,0.4,3,0.5c1,0.1,2,0.3,3,0.4c1,0.1,2,0.2,3,0.2l3.1,0.1l3.1,0c1,0,2-0.1,3.1-0.1
			c1-0.1,2-0.2,3.1-0.3c1-0.2,2-0.3,3-0.5l1.5-0.3c0.5-0.1,1-0.3,1.5-0.4c0.5-0.1,1-0.3,1.5-0.5c0.5-0.2,1-0.4,1.4-0.6
			c0.9-0.4,1.8-0.9,2.7-1.5C793.4,342,794.2,341.3,794.7,340.5z"/>
	</g>
	<g>
		<path class="st11" d="M794.7,197.8c0,4.6-10.4,8.2-23.2,8.2c-12.8,0-23.2-3.7-23.2-8.2"/>
		<path class="st11" d="M794.7,207.3c0,4.6-10.4,8.2-23.2,8.2c-12.8,0-23.2-3.7-23.2-8.2"/>
		<path class="st11" d="M794.7,216.7c0,4.6-10.4,8.2-23.2,8.2c-12.8,0-23.2-3.7-23.2-8.2"/>
		<path class="st11" d="M794.7,226.1c0,4.6-10.4,8.2-23.2,8.2c-12.8,0-23.2-3.7-23.2-8.2"/>
		<path class="st11" d="M794.7,235.5c0,4.6-10.4,8.2-23.2,8.2c-12.8,0-23.2-3.7-23.2-8.2"/>
		<path class="st11" d="M794.7,245c0,4.6-10.4,8.2-23.2,8.2c-12.8,0-23.2-3.7-23.2-8.2"/>
		<path class="st11" d="M794.7,254.4c0,4.6-10.4,8.2-23.2,8.2c-12.8,0-23.1-3.7-23.1-8.2"/>
		<path class="st11" d="M794.7,263.8c0,4.6-10.4,8.2-23.2,8.2c-12.8,0-23.2-3.7-23.2-8.2"/>
		<path class="st11" d="M794.7,273.2c0,4.6-10.4,8.2-23.2,8.2c-12.8,0-23.2-3.7-23.2-8.2"/>
		<path class="st11" d="M794.7,282.7c0,4.6-10.4,8.2-23.2,8.2c-12.8,0-23.2-3.7-23.2-8.2"/>
		<path class="st11" d="M794.7,292.1c0,4.6-10.4,8.2-23.2,8.2c-12.8,0-23.2-3.7-23.2-8.2"/>
		<path class="st11" d="M794.7,301.5c0,4.6-10.4,8.2-23.2,8.2c-12.8,0-23.2-3.7-23.2-8.2"/>
		<path class="st11" d="M794.7,310.9c0,4.6-10.4,8.2-23.2,8.2c-12.8,0-23.2-3.7-23.2-8.2"/>
	</g>
	<path class="st4" d="M778.6,190l-3.2-1.8c0.2,0,0.3,0,0.5,0c0.1,0,0.3,0,0.4,0c0.1,0,0.3,0,0.4,0c0.1,0,0.2,0,0.3,0
		c0.2,0,0.4,0,0.5,0.1c0.2,0,0.3,0.1,0.5,0.1c0.2,0,0.3,0.1,0.5,0.1c0.1,0.1,0.3,0.1,0.4,0.2c0.1,0.1,0.2,0.1,0.3,0.2
		c0.1,0.1,0.1,0.1,0.2,0.2c0,0.1,0.1,0.1,0.1,0.2s0,0.1-0.1,0.2l-0.1,0.1c0,0-0.1,0.1-0.2,0.1c-0.1,0-0.1,0.1-0.2,0.1
		C778.8,189.9,778.7,190,778.6,190 M769.7,187c-0.1,0-0.1,0-0.2,0c-0.1,0-0.1,0-0.2,0c-0.1,0-0.1,0-0.2,0s-0.1,0-0.2,0
		c-0.2,0-0.4,0-0.6,0s-0.4,0-0.5-0.1c-0.2,0-0.3-0.1-0.4-0.1c-0.1,0-0.3-0.1-0.4-0.2c-0.1-0.1-0.2-0.1-0.3-0.2
		c-0.1-0.1-0.1-0.1-0.2-0.2c0-0.1-0.1-0.1,0-0.2c0-0.1,0-0.1,0.1-0.2c0,0,0-0.1,0.1-0.1c0,0,0-0.1,0.1-0.1c0,0,0.1,0,0.1-0.1
		c0,0,0.1,0,0.1-0.1L769.7,187 M765.2,182.6l-2.3,0.6l1.8,1c-0.1,0.1-0.3,0.1-0.4,0.2c-0.1,0.1-0.3,0.1-0.4,0.2
		c-0.1,0.1-0.2,0.1-0.3,0.2c-0.1,0-0.2,0.1-0.3,0.1c-0.2,0.1-0.3,0.2-0.4,0.3c-0.1,0.1-0.2,0.2-0.3,0.3c-0.1,0.1-0.1,0.2-0.2,0.3
		c0,0.1,0,0.2,0,0.3c0,0.1,0,0.2,0.1,0.3c0.1,0.1,0.1,0.2,0.2,0.3c0.1,0.1,0.2,0.2,0.4,0.3c0.1,0.1,0.3,0.2,0.5,0.3
		c0.4,0.2,0.7,0.4,1.2,0.5c0.4,0.1,0.9,0.3,1.4,0.4c0.5,0.1,1.1,0.2,1.7,0.2s1.2,0.1,1.9,0c0.2,0,0.4,0,0.6,0s0.4,0,0.6,0
		c0.2,0,0.4,0,0.7,0c0.2,0,0.5,0,0.7-0.1l3.8,2.1c-0.4,0-0.7,0.1-1.1,0.1c-0.4,0-0.7,0-1-0.1c-0.3-0.1-0.6-0.1-1-0.2
		c-0.3-0.1-0.6-0.2-0.9-0.4l-3.5,0.9c0.2,0.1,0.5,0.2,0.7,0.3s0.5,0.2,0.8,0.3s0.5,0.2,0.8,0.2c0.3,0.1,0.6,0.1,0.9,0.2
		c0.3,0.1,0.6,0.1,0.9,0.1c0.3,0,0.7,0.1,1,0.1c0.3,0,0.7,0,1,0c0.3,0,0.7,0,1.1,0c0.2,0,0.4,0,0.7,0c0.2,0,0.4,0,0.6-0.1
		c0.2,0,0.4-0.1,0.6-0.1c0.2,0,0.4-0.1,0.6-0.1l1.6,0.9l2.3-0.6l-1.5-0.8c0.3-0.1,0.7-0.2,0.9-0.3c0.3-0.1,0.5-0.2,0.7-0.4
		c0.2-0.1,0.4-0.3,0.5-0.4c0.1-0.1,0.3-0.3,0.4-0.4c0.1-0.2,0.1-0.3,0.1-0.5c0-0.2-0.1-0.3-0.2-0.5c-0.1-0.2-0.3-0.3-0.5-0.5
		c-0.2-0.2-0.5-0.3-0.7-0.5c-0.3-0.1-0.6-0.3-0.9-0.4c-0.3-0.1-0.6-0.2-0.9-0.3c-0.3-0.1-0.7-0.2-1-0.2c-0.4-0.1-0.7-0.1-1.1-0.2
		c-0.4,0-0.8-0.1-1.2-0.1c-0.4,0-0.9,0-1.3,0c-0.5,0-0.9,0-1.5,0.1c-0.5,0-1,0.1-1.6,0.1l-3.5-1.9c0.1,0,0.3,0,0.4,0s0.2,0,0.4,0
		c0.1,0,0.2,0,0.4,0s0.2,0,0.4,0s0.4,0,0.6,0.1c0.2,0,0.4,0.1,0.6,0.1c0.2,0,0.4,0.1,0.5,0.2c0.2,0.1,0.3,0.1,0.5,0.2l3.4-0.9
		c-0.2-0.1-0.4-0.2-0.6-0.3c-0.2-0.1-0.5-0.2-0.7-0.3c-0.2-0.1-0.5-0.2-0.8-0.2c-0.3-0.1-0.5-0.1-0.8-0.2c-0.3-0.1-0.6-0.1-0.9-0.1
		s-0.6-0.1-0.9-0.1c-0.3,0-0.6,0-0.9,0c-0.3,0-0.6,0-0.9,0c-0.2,0-0.5,0-0.7,0c-0.2,0-0.5,0-0.7,0.1c-0.2,0-0.5,0.1-0.7,0.1
		s-0.5,0.1-0.7,0.1L765.2,182.6"/>
</g>
<g id="money1">
	<g>
		<path class="st1" d="M289.9,113.6c2.2,0.8,5,1.3,8.1,1.6V47.6c-3.1-0.3-5.9-0.9-8.1-1.6V113.6z"/>
		<path class="st1" d="M288.6,45.5c-2.7-1.1-4.4-2.6-4.4-4.3v66.4v1.3c0,1.6,1.7,3.1,4.4,4.3V45.5z"/>
		<path class="st1" d="M303,47.8c-0.1,0-0.2,0-0.3,0c-0.7,0-1.5,0-2.2,0v67.7c0.7,0,1.5,0,2.2,0c0.1,0,0.2,0,0.3,0V47.8z"/>
		<path class="st1" d="M308,47.5v67.7c7.6-0.8,13.2-3.3,13.2-6.3v-1.3V41.2C321.2,44.2,315.7,46.7,308,47.5z"/>
	</g>
	<ellipse class="st9" cx="300" cy="38.1" rx="18.1" ry="6.6"/>
	<g>
		<path class="st12" d="M318.7,45.6c0,3.6-8.3,6.6-18.5,6.6c-10.2,0-18.5-3-18.5-6.6"/>
		<path class="st12" d="M318.7,53.1c0,3.6-8.3,6.6-18.5,6.6c-10.2,0-18.5-2.9-18.5-6.6"/>
		<path class="st12" d="M318.7,60.6c0,3.6-8.3,6.6-18.5,6.6c-10.2,0-18.5-2.9-18.5-6.6"/>
		<path class="st12" d="M318.7,68.2c0,3.6-8.3,6.6-18.5,6.6c-10.2,0-18.5-3-18.5-6.6"/>
		<path class="st12" d="M318.7,75.7c0,3.6-8.3,6.6-18.5,6.6c-10.2,0-18.5-3-18.5-6.6"/>
		<path class="st12" d="M318.7,83.2c0,3.6-8.3,6.6-18.5,6.6c-10.2,0-18.5-3-18.5-6.6"/>
		<path class="st12" d="M318.7,90.7c0,3.6-8.3,6.6-18.5,6.6c-10.2,0-18.5-3-18.5-6.6"/>
		<path class="st12" d="M318.7,98.2c0,3.6-8.3,6.6-18.5,6.6c-10.2,0-18.5-2.9-18.5-6.6"/>
	</g>
	<g>
		<path class="st10" d="M318.7,106.2c-0.2,0.8-0.8,1.5-1.4,2.1c-0.6,0.6-1.3,1.1-2,1.5c-0.7,0.4-1.5,0.8-2.3,1
			c-0.8,0.3-1.6,0.5-2.4,0.7c-0.8,0.2-1.6,0.4-2.5,0.5c-0.8,0.1-1.7,0.3-2.5,0.3c-0.8,0.1-1.7,0.2-2.5,0.2c-0.8,0-1.7,0.1-2.5,0.1
			l-2.5,0l-2.5-0.1c-0.8-0.1-1.7-0.2-2.5-0.3c-0.8-0.2-1.7-0.3-2.5-0.5l-1.2-0.3l-1.2-0.4c-0.8-0.3-1.6-0.6-2.4-1
			c-0.8-0.4-1.5-0.8-2.2-1.4c-0.7-0.6-1.3-1.1-1.8-2l0-0.1l0-0.1L281,39.8l0-0.3l0.2-0.1l0.6-0.3l0.4-0.2l0.3,0.4
			c0.4,0.6,1,1.1,1.6,1.6c0.6,0.5,1.3,0.8,2,1.2c0.7,0.3,1.5,0.6,2.2,0.8c0.8,0.2,1.5,0.4,2.3,0.6c0.8,0.1,1.6,0.3,2.4,0.4
			c0.8,0.1,1.6,0.2,2.4,0.3c1.6,0.1,3.2,0.2,4.8,0.2l2.4,0l2.4-0.1c0.8-0.1,1.6-0.1,2.4-0.3c0.8-0.1,1.6-0.2,2.4-0.4
			c0.8-0.2,1.6-0.3,2.3-0.6c0.8-0.2,1.5-0.5,2.2-0.8c1.4-0.6,2.8-1.5,3.6-2.8l0.3-0.4l0.4,0.2l0.3,0.2l0.3,0.1v0.3v32.8l0,4.1
			c0,1.4,0,2.7,0,4.1l-0.2,8.2l-0.3,16.4l-0.3-16.4l-0.2-8.2c0-1.4,0-2.7,0-4.1l0-4.1V39.6l0.3,0.4l-0.3-0.2l0.7-0.2
			c-0.5,0.8-1.1,1.4-1.8,1.9c-0.7,0.5-1.4,0.9-2.2,1.3c-0.8,0.4-1.5,0.6-2.3,0.9c-0.8,0.3-1.6,0.4-2.4,0.6c-0.8,0.2-1.6,0.3-2.4,0.4
			c-0.8,0.1-1.6,0.2-2.4,0.3l-2.5,0.1l-2.4,0c-1.6,0-3.3,0-4.9-0.2c-0.8-0.1-1.6-0.1-2.4-0.3c-0.8-0.1-1.6-0.3-2.4-0.4
			c-0.8-0.2-1.6-0.4-2.4-0.6c-0.8-0.3-1.6-0.5-2.3-0.9c-1.5-0.7-3-1.6-4-3.1l0.7,0.1l-0.6,0.3l0.2-0.4l0.4,66.6l0-0.2
			c0.3,0.6,0.9,1.2,1.5,1.7c0.6,0.5,1.3,0.9,2.1,1.3c0.7,0.4,1.5,0.7,2.3,0.9l1.2,0.4c0.4,0.1,0.8,0.2,1.2,0.3
			c0.8,0.2,1.6,0.3,2.4,0.5l2.5,0.3l2.5,0.2l2.5,0.1c0.8,0,1.7,0,2.5,0c0.8,0,1.7-0.1,2.5-0.1c0.8,0,1.7-0.1,2.5-0.2
			c0.8-0.1,1.6-0.3,2.5-0.4c0.8-0.2,1.6-0.4,2.4-0.6c0.8-0.2,1.6-0.6,2.3-0.9c0.7-0.4,1.5-0.8,2.1-1.4
			C317.8,107.6,318.4,107,318.7,106.2z"/>
	</g>
	<path class="st4" d="M305.2,39.5l-2.6-1.4c0.1,0,0.2,0,0.4,0c0.1,0,0.2,0,0.3,0s0.2,0,0.3,0c0.1,0,0.2,0,0.3,0s0.3,0,0.4,0
		s0.3,0,0.4,0.1c0.1,0,0.2,0.1,0.4,0.1c0.1,0,0.2,0.1,0.3,0.2c0.1,0.1,0.2,0.1,0.2,0.2c0.1,0.1,0.1,0.1,0.1,0.2c0,0.1,0,0.1,0,0.2
		s0,0.1-0.1,0.2l-0.1,0.1l-0.1,0.1C305.4,39.5,305.3,39.6,305.2,39.5C305.4,39.5,305.3,39.5,305.2,39.5 M298.2,37.1
		c-0.1,0-0.1,0-0.2,0s-0.1,0-0.1,0h-0.1h-0.1c-0.2,0-0.3,0-0.5,0c-0.1,0-0.3,0-0.4-0.1c-0.1,0-0.2-0.1-0.4-0.1
		c-0.1,0-0.2-0.1-0.3-0.1c-0.1-0.1-0.2-0.1-0.2-0.2c-0.1-0.1-0.1-0.1-0.1-0.2c0-0.1,0-0.1,0-0.2c0-0.1,0-0.1,0.1-0.2c0,0,0,0,0-0.1
		c0,0,0,0,0.1-0.1c0,0,0,0,0.1-0.1c0,0,0.1,0,0.1-0.1L298.2,37.1 M294.5,33.7l-1.8,0.5l1.5,0.8c-0.1,0-0.2,0.1-0.3,0.1
		s-0.2,0.1-0.3,0.1c-0.1,0-0.2,0.1-0.3,0.1s-0.2,0.1-0.2,0.1c-0.1,0.1-0.2,0.2-0.3,0.3c-0.1,0.1-0.2,0.2-0.2,0.3
		c-0.1,0.1-0.1,0.2-0.1,0.3c0,0.1,0,0.2,0,0.3s0,0.2,0.1,0.3c0,0.1,0.1,0.2,0.2,0.3c0.1,0.1,0.2,0.2,0.3,0.3
		c0.1,0.1,0.2,0.2,0.4,0.2c0.3,0.2,0.6,0.3,0.9,0.4c0.3,0.1,0.7,0.2,1.1,0.3c0.4,0.1,0.9,0.1,1.3,0.2c0.5,0,1,0,1.5,0
		c0.1,0,0.3,0,0.5,0c0.2,0,0.3,0,0.5,0c0.2,0,0.4,0,0.5,0c0.2,0,0.4,0,0.6,0l3,1.7c-0.3,0-0.6,0-0.9,0c-0.3,0-0.6,0-0.8-0.1
		c-0.3,0-0.5-0.1-0.8-0.2c-0.3-0.3-0.5-0.4-0.7-0.5l-2.8,0.7c0.2,0.1,0.4,0.2,0.6,0.3c0.2,0.1,0.4,0.2,0.6,0.2
		c0.2,0.1,0.4,0.1,0.7,0.2c0.2,0.1,0.5,0.1,0.7,0.2c0.2,0,0.5,0.1,0.8,0.1c0.3,0,0.5,0.1,0.8,0.1c0.3,0,0.5,0,0.8,0s0.6,0,0.9,0
		c0.2,0,0.3,0,0.5,0c0.2,0,0.3,0,0.5,0c0.2,0,0.3,0,0.5-0.1c0.2,0,0.3,0,0.5-0.1l1.3,0.7l1.8-0.5l-1.3-0.8c0.3-0.1,0.5-0.2,0.7-0.3
		c0.2-0.1,0.4-0.2,0.6-0.3c0.2-0.1,0.3-0.2,0.4-0.3c0.1-0.1,0.2-0.2,0.3-0.3c0.1-0.1,0.1-0.3,0.1-0.4s0-0.3-0.1-0.4
		c-0.1-0.1-0.2-0.3-0.4-0.4c-0.2-0.1-0.4-0.3-0.6-0.4c-0.2-0.1-0.4-0.2-0.7-0.3c-0.2-0.1-0.5-0.2-0.8-0.3c-0.3-0.1-0.5-0.1-0.8-0.2
		c-0.3-0.1-0.6-0.1-0.9-0.1s-0.6,0-0.9-0.1c-0.3,0-0.7,0-1.1,0s-0.8,0-1.2,0c-0.4,0-0.8,0.1-1.3,0.1l-2.8-1.5c0.1,0,0.2,0,0.3,0
		s0.2,0,0.3,0c0.1,0,0.2,0,0.3,0s0.2,0,0.3,0c0.2,0,0.3,0,0.5,0.1c0.2,0.1,0.4,0.1,0.5,0.1s0.3,0.1,0.4,0.1c0.1,0.1,0.3,0.1,0.4,0.2
		l2.7-0.7c-0.2-0.1-0.3-0.2-0.5-0.2c-0.2-0.1-0.4-0.1-0.6-0.2c-0.2-0.1-0.4-0.1-0.6-0.2c-0.2-0.1-0.4-0.1-0.7-0.1
		c-0.2,0-0.5-0.1-0.7-0.1c-0.2,0-0.5-0.1-0.7-0.1c-0.2,0-0.5,0-0.7,0c-0.2,0-0.5,0-0.8,0c-0.2,0-0.4,0-0.6,0s-0.4,0-0.5,0.1
		c-0.2,0-0.4,0-0.5,0.1c-0.2,0-0.4,0.1-0.5,0.1L294.5,33.7"/>
</g>
<g>
	<path id="palm" class="st4" d="M607.8,53.3c-5.3-2.7-11.7-3.3-17.2-1.7c-4.5,1.3-8.5,3.9-11.4,7.3c-0.1,0-0.1,0-0.2,0
		c0.1,0,0.1,0,0.1,0.1c-0.1,0.1-0.1,0.2-0.2,0.2l-0.1-0.1c0.2-0.3,0.4-0.7,0.5-1c3.6-3.6,7-6.5,10.7-8.7c3.8-2.3,7.6-3.5,11.6-3.8
		s8.3,0.4,12.8,1.5c4.5,1.1,9.1,2.7,14.3,4.1c-2.9-4.4-6.8-8.1-11.5-10.8c-4.7-2.7-10.3-4.4-16.3-4c-6,0.4-11.8,3.3-15.6,7.5
		c-1.2,1.3-2.3,2.8-3.2,4.3c0.1-0.9,0.2-1.8,0.2-2.7c0-5.7-2.4-11.7-6.6-16c-4.1-4.3-9.5-6.8-14.8-7.9s-10.7-1-15.8,0.4
		c4.7,2.4,9.3,4.3,13.3,6.5c4.1,2.2,7.7,4.6,10.5,7.5c3,2.8,5,6.2,6.3,10.5c1,3.3,1.6,7,1.9,11.1c-0.8-4.1-2.9-8-5.9-11.3
		c-3.8-4.2-9.5-7.2-15.5-7.6c-6-0.5-11.6,1.2-16.3,3.9c-4.7,2.6-8.6,6.2-11.5,10.7c5.2-1.3,9.8-2.9,14.3-4c4.5-1.1,8.8-1.7,12.8-1.4
		c4,0.3,7.8,1.6,11.5,3.9c1.9,1.2,3.9,2.6,5.8,4.2c-2-0.2-4.2,0.1-6,1.1c-2.4,1.2-4.2,3.2-5.4,5.4c-1.2,2.1-1.9,4.5-1.9,6.9
		c1.7-1.7,3.1-3.4,4.6-4.9s3-2.7,4.6-3.6c1.6-0.8,3.4-1.3,5.4-1.3c0.8,0,1.7,0.1,2.5,0.2c-1.7,2.4-3.3,4.9-4.8,7.4
		c-3.3,6-6,12.4-8.2,18.9c-2.2,6.5-4,13.2-5.5,20s-1.6,19.6-2.4,26.8h15.6c-0.6-6.1-1.7-19-1.6-25.4c0.1-6.5,0.6-13,1.5-19.5
		s2.2-12.9,4.2-19.2c0.9-2.7,2-5.4,3.2-7.9c0.5-0.2,1-0.3,1.6-0.4c0.1,0,0.2,0.1,0.4,0.1c0-0.1-0.1-0.1-0.1-0.1
		c0.3-0.1,0.7-0.2,1-0.2c1.2,0.8,2.4,1.7,3.3,2.6c1.4,1.4,2.3,3,2.9,4.7c0.6,1.7,0.8,3.7,0.7,5.8c0,2.1-0.2,4.3-0.2,6.7
		c1.6-1.8,2.8-3.9,3.6-6.2c0.6-2.4,0.8-5,0-7.6c-0.8-2.6-2.7-4.8-5-6c-0.5-0.3-1-0.5-1.5-0.7c2.4-0.4,4.8-0.6,7-0.6
		c4.4,0,8.3,0.9,11.8,2.7c3.6,1.8,6.9,4.6,10.2,7.9c3.3,3.3,6.4,7,10.1,10.9c-0.1-5.3-1.6-10.4-4.2-15.2
		C617,60.5,613.1,56,607.8,53.3L607.8,53.3z"/>
	<g>
		<path class="st4" d="M625.8,133.3c0,0-8,0.1-20,0.3c-6,0.1-13,0.2-20.5,0.2c-7.5,0.1-15.5,0.1-23.5,0.2c-4,0-8,0.1-11.9,0.1
			c-3.9,0.1-7.8,0.1-11.6,0.1c-3.7,0-7.4-0.1-10.8-0.2c-3.4-0.1-6.7-0.2-9.7-0.3c-12-0.4-20-1.1-20-1.1l0-0.3c0,0,8-0.6,20-1
			c3-0.1,6.2-0.2,9.7-0.2c3.4-0.1,7.1-0.1,10.8-0.1c3.7,0.1,7.6,0.1,11.6,0.2c3.9,0.1,7.9,0.2,11.9,0.3c8,0.2,16,0.3,23.5,0.4
			c7.5,0.1,14.5,0.3,20.5,0.4c12,0.3,20,0.5,20,0.5L625.8,133.3z"/>
	</g>
</g>
<g id="pin1">
	<path class="st13" d="M458.1,128.8c-4.9-4.9-11.4-7.6-18.4-7.6s-13.5,2.7-18.4,7.6c-9.1,9.1-10.2,26.2-2.4,36.6l20.8,30.2
		l20.8-30.1C468.4,155,467.2,137.9,458.1,128.8L458.1,128.8z M440,156.5c-5.2,0-9.5-4.3-9.5-9.5s4.3-9.5,9.5-9.5
		c5.2,0,9.5,4.3,9.5,9.5S445.2,156.5,440,156.5L440,156.5z"/>
	<g>
		<path class="st4" d="M442.8,152c0,0-0.2,0.1-0.6,0.4c-0.4,0.3-0.9,0.6-1.6,1.1c-0.7,0.5-1.7,1.2-2.9,1.6c-0.6,0.2-1.4,0.4-2.1,0.4
			c-0.8,0-1.5-0.4-2.3-0.7c-1.5-0.6-3.1-1.7-4.4-3.1c-0.2-0.2-0.3-0.4-0.4-0.6l-0.2-0.3l-0.1-0.1l-0.1-0.2c-0.2-0.4-0.4-0.6-0.7-1.2
			c-0.5-1-0.8-1.9-1-3c-0.4-2.1-0.2-4.3,0.7-6.3c0.4-1,1-2,1.7-2.9c0.7-0.9,1.5-1.6,2.5-2.3l0.7-0.4c0.2-0.1,0.5-0.3,0.7-0.4
			c0.6-0.3,1.1-0.5,1.6-0.6c1.1-0.3,2.2-0.5,3.3-0.5c2.2,0,4.4,0.6,6.1,1.7c0.9,0.6,1.7,1.2,2.4,2c0.4,0.4,0.6,0.8,0.9,1.2l0.1,0.1
			l0,0l0.1,0.1l0.1,0.1l0.2,0.3c0.1,0.2,0.2,0.3,0.3,0.5c0.5,1,0.8,1.8,1,2.7c0.2,0.9,0.3,1.8,0.3,2.6c-0.1,0.8,0.1,1.7-0.3,2.4
			c-0.3,0.7-0.7,1.3-1.1,1.9c-0.9,1-1.8,1.7-2.5,2.2c-0.7,0.5-1.2,0.8-1.6,1.1C443,151.8,442.8,152,442.8,152z M442.8,152
			c0,0,0.2-0.1,0.5-0.4c0.2-0.1,0.3-0.3,0.5-0.6c0.2-0.2,0.4-0.6,0.6-0.9c0.3-0.7,0.5-1.7,0.5-2.8c0-0.5-0.1-1-0.1-1.6
			c0-0.3,0-0.5,0.1-0.8c0-0.3,0-0.5,0.1-0.8c0-0.5-0.1-1.1-0.2-1.7c-0.1-0.6-0.4-1.2-0.6-1.6c-0.1-0.1-0.2-0.3-0.3-0.5l-0.2-0.3
			l-0.1-0.1c-0.1-0.1,0.1,0.1,0,0.1l0,0l0,0l0,0c-0.2-0.3-0.4-0.5-0.6-0.8c-0.4-0.5-1-0.9-1.5-1.3c-1.2-0.7-2.6-1.1-4-1.1
			c-0.7,0-1.4,0.1-2.1,0.3c-0.3,0.1-0.7,0.2-1,0.4c-0.1,0.1-0.3,0.1-0.5,0.3l-0.5,0.3c-0.6,0.4-1.1,0.9-1.6,1.5
			c-0.4,0.6-0.8,1.2-1.1,1.8c-0.5,1.3-0.7,2.8-0.4,4.1c0.1,0.6,0.3,1.4,0.6,1.8c0.1,0.2,0.3,0.6,0.5,1l0,0.1l0,0l0,0
			c0,0-0.1-0.2,0-0.1l0.1,0.1l0.1,0.2c0.1,0.1,0.2,0.3,0.3,0.4c0.8,0.9,1.8,1.6,2.8,2c0.3,0.1,0.5,0.2,0.8,0.2
			c0.3,0,0.5,0.1,0.7,0.2c0.5,0.2,0.9,0.5,1.4,0.7c1,0.4,1.9,0.6,2.8,0.6c0.4,0,0.8-0.1,1.1-0.2c0.3-0.1,0.6-0.2,0.7-0.3
			C442.6,152.1,442.8,152,442.8,152z"/>
	</g>
	<path class="st14" d="M457,164.5c3.9-4.9,6.3-11.3,6.3-18.2c0-15.5-11.8-28.1-26.4-28.1c-14.6,0-26.4,12.6-26.4,28.1
		c0,6.3,1.9,12.1,5.2,16.7l20.9,31.2L457,164.5z"/>
</g>
<g id="pin2">
	<path class="st15" d="M596.2,226c-6.1-6.1-14.3-9.5-23-9.5s-16.8,3.4-23,9.5c-11.3,11.3-12.7,32.7-3,45.6l26,37.6l26-37.5
		C608.9,258.7,607.5,237.3,596.2,226L596.2,226z M573.5,260.5c-6.5,0-11.9-5.3-11.9-11.9c0-6.5,5.3-11.9,11.9-11.9
		c6.5,0,11.9,5.3,11.9,11.9C585.4,255.2,580,260.5,573.5,260.5L573.5,260.5z"/>
	<g>
		<path class="st4" d="M571.7,257c0,0-0.2,0.1-0.6,0.4c-0.2,0.2-0.5,0.3-0.8,0.5c-0.3,0.2-0.7,0.4-1.1,0.7c-0.8,0.5-1.9,1.2-3.4,1.7
			c-0.7,0.2-1.6,0.4-2.4,0.3c-0.9,0-1.7-0.5-2.6-0.7c-1.8-0.7-3.5-1.9-4.9-3.6c-0.2-0.2-0.3-0.4-0.5-0.6l-0.2-0.3l-0.1-0.2l-0.1-0.2
			c-0.2-0.4-0.5-0.7-0.8-1.4c-0.6-1.1-0.9-2.2-1.1-3.4c-0.2-1.2-0.2-2.4-0.1-3.6c0.1-1.2,0.4-2.4,0.9-3.6c0.5-1.2,1.1-2.2,1.9-3.2
			c0.4-0.5,0.8-1,1.3-1.4c0.2-0.2,0.5-0.4,0.7-0.6l0.4-0.3l0.2-0.1l0.1-0.1l0,0l0,0l0.1-0.1c0.5-0.3,0.8-0.5,1.5-0.9
			c0.6-0.3,1.2-0.5,1.8-0.7c1.2-0.4,2.5-0.6,3.7-0.6c1.2,0,2.5,0.2,3.7,0.5c1.2,0.4,2.3,0.8,3.3,1.5c1,0.6,1.9,1.4,2.7,2.2
			c0.4,0.4,0.7,0.9,1.1,1.3l0.1,0.1l0,0l0.1,0.1l0.1,0.2l0.2,0.3c0.1,0.2,0.2,0.4,0.4,0.6c0.5,1.1,0.9,2,1.2,3c0.3,1,0.3,2,0.4,2.9
			c-0.1,0.9,0.1,1.9-0.3,2.7c-0.3,0.8-0.8,1.5-1.2,2.1c-1,1.2-2,2-2.8,2.6c-0.4,0.3-0.7,0.6-1.1,0.8c-0.3,0.2-0.5,0.4-0.8,0.5
			C571.9,256.9,571.7,257,571.7,257z M571.7,257c0,0,0.2-0.2,0.6-0.5c0.2-0.2,0.4-0.4,0.6-0.7c0.2-0.3,0.5-0.6,0.7-1
			c0.4-0.8,0.7-2,0.7-3.2c0-0.6,0-1.2,0-1.8c0-0.3,0-0.6,0.1-0.9c0.1-0.3,0-0.6,0.1-1c0-0.7-0.1-1.3-0.3-2c-0.1-0.7-0.5-1.4-0.7-2
			c-0.1-0.2-0.2-0.4-0.3-0.6l-0.2-0.3l-0.1-0.2c-0.1-0.1,0.1,0.1,0,0.1l0,0l0,0l0-0.1c-0.2-0.3-0.5-0.6-0.7-0.9
			c-0.5-0.6-1.2-1.1-1.8-1.5c-0.7-0.4-1.5-0.8-2.3-1c-0.8-0.2-1.7-0.3-2.5-0.3c-0.9,0-1.7,0.2-2.6,0.4c-0.4,0.1-0.8,0.3-1.2,0.5
			c-0.3,0.1-0.8,0.5-1.3,0.7c0.2-0.1,0,0,0.1,0l0,0l0,0l-0.1,0.1l-0.1,0.1l-0.3,0.2c-0.2,0.1-0.3,0.3-0.5,0.4
			c-0.3,0.3-0.6,0.6-0.9,0.9c-0.5,0.7-1,1.4-1.3,2.2c-0.3,0.8-0.5,1.6-0.6,2.5c-0.1,0.8-0.1,1.7,0.1,2.5c0.2,0.8,0.4,1.6,0.7,2.2
			c0.1,0.3,0.4,0.7,0.6,1.1l0,0.1l0,0l0,0c0,0-0.1-0.2,0-0.1l0.1,0.1l0.2,0.2c0.1,0.1,0.2,0.3,0.3,0.4c1,1.1,2.2,2,3.4,2.5
			c0.3,0.1,0.6,0.2,0.9,0.3c0.3,0,0.6,0.1,0.9,0.2c0.6,0.2,1.1,0.5,1.7,0.7c1.1,0.4,2.3,0.6,3.2,0.5c0.5,0,0.9-0.1,1.2-0.2
			c0.3-0.1,0.6-0.2,0.9-0.3C571.5,257.2,571.7,257,571.7,257z"/>
	</g>
	<path class="st16" d="M588,271c4.6-5.7,7.3-13.1,7.3-21.2c0-18.1-13.7-32.7-30.7-32.7c-17,0-30.7,14.7-30.7,32.7
		c0,7.3,2.2,14,6,19.5l24.3,36.3L588,271z"/>
</g>
<g id="pin3">
	<path class="st3" d="M320.1,352.3c-9.6-9.6-22.4-14.9-36-14.9s-26.3,5.3-35.9,14.9c-17.7,17.8-19.9,51.2-4.7,71.4l40.6,58.8
		l40.6-58.7C340,403.5,337.8,370.1,320.1,352.3L320.1,352.3z M284.6,406.3c-10.2,0-18.6-8.3-18.6-18.5c0-10.2,8.3-18.5,18.6-18.5
		c10.2,0,18.5,8.3,18.5,18.5C303.2,398,294.8,406.3,284.6,406.3L284.6,406.3z"/>
	<path class="st14" d="M318.3,423.2c7.5-9.5,12.1-21.7,12.1-35.1c0-29.9-22.7-54.2-50.8-54.2s-50.8,24.3-50.8,54.2
		c0,12.1,3.7,23.2,10,32.2l40.3,60L318.3,423.2z"/>
	<g>
		<path class="st4" d="M291,399.1c0,0-0.4,0.2-1.1,0.7c-0.3,0.2-0.8,0.5-1.3,0.8c-0.5,0.3-1.1,0.7-1.9,1c-1.4,0.7-3.2,1.6-5.6,2
			c-0.6,0.1-1.2,0.2-1.8,0.2c-0.6,0.1-1.3,0-2,0c-1.4-0.1-2.7-0.7-4.1-1.2c-2.7-1.1-5.5-3-7.7-5.5c-0.3-0.3-0.5-0.7-0.8-1l-0.4-0.5
			l-0.2-0.3l-0.2-0.3c-0.4-0.7-0.8-1.3-1.2-2.2c-0.9-1.7-1.3-3.4-1.7-5.2c-0.3-1.8-0.4-3.7-0.2-5.6c0.2-1.9,0.7-3.8,1.4-5.6
			c0.7-1.8,1.8-3.5,3-5c1.2-1.5,2.7-2.8,4.3-4l1.2-0.7c0.3-0.2,0.8-0.5,1.3-0.7c0.9-0.5,1.9-0.8,2.8-1.1c1.9-0.6,3.8-0.9,5.8-0.9
			c1.9,0,3.9,0.3,5.7,0.8c1.8,0.6,3.6,1.3,5.1,2.3c1.5,1,3,2.1,4.2,3.5c0.6,0.6,1.1,1.4,1.7,2l0.1,0.1l0,0.1l0,0l0.1,0.1l0.2,0.2
			l0.3,0.5c0.2,0.3,0.4,0.6,0.6,1c0.4,0.8,0.8,1.6,1.1,2.4c0.1,0.4,0.3,0.8,0.4,1.2c0.1,0.4,0.2,0.8,0.3,1.2
			c0.4,1.5,0.5,3.1,0.6,4.6c-0.1,1.5,0,2.9-0.5,4.2c-0.2,0.6-0.4,1.3-0.7,1.8c-0.3,0.6-0.6,1.1-0.9,1.6c-1.3,2-2.8,3.4-4,4.4
			c-0.6,0.5-1.1,1-1.6,1.3c-0.5,0.4-0.9,0.7-1.2,0.9C291.4,398.8,291,399.1,291,399.1z M291,399.1c0,0,0.3-0.3,1-0.8
			c0.3-0.2,0.7-0.6,1.1-1.1c0.2-0.2,0.4-0.5,0.6-0.7c0.2-0.3,0.4-0.6,0.6-0.9c0.8-1.3,1.5-3,1.9-5.1c0.2-1,0.3-2.1,0.4-3.1
			c0-0.5,0.1-1.1,0.2-1.6c0.1-0.6,0.1-1.1,0.1-1.7c0-1.2-0.1-2.4-0.5-3.6c-0.1-0.3-0.2-0.6-0.2-0.9c-0.1-0.3-0.2-0.6-0.3-0.9
			c-0.2-0.7-0.5-1.2-0.8-1.8c-0.1-0.3-0.4-0.6-0.6-1l-0.3-0.5l-0.2-0.2c-0.1-0.1,0.1,0.1,0,0.1l0,0l0-0.1l-0.1-0.1
			c-0.4-0.5-0.8-1.1-1.3-1.6c-0.9-1.1-2.1-2-3.3-2.8c-1.2-0.8-2.6-1.4-4.1-1.8c-1.5-0.4-3-0.6-4.6-0.6c-1.6,0-3.1,0.3-4.6,0.7
			c-0.7,0.3-1.5,0.5-2.1,0.9c-0.3,0.2-0.7,0.3-1.1,0.6l-1.1,0.6c-1.3,0.9-2.5,2-3.5,3.2c-1,1.2-1.8,2.6-2.4,4
			c-0.6,1.4-1,2.9-1.1,4.5c-0.1,1.5-0.1,3,0.2,4.5c0,0.4,0.2,0.7,0.2,1.1c0.1,0.4,0.2,0.7,0.3,1.1c0.1,0.3,0.2,0.7,0.4,1
			c0.1,0.3,0.3,0.6,0.4,0.9c0.2,0.6,0.7,1.3,1.1,2l0.1,0.1l0,0.1l0,0c0,0-0.1-0.1,0-0.1l0.2,0.2l0.3,0.4c0.2,0.3,0.4,0.6,0.6,0.8
			c1.8,2,3.9,3.5,6.1,4.4c0.6,0.2,1.1,0.4,1.6,0.5c0.6,0.1,1.1,0.2,1.6,0.4c1,0.3,2.1,0.6,3.1,0.8c2,0.4,3.9,0.4,5.4,0.1
			c0.4-0.1,0.7-0.2,1.1-0.2c0.3-0.1,0.6-0.2,0.9-0.3c0.3-0.1,0.5-0.2,0.8-0.3c0.2-0.1,0.4-0.2,0.6-0.3
			C290.7,399.3,291,399.1,291,399.1z"/>
	</g>
</g>
<g id="store">
	<g>
		<g>
			<g>
				<path class="st1" d="M753.2,510.8L753.2,510.8c-4.9,0-8.9-4-8.9-8.9v-8h17.8v8C762.1,506.8,758.1,510.8,753.2,510.8z"/>
				<path class="st1" d="M788.8,510.8L788.8,510.8c-4.9,0-8.9-4-8.9-8.9v-8h17.8v8C797.7,506.8,793.8,510.8,788.8,510.8z"/>
				<path class="st1" d="M717.6,510.8L717.6,510.8c-4.9,0-8.9-4-8.9-8.9v-8h17.8v8C726.5,506.8,722.5,510.8,717.6,510.8z"/>
				<path class="st1" d="M681.9,510.8L681.9,510.8c-4.9,0-8.9-4-8.9-8.9v-8h17.8v8C690.8,506.8,686.9,510.8,681.9,510.8z"/>
				<path class="st1" d="M824.5,510.8L824.5,510.8c-4.9,0-8.9-4-8.9-8.9v-8h17.8v8C833.4,506.8,829.4,510.8,824.5,510.8z"/>
				<path class="st1" d="M860.1,510.8L860.1,510.8c-4.9,0-8.9-4-8.9-8.9v-8H869v8C869,506.8,865,510.8,860.1,510.8z"/>
			</g>
			<g>
				<path class="st2" d="M842.3,510.8L842.3,510.8c-4.9,0-8.9-4-8.9-8.9v-8h17.8v8C851.2,506.8,847.2,510.8,842.3,510.8z"/>
				<path class="st2" d="M735.4,510.8L735.4,510.8c-4.9,0-8.9-4-8.9-8.9v-8h17.8v8C744.3,506.8,740.3,510.8,735.4,510.8z"/>
				<path class="st2" d="M806.6,510.8L806.6,510.8c-4.9,0-8.9-4-8.9-8.9v-8h17.9v8C815.6,506.8,811.6,510.8,806.6,510.8z"/>
				<path class="st2" d="M699.8,510.8L699.8,510.8c-4.9,0-8.9-4-8.9-8.9v-8h17.8v8C708.7,506.8,704.7,510.8,699.8,510.8z"/>
				<path class="st2" d="M771,510.8L771,510.8c-4.9,0-8.9-4-8.9-8.9v-8h17.8v8C779.9,506.8,775.9,510.8,771,510.8z"/>
			</g>
			<g>
				<polygon class="st1" points="762.1,493.9 744.3,493.9 746.1,466.9 762.7,466.9 				"/>
				<polygon class="st1" points="797.7,493.9 779.9,493.9 779.3,466.9 795.9,466.9 				"/>
				<polygon class="st1" points="726.5,493.9 708.7,493.9 713,466.9 729.5,466.9 				"/>
				<polygon class="st1" points="690.8,493.9 673,493.9 679.8,466.9 696.4,466.9 				"/>
				<polygon class="st1" points="833.4,493.9 815.6,493.9 812.5,466.9 829.1,466.9 				"/>
				<polygon class="st1" points="869,493.9 851.2,493.9 845.7,466.9 862.2,466.9 				"/>
			</g>
			<g>
				<polygon class="st2" points="744.3,493.9 726.5,493.9 729.5,466.9 746.1,466.9 				"/>
				<polygon class="st2" points="815.6,493.9 797.7,493.9 795.9,466.9 812.5,466.9 				"/>
				<polygon class="st2" points="851.2,493.9 833.4,493.9 829.1,466.9 845.7,466.9 				"/>
				<polygon class="st2" points="708.7,493.9 690.8,493.9 696.4,466.9 713,466.9 				"/>
				<polygon class="st2" points="779.9,493.9 762.1,493.9 762.7,466.9 779.3,466.9 				"/>
			</g>
		</g>
		<path class="st3" d="M860.1,513.2c-4.9,0-8.9-4-8.9-8.9c0,4.9-4,8.9-8.9,8.9c-4.9,0-8.9-4-8.9-8.9c0,4.9-4,8.9-8.9,8.9
			c-4.9,0-8.9-4-8.9-8.9c0,4.9-4,8.9-8.9,8.9c-4.9,0-8.9-4-8.9-8.9c0,4.9-4,8.9-8.9,8.9c-4.9,0-8.9-4-8.9-8.9c0,4.9-4,8.9-8.9,8.9
			c-4.9,0-8.9-4-8.9-8.9c0,4.9-4,8.9-8.9,8.9c-4.9,0-8.9-4-8.9-8.9c0,4.9-4,8.9-8.9,8.9c-4.9,0-8.9-4-8.9-8.9c0,4.9-4,8.9-8.9,8.9
			c-4.9,0-8.9-4-8.9-8.9c0,4.9-4,8.9-8.9,8.9c-4.9,0-8.9-4-8.9-8.9c0,4.9-4,8.9-8.9,8.9c-0.7,0-1.5-0.1-2.2-0.3v83h128.4v-69.2
			c0-1.9,1.5-3.4,3.4-3.4h33.8c1.9,0,3.4,1.5,3.4,3.4v69.2h13.5v-83C861.6,513.1,860.8,513.2,860.1,513.2z M794.7,587.6
			c0,1.9-1.5,3.4-3.4,3.4h-94.6c-1.9,0-3.4-1.5-3.4-3.4v-60.9c0-1.9,1.5-3.4,3.4-3.4h94.6c1.9,0,3.4,1.5,3.4,3.4V587.6z"/>
		<rect x="700.1" y="530.1" class="st17" width="87.8" height="54.1"/>
		<rect x="815.4" y="530.1" class="st17" width="26.5" height="54.1"/>
		<rect x="679.8" y="595.9" class="st1" width="128.4" height="15.3"/>
		<rect x="841.6" y="587" class="st1" width="13.2" height="15.3"/>
		<g>
			<g>
				<path class="st10" d="M863.6,487.7l-3.2-12.3l-3.1-12.3l0.7,0.6l-22.9,0.6c-3.8,0.1-7.6,0.2-11.5,0.1l-11.5,0l-45.8-0.1
					l-91.6-0.2l1.5-1.2l-5.9,27.1l-1.5-1.8l97.7,0.3l24.4,0.1l12.2,0c4.1-0.1,8.1,0,12.2,0.2l24.4,0.7c8.1,0.2,16.3,0.5,24.4,0.8
					c-8.1,0.2-16.3,0.5-24.4,0.7l-24.4,0.6c-4.1,0.1-8.1,0.2-12.2,0.1l-12.2,0l-24.4-0.1l-97.7-0.3l-1.9,0l0.4-1.8l5.9-27.1l0.3-1.2
					l1.2,0l91.6,0.1l45.8,0.1l11.5,0c3.8-0.1,7.6,0.1,11.5,0.2l22.9,0.7l0.6,0l0.1,0.6l2.5,12.4L863.6,487.7z"/>
			</g>
			<line class="st18" x1="692.3" y1="463" x2="686.3" y2="489.7"/>
			<line class="st18" x1="708.5" y1="462.7" x2="703.9" y2="489.2"/>
			<line class="st18" x1="725.6" y1="462.7" x2="721.8" y2="489.7"/>
			<line class="st18" x1="741.7" y1="463" x2="739.5" y2="489.3"/>
			<line class="st18" x1="758.6" y1="462.8" x2="758.2" y2="489.7"/>
			<line class="st18" x1="775.3" y1="463" x2="775.3" y2="489.8"/>
			<line class="st18" x1="792" y1="463" x2="793.2" y2="490"/>
			<line class="st18" x1="808.7" y1="462.9" x2="811.6" y2="489.6"/>
			<line class="st18" x1="825.5" y1="463" x2="828.8" y2="490.2"/>
			<line class="st18" x1="841.2" y1="462.7" x2="846.9" y2="490"/>
			<path class="st9" d="M830.5,490.2h15.8h18.1c0,0,4.4,13.6-6.8,16.6c0,0-12.6,1.3-11-17.7"/>
			<g>
				<path class="st10" d="M670,490.1c0,0,0,0.1-0.1,0.3c-0.1,0.2-0.2,0.6-0.3,1c-0.2,0.9-0.4,2.1-0.5,3.6c-0.1,1.5,0.1,3.3,0.7,5
					c0.6,1.8,1.9,3.4,3.6,4.5c0.8,0.6,1.8,1,2.8,1.3c0.5,0.2,1,0.3,1.5,0.4c0.5,0.1,0.9,0.2,1.4,0.2c1,0,1.9-0.2,2.7-0.6
					c0.8-0.4,1.5-0.9,2.1-1.4c0.6-0.5,1-1.1,1.4-1.7c0.4-0.5,0.6-1.1,0.8-1.5c0.4-0.9,0.6-1.4,0.6-1.4s-0.2,0.5-0.5,1.4
					c-0.2,0.4-0.4,1-0.7,1.5c-0.3,0.6-0.7,1.2-1.3,1.8c-0.6,0.6-1.3,1.2-2.1,1.7c-0.8,0.5-1.8,0.8-2.9,0.8c-0.5,0-1.1,0-1.6-0.1
					c-0.5-0.1-1.1-0.2-1.6-0.3c-1.1-0.2-2.1-0.6-3.1-1.2c-1-0.5-1.9-1.3-2.7-2.1c-0.8-0.8-1.4-1.8-1.8-2.8c-0.9-2-1.2-4-1.2-5.7
					c-0.1-1.7,0.1-3.1,0.3-4.1c0.1-0.5,0.2-0.9,0.2-1.1c0.1-0.3,0.1-0.4,0.1-0.4L670,490.1z"/>
			</g>
			<g>
				<path class="st10" d="M688.3,490c0,0,0,0.1-0.1,0.3c-0.1,0.2-0.2,0.6-0.3,1c-0.2,0.9-0.4,2.1-0.5,3.6c-0.1,1.5,0.1,3.3,0.7,5
					c0.6,1.8,1.9,3.4,3.6,4.5c0.8,0.6,1.8,1,2.8,1.3c0.5,0.2,1,0.3,1.5,0.4c0.5,0.1,0.9,0.2,1.4,0.2c1,0,1.9-0.2,2.7-0.6
					c0.8-0.4,1.5-0.9,2.1-1.4c0.6-0.5,1-1.1,1.4-1.7c0.4-0.5,0.6-1.1,0.8-1.5c0.4-0.9,0.6-1.4,0.6-1.4s-0.2,0.5-0.5,1.4
					c-0.2,0.4-0.4,1-0.7,1.5c-0.3,0.6-0.7,1.2-1.3,1.8c-0.6,0.6-1.3,1.2-2.1,1.7c-0.8,0.5-1.8,0.8-2.9,0.8c-0.5,0-1.1,0-1.6-0.1
					c-0.5-0.1-1.1-0.2-1.6-0.3c-1.1-0.2-2.1-0.6-3.1-1.2c-1-0.5-1.9-1.3-2.7-2.1c-0.8-0.8-1.4-1.8-1.8-2.8c-0.9-2-1.2-4-1.2-5.7
					c-0.1-1.7,0.1-3.1,0.3-4.1c0.1-0.5,0.2-0.9,0.2-1.1c0.1-0.3,0.1-0.4,0.1-0.4L688.3,490z"/>
			</g>
			<g>
				<path class="st10" d="M706,490c0,0,0,0.1-0.1,0.3c-0.1,0.2-0.2,0.6-0.3,1c-0.2,0.9-0.4,2.1-0.5,3.6c-0.1,1.5,0.1,3.3,0.7,5
					c0.6,1.8,1.9,3.4,3.6,4.5c0.8,0.6,1.8,1,2.8,1.3c0.5,0.2,1,0.3,1.5,0.4c0.5,0.1,0.9,0.2,1.4,0.2c1,0,1.9-0.2,2.7-0.6
					c0.8-0.4,1.5-0.9,2.1-1.4c0.6-0.5,1-1.1,1.4-1.7c0.4-0.5,0.6-1.1,0.8-1.5c0.4-0.9,0.6-1.4,0.6-1.4s-0.2,0.5-0.5,1.4
					c-0.2,0.4-0.4,1-0.7,1.5c-0.3,0.6-0.7,1.2-1.3,1.8c-0.6,0.6-1.3,1.2-2.1,1.7c-0.8,0.5-1.8,0.8-2.9,0.8c-0.5,0-1.1,0-1.6-0.1
					c-0.5-0.1-1.1-0.2-1.6-0.3c-1.1-0.2-2.1-0.6-3.1-1.2c-1-0.5-1.9-1.3-2.7-2.1c-0.8-0.8-1.4-1.8-1.8-2.8c-0.9-2-1.2-4-1.2-5.7
					c-0.1-1.7,0.1-3.1,0.3-4.1c0.1-0.5,0.2-0.9,0.2-1.1c0.1-0.3,0.1-0.4,0.1-0.4L706,490z"/>
			</g>
			<g>
				<path class="st10" d="M723.7,490.2c0,0,0,0.1-0.1,0.3c-0.1,0.2-0.2,0.6-0.3,1c-0.2,0.9-0.4,2.1-0.5,3.6c-0.1,1.5,0.1,3.3,0.7,5
					c0.6,1.8,1.9,3.4,3.6,4.5c0.8,0.6,1.8,1,2.8,1.3c0.5,0.2,1,0.3,1.5,0.4c0.5,0.1,0.9,0.2,1.4,0.2c1,0,1.9-0.2,2.7-0.6
					c0.8-0.4,1.5-0.9,2.1-1.4c0.6-0.5,1-1.1,1.4-1.7c0.4-0.5,0.6-1.1,0.8-1.5c0.4-0.9,0.6-1.4,0.6-1.4s-0.2,0.5-0.5,1.4
					c-0.2,0.4-0.4,1-0.7,1.5c-0.3,0.6-0.7,1.2-1.3,1.8c-0.6,0.6-1.3,1.2-2.1,1.7c-0.8,0.5-1.8,0.8-2.9,0.8c-0.5,0-1.1,0-1.6-0.1
					c-0.5-0.1-1.1-0.2-1.6-0.3c-1.1-0.2-2.1-0.6-3.1-1.2c-1-0.5-1.9-1.3-2.7-2.1c-0.8-0.8-1.4-1.8-1.8-2.8c-0.9-2-1.2-4-1.2-5.7
					c-0.1-1.7,0.1-3.1,0.3-4.1c0.1-0.5,0.2-0.9,0.2-1.1c0.1-0.3,0.1-0.4,0.1-0.4L723.7,490.2z"/>
			</g>
			<g>
				<path class="st10" d="M741.7,490.8c0,0,0,0.1-0.1,0.3c-0.1,0.2-0.2,0.6-0.3,1c-0.2,0.9-0.4,2.1-0.5,3.6c-0.1,1.5,0.1,3.3,0.7,5
					c0.6,1.8,1.9,3.4,3.6,4.5c0.8,0.6,1.8,1,2.8,1.3c0.5,0.2,1,0.3,1.5,0.4c0.5,0.1,0.9,0.2,1.4,0.2c1,0,1.9-0.2,2.7-0.6
					c0.8-0.4,1.5-0.9,2.1-1.4c0.6-0.5,1-1.1,1.4-1.7c0.4-0.5,0.6-1.1,0.8-1.5c0.4-0.9,0.6-1.4,0.6-1.4s-0.2,0.5-0.5,1.4
					c-0.2,0.4-0.4,1-0.7,1.5c-0.3,0.6-0.7,1.2-1.3,1.8c-0.6,0.6-1.3,1.2-2.1,1.7c-0.8,0.5-1.8,0.8-2.9,0.8c-0.5,0-1.1,0-1.6-0.1
					c-0.5-0.1-1.1-0.2-1.6-0.3c-1.1-0.2-2.1-0.6-3.1-1.2c-1-0.5-1.9-1.3-2.7-2.1c-0.8-0.8-1.4-1.8-1.8-2.8c-0.9-2-1.2-4-1.2-5.7
					c-0.1-1.7,0.1-3.1,0.3-4.1c0.1-0.5,0.2-0.9,0.2-1.1c0.1-0.3,0.1-0.4,0.1-0.4L741.7,490.8z"/>
			</g>
			<g>
				<path class="st10" d="M759,490.1c0,0,0,0.1-0.1,0.3c-0.1,0.2-0.2,0.6-0.3,1c-0.2,0.9-0.4,2.1-0.5,3.6c-0.1,1.5,0.1,3.3,0.7,5
					c0.6,1.8,1.9,3.4,3.6,4.5c0.8,0.6,1.8,1,2.8,1.3c0.5,0.2,1,0.3,1.5,0.4c0.5,0.1,0.9,0.2,1.4,0.2c1,0,1.9-0.2,2.7-0.6
					c0.8-0.4,1.5-0.9,2.1-1.4c0.6-0.5,1-1.1,1.4-1.7c0.4-0.5,0.6-1.1,0.8-1.5c0.4-0.9,0.6-1.4,0.6-1.4s-0.2,0.5-0.5,1.4
					c-0.2,0.4-0.4,1-0.7,1.5c-0.3,0.6-0.7,1.2-1.3,1.8c-0.6,0.6-1.3,1.2-2.1,1.7c-0.8,0.5-1.8,0.8-2.9,0.8c-0.5,0-1.1,0-1.6-0.1
					c-0.5-0.1-1.1-0.2-1.6-0.3c-1.1-0.2-2.1-0.6-3.1-1.2c-1-0.5-1.9-1.3-2.7-2.1c-0.8-0.8-1.4-1.8-1.8-2.8c-0.9-2-1.2-4-1.2-5.7
					c-0.1-1.7,0.1-3.1,0.3-4.1c0.1-0.5,0.2-0.9,0.2-1.1c0.1-0.3,0.1-0.4,0.1-0.4L759,490.1z"/>
			</g>
			<g>
				<path class="st10" d="M777.1,490.8c0,0,0,0.1-0.1,0.3c-0.1,0.2-0.2,0.6-0.3,1c-0.2,0.9-0.4,2.1-0.5,3.6c-0.1,1.5,0.1,3.3,0.7,5
					c0.6,1.8,1.9,3.4,3.6,4.5c0.8,0.6,1.8,1,2.8,1.3c0.5,0.2,1,0.3,1.5,0.4c0.5,0.1,0.9,0.2,1.4,0.2c1,0,1.9-0.2,2.7-0.6
					c0.8-0.4,1.5-0.9,2.1-1.4c0.6-0.5,1-1.1,1.4-1.7c0.4-0.5,0.6-1.1,0.8-1.5c0.4-0.9,0.6-1.4,0.6-1.4s-0.2,0.5-0.5,1.4
					c-0.2,0.4-0.4,1-0.7,1.5c-0.3,0.6-0.7,1.2-1.3,1.8c-0.6,0.6-1.3,1.2-2.1,1.7c-0.8,0.5-1.8,0.8-2.9,0.8c-0.5,0-1.1,0-1.6-0.1
					c-0.5-0.1-1.1-0.2-1.6-0.3c-1.1-0.2-2.1-0.6-3.1-1.2c-1-0.5-1.9-1.3-2.7-2.1c-0.8-0.8-1.4-1.8-1.8-2.8c-0.9-2-1.2-4-1.2-5.7
					c-0.1-1.7,0.1-3.1,0.3-4.1c0.1-0.5,0.2-0.9,0.2-1.1c0.1-0.3,0.1-0.4,0.1-0.4L777.1,490.8z"/>
			</g>
			<g>
				<path class="st10" d="M794.7,490.5c0,0,0,0.1-0.1,0.3c-0.1,0.2-0.2,0.6-0.3,1c-0.2,0.9-0.4,2.1-0.5,3.6c-0.1,1.5,0.1,3.3,0.7,5
					c0.6,1.8,1.9,3.4,3.6,4.5c0.8,0.6,1.8,1,2.8,1.3c0.5,0.2,1,0.3,1.5,0.4c0.5,0.1,0.9,0.2,1.4,0.2c1,0,1.9-0.2,2.7-0.6
					c0.8-0.4,1.5-0.9,2.1-1.4c0.6-0.5,1-1.1,1.4-1.7c0.4-0.5,0.6-1.1,0.8-1.5c0.4-0.9,0.6-1.4,0.6-1.4s-0.2,0.5-0.5,1.4
					c-0.2,0.4-0.4,1-0.7,1.5c-0.3,0.6-0.7,1.2-1.3,1.8c-0.6,0.6-1.3,1.2-2.1,1.7c-0.8,0.5-1.8,0.8-2.9,0.8c-0.5,0-1.1,0-1.6-0.1
					c-0.5-0.1-1.1-0.2-1.6-0.3c-1.1-0.2-2.1-0.6-3.1-1.2c-1-0.5-1.9-1.3-2.7-2.1c-0.8-0.8-1.4-1.8-1.8-2.8c-0.9-2-1.2-4-1.2-5.7
					c-0.1-1.7,0.1-3.1,0.3-4.1c0.1-0.5,0.2-0.9,0.2-1.1c0.1-0.3,0.1-0.4,0.1-0.4L794.7,490.5z"/>
			</g>
			<g>
				<path class="st10" d="M812.5,491.2c0,0,0,0.1-0.1,0.3c-0.1,0.2-0.2,0.6-0.3,1c-0.2,0.9-0.4,2.1-0.5,3.6c-0.1,1.5,0.1,3.3,0.7,5
					c0.6,1.8,1.9,3.4,3.6,4.5c0.8,0.6,1.8,1,2.8,1.3c0.5,0.2,1,0.3,1.5,0.4c0.5,0.1,0.9,0.2,1.4,0.2c1,0,1.9-0.2,2.7-0.6
					c0.8-0.4,1.5-0.9,2.1-1.4c0.6-0.5,1-1.1,1.4-1.7c0.4-0.5,0.6-1.1,0.8-1.5c0.4-0.9,0.6-1.4,0.6-1.4s-0.2,0.5-0.5,1.4
					c-0.2,0.4-0.4,1-0.7,1.5c-0.3,0.6-0.7,1.2-1.3,1.8c-0.6,0.6-1.3,1.2-2.1,1.7c-0.8,0.5-1.8,0.8-2.9,0.8c-0.5,0-1.1,0-1.6-0.1
					c-0.5-0.1-1.1-0.2-1.6-0.3c-1.1-0.2-2.1-0.6-3.1-1.2c-1-0.5-1.9-1.3-2.7-2.1c-0.8-0.8-1.4-1.8-1.8-2.8c-0.9-2-1.2-4-1.2-5.7
					c-0.1-1.7,0.1-3.1,0.3-4.1c0.1-0.5,0.2-0.9,0.2-1.1c0.1-0.3,0.1-0.4,0.1-0.4L812.5,491.2z"/>
			</g>
			<g>
				<path class="st10" d="M829.9,491c0,0,0,0.1-0.1,0.3c-0.1,0.2-0.2,0.6-0.3,1c-0.2,0.9-0.4,2.1-0.5,3.6c-0.1,1.5,0.1,3.3,0.7,5
					c0.6,1.8,1.9,3.4,3.6,4.5c0.8,0.6,1.8,1,2.8,1.3c0.5,0.2,1,0.3,1.5,0.4c0.5,0.1,0.9,0.2,1.4,0.2c1,0,1.9-0.2,2.7-0.6
					c0.8-0.4,1.5-0.9,2.1-1.4c0.6-0.5,1-1.1,1.4-1.7c0.4-0.5,0.6-1.1,0.8-1.5c0.4-0.9,0.6-1.4,0.6-1.4s-0.2,0.5-0.5,1.4
					c-0.2,0.4-0.4,1-0.7,1.5c-0.3,0.6-0.7,1.2-1.3,1.8c-0.6,0.6-1.3,1.2-2.1,1.7c-0.8,0.5-1.8,0.8-2.9,0.8c-0.5,0-1.1,0-1.6-0.1
					c-0.5-0.1-1.1-0.2-1.6-0.3c-1.1-0.2-2.1-0.6-3.1-1.2c-1-0.5-1.9-1.3-2.7-2.1c-0.8-0.8-1.4-1.8-1.8-2.8c-0.9-2-1.2-4-1.2-5.7
					c-0.1-1.7,0.1-3.1,0.3-4.1c0.1-0.5,0.2-0.9,0.2-1.1c0.1-0.3,0.1-0.4,0.1-0.4L829.9,491z"/>
			</g>
		</g>
		<g>
			<path class="st10" d="M861.2,618.9l-24.2,0l-24.2,0.1l-48.4,0.4l-48.4,0.2l-24.2,0.1l-12.1,0l-6,0l-0.8,0l-0.2,0l-0.2,0l-0.2,0
				l-0.3,0c-0.7-0.1-1.3-0.4-1.8-0.7c-1.1-0.8-1.7-2.1-1.7-3.4l2,0l-2,0c0-1.4,0.7-2.7,1.8-3.5c0.6-0.4,1.2-0.6,1.9-0.7
				c0.2,0,0.3,0,0.5,0l0.4,0l0.8,0l6.2,0l12.4-0.1l24.8-0.1l24.8-0.1l24.8,0c8.3,0,16.5,0.1,24.8,0.2c8.3,0,16.5,0.2,24.8,0.3
				l24.8,0.4c4.1,0.1,8.3,0.1,12.4,0.1l6.2,0c0.5,0,1,0,1.6,0c0.6,0.1,1.1,0.3,1.5,0.6c0.9,0.6,1.5,1.7,1.4,2.8l-0.3,0l0.3,0
				c0,0.9-0.4,1.8-1,2.4C862.9,618.5,862,618.9,861.2,618.9z M861.2,618.6c0.8,0,1.6-0.3,2.2-0.9c0.6-0.6,0.9-1.4,0.9-2.2l0.3,0
				l-0.3,0c0-1-0.5-1.9-1.3-2.5c-0.4-0.3-0.9-0.4-1.3-0.5c-0.5,0-1,0-1.5,0l-6.2,0c-4.1,0-8.3,0-12.4,0.1l-24.8,0.4
				c-8.3,0.1-16.5,0.3-24.8,0.3c-8.3,0.1-16.5,0.2-24.8,0.2l-24.8,0l-24.8-0.1l-24.8-0.1l-12.4-0.1l-6.2,0l-0.8,0l-0.4,0
				c-0.1,0-0.2,0-0.3,0c-0.4,0-0.7,0.2-1,0.4c-0.6,0.4-1,1.1-1,1.8l-2,0l2,0c0,0.7,0.3,1.4,0.9,1.8c0.3,0.2,0.6,0.4,0.9,0.4l0.1,0
				l0.2,0l0.1,0c0,0,0.1,0,0,0l0,0l0.2,0l0.8,0l6,0l12.1,0l24.2,0.1l48.4,0.2l48.4,0.4l24.2,0.1L861.2,618.6z"/>
		</g>
		<rect x="675.6" y="605.1" class="st18" width="183.2" height="7.2"/>
		<g>
			<path class="st10" d="M810.8,527.7c0,0,0,2.4,0,6.7c0,2.1,0,4.7,0.1,7.6c0,3,0.1,6.3,0.2,9.9c0.1,3.6,0.2,7.6,0.3,11.7
				c0,2.1,0.1,4.2,0.1,6.4c0,1.1,0,2.2,0,3.3l0,0.4c0,0.1,0,0.3,0,0.4c0,0.2,0.1,0.4,0.2,0.6c0.2,0.4,0.4,0.8,0.7,1.1
				c0.3,0.3,0.7,0.5,1.1,0.6c0.4,0.1,0.8,0.1,1.4,0.1c1.2,0,2.3,0,3.5,0c2.3,0,4.7-0.1,7.1-0.1c2.4,0,4.8-0.1,7.2-0.1
				c0.6,0,1.3,0,1.8,0c0.3,0,0.8-0.2,1.1-0.4c0.7-0.5,1.1-1.3,1.1-2.1c-0.1-9.7-0.3-19.4-0.4-28.5c0-4.5,0-8.9,0.1-13.1
				c0-1,0-2.1,0.1-3.1c0-0.5,0-1,0-1.4c0-0.1,0-0.3,0-0.3c0-0.1,0-0.1,0-0.2c0-0.2-0.1-0.3-0.1-0.5c-0.2-0.6-0.7-1.1-1.3-1.4
				c-0.3-0.1-0.6-0.2-0.9-0.2c-0.5,0-0.9,0-1.4-0.1c-3.6-0.2-7-0.3-9.9-0.5c-3-0.1-5.5-0.2-7.6-0.3c-0.5,0-1-0.1-1.5,0
				c-0.4,0.1-0.8,0.2-1.2,0.4c-0.7,0.4-1.1,0.9-1.4,1.4C810.8,527.1,810.9,527.7,810.8,527.7z M810.5,527.7c0,0-0.1-0.7,0.4-1.8
				c0.3-0.5,0.7-1.2,1.5-1.6c0.4-0.2,0.8-0.4,1.3-0.5c0.5-0.1,1-0.1,1.5-0.1c2.1-0.1,4.7-0.1,7.6-0.3c3-0.1,6.3-0.3,9.9-0.5
				c0.5,0,0.9,0,1.4-0.1c0.6,0,1.2,0.1,1.8,0.3c1.2,0.4,2.2,1.3,2.8,2.5c0.1,0.3,0.3,0.6,0.3,0.9c0,0.2,0.1,0.4,0.1,0.5
				c0,0.2,0,0.3,0,0.4c0,0.5,0,1,0.1,1.6c0,1,0,2,0.1,3.1c0.1,4.2,0.1,8.6,0.1,13.1c0,9.1-0.2,18.8-0.4,28.5c0,1.6-0.9,3.2-2.2,4
				c-0.7,0.4-1.4,0.7-2.3,0.8c-0.7,0-1.2,0-1.9,0c-2.4,0-4.8-0.1-7.2-0.1c-2.4,0-4.8-0.1-7.1-0.1c-1.2,0-2.3,0-3.5,0
				c-0.5,0-1.3,0-2-0.2c-0.7-0.2-1.3-0.6-1.8-1.1c-0.5-0.5-0.9-1.1-1.1-1.7c-0.1-0.3-0.2-0.7-0.2-1c0-0.2,0-0.3,0-0.4l0-0.5
				c0-1.1,0-2.2,0-3.3c0-2.2,0.1-4.3,0.1-6.4c0.1-4.2,0.2-8.1,0.3-11.7c0.1-3.6,0.2-7,0.2-9.9c0.1-3,0.1-5.5,0.1-7.6
				C810.5,530.1,810.5,527.7,810.5,527.7z"/>
		</g>
		<g>
			<g>
				<polygon class="st10" points="730.4,523.2 769.2,577.8 728.4,524.7 				"/>
			</g>
			<polyline class="st9" points="763,577.5 722.5,523.7 732.2,523.8 			"/>
		</g>
		<g>
			<g>
				<polygon class="st10" points="715.9,522.9 754.4,576.7 713.9,524.4 				"/>
			</g>
			<polyline class="st9" points="742.5,577.3 702.5,523.7 712.4,523.7 			"/>
		</g>
		<g>
			<g>
				<path class="st10" d="M790.2,519.4c0,0,0,5.2,0,14.4c0,4.6,0,10.1,0.1,16.5c0.1,6.4,0.1,13.6,0.2,21.4c0,3.9,0.1,8,0.1,12.3
					c-0.1,0.7-0.4,1.4-1,1.8c-0.3,0.2-0.6,0.3-1,0.4c-0.4,0.1-0.6,0-0.9,0c-1.1,0-2.2,0-3.2,0c-2.2,0-4.4,0-6.6,0.1
					c-9,0.1-18.5,0.1-28.3,0.2c-9.8,0.1-19.9,0.1-30.2,0.2c-5.1,0-10.3,0.1-15.5,0.1c-2.6,0-5.2,0-7.8,0l-3.9,0l-1,0l-0.3,0
					c-0.1,0-0.3,0-0.4-0.1c-0.3-0.1-0.5-0.2-0.8-0.3c-1-0.5-1.6-1.6-1.6-2.7c-0.1-20.9-0.2-41.8-0.4-61.4l0-1.8l0-0.9l0-0.3l0-0.1
					l0-0.2c0.1-0.3,0.1-0.6,0.2-0.8c0.4-1,1.4-1.8,2.6-2c0.7-0.1,0.8,0,1.1,0l0.9,0c2.4,0,4.8,0,7.2,0c4.7,0,9.3,0,13.8,0.1
					c9,0.1,17.5,0.2,25.3,0.4c7.8,0.2,15,0.3,21.4,0.5c6.4,0.1,11.9,0.2,16.5,0.3c4.6,0,8.2,0.1,10.6,0.1c0.3,0,0.6,0,0.9,0
					c0.3,0,0.6,0.1,0.8,0.2c0.5,0.2,0.8,0.5,0.9,0.8C790.3,519,790.2,519.4,790.2,519.4z M789.9,519.4c0,0,0.1-0.3-0.2-0.8
					c-0.1-0.2-0.4-0.5-0.8-0.7c-0.4-0.2-0.9-0.1-1.5-0.1c-2.5,0-6,0.1-10.6,0.1c-4.6,0.1-10.1,0.1-16.5,0.3
					c-6.4,0.1-13.6,0.3-21.4,0.5c-7.8,0.2-16.3,0.3-25.3,0.4c-4.5,0.1-9.1,0.1-13.8,0.1c-2.4,0-4.7,0-7.2,0l-0.9,0
					c-0.3,0-0.7,0-0.7,0c-0.1,0-0.2,0.1-0.2,0.2c0,0,0,0.1,0,0c0,0,0,0,0,0l0,0.1c0,0.1,0,0,0,0l0,0.1l0,0.9l0,1.8
					c-0.1,19.6-0.2,40.5-0.4,61.4c0,0.2,0.1,0.4,0.3,0.6c0.1,0,0.1,0,0.2,0.1c0,0,0,0,0,0l0.1,0c-0.1,0,0,0,0.1,0l1,0l3.9,0
					c2.6,0,5.2,0,7.8,0c5.2,0,10.4,0.1,15.5,0.1c10.3,0.1,20.4,0.1,30.2,0.2c9.8,0.1,19.3,0.1,28.3,0.2c2.2,0,4.5,0,6.6,0.1
					c1.1,0,2.2,0,3.2,0c0.6,0,0.9,0,1.2-0.2c0.3-0.2,0.5-0.6,0.5-0.9c0-4.2,0.1-8.3,0.1-12.2c0.1-7.8,0.2-15,0.2-21.4
					c0.1-6.4,0.1-11.9,0.1-16.5C789.9,524.6,789.9,519.4,789.9,519.4z"/>
			</g>
			<g>
				<path class="st10" d="M781.9,523.8c0,0-4.4,0-12,0c-3.8,0-8.5,0-13.8,0.1c-5.3,0.1-11.4,0.1-17.9,0.2
					c-6.6,0.1-13.7,0.2-21.2,0.3c-3.8,0-7.6,0.1-11.6,0.1c-2,0-4,0-6,0l-1.5,0c-0.3,0-0.5,0-0.6,0c-0.1,0-0.2,0.1-0.3,0.1
					c-0.1,0.1-0.2,0.2-0.2,0.3c0,0.1,0,0.1,0,0.2c0,0,0,0.1,0,0.1l0,0.2l0,1.5c0.1,8.2,0.1,16.7,0.2,25.3c0,4.3,0.1,8.7,0.1,13
					c0,2.2,0,4.4,0,6.6l0,3.3l0,0.8l0,0.1c0-0.1,0,0,0,0c0,0.1,0,0,0,0c0,0,0,0.1,0,0.1c0.1,0.1,0.2,0.2,0.3,0.2
					c17.5-0.1,35-0.3,51.5-0.4c8.2,0,16.2,0,23.7,0.1c1.9,0,3.7,0,5.6,0.1c0.9,0,1.8,0,2.7,0.1c0.4,0,0.9,0,1.3,0
					c-0.1,0,0.1,0,0.1-0.1c0,0,0-0.1,0-0.1c0,0.1,0-0.3,0-0.5c0-0.4,0-0.9,0-1.3c0-0.9,0-1.7,0.1-2.6c0-1.7,0.1-3.4,0.1-5
					c0.2-6.6,0.3-12.6,0.5-17.9c0.1-5.3,0.2-10,0.3-13.8c0-3.8,0.1-6.8,0.1-8.9c0-0.5,0.1-1-0.1-1.3c-0.1-0.3-0.3-0.5-0.6-0.7
					C782.2,523.8,781.9,523.9,781.9,523.8z M781.9,523.5c0,0,0.3-0.1,0.8,0.2c0.3,0.1,0.5,0.4,0.7,0.8c0.2,0.4,0.1,0.9,0.1,1.4
					c0,2.1,0.1,5.1,0.1,8.9c0.1,3.8,0.1,8.5,0.3,13.8c0.1,5.3,0.3,11.4,0.5,17.9c0,1.6,0.1,3.3,0.1,5c0,0.9,0,1.7,0.1,2.6
					c0,0.4,0,0.9,0,1.3c0,0.3,0,0.3,0,0.8c0,0.4-0.2,0.8-0.4,1.1c-0.5,0.7-1.1,1.2-2.1,1.3l-0.2,0l-0.2,0l-0.3,0l-0.7,0
					c-0.9,0-1.8,0-2.7,0.1c-1.8,0-3.7,0-5.6,0.1c-7.5,0.1-15.5,0.1-23.7,0.1c-16.4,0-34-0.2-51.5-0.4c-1,0-2-0.6-2.4-1.5
					c-0.1-0.2-0.2-0.5-0.2-0.7c0-0.1,0-0.3,0-0.4l0-0.3l0-0.8l0-3.3c0-2.2,0-4.4,0-6.6c0-4.4,0.1-8.7,0.1-13
					c0.1-8.6,0.1-17.1,0.2-25.3l0-1.5l0-0.2c0-0.1,0-0.2,0-0.3c0-0.2,0.1-0.4,0.2-0.6c0.2-0.4,0.4-0.7,0.7-0.9
					c0.3-0.2,0.7-0.4,1.1-0.5c0.4,0,0.6,0,0.9,0l1.5,0c2,0,4,0,6,0c4,0,7.8,0.1,11.6,0.1c7.5,0.1,14.6,0.2,21.2,0.3
					c6.6,0.1,12.6,0.2,17.9,0.2c5.3,0.1,10,0.1,13.8,0.1C777.5,523.5,781.9,523.5,781.9,523.5z"/>
			</g>
		</g>
		<g>
			<path class="st10" d="M844.2,519.9c0,0,0,3.9,0,10.8c0,3.4,0,7.6,0.1,12.4c0.1,4.8,0.1,10.2,0.2,16.1c0.1,5.9,0.2,12.3,0.3,19.1
				c0.1,6.8,0.1,13.9,0.2,21.3l0,1.4c0,0.3,0,0.4,0,0.7c0,0.2,0,0.6-0.1,0.8c-0.2,1.1-0.9,2.2-1.9,2.8c-0.5,0.3-1,0.6-1.6,0.7
				c-0.3,0.1-0.6,0.1-0.9,0.1l-0.7,0c-0.9,0-1.9,0-2.8,0c-3.8,0-7.7,0.1-11.5,0.1c-3.9,0-7.8,0.1-11.7,0.1c-2,0-3.9,0-5.9,0
				c-0.5,0-1.3-0.1-1.9-0.3c-0.6-0.2-1.2-0.6-1.6-1c-0.9-0.9-1.5-2.2-1.5-3.5c-0.1-15.8-0.3-31.5-0.4-46.3c0-7.4,0-14.5,0.1-21.3
				c0-3.4,0.1-6.7,0.2-9.9c0-0.8,0-1.6,0-2.4c0-0.4,0-0.8,0-1.2l0-0.6l0-0.3c0-0.1,0-0.2,0-0.3c0.3-2.1,1.9-3.7,3.7-4.1
				c0.2-0.1,0.5-0.1,0.7-0.1c0.2,0,0.5,0,0.6,0c0.4,0,0.7,0,1.1,0c0.7,0,1.4,0,2.1,0.1c1.4,0,2.8,0.1,4.1,0.1
				c2.7,0.1,5.3,0.1,7.7,0.2c4.8,0.1,9,0.2,12.4,0.3c1.7,0,3.3,0,4.6,0.1c0.7,0,1.3,0.1,1.9,0.3c0.6,0.2,1,0.6,1.3,0.9
				c0.7,0.7,0.9,1.5,1,1.9c0,0.2,0.1,0.4,0.1,0.6C844.2,519.8,844.2,519.9,844.2,519.9z M843.9,519.9c0,0,0-0.1,0-0.2
				c0-0.1,0-0.3-0.1-0.5c-0.1-0.4-0.3-1.1-0.9-1.8c-1.2-1.6-4.2-0.9-7.6-1c-3.4,0.1-7.6,0.1-12.4,0.3c-2.4,0.1-5,0.1-7.7,0.2
				c-1.3,0-2.7,0.1-4.1,0.1c-0.7,0-1.4,0-2.1,0.1c-0.4,0-0.7,0-1.1,0c-0.4,0-0.6,0-0.9,0.1c-0.5,0.1-1,0.4-1.3,0.9
				c-0.3,0.4-0.6,1-0.6,1.4c0,0,0,0.2,0,0.3c0,0,0,0.2,0,0.1l0,0.1l0,0.6c0,0.4,0,0.8,0,1.2c0,0.8,0,1.6,0,2.4
				c0.1,3.2,0.1,6.5,0.2,9.9c0.1,6.8,0.1,13.9,0.1,21.3c0,14.8-0.2,30.5-0.4,46.3c0,1.4,1.2,2.6,2.6,2.6c2,0,3.9,0,5.9,0
				c3.9,0,7.8,0.1,11.7,0.1c3.9,0,7.7,0.1,11.5,0.1c1,0,1.9,0,2.8,0l0.7,0c0.2,0,0.4,0,0.5-0.1c0.3-0.1,0.7-0.2,1-0.4
				c0.6-0.4,1-1,1.2-1.7c0.1-0.6,0.1-1.7,0.1-2.6c0.1-7.4,0.1-14.5,0.2-21.3c0.1-6.8,0.2-13.2,0.3-19.1c0.1-5.9,0.2-11.3,0.2-16.1
				c0.1-4.8,0.1-9,0.1-12.4C843.9,523.8,843.9,519.9,843.9,519.9z"/>
		</g>
		<g>
			<path class="st10" d="M674.9,461.5c0,0-0.1-0.8-0.1-2.2c0-0.7,0.1-1.6,0.4-2.7c0.3-1,0.8-2.2,2-3.1c0.1-0.1,0.3-0.2,0.4-0.3
				c0.2-0.1,0.3-0.2,0.5-0.2c0.3-0.2,0.7-0.3,1.1-0.3c0.4-0.1,0.8-0.1,1.2-0.1c0.4,0,0.8,0,1.2,0c1.6,0,3.4,0,5.3-0.1
				c3.8,0,8-0.1,12.7-0.1c18.6-0.2,43.4-0.4,68.3-0.6c12.4-0.1,24.8-0.3,36.5-0.3c5.8,0,11.4,0,16.8,0.1c5.3,0.1,10.4,0.1,15,0.2
				c4.7,0.1,8.9,0.2,12.7,0.3c1.9,0,3.7,0.1,5.3,0.1c0.2,0,0.4,0,0.6,0c0.2,0,0.5,0,0.7,0.1c0.4,0.1,0.8,0.2,1.2,0.4
				c0.8,0.4,1.4,1,1.7,1.7c0.3,0.7,0.3,1.5,0.2,2.1c-0.1,0.6-0.1,1.2-0.1,1.7c-0.1,1.1-0.2,1.9-0.2,2.7c-0.1,1.4-0.2,2.2-0.2,2.2
				l-0.2,0c0,0,0-0.8,0-2.2c0-0.7,0-1.6,0-2.7c0-0.5,0-1.1,0-1.7c0-0.6,0-1.2-0.3-1.7c-0.5-1.1-1.9-1.6-3.4-1.4
				c-1.6,0-3.4,0.1-5.3,0.1c-3.8,0.1-8,0.2-12.7,0.3c-4.7,0.1-9.7,0.1-15,0.2c-5.3,0.1-11,0.1-16.8,0.1c-11.6,0-24-0.2-36.5-0.3
				c-24.8-0.2-49.6-0.4-68.3-0.6c-4.7,0-8.9-0.1-12.7-0.1c-1.9,0-3.7,0-5.3-0.1c-0.4,0-0.8,0-1.2,0c-0.4,0-0.8,0-1.1,0.1
				c-0.4,0.1-0.7,0.1-1,0.3c-0.2,0.1-0.3,0.1-0.5,0.2c-0.1,0.1-0.3,0.2-0.4,0.3c-1.1,0.8-1.6,1.9-1.9,2.9c-0.3,1-0.4,1.9-0.5,2.6
				c-0.1,1.4,0,2.2,0,2.2L674.9,461.5z"/>
		</g>
		<g>
			<path class="st10" d="M858.1,507.2c0.3,8.6,0.5,17.1,0.6,25.7l0.3,12.9c0.1,4.3,0.2,8.6,0.2,12.9l-0.1,12.8l0,12.8l-0.1,25.7
				l-0.1-0.5c0.1,0.4,0.1,0.5,0.2,0.8c0,0.2,0,0.5-0.1,0.7c-0.1,0.5-0.4,0.9-0.6,1.2c-0.6,0.6-1.2,0.8-1.8,1
				c-1.1,0.3-2.2,0.4-3.2,0.4l-5.7,0l-11.5-0.1l-23-0.1l-46-0.3l-92-0.5l-1.2,0v-1.2v-26.1v-13l0-13c0-4.3,0.2-8.7,0.3-13l0.3-13
				c0.2-8.7,0.4-17.4,0.7-26.1c0.3,8.7,0.5,17.4,0.7,26.1l0.3,13c0.1,4.3,0.3,8.7,0.3,13l0,13v13v26.1l-1.2-1.2l92,0.5l46,0.3
				l23,0.1l11.5,0.1l5.7,0c0.9,0,1.8-0.1,2.5-0.3c0.3-0.1,0.6-0.3,0.7-0.3c0,0,0-0.1,0-0.1c0,0,0,0,0,0c0,0,0-0.1,0,0.1l-0.1-0.5
				l0.1-25.7l0-12.9l0-12.9c0-4.3,0.2-8.6,0.3-12.8l0.3-12.8C857.5,524.3,857.8,515.7,858.1,507.2z"/>
		</g>
		<g>
			<path class="st10" d="M801.5,590.4c0,0-7.8,0.1-19.6,0.3c-11.8,0.2-27.4,0.3-43.1,0.5c-7.8,0.1-15.7,0.2-23,0.2
				c-3.7,0-7.2,0-10.6-0.1c-3.4-0.1-6.6-0.1-9.5-0.2c-11.8-0.3-19.6-0.9-19.6-0.9l0-0.3c0,0,7.8-0.5,19.6-0.8
				c2.9-0.1,6.1-0.1,9.5-0.2c3.4-0.1,6.9,0,10.6-0.1c7.3,0.1,15.2,0.2,23,0.4c15.7,0.2,31.3,0.4,43.1,0.7
				c11.8,0.2,19.6,0.4,19.6,0.4L801.5,590.4z"/>
		</g>
		<line class="st9" x1="844.3" y1="590" x2="857.3" y2="589.9"/>
	</g>
	<g>
		<path class="st3" d="M589,546.8l4.7-3.7l3.3-3.5l0.8,3l1.5-2.6l6.1-2.1v1.1l4.8-1.8l0.9,1.6l5.5-1l1.8,1.4l6.7,3.3l-0.4,1.7
			l2.6-0.4l5.9,6.8c0,0,3.9,11.2,3.5,13.6c0,0-5.9-15.9-10.1-15c0,0,7.9,9.9,7.5,16.3c0,0,5.5,2.5,4.7,4.3c-0.9,1.8-1.9,3.5-1.9,3.5
			l-0.1,2.7l-2.6,4c0,0-1.4,3.3-1.9,3.7c-0.5,0.4-2.6,1.2-2.6,1.2l-1.8,3.4c0,0-8.5,5.8-16.7,4.5l-6.5,1l-2.1-3c0,0-7.7,0.9-8.6-1
			c-0.9-1.9-1.5-3.8-4.4-4.6c-2.9-0.8-4.7-7.1-4.7-7.1l-2.2-1.3l1.8-1.2c0,0-3.7-5-1.8-5.8l-0.7-4.6c0,0,0.9-5.9,2-6.9l0.3-3.3
			l2.5-3.4l1.9-1.7L589,546.8z"/>
		<g>
			<path class="st9" d="M610.1,596.2c0,0,0.4-22-1-24.9"/>
			<g>
				<path class="st10" d="M609.7,576.4c0,0,0.2-0.3,0.5-0.8c0.2-0.3,0.3-0.6,0.6-0.9c0.1-0.2,0.2-0.4,0.3-0.5
					c0.1-0.2,0.4-0.2,0.5-0.4c1.5-1.1,3.3-2.8,5-4.5c0.8-0.9,1.6-1.8,2.2-2.7c0.3-0.5,0.6-0.9,0.8-1.3c0.2-0.4,0.4-0.9,0.5-1.2
					c0.1-0.2,0-0.4,0.2-0.5c0.1-0.2,0.2-0.3,0.3-0.5c0.1-0.3,0.3-0.6,0.3-0.9c0.1-0.3,0.1-0.5,0.1-0.6c0-0.2,0-0.2,0-0.2
					s0.1,0.1,0.2,0.2c0.1,0.1,0.3,0.3,0.4,0.6c0.2,0.3,0.3,0.7,0.4,1.1c0,0.2,0.1,0.5,0.1,0.7c0,0.1,0,0.3-0.1,0.4
					c0,0.1-0.1,0.3-0.1,0.4c-0.6,2.1-2.2,4.2-4,6.1c-1.8,1.9-3.7,3.5-5.2,4.7c-0.2,0.1-0.3,0.3-0.5,0.4c-0.2,0.1-0.4,0.1-0.6,0.2
					c-0.4,0.1-0.7,0.2-1,0.3C610,576.3,609.7,576.4,609.7,576.4z"/>
			</g>
			<g>
				<path class="st10" d="M607.2,562.1c0,0-0.1-0.2-0.1-0.6c0-0.2-0.1-0.4-0.1-0.6c0-0.1,0-0.2,0-0.4c0-0.1,0.1-0.2,0.2-0.3
					c0.5-0.8,1.2-1.9,1.9-3c0.8-1.1,1.6-2.1,2.4-2.8c0.1-0.1,0.1-0.2,0.3-0.2c0.1,0,0.3,0,0.4,0c0.2,0,0.5,0,0.7,0
					c0.4,0,0.6,0.1,0.6,0.1s-0.1,0.2-0.1,0.6c0,0.2-0.1,0.4-0.1,0.6c0,0.1,0,0.2-0.1,0.3c0,0.1,0,0.1-0.1,0.1c0,0-0.1,0.1-0.1,0.1
					c-0.6,0.6-1.4,1.5-2.1,2.5c-0.7,1-1.4,2-1.8,2.8c-0.1,0.1-0.1,0.2-0.2,0.3c-0.1,0.1-0.2,0.1-0.3,0.2c-0.2,0.1-0.4,0.2-0.6,0.2
					C607.4,562,607.2,562.1,607.2,562.1z"/>
			</g>
			<g>
				<path class="st10" d="M608,570c0,0-0.3-0.2-0.7-0.5c-0.2-0.2-0.4-0.3-0.7-0.6c-0.1-0.1-0.3-0.2-0.4-0.4
					c-0.1-0.1-0.1-0.3-0.2-0.5c-0.7-1.4-1.6-3.3-2.5-5.2c-0.9-1.9-1.8-3.8-2.5-5.2c-0.1-0.2-0.2-0.3-0.2-0.5c0-0.2,0-0.4,0-0.6
					c0-0.3,0-0.7,0-0.9c0-0.5,0-0.8,0-0.8s0.2,0.2,0.7,0.5c0.2,0.2,0.4,0.3,0.7,0.6c0.1,0.1,0.3,0.2,0.4,0.4
					c0.2,0.1,0.1,0.3,0.3,0.5c0.7,1.4,1.6,3.3,2.5,5.2c0.9,1.9,1.8,3.8,2.5,5.2c0.1,0.2,0.2,0.3,0.2,0.5c0,0.2,0,0.4,0,0.6
					c0,0.3,0,0.7,0,0.9C608,569.7,608,570,608,570z"/>
			</g>
			<g>
				<path class="st10" d="M610.1,585.2c0,0-0.4,0-1-0.1c-0.3,0-0.7-0.1-1.1-0.2c-0.2-0.1-0.4-0.1-0.6-0.2c-0.2-0.1-0.4-0.3-0.6-0.4
					c-0.8-0.6-1.7-1.3-2.6-2.1c-0.5-0.4-0.9-0.8-1.4-1.3c-0.4-0.5-0.9-0.9-1.3-1.4c-0.4-0.5-0.9-1-1.3-1.5c-0.4-0.5-0.8-1-1.1-1.5
					c-0.4-0.5-0.7-1-0.9-1.5c-0.3-0.5-0.6-0.9-0.8-1.4c-0.1-0.2-0.3-0.4-0.3-0.6c0-0.2,0-0.5-0.1-0.7c0-0.4,0-0.8,0-1.1
					c0-0.6,0.1-0.9,0.1-0.9s0.3,0.3,0.7,0.7c0.2,0.2,0.4,0.5,0.7,0.8c0.1,0.1,0.3,0.3,0.5,0.4c0.2,0.1,0.2,0.4,0.3,0.6
					c0.2,0.4,0.4,0.8,0.7,1.3c0.2,0.5,0.5,0.9,0.9,1.4c0.3,0.5,0.7,0.9,1,1.4c0.4,0.5,0.8,0.9,1.2,1.4c0.4,0.5,0.8,0.9,1.3,1.3
					c0.4,0.4,0.9,0.8,1.3,1.2c0.9,0.7,1.7,1.4,2.5,1.9c0.2,0.2,0.4,0.2,0.5,0.4c0.1,0.2,0.3,0.4,0.4,0.5c0.2,0.3,0.4,0.6,0.6,0.8
					C609.9,584.9,610.1,585.2,610.1,585.2z"/>
			</g>
		</g>
	</g>
</g>
<g id="pencil">
	<path class="st15" d="M85.4,347.2l-23.1,11.9c-6.9,3.5-9.6,11.9-6.1,18.7l13.2,25.8l47.9-24.5l-13.2-25.8
		C100.6,346.4,92.2,343.7,85.4,347.2z"/>
	<g>
		<path class="st1" d="M183.1,506.5l-13.7-6.1c-2.9-1.3-6.3,0.3-7.1,3.4l-2.1,8.2c-0.8,3-4.1,4.7-7,3.5l-7.5-3.1
			c-2.9-1.2-6.3,0.5-7,3.6l-3.5,15.1L69.1,402l47.9-24.5L183.1,506.5z"/>
		<g>
			<g>
				<path class="st4" d="M176.5,504.7c0,0-22.3-42.8-44.7-85.6c-5.6-10.7-11.2-21.4-16.4-31.5c-2.6-5.1-5.1-9.9-7.4-14.6
					c-2.3-4.6-4.5-9-6.5-13.1c-1-2-2-4-2.9-5.8c-0.5-0.9-0.9-1.8-1.3-2.7c-0.4-0.8-0.9-1.6-1.5-2.2c-2.3-2.7-5.2-4.2-7.7-4.8
					c-0.6-0.1-1.2-0.2-1.8-0.3c-0.6,0-1.1-0.1-1.6-0.1c-1,0-1.9,0.1-2.6,0.2c-1.4,0.2-2.1,0.4-2.1,0.4l0-0.2c0,0,0.7-0.2,2.1-0.5
					c0.7-0.1,1.6-0.2,2.6-0.3c0.5,0,1.1,0,1.7,0c0.6,0,1.2,0.1,1.9,0.2c2.7,0.4,5.9,1.9,8.4,4.7c0.6,0.7,1.2,1.5,1.8,2.4
					c0.5,0.9,0.9,1.7,1.4,2.7c1,1.8,2,3.7,3.1,5.7c2.1,4,4.4,8.3,6.8,12.9c2.4,4.6,4.9,9.5,7.5,14.5c5.1,10.1,10.5,20.9,16,31.7
					c21.7,43.1,43.4,86.3,43.4,86.3L176.5,504.7z"/>
			</g>
			<g>
				<path class="st4" d="M177.2,505.9l-8.6-3.8l-2.2-1c-0.7-0.3-1.4-0.7-2.1-0.9c-1.4-0.5-3-0.8-4.4-0.6c-0.3,0.1-0.7,0.1-1,0.3
					c-0.3,0.1-0.6,0.3-0.9,0.5c-0.3,0.2-0.5,0.5-0.7,0.7l-0.5,0.9l-0.4,1c-0.1,0.3-0.1,0.7-0.2,1.1c-0.2,0.7-0.2,1.5-0.3,2.3
					c-0.1,0.8-0.3,1.6-0.5,2.4c-0.2,0.8-0.4,1.6-0.7,2.3c-0.3,0.8-0.7,1.5-1.1,2.3c-0.2,0.4-0.5,0.7-0.8,1.1
					c-0.2,0.2-0.3,0.3-0.5,0.5c-0.1,0.1-0.2,0.2-0.3,0.2c-0.1,0.1-0.2,0.1-0.5,0.2l0.3-0.2c-0.3,0.2-0.3,0.2-0.5,0.3
					c-0.1,0-0.2,0.1-0.3,0.1c-0.2,0-0.3,0.1-0.5,0.1c-0.3,0-0.6,0-0.9,0c-0.6,0-1.1-0.1-1.6-0.2c-1-0.2-2-0.5-3-0.8
					c-1-0.3-1.9-0.6-2.9-1c-0.5-0.2-0.9-0.4-1.4-0.5l-0.7-0.3l-0.7-0.2c-0.5-0.1-1-0.4-1.4-0.4c-0.4-0.1-0.8-0.2-1.3-0.2l-0.6-0.1
					l-0.6,0.1c-0.2,0-0.4,0.1-0.6,0.1c-0.2,0.1-0.4,0.1-0.5,0.2c-0.6,0.3-1.1,0.9-1.4,1.7c-0.1,0.4-0.3,0.8-0.3,1.2
					c-0.1,0.4-0.1,0.9-0.1,1.3l0,0.1l0,0.1l-2.4,15l-0.5,3l-1.4-2.7l-50.8-99.3l-25.4-49.7l-1.6-3.1l-0.4-0.8l-0.2-0.4l-0.1-0.2
					l-0.1-0.3c-0.2-0.6-0.5-1.1-0.7-1.7c-0.8-2.3-1.4-4.6-1.6-7c-0.2-2.4,0-5,1-7.3c0.5-1.2,1.2-2.2,2.1-3.1c0.9-0.9,2-1.7,3-2.2
					c4.1-2.4,8.3-4.4,12.5-6.3c4.2-1.9,8.5-3.7,12.9-5.4c-4.2,2-8.4,4-12.5,6.1c-4.1,2.1-8.2,4.3-12.1,6.9c-2,1.2-3.4,2.8-4.1,4.8
					c-0.8,2-0.9,4.2-0.7,6.4c0.2,2.2,0.7,4.4,1.5,6.5c0.2,0.5,0.4,1.1,0.6,1.6l0.1,0.1l0.1,0.2l0.2,0.4l0.4,0.8l1.6,3.1L79.3,432
					l50.8,99.3l-1.9,0.3l2.4-15l0,0.2c0-0.6,0-1.1,0.1-1.7c0.1-0.6,0.2-1.1,0.4-1.6c0.4-1.1,1.2-2.2,2.3-2.7
					c0.3-0.2,0.6-0.3,0.9-0.4c0.3-0.1,0.6-0.2,0.9-0.2c0.3,0,0.6-0.1,0.9-0.1l0.8,0.1c0.6,0,1.1,0.2,1.7,0.3c0.6,0.1,1,0.3,1.5,0.5
					l0.7,0.3l0.7,0.3c0.5,0.2,0.9,0.4,1.4,0.5c0.9,0.3,1.8,0.7,2.8,0.9c0.9,0.3,1.9,0.5,2.8,0.7c0.5,0.1,0.9,0.1,1.3,0.2
					c0.2,0,0.4,0,0.6,0c0.1,0,0.2,0,0.2,0c0,0,0.1,0,0.1,0c0,0,0.1-0.1-0.1,0.1l0.3-0.2c-0.1,0,0,0,0,0l0.2-0.1
					c0.1-0.1,0.2-0.2,0.3-0.3c0.2-0.2,0.4-0.5,0.7-0.8c0.4-0.6,0.7-1.2,1.1-1.9c0.3-0.7,0.5-1.4,0.8-2.1c0.2-0.7,0.4-1.5,0.6-2.2
					c0.2-0.8,0.3-1.5,0.5-2.3c0.1-0.4,0.2-0.8,0.3-1.2l0.5-1.2c0.2-0.4,0.5-0.7,0.7-1.1c0.3-0.3,0.6-0.7,1-0.9
					c0.4-0.2,0.7-0.5,1.2-0.6c0.4-0.2,0.8-0.3,1.3-0.3c0.9-0.1,1.7-0.1,2.5,0.1c0.8,0.2,1.6,0.4,2.3,0.7c0.8,0.3,1.4,0.7,2.1,1.1
					l2.1,1.1L177.2,505.9z"/>
			</g>
			<g>
				<path class="st4" d="M129.8,530.8c3.8,2,7.6,4,11.3,6.1c0.9,0.5,1.8,1.2,2.7,1.7l2.7,1.7l5.4,3.5l21.5,13.8l-1.5,0.8l1.7-25.5
					l0.4-6.4l0.2-3.2c0.1-1.1,0.1-2.1,0.2-3.2c0.6-4.2,1.2-8.5,1.8-12.7c0.1,4.3,0.1,8.6,0.1,12.8c0,1.1-0.2,2.1-0.2,3.2l-0.2,3.2
					l-0.4,6.4l-1.7,25.5l-0.1,1.7l-1.4-0.9l-21.5-13.8l-5.4-3.5l-2.7-1.7c-0.9-0.6-1.8-1.1-2.7-1.7
					C136.6,536,133.1,533.5,129.8,530.8z"/>
			</g>
			<line class="st19" x1="53.6" y1="382.9" x2="101.6" y2="358.3"/>
			<line class="st20" x1="58" y1="392.5" x2="105.9" y2="367.6"/>
			<line class="st16" x1="62.9" y1="402.1" x2="111.2" y2="377.2"/>
			<g>
				<polygon class="st4" points="158.1,499.9 100.4,382.8 160.8,498.5 				"/>
			</g>
			<g>
				<polygon class="st4" points="133.8,511.9 76.5,395.1 136.5,510.5 				"/>
			</g>
			<polygon class="st4" points="157.6,548.6 174.1,540.1 172.9,558.4 			"/>
		</g>
	</g>
</g>

<style>

	#vista_d2 #clip_line {
		stroke-dasharray: 1070px;
		stroke-dashoffset: 1070px;
		-webkit-animation: showLine 2s linear 0s forwards;
		animation: showLine 2s linear 0s forwards;
	}

	#vista_d2 #pencil {
	 -webkit-transform-origin: 50% 100%;
	 transform-origin: 50% 100%;
	 -webkit-transform: translate(300px, -350px);
	 transform: translate(300px, -350px);
	 -webkit-animation: movepencil 2s linear 0s forwards;
	 animation: movepencil 2s linear 0s forwards;
	}

	#vista_d2 #pin1, #vista_d2 #pin2, #vista_d2 #pin3 {
		-webkit-transform-origin: 50% 100%;
		transform-origin: 50% 100%;
		-webkit-transform: scale(0);
		transform: scale(0);
	}

	#vista_d2 #store {
		-webkit-transform-origin: 50% 50%;
		transform-origin: 50% 50%;
		-webkit-transform: scale(0);
		transform: scale(0);
		-webkit-animation: scalePin 1s linear 1s forwards;
		animation: scalePin 1s linear 1s forwards;
	}

	#vista_d2 #huts {
		-webkit-transform-origin: 50% 50%;
		transform-origin: 50% 50%;
		-webkit-transform: scale(0);
		transform: scale(0);
		-webkit-animation: scalePin 1s linear 0s forwards;
		animation: scalePin 1s linear 0s forwards;
	}

	#vista_d2 #pin1 {
		-webkit-animation: scalePin 0.5s linear 0s forwards;
		animation: scalePin 0.5s linear 0s forwards;
	}
	#vista_d2 #pin2 {
		-webkit-animation: scalePin 0.5s linear 0.7s forwards;
		animation: scalePin 0.5s linear 0.7s forwards;
	}
	#vista_d2 #pin3 {
		-webkit-animation: scalePin 0.5s linear 1.5s forwards;
		animation: scalePin 0.5s linear 1.5s forwards;
	}

	#vista_d2 #star1, #vista_d2 #star3 {
		-webkit-animation: blinkStar 1s ease-out 0s alternate infinite;
		animation: blinkStar 1s ease-out 0s alternate infinite;
	}
	#vista_d2 #star2 {
		-webkit-animation: blinkStar 1s ease-out 1s alternate infinite;
		animation: blinkStar 1s ease-out 1s alternate infinite;
	}
	#vista_d2 #star4 {
		-webkit-animation: blinkStar 1s ease-out 0.5s alternate infinite;
		animation: blinkStar 1s ease-out 0.5s alternate infinite;
	}

	@-webkit-keyframes showLine {
		to {
			stroke-dashoffset: 0px;
		}
	}


	@-webkit-keyframes movepencil {
		0% {
	    -webkit-transform: translate(300px, -350px);
	    transform: translate(300px, -350px);
	  }
		8% {
			-webkit-transform: translate(220px, -350px);
			transform: translate(220px, -350px);
		}
		15% {
			-webkit-transform: translate(180px, -290px);
			transform: translate(180px, -290px);
		}
		21% {
			-webkit-transform: translate(220px, -240px);
			transform: translate(220px, -240px);
		}
		39% {
			-webkit-transform: translate(410px, -240px);
			transform: translate(410px, -240px);
		}
		49% {
			-webkit-transform: translate(475px, -150px);
			transform: translate(475px, -150px);
		}
		58% {
			-webkit-transform: translate(410px, -80px);
			transform: translate(410px, -80px);
		}
		91% {
			-webkit-transform: translate(60px, -75px);
			transform: translate(60px, -75px);
		}
		100% {
			-webkit-transform: translate(0px, 0px);
			transform: translate(0px, 0px);
		}
	}

	@-webkit-keyframes scalePin {
		to {
			-webkit-transform: scale(1);
			transform: scale(1);
		}
	}

	@-webkit-keyframes blinkStar {
		0% {
	    opacity: 1;
	  }
		100% {
			 opacity: 0;
		}
	}



	@keyframes showLine {
			to {
				stroke-dashoffset: 0px;
			}
		}

	@keyframes movepencil {
		0% {
	    transform: translate(300px, -350px);
	  }
		8% {
			transform: translate(220px, -350px);
		}
		15% {
			transform: translate(180px, -290px);
		}
		21% {
			transform: translate(220px, -240px);
		}
		39% {
			transform: translate(410px, -240px);
		}
		49% {
			transform: translate(475px, -150px);
		}
		58% {
			transform: translate(410px, -80px);
		}
		91% {
			transform: translate(60px, -75px);
		}
		100% {
			transform: translate(0px, 0px);
		}
	}

	@keyframes scalePin {
		to {
			transform: scale(1);
		}
	}

	@keyframes blinkStar {
		0% {
	    opacity: 1;
	  }
		100% {
			 opacity: 0;
		}
	}
</style>


</svg>
