<?xml version="1.0" encoding="utf-8"?>
<!-- Generator: Adobe Illustrator 19.0.0, SVG Export Plug-In . SVG Version: 6.00 Build 0)  -->
<svg version="1.1" id="vista_d4" xmlns="http://www.w3.org/2000/svg" xmlns:xlink="http://www.w3.org/1999/xlink" x="0px"
	 y="0px" viewBox="0 0 730.4 610.8" style="enable-background:new 0 0 730.4 610.8;" xml:space="preserve">
<style type="text/css">
	.st0{fill:#FFFFFF;}
	.st1{fill:none;stroke:#1B5FC1;stroke-width:1.7591;stroke-linecap:round;stroke-miterlimit:10;stroke-dasharray:6.1567;}
	.st2{fill:#F7949C;}
	.st3{opacity:0.18;fill:#F9D45F;enable-background:new    ;}
	.st4{fill:none;stroke:#4248B7;stroke-miterlimit:10;}
	.st5{fill:none;stroke:#272DAD;stroke-width:0.7802;stroke-miterlimit:10;}
	.st6{fill:none;stroke:#272DAD;stroke-width:0.6184;stroke-miterlimit:10;}
	.st7{opacity:0.81;}
	.st8{fill:#F9D45F;}
	.st9{fill:none;stroke:#272DAD;stroke-width:0.7882;stroke-miterlimit:10;}
	.st10{fill:#303F9F;}
	.st11{fill:#1BB15B;}
	.st12{fill:#4248B7;}
	.st13{fill:none;stroke:#1B5FC1;stroke-width:2;stroke-linecap:round;stroke-miterlimit:10;}
	.st14{fill:#E55C65;}
	.st15{fill:none;stroke:#4248B7;stroke-width:2;stroke-miterlimit:10;}
	.st16{fill:url(#SVGID_1_);}
	.st17{fill:url(#SVGID_2_);}
	.st18{fill:none;stroke:#272DAD;stroke-miterlimit:10;}
	.st19{fill:none;stroke:#1B5FC1;stroke-width:0.9537;stroke-miterlimit:10;}
	.st20{fill:none;stroke:#1B5FC1;stroke-width:0.9303;stroke-miterlimit:10;}
	.st21{fill:#D5E7EF;}
	.st22{fill:#EDB908;}
	.st23{fill:#CF343A;}
	.st24{fill:#3873C9;}
	.st25{fill:#F4D47D;}
	.st26{fill:none;stroke:#4248B7;stroke-width:1.5;stroke-miterlimit:10;}
	.st27{fill:#4FBA6F;}
	.st28{fill:#4C8056;}
	.st29{opacity:0.49;fill:#FFFFFF;enable-background:new    ;}
	.st30{fill:#EFF4F7;}
	.st31{fill:none;stroke:#272DAD;stroke-width:0.75;stroke-miterlimit:10;}
	.st32{enable-background:new    ;}
	.st33{fill:#F7E4B2;}
	.st34{fill:none;stroke:#4248B7;stroke-width:0.75;stroke-miterlimit:10;}
</style>
<path id="bg_cloud" class="st0" d="M420.1,29.8c1.7,0.3,1.5,0.2,0.2-0.1c-1.2-0.3-3.4-0.7-5.6-1.2L420.1,29.8z M414.8,28.5
	c-1.3-0.3-2.5-0.6-3.8-0.9C412,27.8,413.4,28.1,414.8,28.5z M379,23.6c8.3,0.1,18.2,1.5,23.4,2c-4.1-0.8-9.4-1.5-14-1.8
	c-2.3-0.1-4.4-0.3-6-0.3C380.7,23.4,379.5,23.5,379,23.6z M391.4,24.7l1.1-0.1c-2.4-0.2-4.9-0.2-7.3-0.3
	C387.3,24.5,389.4,24.5,391.4,24.7z M396.6,25.5l-1-0.2l-5.7-0.5l-5.7-0.3c2.1,0.1,4.1,0.2,6.2,0.4L396.6,25.5z M350.9,23.8l8.3-0.6
	c3.9,0.1,2.6,0.2,1,0.3c-1.6,0.1-3.5,0.4-0.9,0.3c10.4-0.2,3.6-0.9,16.6-0.6c-0.3-0.1-1.7-0.2-3.7-0.2s-4.5-0.1-6.9,0
	c-2.4,0.1-4.7,0.1-6.3,0.1c-1.6,0.1-2.4,0-1.9-0.1C346.2,23.5,356.6,23.3,350.9,23.8z M24.6,279.9c0.2,0.4,0.4,0.7,0.6,1
	C25,280.5,24.8,280.1,24.6,279.9z M106.4,389.2c0.4,1.9,0.7,3.8,1,5.7c0-0.6-0.1-1.3-0.2-2.3L106.4,389.2z M3.2,199
	c0.2-1.9,0.4-3.7,0.7-5.3C3.7,194.7,3.4,196.3,3.2,199z M445.4,576.9c-0.3,0-0.6,0-0.7,0.1c0.1,0,0.2,0,0.2,0h1.5L445.4,576.9z
	 M25.6,511.9c-0.8,1.9-1.6,3.8-2.2,5.6c0.6-1.6,1.1-2.8,1.4-3.7C25.2,512.8,25.4,512.3,25.6,511.9z M18,152.8
	c-0.4,0.6-0.8,1.2-1.1,1.7c0.4-0.5,0.9-1.3,1.4-2.1L18,152.8C18.1,152.8,18.1,152.8,18,152.8z M85.9,348.5c1.2,1.5,2.2,2.9,3.1,4
	C87.9,351.1,86.9,349.8,85.9,348.5z M229.6,60.7c-2.1,1.1-3.8,2-5.3,2.9C225.7,63,227.3,62.1,229.6,60.7z M187.5,86.2l0.2-0.2
	C187.5,86.1,187.4,86.2,187.5,86.2z M161.1,102.7c0.2-0.1,0.3-0.2,0.5-0.3C161.3,102.5,161.1,102.6,161.1,102.7z M224.3,63.6
	c-3.7,1.8-5,1.9-9.3,5l1-0.4c-2.8,1.4-6.7,4-9.8,6c0.4-0.1,0.7-0.3,1.2-0.6c1.6-0.9,3.7-2.1,6.9-4c2-1.1,3.5-2,5.1-3
	C220.9,65.7,222.4,64.7,224.3,63.6z M24.3,279.5C24.1,279.1,22.5,276.3,24.3,279.5L24.3,279.5z M7.4,241.3c0.4,1.3,0.7,2.6,1.1,4
	C8.2,244,7.9,242.8,7.4,241.3z M72.7,119.4c-0.3,0-0.5,0.1-0.7,0.1C71.7,119.6,72.3,119.5,72.7,119.4z M9.7,248.9l-0.6-1.8l-0.5-1.8
	c0.2,0.6,0.3,1.1,0.5,1.7C9.2,247.7,9.4,248.3,9.7,248.9z M30.3,138.8c-0.2,0.1-0.3,0.3-0.5,0.4C29.9,139.2,30.1,139,30.3,138.8z
	 M629.5,171.6c1.6,0.3,2.9,0.6,4.1,1c1.2,0.4,2.4,0.7,3.9,1.2c1.7,0.4,1.7,0.3,0.9,0.1c-0.4-0.1-1-0.3-1.7-0.5s-1.5-0.4-2.3-0.6
	c-1.5-0.4-3-0.8-3.4-0.9c-0.5-0.1,0.1-0.1,2.6,0.5C632.1,172,630.8,171.7,629.5,171.6c-1.2-0.3-2.4-0.6-3.5-0.8l4.2,1.3
	c1.5,0.3,2,0.4,1.9,0.4c0,0-0.6-0.2-1.3-0.4C629.5,171.7,627.9,171.3,629.5,171.6z M485.2,580.3c-0.5,0-0.9,0-1.4-0.1
	c0.9,0.2,0.1,0.3,5.4,0.4c4.5-0.3-2.5-0.7,5.3-1.1c-1.5,0.1-3.8,0-5.9,0C491.8,579.8,488.6,580.1,485.2,580.3z M488.6,579.6
	c-0.1,0-0.1,0-0.2,0c-0.3,0-0.7-0.1-1.1-0.1c-1.1,0-2.2,0-3.1-0.1C484.9,579.5,486.6,579.6,488.6,579.6z M712.6,235.9
	c0.6,1.2,1.1,2.3,1.6,3.3C713.5,237.5,713,236.6,712.6,235.9z M25.5,500.8c0.8-1.4,1.6-2.7,2.3-3.8C26.5,499,25.8,500.1,25.5,500.8z
	 M409.7,572c-1.2-0.2-2.4-0.5-3.7-0.7c-0.8-0.1-1.4-0.2-2.4-0.4L409.7,572z M615.6,498.5c0.3,0.6,0.3,0.8,0.3,0.6
	c0-0.1-0.1-0.6-0.3-1.3c-0.4-1.4-1.2-3.6-2.1-6c-0.4-0.7-0.7-1.4-1.1-2.1l-1.2-2.1C613.2,491.5,614.8,495.2,615.6,498.5z
	 M625.6,170.6L625.6,170.6c0.1,0.1,0.2,0.1,0.3,0.1L625.6,170.6z M660,382.7c0.8-0.4,1.5-0.7,2.2-1
	C661.8,381.9,661.1,382.2,660,382.7z M458.9,578.1c-6.3-0.6-12.7-1.2-19-2.1c1.8,0.3,3.7,0.6,5.5,0.8c1.3,0,4,0.4,6.7,0.7
	C454.8,577.9,457.5,578.2,458.9,578.1z M576.9,560.5l-1.6,0.5c-8,4.4-17.5,7.5-26.9,9c-2.4,0.4-4.7,0.8-7,1.2s-4.6,0.7-6.7,1
	c-4.4,0.7-8.5,1.2-12.2,1.9c-2.9,0.2-5.2,0.3-7.3,0.4c-2,0.1-3.7,0.3-5.1,0.3c-2.8,0.2-4.6,0.4-6.4,0.6c-1.8,0.2-3.5,0.4-6,0.5
	c-1.3,0.1-2.8,0.1-4.6,0.1c-1.8,0-4-0.1-6.7-0.2l0.7,0.1c-17.3-0.1-34.8-1.7-52.3-4.1c-17.5-2.5-35-5.9-52.4-9.1
	c-17.4-3.2-34.8-6-52.2-7.4c-8.7-0.7-17.3-1-25.7-0.9c-2.1,0.1-4.2,0.1-6.3,0.2c-2.1,0.1-4.2,0.2-6.3,0.4c-4.2,0.3-8.3,0.8-12.4,1.2
	l0.1-0.2c-13.2,1.4-26.2,3.5-39.1,6.2c-12.8,2.7-25.6,5.8-38.2,9c-25.2,6.4-50.1,13.3-75.5,17.6c-12.6,2.1-25.4,3.9-38.1,4.4
	c-1.6,0.1-3.2,0.2-4.8,0.3c-1.6,0-3.2,0.1-4.8,0.1c-3.2,0-6.3-0.1-9.4-0.4c-6.2-0.5-12.4-1.7-18.1-3.9c-2.9-1.1-5.6-2.5-8.1-4.1
	c-2.6-1.6-4.9-3.5-7.2-5.6c-4.4-4.2-8.1-9.2-10.8-14.8c-1.4-2.7-2.5-5.6-3.5-8.6c-0.4-1.5-0.9-3-1.2-4.5c-0.2-0.8-0.3-1.5-0.5-2.3
	l-0.4-2.3c-0.1-0.8-0.2-1.5-0.3-2.3c-0.1-0.8-0.2-1.5-0.2-2.3c0-1.5-0.1-3.1-0.1-4.6c0-3.1,0.4-6.2,0.9-9.3c0.2-1.1,0.3-2.1,0.5-2.8
	c0.1-0.7,0.2-1.3,0.3-1.8c0.1-0.9,0.2-1.3,0.2-1.7s0-0.7,0.2-1.5c0.2-0.7,0.4-1.9,1-3.8c0.3-0.8,0.7-1.9,1.2-3.1s1-2.4,1.5-3.5
	c1-2.2,2.1-3.9,2.2-3.9c-1.5,3.1-1.7,3.8-1.7,4s0.2-0.1-0.2,1c2.3-5.1,5.6-10.8,9.5-15.8c3.8-5,8.2-9.4,11.9-13
	c-2.2,1.9-4.3,3.8-6.3,5.8c2.6-3,7.3-7.2,10-9.6c-1.1,1.1,3.2-2.1,0.8,0c4-3.7,7-6.1,9.2-7.9c2.3-1.8,3.9-3,5.5-4.2
	c1.6-1.1,3.1-2.2,5.1-3.7s4.5-3.5,8.1-6.6c1.2-1.5,6.3-6.1,11.7-12.5c2.7-3.2,5.5-6.9,7.8-10.8s4.1-8,5.3-11.7
	c0.5-1.3,0.9-2.6,1.3-3.9l1-4c-1.2,5.4-1.2,5.3-1.2,5.6c0,0.2,0,0.4-0.3,1.4c-0.1,0.5-0.4,1.2-0.7,2.2c-0.3,1-0.9,2.2-1.6,3.8
	c1.2-2.6,2.3-5.2,3.1-7.9c0.7-2.7,1.3-5.4,1.7-8.1c0.7-5.4,0.5-10.8-0.2-16.2c0.1,2.1-0.1,1.6-0.9-2.7c-0.3-1.6-0.5-2.9-0.7-3.9
	c-0.2-1.1-0.4-2-0.6-2.9s-0.5-1.9-0.8-3c-0.2-0.6-0.4-1.2-0.6-1.9c-0.2-0.7-0.5-1.5-0.9-2.4c0.5,1.1,1,2.3,1.4,3.4
	c0.4,1.2,0.9,2.3,1.2,3.5c-1.2-4.9-3.1-8.8-5.1-13c-0.2-0.7-1.5-3.6-2.8-6.1c-0.3-0.6-0.6-1.2-0.9-1.7s-0.5-1-0.7-1.3
	c-0.4-0.7-0.5-1-0.2-0.6c-1.4-2.1-2.7-3.8-3.7-5.4c-1.2-1.5-2.2-3-3.3-4.3c-2.2-2.8-4.4-5.5-8.1-9.5c7.1,8.6-2.2-1.9-1.5-0.8
	c2.8,3.1,5.6,6.2,8.2,9.5c-1.3-1.8-2.4-3-3-3.8c-0.7-0.8-1-1.3-1.1-1.4c-0.2-0.3,0.6,0.7,1.8,2c1.2,1.3,2.6,3.1,3.7,4.4
	c1.1,1.4,1.9,2.3,1.8,2c2.4,3.5,0.5,1.2-0.9-0.4c-0.7-0.8-1.3-1.5-1.2-1.3c0.1,0.2,0.9,1.3,3,4.2c-2.5-3.4-4.6-6-6.5-8.3
	s-3.6-4.2-5.3-6.1c-3.4-3.8-7-7.5-13.1-13.3c7.3,7.2-1.6-1.2,2.2,2.8c-9.2-9.1-2.2-2.4-4.8-5.4c-5-5-6.7-6.9-11.5-11.3
	c-7.8-8.3,1.4,1-2.4-3.3c1.6,1.4,7,7.1,12.1,12.1c5,4.9,9.4,9.3,8.6,7.8c4.2,4.3,9.6,9.2,15.2,16c-4.7-6-11.9-14.1-18.7-20.5
	l-0.8,0.1c-5-5-6.3-5.7-9.9-9.3c2,1.8-1.3-1.8-5.2-5.8c1.1,1.2,2.6,2.8,2.1,2.4c-3.7-3.7-5.8-5.8-8-8.1c-2.2-2.3-4.6-4.8-8.5-9.6
	c1.5,2,2.8,3.6,3.9,5c1.1,1.4,2.1,2.6,3,3.7c1.9,2.3,3.8,4.5,7.1,8.1c-2.1-1.6-4.8-4.8-8.5-9c0.6,0.6,1.4,1.5,0.4,0.2
	c-1.4-1.4-2.7-3-4-4.4c-3.9-5-3.5-4.8-3-4.4c0.6,0.4,1.2,1.1-1.9-3.1c-1-1.5-1.9-2.8-2.7-3.9s-1.4-2.1-2.1-3
	c-1.4-1.8-2.5-3.5-3.9-5.9c0.2,0.3,0.3,0.7,0.5,1c-0.6-1.1-1.1-1.8-1.4-2.4v0.1c-3.5-5.7-6.7-12.3-7.8-13.9
	c-0.2-0.7-2.4-5.4-3.4-7.4c-0.4-0.9-0.9-2-1.4-3.4c-0.3-0.7-0.6-1.4-0.9-2.2c-0.3-0.8-0.6-1.6-0.8-2.4c-1.2-3.2-2.1-6.8-2.6-9.5
	c0,0.1,0.1,0.3,0.1,0.4c-0.5-2-0.9-4-1.3-5.7c-0.3-1.7-0.6-3.3-0.8-4.5c-0.2-1.2-0.3-2.1-0.3-2.6s0-0.6,0.1-0.1
	c-0.7-4.5-1.1-8.9-1.3-13.5l0.5,1.4c-0.4-6.1-0.4-8.9-0.5-11.2c0-2.3-0.2-4.1,0-8.3c0.5-4.4,1.4-10.4,2.8-15.9
	c1.3-5.5,3-10.6,4.1-13.3c0.2-0.4,0.4-1,0.7-1.7s0.7-1.6,1.2-2.7l-1.1,2.3c-0.4,0.8-0.7,1.6-1.1,2.3c1.8-4.5,2.8-6.3,3.5-7.9
	c0.8-1.5,1.3-2.7,3-5.4c-0.4,0.6-0.6,0.9-0.4,0.7c0.1-0.2,0.6-0.9,1.6-2.4c0.6-0.9,1.3-1.8,2.1-3c-0.1,0.3-1,1.4-1.8,2.6
	c0.2-0.3,0.5-0.6,0.8-0.9c2.4-3,4.2-5.3,6.1-7.6c1.9-2.3,4.1-4.5,7.3-7.1c-0.6,0.5-1.6,1.4-2.2,1.9c0.4-0.4,0.9-0.8,1.4-1.2
	c0.5-0.4,1-0.8,1.5-1.1c1-0.8,2.2-1.5,3.2-2.2c2.1-1.3,3.9-2.4,4.6-3.1c0.5-0.3,1-0.6,1.7-1c0.6-0.4,1.3-0.8,2-1.2
	c1-0.5,2-1.1,3-1.5c-1.3,0.6-2.2,1.1-3,1.5c0.9-0.5,1.8-1.1,2.5-1.5s1.2-0.6,1.4-0.7l2.7-1.3l2.7-1.1c1.8-0.8,3.7-1.4,5.5-2
	c2.1-0.6,5-1.6,7.4-2.2c0.7-0.1,1.3-0.2,2-0.3c4.2-0.9,4.3-0.8,3.8-0.6c7.4-1,13.2-1.5,19.1-1.9c6-0.4,12.1-0.5,20.3-0.6
	c3.1-0.4-3.7-0.2-4.2-0.4c1.3-0.2,4.2-0.4,7.5-0.6c1.6-0.1,3.3-0.3,4.9-0.5s3-0.4,4.2-0.5c1.8-0.1,4.6-0.4,7.6-0.8
	c3.1-0.4,6.4-1,9.4-1.7s5.6-1.4,7.3-1.8s2.4-0.6,1.6-0.1c12.8-4.8-4.1,1.3,2.2-1.4l1.5-0.5c-1.1,0.4-2.1,0.8-3.1,1.1
	c-1,0.3-1.9,0.6-2.8,0.8c-1.8,0.5-3.3,0.8-4.6,1.1c-0.3,0,0.3-0.2,1.2-0.5c0.5-0.2,1.1-0.4,1.8-0.6s1.4-0.5,2.2-0.8s1.6-0.6,2.4-0.8
	c0.8-0.3,1.6-0.6,2.3-0.9c0.8-0.3,1.5-0.6,2.1-0.8c0.6-0.3,1.2-0.5,1.6-0.7c-0.7,0.5-1.4,1-2.2,1.4c1.5-0.6,2.6-1.2,3.7-1.7
	c1-0.5,1.9-0.9,2.6-1.3c1.4-0.8,2.3-1.4,3.1-1.9s1.4-1,2.3-1.6c0.8-0.6,1.9-1.3,3.5-2.4c4.2-2.5,5.2-3,5.4-2.9s-0.5,0.8,0.5,0.3
	c2.9-2,5.7-4,8.5-6l0.2,0.3c2.7-2,4.4-3.2,6.4-4.6c1-0.7,2-1.4,3.3-2.3c1.3-0.9,2.9-1.9,4.8-3.1c-2.7,2,0.2,0.1,3-1.5
	c2.7-1.6,5.2-3,1.4-0.4c4.4-2.6,5.4-4,7.9-4.9c2.9-2.1-4.1,2.2-6.4,3.5c-1,0.4,1.3-1.2,4.7-3.2c1.7-1,3.6-2.1,5.4-3.2
	c1.8-1.1,3.6-2.1,4.9-2.8c0.6,0-3.5,2.3,3-1.2c1.2-0.9,5.2-3.3,9-5c-0.1-0.1,1.8-1.1,4.1-2.3s5.2-2.4,7-3.4c-2.1,1-4.7,2.2-6.4,2.9
	c-1.7,0.8-2.6,1.1-1.3,0.3c1.6-0.9,3.1-1.7,5.1-2.7s4.6-2.3,8.4-4c-1.7,0.8-3.5,1.5-5.2,2.3c6.4-3.5,11-4.8,20-8.7
	c-3.8,1.7-6.2,2.8-9.4,4.5c4.2-2,12.2-5.7,19-8.3c2.6-0.8,5.3-1.6,8-2.4c0.9-0.6,8.9-2.9,8.8-3.2c5-1.4,3-0.7-0.3,0.4
	c-3.3,1.2-7.9,2.8-8.4,3.1c6.2-2,8.6-2.9,11-3.7c2.4-0.8,4.7-1.6,10.8-3l-3.9,1.4c2-0.5,5-1.4,7.5-2.1c2.6-0.6,4.7-1.2,5-1.2
	c0-0.1-2,0.4-4.5,1c1.2-0.6,5.8-1.9,9.9-2.9c4.1-1.1,7.8-1.8,7-2c-1.9,0.3-3.8,0.6-5.6,1.1c8.6-1.8,14.7-3.3,21.5-3.9
	c2.6-0.2,1.7,0-0.2,0.4c-1.9,0.3-4.9,0.8-6.4,1.2c2-0.3,3.5-0.5,4.6-0.7c1.2-0.2,2-0.4,2.9-0.6c1.8-0.4,3.9-0.8,8.8-1.2
	c-5.2,0.4-4.2,0-1.1-0.4c-5.7,0.3-17.6,1.9-15.5,1.9l2.1-0.3c-0.5,0.3-3.6,0.8-5.1,1.1c-1.9,0.3-3.1,0.5-3.8,0.6
	c-0.7,0.1-1,0.1-1.1,0.1c-0.1-0.1,0.5-0.3-0.3-0.2c-6.4,1.1-6.6,1.4-6.7,1.6s0,0.4-5.9,1.6l-1.5,0.2c-2.8,0.8-6.3,1.6-9.3,2.6
	c-1.5,0.4-2.9,0.9-3.9,1.2c-1.1,0.4-1.9,0.7-2.2,0.9c-2.5,0.5-5.8,1.5-9,2.7c-1.6,0.6-3.3,1.1-4.8,1.7c-1.6,0.6-3.1,1.1-4.4,1.5
	c-0.7-0.2,4.1-2,9.9-3.8s12.5-3.6,15.8-4.7c-6.1,1.5,3.3-1.4,5.8-2.2c-6.4,1.6-12.7,3.6-18.9,5.7c-0.8,0.2-2.6,0.6-4.6,1.2
	s-4.3,1.3-5.9,2.1l1.5-0.5c-7.3,2.7-5.2,2.3-11.6,4.7c-1,0.3,0.9-0.6,1.3-0.8c-5.9,2.1-4.8,2.1-8.6,3.7c-5.8,2.3,2.7-1.5-2.1,0.3
	c-3.3,1.6-5.9,2.7-8.4,3.8s-4.9,2.1-7.8,3.4c1.3-0.3-4.2,2.5-8.5,4.9c-4.2,2.4-7.3,4.1-1.2,1.3c-2.2,1.2-4.4,2.4-6.6,3.7
	c-2.2,1.3-4.4,2.5-6.5,3.8c-2.1,1,0-0.4,2.3-1.9c2.2-1.4,4.5-2.9,2.6-2.1c3.5-1.9,7.1-3.7,10.6-5.5c-1,0.2-6.6,3.1-12.7,6.5
	c-3,1.7-6.2,3.6-9.1,5.2c-2.9,1.7-5.4,3.1-7.2,4c-5.5,3.3-4.1,2.5-14.5,8.8c0.7-0.2,1.4-0.4,2.1-0.6c-5.3,3.3-7.2,4.2-7.5,4.3
	c-3,2.1-5.7,4-8.6,5.9c0.7-0.6,1.7-1.4,3.5-2.7c-4.1,2.5-5.1,3.3-6.4,4.4c-0.5,0.4-1.1,0.8-1.7,1.3c-0.7,0.4-1.4,0.9-2.1,1.3
	c-1.5,0.9-3.1,2-4.8,2.9c1-0.6,2-1.3,2.9-1.9c-2,1.3-4.5,2.7-4.7,2.9c-1.4,0.8-2.8,1.5-4.1,2.2c0.5-0.2,1.3-0.5,2.7-1
	c1.4-0.6,3.2-1.5,5.7-2.8c-6.3,3.6-12.1,6.3-17.9,8.4c-5.8,2.1-11.5,3.6-17.6,4.6c0.2-0.1,1.6-0.5,2.7-0.8c1.1-0.3,2-0.6,1.2-0.4
	c-6,1.3-12.6,2.4-12,2.6c-1.4,0.2-2.5,0.3-3.4,0.4c-1.2,0-2.6,0-5.6,0.1c-0.7,0-1.8,0-3.9,0.1c-2,0.6-14,0.7-16.6,1
	c2.8,0,6.3-0.1,9.8-0.3c-5,0.5-9.5,0.9-13.4,0.9c9.3-0.7-10-0.1,4.1-0.8c-5-0.1-6.2,0.1-7.6,0.3c-1.4,0.2-2.8,0.5-8,0.9
	c-1.1,0.1-2.3,0.2-3.4,0.3c-1.1,0.1-2.3,0.2-3.4,0.4c0.5-0.3,3.2-0.7,5.6-1s4.5-0.4,3.7-0.4c-1.6,0.2-3.1,0.3-4.7,0.5
	c2.3-0.4,8-1,14.4-1.2c6.4-0.3,13.5-0.5,18.9-0.9c-7.2,0.3-14.5,0.3-21.8,0.6c-6.9,0.5-14.3,1.2-21.8,2.8
	c-7.4,1.5-14.9,4.1-21.7,7.4c-1.7,0.8-3.4,1.7-5,2.6c-0.8,0.4-1.7,0.9-2.5,1.4s-1.6,1-2.4,1.5c-3.1,2-6,4.3-8.7,6.6
	c-5.3,4.7-9.6,10-12.7,15c0.2-0.3,0.4-0.6,0.6-0.8c-0.2,0.4-0.3,0.6-0.3,0.9l-0.7,0.8c-0.8,1.3-1.5,2.8-2.2,4.1
	c-1.4,2.2-3.3,5.6-5,9.5s-3.3,8.2-4.5,12.3c1.6-5.1,1.7-5,2.1-5.5c0,0.6-0.1,1-0.4,2.3s-1,3.4-1.9,7.2c-0.3,0,0.9-4.7-0.7,0.9
	c0.8-2.9,0.3-0.3-0.3,3.1c-0.2,1.1-0.5,2.4-0.7,3.6c-0.2,1.3-0.5,2.6-0.6,3.8c-0.4,2.4-0.6,4.3-0.7,4.3c0.1-2.1,0.4-3.7,0.6-5.1
	c0.1-1-0.2,1-0.5,2.6c-0.2,1.6-0.4,2.6-0.2-0.4c-0.3,2.7-0.5,5.4-0.5,8c-0.4,4.7-0.2-3.1-0.4-1.3c-0.2,6.7,0.1,11.8,0.6,16.7
	c0.6,4.9,1.3,9.6,2.6,15.4c-0.2-0.5-0.8-0.6-0.6-0.5c0.2,1.1,0.4,2.3,0.7,3.5s0.6,2.4,0.9,3.6c0.2,0.6,0.3,1.2,0.5,1.8
	s0.4,1.2,0.6,1.8c0.4,1.2,0.8,2.4,1.2,3.6c1.7,4.8,3.7,9.8,5.8,14.6c-0.4-0.7-1-1.9-1.6-3.4s-1.2-3.1-1.8-4.6
	c2.7,7.6,5.9,14.6,9.5,21.2c3.2,7.2,7.1,13.3,11.2,19.2c4.2,5.9,8.7,11.5,13.5,16.8c4.8,5.4,9.9,10.6,15.2,16l5.9,5.1
	c1.8,1.9,3.5,3.9,5.2,5.8c5.4,5.7,10.3,11.2,14.6,16.8c2.2,2.8,4.2,5.6,6,8.5s3.6,5.8,5.1,8.8c3,6,5.6,12.2,7,18.9
	c1.5,6.6,2.1,13.6,1.1,20.8c-0.3,2.2-0.7,3.6-1,4.6s-0.4,1.5-0.6,1.8c-0.4,0.7-0.5,0.8-1.3,2.8c-1.7,4.6-3.6,8.1-5.4,11.1
	c-1.9,3-3.6,5.5-5.6,7.9c-3.8,4.7-8,9.2-15.4,15.4c1-0.9,2.2-2.2,2.5-2.6c0.2-0.4-0.6,0.2-3.8,2.8c-1.1,1.1-1.7,2-5.9,5.2l2-1.8
	c-3.9,2.8-7.5,5.8-15.5,12.1c-6.9,5.6-13.5,11.6-18.9,18.1c-2.7,3.3-5.1,6.7-7.2,10.1s-3.8,6.9-5.2,10.3c-0.9,1.8-1.4,3.2-1.8,4.1
	c-0.4,1-0.7,1.6-0.8,1.8c-0.3,0.6-0.1,0,0.1-1c0.3-1,0.8-2.3,1.1-3.3c0.3-0.9,0.5-1.4,0.2-0.8c0.6-1.3,1.1-2.4,1.6-3.2
	c0.5-0.9,0.8-1.6,1.1-2.2c0.6-1.2,1-1.8,1.1-2.2c0.4-0.8,0.1-0.6,0.7-1.7c-1.5,2.6-3,5.6-4.2,8.3c-0.6,1.3-1.2,2.6-1.7,3.7
	c-0.5,1.1-0.9,2.1-1.3,2.8c-0.7,2-1.2,3.7-1.7,5.3c-0.4,1.6-0.8,3.1-1.1,4.6s-0.6,3-0.7,4.7c-0.2,1.6-0.3,3.5-0.4,5.5
	c0.1-2.1,0.3-4,0.5-5c0.2-0.9,0.3-0.8,0.1,1.1c-0.2,1.7-0.5,4.1-0.5,6.7c-0.1,2.6,0.1,5.4,0.3,8c0.3,2.6,0.6,4.9,1,6.4
	c0.1,0.8,0.2,1.4,0.3,1.8c0.1,0.4,0.1,0.6,0,0.5c2.8,9.8,7.8,19.2,15.2,26.8c3.7,3.8,8,7.1,12.7,9.7c2.4,1.3,4.9,2.4,7.4,3.3
	c2.5,0.9,5.2,1.6,7.8,2.2c5.3,1.1,10.6,1.7,16,1.9c2.7,0.1,5.3,0.1,8,0c2.7,0,5.3-0.3,7.9-0.4c2.6-0.2,5.3-0.2,7.9-0.5
	s5.2-0.5,7.9-0.8l3.9-0.4c1.3-0.2,2.6-0.4,3.9-0.5c2.6-0.4,5.2-0.7,7.8-1.1c6.9-1.3-5.3,0.7-1.5-0.1c1.3-0.2,2.3-0.4,3.2-0.6
	c0.9-0.2,1.7-0.3,2.4-0.5c1.3-0.2,2.3-0.4,3.1-0.5c1.7-0.3,3.2-0.5,7.2-1.3l-3.3,0.9c3-0.5,6-1.2,9-1.8c3-0.7,6.1-1.3,9.1-2.1
	c6-1.5,12-3.1,17.6-4.7c-1.8,0.8,9.4-2.1,0,0.5c5.6-1.4,12.6-1.8,16.9-3.2l-6.6,0.3c0.3-0.2,8.1-2.1,7.3-2c4.9-1,10.9-2.3,14.3-3.1
	c1.7-0.1-6.7,2-11.3,3.2c-0.6,0.7,15.6-3.7,9.1-1.5c9.9-2.6-1.5,0.1,4.4-1.6l8.7-2.1l-6.7,1.5c3.6-1,6-1.8,8.7-2.5s5.7-1.5,10.6-2.5
	c3.3-1,6.6-1.9,9.9-2.8c0.6,0.1,2.4-0.3,4.7-0.8s5.2-1.1,7.8-1.6l-3.2,0.9c3.4-0.7,5.8-1.2,7.9-1.5c2.1-0.4,3.8-0.6,6-0.9
	c-1.9,0.5-3.5,0.8-4.8,1s-2.3,0.4-3.1,0.7c2.5-0.5,5.1-0.9,7.6-1.2c-0.1-0.2,4.7-1.2-0.7-0.5c1.7-0.4,3.3-0.8,4.9-1.2
	s3.3-0.8,5.3-1.1s4.4-0.7,7.3-1.2c1.5-0.2,3.1-0.5,4.9-0.7s3.8-0.4,6.1-0.6c8.1-0.3-8.6,1.2-5.2,1.3c4.6-0.4,8.3-0.8,11.5-1.1
	c3.1-0.2,5.7-0.6,8.1-0.8s4.5-0.4,6.7-0.5s4.5-0.1,7.2-0.1c3.5,0.1,6,0.2,8.1,0.3s3.7,0.2,5.4,0.3c1.6,0.1,3.3,0.1,5.4,0.3
	s4.7,0.3,8.2,0.7c-2.2-0.1,0.2,0.2,3.5,0.7s7.5,1.1,8.7,1.4c-1.8-0.2-3.7-0.3-5.5-0.4c4.3,0.4,8.3,1.2,7,1.2
	c-0.4-0.2,4.2,0.3,10,1.2s12.9,2.1,17.7,2.8l-1.6-0.6c7.5,1.2,17.9,2.9,25.8,4.4c5.9,1,8.2,1.3,10.2,1.5s3.6,0.3,8.2,0.8
	c5,1.1,4.4,1.3,2.7,1.4c-3.2-0.7-8.6-1.4-13.8-2.4c-15-2.3-26.7-3.9-41.6-6.6c-6.6-0.3,10.1,1.6,17.2,3.3c-0.2,0-0.7-0.1-1.3-0.2
	c0.6,0.1,1.2,0.2,1.8,0.4c-5.4-0.9-14.1-2.3-15.6-2.1c8.9,1.5,6.6,0.4,17.6,2.7c8.3,1.3,14.9,3.1,19.9,4c5.6,0.6,5.9,0.1,19.5,2.3
	c-2-0.1-4-0.3-6-0.4c7.7,1.2,9.5,1.3,11.2,1.3c0.8,0,1.7,0.1,3.1,0.2c1.5,0.1,3.7,0.4,7.2,0.8c-5-0.6,4.9,0.1-4.7-1
	c4.7,0.3,15.1,1.5,22.9,2.1c2,0.1,0.4-0.1,0.8-0.2c-2.2-0.2-4.1-0.4-5.9-0.5s-3.4-0.3-5.1-0.4c-3.2-0.2-6.2-0.5-9.7-1.1
	c-2-0.1-4-0.2-6-0.3c-4-0.6-6.2-1.1-6.7-1.3c-0.6-0.2,0.5-0.2,2.9,0c-2.2-0.3-4.2-0.5-5.8-0.8c-0.6-0.5,1.7,0,4.6,0.5s6.3,1,7.7,0.9
	l-5.6-0.7c-1.2-0.4,2.1-0.1,6.6,0.5c2.3,0.2,4.8,0.5,7.3,0.8c2.4,0.2,4.8,0.5,6.6,0.7c4.1,0.5,8.1,0.8,11,1.1c3,0.2,5,0.4,5.3,0.6
	L467,579l-5.6-0.3c2.9,0.4,6.4,0.6,10.1,0.7c3.6,0.1,7.4,0.1,10.6,0.2c0.4,0.1,1,0.1,1.8,0.2c-0.3,0-0.5-0.1-0.5-0.1
	c1.4,0.1,2.6,0.1,3.6,0.2c2.8,0,6.3,0,9.8-0.2c1.7-0.1,3.4-0.1,5.1-0.2c1.6-0.1,3.1-0.1,4.4-0.2l-0.7-0.3l-0.7,0.2
	c-2.6,0.2-5.7,0.2-7.6,0.2s-2.7-0.1-0.7-0.3c5.9-0.2,9.4-0.4,11.8-0.4s3.7,0.2,5.1,0.2c-1.3,0.4-4.2,0.5-7.5,0.7s-7,0.2-9.9,0.3
	c0.9,0.1,2.1,0.1,3.6,0.1c0.7,0,1.5,0,2.4,0s1.8-0.1,2.8-0.2c2-0.1,4.3-0.2,6.9-0.4c2.5-0.2,5.3-0.4,8.4-0.6c-2.4,0.4-5.9,0.8-9.1,1
	s-6.2,0.3-7.5,0.6c4.9-0.2,8-0.4,11.1-0.8c3.1-0.3,6.3-0.6,11.5-1.2c-0.6,0.2-3.5,0.6-6,0.9c-2.6,0.3-4.9,0.6-4.6,0.7
	c2.2-0.2,4.4-0.2,6.6-0.4c-16.2,1.5,2.9,0.4-9.7,1.6c3-0.1,5.1-0.4,7.5-0.7s5.1-0.7,9.3-1c-2.4,0.1-9.2,0.4-1.1-0.7
	c3.1-0.3,6.1-0.7,9.1-1.1c3.9-0.3-9.4,1.9-3.5,1.3l4.8-0.8l2.4-0.4l2.4-0.5c-0.2,0-1.4,0.1-2.2,0.2c-0.8,0.1-1.3,0.1,0.1-0.3
	c2.8-0.4,5-0.9,7.3-1.5s4.8-1.3,8-2.2c1.3-0.3,2.5-0.6,3.6-0.9c1.1-0.3,2.1-0.6,3.1-0.9c1.9-0.5,3.3-1,4.2-1.3
	c0.8-0.3,1.6-0.6,2.3-1c0.8-0.4,1.6-0.7,2.4-1.1c1.6-0.7,3.2-1.6,4.8-2.4c3.2-1.7,6.4-3.6,9.4-5.8c6.1-4.2,11.4-9.3,15.3-13.9
	c-2.7,3.2-2.6,3.2-1.3,2s3.7-3.7,5.3-5.6c-3,3.8-4.6,5.6-5.3,6.6s-0.4,1-0.1,0.8c1-1.1,1.9-2.1,2.6-3c0.7-0.9,1.3-1.7,1.6-2.2
	c0.7-1.1,0.7-1.4-0.3-0.3c3.2-3.8,4-5.3,4.8-6.6s1.6-2.5,3.8-6.2c2.8-4.9-0.9,2.7,0.1,1.1c1.3-2.3,1.9-3.7,2.3-4.6
	c0.4-0.9,0.5-1.3,0.6-1.7c0.2-0.8,0.6-1.7,2.6-7.2c-0.1,0.6-0.5,1.6-0.1,0.8c1.1-3,1.8-6.2,2.2-8.9s0.3-4.8,0.2-5.5
	c0.1-0.9,0.1-1.8,0.1-2.8c0-0.5-0.1-1.1-0.1-1.6c-0.1-0.5-0.2-1-0.3-1.5l-0.3-1.6c-0.1-0.5-0.3-1-0.4-1.5c-0.3-1-0.5-2-0.9-2.8
	c-0.3-0.9-0.6-1.7-0.9-2.4c-0.3-0.7-0.6-1.3-0.8-1.8c-0.4-1-0.6-1.5-0.3-1.2c-1.7-3.4-2.6-4.9-2.9-5.3c-0.3-0.5,0,0.1,0.4,1.1
	c0.9,1.9,2.4,5.1,1.7,3.8c-2.9-5.5-8.7-15.1-10.1-18.1c1.7,3.1,3.6,5.9,5.3,9l-1.2-2.9c-4.5-7.9-5.9-10.3-7.2-12.8
	c-0.3-0.6-0.7-1.2-1-1.9c-0.3-0.7-0.6-1.5-1-2.5c-0.3-1-0.7-2.1-1-3.6c-0.1-0.7-0.2-1.5-0.4-2.4c-0.1-0.9-0.2-1.8-0.2-2.9
	c0.1,1.1,0.2,1.9,0.3,2.6s0.2,1.2,0.3,1.5c0.2,0.7,0.2,0.9,0.3,1s0.1-0.2,0.8,1.8c-0.1-0.3-0.2-0.8-0.4-1.3c-0.1-0.6-0.2-1.2-0.4-2
	c-0.1-0.7-0.3-1.5-0.3-2.2c-0.1-0.7-0.1-1.5-0.1-2.1c-0.1-1.3,0-2.3-0.1-2.4c0-0.1,0,0-0.1,0.4c0,0.4-0.1,1.1-0.1,2
	c-0.1-3.1,0.3-5.8,0.8-8.1c0.5-2.3,1.3-4.4,2.1-6.4c1-2.6,2.4-5.2,3.8-7.5c1.4-2.3,2.9-4.2,3.9-5.5c3-3.4,6-6.1,8.6-8.2
	s4.9-3.7,6.7-4.9c7.7-5.8,15.8-10.5,24.2-14.9s17.1-8.5,26.4-13.1l-1.4,0.6c14.5-6.9-6.6,2.6,8.4-4.6c-1.8,1.4,9.2-4,14-6.6
	c2.3-1.3,4.4-2.6,6.5-4.2c1-0.8,1.9-1.6,2.8-2.4c0.9-0.8,1.9-1.5,2.6-2.4c1.6-1.7,3.3-3.3,4.6-5.2c0.7-0.9,1.4-1.8,2.1-2.7
	c0.6-0.9,1.2-1.9,1.8-2.8c4.8-7.5,8.2-15.6,10.5-24.9c0,0.1,0,0.4-0.1,1.2c-0.1,0.8-0.5,2-1,3.8c2.2-7.1,3.3-13.7,3.6-20.2
	c0.4-6.5,0.1-12.8-0.7-19.3l0.1,0.6c-0.4-2.6-0.6-5.3-1.2-7.8c-0.3-1.3-0.5-2.6-0.8-3.8s-0.6-2.5-0.9-3.7c-0.6-2.5-1.3-4.9-2-7.3
	c-0.8-2.4-1.4-4.8-2.3-7.2c-3.3-9.6-7.3-19-12.6-28.6c0.9,1.5,1.3,1.8,2,3c-2.5-4.9-6-11.2-10-16.7s-8.1-10.3-11-12.9
	c-2.1-2.5-3.7-4-4.9-5.2s-2.1-2-3.2-2.8c-0.5-0.4-1-0.9-1.6-1.4c-0.3-0.3-0.6-0.5-1-0.8s-0.8-0.6-1.2-0.9c-0.8-0.7-1.8-1.5-3-2.4
	s-2.7-2-4.4-3.2c-0.8-0.6,1.4,0.9,2.4,1.5c-0.8-0.6-1.7-1.2-2.4-1.8c-0.8-0.6-1.6-1.1-2.4-1.6c-0.8-0.5-1.6-1-2.3-1.5
	c-0.8-0.5-1.6-0.9-2.3-1.3c-1.6-0.9-3.1-1.8-4.8-2.6c-0.8-0.4-1.7-0.8-2.6-1.3c-0.9-0.4-1.8-0.8-2.8-1.3c-1.1-0.4-2.1-0.9-3.1-1.3
	c-1-0.4-1.9-0.7-2.9-1c-1.8-0.7-3.5-1.2-5.1-1.7s-3.1-0.9-4.6-1.3c-1.5-0.4-3-0.8-4.5-1.1c-6-1.4-12.3-2.7-22.9-4
	c-0.5-0.4,2.8-0.1,6.2,0.4c0.9,0.1,1.7,0.2,2.6,0.4c0.8,0.1,1.6,0.3,2.3,0.4c1.4,0.2,2.4,0.3,2.5,0.2c-4.2-0.6-7.9-1.2-13.7-2
	c3.5,0.1,0.8-0.1,3.2,0c-1.1-0.2-2.8-0.4-4.7-0.5s-4-0.2-6-0.3c-2,0-3.8,0-5.2,0c-0.7,0-1.2,0-1.6,0c-0.4,0-0.6,0-0.6,0
	c-0.2,0.1,1.3,0.2,5.5,0.5c-2.5,0-7.7-0.2-13.6-0.3c-5.9-0.1-12.4,0.1-17.6,0.5c1.7-0.1,5.1-0.2,7.7-0.2c2.6,0,4.2,0.1,2.2,0.3
	c-6.9,0.1-11.5,0.5-15.5,1s-7.5,1-12.3,1.6c-6.3,0.5-4,0.1-0.4-0.4s8.5-1.1,7.2-1.3c-2.1,0-7.2,0.1-2-0.6
	c-11.4,0.9-19.5,2.4-29.5,3.8l0.3-0.2c-14,1.9-28.8,4.7-40.5,5c2.1,0,4.1-0.1,6.2-0.2c-1.1,0.1-3.5,0.3-6,0.5s-5.2,0.2-7.2,0.3
	c0.2-0.1-1.9-0.3-3.6-0.5c-1.7-0.3-3-0.5-1.2-0.4c-0.4,0-0.8,0-1.3,0c-0.5-0.1-1.1-0.1-1.7-0.2c-0.6-0.1-1.3-0.2-2-0.4
	c-0.7-0.1-1.4-0.4-2.2-0.6c-0.2-0.1-0.4-0.1-0.6-0.2c-0.2-0.1-0.4-0.2-0.5-0.2c-0.4-0.2-0.7-0.3-1.1-0.5c-0.3-0.2-0.7-0.4-1-0.7
	c-0.2-0.1-0.4-0.2-0.5-0.3l-0.5-0.4c-0.6-0.5-1.3-1.2-1.8-1.9c-0.3-0.4-0.6-0.7-0.8-1.1c-0.3-0.4-0.5-0.8-0.7-1.2
	c-1.8-3.3-2.5-7.2-2.8-10.5c-0.3-3.4-0.2-6.3-0.2-8c0.5-3.7,0.5-0.7,0.6,0.4c-0.4,4.3-0.3,7.2,0,9.6c0.3,2.3,0.7,4.1,1.6,6.1
	c-1.2-3.2-1.4-6.3-1.5-8.3c0-2,0.1-3.1,0.2-2.5c-0.3-3.6,0.2-9.7,1.1-15.4s2-10.9,2.1-12.8c1.4-5.2,2.7-10.2,2.7-8.3
	c2.4-11.2,1.4-8.5,0.7-6.1c-0.4,1.2-0.8,2.2-0.7,1.5c0.1-0.8,0.7-3.4,1.9-9.7c1.2-5.8,0.8-2.9,0.5-0.6c-0.2,1.1-0.3,2.2-0.2,1.9
	c0.1-0.3,0.4-1.8,1.1-5.8l-0.4,3c1.5-5.7,1.5-7.8,1.5-10.1c0-1.1-0.1-2.3-0.1-4.1c0-1.7,0-4-0.1-7.4c0.6-1.8,0.4,9.4,0.8,0.1
	c-0.3-6.2-1.3-10.6-2.9-14.8c-0.8-2.1-1.8-4.1-3.1-6.2c-0.3-0.5-0.6-1-1-1.6c-0.3-0.5-0.7-1.1-1.2-1.6c-0.8-1.1-1.7-2.2-2.7-3.3
	c0.5,0.4,0.9,0.9,1.4,1.3c-2.5-3-6.4-7.3-10.8-11s-9.2-6.9-12.7-8.7c-0.3-0.3,0.7,0.3,2,1c-3.1-1.9-5.1-2.8-6.4-3.4
	c-1.3-0.6-1.9-0.8-2.5-1c-0.5-0.2-1-0.4-2-0.8c-1-0.4-2.6-1.1-5.4-2l-3.3-0.7c2.9,0.8,7,2.2,11.1,4.1c4.1,1.8,8.3,4.2,11.5,6.1
	c-1.6-0.9-1.8-1-1.3-0.5c0.5,0.4,1.8,1.4,3.1,2.4c1.3,1,2.7,2.2,3.5,3s1.1,1.2,0.4,0.7l1.2,0.8c3.6,3.2,7.1,7,10.5,11.3
	c1.7,2.1,3.1,4.4,4.3,6.9c1.2,2.5,2,5.2,2.6,8c1.2,5.6,1.2,11.6,0.8,17.6c-0.5,6-1.6,12-2.8,18c-1.3,7.6-2.9,14-4.5,20.6
	c-0.8,3.3-1.6,6.6-2.3,10.2c-0.7,3.6-1.3,7.3-1.6,11.6c0.2,1.3,0.1,2.1,0,4.4c0,1.1-0.1,2.6,0,4.8c0.1,2.1,0.4,4.9,1.6,8.5
	c-0.7-1.9-0.9-2.9-1-3.2c-0.1-0.4-0.1-0.1,0,0.6c0.2,1.4,1,4.3,2.2,6.6c0.8,1.3,1.8,2.6,3.1,3.8c0.7,0.6,1.4,1.2,2.1,1.7
	c0.8,0.5,1.6,0.9,2.4,1.3c0.3,0.2,0.9,0.5,1.7,0.8c0.8,0.3,1.7,0.6,2.8,0.9c2.2,0.6,5,1.1,7.9,1.2c5.8,0.4,12-0.1,15.3-0.5
	c8.7-0.6-2,0.4-3.9,0.6c3.6,0.1,7.1-0.8,10-0.9c0,0-0.1,0.1-1,0.2c13.3-1.5,21.1-2.6,34.9-4.2c1.1-0.8,13.4-1.9,19.5-2.7
	c-2,0.4,7.7-0.5,11.6-0.6c2.4-0.3,4.9-0.6,7.3-0.9c3.6-0.4,6.2-0.4,9-0.3c2.8,0.1,5.9,0.1,10.6,0.1l-2.3-0.1
	c3.5-0.1,9.7,0.2,15.9,0.9c6.2,0.6,12.3,1.7,15.6,2.5c15.6,2.5,29,7.2,40.5,13.6c5.7,3.2,11,6.9,15.8,10.9s9.1,8.4,13.2,13.2
	c4,4.7,7.6,9.8,10.9,15.2c3.4,5.4,6.3,11.3,9.1,17.4c0.7,1.6,1.3,3.1,2,4.7c0.7,1.6,1.3,3.3,1.9,4.9c0.3,0.8,0.6,1.7,1,2.5
	c0.3,0.8,0.6,1.7,0.9,2.6c0.6,1.7,1.2,3.5,1.8,5.2c1,3.6,2.2,7.2,3.2,11c0.5,1.9,1.1,3.8,1.5,5.8c0.2,1,0.4,2,0.6,3
	c0.1,0.5,0.2,1,0.3,1.5s0.2,1,0.2,1.5c0.8,4.2-0.2-3.2,0.6,0.1c0.3,1.7,0.5,3,0.6,4.2s0.2,2.2,0.3,3.2c0.2,2,0.2,3.9,0.4,7
	c0-5.4-0.2-4.5,0-3.9c-0.1-1.6-0.3-3.1-0.5-4.7c-0.1-0.8-0.1-1.6-0.3-2.3l-0.4-2.3c0-0.5,0.1,0.6,0.1-0.3c-0.1-0.8-0.3-1.6-0.4-2.4
	c-0.2-0.8-0.4-1.7-0.6-2.6c-0.2-0.9-0.4-1.8-0.6-2.8c-0.2-0.9-0.5-1.9-0.7-2.9c0.9,2.8,1.3,4.6,1.9,6.7c0.1,0.5,0.3,1,0.4,1.6
	c0.1,0.6,0.2,1.2,0.3,1.9c0.1,0.7,0.2,1.4,0.3,2.2c0.1,0.4,0.1,0.8,0.2,1.3c0,0.5,0.1,0.9,0.1,1.4c-0.1-0.3-0.1-0.7-0.2-1.3
	c-0.1-0.6-0.2-1.4-0.4-2.4c0.1,0.8,0.2,1.5,0.3,2.2c0.1,0.6,0.1,1.2,0.2,1.7c0.1,1,0.2,1.8,0.3,2.6c0.2,1.5,0.2,2.8,0.3,5.3
	c0,0.8,0,1.4,0,1.9s0,1,0,1.3c0,0.7,0,1.1,0,1.4c0,0.5,0,0.3-0.1,0.7c-0.3,6.2-1.1,12.4-2.7,18.5c-0.9,4.6-2.5,9.6-4.5,13.5
	c-0.5,1-0.9,2-1.4,2.8s-1,1.6-1.4,2.3c-0.4,0.7-0.8,1.3-1.1,1.9c-0.3,0.5-0.6,0.9-0.9,1.2c0.5-0.9,1.9-3.6,3.4-6.6
	c0.7-1.6,1.4-3.2,2-4.7c0.5-1.5,1-3,1.3-4.1c-0.9,2-1.6,4.1-2.7,6.1l0.1,0.5c-0.7,1.4-1.3,2.9-2.1,4.2l-1.2,2.1l-0.6,1
	c-0.2,0.3-0.4,0.7-0.7,1l0.2-0.5c-0.5,1-1.1,2-2.5,4c-0.3,0.3-0.9,1-0.3,0.1l-2,2.7l-1,1.3c-0.4,0.4-0.7,0.8-1.1,1.2
	c1.2-1.5,0.2-0.5-1.1,0.8c-0.7,0.6-1.3,1.4-1.9,1.8c-0.6,0.4-0.9,0.7-0.8,0.4c-1,0.9-2,1.7-3,2.5c-0.9,0.8-1.9,1.4-2.8,2.1
	c-1.9,1.3-3.7,2.3-5.5,3.3c-3.5,2-6.6,3.6-9.6,5.2c-6.1,3.1-12,5.9-21.2,10c3-1.3-5.5,3.3-11,6.1c-3.2,1.6-4.1,1.9-2.1,0.7
	c-2.4,1.3-4.7,2.7-7.1,4c-4.6,2.2-9,4.8-13.7,7.9c-4.7,3.2-9.8,6.9-15.5,12l0.5-0.7c-2,2-4.1,4.1-6.2,6.7c-2.1,2.6-4.4,5.5-6.6,9.3
	l0.5-1.6c-2.8,4.6-3.3,6.7-3.9,8.8c-0.1,0.5-0.3,1.1-0.4,1.7c-0.1,0.6-0.3,1.3-0.5,2.1c-0.3,1.6-0.7,3.6-1,6.6
	c0.2,0,0.4-1.9,0.9-3.9c0.2-1,0.5-2,0.8-2.8s0.5-1.4,0.7-1.7c-0.6,1.2-1.6,5-1.8,8.1c-0.1,1.6-0.1,3,0,3.8s0.1,1,0.1,0.3
	c0.1,2.9,0.6,4.8,0.8,6.1c0.3,1.3,0.5,1.9,0.5,2.3c0.1,0.7-0.1,0.1,0,0.6c0.3,1.1,0.8,2.1,1.1,3.2c0.4,1.1,0.9,2.1,1.4,3.1
	c0.4,0.9,0.7,1.6,1,2.2s0.4,1,0.5,1.2c0.2,0.5,0.1,0.5-0.1,0.2c-0.4-0.6-1.6-2.4-2.2-3.8c3.3,6.8,7.6,13.6,11.4,20.7
	c-0.6-0.9-1.2-1.9-1.8-2.8c1.8,3.1,3.5,6.2,4.8,9.4c1.5,3,2.9,6.9,3.3,11c0.4,4.1-0.4,8.7-1.7,12.8c0.4-2,0.7-4,0.8-6
	c-0.6,2.9-0.8,3.7-0.8,3.9s0.2-0.1,0.1,0.7c-1.1,4.7-2.4,7.5-3.4,9.6c-1,2.2-2,3.7-3.4,5.9c-3.6,7-8.7,13-14.3,18.1
	c-2.8,2.5-5.7,4.8-8.6,6.9C582.6,556.9,579.8,558.8,576.9,560.5z M68.9,119.9c-0.5,0.1-1,0.2-1.5,0.3
	C70.7,119.4,72.6,118.9,68.9,119.9z M7.3,176.5c1.4-5.1,2.2-6.8,2.4-7.3c0.3-0.5,0.1,0.1,0.3-0.3c-1.9,4.9-3,8.8-4,12.6
	c-0.9,3.8-1.6,7.5-2.3,12.1c0.3-1.5,0.5-1.7,0.6-2.2c-0.6,3.6-1,7.3-1.3,8.6c-0.1-2.3,0.6-9.4,2-15.3C6.4,178.9,8.1,174.4,7.3,176.5
	z M175.5,94.3c-0.3,0.2-0.6,0.5-1,0.8l0,0L175.5,94.3z M126.8,113.2c-0.8,0-2.1,0.1-3.7,0.2C124.1,113.4,125.1,113.4,126.8,113.2z
	 M26,139.3c-1,0.8-2.4,2.3-3.9,3.9c-1.5,1.7-3,3.6-4.2,5.3C19.1,147.1,21.1,144.2,26,139.3z M179.3,581.9c-3.1,0.9-8.9,2.5-3.5,1.3
	c2.5-0.8,7.6-1.8,9.7-2.6c0.3-0.1,0.4-0.1,0.5-0.1C182.8,581.2,180.2,581.7,179.3,581.9z M489.3,578.4c-0.6,0.2-2.9,0.4-1.4,0.6
	c-0.3,0-0.6,0-0.9,0c0.8,0.1,1.5,0.1,0.9,0.2c2.6,0,5.3,0.1,7.1,0c0.4-0.3,2-0.6,2-0.7c0-0.1-0.4-0.1-1.6-0.1
	C494.1,578.4,492.3,578.4,489.3,578.4z M384.8,568.7c1.2,0.2,2.1,0.4,2.9,0.5C386.9,569,386,568.9,384.8,568.7z M494.4,579.1
	c0.2,0-2.8-0.1-6.5-0.1C488.6,579,490.4,579.1,494.4,579.1z M333.6,27.4l-3.1,0.5c2.1-0.2,4.1-0.5,6.2-0.7c5.1-0.7,7.8-1.2,9.5-1.5
	c1.7-0.3,2.5-0.5,3.7-0.8c-2.3,0.3-4.4,0.5-6.4,0.7c-2,0.3-4,0.5-6,0.8c-2,0.2-4.1,0.6-6.4,1c-2.3,0.3-4.9,0.8-7.8,1.4l5.1-0.8
	L333.6,27.4z M328,26.1c-1,0.1-3.7,0.4-5.2,0.6l-1.5,0.5L328,26.1z M212.7,69c2.9-1.6,5.8-3.2,8.7-4.8C224,62.5,213.8,67.9,212.7,69
	z M253.2,51.9l4.7-2.3c-2.2,0.9-4.7,1.9-6.7,2.9c-2.1,1-3.7,1.8-4.1,2.1C252.6,51.9,248.5,54,253.2,51.9z M190.1,83.1
	c-1.2,1-3.3,2.4-5.2,3.7c-2,1.3-3.8,2.5-4.5,3.3c1-0.8,3.4-2.4,5.6-3.9C188.1,84.7,190,83.4,190.1,83.1z M197.9,82.4
	c2.8-1.4,7-4.4,12.4-7.6C205.8,77.4,199.5,81,197.9,82.4z M144.8,109.1c0.2-0.2,1.3-0.6,2.9-1.1c0.8-0.3,1.7-0.6,2.7-0.9
	c1-0.4,2-0.8,3.1-1.2c-0.7,0.3-1.3,0.6-1.9,0.9c-0.6,0.3-1.3,0.6-2.3,1c1.8-0.6,3.2-1.3,4.3-1.7c0.6-0.2,1.1-0.4,1.6-0.6
	s0.9-0.4,1.3-0.6c1.7-0.8,3.2-1.4,5.9-2.9c-1.4,0.6-3,1.4-4.6,2c-1.6,0.7-3.1,1.3-4.6,1.8c-2.8,1-4.8,1.5-4.4,1.2
	c-1.1,0.4-2.2,0.9-3.2,1.3s-1.9,0.7-2.5,1C142,109.6,142.1,109.8,144.8,109.1z M185.5,90.7c2.1-1.5,3.9-2.5,5.8-3.7
	c1.9-1.2,3.8-2.4,6.4-4.1c-0.5,0.2-1.2,0.5-2.6,1.3c-1.3,0.8-3.3,2-6.3,4.1l2-1.7C185.1,90.2,193.2,85.4,185.5,90.7z M116.9,113.1
	l3.1-0.1c3.6-0.5,7.6-0.9,11.3-1.6c3.6-0.6,6.8-1.5,8.7-2.1c-4.2,1.1-8.9,2-13.1,2.6C122.7,112.5,119,112.8,116.9,113.1z
	 M163.5,103.8l-0.7,0.8c6.6-3.2-0.5,0.1,1.8-1.2c1.9-0.9,4.6-2.4,5.9-3.2c-1.8,1-2.8,1.5-3.3,1.8c-0.5,0.2-0.5,0.2-0.6,0.2
	s0-0.1-0.4,0.1C165.9,102.5,165.1,103,163.5,103.8z M141.1,112.7c-3,0.8-6.1,1.5-9.2,2.1c1.2-0.1,2.4-0.3,3.7-0.4
	c1.2-0.2,2.5-0.3,3.7-0.5c1.3-0.4,2.4-0.6,3.1-0.8c0.7-0.2,1.2-0.4,1.5-0.5c0.6-0.2,0.3-0.2-0.2-0.1
	C142.7,112.7,140.4,113.1,141.1,112.7z M129.7,114.7c-0.3,0-0.7,0.1-1,0.1c-4.6,0.9-9.3,1.5-13.9,2c4.2-0.4,6.4-0.6,8.3-0.9
	C125,115.6,126.7,115.3,129.7,114.7z M0.8,194.5c0,0.8,0.3-0.9,0.5-2.3c0.3-1.4,0.4-2.6,0.1-0.8c0-0.8-0.4,1.5-0.7,3.3
	c-0.1,0.9-0.2,1.6-0.2,1.7C0.5,196.5,0.5,196,0.8,194.5z M13,163.3c-0.9,1.7-2.6,5.6-3.9,9.8c-1.4,4.2-2.4,8.7-2.9,11.4
	c0.6-3.3,2.1-8.9,3.7-13.5C11.6,166.5,13.3,163,13,163.3z M5.9,186.8c0.1-0.4,0.2-1.3,0.4-2.2C6.1,185.5,5.9,186.3,5.9,186.8z
	 M108,393.4c0.1,0.6,0.2,1.3,0.3,1.8C108.2,394.5,108.1,394,108,393.4z M106.7,387.5c-0.2-1-0.6-2.2-0.9-3.5
	c-0.4-1.3-0.9-2.6-1.3-3.9c-1-2.5-1.9-4.6-2.3-5.2c0.7,1.4,1.2,2.9,1.8,4.3c0.6,1.4,1,2.9,1.5,4.3c0.5,1.5,0.9,3,1.4,4.6
	c0.4,1.6,0.8,3.3,1.2,5.1C107.6,390.6,106.9,387.2,106.7,387.5z M94.3,441.6c0.9-1.2,1.9-2.6,2.7-3.6c0.7-1,1.1-1.7,0.8-1.3
	C96.8,438.1,93,443.1,94.3,441.6z M222.9,572.4c5.2-1.2,8.2-1.9,6.7-1.8C223.8,571.9,227,571.4,222.9,572.4z M236.2,569h0.7
	c1.1-0.2,2.3-0.4,3.4-0.5C238.9,568.6,237.6,568.9,236.2,569z M272,563c-0.3,0.1-1.2,0.3-2.1,0.4C271.9,563.1,273.6,562.8,272,563z
	 M268.8,563.6c0.3,0,0.7-0.1,1-0.2C269.5,563.5,269.1,563.5,268.8,563.6z M266.4,563.8L266,564c0.6-0.1,1.7-0.3,2.8-0.4
	C267.8,563.7,266.8,563.8,266.4,563.8z M282.8,561.8c-2.3,0.1-4.6,0.1-6.9,0.3c-3.5,0.6-1.5,0.4,0.5,0.2c1-0.1,2.1-0.2,2.4-0.1
	c0.3,0.1,0,0.1-1.8,0.5C278.9,562.3,280.9,562.1,282.8,561.8z M306.7,560.4c6.6,0.1,16.1-0.1,19.8,0.7c9.3,0.6,8.3,0.4,7.5,0.1
	c-0.4-0.1-0.6-0.3,0.5-0.2c1.2,0,3.7,0.2,9.1,0.8c-5-0.6-8.2-0.9-10.4-1c-2.2-0.1-3.4-0.1-4.6-0.1s-2.2,0.1-4.1,0
	c-1,0-2.1-0.1-3.6-0.2c-1.5-0.1-3.3-0.1-5.5-0.3c4.3,0.3,2.9,0.3,0,0.3C312.5,560.4,308.2,560.4,306.7,560.4z M303.6,559.6
	c-0.5,0.1,1.3,0.1,3.6,0.2c2.3,0,5,0,6.3,0C311,559.7,306.8,559.2,303.6,559.6z M343.2,562.5c1.9,0.3,3.8,0.6,5.7,0.9h1.5
	L343.2,562.5z M364.7,565.6l-5.6-0.6C361,565.2,369.2,566.6,364.7,565.6z M394.6,571.3c5.2,1,10,1.2-1-0.6l2.5,0.5
	C395.4,571.1,401.3,572.4,394.6,571.3z M464.7,579.9c-3.6-0.3-8-0.5-7.2-0.3c3.3,0.2,6.7,0.4,10,0.6L464.7,579.9z M463.3,578.2
	c-3.3-0.6-9.3-0.7-15.9-1.6c3.7,0.5,5.4,0.6,7.3,0.8C456.6,577.6,458.7,577.9,463.3,578.2z M476.1,581.1c-2.7,0-6.9-0.3-9.4-0.4
	C467.9,581,474.8,581.3,476.1,581.1z M492.1,581.2c3.3,0.2-0.7,0.2,1.8,0.3c3.5,0,7.1,0,10.4-0.2c3.2-0.2,6.1-0.4,8.1-0.7
	c-1.9,0-4.4-0.4-1.5-0.8c-2.8,0.2-5.3,0.4-7.4,0.6c-2.2,0.2-4.1,0.3-5.9,0.4c-3.5,0.3-6.3,0.3-9.1,0c-3.1,0.3-6.3,0.4-9.4,0.6
	c4.5,0.2,6.2,0.1,7.6-0.1C488,581.3,489,581.2,492.1,581.2z M469.5,579.3l6,0.5c-1.2-0.3,3.4-0.2,6.5-0.2c-0.8-0.3-3.1-0.3-5.6-0.3
	C473.9,579.4,471.2,579.4,469.5,579.3z M553.9,574.4c2.1-0.4,4.2-1,6.3-1.6c1-0.3,2.1-0.7,3.1-1s2.1-0.6,3.1-1.1
	c-1.3,0.5-2.7,0.9-4,1.3c-1.4,0.5-2.8,0.9-4.2,1.3l-2.1,0.6L553.9,574.4z M562,572.5h0.4c1.6-0.5,3.1-1.1,4.7-1.7
	c1.5-0.6,3.1-1.2,4.6-1.9c-1.6,0.7-3.2,1.3-4.8,1.9C565.3,571.4,563.6,571.9,562,572.5z M574.8,567.8c-0.5,0.2-0.9,0.4-1.4,0.6
	l-3.5,1.6l-3.6,1.4C569.2,570.3,572,569.1,574.8,567.8z M597.4,552.8l-1.9,1.4c-2.4,2.3-7.9,6-7.2,5.8c0.6-0.4,1.3-1,2.2-1.7
	c0.9-0.6,1.8-1.4,2.7-2.1C594.9,554.8,596.6,553.4,597.4,552.8z M603.6,474.8c1.3,1.9,0.7,0.7,0.1-0.6c-0.7-1-1.4-2-2.1-3.1
	C602.1,472.1,603.3,474,603.6,474.8z M597.4,460.3c-0.3-0.8-0.6-1.6-0.8-2.4s-0.5-1.6-0.7-2.4l-0.5-2.5c-0.2-0.8-0.2-1.7-0.4-2.5
	c0.1,0.7,0.1,1.4,0.2,2.1c0.1,0.6,0.2,1.3,0.3,1.8c0.1,0.6,0.2,1.1,0.3,1.7c0.1,0.5,0.3,1,0.4,1.5c0.5,1.9,1.1,3.4,1.6,4.8
	c1.2,2.8,2.4,5.4,4.8,9.6c-1.9-3.6-4.8-8.7-6-14C596.8,458.8,597.1,459.5,597.4,460.3z M721.4,334c0,0.4,0.2,0.2,0,0.6
	c-0.1,0.2-0.2,0.6-0.4,1.3c-0.3,0.7-0.7,1.8-1.4,3.4c0.5-1.1,0.9-2.1,1.4-3.2c0.4-1.1,0.8-2.1,1.1-3.2c0.8-2.1,1.3-4.3,2-6.4
	c0.3-1.1,0.5-2.2,0.8-3.3c0.2-1.1,0.5-2.3,0.7-3.5c0.3-2.4,0.8-4.9,1-7.6c-0.3,1.8,0-6.2-0.2-2.1c-0.2,4-0.7,7.9-1.4,11.8l0.2-1.8
	c-1,4.1-1.1,5.4-1.5,6.8c-0.2,0.7-0.3,1.4-0.6,2.5c-0.2,0.5-0.3,1.2-0.6,1.9C722.1,332.1,721.8,333,721.4,334z M464.6,60.4
	c0.7,0.9,0.1-0.4-0.7-1.8c-1.1-1.5-1.6-2.1-1.7-2.1s0.3,0.5,0.7,1.1C463.9,58.9,465,61,464.6,60.4z"/>
<g id="lines">
	<path id="line1" class="st1" d="M98.2,296.4v98.9c0,12.2,9.9,22.1,22.1,22.1h110.6c12.2,0,22.1-9.9,22.1-22.1v-35.6"/>
	<path id="line2" class="st1" d="M246.9,251.6V144.3c0-10.9,8.9-19.8,19.8-19.8h95.4c10.9,0,19.8,8.9,19.8,19.8v19.1"/>
	<path id="line3" class="st1" d="M372,332.4v136.1c0,10.9,8.9,19.8,19.8,19.8h117.8c10.9,0,19.8-8.9,19.8-19.8V436"/>
	<path id="line4" class="st1" d="M529.5,354.8v-183c0-10.9,8.9-19.8,19.8-19.8h81.2c8.7,0,15.8,7.1,15.8,15.8v33.8"/>
</g>
<g id="booking">
	<path class="st0" d="M405.7,279.4h-42.1c-5.6,0-10.1-4.5-10.1-10.1v-86.4c0-5.6,4.5-10.1,10.1-10.1h42.1c5.6,0,10.1,4.5,10.1,10.1
		v86.3C415.9,274.8,411.3,279.4,405.7,279.4z"/>
	<path class="st2" d="M353.5,266.7v1c0,5.4,4.4,9.7,9.7,9.7h40.5c5.4,0,9.7-4.4,9.7-9.7v-1H353.5z M382.8,276.4
		c-2.4,0-4.3-1.9-4.3-4.3s1.9-4.3,4.3-4.3s4.3,1.9,4.3,4.3S385.2,276.4,382.8,276.4z"/>
	<path class="st2" d="M402.7,172.4h-40.5c-5.4,0-9.7,4.4-9.7,9.7v1h59.9v-1C412.4,176.7,408,172.4,402.7,172.4z M369.9,179
		c-0.6,0-1-0.5-1-1c0-0.6,0.5-1,1-1c0.6,0,1,0.5,1,1C370.9,178.6,370.5,179,369.9,179z M394.5,179h-16.9c-0.6,0-1-0.5-1-1
		c0-0.6,0.5-1,1-1h16.9c0.6,0,1,0.5,1,1C395.5,178.6,395,179,394.5,179z"/>
	<rect x="352.7" y="185" class="st3" width="55.4" height="75.7"/>
	<path class="st4" d="M402.8,276.9h-42.1c-5.6,0-10.1-4.5-10.1-10.1v-86.2c0-5.6,4.5-10.1,10.1-10.1h42.1c5.6,0,10.1,4.5,10.1,10.1
		v86.2C413,272.3,408.4,276.9,402.8,276.9z"/>
	<path class="st5" d="M394,177.3h-17.6c-0.6,0-1.1-0.5-1.1-1.1l0,0c0-0.6,0.5-1.1,1.1-1.1H394c0.6,0,1.1,0.5,1.1,1.1l0,0
		C395.1,176.8,394.6,177.3,394,177.3z"/>
	<circle class="st5" cx="368.5" cy="176.2" r="1.1"/>
	<line class="st6" x1="349.8" y1="181.8" x2="412.1" y2="181.8"/>
	<line class="st6" x1="350.1" y1="264.6" x2="412.4" y2="264.6"/>
	<g class="st7">
		<polygon class="st8" points="408.4,260.9 408.4,233.2 371.7,260.9 		"/>
		<polygon class="st8" points="353,185.3 353,214.3 391.5,185.3 		"/>
		<polygon class="st8" points="396,185.3 353,217.6 353,220.3 399.5,185.3 		"/>
		<polygon class="st8" points="353,252.3 408.4,210.6 408.4,205.9 353,247.6 		"/>
		<polygon class="st8" points="406.6,185.3 353,225.6 353,240.3 408.4,198.6 408.4,185.3 		"/>
		<polygon class="st8" points="353,245.6 408.4,203.9 408.4,200.6 353,242.3 		"/>
		<polygon class="st8" points="353,260.9 363.7,260.9 408.4,227.2 408.4,216.6 353,258.3 		"/>
	</g>
	<rect x="357.5" y="191.4" class="st5" width="47.4" height="17"/>
	<rect x="357.8" y="211.9" class="st9" width="17" height="17"/>
	<rect x="357.8" y="231.1" class="st9" width="17" height="10.7"/>
	<rect x="378" y="211.9" class="st9" width="27.2" height="30.4"/>
	<path class="st10" d="M401.2,258.3h-39.9c-2.2,0-4-1.8-4-4v-4.7c0-2.2,1.8-4,4-4h39.9c2.2,0,4,1.8,4,4v4.7
		C405.2,256.4,403.4,258.3,401.2,258.3z"/>
	<path class="st0" d="M386.9,328.7L360,304.3c-2-1.8-2.4-4.6-1.1-6.9c1-1.8,2.9-2.8,4.9-2.8c1.1,0,2.1,0.3,3,0.9l12.5,8v-46.4
		c0-3.5,2.9-6.4,6.4-6.4c3.6,0,6.4,2.9,6.4,6.4v22.3l32,4c2.8,0.4,5,2.9,5,5.7V316c0,0.7-0.1,1.5-0.4,2.1l-4.9,10.7h-36.9V328.7z"/>
	<path class="st11" d="M423.3,344.4h-35.1c-1.6,0-2.8-1.3-2.8-2.8v-7.7c0-1.6,1.3-2.8,2.8-2.8h35.1c1.6,0,2.8,1.3,2.8,2.8v7.7
		C426.1,343.2,424.8,344.4,423.3,344.4z"/>
	<g>
		<path class="st12" d="M422.7,329.4l3.5-8.1l0,0l0,0c0.4-0.5,0.7-1.3,0.9-1.9c0.2-0.7,0.3-1.5,0.3-2.2c0.1-1.5,0.1-3,0-4.5
			l-0.1-9.1l-0.1-9.1c0-1.5,0-3.1-0.1-4.5c-0.2-1.4-0.9-2.7-1.9-3.7c-1-1-2.4-1.6-3.8-2c-1.4-0.4-2.9-0.6-4.4-0.8
			c-3-0.5-6-0.8-9-1.2c-6-0.8-12-1.5-18-2.2l-0.6-0.1l0-0.6l-0.2-21.3l0,0.1c0-0.3-0.1-0.7-0.2-1.1c-0.1-0.4-0.2-0.7-0.4-1.1
			c-0.1-0.3-0.3-0.7-0.5-1c-0.2-0.3-0.4-0.6-0.6-0.9c-0.2-0.3-0.5-0.5-0.8-0.8c-0.3-0.2-0.6-0.4-0.9-0.6c-0.3-0.2-0.6-0.3-1-0.4
			c-0.3-0.1-0.7-0.2-1-0.3l-0.5-0.1c0,0-0.3,0-0.4,0c-0.3,0-0.7,0.1-1,0.2c-0.7,0.2-1.3,0.5-1.8,1c-0.3,0.2-0.5,0.5-0.7,0.7
			c-0.2,0.3-0.4,0.6-0.5,0.9c-0.2,0.3-0.3,0.7-0.4,1c-0.1,0.3-0.2,0.7-0.3,1.1l0-0.2l0,23.9l0,12c0,4-0.1,8-0.1,12l0,2.1l-1.7-1.2
			l-6.5-4.5l-3.2-2.3l-1.6-1.1l-0.8-0.6c-0.1-0.1-0.4-0.2-0.7-0.3c-1.1-0.5-2.2-0.7-3.2-0.4c-0.5,0.1-1,0.3-1.4,0.6
			c-0.4,0.3-0.8,0.7-1.1,1.2l-0.1,0.1l0,0c0-0.1,0,0,0,0l0,0.1l-0.1,0.2l-0.2,0.4c-0.1,0.3-0.2,0.5-0.3,0.8
			c-0.2,0.5-0.3,1.1-0.3,1.6c0,0.5,0.1,1.1,0.3,1.5c0.2,0.5,0.6,1,0.9,1.2l0.1,0.1l12.5,12.1l6.2,6.1l6.2,6.1l-0.2,0.2l-6.5-5.8
			l-6.5-5.8l-12.9-11.7l0.1,0.1c-0.7-0.6-1.1-1.1-1.5-1.9c-0.3-0.7-0.5-1.5-0.5-2.3c0-0.8,0.2-1.5,0.4-2.2c0.1-0.3,0.3-0.7,0.4-1
			l0.2-0.4l0.1-0.2l0-0.1l0-0.1l0,0l0.1-0.1c0.4-0.6,0.9-1.2,1.5-1.7c0.6-0.5,1.4-0.8,2.1-1c0.8-0.2,1.6-0.2,2.3-0.1
			c0.7,0.1,1.5,0.3,2.1,0.6c0.4,0.2,0.6,0.3,1.1,0.5l0.8,0.5l1.6,1.1l3.3,2.2l6.5,4.4l-1.8,0.9c0-4,0-8,0.1-12l0.1-12l0.3-23.9
			l0-0.1l0-0.1c0.1-0.4,0.2-0.9,0.3-1.3c0.2-0.4,0.3-0.9,0.5-1.3c0.2-0.4,0.5-0.8,0.7-1.2c0.3-0.4,0.6-0.7,1-1
			c0.7-0.6,1.6-1,2.5-1.3c0.4-0.1,0.9-0.2,1.4-0.3c0.2,0,0.4,0,0.8,0l0.7,0.1c0.4,0.1,0.9,0.2,1.3,0.4c0.4,0.2,0.8,0.4,1.2,0.6
			c0.4,0.2,0.8,0.5,1.1,0.8c0.4,0.3,0.6,0.6,0.9,1c0.3,0.4,0.5,0.7,0.8,1.1c0.2,0.4,0.4,0.8,0.6,1.2c0.2,0.4,0.3,0.8,0.4,1.2
			c0.1,0.4,0.2,0.8,0.3,1.3l0,0l0,0l0,21.3l-0.6-0.7c6,0.7,12,1.5,18,2.4c3,0.4,6,0.9,9,1.4c1.5,0.3,3,0.5,4.5,0.9
			c1.5,0.4,3,1.1,4.1,2.3c1.2,1.1,1.9,2.6,2.1,4.2c0.1,1.6,0,3,0,4.6l0,9.1l0,9.1c0,1.5,0,3-0.1,4.6c-0.1,0.8-0.2,1.5-0.4,2.3
			c-0.2,0.7-0.4,1.5-1,2.1l0-0.1l-3.7,8.1L422.7,329.4z"/>
	</g>
	<g>
		<path class="st12" d="M424.9,341.8c0,0,0-1.7,0-4.6c0-0.7,0-1.5,0-2.4c-0.1-0.8-0.5-1.7-1.2-2.4c-0.4-0.3-0.8-0.6-1.3-0.7
			c-0.5-0.1-1-0.1-1.6-0.1c-1.1,0-2.3,0.1-3.6,0.1c-2.5,0.1-5.2,0.1-8.1,0.2c-2.9,0.1-5.9,0.1-9,0.1c-3.1,0-6.3,0.1-9.6,0.1
			c-0.8,0-1.6,0-2.5,0c-0.8,0-1.7,0-2.3,0.1c-0.6,0.1-1.1,0.5-1.5,0.9c-0.4,0.5-0.6,1.1-0.6,1.7c0,1.7,0.1,3.3,0.1,5
			c0,0.8,0,1.7,0.1,2.3c0.1,0.5,0.4,1,0.9,1.4c0.4,0.3,1,0.5,1.5,0.5c0.8,0,1.6,0,2.4,0c1.6,0,3.2,0,4.7,0c3.1,0,6.1,0,9,0.1
			c2.9,0.1,5.6,0.2,8.1,0.3c2.5,0.1,4.8,0.3,6.8,0.4c1,0.1,2,0.1,2.8,0.2c0.9,0,1.7,0.1,2.3-0.1c1.3-0.4,2-1.4,2.3-2.1
			c0.1-0.4,0.2-0.6,0.2-0.8C424.9,341.9,424.9,341.8,424.9,341.8z M425.2,341.8c0,0,0,0.1,0,0.3c0,0.2,0,0.5-0.2,0.9
			c-0.2,0.8-0.9,1.9-2.4,2.4c-0.8,0.3-1.6,0.2-2.5,0.3c-0.9,0-1.8,0.1-2.8,0.2c-2,0.1-4.3,0.2-6.8,0.4c-2.5,0.1-5.2,0.3-8.1,0.3
			c-2.9,0.1-5.9,0.1-9,0.1c-1.6,0-3.1,0-4.7,0c-0.8,0-1.6,0-2.4,0c-1.1,0-2.2-0.5-3-1.2c-0.8-0.7-1.4-1.7-1.6-2.8l-0.1-0.4l0-0.3
			l0-0.7l0-1.2c0-1.7,0.1-3.3,0.1-5c0-1.1,0.4-2.1,1.1-2.9c0.7-0.8,1.6-1.4,2.7-1.5l0.4-0.1l0.3,0l0.7,0l1.2,0c0.8,0,1.6,0,2.5,0
			c3.3,0,6.5,0.1,9.6,0.1c3.1,0.1,6.1,0.1,9,0.1c2.9,0.1,5.6,0.1,8.1,0.2c1.2,0,2.4,0.1,3.6,0.1c0.6,0,1.2,0,1.7,0.2
			c0.5,0.2,1,0.5,1.4,0.8c0.8,0.7,1.2,1.7,1.2,2.6c0,0.9,0,1.7,0,2.4C425.2,340.2,425.2,341.8,425.2,341.8z"/>
	</g>
</g>
<g id="calendar">
	<path class="st11" d="M215.1,264.2v86.5h80v-86.5H215.1z M289.1,345.9h-69v-72.1h69V345.9z"/>
	<g>
		<path class="st12" d="M297,350.7l-40,0.7c-3.3,0.1-6.7,0-10,0h-10h-20h-0.8v-0.8v-85.9v-0.8h0.8h80h0.7l0,0.8l0,43
			c0,1.8,0,3.6-0.1,5.4l-0.1,5.4l-0.2,10.7L297,350.7z M297,350.7l-0.4-21.5l-0.2-10.7l-0.1-5.4c0-1.8-0.1-3.6-0.1-5.4l0-43l0.7,0.7
			h-80l0.7-0.7v85.9L217,350h20h10c3.3,0,6.7,0,10,0L297,350.7z"/>
	</g>
	<path class="st13" d="M223.1,264.2c0-2.8,1.1-5,2.5-5c1.4,0,2.5,2.2,2.5,5s-1.1,5-2.5,5"/>
	<path class="st13" d="M232.1,264.2c0-2.8,1.1-5,2.5-5c1.4,0,2.5,2.2,2.5,5s-1.1,5-2.5,5"/>
	<path class="st13" d="M241.1,264.2c0-2.8,1.1-5,2.5-5c1.4,0,2.5,2.2,2.5,5s-1.1,5-2.5,5"/>
	<path class="st13" d="M250.1,264.2c0-2.8,1.1-5,2.5-5c1.4,0,2.5,2.2,2.5,5s-1.1,5-2.5,5"/>
	<path class="st13" d="M259.1,264.2c0-2.8,1.1-5,2.5-5s2.5,2.2,2.5,5s-1.1,5-2.5,5"/>
	<path class="st13" d="M268.1,264.2c0-2.8,1.1-5,2.5-5s2.5,2.2,2.5,5s-1.1,5-2.5,5"/>
	<path class="st13" d="M277.1,264.2c0-2.8,1.1-5,2.5-5s2.5,2.2,2.5,5s-1.1,5-2.5,5"/>
	<path class="st13" d="M286.1,264.2c0-2.8,1.1-5,2.5-5s2.5,2.2,2.5,5s-1.1,5-2.5,5"/>
	<rect x="220.6" y="276.7" class="st0" width="66" height="66"/>
	<g>
		<path class="st12" d="M291.2,345.8c-11.5,0.3-22.9,0.5-34.4,0.7c-2.9,0-5.7,0-8.6,0h-8.6h-17.2h-0.8v-0.8v-72.1v-0.8h0.8h68.8h0.8
			l0,0.8l0,36.1l-0.4,18L291.2,345.8z M291.2,345.8l-0.4-18l-0.4-18l0-36.1l0.7,0.7h-68.8l0.7-0.7v72.1l-0.7-0.7h17.2h8.6
			c2.9,0,5.7,0,8.6,0C268.3,345.3,279.8,345.5,291.2,345.8z"/>
	</g>
	<g>
		<path class="st14" d="M245.7,322.1H238v-24.4l-7.5,2.2v-5.8l14.5-5h0.7V322.1z"/>
		<path class="st14" d="M256.1,305.9l2-16.9h19.3v5.9h-13.1l-0.7,6.6c0.5-0.3,1.3-0.6,2.1-0.8c0.9-0.2,1.8-0.4,2.6-0.4
			c3.3,0,5.8,1,7.6,2.9c1.8,1.9,2.6,4.7,2.6,8.2c0,2.1-0.5,4-1.4,5.8c-0.9,1.8-2.3,3-4,4c-1.7,1-3.7,1.4-6.1,1.4
			c-2.1,0-4-0.4-5.8-1.3c-1.8-0.9-3.2-2-4.3-3.5c-1-1.5-1.5-3.2-1.5-5h7.7c0.1,1.2,0.5,2.2,1.2,2.9c0.7,0.7,1.6,1.1,2.7,1.1
			c2.6,0,3.9-1.9,3.9-5.7c0-3.5-1.6-5.3-4.7-5.3c-1.8,0-3.1,0.6-4,1.7L256.1,305.9z"/>
	</g>
	<g>
		<path class="st8" d="M276.5,349.9l3.4,0.6c0.7,0.1,1.4-0.4,1.4-1.2v-1.9c0-0.7,0.6-1.3,1.3-1.2l1.8,0.3c0.7,0.1,1.4-0.5,1.3-1.2
			v-3.6l22,24.8l-9.2,8.2L276.5,349.9z"/>
		<path class="st14" d="M307.2,379.6l4.4-3.9c1.3-1.2,1.4-3.2,0.3-4.5l-4.4-5l-9.2,8.2l4.4,5C303.9,380.6,305.9,380.7,307.2,379.6z"
			/>
		<polygon class="st10" points="279.6,339.2 276,338.1 276.6,341.8 		"/>
		<g>
			<path class="st12" d="M286.6,341.6c-3.7-0.7-7.4-1.5-11.1-2.3l0.7-0.7c0.4,1.9,1,3.7,1.3,5.7c0.3,1.9,0.5,3.8,0.4,5.8l-0.1,0
				c-0.8-1.8-1.3-3.7-1.8-5.6c-0.5-1.9-0.6-3.8-0.9-5.7l-0.2-0.9l0.9,0.3c3.6,1.1,7.3,2.2,10.9,3.3L286.6,341.6z"/>
		</g>
		<g>
			<polygon class="st12" points="298.8,374 278.8,350.7 299.6,373.4 			"/>
		</g>
		<g>
			<path class="st12" d="M308.1,365.8c-1-0.9-1.9-1.9-2.9-2.8l-1.4-1.4c-0.5-0.5-0.9-1-1.3-1.5l-5.2-6.1L287,341.6l0.7,0.1l-0.2,0.2
				l0.2-0.5c0.2,0.8,0.3,1.7,0.4,2.5c0,0.4,0,0.9-0.1,1.3c0,0.2-0.1,0.5-0.2,0.7c-0.1,0.2-0.3,0.5-0.5,0.7l-0.1,0l-0.1,0
				c-0.3,0.1-0.5,0.2-0.8,0.2c-0.3,0.1-0.6,0.1-1,0c-0.3-0.1-0.5-0.2-0.8-0.2c-0.2-0.1-0.4-0.1-0.6-0.1c-0.2,0-0.2,0.1-0.3,0.2
				c0,0,0,0.1-0.1,0.1c0,0.1-0.1,0.1-0.1,0.2c0,0.1-0.1,0.2-0.1,0.3c0,0.2-0.1,0.4,0,0.7c0,0.2,0,0.5,0.1,0.7l0,0.1
				c0,0.3-0.1,0.6-0.2,0.9c-0.1,0.3-0.2,0.6-0.5,0.8c-0.1,0.1-0.3,0.2-0.4,0.3c-0.2,0.1-0.3,0.1-0.5,0.1c-0.3,0-0.6,0-0.8-0.1
				c-0.9-0.3-1.9-0.7-2.8-0.9c1,0,2,0.2,3,0.4c0.2,0,0.4,0.1,0.6,0c0.2,0,0.3-0.1,0.4-0.3c0.1-0.1,0.2-0.3,0.2-0.5
				c0-0.2,0-0.4,0-0.6l0,0.1c-0.1-0.3-0.1-0.6-0.1-0.9c0-0.3,0-0.6,0.1-0.9c0-0.2,0.1-0.3,0.1-0.5c0-0.1,0.1-0.1,0.1-0.2
				c0-0.1,0.1-0.2,0.1-0.2c0.2-0.3,0.6-0.5,1-0.6c0.4-0.1,0.7,0,1,0.1c0.3,0.1,0.6,0.2,0.8,0.2c0.1,0,0.4,0,0.6,0
				c0.2,0,0.5-0.1,0.7-0.2l-0.1,0.1c0.1-0.1,0.2-0.2,0.2-0.3c0.1-0.1,0.1-0.3,0.1-0.5c0.1-0.3,0.1-0.7,0.1-1.1
				c0-0.8-0.2-1.6-0.4-2.3l-0.1-0.3l0.2-0.2l0.2-0.2l0.4-0.3l0.3,0.4l10.4,12.3l5.2,6.1c0.4,0.5,0.9,1,1.3,1.5l1.2,1.6
				C306.6,363.6,307.4,364.7,308.1,365.8z"/>
		</g>
		<g>
			<path class="st12" d="M285.9,346.8c0,0,1.3,1.2,3.2,3.1c0.9,1,2.1,2,3.2,3.3c1.2,1.2,2.4,2.5,3.7,3.8c1.2,1.3,2.4,2.6,3.6,3.9
				c1.1,1.2,2.2,2.4,3.1,3.4c1.8,2,2.9,3.4,2.9,3.4s-1.3-1.2-3.2-3.1c-0.9-1-2.1-2-3.2-3.3c-1.2-1.2-2.4-2.5-3.7-3.8
				c-1.2-1.3-2.4-2.6-3.6-3.9c-1.1-1.2-2.2-2.4-3.1-3.4C287.1,348.2,285.9,346.8,285.9,346.8z"/>
		</g>
		<g>
			<path class="st12" d="M282.3,350.8c0,0,1.3,1.2,3.1,3.2c0.9,1,2,2.1,3.1,3.3c1.1,1.2,2.3,2.5,3.5,3.8c1.2,1.3,2.3,2.7,3.4,3.9
				c1.1,1.2,2.1,2.4,2.9,3.5c1.7,2,2.8,3.4,2.8,3.4s-1.3-1.2-3.1-3.2c-0.9-1-2-2.1-3.1-3.3c-1.1-1.2-2.3-2.5-3.5-3.8
				c-1.2-1.3-2.3-2.7-3.4-3.9c-1.1-1.2-2.1-2.4-2.9-3.5C283.4,352.2,282.3,350.8,282.3,350.8z"/>
		</g>
		<g>
			<path class="st12" d="M309.3,366.3l-9.1,8.3l0-0.6l4.5,5.7l0,0c0.2,0.1,0.4,0.2,0.6,0.3c0.2,0.1,0.4,0.2,0.7,0.2
				c0.4,0.1,0.9,0.1,1.4,0c0.2-0.1,0.5-0.1,0.7-0.2c0.2-0.1,0.4-0.2,0.6-0.3c0.4-0.2,0.8-0.5,1.2-0.8c1.5-1.2,2.9-2.7,4.1-4.2l0,0
				l0,0c0.1-0.1,0.2-0.2,0.2-0.4c0-0.1,0.1-0.3,0.1-0.4c0-0.3,0-0.6-0.1-0.9c-0.1-0.6-0.4-1.2-0.7-1.8l0,0l-3.9-4.6l4,4.4l0,0l0,0
				c0.3,0.6,0.6,1.2,0.7,1.8c0.1,0.3,0.1,0.6,0.1,1c0,0.2,0,0.3-0.1,0.5c-0.1,0.2-0.1,0.3-0.3,0.5l0,0c-1.2,1.6-2.5,3.1-4,4.4
				c-0.4,0.3-0.8,0.6-1.2,0.9c-0.2,0.1-0.5,0.3-0.7,0.3c-0.2,0.1-0.5,0.2-0.8,0.2c-0.5,0.1-1.1,0.1-1.6,0c-0.3,0-0.5-0.1-0.8-0.2
				c-0.3-0.1-0.5-0.2-0.7-0.4l0,0l0,0l-4.7-5.5l-0.3-0.3l0.3-0.3l8.9-8.5L309.3,366.3z"/>
		</g>
		<g>
			<polygon class="st12" points="310.8,367.9 302.1,375.5 310.1,367.2 			"/>
		</g>
		<g>
			<path class="st12" d="M303.7,377.4c0,0,0.1-0.2,0.2-0.5c0.1-0.1,0.2-0.3,0.3-0.5c0.1-0.1,0.1-0.2,0.2-0.3
				c0.1-0.1,0.2-0.2,0.3-0.3c0.8-0.7,1.8-1.7,2.8-2.6c1-1,2-1.9,2.8-2.6c0.1-0.1,0.2-0.2,0.3-0.3c0.1-0.1,0.2-0.1,0.3-0.2
				c0.2-0.1,0.4-0.2,0.5-0.2c0.3-0.1,0.5-0.2,0.5-0.2s-0.1,0.2-0.2,0.5c-0.1,0.1-0.2,0.3-0.3,0.5c-0.1,0.1-0.1,0.2-0.2,0.3
				c-0.1,0.1-0.2,0.2-0.3,0.3c-0.8,0.7-1.8,1.7-2.8,2.6c-1,1-2,1.9-2.8,2.6c-0.1,0.1-0.2,0.2-0.3,0.3c-0.1,0.1-0.2,0.1-0.3,0.2
				c-0.2,0.1-0.4,0.2-0.5,0.2C303.9,377.3,303.7,377.4,303.7,377.4z"/>
		</g>
		<polygon class="st12" points="275.6,338.7 279.3,339.6 276.4,342 		"/>
	</g>
	<path class="st15" d="M251,342.9c0,0,25-7,34.4-39.4c0,0,3.3-18.6-14.8-19.6s-29.8,1.4-37.3,6.2c0,0-6.4,10.1-6.3,21.6
		s15,17.5,15,17.5l26.3,7.2"/>
</g>
<g id="camera">
	<path class="st2" d="M550.3,374.3c3.6,4.3,5.7,9.7,5.7,15.7c0,13.5-10.9,24.4-24.4,24.4s-24.4-10.9-24.4-24.4
		c0-6,2.2-11.5,5.7-15.7h-32.3v39.5c0,1.3,0.3,2.6,0.8,3.8h100.5c0.5-1.2,0.8-2.4,0.8-3.8v-39.5H550.3z"/>
	<linearGradient id="SVGID_1_" gradientUnits="userSpaceOnUse" x1="479.9554" y1="395.9626" x2="496.411" y2="395.9626">
		<stop  offset="0" style="stop-color:#4248B7"/>
		<stop  offset="1" style="stop-color:#4248B7;stop-opacity:0"/>
	</linearGradient>
	<rect x="480" y="374.1" class="st16" width="16.5" height="43.6"/>
	<linearGradient id="SVGID_2_" gradientUnits="userSpaceOnUse" x1="556.6055" y1="395.9939" x2="582.6555" y2="395.9939">
		<stop  offset="0" style="stop-color:#4248B7;stop-opacity:0"/>
		<stop  offset="1" style="stop-color:#4248B7"/>
	</linearGradient>
	<rect x="556.6" y="374.3" class="st17" width="26.1" height="43.3"/>
	<path class="st0" d="M482.4,421.7c1.5,3.6,5,6.1,9.1,6.1h82.3c4.1,0,7.6-2.5,9.1-6.1H482.4z"/>
	<path class="st0" d="M572.2,356.7h-82.4c-5.4,0-9.8,4.4-9.8,9.8v3.6h37.1c3.9-2.7,8.7-4.3,13.9-4.3s9.9,1.6,13.9,4.3H582v-3.6
		C582,361.1,577.6,356.7,572.2,356.7z"/>
	<g>
		<path class="st12" d="M582.3,368c0,0,0,1.3,0,3.6c0,2.4,0,5.8,0.1,10.3c0.1,4.4,0.2,9.8,0.4,16c0.1,3.1,0.1,6.4,0.2,9.8
			c0,1.7,0,3.5,0,5.3c0,0.9,0,1.8,0,2.8c0,0.5,0,0.9,0,1.4c0,0.2,0,0.5,0,0.7l-0.1,0.8c-0.4,2-1.4,4-3,5.4c-1.5,1.5-3.6,2.4-5.8,2.6
			c-1.1,0.1-2.1,0-3.2,0c-1,0-2.1,0-3.1,0c-2.1,0-4.3,0-6.4,0c-8.7,0-17.8,0-27.3,0c-9.5,0-19.3,0-29.2,0c-5,0-10,0-15,0
			c-0.3,0-0.6,0-1,0c-0.3,0-0.6,0-1-0.1c-0.7-0.1-1.4-0.2-2-0.5c-1.3-0.4-2.5-1.1-3.5-2.1c-2-1.8-3.2-4.5-3.2-7.3
			c0-10.1,0-20.2,0-30.2c0-5,0-9.9,0-14.8c0-1.2,0-2.4,0-3.6c0-1.2,0.2-2.6,0.7-3.8c0.9-2.4,2.9-4.4,5.2-5.5
			c1.2-0.5,2.4-0.8,3.7-0.8c1.2,0,2.4,0,3.5,0c2.3,0,4.6,0,6.9,0c4.6,0,9,0,13.4,0c8.7,0,16.9,0,24.5,0c3.8,0,7.4,0,10.9,0
			c3.5,0.1,6.7,0.1,9.8,0.2c6.2,0.2,11.5,0.3,16,0.4c2.3,0.1,4.1,1.1,5.4,2.2c1.3,1.1,2.1,2.4,2.6,3.5c0.5,1.1,0.6,2,0.6,2.6
			C582.3,367.7,582.3,368,582.3,368z M582.3,368c0,0,0-0.3-0.1-0.9c-0.1-0.6-0.2-1.5-0.7-2.6c-0.5-1.1-1.3-2.3-2.6-3.4
			c-0.7-0.5-1.4-1-2.3-1.4c-0.9-0.4-1.9-0.6-3-0.6c-4.4,0-9.8,0.2-15.9,0.4c-3.1,0.1-6.4,0.1-9.8,0.2c-3.5,0.1-7.1,0-10.9,0
			c-7.6,0-15.8,0-24.5,0c-4.3,0-8.8,0-13.4,0c-2.3,0-4.6,0-6.9,0c-1.2,0-2.4,0-3.5,0c-1.1,0-2.2,0.3-3.1,0.7c-2,0.9-3.6,2.6-4.4,4.6
			c-0.4,1.1-0.6,2.1-0.6,3.3c0,1.2,0,2.4,0,3.6c0,4.9,0,9.8,0,14.8c0,9.9,0,20.1,0,30.2c0,2.3,1,4.6,2.7,6.2c0.9,0.8,1.9,1.4,3,1.8
			c0.5,0.2,1.1,0.3,1.7,0.4c0.3,0,0.6,0,0.9,0.1c0.2,0,0.6,0,0.9,0c5,0,10,0,15,0c9.9,0,19.7,0,29.2,0c9.5,0,18.6,0,27.3,0
			c2.2,0,4.3,0,6.4,0c1.1,0,2.1,0,3.1,0c1,0,2.1,0,3,0c3.8-0.3,6.9-3.4,7.5-6.8l0.1-0.6c0-0.2,0-0.5,0-0.7c0-0.4,0-0.9,0-1.4
			c0-0.9,0-1.8,0-2.8c0-1.8,0-3.6,0-5.3c0.1-3.5,0.1-6.7,0.2-9.8c0.2-6.2,0.3-11.5,0.4-16c0.1-4.4,0.1-7.9,0.1-10.3
			C582.3,369.2,582.3,368,582.3,368z"/>
	</g>
	<circle class="st18" cx="531" cy="392.2" r="24.4"/>
	<circle class="st18" cx="531" cy="392.2" r="18.2"/>
	<line class="st18" x1="480" y1="376.4" x2="512.3" y2="376.4"/>
	<line class="st18" x1="549.7" y1="376.4" x2="582" y2="376.4"/>
	<path class="st10" d="M502.7,353.3H493c-1.2,0-2.2,1-2.2,2.2v3.1h14.1v-3.1C504.9,354.3,503.9,353.3,502.7,353.3z"/>
	<rect x="557.2" y="372.1" class="st18" width="7" height="4.3"/>
	<rect x="567.7" y="372.1" class="st18" width="7" height="4.3"/>
	<line class="st18" x1="582" y1="372.1" x2="544.9" y2="372.1"/>
	<line class="st18" x1="517.1" y1="372.1" x2="480" y2="372.1"/>
	<path class="st18" d="M526.3,379.1c1.5-0.5,3.1-0.8,4.7-0.8c7.7,0,13.9,6.2,13.9,13.9c0,3.6-1.4,6.9-3.6,9.4"/>
	<path class="st18" d="M537.3,404.6c-1.9,1-4,1.5-6.3,1.5"/>
	<circle class="st18" cx="531" cy="392.2" r="21.3"/>
	<line class="st18" x1="480.8" y1="419.7" x2="581.2" y2="419.7"/>
</g>
<g id="clouds_and_stars">
	<path class="st0" d="M354.2,86.6L354.2,86.6c-5,0-9.1,4.1-9.1,9.1l0,0l0,0c0-5-4.1-9.1-9.1-9.1l0,0l0,0c5,0,9.1-4.1,9.1-9.1l0,0
		l0,0C345.1,82.6,349.1,86.6,354.2,86.6L354.2,86.6z"/>
	<path class="st0" d="M534.1,540.5L534.1,540.5c-5,0-9.1,4.1-9.1,9.1l0,0l0,0c0-5-4.1-9.1-9.1-9.1l0,0l0,0c5,0,9.1-4.1,9.1-9.1l0,0
		l0,0C525.1,536.5,529.1,540.5,534.1,540.5L534.1,540.5z"/>
	<path class="st0" d="M125.1,542.5L125.1,542.5c-5,0-9.1,4.1-9.1,9.1l0,0l0,0c0-5-4.1-9.1-9.1-9.1l0,0l0,0c5,0,9.1-4.1,9.1-9.1l0,0
		l0,0C116.1,538.5,120.1,542.5,125.1,542.5L125.1,542.5z"/>
	<path class="st19" d="M542.6,577.3L542.6,577.3c-5,0-9.1,4.1-9.1,9.1l0,0l0,0c0-5-4.1-9.1-9.1-9.1l0,0l0,0c5,0,9.1-4.1,9.1-9.1l0,0
		l0,0C533.6,573.3,537.6,577.3,542.6,577.3L542.6,577.3z"/>
	<path class="st18" d="M597.3,346.6L597.3,346.6c-5,0-9.1,4.1-9.1,9.1l0,0l0,0c0-5-4.1-9.1-9.1-9.1l0,0l0,0c5,0,9.1-4.1,9.1-9.1l0,0
		l0,0C588.3,342.6,592.3,346.6,597.3,346.6L597.3,346.6z"/>
	<path class="st0" d="M578.8,339.7L578.8,339.7c-2.4,0-4.3,1.9-4.3,4.3l0,0l0,0c0-2.4-1.9-4.3-4.3-4.3l0,0l0,0
		c2.4,0,4.3-1.9,4.3-4.3l0,0l0,0C574.4,337.7,576.4,339.7,578.8,339.7L578.8,339.7z"/>
	<path class="st0" d="M598.7,365.8L598.7,365.8c-2.4,0-4.3,1.9-4.3,4.3l0,0l0,0c0-2.4-1.9-4.3-4.3-4.3l0,0l0,0
		c2.4,0,4.3-1.9,4.3-4.3l0,0l0,0C594.4,363.9,596.3,365.8,598.7,365.8L598.7,365.8z"/>
	<circle class="st20" cx="43.2" cy="282.7" r="1.9"/>
	<circle class="st20" cx="301.6" cy="565.5" r="1.9"/>
	<circle class="st20" cx="520.6" cy="132.8" r="1.9"/>
	<circle class="st0" cx="594.9" cy="166.6" r="4"/>
	<path class="st19" d="M454.6,71.7L454.6,71.7c-5,0-9.1,4.1-9.1,9.1l0,0l0,0c0-5-4.1-9.1-9.1-9.1l0,0l0,0c5,0,9.1-4.1,9.1-9.1l0,0
		l0,0C445.5,67.7,449.6,71.7,454.6,71.7L454.6,71.7z"/>
	<path class="st21" d="M177.5,477h-7.6c-1.1-5-5.6-8.7-11-8.7l0,0c-0.9-4.3-4.7-7.6-9.3-7.6c-1.4,0-2.8,0.3-4,0.9
		c-2-4.8-6.7-8.2-12.2-8.2c-7.3,0-13.2,5.9-13.2,13.2v0.1c-0.4-0.1-0.8-0.1-1.2-0.1c-5.3,0-9.5,4.3-9.5,9.5c0,0.3,0,0.6,0,0.9h-0.2
		c-7,0-12.7,5.7-12.7,12.7l0,0h93.8l0,0C190.2,482.7,184.5,477,177.5,477z M142.2,476.3c0.2,0.2,0.4,0.4,0.6,0.7h-1.4
		C141.7,476.8,141.9,476.5,142.2,476.3z"/>
	<path class="st0" d="M173.8,480h-7.6c-1.1-5-5.6-8.7-11-8.7l0,0c-0.9-4.3-4.7-7.6-9.3-7.6c-1.4,0-2.8,0.3-4,0.9
		c-2-4.8-6.7-8.2-12.2-8.2c-7.3,0-13.2,5.9-13.2,13.2v0.1c-0.4-0.1-0.8-0.1-1.2-0.1c-5.3,0-9.5,4.3-9.5,9.5c0,0.3,0,0.6,0,0.9h-0.2
		c-7,0-12.7,5.7-12.7,12.7l0,0h93.8l0,0C186.5,485.7,180.8,480,173.8,480z M138.5,479.3c0.2,0.2,0.4,0.4,0.6,0.7h-1.4
		C138,479.8,138.3,479.6,138.5,479.3z"/>
	<path class="st21" d="M559.9,220.2h-9.8c-1.5-6.4-7.2-11.2-14.1-11.2l0,0c-1.2-5.6-6.1-9.7-12-9.7c-1.8,0-3.6,0.4-5.2,1.1
		c-2.5-6.1-8.6-10.5-15.7-10.5c-9.4,0-16.9,7.6-16.9,16.9v0.1c-0.5-0.1-1-0.1-1.6-0.1c-6.8,0-12.3,5.5-12.3,12.3
		c0,0.4,0,0.7,0.1,1.1h-0.3c-9,0-16.4,7.3-16.4,16.4l0,0h120.5l0,0C576.3,227.5,568.9,220.2,559.9,220.2z M514.5,219.3
		c0.2,0.3,0.5,0.6,0.8,0.8h-1.8C513.9,219.9,514.2,219.6,514.5,219.3z"/>
	<path class="st0" d="M555.9,224.8h-9.8c-1.5-6.4-7.2-11.2-14.1-11.2l0,0c-1.2-5.6-6.1-9.7-12-9.7c-1.8,0-3.6,0.4-5.2,1.1
		c-2.5-6.1-8.6-10.5-15.7-10.5c-9.4,0-16.9,7.6-16.9,16.9v0.1c-0.5-0.1-1-0.1-1.6-0.1c-6.8,0-12.3,5.5-12.3,12.3
		c0,0.4,0,0.7,0.1,1.1h-0.3c-9,0-16.4,7.3-16.4,16.4l0,0h120.5l0,0C572.3,232.2,565,224.8,555.9,224.8z M510.6,224
		c0.2,0.3,0.5,0.6,0.8,0.8h-1.8C509.9,224.6,510.2,224.3,510.6,224z"/>
	<path class="st21" d="M319.3,434.7L319.3,434.7h93.8l0,0c0-7-5.7-12.7-12.7-12.7h-0.2c0-0.3,0-0.6,0-0.9c0-5.3-4.3-9.5-9.5-9.5
		c-0.4,0-0.8,0-1.2,0.1v-0.1c0-7.3-5.9-13.2-13.2-13.2c-5.5,0-10.2,3.4-12.2,8.2c-1.2-0.6-2.6-0.9-4-0.9c-4.6,0-8.4,3.2-9.3,7.6l0,0
		c-5.4,0-9.8,3.7-11,8.7h-7.6C325,421.9,319.3,427.6,319.3,434.7z M368.1,421.9h-1.4c0.2-0.2,0.4-0.4,0.6-0.7
		C367.5,421.5,367.8,421.7,368.1,421.9z"/>
	<path class="st0" d="M315.8,438.6L315.8,438.6h93.8l0,0c0-7-5.7-12.7-12.7-12.7h-0.2c0-0.3,0-0.6,0-0.9c0-5.3-4.3-9.5-9.5-9.5
		c-0.4,0-0.8,0-1.2,0.1v-0.1c0-7.3-5.9-13.2-13.2-13.2c-5.5,0-10.2,3.4-12.2,8.2c-1.2-0.6-2.6-0.9-4-0.9c-4.6,0-8.4,3.2-9.3,7.6l0,0
		c-5.4,0-9.8,3.7-11,8.7h-7.6C321.5,425.9,315.8,431.6,315.8,438.6z M364.6,425.9h-1.4c0.2-0.2,0.4-0.4,0.6-0.7
		C364,425.4,364.3,425.7,364.6,425.9z"/>
	<path class="st21" d="M182.2,131L182.2,131h129.4l0,0c0-9.7-7.9-17.6-17.6-17.6h-0.3c0-0.4,0.1-0.8,0.1-1.2
		c0-7.3-5.9-13.2-13.2-13.2c-0.6,0-1.1,0-1.7,0.1V99c0-10-8.1-18.2-18.2-18.2c-7.6,0-14.1,4.6-16.8,11.3c-1.7-0.8-3.6-1.2-5.6-1.2
		c-6.3,0-11.6,4.5-12.9,10.4l0,0c-7.4,0-13.6,5.2-15.1,12.1h-10.5C190.1,113.5,182.2,121.3,182.2,131z M249.6,113.5h-1.9
		c0.3-0.3,0.6-0.6,0.8-0.9C248.8,112.9,249.2,113.2,249.6,113.5z"/>
	<path class="st0" d="M177.5,133.3L177.5,133.3h129.4l0,0c0-9.7-7.9-17.6-17.6-17.6H289c0-0.4,0.1-0.8,0.1-1.2
		c0-7.3-5.9-13.2-13.2-13.2c-0.6,0-1.1,0-1.7,0.1v-0.1c0-10-8.1-18.2-18.2-18.2c-7.6,0-14.1,4.6-16.8,11.3c-1.7-0.8-3.6-1.2-5.6-1.2
		c-6.3,0-11.6,4.5-12.9,10.4l0,0c-7.4,0-13.6,5.2-15.1,12.1h-10.5C185.3,115.7,177.5,123.6,177.5,133.3z M244.8,115.7h-1.9
		c0.3-0.3,0.6-0.6,0.8-0.9C244.1,115.1,244.5,115.4,244.8,115.7z"/>
	<path id="XMLID_27_" class="st0" d="M180,383.4l-3.4,1l3.4,1c1.4,0.4,2.5,1.5,2.9,2.9l1,3.4l1-3.4c0.4-1.4,1.5-2.5,2.9-2.9l3.4-1
		l-3.4-1c-1.4-0.4-2.5-1.5-2.9-2.9l-1-3.4l-1,3.4C182.5,381.9,181.4,383,180,383.4z"/>
	<g id="stars">
		<path id="star6" class="st10" d="M166.3,62l-3.4,1l3.4,1c1.4,0.4,2.5,1.5,2.9,2.9l1,3.4l1-3.4c0.4-1.4,1.5-2.5,2.9-2.9l3.4-1
			l-3.4-1c-1.4-0.4-2.5-1.5-2.9-2.9l-1-3.4l-1,3.4C168.7,60.5,167.7,61.6,166.3,62z"/>
		<path id="star5" class="st10" d="M158.8,602.5l-3.4,1l3.4,1c1.4,0.4,2.5,1.5,2.9,2.9l1,3.4l1-3.4c0.4-1.4,1.5-2.5,2.9-2.9l3.4-1
			l-3.4-1c-1.4-0.4-2.5-1.5-2.9-2.9l-1-3.4l-1,3.4C161.2,601,160.2,602.1,158.8,602.5z"/>
		<path id="star4" class="st10" d="M650,421.7l-3.4,1l3.4,1c1.4,0.4,2.5,1.5,2.9,2.9l1,3.4l1-3.4c0.4-1.4,1.5-2.5,2.9-2.9l3.4-1
			l-3.4-1c-1.4-0.4-2.5-1.5-2.9-2.9l-1-3.4l-1,3.4C652.5,420.3,651.4,421.3,650,421.7z"/>
		<path id="star3" class="st8" d="M493.1,76.3l-3.4,1l3.4,1c1.4,0.4,2.5,1.5,2.9,2.9l1,3.4l1-3.4c0.4-1.4,1.5-2.5,2.9-2.9l3.4-1
			l-3.4-1c-1.4-0.4-2.5-1.5-2.9-2.9l-1-3.4l-1,3.4C495.6,74.8,494.5,75.9,493.1,76.3z"/>
		<path id="star2" class="st8" d="M673.5,309.8l-3.4,1l3.4,1c1.4,0.4,2.5,1.5,2.9,2.9l1,3.4l1-3.4c0.4-1.4,1.5-2.5,2.9-2.9l3.4-1
			l-3.4-1c-1.4-0.4-2.5-1.5-2.9-2.9l-1-3.4l-1,3.4C675.9,308.3,674.8,309.4,673.5,309.8z"/>
		<path id="star1" class="st8" d="M24.3,317.6l-3.4,1l3.4,1c1.4,0.4,2.5,1.5,2.9,2.9l1,3.4l1-3.4c0.4-1.4,1.5-2.5,2.9-2.9l3.4-1
			l-3.4-1c-1.4-0.4-2.5-1.5-2.9-2.9l-1-3.4l-1,3.4C26.8,316.1,25.7,317.2,24.3,317.6z"/>
	</g>
</g>
<g id="icons">
	<g>
		<path id="XMLID_144_" class="st10" d="M607.5,516.9c-0.9,0-21.7,0-21.7-4.2v-15.3c0-12.4,9.7-22.5,21.7-22.5
			c11.9,0,21.7,10.1,21.7,22.5v15.3C629.2,516.9,608.4,516.9,607.5,516.9z M587.3,512.7c0.5,1,7.6,2.7,20.2,2.7
			c12.6,0,19.8-1.8,20.2-2.7v-15.2c0-11.6-9.1-21-20.2-21c-11.2,0-20.2,9.4-20.2,21V512.7z"/>
		<path id="XMLID_139_" class="st10" d="M607.5,508.8c-0.9,0-21.7,0-21.7-4.2c0-4.1,20.8-4.2,21.7-4.2s21.7,0,21.7,4.2
			S608.4,508.8,607.5,508.8z M587.3,504.7c0.6,1,7.7,2.7,20.2,2.7s19.6-1.7,20.2-2.7c-0.6-1-7.7-2.7-20.2-2.7
			S587.9,503.7,587.3,504.7z"/>
		<path class="st10" d="M602.4,487.6l-1.1,0.3l1.1,0.3c0.5,0.1,0.8,0.5,1,1l0.3,1.1l0.3-1.1c0.1-0.5,0.5-0.8,1-1l1.1-0.3l-1.1-0.3
			c-0.5-0.1-0.8-0.5-1-1l-0.3-1.1l-0.3,1.1C603.2,487.1,602.8,487.4,602.4,487.6z"/>
		<path class="st10" d="M608.7,482.8l-1.4,0.4l1.4,0.4c0.6,0.2,1,0.6,1.2,1.2l0.4,1.4l0.4-1.4c0.2-0.6,0.6-1,1.2-1.2l1.4-0.4
			l-1.4-0.4c-0.6-0.2-1-0.6-1.2-1.2l-0.4-1.4l-0.4,1.4C609.7,482.2,609.3,482.6,608.7,482.8z"/>
		<path id="XMLID_88_" class="st10" d="M596.8,494.4C596.9,494.4,596.9,494.4,596.8,494.4c1.1,0,2.1,0,3,0c0.1,0,0.1,0,0.1,0.1
			c0.1,1-0.1,1.9-0.7,2.7c-0.4,0.5-0.9,0.7-1.6,0.9c-0.6,0.1-1.3,0.1-1.9-0.1c-1.5-0.5-2.5-1.8-2.4-3.3c0-1,0.4-1.8,1.1-2.4
			c1.2-1.1,3.1-1.2,4.4-0.2c0.1,0.1,0.2,0.2,0.3,0.2c-0.2,0.2-0.4,0.5-0.6,0.7c-0.2-0.1-0.3-0.2-0.4-0.3c-1.2-0.7-2.8-0.3-3.4,1
			c-0.4,0.9-0.4,1.7,0.1,2.5s1.3,1.2,2.3,1.1c0.5,0,0.9-0.2,1.3-0.5c0.4-0.3,0.7-0.9,0.7-1.4c-0.7,0-1.5,0-2.2,0
			C596.8,495,596.8,494.7,596.8,494.4z"/>
		<path id="XMLID_83_" class="st10" d="M613.9,497.6c-0.1,0.1-0.2,0.2-0.3,0.2c-0.3,0.2-0.7,0.3-1,0.3c-0.8-0.1-1.6-0.6-1.9-1.5
			c-0.3-1,0.1-2.2,1-2.7c0.5-0.3,1.1-0.3,1.6-0.1c0.2,0.1,0.3,0.2,0.5,0.3c0,0,0,0,0.1,0.1c0-0.1,0-0.2,0-0.4c0.3,0,0.6,0,0.9,0
			c0,0,0,0,0,0.1c0,1.3,0,2.7,0,4c0,0.4-0.1,0.8-0.3,1.2c-0.3,0.6-0.8,0.9-1.4,0.9c-0.5,0.1-1,0-1.4-0.2s-0.7-0.6-0.9-1l0,0
			c0.3-0.1,0.6-0.2,0.8-0.3v0.1c0.2,0.4,0.5,0.6,0.9,0.7c0.6,0.1,1.2-0.3,1.3-1C613.9,498,613.9,497.8,613.9,497.6z M614,495.9
			c0-0.1,0-0.2,0-0.3c0-0.1,0-0.2-0.1-0.3c-0.2-0.4-0.5-0.7-0.9-0.8c-0.5-0.1-0.8,0.1-1.1,0.5c-0.3,0.5-0.4,1.2,0,1.7
			c0.4,0.6,1.3,0.7,1.8,0.1C613.9,496.6,614,496.3,614,495.9z"/>
		<path id="XMLID_78_" class="st10" d="M602.9,493.7c0.7,0,1.3,0.3,1.8,1c0.6,1,0.4,2.7-1.1,3.2c-1,0.4-2.2,0.1-2.7-1
			c-0.6-1.1-0.1-2.6,1.1-3.1C602.2,493.8,602.5,493.7,602.9,493.7z M601.5,495.9c0,0.1,0,0.2,0,0.2c0,0.1,0,0.1,0.1,0.2
			c0.3,0.9,1.4,1.2,2.1,0.5c0.3-0.4,0.4-0.8,0.3-1.3c-0.2-0.8-1.1-1.2-1.8-0.8C601.7,495,601.5,495.4,601.5,495.9z"/>
		<path id="XMLID_73_" class="st10" d="M607.8,493.7c0.8,0,1.5,0.3,1.9,1c0.6,1,0.4,2.7-1.1,3.2c-0.9,0.3-2.1,0.1-2.7-0.9
			c-0.7-1.1-0.2-2.6,1-3.2C607.2,493.8,607.5,493.7,607.8,493.7z M606.6,496c0,0.1,0,0.1,0,0.2s0,0.2,0.1,0.3
			c0.3,0.9,1.5,1.1,2.1,0.4c0.3-0.4,0.4-0.9,0.2-1.4c-0.3-0.8-1.2-1.1-1.9-0.6C606.7,495.1,606.6,495.5,606.6,496z"/>
		<path id="XMLID_68_" class="st10" d="M621.4,495.4c-1,0.4-2,0.8-3,1.2c0.2,0.3,0.4,0.6,0.8,0.6c0.6,0.1,1-0.1,1.3-0.6
			c0.3,0.2,0.5,0.3,0.8,0.5c-0.1,0.2-0.3,0.4-0.5,0.5c-0.9,0.7-2.3,0.6-3-0.3c-0.3-0.4-0.4-0.8-0.5-1.3c0-0.7,0.1-1.3,0.6-1.7
			c0.8-0.8,2.4-0.9,3.1,0.4C621.2,494.9,621.3,495.2,621.4,495.4z M620.3,495.1C620.3,495,620.3,495,620.3,495.1
			c-0.2-0.3-0.4-0.5-0.8-0.5c-0.6,0-1.1,0.5-1.2,1c0,0.1,0,0.2,0,0.3C619,495.6,619.6,495.3,620.3,495.1z"/>
		<path id="XMLID_65_" class="st10" d="M616.7,498c-0.3,0-0.6,0-1,0c0-2.2,0-4.3,0-6.5c0.3,0,0.6,0,1,0
			C616.7,493.7,616.7,495.8,616.7,498z"/>
	</g>
	<g id="XMLID_52_">
		<path id="XMLID_62_" class="st22" d="M299.5,468.9c-0.9-0.6-1.4-1.5-1.4-2.5v-2.5l-1.4,2.1c-0.6,0.9-1.5,1.4-2.5,1.4h-2.5l2.1,1.4
			c0.9,0.6,1.4,1.5,1.4,2.5v2.5l1.4-2.1c0.6-0.9,1.5-1.4,2.5-1.4h2.5L299.5,468.9z"/>
		<path id="XMLID_59_" class="st22" d="M288.4,470.3c-0.5-0.1-1.1-0.1-1.7,0c-1.4,0.2-2.8,0.6-4.3,1.5c-1.7,1-3.2,2.4-4.5,4.1
			c-0.2-0.7-0.3-1.4-0.4-2.1c-0.2-1.1-0.1-2,0.1-2.9l1.1-3.8c0.7-2.5,1.4-5,2.2-7.5v-0.2c0.2-0.7,0.4-1.4,0.5-2.1
			c0.1-1-0.2-1.9-1-2.5c-0.8-0.7-1.9-0.9-2.9-0.6s-1.7,1-2,2.1l-4,11.4c0-1.9,0.1-3.7,0.1-5.6v-1.3c0-0.9,0-1.8,0-2.7v-1.3
			c0-0.2,0-0.5,0-0.7c0-0.8,0-1.7-0.1-2.6s-0.6-1.8-1.4-2.3c-0.8-0.5-1.8-0.7-2.6-0.4c-1,0.3-1.7,1-2.1,2.2
			c-0.2,0.7-0.3,1.5-0.3,2.1c0,1.7-0.1,3.4-0.1,5.1v2.6l0,0l-0.1,3.7c-0.4-1.4-0.8-2.9-1.2-4.3c-0.5-1.7-1-3.5-1.5-5.2v-0.1
			c-0.2-0.6-0.3-1.2-0.6-1.8c-0.6-1.2-1.6-1.9-2.9-1.8c-1,0.1-1.8,0.6-2.1,1.6c0,0.1-0.1,0.2-0.1,0.3c-0.3,1.2-0.3,2.3,0,3.5
			c0.5,2.2,1,4.3,1.5,6.5c0.3,1.1,0.5,2.1,0.8,3.2c-0.4-0.7-0.9-1.3-1.3-2l-1.9-3c-0.4-0.6-0.8-1.2-1.3-1.9
			c-0.4-0.5-0.9-0.9-1.5-1.1c-0.9-0.3-1.9-0.2-2.6,0.4c-0.7,0.6-1.1,1.5-1,2.4c0.1,0.8,0.4,1.7,0.8,2.5c0.5,0.9,1,1.8,1.4,2.6
			l0.3,0.6c0.7,1.2,1.3,2.3,2,3.5l1.3,2.3c0.2,0.3,0.3,0.6,0.3,0.9l0.1,1.4c0,0.8,0.1,1.7,0.1,2.5c0.1,2.6,0.6,5.1,1.6,7.4
			c0.8,1.9,1.8,3.3,3.1,4.4l0.1,0.1c0.1,0.1,0.1,0.1,0.2,0.1c0,0,0,0.1,0,0.2l-0.2,5.4h14.8v-0.9c-0.1-1.8-0.1-3.5-0.2-5.3
			c0.4-0.2,0.7-0.5,1.1-0.7c0.2-0.1,0.4-0.3,0.7-0.4c0.5-0.3,1.1-0.7,1.6-1.1c1.7-1.4,3-3.1,4-5.3c0.7-1.5,1.3-2.6,2-3.6
			c1.4-2.1,3.1-3.6,5-4.5c0.7-0.4,1.2-1,1.4-1.9c0.1-0.5,0.1-1-0.2-1.4C289.9,470.8,289,470.4,288.4,470.3z M289,473
			c-0.1,0.5-0.3,0.6-0.5,0.7c-2.2,1.1-4.1,2.8-5.7,5.1c-0.7,1.1-1.4,2.3-2.1,3.9c-0.9,1.9-2,3.5-3.5,4.7c-0.4,0.4-0.9,0.7-1.5,1
			c-0.2,0.1-0.5,0.3-0.7,0.4c-0.4,0.3-0.8,0.5-1.2,0.8c-0.5,0.3-0.7,0.7-0.7,1.3c0.1,1.5,0.1,3.1,0.2,4.6h-11.2l0.1-3.6
			c0-0.9-0.1-1.1-0.8-1.7l-0.1-0.1c-1-0.9-1.9-2.1-2.6-3.8c-0.9-2.1-1.4-4.4-1.5-6.7c0-0.9-0.1-1.7-0.1-2.6l-0.1-1.4
			c0-0.5-0.2-1.1-0.5-1.6l-1.3-2.3c-0.7-1.2-1.3-2.3-2-3.5l-0.3-0.6c-0.5-0.8-1-1.7-1.4-2.6c-0.4-0.7-0.6-1.3-0.6-1.9
			c0-0.4,0.1-0.7,0.3-0.9c0.2-0.2,0.6-0.2,0.9-0.1c0.3,0.1,0.5,0.2,0.6,0.5c0.4,0.6,0.8,1.2,1.2,1.8l1.9,3c1,1.6,2.1,3.2,3.1,4.8
			c0.2,0.3,0.6,0.6,1.1,0.6c0.3,0,0.6-0.2,0.8-0.4c0.2-0.2,0.3-0.6,0.2-0.9v-0.1c-0.1-0.4-0.1-0.9-0.2-1.3c-0.4-1.7-0.8-3.4-1.2-5.2
			c-0.5-2.2-1-4.3-1.5-6.5c-0.2-0.9-0.2-1.9,0-2.8c0,0,0-0.1,0.1-0.2c0.1-0.3,0.2-0.4,0.6-0.4c0.6,0,1,0.2,1.2,0.8
			c0.2,0.5,0.4,1,0.5,1.5v0.1c0.5,1.7,1,3.5,1.5,5.2c0.6,2.2,1.3,4.5,1.9,6.7c0.1,0.3,0.3,0.6,0.4,0.8v0.1c0.3,0.4,0.9,0.6,1.4,0.4
			c0.3-0.1,0.7-0.4,0.7-1.1v-0.2c0-0.4,0-0.8,0-1.2l0.1-6.9l0,0v-0.9c0-1.7,0.1-3.4,0.1-5c0-0.4,0-1,0.2-1.6c0.2-0.6,0.5-0.9,1-1
			c0.3-0.1,0.7,0,1.2,0.2c0.3,0.2,0.6,0.5,0.6,1c0.1,0.8,0.1,1.5,0,2.3c0,0.2,0,0.5,0,0.7v1.3c0,0.9,0,1.8,0,2.7v1.3
			c0,2-0.1,4.1-0.1,6.1c0,0.8,0.3,1.4,0.9,1.9c0.4,0.3,0.8,0.3,1,0.3c0.2,0,0.6-0.2,0.8-0.6c0.1-0.1,0.2-0.3,0.2-0.5l4.4-12.3
			c0.2-0.5,0.5-0.8,0.9-1c0.3-0.1,0.8,0,1.2,0.3c0.3,0.3,0.4,0.6,0.4,1c-0.1,0.6-0.3,1.2-0.4,1.9v0.2c-0.7,2.5-1.4,5-2.2,7.5
			l-1.1,3.8c-0.3,1.1-0.4,2.3-0.2,3.6c0.1,0.8,0.3,1.6,0.5,2.4c0.1,0.4,0.2,0.7,0.4,0.9l0.1,0.2c0.2,0.4,0.5,0.6,0.9,0.7
			c0.4,0,0.8-0.1,1.1-0.5c0.1-0.1,0.2-0.2,0.2-0.3l0.1-0.1c1.2-1.8,2.6-3.1,4.2-4c1.3-0.7,2.5-1.1,3.6-1.3c0.5-0.1,0.9-0.1,1.3,0
			l0,0c0.2,0,0.5,0.1,0.8,0.7C289,472.8,289,472.8,289,473z"/>
		<path id="XMLID_58_" class="st22" d="M273.1,476.9c-5.2,2.3-4.9,9.2-4.9,9.4c0,0.5,0.4,0.8,0.9,0.8l0,0c0.5,0,0.8-0.4,0.8-0.9
			c0-0.1-0.2-5.9,3.9-7.8c0.4-0.2,0.6-0.7,0.4-1.1C274.1,476.9,273.6,476.7,273.1,476.9z"/>
		<path id="XMLID_57_" class="st22" d="M280.4,447c6.9,3.5,11.8,9.8,13.5,17.4c0.1,0.4,0.4,0.6,0.8,0.6c0.1,0,0.1,0,0.2,0
			c0.4-0.1,0.7-0.5,0.6-1c-1.7-8-7-14.8-14.3-18.5c-0.4-0.2-0.9,0-1.1,0.4C279.8,446.3,280,446.7,280.4,447z"/>
		<path id="XMLID_56_" class="st22" d="M257.1,447c0.1,0,0.2,0,0.4-0.1c1.9-0.9,3.9-1.6,6-2.1c4.4-1,9-0.7,13.2,0.6
			c0.4,0.1,0.9-0.1,1-0.5s-0.1-0.9-0.5-1c-4.5-1.5-9.4-1.7-14.1-0.7c-2.2,0.5-4.4,1.2-6.4,2.2c-0.4,0.2-0.6,0.7-0.4,1.1
			C256.6,446.8,256.8,447,257.1,447z"/>
		<path id="XMLID_55_" class="st22" d="M253.5,449.4c0.4-0.3,0.4-0.8,0.2-1.1c-0.3-0.4-0.8-0.4-1.1-0.2c-4.9,3.7-8.4,8.9-9.9,14.8
			c-0.1,0.4,0.1,0.9,0.6,1c0.1,0,0.1,0,0.2,0c0.4,0,0.7-0.2,0.8-0.6C245.6,457.8,249,452.8,253.5,449.4z"/>
		<path id="XMLID_54_" class="st22" d="M242.6,471.5c0.5,0,0.8-0.4,0.8-0.8c0-1.1,0-2.3,0.1-3.4c0-0.4-0.3-0.9-0.7-0.9
			c-0.5,0-0.9,0.3-0.9,0.7c-0.1,1.2-0.2,2.4-0.1,3.7C241.8,471.2,242.1,471.5,242.6,471.5L242.6,471.5z"/>
		<path id="XMLID_53_" class="st22" d="M243.7,474c-0.1-0.4-0.5-0.7-0.9-0.7c-0.4,0.1-0.7,0.5-0.7,0.9c0.1,0.4,0.1,0.8,0.2,1.2
			c0.1,0.4,0.4,0.6,0.8,0.6c0.1,0,0.1,0,0.2,0c0.4-0.1,0.7-0.5,0.6-1C243.9,474.8,243.8,474.4,243.7,474z"/>
	</g>
	<g id="XMLID_42_">
		<path id="XMLID_51_" class="st10" d="M99.7,111.5l0.9,3.1l0.9-3.1c0-0.1,0.1-0.1,0.1-0.1l3.1-0.9l-3.1-0.9c-0.1,0-0.1-0.1-0.1-0.1
			l-0.9-3.1l-0.9,3.1c0,0.1-0.1,0.1-0.1,0.1l-3.1,0.9L99.7,111.5C99.6,111.4,99.7,111.4,99.7,111.5z"/>
		<path id="XMLID_50_" class="st10" d="M86.4,130l-0.9-3.1l-0.9,3.1c0,0.1-0.1,0.1-0.1,0.1l-3.1,0.9l3.1,1c0.1,0,0.1,0.1,0.1,0.1
			l0.9,3.1l0.9-3.1c0-0.1,0.1-0.1,0.1-0.1l3.1-0.9l-3.1-0.9C86.5,130.1,86.5,130,86.4,130z"/>
		<path id="XMLID_47_" class="st10" d="M95.1,117.4l-1.5-5.2l-1.5,5.2c-0.3,0.9-1,1.6-1.8,1.8l-5.2,1.5l5.2,1.5
			c0.9,0.3,1.6,1,1.8,1.8l1.5,5.2l1.5-5.2c0.3-0.9,1-1.6,1.8-1.8l5.2-1.5l-5.2-1.5C96,118.9,95.3,118.2,95.1,117.4z M96.5,120.9
			c-1.4,0.4-2.4,1.5-2.8,2.8l-0.1,0.4l-0.1-0.4c-0.4-1.4-1.5-2.4-2.8-2.8l-0.4-0.1l0.4-0.1c1.4-0.4,2.4-1.5,2.8-2.8l0.1-0.4l0.1,0.4
			c0.4,1.4,1.5,2.4,2.8,2.8l0.4,0.1L96.5,120.9z"/>
		<path id="XMLID_43_" class="st10" d="M121.3,140.8l-10.2-37.4c0-0.2-0.1-0.3-0.2-0.5s-0.4-0.3-0.6-0.3l0,0H85.6
			c-0.3,0-0.6,0.2-0.7,0.6L75,140.6c-0.1,0.2,0,0.5,0.1,0.6c0.1,0.2,0.4,0.3,0.6,0.3l0,0h3.2c0.3,0,0.6-0.2,0.7-0.6l0.6-2.1H97
			l-0.5,1.7c-0.1,0.2,0,0.5,0.1,0.6c0.1,0.2,0.4,0.3,0.6,0.3l0,0h3.2c0.3,0,0.6-0.2,0.7-0.6l0.5-2H116l0.6,2.1
			c0.1,0.3,0.4,0.6,0.7,0.6h3.2l0,0c0.2,0,0.4-0.1,0.6-0.3C121.3,141.3,121.3,141.1,121.3,140.8z M99.9,140.2h-1.6l0.5-1.7
			c0.1-0.2,0-0.5-0.1-0.6c-0.1-0.2-0.4-0.3-0.6-0.3l0,0H79.7c-0.3,0-0.6,0.2-0.7,0.6l-0.6,2.1h-1.6l9.5-35.9h23.1L99.9,140.2z
			 M118,140.3l-0.6-2.1c-0.1-0.3-0.4-0.6-0.7-0.6h-14.6l8.3-31.2l9.2,33.9L118,140.3z"/>
	</g>
	<g>
		<path id="XMLID_40_" class="st11" d="M377.3,18.1l-1.2-4.2c-0.1-0.5-0.5-0.8-0.9-0.9l-4.2-1.2l4.2-1.2c0.5-0.1,0.8-0.5,0.9-0.9
			l1.2-4.2l1.2,4.2c0.1,0.5,0.5,0.8,0.9,0.9l4.2,1.2l-4.1,1.2c-0.5,0.1-0.8,0.5-0.9,0.9L377.3,18.1z"/>
		<path id="XMLID_35_" class="st11" d="M400,46.2h-45.4c-0.2,0-0.5-0.1-0.6-0.3s-0.2-0.5-0.1-0.7l4.3-10.9c0.1-0.3,0.4-0.5,0.7-0.5
			h36.7c0.3,0,0.6,0.2,0.7,0.5l4.3,10.9c0.1,0.2,0.1,0.5-0.1,0.7S400.3,46.2,400,46.2z M355.7,44.7h43.2l-3.7-9.4h-35.7L355.7,44.7z
			"/>
		<path id="XMLID_30_" class="st11" d="M377.3,28.5c-0.2,0-0.5-0.1-0.6-0.3c-0.4-0.4-9.6-10-9.6-18c0-5.6,4.6-10.2,10.2-10.2
			s10.2,4.6,10.2,10.2c0,6.6-9.2,17.5-9.6,18C377.8,28.3,377.6,28.5,377.3,28.5C377.4,28.5,377.3,28.5,377.3,28.5z M377.3,1.7
			c-4.7,0-8.5,3.8-8.5,8.5c0,6.1,6.4,13.7,8.5,16.1c2.1-2.6,8.5-11,8.5-16.1C385.8,5.5,382,1.7,377.3,1.7z"/>
		<path id="XMLID_11_" class="st11" d="M393.5,40.8h-32.6c-0.4,0-0.8-0.3-0.8-0.8c0-0.4,0.3-0.8,0.8-0.8h32.6c0.4,0,0.8,0.3,0.8,0.8
			C394.2,40.5,393.9,40.8,393.5,40.8z"/>
		<path id="XMLID_24_" class="st11" d="M395.7,9.7h-7.2c0,0.2,0,0.4,0,0.5c0,0.3,0,0.6-0.1,1h6.5v22.6h-35.2V11.2h6.5
			c0-0.3,0-0.6,0-1c0-0.2,0-0.4,0-0.5H359c-0.4,0-0.8,0.3-0.8,0.8v24.1c0,0.4,0.3,0.8,0.8,0.8h36.7c0.4,0,0.8-0.3,0.8-0.8V10.4
			C396.5,10,396.1,9.7,395.7,9.7z"/>
	</g>
	<g>
		<path id="XMLID_19_" class="st23" d="M85.7,448.8H40.3c-0.3,0-0.5-0.1-0.6-0.3c-0.2-0.2-0.2-0.5-0.1-0.7l4.3-10.9
			c0.1-0.3,0.4-0.5,0.7-0.5h36.7c0.3,0,0.6,0.2,0.7,0.5l4.3,10.9c0.1,0.2,0.1,0.5-0.1,0.7C86.2,448.7,86,448.8,85.7,448.8z
			 M41.4,447.3h43.1l-3.7-9.3H45.1L41.4,447.3z"/>
		<path id="XMLID_16_" class="st23" d="M80.9,443.9H45.5c-0.4,0-0.8-0.3-0.8-0.8s0.3-0.8,0.8-0.8h35.4c0.4,0,0.8,0.3,0.8,0.8
			S81.3,443.9,80.9,443.9z"/>
		<path id="XMLID_10_" class="st23" d="M67.6,427.1c0-2.5-2.4-3-3.2-3.1c-0.1,0-0.3-0.1-0.4-0.1v-2.6c0.5,0.2,0.9,0.6,0.9,1.4h2.3
			c0-2.1-1.4-3.1-3.2-3.4v-1c0-0.4-0.3-0.8-0.8-0.8s-0.8,0.3-0.8,0.8v0.9c-1.8,0.2-3.6,1.2-3.6,3.2s1.6,2.6,3.2,3.1
			c0.1,0,0.2,0.1,0.4,0.1v3c-0.9-0.2-1.7-0.8-1.7-1.9h-2.2c0,2.4,1.8,3.6,4,3.8v1.4c0,0.4,0.3,0.8,0.8,0.8s0.8-0.3,0.8-0.8v-1.5
			C66.3,430.2,67.6,428.8,67.6,427.1z M61.1,422.3c0-0.8,0.6-1.1,1.3-1.2v2.3C61.4,423.1,61.1,422.9,61.1,422.3z M64,428.6v-2.5
			c0.8,0.3,1.3,0.6,1.3,1.3C65.3,428.1,64.6,428.5,64,428.6z"/>
		<path id="XMLID_9_" class="st23" d="M52.4,422.5c-0.2,0-0.4-0.1-0.5-0.2c-0.3-0.3-0.3-0.8,0-1.1l10.6-11.5
			c0.1-0.2,0.3-0.2,0.6-0.3c0.2,0,0.4,0.1,0.6,0.2l3.7,3.7l8.8-8.8h-2.4c-0.4,0-0.8-0.3-0.8-0.8s0.3-0.8,0.8-0.8h4.3
			c0.3,0,0.6,0.2,0.7,0.5s0.1,0.6-0.2,0.9L67.7,415c-0.3,0.3-0.8,0.3-1.1,0l-3.6-3.6l-10.1,10.9C52.8,422.4,52.6,422.5,52.4,422.5z"
			/>
		<path id="XMLID_6_" class="st23" d="M78.1,408.5c-0.4,0-0.8-0.3-0.8-0.8v-4c0-0.4,0.3-0.8,0.8-0.8c0.4,0,0.8,0.3,0.8,0.8v4
			C78.9,408.2,78.5,408.5,78.1,408.5z"/>
		<path id="XMLID_3_" class="st23" d="M81.4,412.3h-9l-1.6,1.6h9.7v22.6H45.4v-22.6h11.3l1.4-1.6H44.6c-0.4,0-0.8,0.3-0.8,0.8v24.1
			c0,0.4,0.3,0.8,0.8,0.8h36.7c0.4,0,0.8-0.3,0.8-0.8v-24.1C82.1,412.6,81.8,412.3,81.4,412.3z"/>
	</g>
</g>
<g id="imagination">
	<ellipse class="st0" cx="121.3" cy="292" rx="6.3" ry="6.3"/>
	<ellipse class="st0" cx="131.3" cy="299.4" rx="3.3" ry="3.3"/>
	<ellipse class="st0" cx="139.9" cy="303.5" rx="2.7" ry="2.7"/>
	<g>
		<path class="st24" d="M129.3,293.8c0,0,0,0.2,0,0.4c0,0.3-0.1,0.7-0.2,1.2c-0.3,1-1,2.5-2.5,3.6c-0.8,0.6-1.7,1-2.8,1.1
			c-0.3,0-0.5,0.1-0.8,0.1c-0.3,0-0.5,0-0.8,0c-0.6-0.1-1.2-0.2-1.7-0.4c-1.1-0.5-2.2-1.2-2.9-2.3c-0.8-1.1-1.2-2.4-1.2-3.7
			c0-0.6,0.1-1.3,0.2-2c0.2-0.6,0.5-1.3,0.8-1.8c0.7-1.1,1.8-2,2.9-2.5c1.2-0.5,2.5-0.6,3.6-0.5c1.2,0.2,2.2,0.7,3,1.3
			c1.6,1.2,2.2,2.8,2.4,3.8c0.1,0.5,0.2,1,0.2,1.2C129.3,293.6,129.3,293.8,129.3,293.8z M129.2,293.8c0,0,0-0.1,0-0.4
			c0-0.3-0.1-0.7-0.3-1.2c-0.2-0.5-0.4-1.1-0.9-1.6c-0.4-0.5-1.1-1.1-1.8-1.4c-0.7-0.4-1.6-0.6-2.5-0.7c-1-0.1-1.9,0.1-2.8,0.5
			c-0.9,0.4-1.8,1-2.4,1.9c-0.3,0.4-0.6,0.9-0.7,1.4c-0.2,0.5-0.3,1-0.3,1.6c0,1.1,0.3,2.2,0.9,3.1c0.6,0.9,1.5,1.6,2.4,2.1
			c0.5,0.2,1,0.4,1.5,0.5c0.2,0.1,0.5,0.1,0.8,0.1c0.2,0,0.5,0,0.7,0c1-0.1,1.9-0.4,2.7-0.8c0.8-0.4,1.4-1,1.8-1.6
			c0.4-0.6,0.7-1.2,0.8-1.7c0.2-0.5,0.2-0.9,0.2-1.2C129.2,293.9,129.2,293.8,129.2,293.8z"/>
	</g>
	<g>
		<path class="st24" d="M135.6,299.2c0,0,0,0.1,0.1,0.2c0.1,0.1,0.1,0.3,0.2,0.6c0.1,0.5,0.2,1.4-0.2,2.3c-0.2,0.5-0.5,0.9-1,1.3
			c-0.1,0.1-0.2,0.2-0.4,0.3c-0.1,0.1-0.2,0.1-0.4,0.2c-0.3,0.1-0.6,0.2-0.9,0.3c-0.7,0.1-1.4,0-2-0.3c-0.7-0.3-1.2-0.8-1.6-1.5
			c-0.1-0.2-0.3-0.7-0.4-1c-0.1-0.4-0.1-0.7-0.1-1.1c0-0.8,0.3-1.5,0.8-2.1c0.4-0.6,1.1-1,1.6-1.2c0.7-0.2,1.3-0.2,1.8-0.1
			c1.1,0.3,1.7,0.9,2.1,1.4C135.5,298.9,135.6,299.2,135.6,299.2z M135.5,299.3c0,0,0-0.1-0.1-0.2c-0.1-0.1-0.2-0.3-0.4-0.4
			c-0.2-0.2-0.5-0.3-0.8-0.4c-0.3-0.1-0.7-0.1-1.1-0.1c-0.4,0.1-0.8,0.2-1.1,0.4c-0.4,0.2-0.7,0.5-1,0.8c-0.3,0.3-0.5,0.8-0.6,1.2
			c0,0.2,0,0.5,0,0.7c0,0.3,0.1,0.4,0.2,0.7c0.2,0.4,0.6,0.8,1,1.1c0.4,0.3,1,0.4,1.5,0.4c0.2,0,0.5-0.1,0.7-0.1
			c0.1,0,0.2-0.1,0.4-0.1c0.1,0,0.2-0.1,0.3-0.2c0.4-0.2,0.8-0.6,1-0.9c0.3-0.4,0.4-0.8,0.5-1.1c0.1-0.4,0-0.7,0-1
			c-0.1-0.3-0.1-0.5-0.2-0.6C135.5,299.4,135.5,299.3,135.5,299.3z"/>
	</g>
	<g>
		<path class="st24" d="M144.4,303.3c0,0,0.1,0.2,0.3,0.7c0.1,0.5,0.2,1.2-0.1,2c-0.2,0.4-0.5,0.8-0.9,1.1c-0.1,0.1-0.2,0.2-0.3,0.2
			c-0.1,0.1-0.2,0.1-0.3,0.2c-0.3,0.1-0.5,0.2-0.8,0.2c-0.6,0.1-1.2,0-1.8-0.3c-0.6-0.3-1.1-0.7-1.4-1.3c-0.1-0.2-0.3-0.6-0.4-0.9
			c-0.1-0.3-0.1-0.7-0.1-1c0-0.7,0.3-1.3,0.7-1.8c0.4-0.5,1-0.9,1.5-1c0.6-0.2,1.1-0.2,1.6-0.1c1,0.3,1.5,0.8,1.8,1.2
			C144.2,303,144.4,303.3,144.4,303.3z M144.2,303.3c0,0,0-0.1-0.1-0.2c-0.1-0.1-0.2-0.2-0.4-0.4c-0.2-0.1-0.4-0.3-0.7-0.4
			c-0.3-0.1-0.6-0.1-1,0c-0.3,0.1-0.7,0.2-0.9,0.3c-0.4,0.2-0.6,0.4-0.8,0.7c-0.2,0.3-0.4,0.6-0.5,1c0,0.2,0,0.4,0,0.6
			c0,0.2,0.1,0.3,0.2,0.6c0.1,0.3,0.5,0.7,0.8,0.9c0.4,0.2,0.8,0.3,1.2,0.3c0.2,0,0.4,0,0.6-0.1c0.1,0,0.2-0.1,0.3-0.1
			c0.1,0,0.2-0.1,0.3-0.1c0.4-0.2,0.6-0.5,0.9-0.8c0.5-0.6,0.5-1.3,0.4-1.8c0-0.2-0.1-0.4-0.2-0.5
			C144.2,303.4,144.2,303.3,144.2,303.3z"/>
	</g>
	<path class="st0" d="M167,233.6c2.3-2.5,3.7-5.8,3.7-9.5c0-6-3.8-11.1-9.1-13.2c0.1-0.8,0.2-1.7,0.2-2.6c0-10.7-8.7-19.4-19.4-19.4
		c-2.5,0-4.8,0.5-7,1.3c-2.2-10.3-11.4-18.2-22.5-18.2c-6.3,0-12,2.5-16.2,6.6c-2.4-2.1-5.5-3.4-8.9-3.4c-5.4,0-10,3.2-12.1,7.8
		c-1.3-0.3-2.6-0.5-4-0.5c-9.1,0-16.5,7.4-16.5,16.5c0,1.2,0.1,2.4,0.4,3.5c-0.9-0.2-1.8-0.3-2.8-0.3c-7.4,0-13.3,6-13.3,13.3
		c0,0.8,0.1,1.6,0.2,2.4c-0.1,0-0.2,0-0.2,0c-9.1,0-16.5,7.4-16.5,16.5c0,9,7.2,16.3,16.1,16.5l0,0c0,14.7,11.9,26.6,26.6,26.6
		c3,0,5.8-0.5,8.5-1.4c2.5,6,8.4,10.3,15.3,10.3c6.3,0,11.8-3.6,14.6-8.8c2.9,1,6,1.5,9.2,1.5c7.3,0,14-2.8,19-7.3
		c1.9,1.1,4.1,1.7,6.5,1.7c6.6,0,12-4.8,13.1-11.1c2.7,1.9,6,3,9.5,3c9.1,0,16.5-7.4,16.5-16.5C177.9,241.9,173.3,235.9,167,233.6z"
		/>
	<g>
		<path class="st24" d="M171.6,236.4c0.4-0.3,0.8-0.8,1.1-1.2c0.3-0.5,0.6-0.9,0.8-1.5c0.2-0.5,0.4-1,0.6-1.6
			c0.2-0.5,0.3-1.1,0.4-1.6c0.1-0.6,0.2-1.1,0.2-1.7c0.1-0.6,0.1-1.1,0.1-1.7c0-0.6,0-1.1,0-1.7c-0.1-0.6-0.1-1.1-0.2-1.7
			c-0.1-0.5-0.2-1.1-0.5-1.6l-0.3-0.8l-0.4-0.7c-0.2-0.5-0.6-0.9-0.9-1.4c-0.4-0.4-0.7-0.9-1.1-1.3c-0.4-0.4-0.8-0.8-1.2-1.1
			c-0.4-0.3-0.9-0.7-1.4-1c-0.9-0.6-1.9-1.2-3-1.6l-0.2-0.1l0-0.3c0.2-0.8,0.2-1.7,0.3-2.5c0-0.8,0-1.7-0.1-2.5
			c-0.1-0.8-0.2-1.7-0.4-2.5c-0.2-0.8-0.4-1.6-0.7-2.4c-0.3-0.8-0.7-1.5-1.1-2.3c-0.5-0.7-0.9-1.4-1.5-2c-0.3-0.3-0.5-0.7-0.8-0.9
			l-0.9-0.9c-0.6-0.6-1.3-1-2-1.5c-0.7-0.4-1.5-0.9-2.2-1.3c-0.8-0.4-1.5-0.7-2.3-1c-0.8-0.3-1.6-0.5-2.4-0.8
			c-0.4-0.1-0.8-0.2-1.2-0.3c-0.4-0.1-0.8-0.2-1.2-0.2c-0.8-0.1-1.7-0.2-2.5-0.2c-0.8,0-1.7,0-2.5,0.1c-0.8,0.1-1.7,0.2-2.5,0.4
			c-0.8,0.2-1.6,0.4-2.4,0.7l-0.6,0.2l-0.1-0.6c-0.2-0.9-0.5-1.9-0.8-2.8c-0.4-0.9-0.8-1.8-1.2-2.7c-0.5-0.9-1-1.7-1.5-2.5l-0.9-1.2
			l-1-1.1c-0.3-0.4-0.7-0.7-1-1c-0.3-0.3-0.7-0.7-1.1-1c-0.4-0.3-0.7-0.6-1.2-0.9l-1.2-0.8c-0.4-0.3-0.9-0.5-1.3-0.7
			c-0.4-0.2-0.9-0.5-1.3-0.7l-1.4-0.6c-0.2-0.1-0.5-0.2-0.6-0.3l-0.7-0.2l-1.4-0.4c-0.5-0.1-0.9-0.2-1.4-0.3
			c-0.9-0.2-1.9-0.2-2.9-0.3c-0.5,0-1,0-1.5,0.1c-0.5,0-1,0-1.4,0.1c-0.5,0.1-1,0.1-1.4,0.2l-1.4,0.3c-0.5,0.1-0.9,0.3-1.4,0.4
			c-0.5,0.1-0.9,0.3-1.4,0.5c-0.9,0.3-1.8,0.8-2.6,1.2c-0.9,0.5-1.7,1-2.5,1.5c-0.8,0.5-1.6,1.1-2.3,1.8l-0.4,0.4l-0.5-0.2
			c-0.9-0.5-1.8-0.9-2.8-1.3c-1-0.4-1.9-0.7-2.9-1c-1-0.3-2-0.5-3-0.6c-0.5,0-1-0.1-1.5-0.1c-0.5,0-1,0-1.5,0.1l-0.7,0.1l-0.2,0
			c0,0-0.1,0,0,0l-0.1,0l-0.4,0.1c-0.5,0.1-0.9,0.4-1.3,0.5c-0.4,0.2-0.9,0.5-1.2,0.8c-0.4,0.3-0.8,0.6-1.2,0.9
			c-0.4,0.3-0.7,0.7-1.1,1c-0.3,0.4-0.6,0.8-0.9,1.2c-0.3,0.4-0.6,0.8-0.8,1.2c-0.3,0.4-0.5,0.9-0.7,1.3l-0.4,0.9l-0.9-0.5
			c-0.4-0.3-1.1-0.5-1.7-0.7c-0.6-0.1-1.3-0.2-1.9-0.3c-0.7,0-1.3,0-2,0.1c-0.7,0.1-1.3,0.2-2,0.4c-0.7,0.2-1.3,0.4-1.9,0.7
			c-0.6,0.3-1.3,0.5-1.9,0.9l-0.9,0.5l-0.2,0.1l0,0l0,0l0,0c0,0,0.1-0.1,0,0l-0.1,0l-0.1,0.1l-0.4,0.3l-0.9,0.6l-0.7,0.7
			c-0.5,0.4-0.9,1-1.3,1.5c-0.4,0.5-0.7,1.1-1.1,1.7c-0.3,0.6-0.6,1.2-0.8,1.8c-0.3,0.6-0.4,1.3-0.6,1.9c-0.1,0.7-0.3,1.3-0.4,2
			c-0.1,0.7-0.2,1.4-0.2,2c0,0.7,0,1.4,0,2.1c0,0.7,0.1,1.4,0.2,2l0.2,1.2l-1.3-0.1c-0.5,0-1-0.1-1.5-0.1c-0.5,0-1,0-1.5,0.1
			c-0.5,0.1-1,0.1-1.5,0.3c-0.5,0.1-1,0.3-1.4,0.4c-0.9,0.3-1.9,0.7-2.7,1.2c-0.4,0.2-0.9,0.5-1.3,0.8l-0.1,0.1l-0.1,0.1l0,0l0,0
			l0,0c0,0,0.2-0.1,0.1-0.1l0,0l-0.3,0.3l-0.6,0.6c-0.4,0.4-0.7,0.7-1,1.1c-0.3,0.3-0.6,0.8-0.9,1.2c-0.3,0.4-0.5,0.8-0.7,1.3
			c-0.2,0.4-0.4,0.9-0.6,1.3c-0.2,0.5-0.3,0.9-0.4,1.4c-0.1,0.5-0.1,0.9-0.2,1.4c0,0.5,0,0.9,0.1,1.4c0.1,0.4,0.2,1,0.3,1.3l0.5,1.4
			l-1.6,0.1l-1.4,0.1c-0.5,0-0.9,0-1.4,0.1l-1.4,0.2c-0.5,0.1-0.9,0.3-1.3,0.4l-0.7,0.2c-0.2,0.1-0.4,0.2-0.6,0.3
			c-0.4,0.2-0.8,0.4-1.2,0.6l-1.2,0.7c-0.4,0.3-0.7,0.6-1.1,0.9c-0.4,0.3-0.7,0.6-1,0.9c-0.3,0.3-0.7,0.7-1,1
			c-0.3,0.4-0.6,0.7-0.9,1.1c-0.3,0.4-0.6,0.8-0.8,1.2c-0.2,0.4-0.5,0.8-0.7,1.2c-0.2,0.4-0.5,0.8-0.6,1.3c-0.2,0.4-0.4,0.9-0.6,1.3
			c-0.2,0.4-0.3,0.9-0.5,1.3l0-0.2c0,0.6-0.1,1.1-0.1,1.7c0,0.6-0.1,1.1,0,1.7c0,0.6,0.1,1.1,0.1,1.7c0,0.6,0.2,1.1,0.3,1.6
			c0.2,0.5,0.3,1.1,0.5,1.6c0.2,0.5,0.4,1,0.7,1.5c0.3,0.5,0.5,1,0.9,1.4c0.3,0.5,0.7,0.9,1,1.3c0.4,0.4,0.8,0.8,1.2,1.2
			c0.4,0.4,0.8,0.7,1.3,1c0.9,0.7,1.9,1.2,2.9,1.7c1,0.5,2.1,0.9,3.1,1.3c0.5,0.2,1.1,0.3,1.6,0.5c0.5,0.1,1.1,0.3,1.6,0.3l1,0.1
			l0.2,1l1.1,6.1c0.2,0.9,0.5,1.9,0.9,2.8c0.4,0.9,0.7,1.8,1.2,2.7c0.5,0.9,0.9,1.7,1.5,2.6c0.5,0.8,1.1,1.6,1.8,2.4
			c0.6,0.8,1.3,1.5,2,2.2c0.7,0.6,1.5,1.3,2.3,1.9l0.6,0.4l0.1,0.1l0,0l0,0l0,0c0,0-0.1-0.1-0.1,0l0.2,0.1l0.3,0.2l1.3,0.8
			c0.9,0.4,1.7,0.8,2.6,1.1c0.9,0.4,1.9,0.6,2.8,0.8c1,0.2,1.9,0.4,2.9,0.5c0.5,0.1,1,0.1,1.5,0.1c0.5,0,1,0.1,1.5,0.1c1,0,2,0,3,0
			c1-0.1,2-0.1,3-0.3c1-0.1,2-0.3,2.9-0.5l1.3-0.3l0.5,1.3c0.2,0.5,0.6,1.2,0.9,1.8c0.4,0.6,0.8,1.1,1.2,1.7c0.4,0.5,0.9,1,1.4,1.5
			l0.8,0.7c0.3,0.2,0.6,0.4,0.8,0.6c0.3,0.2,0.6,0.4,0.9,0.5c0.3,0.2,0.6,0.4,0.9,0.5l0.9,0.4l1,0.3c0.6,0.3,1.4,0.3,2,0.5
			c0.3,0.1,0.7,0.1,1,0.1l0.5,0.1l0.3,0l0.1,0l0,0c-0.2,0,0,0-0.1,0h0l0,0l0.1,0l1.1,0l0.6,0c0.2,0,0.3,0,0.5-0.1l1-0.1
			c0.3,0,0.7-0.1,1-0.2c0.7-0.1,1.3-0.4,2-0.6c0.6-0.3,1.3-0.5,1.9-0.9c0.6-0.3,1.2-0.7,1.7-1.2l0.8-0.7l0.8-0.7
			c0.5-0.5,0.9-1,1.4-1.6c0.4-0.5,0.8-1.2,1.1-1.7l0.5-1l1.1,0.2l3.6,0.7l1.8,0.2c0.6,0.1,1.2,0.2,1.8,0.2l1.8,0.1l0.9,0l0.9,0
			l1.8-0.1l1.8-0.2c0.6-0.1,1.2-0.2,1.8-0.3c0.6-0.1,1.2-0.2,1.7-0.4c0.6-0.2,1.1-0.3,1.7-0.6c0.5-0.2,1.1-0.4,1.6-0.7
			c0.5-0.3,1.1-0.5,1.6-0.8l0.8-0.5l0.7-0.5c0.5-0.3,0.9-0.7,1.3-1.1c0.4-0.4,0.8-0.8,1.1-1.2l1.1-1.4l1,1.4l0.2,0.3l-0.5-0.4
			c0.4,0.1,0.7,0.3,1.1,0.4c0.4,0.1,0.8,0.2,1.1,0.3c0.8,0.2,1.6,0.3,2.4,0.4c0.8,0.1,1.7,0.1,2.5,0.1c0.4,0,0.8,0,1.3,0
			c0.4,0,0.8,0,1.2-0.1l-0.4,0.1l1.6-0.8c0.5-0.3,1-0.6,1.5-0.9l0.7-0.5c0.2-0.2,0.5-0.3,0.7-0.5c0.4-0.4,0.9-0.7,1.3-1.1
			c0.2-0.2,0.4-0.4,0.6-0.6l0.6-0.6l0.5-0.7l0.4-0.7c0.3-0.5,0.5-1,0.6-1.5c0.1-0.3,0.1-0.5,0.2-0.8c0-0.2,0.1-0.5,0-0.7l-0.1-1.6
			l1.5,0.5l2.5,0.9l1.3,0.3c0.4,0.1,0.8,0.2,1.3,0.3c0.9,0.1,1.7,0.4,2.6,0.5l1.3,0.2l1.3,0.1c0.4,0,0.9,0,1.3,0
			c0.4,0,0.9,0,1.3-0.1c0.4-0.1,0.9-0.1,1.3-0.2c0.4-0.1,0.8-0.2,1.3-0.3c0.4-0.1,0.8-0.2,1.2-0.4c0.4-0.1,0.8-0.3,1.2-0.5
			c0.4-0.2,0.8-0.4,1.1-0.6c0.3-0.2,0.7-0.5,1-0.7l-0.2,0.4l0.1-0.6l0-0.2l0.2-0.2l1.4-1.4c0.4-0.5,0.9-1,1.3-1.5
			c0.4-0.5,0.8-1,1.1-1.6c0.4-0.5,0.7-1.1,0.9-1.7c0.3-0.6,0.5-1.2,0.7-1.8c0.1-0.3,0.2-0.6,0.3-0.9l0.2-1c0.1-0.6,0.2-1.3,0.1-1.9
			c0-0.3,0-0.7,0-1c0-0.3,0-0.7-0.1-1c-0.1-0.7-0.3-1.3-0.4-1.9l-0.3-0.9l-0.4-0.9c-0.3-0.6-0.6-1.2-0.9-1.8
			c-0.3-0.6-0.7-1.1-1.1-1.7c-1.6-2.2-3.4-4.2-5.6-5.8l0.2-0.2c1.1,0.8,2.2,1.7,3.2,2.6c1,0.9,1.9,2,2.8,3.1
			c0.4,0.5,0.8,1.1,1.2,1.7c0.4,0.6,0.7,1.2,1,1.8l0.4,1l0.4,1c0.2,0.7,0.4,1.3,0.5,2c0.1,0.3,0.1,0.7,0.2,1
			c0.1,0.3,0.1,0.7,0.1,1.1c0,0.7,0,1.4-0.1,2.1l-0.2,1c-0.1,0.3-0.2,0.7-0.3,1c-0.2,0.7-0.4,1.3-0.7,2c-0.3,0.6-0.6,1.3-1,1.9
			c-0.3,0.6-0.7,1.2-1.1,1.8c-0.4,0.6-0.9,1.1-1.3,1.6l-1.4,1.5l0.2-0.4l-0.1,0.6l0,0.3l-0.2,0.2c-0.4,0.4-0.8,0.6-1.2,0.9
			c-0.4,0.2-0.8,0.5-1.3,0.7c-0.4,0.2-0.9,0.4-1.3,0.6c-0.4,0.2-0.9,0.3-1.3,0.4c-0.4,0.1-0.9,0.2-1.4,0.3c-0.5,0.1-0.9,0.1-1.4,0.2
			c-0.5,0.1-0.9,0.1-1.4,0.1c-0.5,0-0.9,0.1-1.4,0l-1.4,0l-1.4-0.1c-0.9-0.1-1.8-0.3-2.7-0.4c-0.5-0.1-0.9-0.2-1.3-0.3l-1.3-0.3
			l-2.6-0.9l1.4-1.1c0.1,0.5,0,0.8,0,1.2c0,0.4-0.1,0.7-0.2,1c-0.2,0.7-0.4,1.3-0.7,1.9c-0.2,0.3-0.3,0.6-0.5,0.9l-0.6,0.8l-0.6,0.8
			c-0.2,0.3-0.5,0.5-0.7,0.7c-0.5,0.5-1,0.9-1.5,1.3c-0.2,0.2-0.5,0.4-0.8,0.6l-0.8,0.6c-0.5,0.3-1.1,0.7-1.7,1l-1.7,0.9l-0.2,0.1
			l-0.2,0c-0.5,0.1-0.9,0.1-1.4,0.1c-0.5,0-0.9,0-1.4,0c-0.9,0-1.8,0-2.7-0.1c-0.9-0.1-1.8-0.2-2.7-0.4c-0.5-0.1-0.9-0.2-1.4-0.4
			c-0.5-0.1-0.9-0.3-1.4-0.5l-0.3-0.1l-0.2-0.3l-0.2-0.3l2.1,0c-0.5,0.6-0.9,1.1-1.4,1.6c-0.5,0.5-1,0.9-1.5,1.3l-0.8,0.6l-0.8,0.5
			c-0.6,0.4-1.2,0.7-1.7,1c-0.6,0.3-1.2,0.5-1.8,0.8c-0.6,0.3-1.2,0.4-1.9,0.7c-0.6,0.2-1.3,0.4-1.9,0.5c-0.6,0.2-1.3,0.3-1.9,0.4
			l-1.9,0.3l-1.9,0.1l-1,0.1l-1,0l-1.9,0c-0.6,0-1.3-0.1-1.9-0.2l-1.9-0.2l-3.8-0.7l1.6-0.8c-0.4,0.9-0.9,1.5-1.4,2.2
			c-0.5,0.7-1,1.3-1.6,1.9l-0.9,0.9l-1,0.8c-0.7,0.5-1.3,1-2.1,1.4c-0.7,0.4-1.5,0.8-2.3,1.1c-0.8,0.3-1.6,0.6-2.4,0.7
			c-0.4,0.1-0.8,0.2-1.2,0.3l-1.3,0.1c-0.5,0.1-0.8,0.1-1.2,0.1l-1.1,0l-0.1,0l-0.1,0l0,0l-0.1,0l-0.3,0l-0.6-0.1
			c-0.4,0-0.8-0.1-1.2-0.1c-0.8-0.2-1.6-0.3-2.4-0.6c-0.4-0.1-0.8-0.3-1.2-0.4l-1.2-0.5c-0.4-0.2-0.8-0.4-1.1-0.6
			c-0.4-0.2-0.7-0.4-1.1-0.7c-0.3-0.2-0.7-0.5-1-0.7l-1-0.8c-0.6-0.6-1.2-1.2-1.7-1.8c-0.5-0.6-1-1.3-1.5-2
			c-0.4-0.7-0.8-1.4-1.2-2.3l1.8,1c-1.1,0.2-2.2,0.4-3.3,0.5c-1.1,0.1-2.2,0.2-3.2,0.3c-1.1,0-2.2,0.1-3.3,0c-0.5,0-1.1-0.1-1.6-0.1
			c-0.5,0-1.1-0.1-1.6-0.2c-1.1-0.1-2.2-0.3-3.2-0.6c-1.1-0.3-2.1-0.5-3.2-0.9c-1-0.3-2.1-0.9-3.1-1.4l-1.3-0.8l-0.3-0.2l-0.2-0.1
			l-0.1-0.1l0,0l0,0l-0.1-0.1l-0.7-0.5c-0.9-0.6-1.7-1.4-2.5-2.1c-0.8-0.8-1.6-1.6-2.3-2.4c-0.7-0.8-1.4-1.7-2-2.7
			c-0.6-0.9-1.1-1.9-1.6-2.9c-0.5-1-0.9-2-1.3-3c-0.4-1-0.7-2.1-0.9-3.2l-1-6.2l1.2,1.1c-0.7-0.1-1.3-0.2-1.9-0.4
			c-0.6-0.2-1.2-0.3-1.8-0.5c-1.2-0.4-2.4-0.9-3.5-1.4c-1.1-0.6-2.2-1.2-3.3-2c-0.5-0.4-1-0.8-1.5-1.2c-0.5-0.4-0.9-0.9-1.3-1.4
			c-0.4-0.5-0.8-1-1.2-1.5c-0.4-0.5-0.7-1.1-1-1.7c-0.3-0.6-0.6-1.2-0.8-1.8c-0.2-0.6-0.4-1.2-0.6-1.9c-0.1-0.6-0.3-1.3-0.3-1.9
			c-0.1-0.6-0.1-1.3-0.2-1.9c0-0.6,0-1.3,0-1.9c0-0.6,0.1-1.3,0.2-1.9l0-0.1l0-0.1c0.2-0.6,0.4-1,0.6-1.5c0.2-0.5,0.4-1,0.6-1.4
			c0.2-0.5,0.5-0.9,0.7-1.4c0.2-0.5,0.5-0.9,0.8-1.3c0.3-0.4,0.6-0.9,0.9-1.3c0.3-0.4,0.7-0.8,1-1.2c0.3-0.4,0.7-0.8,1.1-1.1
			c0.4-0.4,0.7-0.7,1.2-1.1c0.4-0.3,0.8-0.7,1.3-1l1.4-0.9c0.5-0.3,1-0.5,1.4-0.7c0.2-0.1,0.5-0.2,0.7-0.3l0.8-0.2
			c0.5-0.1,1-0.3,1.5-0.5l1.6-0.3c0.5-0.1,1.1-0.1,1.6-0.1l1.6-0.1l-1.1,1.5c-0.2-0.7-0.3-1.2-0.4-1.8c-0.1-0.6-0.1-1.2-0.1-1.8
			c0-0.6,0.1-1.2,0.2-1.8c0.1-0.6,0.3-1.1,0.5-1.7c0.2-0.6,0.4-1.1,0.7-1.6c0.3-0.5,0.6-1,0.9-1.5c0.3-0.5,0.6-0.9,1-1.4
			c0.4-0.4,0.8-0.9,1.2-1.3l0.6-0.6l0.3-0.3l0.1-0.1l0,0l0.1,0l0.1-0.1l0.2-0.1c0.5-0.3,1-0.6,1.4-0.9c1-0.5,2-1,3.1-1.4
			c0.5-0.2,1.1-0.3,1.6-0.5c0.6-0.1,1.1-0.2,1.7-0.3c0.6,0,1.1-0.1,1.7-0.1c0.6,0,1.2,0.1,1.7,0.1l-1.1,1.1
			c-0.1-0.8-0.1-1.5-0.2-2.3c0-0.7,0-1.5,0-2.2c0.1-0.7,0.1-1.5,0.2-2.2c0.1-0.7,0.3-1.5,0.4-2.2c0.2-0.7,0.4-1.5,0.7-2.2
			c0.2-0.7,0.6-1.4,0.9-2.1c0.4-0.7,0.8-1.3,1.2-1.9c0.5-0.6,0.9-1.2,1.6-1.7l0.9-0.8l0.9-0.6l0.4-0.3l0.1-0.1l0.1,0l0.1,0l0,0l0,0
			l0.2-0.1l1-0.5c0.6-0.4,1.3-0.6,2-0.9c0.7-0.3,1.4-0.5,2.1-0.7c0.7-0.2,1.5-0.3,2.2-0.5c0.8-0.1,1.5-0.1,2.3-0.1
			c0.8,0,1.5,0.2,2.3,0.3c0.8,0.2,1.5,0.4,2.3,1l-1.3,0.3c0.3-0.5,0.5-1,0.8-1.5c0.3-0.5,0.6-0.9,0.9-1.4c0.3-0.4,0.7-0.9,1.1-1.3
			c0.4-0.4,0.8-0.8,1.2-1.2c0.4-0.4,0.8-0.7,1.3-1c0.5-0.3,1-0.6,1.5-0.9c0.5-0.2,1.1-0.5,1.6-0.6l0.4-0.1l0.1,0c0.1,0,0.1,0,0.1,0
			l0.2,0l0.8-0.2c0.6,0,1.1-0.1,1.7-0.1c0.6,0,1.1,0.1,1.7,0.1c1.1,0.1,2.2,0.4,3.2,0.7c1,0.3,2.1,0.6,3.1,1c1,0.4,2,0.8,2.9,1.4
			l-0.9,0.1c0.8-0.7,1.6-1.3,2.5-1.9c0.9-0.6,1.7-1.1,2.7-1.6c0.9-0.5,1.8-0.9,2.8-1.3c0.5-0.2,1-0.4,1.5-0.5c0.5-0.1,1-0.3,1.5-0.4
			l1.5-0.3c0.5-0.1,1-0.1,1.5-0.2c0.5-0.1,1-0.1,1.5-0.1c0.5,0,1-0.1,1.6,0c1,0.1,2.1,0.1,3.1,0.3c0.5,0.1,1,0.2,1.5,0.3l1.4,0.4
			l0.7,0.2c0.3,0.1,0.5,0.2,0.7,0.3l1.4,0.6c0.5,0.2,0.9,0.5,1.4,0.7c0.4,0.3,0.9,0.5,1.3,0.8l1.3,0.9c0.4,0.3,0.8,0.6,1.2,1
			c0.4,0.3,0.8,0.7,1.2,1c0.4,0.4,0.8,0.7,1.1,1.1l1,1.2l0.9,1.2c0.6,0.8,1.1,1.7,1.6,2.6c0.5,0.9,0.9,1.8,1.3,2.8
			c0.3,1,0.7,1.9,0.9,3l-0.7-0.4c0.9-0.3,1.7-0.5,2.6-0.7c0.9-0.2,1.7-0.3,2.6-0.3c0.9-0.1,1.7-0.1,2.6-0.1c0.9,0,1.7,0.1,2.6,0.2
			c0.4,0,0.9,0.1,1.3,0.2c0.4,0.1,0.9,0.2,1.3,0.3c0.8,0.2,1.7,0.5,2.5,0.8c0.8,0.3,1.6,0.7,2.4,1.1c0.8,0.4,1.5,0.9,2.2,1.3
			c0.7,0.5,1.4,1,2.1,1.6l0.9,0.9c0.3,0.3,0.6,0.7,0.9,1c0.6,0.7,1,1.4,1.5,2.2c0.4,0.8,0.8,1.6,1.1,2.4c0.3,0.8,0.5,1.7,0.7,2.5
			c0.2,0.9,0.3,1.7,0.4,2.6c0.1,1.7,0.1,3.5-0.3,5.2l-0.2-0.3c1.1,0.4,2.1,1,3.1,1.6c0.5,0.3,0.9,0.7,1.4,1c0.4,0.4,0.9,0.8,1.3,1.2
			c0.4,0.4,0.7,0.9,1.1,1.3c0.3,0.5,0.7,1,0.9,1.5l0.4,0.8l0.3,0.8c0.2,0.5,0.3,1.1,0.5,1.7c0.1,0.6,0.1,1.1,0.2,1.7
			c0,0.6,0,1.2,0,1.7c0,0.6,0,1.1-0.1,1.7c-0.1,0.6-0.1,1.1-0.3,1.7c-0.1,0.6-0.2,1.1-0.4,1.7c-0.2,0.5-0.4,1.1-0.6,1.6
			c-0.2,0.5-0.5,1-0.9,1.5c-0.3,0.5-0.7,0.9-1.2,1.3L171.6,236.4z"/>
	</g>
	<path class="st25" d="M142.7,256.9c-5.9-8.8-20-15-36.4-15s-30.5,6.2-36.4,15H142.7z"/>
	<path class="st26" d="M144.7,259.8H72.3c0,0,13.2-16.7,35.3-15.4s33.3,6.5,37.8,15.3"/>
	<path class="st12" d="M109.9,215.8c-0.1,0-0.2,0-0.3,0c-0.8,0-1.4-0.3-2-0.7c0.2,0.4,0.4,0.9,0.4,1.5c0,0.5-0.1,0.9-0.3,1.3
		c1.6,8.7,3.7,24.3-1.3,29.2h11C117.5,247.2,117.2,226.8,109.9,215.8L109.9,215.8z"/>
	<path class="st25" d="M112.8,212.7c0,1.7-1.4,3.1-3.1,3.1s-3.1-1.4-3.1-3.1s1.4-3.1,3.1-3.1S112.8,211,112.8,212.7L112.8,212.7z"/>
	<path class="st27" d="M115,206.2c-2.7,0.7-5,2.1-6.4,3.6c0.3-0.1,0.6-0.2,1-0.2c1.4,0,2.5,0.9,3,2.1l2.5-0.7l0.7-1.8l1.5,1.2
		l7.9-2.1C124.7,206.3,120,204.9,115,206.2L115,206.2z"/>
	<path class="st28" d="M107.7,210.3c-0.7-2-2.7-4.6-5.6-6.4c-4.4-2.7-9.3-2.7-10.5-0.8l7,4.3l1.8-0.7l0.2,1.9l5.9,3.6
		C106.7,211.4,107.2,210.7,107.7,210.3L107.7,210.3z"/>
	<path class="st27" d="M106.5,212.7c0-0.3,0-0.5,0.1-0.7c-1.6-1.4-5.5-2.2-9.6-1.1c-5,1.3-8.4,4.9-7.9,7l7.9-2.1l0.7-1.8l1.5,1.2
		l3.7-1c0.5-0.4,1.2-0.6,1.9-0.6c0.1,0,0.3,0,0.4,0l1.2-0.3C106.5,213.1,106.5,212.9,106.5,212.7L106.5,212.7z"/>
	<path class="st25" d="M106.9,214.2c-0.5-0.4-1.2-0.7-2-0.7c-1.7,0-3.1,1.4-3.1,3.1c0,1.7,1.4,3.1,3.1,3.1s3.1-1.4,3.1-3.1
		c0-0.5-0.2-1-0.4-1.5C107.4,214.9,107.1,214.6,106.9,214.2L106.9,214.2z"/>
	<path class="st12" d="M96.7,247.2c0,2.1-1.7,3.9-3.9,3.9c-2.1,0-3.9-1.7-3.9-3.9c0-2.1,1.7-3.9,3.9-3.9
		C94.9,243.3,96.7,245,96.7,247.2L96.7,247.2z"/>
	<path class="st0" d="M93.7,300.8"/>
</g>
<g id="sharing">
	<rect x="609.1" y="206.7" class="st0" width="79" height="79"/>
	<rect x="614.4" y="202.7" class="st29" width="79" height="79"/>
	<rect x="619.7" y="198.7" class="st29" width="79" height="79"/>
	<rect x="625" y="194.7" class="st29" width="79" height="79"/>
	<g>
		<path class="st12" d="M685.1,289l-0.4-78.8l0.5,0.5l-78.9,0.3l0.8-0.8l0.2,78.9l-1-1L685.1,289z M685.3,289.2l-79,0.9l-1,0l0-1
			l0.2-78.9l0-0.8l0.8,0l78.9,0.3l0.5,0l0,0.5L685.3,289.2z"/>
	</g>
	<rect x="615.1" y="215.7" class="st30" width="63" height="53"/>
	<line class="st31" x1="615.1" y1="251" x2="678.1" y2="251"/>
	<path class="st2" d="M620.3,273.4c-0.7-0.3-1.4-0.2-2,0.3c-0.5-0.5-1.3-0.7-1.9-0.4c-1.1,0.4-1.6,1.7-1.2,2.9
		c0.4,1.2,3.1,3.1,3.1,3.1s2.8-1.8,3.2-2.9C621.9,275.2,621.4,273.9,620.3,273.4z"/>
	<g class="st32">
		<path class="st10" d="M624.2,277.5h-0.4v-2.9l-0.9,0.3v-0.4l1.3-0.5h0.1V277.5z"/>
		<path class="st10" d="M627.8,277.5h-2.3v-0.3l1.2-1.3c0.2-0.2,0.3-0.4,0.4-0.5c0.1-0.1,0.1-0.3,0.1-0.4c0-0.2-0.1-0.3-0.2-0.4
			c-0.1-0.1-0.3-0.2-0.4-0.2c-0.2,0-0.4,0.1-0.5,0.2c-0.1,0.1-0.2,0.3-0.2,0.5h-0.4c0-0.3,0.1-0.6,0.3-0.8c0.2-0.2,0.5-0.3,0.8-0.3
			c0.3,0,0.6,0.1,0.8,0.3c0.2,0.2,0.3,0.4,0.3,0.7c0,0.3-0.2,0.7-0.7,1.2l-0.9,1h1.7V277.5z"/>
		<path class="st10" d="M628.9,275.5h0.3c0.2,0,0.4-0.1,0.5-0.2s0.2-0.3,0.2-0.4c0-0.4-0.2-0.6-0.6-0.6c-0.2,0-0.3,0.1-0.5,0.2
			c-0.1,0.1-0.2,0.3-0.2,0.4h-0.4c0-0.3,0.1-0.5,0.3-0.7s0.5-0.3,0.8-0.3c0.3,0,0.6,0.1,0.8,0.3c0.2,0.2,0.3,0.4,0.3,0.7
			c0,0.2,0,0.3-0.1,0.4c-0.1,0.1-0.2,0.2-0.4,0.3c0.2,0.1,0.3,0.2,0.4,0.3c0.1,0.1,0.2,0.3,0.2,0.5c0,0.3-0.1,0.6-0.3,0.7
			c-0.2,0.2-0.5,0.3-0.8,0.3c-0.3,0-0.6-0.1-0.8-0.3c-0.2-0.2-0.3-0.4-0.3-0.7h0.4c0,0.2,0.1,0.3,0.2,0.4c0.1,0.1,0.3,0.2,0.5,0.2
			c0.2,0,0.4-0.1,0.5-0.2c0.1-0.1,0.2-0.3,0.2-0.5c0-0.2-0.1-0.4-0.2-0.5s-0.3-0.2-0.5-0.2h-0.3V275.5z"/>
		<path class="st10" d="M632.9,276.3h0.5v0.4h-0.5v0.8h-0.4v-0.8h-1.6v-0.3l1.6-2.4h0.5V276.3z M631.4,276.3h1.1v-1.7l-0.1,0.1
			L631.4,276.3z"/>
	</g>
	<path class="st33" d="M665.1,255c-3.2-4.7-10.7-8-19.5-8c-8.8,0-16.3,3.3-19.5,8H665.1z"/>
	<path class="st34" d="M666.2,255.7l-38.9,0.2c0,0,2.7-6.1,18-8C645.3,248,661.8,248.1,666.2,255.7z"/>
	<path class="st12" d="M647.5,233L647.5,233c-0.5,0-0.9-0.1-1.2-0.4c0.1,0.2,0.2,0.5,0.2,0.8s-0.1,0.5-0.2,0.7
		c0.9,4.6,2,13-0.7,15.6h5.9C651.6,249.8,651.4,238.9,647.5,233L647.5,233z"/>
	<path class="st25" d="M649.1,231.4c0,0.9-0.7,1.7-1.7,1.7c-0.9,0-1.7-0.7-1.7-1.7c0-0.9,0.8-1.7,1.7-1.7
		C648.3,229.7,649.1,230.5,649.1,231.4L649.1,231.4z"/>
	<path class="st27" d="M650.3,227.9c-1.5,0.4-2.7,1.1-3.4,1.9c0.2-0.1,0.3-0.1,0.5-0.1c0.7,0,1.4,0.5,1.6,1.1l1.3-0.4l0.4-1l0.8,0.6
		l4.2-1.1C655.5,227.9,652.9,227.2,650.3,227.9L650.3,227.9z"/>
	<path class="st28" d="M646.4,230.1c-0.4-1.1-1.4-2.4-3-3.4c-2.4-1.4-5-1.4-5.6-0.5l3.8,2.3l1-0.4l0.1,1l3.2,1.9
		C645.8,230.6,646.1,230.3,646.4,230.1L646.4,230.1z"/>
	<path class="st27" d="M645.7,231.4c0-0.1,0-0.3,0.1-0.4c-0.8-0.8-2.9-1.2-5.1-0.6c-2.7,0.7-4.5,2.6-4.2,3.7l4.2-1.1l0.4-1l0.8,0.6
		l2-0.5c0.3-0.2,0.6-0.3,1-0.3c0.1,0,0.1,0,0.2,0l0.7-0.2C645.7,231.6,645.7,231.5,645.7,231.4L645.7,231.4z"/>
	<path class="st25" d="M645.9,232.2c-0.3-0.2-0.6-0.4-1-0.4c-0.9,0-1.7,0.7-1.7,1.7c0,0.9,0.8,1.7,1.7,1.7c0.9,0,1.7-0.7,1.7-1.7
		c0-0.3-0.1-0.6-0.2-0.8C646.2,232.5,646,232.4,645.9,232.2L645.9,232.2z"/>
	<path class="st12" d="M640.4,249.8c0,1.1-0.9,2.1-2.1,2.1c-1.1,0-2.1-0.9-2.1-2.1c0-1.1,0.9-2.1,2.1-2.1
		C639.5,247.7,640.4,248.6,640.4,249.8L640.4,249.8z"/>
	<circle class="st8" cx="626.1" cy="227.6" r="5.9"/>
</g>

<style>
	#vista_d4 #line1 {
		stroke-dasharray: 320;
		stroke-dashoffset: 320;
	}
	#vista_d4 #line2 {
		stroke-dasharray: 300;
		stroke-dashoffset: 300;
	}
	#vista_d4 #line3, #vista_d4 #line4 {
		stroke-dasharray: 360;
		stroke-dashoffset: 360;
	}

	#vista_d4 #line1 {
		-webkit-animation: drawingLine 1s linear 0s forwards, dashLine 0s linear 1s forwards;
		animation: drawingLine 1s linear 0s forwards, dashLine 0s linear 1s forwards;
	}
	#vista_d4 #line2 {
		-webkit-animation: drawingLine 1s linear 1s forwards, dashLine 0s linear 2s forwards;
		animation: drawingLine 1s linear 1s forwards, dashLine 0s linear 2s forwards;
	}
	#vista_d4 #line3 {
		-webkit-animation: drawingLine 1s linear 2s forwards, dashLine 0s linear 3s forwards;
		animation: drawingLine 1s linear 2s forwards, dashLine 0s linear 3s forwards;
	}
	#vista_d4 #line4 {
		-webkit-animation: drawingLine 1s linear 3s forwards, dashLine 0s linear 4s forwards;
		animation: drawingLine 1s linear 3s forwards, dashLine 0s linear 4s forwards;
	}

	#vista_d4 #imagination, #vista_d4 #calendar, #vista_d4 #booking, #vista_d4 #camera, #vista_d4 #sharing, #vista_d4 #bg_cloud, #vista_d4 #icons {
		-webkit-transform-origin: 50% 50%;
		-webkit-transform: scale(0);
		transform-origin: 50% 50%;
		transform: scale(0);
	}

	#vista_d4 #imagination {
		-webkit-animation: scaleElement 1s linear 0s forwards;
		animation: scaleElement 1s linear 0s forwards;
	}
	#vista_d4 #calendar {
		-webkit-animation: scaleElement 1s linear 0.75s forwards;
		animation: scaleElement 1s linear 0.75s forwards;
	}
	#vista_d4 #booking {
		-webkit-animation: scaleElement 1s linear 1.5s forwards;
		animation: scaleElement 1s linear 1.5s forwards;
	}
	#vista_d4 #camera {
		-webkit-animation: scaleElement 1s linear 2.25s forwards;
		animation: scaleElement 1s linear 2.25s forwards;
	}
	#vista_d4 #sharing {
		-webkit-animation: scaleElement 1s linear 3s forwards;
		animation: scaleElement 1s linear 3s forwards;
	}

	#vista_d4 #bg_cloud {
		-webkit-animation: scaleElement 2s linear 0.5s forwards;
		animation: scaleElement 2s linear 0.5s forwards;
	}

	#vista_d4 #icons {
		opacity: 0;
		-webkit-animation: scaleIcons 2s linear 0s forwards;
		animation: scaleIcons 2s linear 0s forwards;
	}

	#vista_d4 #star1, #vista_d4 #star2 {
		-webkit-animation: blinkStar 1s ease-out 0s alternate infinite;
		animation: blinkStar 1s ease-out 0s alternate infinite;
	}
	#vista_d4 #star3, #vista_d4 #star4 {
		-webkit-animation: blinkStar 1s ease-out 1s alternate infinite;
		animation: blinkStar 1s ease-out 1s alternate infinite;
	}
	#vista_d4 #star5, #vista_d4 #star6 {
		-webkit-animation: blinkStar 1s ease-out 0.5s alternate infinite;
		animation: blinkStar 1s ease-out 0.5s alternate infinite;
	}


	@-webkit-keyframes drawingLine {
		to {
			stroke-dashoffset: 0;
		}
	}

	@-webkit-keyframes dashLine {
		to {
			stroke-dasharray: 5;
		}
	}

	@-webkit-keyframes scaleElement {
		to {
			-webkit-transform: scale(1);
			transform: scale(1);
		}
	}

	@-webkit-keyframes scaleIcons {
		to {
			opacity: 1;
			-webkit-transform: scale(1);
			transform: scale(1);
		}
	}

	@-webkit-keyframes blinkStar {
		0% {
	    opacity: 1;
	  }
		100% {
			 opacity: 0;
		}
	}


	@keyframes drawingLine {
		to {
			stroke-dashoffset: 0;
		}
	}

	@keyframes dashLine {
		to {
			stroke-dasharray: 5;
		}
	}

	@keyframes scaleElement {
		to {
			transform: scale(1);
		}
	}

	@keyframes scaleIcons {
		to {
			opacity: 1;
			transform: scale(1);
		}
	}

	@keyframes blinkStar {
		0% {
	    opacity: 1;
	  }
		100% {
			 opacity: 0;
		}
	}
</style>

</svg>
