<?xml version="1.0" encoding="utf-8"?>
<!-- Generator: Adobe Illustrator 19.0.0, SVG Export Plug-In . SVG Version: 6.00 Build 0)  -->
<svg version="1.1" id="vista_d1" xmlns="http://www.w3.org/2000/svg" xmlns:xlink="http://www.w3.org/1999/xlink" x="0px"
	 y="0px" viewBox="0 0 881.1 694.4" style="enable-background:new 0 0 881.1 694.4;" xml:space="preserve">
<style type="text/css">
	.st0{fill:#EFF4F7;}
	.st1{fill:url(#SVGID_1_);}
	.st2{fill:#F9D45F;}
	.st3{fill:#303F9F;}
	.st4{fill:#FFFFFF;}
	.st5{fill:none;stroke:#1B5FC1;stroke-width:1.47;stroke-linecap:round;stroke-miterlimit:10;}
	.st6{fill:none;stroke:#1B5FC1;stroke-width:1.47;stroke-linecap:round;stroke-miterlimit:10;stroke-dasharray:5.1054,5.1054;}
	.st7{fill:none;stroke:#1B5FC1;stroke-width:1.47;stroke-linecap:round;stroke-miterlimit:10;stroke-dasharray:5.145;}
	.st8{fill:url(#SVGID_2_);}
	.st9{fill:url(#SVGID_3_);}
	.st10{fill:url(#SVGID_4_);}
	.st11{fill:url(#SVGID_5_);}
	.st12{fill:url(#SVGID_6_);}
	.st13{fill:url(#SVGID_7_);}
	.st14{fill:url(#SVGID_8_);}
	.st15{fill:url(#SVGID_9_);}
	.st16{fill:url(#SVGID_10_);}
	.st17{fill:url(#SVGID_11_);}
	.st18{fill:url(#SVGID_12_);}
	.st19{fill:url(#SVGID_13_);}
	.st20{fill:url(#SVGID_14_);}
	.st21{fill:url(#SVGID_15_);}
	.st22{fill:#D5E7EF;}
	.st23{fill:none;stroke:#6EA1FF;stroke-width:1.5687;stroke-linecap:round;stroke-miterlimit:10;}
	.st24{fill:none;stroke:#6EA1FF;stroke-width:2.042;stroke-linecap:round;stroke-miterlimit:10;}
	.st25{fill:#77E084;}
	.st26{fill:#4248B7;}
	.st27{fill:#E7CD72;}
	.st28{fill:none;stroke:#4248B7;stroke-miterlimit:10;}
	.st29{fill:#E55C65;}
	.st30{fill:#EFEFEF;}
	.st31{fill:none;stroke:#4248B7;stroke-width:1.5;stroke-miterlimit:10;}
</style>
<g id="bg">
	<path class="st0" d="M322.3,0.1c-22,0.6-46.8,3.9-63,22.6c-18.1,20.8-6.2,42.8-17.2,62.5c-23.9,42.8-88.2,17.8-105.4,75.2
		c-7.7,25.6,13.1,45.5,7.6,67.7c-7.4,29.8-29.9,18.2-48.8,25.7c-34.9,13.8-60.7,35.6-67.8,79.1C7.4,457.3,120.2,546.4,218.6,540.1
		c58.4-3.7,117.3-18.9,175-29.2c58.7-10.5,100-6.3,157.8,3.1c81.3,13.2,263,26.2,295.3-84.9c16.2-55.6-1.6-103.5-43.2-137.8
		c-29.1-23.9-91.3-33.7-101.6-78.2c-10.5-45.3,43.7-58.8,22.8-104.5c-20.3-44.4-78-56.3-117.5-57.4c-55.3-1.5-103.7,19.8-153.1-15
		C411.1,5.9,373.7-1.1,322.3,0.1z"/>
	
		<radialGradient id="SVGID_1_" cx="438.6791" cy="331.0379" r="248.9506" gradientTransform="matrix(1.1838 0 0 1.0157 -79.7457 35.7386)" gradientUnits="userSpaceOnUse">
		<stop  offset="0" style="stop-color:#303F9F;stop-opacity:0.7"/>
		<stop  offset="1" style="stop-color:#303F9F;stop-opacity:0"/>
	</radialGradient>
	<path class="st1" d="M133.4,142.5c0,0,383.5-98.4,607.3,66.7c0,0,127.9,173.9,4.8,356.7c0,0-459.9,159.9-599.9-24
		S133.4,142.5,133.4,142.5z"/>
	<path class="st2" d="M581.2,408.2l99-1.2c-3.8-25.6-11.5-49.9-22.5-72.3l-62.7-1.8l61.4-0.8c-12.6-25-29.4-47.5-49.4-66.7l-111-3.2
		l106.2-1.2c-43.7-39.8-101.8-64-165.6-64c-53.6,0-103.1,17.1-143.6,46.2l67.4,1.9l-71.2,0.9c-23.9,17.9-44.5,40.1-60.6,65.4
		l77.2,2.2l-79.2,1c-13.5,21.9-23.6,46.1-29.7,71.9l140.4,4l-141.7,1.8c-3.5,16.4-5.3,33.5-5.3,51h492.5c0-10.9-0.7-21.6-2.1-32.1
		L581.2,408.2z"/>
	<g>
		<path class="st3" d="M181.7,434.8c0,0,0-3-0.1-8.7c-0.1-2.8,0.1-6.3,0.2-10.5c0-1,0.1-2.1,0.1-3.2c0-1.1,0.1-2.3,0.2-3.4
			c0.2-2.4,0.4-4.9,0.7-7.5c0.2-2.7,0.6-5.4,1-8.3c0.2-1.5,0.4-2.9,0.6-4.5c0.1-0.8,0.2-1.5,0.3-2.3c0.1-0.8,0.3-1.6,0.4-2.3
			c0.6-3.2,1.2-6.4,1.9-9.8c0.8-3.4,1.7-6.9,2.5-10.5c0.1-0.5,0.2-0.9,0.3-1.4c0.1-0.4,0.3-0.9,0.4-1.4c0.3-0.9,0.5-1.8,0.8-2.7
			c0.5-1.8,1.1-3.7,1.7-5.6c0.5-1.9,1.2-3.8,1.9-5.7c0.7-1.9,1.4-3.9,2.1-5.8c0.7-2,1.5-3.9,2.4-5.9c0.9-2,1.7-3.9,2.6-5.9
			c0.8-2,1.9-4,2.9-6c1-2,2-4,3-6.1c8.5-16.2,19.7-32.8,33.7-48.5c3.4-4,7.2-7.8,10.9-11.6l1.4-1.4l0.4-0.4c0,0,0.2-0.2,0.2-0.2
			l0.2-0.2l0.7-0.7c1-0.9,2-1.8,3-2.7c2-1.8,3.9-3.7,6-5.5c2.1-1.8,4.3-3.6,6.4-5.4c1.1-0.9,2.1-1.8,3.3-2.7
			c1.1-0.8,2.2-1.7,3.4-2.5c2.3-1.7,4.5-3.4,6.8-5.1c2.4-1.6,4.7-3.2,7.1-4.8c9.6-6.2,19.7-12.1,30.4-17c1.3-0.6,2.7-1.3,4-1.9
			c1.3-0.6,2.7-1.2,4.1-1.7c2.7-1.1,5.5-2.3,8.2-3.4c2.8-1,5.6-2,8.4-3.1l2.1-0.8l2.1-0.7l4.3-1.3l4.3-1.3c1.4-0.4,2.9-0.8,4.4-1.2
			c2.9-0.7,5.8-1.5,8.8-2.2c3-0.6,5.9-1.2,8.9-1.8c0.7-0.1,1.5-0.3,2.2-0.4l2.3-0.3l4.5-0.7c12-1.8,24.2-2.9,36.5-2.8
			c24.4-0.1,48.9,3.5,71.9,10.4c23,6.9,44.7,17,63.9,29.6c1.2,0.8,2.4,1.5,3.6,2.3c1.2,0.8,2.3,1.6,3.5,2.5c2.3,1.7,4.6,3.3,6.9,4.9
			c2.2,1.7,4.4,3.5,6.6,5.2c1.1,0.9,2.2,1.7,3.3,2.6c1.1,0.9,2.1,1.8,3.1,2.7c2.1,1.8,4.1,3.6,6.2,5.4c2,1.9,3.9,3.8,5.8,5.7
			c1,0.9,1.9,1.9,2.9,2.8l0.7,0.7c0,0,0.2,0.2,0.2,0.2l0.2,0.2l0.3,0.4l1.3,1.5c1.8,1.9,3.6,3.9,5.3,5.8l1.3,1.4l1.3,1.5
			c0.8,1,1.7,2,2.5,3c0.8,1,1.7,2,2.5,3c0.8,1,1.7,2,2.4,3c1.5,2,3.1,4.1,4.6,6.1c0.8,1,1.5,2,2.3,3c0.7,1,1.4,2.1,2.1,3.1
			c1.4,2,2.8,4.1,4.1,6.1c1.3,2,2.5,4.1,3.8,6.1c1.2,2,2.5,4,3.6,6.1c1.1,2.1,2.2,4.1,3.3,6.1c4.3,8.1,8.1,16,11.1,23.8l0.6,1.5
			l0.5,1.5c0.3,1,0.7,1.9,1,2.9c0.7,1.9,1.3,3.8,1.9,5.7c1.2,3.8,2.2,7.5,3.2,11c3.9,14.4,5.9,27.2,7.1,37.7c0.5,5.3,1,10,1.1,14.1
			c0.1,4.1,0.4,7.6,0.3,10.5c0,5.7-0.1,8.7-0.1,8.7s-0.2-3-0.4-8.7c-0.1-2.8-0.5-6.3-0.9-10.4c-0.3-4.1-1.1-8.7-1.8-14
			c-1.7-10.4-4.3-23-8.8-36.9c-1.2-3.5-2.4-7.1-3.7-10.7c-0.7-1.8-1.4-3.6-2.2-5.5c-0.4-0.9-0.7-1.9-1.1-2.8l-0.6-1.4l-0.6-1.4
			c-0.9-1.9-1.7-3.8-2.5-5.7c-0.8-1.9-1.6-3.9-2.6-5.8c-0.9-1.9-1.9-3.9-2.8-5.9c-0.5-1-0.9-2-1.5-3c-0.5-1-1.1-2-1.6-2.9
			c-1.1-2-2.2-4-3.3-6c-1.1-2-2.4-3.9-3.6-6c-1.2-2-2.4-4-3.7-6c-1.3-2-2.7-3.9-4.1-6c-0.7-1-1.4-2-2.1-3c-0.7-1-1.5-2-2.2-2.9
			c-1.5-2-3-3.9-4.5-5.9c-0.7-1-1.6-1.9-2.4-2.9c-0.8-1-1.6-1.9-2.4-2.9c-0.8-1-1.6-1.9-2.4-2.9l-1.2-1.5c-0.4-0.5-0.9-1-1.3-1.4
			c-1.8-1.9-3.5-3.8-5.3-5.8l-1.3-1.5l-0.3-0.4l-0.2-0.2c-0.1-0.1,0,0-0.1-0.1l-0.7-0.7c-0.9-0.9-1.9-1.8-2.8-2.8
			c-1.9-1.8-3.8-3.7-5.7-5.5c-2-1.8-4-3.5-6-5.3c-1-0.9-2-1.8-3.1-2.7c-1.1-0.8-2.1-1.7-3.2-2.5c-2.1-1.7-4.3-3.4-6.4-5.1
			c-2.2-1.6-4.5-3.2-6.8-4.8c-1.1-0.8-2.2-1.6-3.4-2.4c-1.2-0.8-2.4-1.5-3.5-2.3c-18.8-12.3-40-22.2-62.6-29
			c-22.6-6.7-46.5-10.3-70.5-10.2c-12-0.1-23.9,1-35.7,2.7l-4.4,0.7l-2.2,0.3c-0.7,0.1-1.5,0.3-2.2,0.4c-2.9,0.6-5.8,1.2-8.7,1.8
			c-2.9,0.7-5.8,1.4-8.6,2.2c-1.4,0.4-2.9,0.7-4.3,1.1l-4.2,1.3l-4.2,1.3l-2.1,0.6l-2.1,0.7c-2.8,1-5.5,2-8.3,3
			c-2.7,1-5.4,2.2-8.1,3.3c-1.3,0.6-2.7,1.1-4,1.7c-1.3,0.6-2.6,1.2-3.9,1.9c-10.5,4.8-20.4,10.6-29.8,16.7
			c-2.3,1.6-4.6,3.1-6.9,4.7c-2.3,1.6-4.4,3.3-6.7,5c-1.1,0.8-2.2,1.7-3.3,2.5c-1.1,0.8-2.1,1.7-3.2,2.6c-2.1,1.7-4.2,3.5-6.2,5.2
			c-2,1.8-4,3.7-6,5.5c-1,0.9-2,1.8-3,2.7l-0.7,0.7l-0.2,0.2c-0.1,0.1,0,0-0.1,0.1l-0.3,0.4l-1.4,1.4c-3.7,3.8-7.4,7.4-10.7,11.4
			c-13.6,15.4-24.6,31.6-33,47.5c-1,2-2,4-3,6c-1,2-2,3.9-2.8,5.9c-0.9,2-1.7,3.9-2.5,5.8c-0.8,1.9-1.7,3.8-2.5,5.7
			c-0.8,1.9-1.5,3.8-2.3,5.6c-0.8,1.8-1.5,3.7-2.1,5.5c-0.6,1.8-1.3,3.6-1.9,5.4c-0.3,0.9-0.6,1.8-0.9,2.6c-0.2,0.4-0.3,0.9-0.5,1.3
			c-0.1,0.4-0.3,0.9-0.4,1.3c-1,3.5-2,6.9-3,10.2c-0.8,3.3-1.6,6.5-2.3,9.6c-0.2,0.8-0.4,1.5-0.6,2.3c-0.1,0.8-0.3,1.5-0.4,2.3
			c-0.3,1.5-0.6,3-0.8,4.4c-0.6,2.9-1.1,5.6-1.4,8.2c-0.4,2.6-0.7,5.1-1,7.4c-0.2,1.2-0.3,2.3-0.4,3.4c-0.1,1.1-0.2,2.2-0.3,3.2
			c-0.4,4.1-0.8,7.6-0.8,10.4C181.9,431.7,181.7,434.8,181.7,434.8z"/>
	</g>
	<g>
		<path class="st4" d="M5.9,445.5c0,0,13.6-0.3,37.5-0.7c11.9-0.2,26.4-0.4,43-0.7c16.6-0.3,35.3-0.6,55.8-0.8
			c20.4-0.2,42.6-0.5,66-0.8c23.4-0.3,48.1-0.5,73.7-0.8c25.6-0.2,52-0.4,78.8-0.7c26.8-0.2,54.1-0.4,81.4-0.6
			c27.3-0.1,54.5-0.3,81.4-0.4c26.8-0.1,53.2-0.2,78.8-0.2c25.6,0,50.3,0,73.7,0c23.4,0,45.6,0,66,0c20.4,0,39.2,0.1,55.8,0.2
			c16.6,0.1,31.1,0.1,43,0.2c23.9,0.2,37.5,0.3,37.5,0.3s-13.6,0.3-37.5,0.7c-11.9,0.2-26.4,0.4-43,0.7c-16.6,0.3-35.3,0.6-55.8,0.8
			c-20.4,0.2-42.6,0.5-66,0.8c-23.4,0.3-48.1,0.5-73.7,0.8c-25.6,0.2-52,0.4-78.8,0.7c-26.8,0.2-54.1,0.4-81.4,0.5
			c-27.3,0.1-54.5,0.3-81.4,0.4c-26.8,0.1-53.2,0.2-78.8,0.2c-25.6,0-50.3,0-73.7,0c-23.4,0-45.6,0-66,0c-20.4,0-39.2-0.1-55.8-0.2
			c-16.6-0.1-31.1-0.1-43-0.2C19.5,445.6,5.9,445.5,5.9,445.5z"/>
	</g>
	<g>
		<path class="st3" d="M532.7,428.3l-7.3-37.1c-0.6-3.2-3.6-5.4-6.6-5l-8,1.1l-4.2-20.7h0.3c0.8-0.1,1.4-0.8,1.3-1.7
			c-0.1-0.8-0.9-1.4-1.7-1.3l-2.2,0.3l-5-6.7c-2.9-7.5-3.9-12.8-4.7-16.4c-1-4.3-1.7-6.1-1.7-6.1l-1.6-8.3l2.1-0.8
			c-1.9-6-5.4-21.9-12.3-25.8c-3.9-2.6-6.2-3.7-6.2-3.7l-1-5.1h-2.8l-1.3,0.1c1.4-2.1,2.3-4.5,2.9-5.9c1.7,1.1,2.2-1.5,3.5-5.1
			c1.3-3.7-0.7-3.7-0.7-3.7l0,0c4.5-0.3,7.5-1.3,7.8-3c0.3-1.8-2.7-4-7.4-5.6c0.1-4.2,0.1-4.3,0.1-4.3v-4c0,0-5.8-4.3-18.5-2.9
			l-3.1,8.4c-3.6,0.4-6,1.4-6.2,2.9c-0.3,1.6,2.1,3.5,6,5.1c-0.2,2-0.2,4.7-0.2,8.1c0,5.3,2.9,8.9,5.4,11l-1.9,0.2l-2-0.6l0.4,5.3
			l-8.2,3.3l-6.8,18.3c0,0-0.4,1,1.8,2.4l0,0l-1.9,9.4c0,0-3.6,2.6-9.9,19.1c0.4,0.3,0.7,0.5,0.9,0.7c0.3,0.2,0.5,0.4,0.7,0.5
			s0.4,0.3,0.5,0.4s0.3,0.2,0.3,0.3c0.1,0.1,0.2,0.1,0.2,0.2c0.1,0,0.1,0.1,0.1,0.1l0,0l0,0c0,0,13.1-14.7,13.6-17.4
			c0.3-1.9,1.5-7.4,2.1-10.5c0.5,0.1,0.9,0.3,1.4,0.4c-0.5,6.4-2.1,25.2-2.1,25.2s0.4,0.1,1.1,0.3l0,0c0,0-4.2,15.4-2,35.7
			c0.2,1.4,0.9,2.3,1.9,2.9l-0.3,2.1c-0.1,0.8,0,1.7,0.2,2.5l0.7,2c0,0,0.4,8,2.5,15.4c2.1,7.5,4.9,15.6,4.9,18l-3.7,4.8
			c0,0-4.1,2.7-6.5,2.8s-2.8,2.9-3,4.9c4.8,2,12-1.7,12.6-1.8c0.6-0.1,4-0.6,6.4-2.1c-0.2-4.6-1.7-7.5-1.7-7.5l-0.6-17.6
			c0,0,0.7-9.9-2.1-15.8l-0.1-2.3v-5.1c0.2-0.1,0.4-0.1,0.6-0.2c0.6-2.4,1.5-14.1,1.5-14.1l2.4,13.8c0,0,0.6,1,2.7,1.5
			c-0.5,1.8,0.3,5.7,0.3,5.7s3,28.8,3.7,35.1l0,0c0,0-1.3,2.9-3,4.7c-1.7,1.8-6.5,5.6-6.5,8.3c-0.1,1.7-0.1,1.7-0.1,1.7
			s2,1.9,9.5,0.6c3.5-1.4,2.8-3.9,2.8-3.9s1.5-3.4,2-3.4c0.4,0-0.1-4.3-0.5-6.6c0.6-4.3,0.9-17.1,0.9-17.1s2.2-12,0.5-17.7
			c-1-3.5-1-6.2-0.8-7.7c1-0.2,2-0.6,3.2-0.9c-0.2-6.7-0.9-30.1-1.1-36.1c0.4,0,0.7-0.1,1.1-0.1c0.9-6.2,2.9-19.2,3.4-22.8
			c0.1-0.6,0.1-1,0.1-1l0.5,1.7l2.1-0.8c0.7,3.2,1.7,8,2,9.8c0.4,2.3,7.4,15.7,9.5,19.7c0.2,0.8,0.3,2-0.1,3.2s-0.6,2.7-0.7,3.6
			h-0.3c-0.8,0.1-1.4,0.8-1.3,1.7c0.1,0.7,0.7,1.3,1.5,1.3c0.1,0,0.1,0,0.2,0l1.6-0.2l4.2,20.7l-0.6,0.1c-0.8,0.1-1.5,0.4-2.1,0.8
			l0,0l-4.6,3c-1.8,1.1-2.7,3.3-2.3,5.7l7.3,37.1c0.6,3.2,3.6,5.4,6.6,5l18.6-2.5c0.2,0,0.4-0.1,0.6-0.1c0.5-0.1,1.1-0.4,1.5-0.6
			l4.6-3l0,0C532.2,432.9,533.2,430.7,532.7,428.3z M498.4,368.6c1.2,0.2,3.7,0.4,4.6-0.1c0.5-0.3,0.9-0.9,1.3-1.6l1-0.1l4.2,20.7
			l-7,0.9L498.4,368.6z M497.7,389.9l-0.1,0.1C497.6,390,497.6,389.9,497.7,389.9z M495.8,394.2c0,0.1,0,0.1,0,0.2
			C495.9,394.3,495.8,394.3,495.8,394.2z M497.1,390.5C497,390.5,497,390.6,497.1,390.5C497,390.6,497,390.5,497.1,390.5z
			 M496.6,391.1c0,0-0.1,0.1-0.1,0.2C496.6,391.2,496.6,391.1,496.6,391.1z M496.2,391.9L496.2,391.9L496.2,391.9z M496,392.6
			c0,0.1,0,0.1,0,0.2C496,392.7,496,392.6,496,392.6z M495.9,393.5L495.9,393.5L495.9,393.5z M530,434.3c0.1,0,0.1-0.1,0.2-0.1
			C530.1,434.2,530,434.3,530,434.3z M529,434.7c0.1,0,0.1,0,0.2-0.1C529.1,434.6,529,434.7,529,434.7z M529.5,434.5
			c0.1,0,0.1-0.1,0.2-0.1C529.6,434.4,529.5,434.5,529.5,434.5z"/>
		<path class="st3" d="M509.9,444.3L509.9,444.3c0-0.1,0-0.1,0-0.2V444v-0.1v-0.1c0,0,0,0,0-0.1l0,0l0,0v-0.1v-0.1v-0.1v-0.1v-0.1
			v-0.1l0,0l0,0V443v-0.1v-0.1c0-0.1-0.1-0.2-0.1-0.2c0-0.1,0-0.1-0.1-0.2c0-0.1,0-0.1-0.1-0.2c0,0,0-0.1-0.1-0.1l0,0l0,0
			c0,0,0,0,0-0.1c0,0,0-0.1-0.1-0.1c0,0,0-0.1-0.1-0.1c0,0,0-0.1-0.1-0.1c0,0,0,0,0-0.1l0,0l0,0l-0.1-0.1l-0.1-0.1l-0.1-0.1l0,0l0,0
			c0,0,0-0.1-0.1-0.1l-0.1-0.1l-0.1-0.1l-0.1-0.1l0,0l0,0c0,0,0,0-0.1-0.1c0,0-0.1,0-0.1-0.1c0,0,0,0-0.1-0.1c0,0-0.1,0-0.1-0.1l0,0
			l0,0l0,0H508h-0.1h-0.1l0,0l0,0l0,0h-0.1h-0.1h-0.1l0,0l0,0h-0.1h-0.1h-0.1l-2,0.5l0,0c-0.1,0-0.2,0.1-0.3,0.1
			c-0.8,0.5-1.1,2.2-0.5,3.9c0.6,1.6,1.7,2.6,2.6,2.1c-0.1,0-0.2,0.1-0.2,0.1l2-0.5c0.1,0,0.2-0.1,0.2-0.1c0.1-0.1,0.2-0.1,0.3-0.2
			c0,0,0,0,0.1-0.1c0,0,0,0,0.1-0.1c0,0,0.1-0.1,0.1-0.2c0,0,0,0,0-0.1l0,0l0,0c0,0,0-0.1,0.1-0.1v-0.1v-0.1l0,0l0,0v-0.1v-0.1v-0.1
			v-0.1c0,0,0,0,0-0.1l0,0l0,0V445v-0.1v-0.1C509.9,444.4,509.9,444.4,509.9,444.3L509.9,444.3L509.9,444.3z M505.9,440.8
			L505.9,440.8C506,440.9,506,440.9,505.9,440.8c0,0,0,0-0.1,0H505.9z M506.2,441C506.2,441,506.3,441,506.2,441l0.1,0.1
			C506.3,441,506.2,441,506.2,441L506.2,441z M506.6,441.3L506.6,441.3l0.1,0.1C506.6,441.3,506.6,441.3,506.6,441.3
			C506.5,441.2,506.5,441.2,506.6,441.3z M507.4,442.5L507.4,442.5c0.1,0.2,0.2,0.4,0.2,0.5C507.6,442.8,507.5,442.6,507.4,442.5
			C507.4,442.4,507.4,442.4,507.4,442.5z M505.6,440.8L505.6,440.8L505.6,440.8h-0.1H505.6z M506.8,441.5
			C506.8,441.6,506.9,441.6,506.8,441.5C506.9,441.6,506.9,441.6,506.8,441.5c0.1,0.1,0.1,0.2,0.2,0.2
			C506.9,441.7,506.9,441.6,506.8,441.5z M507.1,441.9C507.1,442,507.1,442,507.1,441.9C507.2,442,507.2,442,507.1,441.9
			c0.1,0.1,0.1,0.2,0.2,0.3C507.3,442.2,507.2,442,507.1,441.9z"/>
		<path class="st3" d="M530.5,442.1C530.5,442,530.5,442,530.5,442.1c0-0.1,0-0.1,0-0.2v-0.1v-0.1v-0.1c0,0,0,0,0-0.1l0,0l0,0v-0.1
			v-0.1v-0.1v-0.1V441v-0.1l0,0l0,0v-0.1v-0.1v-0.1c0-0.1-0.1-0.2-0.1-0.2c0-0.1,0-0.1-0.1-0.2c0-0.1,0-0.1-0.1-0.2
			c0,0,0-0.1-0.1-0.1l0,0l0,0c0,0,0,0,0-0.1c0,0,0-0.1-0.1-0.1c0,0,0-0.1-0.1-0.1c0,0,0-0.1-0.1-0.1c0,0,0,0,0-0.1l0,0l0,0l-0.1-0.1
			l-0.1-0.1l-0.1-0.1l0,0l0,0c0,0,0-0.1-0.1-0.1l-0.1-0.1l-0.1-0.1l-0.1-0.1l0,0l0,0c0,0,0,0-0.1-0.1c0,0-0.1,0-0.1-0.1
			c0,0,0,0-0.1-0.1s0,0-0.1-0.1l0,0l0,0l0,0h-0.1h-0.1h-0.1l0,0l0,0l0,0h-0.1h-0.1h-0.1l0,0l0,0H528h-0.1h-0.1l-2,0.5l0,0
			c-0.1,0-0.2,0.1-0.3,0.1c-0.8,0.5-1.1,2.2-0.5,3.9c0.6,1.6,1.7,2.6,2.6,2.1c-0.1,0-0.2,0.1-0.2,0.1l2-0.5c0.1,0,0.2-0.1,0.2-0.1
			c0.1-0.1,0.2-0.1,0.3-0.2c0,0,0,0,0.1-0.1c0,0,0,0,0.1-0.1c0,0,0.1-0.1,0.1-0.2c0,0,0,0,0-0.1l0,0l0,0c0,0,0-0.1,0.1-0.1v-0.1
			v-0.1l0,0l0,0v-0.1v-0.1v-0.1V443c0,0,0,0,0-0.1l0,0l0,0v-0.1v-0.1v-0.1C530.5,442.2,530.5,442.2,530.5,442.1L530.5,442.1
			L530.5,442.1z M526.5,438.6L526.5,438.6C526.5,438.6,526.5,438.7,526.5,438.6C526.5,438.6,526.5,438.6,526.5,438.6
			C526.4,438.6,526.4,438.6,526.5,438.6z M526.8,438.8L526.8,438.8l0.1,0.1C526.8,438.8,526.8,438.8,526.8,438.8
			C526.7,438.8,526.8,438.8,526.8,438.8z M527.1,439L527.1,439l0.1,0.1L527.1,439L527.1,439z M528,440.2L528,440.2
			c0.1,0.2,0.2,0.4,0.2,0.5C528.1,440.6,528,440.4,528,440.2C527.9,440.2,528,440.2,528,440.2z M526.1,438.6L526.1,438.6
			C526.2,438.6,526.2,438.6,526.1,438.6L526.1,438.6C526.1,438.6,526.1,438.5,526.1,438.6z M527.4,439.3L527.4,439.3
			C527.4,439.4,527.4,439.4,527.4,439.3c0.1,0.1,0.1,0.2,0.2,0.2C527.5,439.5,527.4,439.4,527.4,439.3z M527.7,439.7L527.7,439.7
			C527.7,439.8,527.7,439.8,527.7,439.7c0.1,0.1,0.1,0.2,0.2,0.3C527.8,439.9,527.7,439.8,527.7,439.7z"/>
		<path class="st3" d="M433.6,351.6l-0.1-0.1l-0.2-0.2L433,351l-0.5-0.4l-0.7-0.5l-0.9-0.7c0,0-1,0.8-2.2,1.9
			c-0.7-0.7-1.3-1.2-1.6-1.6c0,0-7.7-22.9-9.6-26.4c-7.6-17.6-12.5-25.9-12.5-25.9l0,0c-0.1-0.4-0.3-0.8-0.6-1.1
			c-1-1.3-3.4-3.5-7.4-4.4c-0.2,0-0.3-0.1-0.5-0.1c-0.4-0.7-0.6-1.7-0.7-2.6c0.2,0,0.4-0.1,0.5-0.2c0,0,7.2-3.4,7.2-10.9
			c0-2.8,0-5-0.2-6.6l1.6-0.5c0,0,0.2-13.1-10.6-11.4c-3.3-0.2-14.4,0.9-12.7,16c0.7,3.3,1.1,6.8-2.2,7.5c0,0,3.7,0.8,9.1,1
			c-0.8,5.3-3.3,8.3-3.4,8.4c-2,0.7-4.2,2-5,4c0-0.1,0-0.1,0-0.1s-6.1,14.1-8.9,22.8c-1.3-3.2-7.6-15.2-8.2-18.1
			c0.2-4.5-2.9-5.4-3.9-6.5c-0.3-0.4-0.6-0.6-0.8-0.7l6.8-6.7h-6.3l1-3.5l7.9,2.9l-6.8-6.1l-9.1,0.3l7.2,2.6l-1.1,3.7h-9.8l8.1,7.9
			v0.2c-0.7-0.8-1.3-1.4-1.3-1.4s-2.1,3.5-1,5.2c0.5,0.7,1.3,1.5,2.3,2.3v1.2l-5.3,2.2h9.8c1.6,3.6,4.2,13.7,4.4,14.5
			c0.3,0.9,2.8,8.2,7.7,8c2.9-2.5,6.7-9.1,8.4-12.9c0.4,0.9,0.9,1.9,1.3,3.1c1.3,3.9-8.3,54.2-12.5,62.1c1.7,0.6,4.6,1.3,8,1.9
			c-0.2,4.3-0.3,7.8-0.3,8.9c0.2,3.3,10.3,21.7,10.1,22.8s4.7,11.6,4.7,15.1c-1.1,2.6-8.9,10.2-8.6,11.5c1.1,1.3-0.1,1.7,1.1,1.3
			c1.2-0.4,5.4-1,5.4-1s-0.4,2,2.1,2s9.2-1.3,9.2-1.3s5.8-1.8,5.3-4.8s-1.3-5.3-1-11.5c0.4-6.2,1.7-22.7,1.8-24.7
			c0.1-2.1-0.9-7-0.9-9.3c0-0.7,0.1-4,0.2-8c3.1-0.6,6-1.5,8.4-2.9c-3.7-14.7-7.7-32.1-8.3-36.6c-0.6-4.5-6.4-16.8-7.4-17.9
			s-0.7-7.9-0.6-8.8c0.1-0.4,1.5-2.7,2.9-5.7c2.8,5.7,8.6,14.8,9.7,17.5c1.5,3.5,11.4,24.2,11.4,24.2s0.5,2,0.9,4
			c-0.5,0.9-0.7,1.8-0.5,2.5c1.1,3.1,4.3,5.1,5,5.3c0.3,0.1,1.3-0.8,2.1-1.9l0,0c1.9,0.2,2.8-3.2,2.5-4.9c0-0.2-0.2-0.5-0.4-0.8
			C433.4,354.2,433.7,351.6,433.6,351.6L433.6,351.6L433.6,351.6z M357.9,295.5c0.5,0.6,2.2,2.7,2.2,2.7c-0.8-0.3-2-1.4-3-2.3V295
			l0.5-0.5C357.6,294.9,357.7,295.2,357.9,295.5z M357.1,302.6v-0.7c1.1,0.8,2.3,1.5,3.2,2c0,0,0,0.1,0.1,0.1L357.1,302.6z
			 M398.4,392c0.1,1.6,2.1,16.7,2.4,21.8c0.4,5.1-1.3,17-1.3,17s-1.5-4.4-2.2-5.6s-4.4-22.1-5.3-25.1c-0.9-3.1-4.7-9.1-4.8-11.1
			c0-0.6,0.3-2.9,0.9-6c2.9,0.3,5.8,0.4,8.8,0.4C397.2,385.2,398.3,390.6,398.4,392z"/>
	</g>
	<g id="stars">
		<path id="star1" class="st3" d="M510.9,32.3l-3.8,1.1l3.8,1.1c1.5,0.5,2.7,1.6,3.2,3.2l1.1,3.8l1.1-3.8
			c0.5-1.5,1.6-2.7,3.2-3.2l3.8-1.1l-3.8-1.1c-1.5-0.5-2.7-1.6-3.2-3.2l-1.1-3.8l-1.1,3.8C513.6,30.7,512.4,31.9,510.9,32.3z"/>
		<path id="star2" class="st3" d="M736,189.1l-3.8,1.1l3.8,1.1c1.5,0.5,2.7,1.6,3.2,3.2l1.1,3.8l1.1-3.8
			c0.5-1.5,1.6-2.7,3.2-3.2l3.8-1.1l-3.8-1.1c-1.5-0.5-2.7-1.6-3.2-3.2l-1.1-3.8l-1.1,3.8C738.7,187.4,737.5,188.6,736,189.1z"/>
		<path id="star3" class="st3" d="M104.5,201.7l-3.8,1.1l3.8,1.1c1.5,0.5,2.7,1.6,3.2,3.2l1.1,3.8l1.1-3.8
			c0.5-1.5,1.6-2.7,3.2-3.2l3.8-1.1l-3.8-1.1c-1.5-0.5-2.7-1.6-3.2-3.2l-1.1-3.8l-1.1,3.8C107.2,200,106,201.2,104.5,201.7z"/>
	</g>
	<g>
		<g id="d_line1">
			<line class="st5" x1="114.6" y1="326.8" x2="114.6" y2="324.3"/>
			<path class="st6" d="M114.6,319.1v-24c0-8.3,6.7-14.9,14.9-14.9h72.4c8.3,0,14.9-6.7,14.9-14.9V207"/>
			<line class="st5" x1="216.9" y1="204.4" x2="216.9" y2="201.8"/>
		</g>
		<path id="d_line2" class="st7" d="M252.6,184.1h34.7c8.2,0,14.8-6.6,14.8-14.8V88.9c0-8.2,6.6-14.8,14.8-14.8h23.5"/>
		<path id="d_line3" class="st7" d="M457.9,91.1h69.2c8.2,0,14.8,6.6,14.8,14.8v17.9"/>
		<path id="d_line4" class="st7" d="M557.9,180.1v16.1c0,8.2,6.6,14.8,14.8,14.8h72.9"/>
		<path id="d_line5" class="st7" d="M687.9,232.3v98c0,8.2,6.6,14.8,14.8,14.8h36.6"/>
	</g>
	<linearGradient id="SVGID_2_" gradientUnits="userSpaceOnUse" x1="435.9893" y1="693.4266" x2="435.9893" y2="447.2265">
		<stop  offset="0" style="stop-color:#F9D45F;stop-opacity:0"/>
		<stop  offset="1" style="stop-color:#F9D45F"/>
	</linearGradient>
	<path class="st8" d="M436,693.4c136,0,246.2-110.2,246.2-246.2H189.8C189.8,583.2,300,693.4,436,693.4z"/>
	
		<linearGradient id="SVGID_3_" gradientUnits="userSpaceOnUse" x1="436.5893" y1="-247.4855" x2="436.5893" y2="17.7189" gradientTransform="matrix(1 0 0 -1 0 459.6574)">
		<stop  offset="0" style="stop-color:#FFFFFF"/>
		<stop  offset="1" style="stop-color:#FFFFFF;stop-opacity:0"/>
	</linearGradient>
	<path class="st9" d="M436.6,694.4c136,0,246.2-110.2,246.2-246.2H190.4C190.4,584.2,300.6,694.4,436.6,694.4z"/>
	<g>
		<linearGradient id="SVGID_4_" gradientUnits="userSpaceOnUse" x1="483.8893" y1="629.3359" x2="483.8893" y2="439.5008">
			<stop  offset="0" style="stop-color:#656BC1;stop-opacity:0.1"/>
			<stop  offset="1" style="stop-color:#656BC1"/>
		</linearGradient>
		<path class="st10" d="M527.8,448.1c-0.1,0-0.2-0.1-0.2-0.1h-19.1c-0.6,0-1.2-0.1-1.7-0.3c-1.9,0.1-3.8,0.4-5.7,0.4
			c-0.3,0.5-0.5,1.1-0.6,1.7l-7.3,37.1c-0.4,2.4,0.5,4.6,2.3,5.7l4.6,3c0.6,0.4,1.3,0.7,2.1,0.8l0.6,0.1l-4.2,20.7l-1.6-0.2
			c-0.1,0-0.1,0-0.2,0c-0.8,0-1.4,0.6-1.5,1.3c-0.1,0.9,0.5,1.6,1.3,1.7h0.3c0.1,0.9,0.3,2.4,0.7,3.6c0.4,1.2,0.3,2.4,0.1,3.2
			c-2.1,4-9.1,17.4-9.5,19.7c-0.3,1.8-1.3,6.6-2,9.8l-2.1-0.8l-0.5,1.7c0,0,0-0.4-0.1-1c-0.5-3.6-2.5-16.6-3.4-22.8
			c-0.4,0-0.7-0.1-1.1-0.1c0.2-6,0.9-29.4,1.1-36.1c-1.2-0.3-2.2-0.7-3.2-0.9c-0.2-1.5-0.2-4.2,0.8-7.7c1.7-5.7-0.5-17.7-0.5-17.7
			s-0.3-12.8-0.9-17.1c0.4-2.3,0.9-6.6,0.5-6.6c-0.3,0-0.8-0.9-1.2-1.7c-0.3,0-0.7,0.1-1,0.1c0,0,0,0,0,0c0,0,0,0-0.1,0
			c-3.1,0.4-6.3,0.6-9.4,1c1.4,1.6,3.1,3,4,3.9c1.7,1.8,3,4.7,3,4.7c-0.7,6.3-3.7,35.1-3.7,35.1s-0.8,3.9-0.3,5.7
			c-2.1,0.5-2.7,1.5-2.7,1.5l-2.4,13.8c0,0-0.9-11.7-1.5-14.1c-0.2-0.1-0.4-0.1-0.6-0.2V492l0.1-2.3c2.8-5.9,2.1-15.8,2.1-15.8
			l0.6-17.6c0,0,1.5-2.9,1.7-7.5c-2.4-1.5-5.8-2-6.4-2.1c-0.6-0.1-7.8-3.8-12.6-1.8c0.2,2,0.6,4.8,3,4.9c2.4,0.1,6.5,2.8,6.5,2.8
			l3.7,4.8c0,2.4-2.8,10.5-4.9,18c-2.1,7.4-2.5,15.4-2.5,15.4l-0.7,2c-0.2,0.8-0.3,1.7-0.2,2.5l0.3,2.1c-1,0.6-1.7,1.5-1.9,2.9
			c-2.2,20.3,2,35.7,2,35.7c-0.7,0.2-1.1,0.3-1.1,0.3s1.6,18.8,2.1,25.2c-0.5,0.1-0.9,0.3-1.4,0.4c-0.6-3.1-1.8-8.6-2.1-10.5
			c-0.5-2.7-13.6-17.4-13.6-17.4s0,0.1-0.1,0.1c0,0.1-0.1,0.1-0.2,0.2c0,0.1-0.2,0.2-0.3,0.3c-0.1,0.1-0.3,0.3-0.5,0.4
			c-0.2,0.1-0.4,0.3-0.7,0.5c-0.2,0.2-0.5,0.4-0.9,0.7c6.3,16.5,9.9,19.1,9.9,19.1l1.9,9.4c-2.2,1.4-1.8,2.4-1.8,2.4l6.8,18.3
			l8.2,3.3l-0.4,5.3l2-0.6l1.9,0.2c-2.5,2.1-5.4,5.7-5.4,11c0,3.4,0,6.1,0.2,8.1c-3.9,1.6-6.3,3.5-6,5.1c0.2,1.5,2.6,2.5,6.2,2.9
			l3.1,8.4c12.7,1.4,18.5-2.9,18.5-2.9v-4c0,0,0-0.1-0.1-4.3c4.7-1.6,7.7-3.8,7.4-5.6c-0.3-1.7-3.3-2.7-7.8-3c0,0,2,0,0.7-3.7
			c-1.3-3.6-1.8-6.2-3.5-5.1c-0.6-1.4-1.5-3.8-2.9-5.9l1.3,0.1h2.8l1-5.1c0,0,2.3-1.1,6.2-3.7c6.9-3.9,10.4-19.8,12.3-25.8l-2.1-0.8
			l1.6-8.3c0,0,0.7-1.8,1.7-6.1c0.8-3.6,1.8-8.9,4.7-16.4l5-6.7l2.2,0.3c0.8,0.1,1.6-0.5,1.7-1.3c0.1-0.9-0.5-1.6-1.3-1.7h-0.3
			l4.2-20.7l8,1.1c3,0.4,6-1.8,6.6-5l7.3-37.1c0.5-2.4-0.5-4.6-2.3-6.3L527.8,448.1z M507.3,518.9l-1-0.1c-0.4-0.7-0.8-1.3-1.3-1.6
			c-0.9-0.5-3.4-0.3-4.6-0.1l4.1-19.8l7,0.9L507.3,518.9z"/>
		<linearGradient id="SVGID_5_" gradientUnits="userSpaceOnUse" x1="499.6751" y1="629.3359" x2="499.6751" y2="439.5008">
			<stop  offset="0" style="stop-color:#656BC1;stop-opacity:0.1"/>
			<stop  offset="1" style="stop-color:#656BC1"/>
		</linearGradient>
		<path class="st11" d="M499.6,495.7l0.1,0.1C499.6,495.8,499.6,495.7,499.6,495.7z"/>
		<linearGradient id="SVGID_6_" gradientUnits="userSpaceOnUse" x1="497.8474" y1="629.3359" x2="497.8474" y2="439.5008">
			<stop  offset="0" style="stop-color:#656BC1;stop-opacity:0.1"/>
			<stop  offset="1" style="stop-color:#656BC1"/>
		</linearGradient>
		<path class="st12" d="M497.8,491.3c0,0.1,0,0.1,0,0.2C497.8,491.4,497.9,491.4,497.8,491.3z"/>
		<linearGradient id="SVGID_7_" gradientUnits="userSpaceOnUse" x1="499.0876" y1="629.3359" x2="499.0876" y2="439.5008">
			<stop  offset="0" style="stop-color:#656BC1;stop-opacity:0.1"/>
			<stop  offset="1" style="stop-color:#656BC1"/>
		</linearGradient>
		<path class="st13" d="M499.1,495.2C499,495.1,499,495.2,499.1,495.2C499,495.2,499,495.1,499.1,495.2z"/>
		<linearGradient id="SVGID_8_" gradientUnits="userSpaceOnUse" x1="498.5751" y1="629.3359" x2="498.5751" y2="439.5008">
			<stop  offset="0" style="stop-color:#656BC1;stop-opacity:0.1"/>
			<stop  offset="1" style="stop-color:#656BC1"/>
		</linearGradient>
		<path class="st14" d="M498.5,494.4c0,0.1,0.1,0.2,0.1,0.2S498.6,494.5,498.5,494.4z"/>
		<linearGradient id="SVGID_9_" gradientUnits="userSpaceOnUse" x1="498.2251" y1="493.7556" x2="498.2251" y2="493.7556">
			<stop  offset="0" style="stop-color:#656BC1;stop-opacity:0.1"/>
			<stop  offset="1" style="stop-color:#656BC1"/>
		</linearGradient>
		<path class="st15" d="M498.2,493.8L498.2,493.8L498.2,493.8z"/>
		<linearGradient id="SVGID_10_" gradientUnits="userSpaceOnUse" x1="498.0251" y1="629.3359" x2="498.0251" y2="439.5008">
			<stop  offset="0" style="stop-color:#656BC1;stop-opacity:0.1"/>
			<stop  offset="1" style="stop-color:#656BC1"/>
		</linearGradient>
		<path class="st16" d="M498,492.9c0,0.1,0,0.1,0,0.2C498,493.1,498,493,498,492.9z"/>
		<linearGradient id="SVGID_11_" gradientUnits="userSpaceOnUse" x1="497.9251" y1="492.1556" x2="497.9251" y2="492.1556">
			<stop  offset="0" style="stop-color:#656BC1;stop-opacity:0.1"/>
			<stop  offset="1" style="stop-color:#656BC1"/>
		</linearGradient>
		<path class="st17" d="M497.9,492.2L497.9,492.2L497.9,492.2z"/>
		<linearGradient id="SVGID_12_" gradientUnits="userSpaceOnUse" x1="532.1251" y1="629.3359" x2="532.1251" y2="439.5008">
			<stop  offset="0" style="stop-color:#656BC1;stop-opacity:0.1"/>
			<stop  offset="1" style="stop-color:#656BC1"/>
		</linearGradient>
		<path class="st18" d="M532.2,451.5c-0.1,0-0.1-0.1-0.2-0.1C532,451.4,532.1,451.5,532.2,451.5z"/>
		<linearGradient id="SVGID_13_" gradientUnits="userSpaceOnUse" x1="531.1251" y1="629.3359" x2="531.1251" y2="439.5008">
			<stop  offset="0" style="stop-color:#656BC1;stop-opacity:0.1"/>
			<stop  offset="1" style="stop-color:#656BC1"/>
		</linearGradient>
		<path class="st19" d="M531.2,451.1c-0.1-0.1-0.1-0.1-0.2-0.1C531,451,531.1,451.1,531.2,451.1z"/>
		<linearGradient id="SVGID_14_" gradientUnits="userSpaceOnUse" x1="531.6251" y1="629.3359" x2="531.6251" y2="439.5008">
			<stop  offset="0" style="stop-color:#656BC1;stop-opacity:0.1"/>
			<stop  offset="1" style="stop-color:#656BC1"/>
		</linearGradient>
		<path class="st20" d="M531.7,451.3c-0.1,0-0.1-0.1-0.2-0.1C531.5,451.2,531.6,451.3,531.7,451.3z"/>
		<linearGradient id="SVGID_15_" gradientUnits="userSpaceOnUse" x1="392.8846" y1="626.2078" x2="392.8846" y2="443.6556">
			<stop  offset="0" style="stop-color:#656BC1;stop-opacity:0.1"/>
			<stop  offset="1" style="stop-color:#656BC1"/>
		</linearGradient>
		<path class="st21" d="M435.6,534.1L435.6,534.1c0.1,0-0.2-2.6-0.8-4.8c0.2-0.3,0.4-0.6,0.4-0.8c0.3-1.7-0.6-5.1-2.5-4.9l0,0
			c-0.8-1.1-1.8-2-2.1-1.9c-0.7,0.2-3.9,2.2-5,5.3c-0.2,0.7,0,1.6,0.5,2.5c-0.4,2-0.9,4-0.9,4s-9.9,20.7-11.4,24.2
			c-1.1,2.7-6.9,11.8-9.7,17.5c-1.4-3-2.8-5.3-2.9-5.7c-0.1-0.9-0.4-7.7,0.6-8.8c1-1.1,6.8-13.4,7.4-17.9c0.6-4.5,4.6-21.9,8.3-36.6
			c-2.4-1.4-5.3-2.3-8.4-2.9c-0.1-4-0.2-7.3-0.2-8c0-2.3,1-7.2,0.9-9.3c-0.1-2-1.4-18.5-1.8-24.7c-0.3-6.2,0.5-8.5,1-11.5
			s-5.3-4.8-5.3-4.8s-6.7-1.3-9.2-1.3s-2.1,2-2.1,2s-4.2-0.6-5.4-1c-1.2-0.4,0,0-1.1,1.3c-0.3,1.3,7.5,8.9,8.6,11.5
			c0,3.5-4.9,14-4.7,15.1s-9.9,19.5-10.1,22.8c0,1.1,0.1,4.6,0.3,8.9c-3.4,0.6-6.3,1.3-8,1.9c4.2,7.9,13.8,58.2,12.5,62.1
			c-0.4,1.2-0.9,2.2-1.3,3.1c-1.7-3.8-5.5-10.4-8.4-12.9c-4.9-0.2-7.4,7.1-7.7,8c-0.2,0.8-2.8,10.9-4.4,14.5h-9.8l5.3,2.2v1.2
			c-1,0.8-1.8,1.6-2.3,2.3c-1.1,1.7,1,5.2,1,5.2s0.6-0.6,1.3-1.4v0.2l-8.1,7.9h9.8l1.1,3.7l-7.2,2.6l9.1,0.3l6.8-6.1l-7.9,2.9
			l-1-3.5h6.3l-6.8-6.7c0.2-0.1,0.5-0.3,0.8-0.7c1-1.1,4.1-2,3.9-6.5c0.6-2.9,6.9-14.9,8.2-18.1c2.8,8.7,8.9,22.8,8.9,22.8
			s0,0,0-0.1c0.8,2,3,3.3,5,4c0.1,0.1,2.6,3.1,3.4,8.4c-5.4,0.2-9.1,1-9.1,1c3.3,0.7,2.9,4.2,2.2,7.5c-1.7,15.1,9.4,16.2,12.7,16
			c10.8,1.7,10.6-11.4,10.6-11.4l-1.6-0.5c0.2-1.6,0.2-3.8,0.2-6.6c0-7.5-7.2-10.9-7.2-10.9c-0.1-0.1-0.3-0.2-0.5-0.2
			c0.1-0.9,0.3-1.9,0.7-2.6c0.2,0,0.3-0.1,0.5-0.1c4-0.9,6.4-3.1,7.4-4.4c0.3-0.3,0.5-0.7,0.6-1.1l0,0c0,0,4.9-8.3,12.5-25.9
			c1.9-3.5,9.6-26.4,9.6-26.4c0.3-0.4,0.9-0.9,1.6-1.6c1.2,1.1,2.2,1.9,2.2,1.9l0.9-0.7l0.7-0.5l0.5-0.4l0.3-0.3l0.2-0.2
			L435.6,534.1L435.6,534.1z M359.6,591.2l-0.5-0.5v-0.9c1-0.9,2.2-2,3-2.3c0,0-1.7,2.1-2.2,2.7
			C359.7,590.5,359.6,590.8,359.6,591.2z M362.4,581.7c-0.1,0-0.1,0.1-0.1,0.1c-0.9,0.5-2.1,1.2-3.2,2v-0.7L362.4,581.7z
			 M398.9,502.3c-3,0-5.9,0.1-8.8,0.4c-0.6-3.1-0.9-5.4-0.9-6c0.1-2,3.9-8,4.8-11.1c0.9-3,4.6-23.9,5.3-25.1s2.2-5.6,2.2-5.6
			s1.7,11.9,1.3,17c-0.3,5.1-2.3,20.2-2.4,21.8C400.3,495.1,399.2,500.5,398.9,502.3z"/>
	</g>
	<path class="st22" d="M166.6,286.2h-7.5c-1.1-4.9-5.5-8.6-10.8-8.6l0,0c-0.9-4.3-4.7-7.4-9.2-7.4c-1.4,0-2.8,0.3-4,0.9
		c-1.9-4.7-6.6-8-12-8c-7.2,0-13,5.8-13,13v0.1c-0.4-0.1-0.8-0.1-1.2-0.1c-5.2,0-9.4,4.2-9.4,9.4c0,0.3,0,0.6,0,0.8h-0.2
		c-6.9,0-12.5,5.6-12.5,12.5l0,0H179l0,0C179.1,291.8,173.5,286.2,166.6,286.2z M131.9,285.6c0.2,0.2,0.4,0.4,0.6,0.6h-1.4
		C131.4,286,131.6,285.8,131.9,285.6z"/>
	<path class="st4" d="M159.9,289.1h-7.5c-1.1-4.9-5.5-8.6-10.8-8.6l0,0c-0.9-4.3-4.7-7.4-9.2-7.4c-1.4,0-2.8,0.3-4,0.9
		c-1.9-4.7-6.6-8-12-8c-7.2,0-13,5.8-13,13v0.1c-0.4-0.1-0.8-0.1-1.2-0.1c-5.2,0-9.4,4.2-9.4,9.4c0,0.3,0,0.6,0,0.8h-0.2
		c-6.9,0-12.5,5.6-12.5,12.5l0,0h92.2l0,0C172.4,294.7,166.8,289.1,159.9,289.1z M125.2,288.4c0.2,0.2,0.4,0.4,0.6,0.6h-1.4
		C124.7,288.9,124.9,288.7,125.2,288.4z"/>
	<path class="st22" d="M334,122.8h-10.1c-1.5-6.6-7.4-11.6-14.5-11.6l0,0c-1.2-5.7-6.3-10-12.3-10c-1.9,0-3.7,0.4-5.3,1.2
		c-2.6-6.3-8.8-10.8-16.1-10.8c-9.6,0-17.4,7.8-17.4,17.4v0.1c-0.5-0.1-1.1-0.1-1.6-0.1c-7,0-12.6,5.6-12.6,12.6
		c0,0.4,0,0.8,0.1,1.1h-0.3c-9.3,0-16.8,7.5-16.8,16.8l0,0h124l0,0C350.9,130.3,343.3,122.8,334,122.8z M287.4,121.9
		c0.3,0.3,0.5,0.6,0.8,0.9h-1.8C286.7,122.5,287,122.2,287.4,121.9z"/>
	<path class="st4" d="M327.3,125.6h-10.1c-1.5-6.6-7.4-11.6-14.5-11.6l0,0c-1.2-5.7-6.3-10-12.3-10c-1.9,0-3.7,0.4-5.3,1.2
		c-2.6-6.3-8.8-10.8-16.1-10.8c-9.6,0-17.4,7.8-17.4,17.4v0.1c-0.5-0.1-1.1-0.1-1.6-0.1c-7,0-12.6,5.6-12.6,12.6
		c0,0.4,0,0.8,0.1,1.1h-0.3c-9.3,0-16.8,7.5-16.8,16.8l0,0h124l0,0C344.2,133.2,336.6,125.6,327.3,125.6z M280.7,124.8
		c0.3,0.3,0.5,0.6,0.8,0.9h-1.8C280,125.4,280.3,125.1,280.7,124.8z"/>
	<path class="st22" d="M763.4,293.2h-9.5c-1.4-6.3-7-11-13.8-11l0,0c-1.1-5.4-5.9-9.5-11.7-9.5c-1.8,0-3.5,0.4-5,1.1
		c-2.5-6-8.4-10.2-15.3-10.2c-9.1,0-16.5,7.4-16.5,16.5v0.1c-0.5-0.1-1-0.1-1.5-0.1c-6.6,0-12,5.4-12,12c0,0.4,0,0.7,0.1,1.1h-0.3
		c-8.8,0-16,7.2-16,16l0,0h117.5l0,0C779.3,300.4,772.2,293.2,763.4,293.2z M719.1,292.4c0.2,0.3,0.5,0.6,0.8,0.8h-1.7
		C718.5,292.9,718.8,292.7,719.1,292.4z"/>
	<path class="st4" d="M756.7,296.1h-9.5c-1.4-6.3-7-11-13.8-11l0,0c-1.1-5.4-5.9-9.5-11.7-9.5c-1.8,0-3.5,0.4-5,1.1
		c-2.5-6-8.4-10.2-15.3-10.2c-9.1,0-16.5,7.4-16.5,16.5v0.1c-0.5-0.1-1-0.1-1.5-0.1c-6.6,0-12,5.4-12,12c0,0.4,0,0.7,0.1,1.1h-0.3
		c-8.8,0-16,7.2-16,16l0,0h117.5l0,0C772.6,303.2,765.5,296.1,756.7,296.1z M712.5,295.3c0.2,0.3,0.5,0.6,0.8,0.8h-1.7
		C711.8,295.8,712.1,295.5,712.5,295.3z"/>
	<path class="st22" d="M574.1,94.5h-8c-1.2-5.2-5.9-9.2-11.5-9.2l0,0c-1-4.5-5-7.9-9.8-7.9c-1.5,0-2.9,0.3-4.2,0.9
		c-2.1-5-7-8.5-12.8-8.5c-7.6,0-13.8,6.2-13.8,13.8v0.1c-0.4-0.1-0.9-0.1-1.3-0.1c-5.5,0-10,4.5-10,10c0,0.3,0,0.6,0,0.9h-0.2
		c-7.4,0-13.4,6-13.4,13.4l0,0h98.3l0,0C587.5,100.5,581.5,94.5,574.1,94.5z M537.2,93.8c0.2,0.2,0.4,0.5,0.6,0.7h-1.5
		C536.6,94.3,536.9,94.1,537.2,93.8z"/>
	<path class="st4" d="M567.4,97.4h-8c-1.2-5.2-5.9-9.2-11.5-9.2l0,0c-1-4.5-5-7.9-9.8-7.9c-1.5,0-2.9,0.3-4.2,0.9
		c-2.1-5-7-8.5-12.8-8.5c-7.6,0-13.8,6.2-13.8,13.8v0.1c-0.4-0.1-0.9-0.1-1.3-0.1c-5.5,0-10,4.5-10,10c0,0.3,0,0.6,0,0.9h-0.2
		c-7.4,0-13.4,6-13.4,13.4l0,0h98.3l0,0C580.8,103.4,574.8,97.4,567.4,97.4z M530.5,96.7c0.2,0.2,0.4,0.5,0.6,0.7h-1.5
		C529.9,97.2,530.2,96.9,530.5,96.7z"/>
	<g>
		<circle class="st4" cx="290.2" cy="53.7" r="4.2"/>
		<circle class="st4" cx="179.3" cy="314.6" r="4.2"/>
		<circle class="st4" cx="695.4" cy="334.2" r="4.2"/>
	</g>
	<g>
		<circle id="XMLID_17_" class="st23" cx="783.7" cy="219.4" r="1.8"/>
		<circle id="XMLID_16_" class="st23" cx="64.8" cy="236.5" r="1.8"/>
		<circle id="XMLID_15_" class="st23" cx="203.7" cy="74.1" r="1.8"/>
		<circle id="XMLID_14_" class="st23" cx="824.7" cy="410.7" r="1.8"/>
		<circle id="XMLID_13_" class="st24" cx="325.1" cy="8.5" r="2.4"/>
		<circle id="XMLID_12_" class="st23" cx="344" cy="166.5" r="1.8"/>
	</g>
</g>
<g id="bell">
	<path class="st25" d="M249.4,192.6h-1.8c-0.3-6.9-3.1-13.3-8-18.1c-4.9-4.9-11.4-7.7-18.3-8h-2.4c-6.8,0.3-13.2,3.1-18,8
		c-4.9,4.9-7.7,11.3-8,18.1H191c-0.7,0-1.2,0.5-1.2,1.2v4.6c0,0.7,0.5,1.2,1.2,1.2h58.4c0.7,0,1.2-0.5,1.2-1.2v-4.6
		C250.6,193.1,250.1,192.6,249.4,192.6L249.4,192.6z"/>
	<path class="st25" d="M215.6,161.8c0-2.8,2.2-5,5-5c2.8,0,5,2.2,5,5H215.6z"/>
	<g>
		<g>
			<path class="st4" d="M207.5,176.9c0,0,0-0.5,0.3-1.2c0.2-0.3,0.4-0.7,0.7-1c0.3-0.3,0.7-0.6,1.1-0.8c0.4-0.2,0.8-0.4,1.3-0.4
				c0.4-0.1,0.8-0.1,1.2-0.1c0.7,0.1,1.2,0.3,1.2,0.3s-0.1,0.1-0.2,0.3c-0.1,0.2-0.4,0.3-0.6,0.5c-0.5,0.4-1.1,0.8-1.8,1.2
				c-0.7,0.3-1.3,0.6-2,0.8C208,176.8,207.5,176.9,207.5,176.9z"/>
		</g>
		<g>
			<path class="st4" d="M201.6,189.5c0,0-0.1-0.2-0.2-0.5c-0.1-0.3-0.2-0.8-0.3-1.4c-0.1-1.2,0.2-2.7,0.8-4.1c0.2-0.3,0.3-0.7,0.5-1
				c0.2-0.3,0.4-0.6,0.6-0.9c0.4-0.6,0.9-1.1,1.3-1.4c0.4-0.4,0.8-0.7,1.1-0.8c0.3-0.2,0.5-0.3,0.5-0.3s0,0.2-0.1,0.5
				c-0.1,0.3-0.3,0.7-0.5,1.3c-0.2,0.5-0.4,1.1-0.7,1.7c-0.3,0.6-0.5,1.2-0.8,1.8c-0.2,0.3-0.3,0.6-0.4,0.9
				c-0.1,0.3-0.3,0.6-0.4,0.9c-0.3,0.6-0.5,1.1-0.7,1.6C201.9,188.7,201.6,189.5,201.6,189.5z"/>
		</g>
	</g>
	<g>
		<g>
			<path class="st26" d="M251.6,194.4c0.8,0.1,1.3,0.8,1.4,1.5c0.1,0.7-0.1,1.4-0.1,2.1l-0.3,2.1l-0.1,1c0,0.4-0.3,0.8-0.6,1
				c-0.7,0.5-1.5,0.3-2.2,0.3c-0.7,0-1.4,0-2.1-0.1l-4.2,0l-16.8,0.2l-16.8,0.3c-2.8,0-5.6,0-8.4,0l-8.4-0.1l0.1,0
				c-0.3,0-0.4,0-0.7,0c-0.2-0.1-0.4-0.1-0.6-0.2c-0.4-0.2-0.7-0.6-0.8-1c-0.2-0.4-0.2-0.7-0.2-1.1c0-0.3,0-0.6,0-1
				c0-1.3,0.1-2.5,0.2-3.8l0-0.1l0,0c0.2-0.3,0.4-0.6,0.7-0.8c0.2-0.2,0.5-0.4,0.8-0.6c0.3-0.2,0.7-0.2,1-0.2c0.2,0,0.3,0,0.5,0.1
				c0.2,0,0.3,0.1,0.5,0.2l-0.1,0.1c-0.2,0-0.3-0.1-0.5-0.1c-0.2,0-0.3,0-0.5,0c-0.1,0-0.3,0.1-0.4,0.1c-0.1,0-0.3,0.1-0.4,0.2
				c-0.3,0.2-0.5,0.4-0.7,0.6c-0.2,0.2-0.4,0.5-0.5,0.7l0-0.1c0,1.2,0,2.5,0.1,3.7c0,0.3,0.1,0.6,0.1,0.9c0,0.3,0.1,0.5,0.2,0.7
				c0.1,0.2,0.3,0.3,0.4,0.4c0.1,0,0.2,0.1,0.3,0.1c0.1,0,0.2,0,0.3,0l0,0l0.1,0l8.4-0.2c2.8,0,5.6-0.1,8.4,0l16.8,0.2
				c5.6,0.1,11.2,0.1,16.8,0.2l4.2,0.1c0.7,0,1.4,0,2.1,0.1c0.7,0.1,1.4,0.2,1.9-0.1c0.2-0.2,0.4-0.4,0.5-0.7l0.2-1l0.3-2.1
				c0.1-0.7,0.3-1.4,0.2-2c-0.1-0.7-0.5-1.3-1.2-1.4L251.6,194.4z"/>
		</g>
		<g>
			<path class="st26" d="M249,195.3c0,0-3.4,0.1-8.4,0.2c-5,0.1-11.8,0.2-18.5,0.3c-3.4,0.1-6.7,0.2-9.9,0.2c-1.6,0-3.1,0-4.5-0.1
				c-1.4,0-2.8-0.1-4.1-0.1c-1.3,0-2.4-0.1-3.4-0.2c-1,0-1.9-0.1-2.7-0.2c-1.5-0.1-2.3-0.2-2.3-0.2v-0.1c0,0,0.8-0.1,2.3-0.2
				c0.7-0.1,1.6-0.1,2.7-0.2c1,0,2.2-0.1,3.4-0.2c1.3-0.1,2.6-0.1,4.1-0.1c1.4,0,3,0,4.5-0.1c3.2,0,6.5,0.1,9.9,0.2
				c6.7,0.1,13.4,0.2,18.5,0.3c5,0.1,8.4,0.2,8.4,0.2V195.3z"/>
		</g>
		<g>
			<path class="st26" d="M194.8,195.2c0-1.8,0.1-3.6,0.5-5.4c0.3-1.8,0.8-3.6,1.4-5.3c0.3-0.8,0.8-1.6,1.2-2.5
				c0.5-0.8,0.9-1.6,1.4-2.3c0.5-0.8,1.1-1.5,1.7-2.2c0.3-0.4,0.6-0.7,0.9-1c0.3-0.3,0.6-0.7,1-1c0.7-0.6,1.4-1.2,2.1-1.8
				c0.7-0.5,1.5-1.1,2.3-1.6c0.8-0.5,1.6-0.9,2.4-1.4c0.8-0.4,1.7-0.8,2.5-1.1c0.9-0.3,1.7-0.6,2.6-0.9c0.9-0.3,1.8-0.5,2.7-0.7
				c0.9-0.2,1.8-0.3,2.7-0.5c0.9-0.1,1.8-0.2,2.7-0.3l0,0l0,0c0.9,0,1.8,0.1,2.7,0.2c0.9,0.1,1.7,0.3,2.6,0.5
				c1.7,0.4,3.4,0.9,5.1,1.5c1.6,0.6,3.2,1.4,4.7,2.4c0.7,0.5,1.5,1,2.2,1.5c0.7,0.5,1.4,1.1,2,1.7l0.9,0.9l0.9,1
				c0.6,0.7,1.1,1.4,1.6,2.1c0.5,0.7,0.9,1.5,1.4,2.3c0.4,0.8,0.8,1.6,1.1,2.4c0.4,0.8,0.6,1.7,0.8,2.5c0.2,0.8,0.4,1.7,0.5,2.6
				c0.2,0.9,0.2,1.7,0.3,2.6c0.1,0.9,0.1,1.7,0.1,2.6l-0.1-0.1l1.3,0l-1.3,0.2l-0.1,0l0-0.1l-0.5-2.5c-0.2-0.8-0.4-1.7-0.7-2.5
				c-0.3-0.8-0.5-1.6-0.8-2.4c-0.2-0.4-0.3-0.8-0.5-1.2c-0.2-0.4-0.4-0.8-0.5-1.2c-0.3-0.8-0.7-1.5-1.1-2.3
				c-0.4-0.7-0.8-1.5-1.3-2.1c-0.4-0.7-1-1.4-1.5-2l-0.8-0.9l-0.9-0.9c-0.6-0.6-1.2-1.1-1.9-1.6c-0.7-0.5-1.3-1-2-1.4
				c-1.4-0.9-2.9-1.6-4.5-2.3c-1.6-0.6-3.2-1.1-4.8-1.5c-0.8-0.2-1.7-0.3-2.5-0.4c-0.8-0.1-1.7-0.2-2.5-0.2l0.1,0
				c-0.9,0.1-1.7,0.2-2.6,0.3c-0.9,0.2-1.7,0.3-2.6,0.5c-0.9,0.2-1.7,0.4-2.5,0.6c-0.8,0.2-1.7,0.5-2.5,0.8c-0.8,0.3-1.6,0.7-2.4,1
				c-0.8,0.4-1.5,0.8-2.3,1.3c-0.8,0.4-1.4,1-2.1,1.5c-0.7,0.5-1.3,1.1-2,1.7c-0.3,0.3-0.6,0.6-0.9,0.9c-0.3,0.3-0.6,0.6-0.9,1
				c-0.6,0.7-1.1,1.4-1.6,2.1c-0.5,0.7-0.9,1.5-1.4,2.2l-0.6,1.2c-0.2,0.4-0.3,0.8-0.6,1.2c-0.4,0.8-0.8,1.6-1.1,2.4
				c-0.3,0.8-0.7,1.6-0.9,2.5c-0.3,0.8-0.5,1.7-0.7,2.6C195.1,193.5,194.9,194.3,194.8,195.2z"/>
		</g>
		<g>
			<polygon class="st26" points="223.2,163.9 222.9,168.1 221.7,164.1 			"/>
		</g>
		<g>
			<path class="st26" d="M218.6,163.8c0.7-0.2,1.4-0.4,2.2-0.6c0.4-0.1,0.7-0.2,1.1-0.2c0.4,0,0.7,0,1.1,0l4.3-0.1l-0.7,0.8
				c0-0.2-0.1-0.5-0.1-0.8c-0.1-0.3-0.1-0.5-0.2-0.8c-0.1-0.3-0.2-0.5-0.4-0.7c-0.1-0.2-0.3-0.4-0.5-0.6c-0.2-0.2-0.4-0.3-0.6-0.5
				c-0.2-0.1-0.4-0.3-0.7-0.3c-0.2-0.1-0.5-0.1-0.8-0.2c-0.2,0-0.6,0-0.8-0.1c-0.3,0-0.7,0-0.9,0.1c-0.2,0.1-0.5,0.1-0.7,0.2
				c-0.2,0.1-0.5,0.2-0.7,0.3c-0.2,0.2-0.4,0.3-0.6,0.5c-0.2,0.2-0.3,0.4-0.5,0.6c-0.2,0.2-0.4,0.4-0.5,0.7c-0.3,0.5-0.6,1-0.8,1.7
				c-0.2-0.6-0.2-1.3-0.1-2c0-0.3,0.1-0.7,0.2-1c0-0.2,0.1-0.3,0.3-0.5c0.1-0.1,0.2-0.3,0.3-0.4c0.2-0.3,0.5-0.5,0.8-0.7
				c0.3-0.2,0.6-0.4,1-0.5c0.3-0.2,0.7-0.2,1.1-0.3c0.4-0.1,0.6-0.1,1-0.1c0.4,0,0.7,0,1.1,0.1c0.4,0.1,0.7,0.1,1,0.3
				c0.3,0.1,0.7,0.3,1,0.5c0.3,0.2,0.6,0.4,0.8,0.7c0.3,0.3,0.5,0.6,0.7,0.9c0.2,0.3,0.3,0.6,0.5,1c0.1,0.3,0.2,0.7,0.3,1
				c0.1,0.3,0.1,0.7,0.1,1.1l0,0.8l-0.8,0l-4.3,0.1c-0.4,0-0.7,0-1.1,0c-0.4,0.1-0.7-0.1-1.1-0.2C220.1,164.2,219.3,164,218.6,163.8
				z"/>
		</g>
	</g>
</g>
<g id="cards">
	<g>
		<path class="st27" d="M80.7,341.1v23.4c0,2.4,2,4.4,4.4,4.4h53.5c2.4,0,4.4-2,4.4-4.4v-23.4H80.7z"/>
		<path class="st27" d="M143,335.7v-3c0-2.4-2-4.4-4.4-4.4H85.1c-2.4,0-4.4,2-4.4,4.4v3H143z"/>
	</g>
	<g>
		<g>
			<path class="st26" d="M140.9,371.4c0,0-3.1,0-8.5,0c-5.4,0-13.2,0.1-22.5,0.2c-4.6,0.1-9.7,0.1-15,0.2c-1.3,0-2.7,0-4,0
				c-0.7,0-1.4,0-2.1,0c-0.7,0-1.4,0.1-2.2-0.1c-1.6-0.2-3-1.3-3.7-2.7c-0.4-0.7-0.5-1.6-0.5-2.3c0-0.7,0-1.4,0-2.2
				c0-5.8-0.1-11.8-0.1-17.9c0-3.1,0-6.1-0.1-9.2l0-2.3c0-0.3,0-0.4,0-0.6c0-0.2,0.1-0.5,0.1-0.7c0.1-0.4,0.3-0.9,0.5-1.3
				c0.9-1.6,2.7-2.6,4.5-2.6c12.4-0.1,24.8-0.2,36.4-0.2c5.8,0,11.4,0,16.8,0.1l0.2,0l0.3,0l0.3,0l0.3,0c0.4,0.1,0.8,0.2,1.2,0.3
				c0.7,0.3,1.4,0.8,1.9,1.4c0.5,0.6,0.9,1.3,1.1,2c0.2,0.7,0.2,1.6,0.2,2.1c0,2.5-0.1,4.9-0.2,7.3c-0.1,4.6-0.2,8.9-0.3,12.7
				c-0.1,3.8-0.2,7.1-0.2,9.8c0,0.7,0,1.3,0,1.9c-0.1,0.6-0.2,1.2-0.5,1.7c-0.5,1-1.2,1.6-1.9,1.9
				C141.8,371.5,140.9,371.3,140.9,371.4z M140.9,371.2c0,0,0.8,0.1,2.1-0.6c0.6-0.3,1.3-0.9,1.7-1.9c0.2-0.5,0.4-1,0.4-1.6
				c0-0.6,0-1.2,0-1.9c0-2.7-0.1-6-0.2-9.8c-0.1-3.8-0.2-8-0.3-12.7c0-2.3-0.1-4.7-0.2-7.3c0-0.7,0-1.1-0.2-1.6
				c-0.2-0.5-0.4-0.9-0.8-1.3c-0.4-0.4-0.8-0.7-1.3-0.9c-0.2-0.1-0.5-0.2-0.7-0.2l-0.2,0l-0.2,0c-0.1,0-0.2,0-0.2,0l-0.2,0
				c-5.3,0.1-10.9,0.1-16.8,0.1c-11.6-0.1-24-0.2-36.4-0.2c-1.3,0-2.5,0.7-3.2,1.8c-0.2,0.3-0.3,0.6-0.4,0.9c0,0.2-0.1,0.3-0.1,0.4
				c0,0.1,0,0.4,0,0.5l0,2.3c0,3.1,0,6.2-0.1,9.2c0,6.1-0.1,12.1-0.1,17.9c0,0.7,0,1.4,0,2.2c0,0.7,0.1,1.3,0.4,1.8
				c0.5,1.1,1.6,2,2.8,2.2c0.6,0.1,1.3,0.1,2,0.1c0.7,0,1.4,0,2.1,0c1.4,0,2.7,0,4,0c5.3,0.1,10.4,0.1,15,0.2
				c9.3,0.1,17,0.2,22.5,0.2C137.8,371.2,140.9,371.2,140.9,371.2z"/>
		</g>
		<g>
			<path class="st26" d="M144.7,338.1c0,0-3.9,0.1-9.6,0.3c-5.8,0.2-13.5,0.3-21.2,0.5c-3.9,0.1-7.7,0.2-11.3,0.2
				c-1.8,0-3.6,0-5.2-0.1c-1.7,0-3.2-0.1-4.7-0.2c-5.8-0.3-9.6-0.7-9.6-0.7v-0.2c0,0,3.9-0.4,9.6-0.7c1.4-0.1,3-0.1,4.7-0.2
				c1.7-0.1,3.4,0,5.2-0.1c3.6,0,7.5,0.2,11.3,0.2c7.7,0.2,15.4,0.3,21.2,0.5c5.8,0.1,9.6,0.3,9.6,0.3V338.1z"/>
		</g>
		<line class="st28" x1="95.1" y1="344.1" x2="83.4" y2="344.1"/>
		<g>
			<path class="st26" d="M145,344c0,0-0.7,0.1-1.9,0.3c-0.6,0.1-1.4,0.2-2.2,0.3c-0.4,0.1-0.9,0.1-1.4,0.2c-0.5,0.1-1,0-1.5,0
				c-4.2,0-9.8,0-15.4,0c-5.6,0-11.2,0-15.4,0c-0.5,0-1,0.1-1.5,0c-0.5-0.1-0.9-0.1-1.4-0.2c-0.9-0.1-1.6-0.2-2.2-0.3
				c-1.2-0.2-1.9-0.3-1.9-0.3s0.7-0.1,1.9-0.3c0.6-0.1,1.4-0.2,2.2-0.3c0.4-0.1,0.9-0.1,1.4-0.2c0.5-0.1,1,0,1.5,0
				c4.2,0,9.8,0,15.4,0c5.6,0,11.2,0,15.4,0c0.5,0,1-0.1,1.5,0c0.5,0.1,0.9,0.1,1.4,0.2c0.9,0.1,1.6,0.2,2.2,0.3
				C144.3,343.9,145,344,145,344z"/>
		</g>
	</g>
	<path class="st29" d="M129.6,387.7H76.1c-2.4,0-4.4-1.9-4.4-4.4v-31.8c0-2.4,2-4.4,4.4-4.4h53.5c2.4,0,4.4,2,4.4,4.4v31.8
		C134,385.8,132,387.7,129.6,387.7z"/>
	<g>
		<g>
			<path class="st26" d="M132.7,390.5c0,0-3.1,0-8.5,0c-5.4,0-13.1,0.1-22.3,0.2c-4.6,0.1-9.6,0.1-14.9,0.2c-1.3,0-2.7,0-4,0
				c-0.7,0-1.4,0-2,0c-0.7,0-1.3,0.1-2.2-0.1c-1.5-0.3-2.9-1.3-3.6-2.8c-0.4-0.7-0.5-1.6-0.5-2.3c0-0.7,0-1.4,0-2.2
				c0-5.8-0.1-11.7-0.1-17.8c0-3,0-6.1-0.1-9.1l0-2.3c0-0.2,0-0.3,0-0.6c0-0.2,0.1-0.5,0.1-0.7c0.1-0.4,0.3-0.9,0.5-1.2
				c0.9-1.6,2.7-2.6,4.5-2.6c12.3-0.1,24.6-0.2,36.1-0.2c5.8,0,11.3,0,16.6,0.1c0.7,0,1.6,0.1,2.3,0.5c0.7,0.3,1.4,0.8,1.9,1.4
				c0.5,0.6,0.9,1.3,1.1,2c0.2,0.7,0.2,1.6,0.2,2.1c0,2.5-0.1,4.9-0.2,7.2c-0.1,4.6-0.2,8.8-0.3,12.6c-0.1,3.7-0.2,7-0.2,9.7
				c0,0.7,0,1.3,0,1.9c-0.1,0.6-0.2,1.2-0.5,1.7c-0.5,1-1.3,1.6-1.9,1.9C133.6,390.6,132.7,390.4,132.7,390.5z M132.7,390.3
				c0,0,0.8,0.1,2.1-0.6c0.6-0.3,1.3-0.9,1.7-1.8c0.2-0.4,0.4-1,0.4-1.5c0-0.6,0-1.2,0-1.9c0-2.7-0.1-6-0.2-9.7
				c-0.1-3.7-0.2-8-0.3-12.6c0-2.3-0.1-4.7-0.2-7.2c0-0.7,0-1.1-0.2-1.6c-0.2-0.5-0.4-0.9-0.8-1.3c-0.3-0.4-0.8-0.7-1.3-0.9
				c-0.5-0.2-0.9-0.3-1.6-0.3c-5.3,0.1-10.9,0.1-16.6,0.1c-11.5-0.1-23.8-0.2-36.1-0.2c-1.3,0-2.5,0.7-3.1,1.8
				c-0.2,0.3-0.3,0.6-0.4,0.9c0,0.2-0.1,0.3-0.1,0.4c0,0.1,0,0.4,0,0.5l0,2.3c0,3.1,0,6.1-0.1,9.1c0,6.1-0.1,12-0.1,17.8
				c0,0.7,0,1.4,0,2.2c0,0.7,0.1,1.3,0.3,1.8c0.5,1.1,1.6,2,2.8,2.2c0.6,0.1,1.3,0.1,2,0.1c0.7,0,1.4,0,2,0c1.4,0,2.7,0,4,0
				c5.3,0.1,10.3,0.1,14.9,0.2c9.2,0.1,16.9,0.2,22.3,0.2C129.7,390.3,132.7,390.3,132.7,390.3z"/>
		</g>
		<g>
			<path class="st26" d="M85.8,359.8c0,0,0.1-0.1,0.3-0.2c0.1-0.1,0.2-0.2,0.3-0.2c0.1,0,0.1-0.1,0.2-0.1c0.1,0,0.1,0,0.2,0
				c0.6,0,1.3,0,2.1,0s1.5,0,2.1,0c0.1,0,0.1,0,0.2,0c0.1,0,0.1,0.1,0.2,0.1c0.1,0.1,0.2,0.2,0.3,0.2c0.2,0.1,0.3,0.2,0.3,0.2
				s-0.1,0.1-0.3,0.2c-0.1,0.1-0.2,0.1-0.3,0.2c-0.1,0-0.1,0.1-0.2,0.1c-0.1,0.1-0.1,0-0.2,0c-0.6,0-1.3,0-2.1,0s-1.5,0-2.1,0
				c-0.1,0-0.1,0-0.2,0c-0.1,0-0.1-0.1-0.2-0.1c-0.1-0.1-0.2-0.2-0.3-0.2C85.9,359.9,85.8,359.8,85.8,359.8z"/>
		</g>
		<g>
			<path class="st26" d="M85.9,363.1c0,0,0.1-0.1,0.3-0.2c0.1-0.1,0.2-0.2,0.3-0.2c0.1,0,0.1-0.1,0.2-0.1c0.1,0,0.1,0,0.2,0
				c0.6,0,1.3,0,2.1,0c0.8,0,1.5,0,2.1,0c0.1,0,0.1,0,0.2,0c0.1,0,0.1,0.1,0.2,0.1c0.1,0.1,0.2,0.2,0.3,0.2c0.2,0.1,0.3,0.2,0.3,0.2
				s-0.1,0.1-0.3,0.2c-0.1,0.1-0.2,0.1-0.3,0.2c-0.1,0-0.1,0.1-0.2,0.1c-0.1,0.1-0.1,0-0.2,0c-0.6,0-1.3,0-2.1,0c-0.8,0-1.5,0-2.1,0
				c-0.1,0-0.1,0-0.2,0c-0.1,0-0.1-0.1-0.2-0.1c-0.1-0.1-0.2-0.2-0.3-0.2C86,363.2,85.9,363.1,85.9,363.1z"/>
		</g>
		<g>
			<path class="st26" d="M98.2,359.8c0,0,0.1-0.1,0.3-0.2c0.1-0.1,0.2-0.2,0.3-0.2c0.1,0,0.1-0.1,0.2-0.1c0.1,0,0.1,0,0.2,0
				c0.6,0,1.3,0,2.1,0c0.8,0,1.5,0,2.1,0c0.1,0,0.1,0,0.2,0c0.1,0,0.1,0.1,0.2,0.1c0.1,0.1,0.2,0.2,0.3,0.2c0.2,0.1,0.3,0.2,0.3,0.2
				s-0.1,0.1-0.3,0.2c-0.1,0.1-0.2,0.1-0.3,0.2c-0.1,0-0.1,0.1-0.2,0.1c-0.1,0.1-0.1,0-0.2,0c-0.6,0-1.3,0-2.1,0c-0.8,0-1.5,0-2.1,0
				c-0.1,0-0.1,0-0.2,0c-0.1,0-0.1-0.1-0.2-0.1c-0.1-0.1-0.2-0.2-0.3-0.2C98.3,359.9,98.2,359.8,98.2,359.8z"/>
		</g>
		<g>
			<path class="st26" d="M98.1,363.3c0,0,0.1-0.1,0.3-0.2c0.1-0.1,0.2-0.2,0.3-0.2c0.1,0,0.1-0.1,0.2-0.1c0.1,0,0.1,0,0.2,0
				c0.6,0,1.3,0,2.1,0s1.5,0,2.1,0c0.1,0,0.1,0,0.2,0c0.1,0,0.1,0.1,0.2,0.1c0.1,0.1,0.2,0.2,0.3,0.2c0.2,0.1,0.3,0.2,0.3,0.2
				s-0.1,0.1-0.3,0.2c-0.1,0.1-0.2,0.1-0.3,0.2c-0.1,0-0.1,0.1-0.2,0.1c-0.1,0.1-0.1,0-0.2,0c-0.6,0-1.3,0-2.1,0s-1.5,0-2.1,0
				c-0.1,0-0.1,0-0.2,0c-0.1,0-0.1-0.1-0.2-0.1c-0.1-0.1-0.2-0.2-0.3-0.2C98.2,363.4,98.1,363.3,98.1,363.3z"/>
		</g>
		<g>
			<path class="st26" d="M110.1,359.9c0,0,0.1-0.1,0.3-0.2c0.1-0.1,0.2-0.2,0.3-0.2c0.1,0,0.1-0.1,0.2-0.1c0.1,0,0.1,0,0.2,0
				c0.6,0,1.3,0,2.1,0c0.8,0,1.5,0,2.1,0c0.1,0,0.1,0,0.2,0c0.1,0,0.1,0.1,0.2,0.1c0.1,0.1,0.2,0.2,0.3,0.2c0.2,0.1,0.3,0.2,0.3,0.2
				s-0.1,0.1-0.3,0.2c-0.1,0.1-0.2,0.1-0.3,0.2c-0.1,0-0.1,0.1-0.2,0.1c-0.1,0.1-0.1,0-0.2,0c-0.6,0-1.3,0-2.1,0c-0.8,0-1.5,0-2.1,0
				c-0.1,0-0.1,0-0.2,0c-0.1,0-0.1-0.1-0.2-0.1c-0.1-0.1-0.2-0.2-0.3-0.2C110.2,360,110.1,359.9,110.1,359.9z"/>
		</g>
		<g>
			<path class="st26" d="M110.3,363.4c0,0,0.1-0.1,0.3-0.2c0.1-0.1,0.2-0.2,0.3-0.2c0.1,0,0.1-0.1,0.2-0.1c0.1,0,0.1,0,0.2,0
				c0.6,0,1.3,0,2.1,0c0.8,0,1.5,0,2.1,0c0.1,0,0.1,0,0.2,0c0.1,0,0.1,0.1,0.2,0.1c0.1,0.1,0.2,0.2,0.3,0.2c0.2,0.1,0.3,0.2,0.3,0.2
				s-0.1,0.1-0.3,0.2c-0.1,0.1-0.2,0.1-0.3,0.2c-0.1,0-0.1,0.1-0.2,0.1c-0.1,0.1-0.1,0-0.2,0c-0.6,0-1.3,0-2.1,0c-0.8,0-1.5,0-2.1,0
				c-0.1,0-0.1,0-0.2,0c-0.1,0-0.1-0.1-0.2-0.1c-0.1-0.1-0.2-0.2-0.3-0.2C110.4,363.5,110.3,363.4,110.3,363.4z"/>
		</g>
		<g>
			<path class="st26" d="M122.5,359.6c0,0,0.1-0.1,0.3-0.2c0.1-0.1,0.2-0.2,0.3-0.2c0.1,0,0.1-0.1,0.2-0.1c0.1,0,0.1,0,0.2,0
				c0.6,0,1.3,0,2.1,0s1.5,0,2.1,0c0.1,0,0.1,0,0.2,0c0.1,0,0.1,0.1,0.2,0.1c0.1,0.1,0.2,0.2,0.3,0.2c0.2,0.1,0.3,0.2,0.3,0.2
				s-0.1,0.1-0.3,0.2c-0.1,0.1-0.2,0.1-0.3,0.2c-0.1,0-0.1,0.1-0.2,0.1c-0.1,0.1-0.1,0-0.2,0c-0.6,0-1.3,0-2.1,0s-1.5,0-2.1,0
				c-0.1,0-0.1,0-0.2,0c-0.1,0-0.1-0.1-0.2-0.1c-0.1-0.1-0.2-0.2-0.3-0.2C122.6,359.7,122.5,359.6,122.5,359.6z"/>
		</g>
		<g>
			<path class="st26" d="M122.4,363.4c0,0,0.1-0.1,0.3-0.2c0.1-0.1,0.2-0.2,0.3-0.2c0.1,0,0.1-0.1,0.2-0.1c0.1,0,0.1,0,0.2,0
				c0.6,0,1.3,0,2.1,0s1.5,0,2.1,0c0.1,0,0.1,0,0.2,0c0.1,0,0.1,0.1,0.2,0.1c0.1,0.1,0.2,0.2,0.3,0.2c0.2,0.1,0.3,0.2,0.3,0.2
				s-0.1,0.1-0.3,0.2c-0.1,0.1-0.2,0.1-0.3,0.2c-0.1,0-0.1,0.1-0.2,0.1c-0.1,0.1-0.1,0-0.2,0c-0.6,0-1.3,0-2.1,0s-1.5,0-2.1,0
				c-0.1,0-0.1,0-0.2,0c-0.1,0-0.1-0.1-0.2-0.1c-0.1-0.1-0.2-0.2-0.3-0.2C122.5,363.5,122.4,363.4,122.4,363.4z"/>
		</g>
		<g>
			<path class="st26" d="M86,382.4c0,0,0.1-0.1,0.3-0.2c0.1-0.1,0.2-0.2,0.3-0.2c0.1,0,0.1-0.1,0.2-0.1c0.1,0,0.1,0,0.2,0
				c0.6,0,1.3,0,2.1,0s1.5,0,2.1,0c0.1,0,0.1,0,0.2,0c0.1,0,0.1,0.1,0.2,0.1c0.1,0.1,0.2,0.2,0.3,0.2c0.2,0.1,0.3,0.2,0.3,0.2
				s-0.1,0.1-0.3,0.2c-0.1,0.1-0.2,0.1-0.3,0.2c-0.1,0-0.1,0.1-0.2,0.1c-0.1,0.1-0.1,0-0.2,0c-0.6,0-1.3,0-2.1,0s-1.5,0-2.1,0
				c-0.1,0-0.1,0-0.2,0c-0.1,0-0.1-0.1-0.2-0.1c-0.1-0.1-0.2-0.2-0.3-0.2C86,382.5,86,382.4,86,382.4z"/>
		</g>
		<g>
			<path class="st26" d="M85.4,376.6c0,0,0.3-0.1,0.8-0.2c0.2-0.1,0.5-0.2,0.9-0.2c0.2,0,0.3-0.1,0.5-0.1c0.2,0,0.4,0,0.6,0
				c1.7,0,3.8,0,6.1,0c2.2,0,4.4,0,6.1,0c0.2,0,0.4,0,0.6,0c0.2,0,0.4,0.1,0.5,0.1c0.3,0.1,0.6,0.2,0.9,0.2c0.5,0.1,0.8,0.2,0.8,0.2
				s-0.3,0.1-0.8,0.2c-0.2,0.1-0.5,0.1-0.9,0.2c-0.2,0-0.3,0.1-0.5,0.1c-0.2,0.1-0.4,0-0.6,0c-1.7,0-3.9,0-6.1,0c-2.2,0-4.4,0-6.1,0
				c-0.2,0-0.4,0-0.6,0c-0.2,0-0.4-0.1-0.5-0.1c-0.3-0.1-0.6-0.2-0.9-0.2C85.7,376.7,85.4,376.6,85.4,376.6z"/>
		</g>
		<g>
			<path class="st26" d="M85.4,372.7c0,0,0.3-0.1,0.8-0.2c0.2-0.1,0.5-0.2,0.9-0.2c0.2,0,0.3-0.1,0.5-0.1c0.2,0,0.4,0,0.6,0
				c1.7,0,3.8,0,6.1,0c2.2,0,4.4,0,6.1,0c0.2,0,0.4,0,0.6,0c0.2,0,0.4,0.1,0.5,0.1c0.3,0.1,0.6,0.2,0.9,0.2c0.5,0.1,0.8,0.2,0.8,0.2
				s-0.3,0.1-0.8,0.2c-0.2,0.1-0.5,0.1-0.9,0.2c-0.2,0-0.3,0.1-0.5,0.1c-0.2,0.1-0.4,0-0.6,0c-1.7,0-3.9,0-6.1,0c-2.2,0-4.4,0-6.1,0
				c-0.2,0-0.4,0-0.6,0c-0.2,0-0.4-0.1-0.5-0.1c-0.3-0.1-0.6-0.2-0.9-0.2C85.7,372.8,85.4,372.7,85.4,372.7z"/>
		</g>
		<g>
			<path class="st26" d="M126.8,385.1c0,0-1.8-0.1-4.6,0.1c-0.7,0.1-1.7-0.3-2.1-1.2c-0.1-0.2-0.2-0.5-0.2-0.7c0-0.2,0-0.4,0-0.6
				c0-0.4,0-0.8,0-1.3c0-0.9-0.1-1.8-0.1-2.7c0-1.2,1-2.3,2.3-2.3c0.9,0,1.8-0.1,2.7-0.1c0.5,0,0.9,0,1.3,0c0.2,0,0.4,0,0.7,0
				c0.1,0,0.3,0,0.5,0.1c0.2,0,0.3,0.1,0.4,0.1c0.6,0.2,1,0.7,1.3,1.2c0.1,0.3,0.2,0.6,0.2,0.8c0,0.3,0,0.5,0,0.7
				c0,0.8-0.1,1.5-0.2,2.2c-0.1,0.7-0.2,1.3-0.2,1.9c-0.1,0.6-0.5,1.1-0.8,1.4c-0.4,0.3-0.7,0.4-0.9,0.4
				C126.9,385.1,126.8,385.1,126.8,385.1z M126.8,384.9c0,0,0.1,0,0.3,0c0.2,0,0.5-0.1,0.8-0.4c0.3-0.3,0.5-0.7,0.4-1.2
				c-0.1-0.6-0.1-1.2-0.2-1.9c-0.1-0.7-0.2-1.4-0.2-2.2c0-0.5,0-0.6-0.1-0.8c-0.1-0.2-0.3-0.4-0.5-0.5c-0.1,0-0.1,0-0.2-0.1
				c-0.1,0,0,0-0.2,0l-0.6,0c-0.4,0-0.9,0-1.3,0c-0.9,0-1.8-0.1-2.7-0.1c-0.6,0-1.2,0.5-1.3,1.1c0,0.9-0.1,1.8-0.1,2.6
				c0,0.4,0,0.9,0,1.3c0,0.2,0,0.4,0,0.6c0,0.2,0,0.3,0.1,0.5c0.2,0.6,0.8,1,1.4,1C124.9,385,126.8,384.9,126.8,384.9z"/>
		</g>
		<g>
			<path class="st26" d="M125.2,378.3c0,0-0.1,1.8,0.1,4.4c0,0.3,0,0.7,0.1,1c0,0.4-0.1,0.9-0.4,1.2c-0.2,0.4-0.6,0.7-1.1,0.8
				c-0.2,0.1-0.5,0.1-0.7,0.1c-0.2,0-0.4,0-0.6,0c-0.8,0-1.7,0-2.6,0c-1.2-0.1-2.2-1.1-2.2-2.3c0-1.8-0.1-3.5-0.1-5.2
				c0-0.4,0.1-1.1,0.4-1.6c0.3-0.5,0.8-0.8,1.3-1c0.3-0.1,0.5-0.1,0.8-0.1c0.3,0,0.4,0,0.6,0.1c0.4,0,0.7,0.1,1,0.1
				c0.7,0.1,1.3,0.2,1.8,0.3c0.6,0.1,1,0.5,1.3,0.9C125.3,377.8,125.1,378.3,125.2,378.3z M125,378.3c0,0,0-0.1,0-0.3
				c0-0.2-0.1-0.5-0.4-0.7c-0.2-0.3-0.7-0.5-1.1-0.5c-0.5,0-1.1,0.1-1.8,0.2c-0.3,0-0.7,0.1-1,0.1c-0.2,0-0.4,0-0.5,0
				c-0.1,0-0.2,0-0.3,0.1c-0.2,0.1-0.4,0.3-0.5,0.5c-0.1,0.2-0.1,0.4-0.1,0.8c0,1.7-0.2,3.4-0.3,5.2c-0.1,0.6,0.4,1.2,1,1.3
				c0.9,0,1.7,0.1,2.5,0.1c0.2,0,0.4,0,0.6,0c0.2,0,0.3,0,0.5,0c0.3-0.1,0.6-0.2,0.8-0.5c0.2-0.2,0.3-0.5,0.3-0.8
				c0-0.4,0.1-0.7,0.1-1C125.1,380.1,125,378.3,125,378.3z"/>
		</g>
	</g>
</g>
<g id="gears">
	<path class="st29" d="M405.6,72.5c0.1-0.8,0.1-1.6,0.1-2.4c0-0.8,0-1.6-0.1-2.4l-5.2-1.1c-0.2-1.3-0.5-2.6-0.9-3.9l4.2-3.3
		c-0.6-1.5-1.3-2.9-2.1-4.3l-5.1,1.2c-0.7-1.1-1.6-2.1-2.5-3.1l2.3-4.7c-1.2-1.1-2.4-2.1-3.7-3l-4.1,3.3c-1.1-0.7-2.3-1.2-3.6-1.7
		l0.1-5.3c-1.5-0.5-3.1-0.8-4.6-1.1l-2.2,4.8c-0.7-0.1-1.3-0.1-2-0.1c-0.7,0-1.3,0-2,0.1l-2.3-4.6c-1.6,0.2-3.1,0.6-4.6,1.1l0.1,5.3
		c-1.2,0.5-2.4,1.1-3.6,1.7l-4.2-3.4c-1.3,0.9-2.6,1.9-3.7,3l2.3,4.7c-0.9,1-1.7,2-2.5,3.1l-5.1-1.2c-0.8,1.4-1.5,2.8-2.1,4.3
		l4.2,3.3c-0.4,1.3-0.7,2.5-0.9,3.9l-5.2,1.1c0,0.7,0,1.5,0,2.3c0,0.8,0,1.6,0.1,2.4l5.2,1.1c0.2,1.3,0.5,2.6,0.9,3.9l-4.2,3.3
		c0.6,1.5,1.3,2.9,2.1,4.3l5.1-1.2c0.7,1.1,1.6,2.1,2.5,3.1l-2.3,4.7c1.2,1.1,2.4,2.1,3.7,3l4.1-3.3c1.1,0.7,2.3,1.2,3.6,1.7
		l-0.1,5.3c1.5,0.5,3.1,0.8,4.6,1.1l2.2-4.8c0.7,0.1,1.3,0.1,2,0.1c0.7,0,1.3,0,2-0.1l2.2,4.8c1.6-0.2,3.1-0.6,4.6-1.1l-0.1-5.3
		c1.2-0.5,2.4-1.1,3.6-1.7l4.1,3.3c1.3-0.9,2.6-1.9,3.7-3l-2.2-4.8c0.9-1,1.7-2,2.5-3.1l5.1,1.2c0.8-1.4,1.5-2.8,2.1-4.3l-4.2-3.3
		c0.4-1.3,0.7-2.5,0.9-3.9L405.6,72.5z M379.4,59.5c3.5,1,6.2,3.7,7.3,7.1h-5.4c-0.5-0.8-1.2-1.4-2-1.9v-5.2H379.4z M379.4,76.1
		c1-0.6,1.8-1.4,2.3-2.4h5c-1.1,3.4-3.9,6.1-7.3,7.1V76.1z M372.3,89.8c-8.1-1.6-14.5-8-16-16.2h4.9c1.3,5.5,5.6,9.8,11,11.2v5
		H372.3z M372.3,80.6c-3.2-1.2-5.7-3.7-6.7-6.9h4.4c0.6,1,1.4,1.8,2.3,2.4V80.6z M372.3,64.7c-0.8,0.5-1.5,1.1-2,1.9h-4.7
		c1.1-3.2,3.6-5.8,6.7-6.9V64.7z M372.3,55.4c-5.4,1.4-9.7,5.8-11,11.2h-4.9c1.4-8.2,7.8-14.6,16-16.2v5H372.3z M375.9,73.2
		c-1.8,0-3.3-1.5-3.3-3.3c0-1.8,1.5-3.3,3.3-3.3c1.8,0,3.3,1.5,3.3,3.3C379.2,71.7,377.7,73.2,375.9,73.2z M379.4,89.9V85
		c5.7-1.2,10.3-5.7,11.6-11.4h4.9C394.4,82,387.8,88.6,379.4,89.9z M391,66.6c-1.4-5.7-5.9-10.1-11.6-11.4v-4.9
		c8.4,1.4,15,7.9,16.5,16.3H391z"/>
	<g>
		<g>
			<path class="st26" d="M378.9,73.9c0,0-0.3,0.2-0.8,0.4c-0.3,0.1-0.6,0.3-1.1,0.4c-0.2,0-0.5,0-0.8,0c-0.3,0-0.5-0.2-0.8-0.3
				c-0.5-0.3-1-0.7-1.4-1.3c-0.1-0.1-0.2-0.3-0.3-0.5c-0.1-0.1-0.1-0.2-0.2-0.4c-0.1-0.4-0.2-0.7-0.2-1.1c0-0.7,0.1-1.5,0.5-2.2
				c0.4-0.7,1-1.2,1.7-1.6c0.3-0.2,0.7-0.3,1.1-0.4c0.4-0.1,0.8-0.1,1.2,0c0.8,0.1,1.5,0.4,2.1,0.8c0.6,0.4,1,1.1,1.2,1.7
				c0.3,0.7,0.3,1.3,0.3,1.9c-0.1,0.3-0.1,0.6-0.2,0.8c-0.1,0.2-0.3,0.4-0.4,0.6c-0.3,0.3-0.7,0.5-0.9,0.7
				C379.2,73.8,378.9,73.9,378.9,73.9z M378.9,73.9c0,0,0.1,0,0.2-0.1c0.1-0.1,0.3-0.2,0.5-0.5c0.2-0.2,0.3-0.6,0.4-1
				c0-0.2,0.1-0.4,0.1-0.6c0-0.2,0.1-0.4,0.1-0.6c0-0.4,0-0.9-0.2-1.3c-0.2-0.5-0.5-0.9-0.9-1.2c-0.4-0.3-0.9-0.5-1.4-0.6
				c-0.3,0-0.5,0-0.8,0c-0.3,0.1-0.5,0.1-0.8,0.3c-0.5,0.3-0.9,0.7-1.2,1.1c-0.3,0.5-0.4,1-0.3,1.5c0,0.2,0.1,0.5,0.1,0.7
				c0,0.1,0.1,0.2,0.2,0.4c0,0.1,0.1,0.2,0.2,0.3c0.3,0.4,0.6,0.7,1,0.9c0.2,0.1,0.4,0.1,0.5,0.2c0.2,0.1,0.3,0.2,0.5,0.3
				c0.3,0.2,0.7,0.3,1,0.3c0.3,0,0.5,0,0.7-0.1C378.9,74,378.9,73.9,378.9,73.9z"/>
		</g>
		<g>
			<path class="st26" d="M381.3,61.7l0.1,4l-0.1-0.2l2.2,1.9l-0.2-0.1l5.3-0.3l-0.5,0.7c-0.1-0.3-0.3-0.7-0.5-1.1
				c-0.2-0.4-0.4-0.7-0.7-1c-0.5-0.7-1-1.3-1.6-1.9c-0.1-0.2-0.3-0.3-0.4-0.4c-0.2-0.1-0.3-0.3-0.5-0.4c-0.3-0.3-0.6-0.5-1-0.8
				c-0.2-0.1-0.3-0.3-0.5-0.4l-0.6-0.3c-0.4-0.2-0.8-0.4-1.2-0.6l0-0.1c0.4,0.1,0.9,0.1,1.3,0.2c0.4,0.1,0.9,0.2,1.3,0.5
				c0.2,0.1,0.4,0.2,0.6,0.3l0.6,0.3c0.2,0.1,0.4,0.3,0.6,0.4c0.2,0.1,0.4,0.3,0.5,0.4c0.4,0.3,0.7,0.6,1,1c0.3,0.4,0.6,0.7,0.8,1.1
				c0.2,0.4,0.5,0.8,0.7,1.2c0.2,0.4,0.4,0.8,0.5,1.3l0.2,0.7l-0.7,0l-5.3-0.1l-0.2,0L383,68l-2-2.1l-0.1-0.1l0-0.1l0.3-4
				L381.3,61.7z"/>
		</g>
		<g>
			<path class="st26" d="M373.8,61.4l0.3,4.4l0,0.1L374,66l-1.9,2.3l-0.1,0.1l-0.2,0l-4.9,0.1l-0.6,0l0.2-0.6
				c0.1-0.5,0.3-0.9,0.4-1.3c0.2-0.4,0.4-0.8,0.6-1.3c0.2-0.4,0.5-0.8,0.7-1.2c0.1-0.2,0.3-0.4,0.4-0.5c0.1-0.2,0.3-0.4,0.5-0.5
				c0.6-0.7,1.4-1.2,2.2-1.7c0.4-0.2,0.8-0.4,1.2-0.6c0.4-0.2,0.9-0.2,1.3-0.3l0,0.1c-0.4,0.3-0.8,0.4-1.1,0.7
				c-0.4,0.2-0.7,0.5-1,0.8c-0.2,0.1-0.3,0.3-0.5,0.4c-0.2,0.1-0.3,0.3-0.5,0.4l-0.4,0.5c-0.1,0.1-0.3,0.3-0.4,0.5
				c-0.5,0.7-1,1.3-1.4,2.1c-0.2,0.4-0.4,0.7-0.6,1.1c-0.2,0.4-0.3,0.8-0.5,1.1l-0.5-0.6l4.9,0.2l-0.3,0.1l2-2.1l-0.1,0.2l0.1-4.4
				L373.8,61.4z"/>
		</g>
		<g>
			<path class="st26" d="M381.5,81l-0.3-4.3l0-0.1l0.1-0.1l1.8-2.2l0.1-0.1l0.2,0l4.7-0.1l0.6,0l-0.2,0.6c-0.1,0.5-0.2,0.9-0.4,1.3
				c-0.1,0.4-0.3,0.8-0.5,1.2c-0.2,0.4-0.4,0.8-0.7,1.2c-0.1,0.2-0.3,0.4-0.4,0.5c-0.1,0.2-0.3,0.4-0.4,0.5c-0.3,0.3-0.6,0.6-1,0.9
				c-0.2,0.1-0.4,0.3-0.5,0.4c-0.2,0.1-0.4,0.3-0.6,0.4c-0.4,0.2-0.8,0.4-1.2,0.6c-0.4,0.2-0.9,0.2-1.3,0.3l0-0.1
				c0.4-0.3,0.7-0.4,1.1-0.7l0.5-0.4l0.5-0.4c0.2-0.1,0.3-0.3,0.5-0.4c0.1-0.1,0.3-0.3,0.4-0.4c0.3-0.3,0.5-0.6,0.8-0.9
				c0.3-0.3,0.5-0.7,0.7-1c0.2-0.3,0.4-0.7,0.6-1c0.2-0.4,0.4-0.7,0.6-1.1c0.2-0.4,0.3-0.8,0.4-1.1l0.5,0.6l-4.7-0.2l0.3-0.1
				l-1.9,2.1l0.1-0.2l-0.1,4.3L381.5,81z"/>
		</g>
		<g>
			<path class="st26" d="M373.6,80.3l-0.1-3.6l0.1,0.2l-2-1.7l0.2,0.1l-4.8,0.2l0.5-0.7c0.1,0.3,0.3,0.7,0.5,1
				c0.2,0.3,0.4,0.6,0.6,0.9c0.4,0.6,0.9,1.2,1.4,1.7c0.1,0.1,0.3,0.3,0.4,0.4c0.1,0.1,0.3,0.3,0.4,0.4c0.3,0.2,0.6,0.5,0.9,0.7
				c0.3,0.2,0.6,0.4,1,0.6c0.3,0.2,0.7,0.4,1,0.6l0,0.1c-0.4,0-0.8-0.1-1.2-0.2c-0.4-0.1-0.8-0.2-1.2-0.4c-0.4-0.1-0.7-0.4-1.1-0.6
				c-0.3-0.2-0.7-0.5-1-0.7c-0.3-0.3-0.6-0.6-0.9-0.9c-0.3-0.3-0.5-0.7-0.7-1c-0.2-0.4-0.4-0.7-0.6-1.1c-0.2-0.4-0.3-0.8-0.4-1.2
				l-0.2-0.7l0.7,0l4.8,0.1l0.2,0l0.1,0.1l1.8,1.9l0.1,0.1l0,0.1l-0.3,3.6L373.6,80.3z"/>
		</g>
		<g>
			<path class="st26" d="M393.8,67.5l3.8-0.1l-0.2,0.2c-0.1-0.5-0.2-1-0.3-1.5c-0.1-0.5-0.3-1-0.5-1.4c-0.2-0.5-0.4-0.9-0.6-1.4
				c-0.2-0.4-0.5-0.9-0.7-1.3c-0.3-0.4-0.5-0.9-0.8-1.3c-0.3-0.4-0.6-0.8-0.9-1.2c-0.3-0.4-0.6-0.8-1-1.1l-1.1-1l-1.2-0.9
				c-0.4-0.3-0.8-0.6-1.2-0.9c-0.4-0.3-0.8-0.6-1.3-0.8l-1.3-0.7c-0.9-0.5-1.8-0.8-2.8-1.2c-0.5-0.2-1-0.3-1.4-0.4l-1.4-0.4l0.8-0.6
				l0.1,4.9l-0.5-0.7c0.8,0.2,1.5,0.4,2.1,0.7c0.7,0.3,1.4,0.6,2,0.9c0.3,0.2,0.6,0.4,1,0.6c0.3,0.2,0.6,0.4,0.9,0.6
				c0.3,0.2,0.6,0.4,0.9,0.7c0.3,0.2,0.6,0.5,0.9,0.7l0.8,0.8l0.7,0.9c0.3,0.3,0.4,0.6,0.7,0.9c0.2,0.3,0.4,0.6,0.6,0.9l0.5,1l0.4,1
				c0.1,0.3,0.2,0.7,0.3,1.1l0.2,1.1l-0.1,0l-0.4-1c-0.1-0.3-0.3-0.7-0.4-1l-0.5-0.9l-0.6-0.9c-0.2-0.3-0.4-0.6-0.6-0.8
				c-0.2-0.3-0.4-0.5-0.7-0.8l-0.7-0.7l-0.8-0.7c-0.3-0.2-0.6-0.4-0.8-0.6c-0.3-0.2-0.6-0.4-0.9-0.6c-0.3-0.2-0.6-0.4-0.9-0.5
				c-0.3-0.2-0.6-0.3-0.9-0.5c-0.6-0.3-1.3-0.6-1.9-0.9c-0.6-0.2-1.3-0.5-1.9-0.7l-0.6-0.2l0-0.5l0.1-4.9l0-0.9l0.8,0.3l1.5,0.5
				c0.5,0.2,1,0.3,1.5,0.5c0.9,0.4,1.9,0.8,2.8,1.3l1.4,0.8c0.5,0.2,0.9,0.6,1.3,0.9c0.4,0.3,0.9,0.6,1.2,0.9l1.2,1l1.1,1.1
				c0.4,0.4,0.7,0.8,1,1.2c0.3,0.4,0.6,0.8,0.9,1.3c0.3,0.4,0.6,0.9,0.8,1.3c0.3,0.4,0.5,0.9,0.7,1.4c0.2,0.5,0.4,1,0.6,1.4
				c0.2,0.5,0.3,1,0.4,1.5c0.1,0.5,0.2,1,0.3,1.5l0,0.2l-0.2,0l-3.8-0.1V67.5z"/>
		</g>
		<g>
			<path class="st26" d="M373.9,55l-0.1-3.8l0.2,0.2c-0.5,0.1-1,0.2-1.5,0.3c-0.5,0.1-1,0.3-1.4,0.5c-0.5,0.2-0.9,0.4-1.4,0.6
				c-0.4,0.2-0.9,0.5-1.3,0.7c-0.4,0.3-0.9,0.5-1.3,0.8c-0.4,0.3-0.8,0.6-1.2,0.9c-0.4,0.3-0.8,0.6-1.1,1l-1,1.1l-0.9,1.2
				c-0.3,0.4-0.6,0.8-0.9,1.2c-0.3,0.4-0.6,0.8-0.8,1.3l-0.7,1.3c-0.5,0.9-0.8,1.8-1.2,2.8c-0.2,0.5-0.3,1-0.4,1.4l-0.4,1.4
				l-0.6-0.8l4.9-0.1l-0.7,0.5c0.2-0.8,0.4-1.5,0.7-2.1c0.3-0.7,0.6-1.4,0.9-2c0.2-0.3,0.4-0.6,0.6-1c0.2-0.3,0.4-0.6,0.6-0.9
				c0.2-0.3,0.4-0.6,0.7-0.9c0.2-0.3,0.5-0.6,0.7-0.9l0.8-0.8l0.9-0.7c0.3-0.3,0.6-0.4,0.9-0.7c0.3-0.2,0.6-0.4,0.9-0.6l1-0.5l1-0.4
				c0.3-0.1,0.7-0.2,1.1-0.3l1.1-0.2l0,0.1l-1,0.4c-0.3,0.1-0.7,0.3-1,0.4l-0.9,0.5l-0.9,0.6c-0.3,0.2-0.6,0.4-0.8,0.6
				c-0.3,0.2-0.5,0.4-0.8,0.7l-0.7,0.7l-0.7,0.8c-0.2,0.3-0.4,0.6-0.6,0.8c-0.2,0.3-0.4,0.6-0.6,0.9c-0.2,0.3-0.4,0.6-0.5,0.9
				c-0.2,0.3-0.3,0.6-0.5,0.9c-0.3,0.6-0.6,1.3-0.9,1.9c-0.2,0.6-0.5,1.3-0.7,1.9l-0.2,0.6l-0.5,0l-4.9-0.1l-0.9,0l0.3-0.8l0.5-1.5
				c0.2-0.5,0.3-1,0.5-1.5c0.4-0.9,0.8-1.9,1.3-2.8l0.8-1.4c0.2-0.5,0.6-0.9,0.9-1.3c0.3-0.4,0.6-0.9,0.9-1.2l1-1.2l1.1-1.1
				c0.4-0.4,0.8-0.7,1.2-1c0.4-0.3,0.8-0.6,1.3-0.9c0.4-0.3,0.9-0.6,1.3-0.8c0.4-0.3,0.9-0.5,1.4-0.7c0.5-0.2,1-0.4,1.4-0.6
				c0.5-0.2,1-0.3,1.5-0.4c0.5-0.1,1-0.2,1.5-0.3l0.2,0l0,0.2L374,55H373.9z"/>
		</g>
		<g>
			<path class="st26" d="M373.9,86.9l0.1,3.6l0,0.2l-0.2,0c-1-0.1-2-0.3-2.9-0.6c-0.5-0.2-1-0.3-1.4-0.5c-0.5-0.2-0.9-0.4-1.4-0.6
				c-0.4-0.2-0.9-0.4-1.3-0.7c-0.4-0.3-0.9-0.5-1.3-0.8c-0.4-0.3-0.8-0.6-1.2-0.9l-1.1-1c-0.4-0.3-0.7-0.7-1-1.1
				c-0.4-0.4-0.7-0.8-1-1.2c-0.3-0.4-0.6-0.8-0.9-1.2l-0.8-1.3c-0.3-0.4-0.5-0.9-0.7-1.3l-0.6-1.4c-0.2-0.5-0.4-0.9-0.5-1.4
				l-0.5-1.4l-0.3-0.8l0.9,0l4.9-0.1l0.5,0l0.2,0.5c0.2,0.6,0.4,1.2,0.7,1.9c0.3,0.6,0.6,1.2,0.9,1.8l0.5,0.9
				c0.2,0.3,0.4,0.6,0.5,0.9c0.2,0.3,0.4,0.6,0.6,0.8c0.2,0.3,0.4,0.5,0.6,0.8c0.2,0.2,0.4,0.5,0.7,0.7l0.7,0.7
				c0.2,0.2,0.5,0.4,0.8,0.6c0.3,0.2,0.5,0.4,0.8,0.6c0.3,0.2,0.6,0.4,0.9,0.5l0.9,0.5c0.3,0.2,0.6,0.3,0.9,0.4l1,0.4l0,0.1
				c-0.7-0.1-1.4-0.2-2.1-0.5l-1-0.3c-0.3-0.1-0.6-0.3-1-0.5c-0.3-0.1-0.6-0.3-0.9-0.5c-0.3-0.2-0.6-0.4-0.9-0.6
				c-0.6-0.4-1.1-0.9-1.6-1.4c-0.3-0.2-0.5-0.5-0.7-0.8c-0.2-0.3-0.5-0.5-0.7-0.8c-0.2-0.3-0.4-0.6-0.6-0.9
				c-0.2-0.3-0.4-0.6-0.6-0.9c-0.4-0.6-0.7-1.3-1-1.9c-0.3-0.7-0.5-1.3-0.7-2.1l0.7,0.5l-4.9-0.1l0.6-0.8l0.4,1.4
				c0.2,0.5,0.3,0.9,0.5,1.4l0.6,1.3c0.2,0.4,0.4,0.9,0.6,1.3l0.7,1.3c0.2,0.4,0.5,0.8,0.8,1.2c0.3,0.4,0.5,0.8,0.9,1.2
				c0.3,0.4,0.6,0.8,0.9,1.1l1,1c0.4,0.3,0.7,0.6,1.1,0.9c0.4,0.3,0.8,0.6,1.2,0.9c0.4,0.3,0.8,0.5,1.2,0.8c0.4,0.3,0.9,0.5,1.3,0.7
				c0.4,0.2,0.9,0.4,1.3,0.6c0.9,0.3,1.9,0.6,2.8,0.7l-0.2,0.2l0.1-3.6H373.9z"/>
		</g>
		<g>
			<path class="st26" d="M381.3,87l0.1,3.6l-0.2-0.1c1-0.1,1.9-0.4,2.9-0.7c0.5-0.2,0.9-0.3,1.4-0.6c0.4-0.2,0.9-0.4,1.3-0.7
				c0.4-0.2,0.9-0.5,1.3-0.8c0.4-0.3,0.8-0.5,1.2-0.8c0.4-0.3,0.8-0.6,1.2-0.9l1.1-1c0.4-0.3,0.7-0.7,1-1.1l0.5-0.6l0.4-0.6l0.8-1.2
				l0.7-1.3l0.4-0.6l0.3-0.7l0.6-1.3c0.2-0.4,0.3-0.9,0.5-1.4l0.5-1.4l0.6,0.8l-5.1,0.1l0.7-0.5c-0.2,0.8-0.5,1.4-0.8,2.1
				c-0.3,0.7-0.6,1.3-1,2c-0.4,0.6-0.8,1.2-1.3,1.8c-0.2,0.3-0.5,0.6-0.7,0.8c-0.2,0.3-0.5,0.5-0.8,0.8c-0.3,0.2-0.5,0.5-0.8,0.7
				l-0.9,0.7c-0.3,0.2-0.6,0.4-0.9,0.6c-0.3,0.2-0.6,0.4-1,0.5c-0.3,0.2-0.7,0.3-1,0.5l-1,0.3c-0.7,0.2-1.4,0.3-2.1,0.5l0-0.1l1-0.4
				c0.3-0.1,0.7-0.2,1-0.4L384,85c0.3-0.2,0.6-0.4,0.9-0.5c0.3-0.2,0.6-0.4,0.8-0.6c0.3-0.2,0.5-0.4,0.8-0.6l0.8-0.7
				c0.3-0.2,0.5-0.5,0.7-0.7c0.2-0.2,0.5-0.5,0.7-0.8c0.2-0.3,0.4-0.5,0.6-0.8c0.4-0.6,0.7-1.1,1.1-1.7c0.3-0.6,0.6-1.2,0.9-1.8
				c0.1-0.3,0.3-0.6,0.4-0.9c0.1-0.3,0.2-0.6,0.3-0.9l0.2-0.5l0.5,0l5.1,0.1l0.9,0l-0.3,0.8l-0.5,1.4c-0.2,0.5-0.3,1-0.6,1.4
				l-0.7,1.4l-0.3,0.7l-0.4,0.7l-0.8,1.3c-0.3,0.4-0.6,0.8-0.9,1.2l-0.5,0.6l-0.5,0.6c-0.4,0.4-0.7,0.8-1.1,1.1l-1.1,1
				c-0.4,0.3-0.8,0.6-1.2,0.9c-0.4,0.3-0.9,0.5-1.3,0.8c-0.4,0.3-0.9,0.5-1.3,0.7c-0.4,0.2-0.9,0.4-1.4,0.6c-0.5,0.2-1,0.3-1.4,0.5
				c-1,0.3-2,0.5-3,0.6l-0.2,0l0-0.2l0.1-3.6H381.3z"/>
		</g>
		<g>
			<polygon class="st26" points="407.3,74.1 402.4,74.9 402.5,74.9 401.3,78.6 401.3,78.5 405.5,81.7 405.6,81.7 405.5,81.8 
				403.4,86.4 403.3,86.6 403.2,86.5 398,85.3 398.2,85.2 395.8,88 395.8,87.7 398.3,92.8 398.4,92.9 398.2,93.1 394.4,95.9 
				394.3,96 394.1,95.9 389.9,92.7 390.2,92.7 386.4,94.5 386.6,94.2 386.6,99.5 386.6,99.8 386.4,99.8 382.1,100.8 381.8,100.8 
				381.7,100.6 379.5,95.6 379.8,95.8 375.5,96.1 375.8,95.9 373.6,100.8 373.4,101 373.1,101 368.7,99.9 368.4,99.8 368.4,99.5 
				368.4,94.1 368.6,94.5 365.4,92.8 365.9,92.7 361.5,96.2 361.3,96.4 361,96.2 357.1,93.1 356.8,92.8 357,92.5 358.9,87.9 
				358.9,88.4 356.8,85.3 357.3,85.5 352.3,87 351.9,87.2 351.7,86.7 349.6,82.1 349.4,81.8 349.7,81.5 353.5,78.2 353.3,78.7 
				352.7,75.1 353.2,75.5 348,74.6 347.6,74.5 347.6,74 347.5,68.9 347.5,68.4 348,68.3 353.5,67.1 353,67.6 353.8,63.8 354.1,64.4 
				350,61.1 349.6,60.8 349.8,60.4 351.5,56.2 351.7,55.6 352.3,55.8 357.9,57 357.2,57.3 359.7,54.2 359.6,54.9 357.1,50 
				356.8,49.4 357.3,49 361.1,46.2 361.5,45.8 362,46.2 365.9,49.6 365,49.5 368.2,47.5 367.8,48.1 368.2,42.8 368.3,42.3 
				368.8,42.1 373.3,41.1 374,41 374.2,41.5 376.2,46.5 375.5,46 379.8,46.1 379.1,46.5 381.6,41.8 381.9,41.3 382.4,41.5 
				386.7,42.4 387.2,42.5 387.2,43 387.5,48.3 387.1,47.7 390.5,49.5 389.8,49.6 394.1,46.1 394.5,45.7 394.9,46.1 398.3,49.2 
				398.6,49.5 398.4,49.9 396.3,54.6 396.2,54.1 398.6,57.2 398.1,57 403.3,55.8 403.7,55.7 403.8,56 405.7,60.2 405.8,60.5 
				405.6,60.7 401.5,64.1 401.6,63.8 402.4,67.6 402.3,67.4 407.4,68.7 407.5,68.7 407.5,68.8 407.4,73.2 407.3,73.2 407.2,68.8 
				407.3,68.9 402.1,67.9 402,67.8 402,67.7 401,63.9 401,63.7 401.1,63.6 405.1,60.1 405,60.6 403,56.3 403.5,56.6 398.3,57.9 
				398,58 397.8,57.8 395.4,54.7 395.2,54.5 395.3,54.2 397.4,49.4 397.5,50 394.1,47 394.9,47 390.6,50.6 390.3,50.8 390,50.6 
				386.5,48.9 386.2,48.7 386.1,48.4 385.8,43.1 386.4,43.7 382.1,42.8 382.9,42.5 380.4,47.2 380.2,47.6 379.7,47.6 375.4,47.5 
				375,47.5 374.8,47 372.8,42.1 373.7,42.6 369.1,43.6 369.7,42.9 369.3,48.2 369.3,48.6 369,48.8 365.8,50.8 365.3,51.1 
				364.9,50.7 361,47.3 362,47.4 358.2,50.2 358.4,49.3 360.9,54.3 361.1,54.7 360.8,55.1 358.3,58.2 358,58.5 357.5,58.4 352,57.1 
				352.8,56.7 351,60.9 350.8,60.1 354.9,63.4 355.2,63.7 355.1,64.1 354.2,67.9 354.1,68.3 353.7,68.3 348.3,69.5 348.7,68.9 
				348.7,74 348.2,73.5 353.4,74.4 353.8,74.5 353.8,74.9 354.4,78.5 354.5,78.8 354.2,79 350.4,82.3 350.5,81.7 352.6,86.3 352,86 
				357.1,84.5 357.4,84.4 357.6,84.7 359.7,87.9 359.9,88.1 359.8,88.3 357.8,92.9 357.7,92.3 361.6,95.5 361,95.5 365.4,92.1 
				365.6,91.9 365.9,92 369,93.8 369.2,93.9 369.2,94.1 369.2,99.5 368.9,99.1 373.3,100.2 372.8,100.4 375.1,95.6 375.2,95.4 
				375.4,95.4 379.8,95.1 380,95.1 380.1,95.3 382.3,100.3 381.9,100.1 386.2,99.2 386,99.5 386,94.2 386,94 386.2,94 390,92.2 
				390.1,92.2 390.3,92.3 394.4,95.5 394.1,95.5 397.9,92.7 397.9,93 395.4,87.9 395.4,87.8 395.5,87.7 397.9,85 398,84.9 
				398.1,84.9 403.2,86.2 403.1,86.3 405.3,81.7 405.3,81.9 401.1,78.7 401.1,78.6 401.1,78.5 402.3,74.8 402.3,74.7 402.4,74.7 
				407.3,74 			"/>
		</g>
	</g>
	<path class="st29" d="M452,95.7c0.1-1,0.2-2,0.2-3c0-0.8,0-1.7-0.1-2.5l-3.2-0.3c-0.2-1.1-0.4-2.2-0.7-3.3l2.8-1.7
		c-0.6-1.8-1.4-3.4-2.3-5l-3.1,1.2c-0.6-0.9-1.3-1.8-2.1-2.6l1.9-2.9c-1.3-1.3-2.7-2.5-4.2-3.5l-2.4,2.5c-1-0.6-2-1.1-3.1-1.5
		l0.5-3.6c-1.7-0.6-3.4-1-5.3-1.3l-1.2,3.7c-0.6,0-1.1-0.1-1.7-0.1c-0.6,0-1.1,0-1.7,0.1l-1.2-3.6c-1.8,0.2-3.6,0.6-5.3,1.2l0.5,3.8
		c-1.1,0.4-2.1,0.9-3.1,1.5l-2.6-2.9c-1.5,1-2.9,2.1-4.2,3.3l2.1,3.2c-0.8,0.8-1.5,1.7-2.1,2.6l-3.6-1.3c-0.9,1.5-1.7,3.1-2.3,4.9
		l3.2,2c-0.3,1.1-0.6,2.2-0.7,3.3l-3.7,0.4c-0.1,0.8-0.1,1.6-0.1,2.4c0,1,0.1,2,0.2,3l3.7,0.3c0.2,1.1,0.4,2.2,0.7,3.3l-3.1,1.9
		c0.6,1.7,1.5,3.3,2.4,4.8l3.3-1.2c0.6,0.9,1.3,1.8,2.1,2.6l-1.9,2.9c1.3,1.3,2.8,2.4,4.3,3.3l2.3-2.4c1,0.6,2,1.1,3.1,1.5l-0.4,3.2
		c1.7,0.6,3.5,1,5.4,1.1l1-3c0.6,0,1.1,0.1,1.7,0.1c0.6,0,1.1,0,1.7-0.1l1,3c1.9-0.2,3.7-0.6,5.4-1.3l-0.4-3
		c1.1-0.4,2.1-0.9,3.1-1.5l2.1,2.2c1.6-1,3-2.1,4.3-3.4l-1.7-2.5c0.8-0.8,1.5-1.7,2.1-2.6l2.8,1.1c1-1.5,1.8-3.2,2.4-5l-2.6-1.6
		c0.3-1.1,0.6-2.2,0.7-3.3L452,95.7z M419.6,104.7c-3.6,0-6.4-2.9-6.4-6.4c0-3.6,2.9-6.4,6.4-6.4c3.6,0,6.4,2.9,6.4,6.4
		C426.1,101.8,423.2,104.7,419.6,104.7z M427.7,90.2c-3.6,0-6.4-2.9-6.4-6.4s2.9-6.4,6.4-6.4c3.6,0,6.4,2.9,6.4,6.4
		S431.2,90.2,427.7,90.2z M435.7,104.7c-3.6,0-6.4-2.9-6.4-6.4c0-3.6,2.9-6.4,6.4-6.4s6.4,2.9,6.4,6.4
		C442.2,101.8,439.3,104.7,435.7,104.7z"/>
	<g>
		<g>
			<path class="st26" d="M427.5,100.4c0,0-0.1,0.1-0.2,0.4c-0.1,0.3-0.3,0.7-0.5,1.2c-0.3,0.5-0.6,1.1-1.2,1.7
				c-0.3,0.3-0.6,0.6-1,0.8c-0.4,0.3-0.9,0.4-1.4,0.5c-1,0.3-2.1,0.3-3.3,0c-0.3-0.1-0.6-0.1-0.9-0.3c-0.3-0.1-0.5-0.2-0.8-0.4
				c-0.6-0.3-1.1-0.7-1.5-1.1c-0.9-0.9-1.6-2-2-3.3c-0.3-1.3-0.3-2.7,0.2-4c0.2-0.5,0.5-1.2,0.9-1.8c0.4-0.5,0.9-1,1.4-1.4
				c1.1-0.8,2.4-1.3,3.6-1.4c1.3-0.1,2.6,0.2,3.6,0.7c1.1,0.5,1.9,1.3,2.6,2.1c0.3,0.4,0.6,0.8,0.7,1.3c0.2,0.4,0.2,0.9,0.3,1.3
				c0.1,0.8,0,1.5-0.1,2.1c-0.1,0.5-0.2,1-0.3,1.2C427.5,100.2,427.5,100.4,427.5,100.4z M427.5,100.4c0,0,0-0.2,0.1-0.4
				c0-0.1,0.1-0.3,0.1-0.5c0-0.2,0-0.5,0-0.7c0-0.5-0.2-1.2-0.5-1.8c-0.1-0.3-0.3-0.7-0.5-1c-0.1-0.2-0.2-0.3-0.3-0.5
				c-0.1-0.2-0.2-0.3-0.3-0.5c-0.5-0.7-1.2-1.3-2.1-1.7c-0.9-0.4-1.9-0.6-3-0.6c-1.1,0.1-2.1,0.5-3,1.1c-0.4,0.3-0.8,0.7-1.2,1.2
				c-0.3,0.5-0.6,0.9-0.8,1.5c-0.2,0.5-0.3,1.1-0.3,1.6c0,0.6,0,1.1,0.2,1.7c0.3,1.1,0.9,2,1.6,2.8c0.4,0.3,0.8,0.7,1.3,0.9
				c0.2,0.1,0.5,0.2,0.7,0.3c0.2,0.1,0.5,0.1,0.7,0.2c0.9,0.2,1.9,0.2,2.7,0c0.4-0.1,0.8-0.3,1.1-0.4c0.4-0.1,0.7-0.3,1-0.5
				c0.6-0.3,1.2-0.7,1.5-1.1c0.2-0.2,0.3-0.4,0.4-0.6c0.1-0.2,0.2-0.3,0.3-0.5C427.4,100.5,427.5,100.4,427.5,100.4z"/>
		</g>
		<g>
			<path class="st26" d="M442.6,101.8c0,0-0.1,0.1-0.3,0.4c-0.2,0.2-0.4,0.6-0.8,1c-0.4,0.4-0.9,0.9-1.6,1.3
				c-0.4,0.2-0.8,0.4-1.2,0.5c-0.5,0.1-1,0.1-1.5,0.1c-1,0-2.1-0.3-3.2-0.9c-0.3-0.2-0.5-0.3-0.8-0.5c-0.2-0.2-0.4-0.3-0.7-0.6
				c-0.5-0.4-0.8-0.9-1.2-1.5c-0.7-1.1-1-2.4-1-3.8c0-1.3,0.5-2.7,1.3-3.8c0.4-0.5,0.9-1.1,1.4-1.5c0.5-0.4,1.1-0.7,1.8-1
				c1.3-0.5,2.6-0.6,3.9-0.3c1.2,0.2,2.4,0.9,3.2,1.6c0.9,0.8,1.5,1.8,1.9,2.7c0.2,0.5,0.3,0.9,0.4,1.4c0,0.5,0,0.9-0.1,1.3
				c-0.1,0.8-0.5,1.4-0.7,1.9c-0.3,0.5-0.5,0.9-0.6,1.1C442.7,101.7,442.6,101.8,442.6,101.8z M442.6,101.8c0,0,0.1-0.1,0.2-0.4
				c0.1-0.1,0.2-0.3,0.2-0.5c0.1-0.2,0.2-0.4,0.2-0.7c0.1-0.5,0.2-1.2,0.1-1.9c-0.1-0.4-0.1-0.7-0.2-1.1c-0.1-0.2-0.1-0.4-0.1-0.6
				c0-0.2-0.1-0.4-0.2-0.6c-0.3-0.8-0.8-1.6-1.5-2.2c-0.8-0.7-1.7-1.2-2.7-1.4c-1-0.2-2.2-0.1-3.2,0.3c-0.5,0.2-1,0.5-1.5,0.8
				c-0.4,0.4-0.8,0.7-1.2,1.2c-0.7,0.9-1,2-1.1,3.1c0,1.1,0.3,2.2,0.8,3.1c0.3,0.4,0.6,0.9,1,1.2c0.1,0.2,0.4,0.3,0.6,0.5
				c0.2,0.1,0.4,0.3,0.6,0.4c0.9,0.5,1.8,0.7,2.6,0.7c0.4,0,0.8-0.1,1.2-0.1c0.4,0,0.8-0.1,1.1-0.1c0.7-0.1,1.3-0.4,1.8-0.7
				c0.2-0.1,0.4-0.3,0.6-0.4c0.2-0.1,0.3-0.3,0.4-0.4C442.5,101.9,442.6,101.8,442.6,101.8z"/>
		</g>
		<g>
			<path class="st26" d="M433,88.8c0,0-0.1,0.1-0.4,0.2c-0.2,0.2-0.6,0.4-1.1,0.6c-0.5,0.2-1.1,0.5-1.9,0.7
				c-0.4,0.1-0.8,0.1-1.3,0.1c-0.5,0-0.9-0.2-1.4-0.4c-1-0.4-1.9-1-2.7-1.9c-0.2-0.2-0.4-0.4-0.6-0.7c-0.1-0.2-0.3-0.4-0.4-0.8
				c-0.3-0.6-0.5-1.2-0.6-1.8c-0.2-1.3-0.1-2.6,0.3-3.9c0.5-1.3,1.3-2.4,2.5-3.2c0.5-0.3,1.2-0.7,1.8-0.9c0.6-0.2,1.3-0.3,2-0.3
				c1.3,0,2.7,0.3,3.8,1c1.1,0.7,2,1.6,2.5,2.6c0.6,1.1,0.8,2.2,0.9,3.2c0,0.5,0,1-0.1,1.5c-0.1,0.4-0.3,0.9-0.5,1.2
				c-0.4,0.7-0.9,1.2-1.3,1.6c-0.4,0.4-0.7,0.7-1,0.8C433.1,88.7,433,88.8,433,88.8z M433,88.8c0,0,0.1-0.1,0.3-0.3
				c0.1-0.1,0.2-0.2,0.4-0.4c0.1-0.1,0.3-0.3,0.4-0.6c0.3-0.5,0.6-1.1,0.7-1.8c0.1-0.4,0.1-0.7,0.2-1.1c0-0.2,0-0.4,0.1-0.6
				c0-0.2,0-0.4,0-0.6c0-0.8-0.3-1.8-0.7-2.6c-0.5-0.9-1.2-1.6-2.1-2.2c-0.9-0.5-2-0.8-3.1-0.8c-0.6,0-1.1,0.1-1.6,0.3
				c-0.6,0.2-1,0.4-1.5,0.8c-0.4,0.3-0.9,0.7-1.2,1.1c-0.3,0.4-0.6,0.9-0.8,1.5c-0.4,1-0.5,2.2-0.3,3.2c0.1,0.5,0.3,1,0.5,1.5
				c0.1,0.2,0.3,0.5,0.4,0.7c0.1,0.2,0.3,0.4,0.4,0.6c0.6,0.7,1.4,1.2,2.2,1.5c0.4,0.2,0.8,0.2,1.2,0.3c0.4,0.1,0.7,0.2,1.1,0.2
				c0.7,0.1,1.4,0.1,1.9,0c0.3-0.1,0.5-0.1,0.7-0.2c0.2-0.1,0.4-0.1,0.5-0.2C432.8,88.9,433,88.8,433,88.8z"/>
		</g>
		<g>
			<polygon class="st26" points="453.7,96.2 451,96.3 451.1,96.3 450.1,99.4 450.1,99.2 452.4,100.9 452.5,101 452.4,101.1 
				450.4,106.2 450.4,106.3 450.2,106.3 447.3,104.9 447.5,104.8 445.5,107.6 445.5,107.4 447,110.1 447.1,110.3 446.9,110.4 
				442.7,113.6 442.6,113.8 442.4,113.6 440.5,111.4 440.8,111.5 437.5,112.8 437.7,112.5 438,115.9 438,116.1 437.8,116.2 
				432.4,117.5 432.1,117.6 432,117.3 430.7,114.2 431,114.4 427.8,114.2 428.2,114 427.3,117.1 427.2,117.5 426.9,117.4 
				421.7,116.1 421.4,116 421.4,115.7 421.9,112.5 422.1,112.9 418.6,111.8 419,111.7 417,113.8 416.7,114.1 416.4,113.9 412,110.6 
				411.7,110.4 411.9,110 413.5,107 413.6,107.6 411.6,105.2 412.2,105.4 408.9,106.6 408.5,106.7 408.3,106.4 405.6,101.3 
				405.4,100.8 405.8,100.6 408.9,98.6 408.7,99.2 407.5,96 408,96.4 404.7,96.3 404.2,96.3 404.2,95.7 404,89.8 404,89.3 
				404.6,89.2 408.5,89.1 408,89.6 408.7,86.1 409,86.8 405.8,84.9 405.3,84.6 405.6,84.1 407.8,79.2 408,78.6 408.6,78.9 
				411.9,80.2 411.1,80.4 413.3,77.5 413.3,78.4 411.2,75.3 410.8,74.7 411.3,74.3 415.6,70.8 416.2,70.3 416.6,70.9 419.2,73.7 
				418.3,73.5 421.3,72.2 420.9,73 420.5,68.9 420.5,68.2 421.2,68.1 426.4,67.2 427.1,67 427.3,67.8 428.1,71.4 427.4,70.8 
				430.8,70.7 430.1,71.2 431.4,67.8 431.6,67.2 432.2,67.3 437.5,68.5 438.1,68.6 438,69.2 437.7,73 437.3,72.3 439.6,73.5 
				438.9,73.6 442.1,71 442.5,70.7 442.9,71.1 447.4,75.3 447.8,75.6 447.5,76 445.5,78.7 445.4,78.1 447.5,80.6 447,80.5 
				450.3,79.1 450.7,79 450.9,79.4 452.9,84.4 453,84.6 452.8,84.8 450.5,86.6 450.6,86.3 450.9,89.6 450.7,89.3 454,89.5 
				454.2,89.6 454.2,89.7 454,95.3 453.9,95.3 453.8,89.7 454,89.9 450.7,89.8 450.5,89.8 450.5,89.6 450,86.4 450,86.2 450.1,86.1 
				452.4,84.2 452.2,84.7 450.1,79.7 450.7,79.9 447.4,81.3 447,81.5 446.8,81.2 444.7,78.8 444.4,78.5 444.6,78.1 446.6,75.4 
				446.6,76.1 442.1,72 442.9,72 439.7,74.6 439.4,74.8 439,74.7 436.7,73.5 436.3,73.3 436.4,72.9 436.6,69.1 437.2,69.8 
				431.9,68.7 432.8,68.3 431.5,71.7 431.3,72.2 430.8,72.2 427.4,72.3 426.8,72.4 426.7,71.8 425.8,68.1 426.7,68.7 421.4,69.6 
				422.1,68.8 422.4,72.8 422.5,73.4 421.9,73.6 418.9,74.9 418.4,75.1 418,74.7 415.5,71.9 416.5,71.9 412.2,75.4 412.4,74.5 
				414.5,77.6 414.7,78 414.4,78.4 412.1,81.2 411.8,81.7 411.3,81.5 408.1,80.1 409,79.8 406.7,84.6 406.5,83.8 409.6,85.7 
				410,85.9 409.9,86.4 409.1,89.8 409,90.3 408.6,90.3 404.6,90.4 405.2,89.8 405.3,95.7 404.7,95.2 408,95.3 408.4,95.3 
				408.5,95.6 409.7,98.8 409.9,99.2 409.5,99.5 406.3,101.5 406.5,100.8 409.2,105.9 408.6,105.7 411.8,104.5 412.2,104.4 
				412.4,104.6 414.3,107 414.5,107.2 414.3,107.5 412.7,110.5 412.5,109.9 416.9,113.2 416.4,113.2 418.4,111.1 418.6,110.9 
				418.9,111 422.4,112.1 422.7,112.2 422.7,112.6 422.2,115.8 421.9,115.3 427.1,116.7 426.6,116.9 427.5,113.8 427.6,113.5 
				427.9,113.5 431.1,113.7 431.3,113.7 431.4,113.9 432.6,117.1 432.2,116.9 437.6,115.6 437.4,116 437.1,112.6 437.1,112.4 
				437.3,112.3 440.6,111 440.8,111 440.9,111.1 442.8,113.3 442.4,113.3 446.7,110.1 446.6,110.3 445.2,107.6 445.1,107.4 
				445.2,107.4 447.2,104.6 447.3,104.5 447.4,104.6 450.4,106 450.2,106.1 452.2,101 452.2,101.1 449.9,99.4 449.9,99.4 
				449.9,99.3 450.9,96.2 450.9,96.1 451,96.1 453.7,96.1 			"/>
		</g>
	</g>
	<path class="st29" d="M403.2,113.9c0-0.6-0.1-1.1-0.1-1.6l2.5-1.6c-0.3-1.5-0.9-2.9-1.7-4.1l-2.9,0.7c-0.7-0.9-1.4-1.7-2.3-2.3
		l0.7-2.9c-1.3-0.8-2.7-1.4-4.1-1.7l-1.7,2.5c-0.5-0.1-1.1-0.1-1.6-0.1s-1.1,0.1-1.6,0.1l-1.6-2.5c-1.5,0.3-2.9,0.9-4.1,1.7l0.7,2.9
		c-0.9,0.7-1.7,1.4-2.3,2.3l-2.9-0.7c-0.8,1.3-1.4,2.7-1.7,4.1l2.5,1.6c-0.1,0.5-0.1,1.1-0.1,1.6c0,0.6,0.1,1.1,0.1,1.6l-2.5,1.6
		c0.3,1.5,0.9,2.9,1.7,4.1l2.9-0.7c0.7,0.9,1.4,1.7,2.3,2.3l-0.7,2.9c1.3,0.8,2.7,1.4,4.1,1.7l1.6-2.5c0.5,0.1,1.1,0.1,1.6,0.1
		s1.1-0.1,1.6-0.1l1.6,2.5c1.5-0.3,2.9-0.9,4.1-1.7l-0.7-2.9c0.9-0.7,1.7-1.4,2.3-2.3l2.9,0.7c0.8-1.3,1.4-2.7,1.7-4.1l-2.5-1.6
		C403.1,115,403.2,114.4,403.2,113.9z M392,120.6c-3.7,0-6.7-3-6.7-6.7s3-6.7,6.7-6.7c3.7,0,6.7,3,6.7,6.7S395.7,120.6,392,120.6z"
		/>
	<g>
		<g>
			<path class="st26" d="M396.3,121.2c0,0-0.1,0.1-0.4,0.3c-0.3,0.2-0.6,0.4-1.2,0.7c-0.5,0.3-1.2,0.6-2.1,0.8
				c-0.4,0.1-0.9,0.1-1.4,0.1c-0.5,0-1-0.2-1.5-0.4c-1-0.4-2-1.1-2.9-2c-0.2-0.2-0.4-0.5-0.6-0.8c-0.2-0.3-0.3-0.5-0.5-0.8
				c-0.3-0.6-0.5-1.2-0.7-1.9c-0.3-1.3-0.1-2.8,0.4-4.1c0.5-1.3,1.4-2.5,2.7-3.4c0.5-0.3,1.2-0.7,1.9-1c0.7-0.2,1.4-0.3,2.1-0.4
				c1.4,0,2.8,0.4,4,1.1c1.2,0.7,2.1,1.7,2.7,2.8c0.6,1.2,0.9,2.3,0.9,3.4c0,0.5,0,1.1-0.1,1.6c-0.1,0.5-0.3,0.9-0.6,1.3
				c-0.4,0.8-1,1.3-1.4,1.7c-0.4,0.4-0.8,0.7-1,0.9C396.4,121.1,396.3,121.2,396.3,121.2z M396.3,121.2c0,0,0.1-0.1,0.4-0.3
				c0.1-0.1,0.3-0.2,0.4-0.4c0.2-0.2,0.3-0.4,0.5-0.6c0.3-0.5,0.6-1.1,0.7-1.9c0.1-0.4,0.1-0.8,0.1-1.2c0-0.2,0-0.4,0.1-0.6
				c0-0.2,0-0.4,0-0.6c0-0.9-0.3-1.9-0.7-2.7c-0.5-0.9-1.2-1.7-2.2-2.3c-0.9-0.6-2.1-0.9-3.3-0.9c-0.6,0-1.2,0.1-1.7,0.3
				c-0.6,0.2-1,0.4-1.6,0.8c-0.4,0.3-0.9,0.7-1.2,1.2c-0.4,0.5-0.7,1-0.9,1.5c-0.4,1.1-0.5,2.3-0.3,3.3c0.1,0.5,0.3,1.1,0.5,1.5
				c0.1,0.2,0.3,0.5,0.4,0.7c0.1,0.2,0.3,0.4,0.5,0.6c0.7,0.8,1.5,1.3,2.3,1.6c0.2,0.1,0.4,0.1,0.6,0.2c0.2,0,0.4,0.1,0.6,0.1
				c0.4,0.1,0.8,0.2,1.1,0.3c0.7,0.1,1.4,0.1,2,0c0.3-0.1,0.5-0.1,0.7-0.2c0.2-0.1,0.4-0.2,0.5-0.2
				C396.1,121.3,396.3,121.2,396.3,121.2z"/>
		</g>
		<g>
			<path class="st26" d="M404,116.1l-0.1,1.2l0-0.1l2,1.8l0.1,0.1l0,0.1l-1.7,4.1l-0.1,0.1l-0.2-0.1l-2.5-0.9l0.2,0l-2.2,2l0.1-0.2
				l0.6,3l0,0.2l-0.2,0.1l-4,1.6l-0.2,0.1l-0.1-0.2l-1.5-2.3l0.3,0.2l-3.6-0.1l0.3-0.2l-1.4,2.4l-0.2,0.3l-0.3-0.1l-4.3-1.9
				l-0.3-0.1l0.1-0.4l0.6-2.8l0.1,0.4l-2-1.9l0.4,0.1l-3.2,0.8l-0.4,0.1l-0.2-0.4l-1.7-4.7l-0.2-0.4l0.4-0.2l2.6-1.5l-0.3,0.5l0-3.2
				l0.3,0.5l-2.5-1.3l-0.5-0.3l0.2-0.6l1.7-4l0.2-0.5l0.5,0.1l2.8,0.4l-0.6,0.2l2.2-2.3l-0.2,0.7l-0.7-3l-0.2-0.6l0.6-0.2
				c1.5-0.6,2.9-1.1,4.4-1.7l0.6-0.2l0.3,0.6l1.5,2.8l-0.7-0.4l3.6-0.1l-0.6,0.4l1.3-2.7l0.3-0.6l0.6,0.3l4.4,2l0.5,0.2l-0.2,0.5
				l-0.9,2.7l-0.1-0.6l2.2,2.3l-0.4-0.1l2.9-0.3l0.3,0l0.1,0.3c0.7,1.5,1.3,3,1.9,4.5l0.1,0.2l-0.2,0.1l-2.8,1.5l0.1-0.2l0.3,1.4
				l-0.1,0l-0.5-1.4l0-0.1l0.1-0.1l2.7-1.7l-0.1,0.3c-0.8-1.5-1.5-2.9-2.2-4.4l0.4,0.2l-2.9,0.5l-0.2,0l-0.2-0.2l-2.3-2.1l-0.2-0.2
				l0.1-0.3l0.8-2.7l0.3,0.7l-4.4-1.9l0.9-0.3l-1.2,2.8l-0.2,0.4l-0.5,0l-3.6,0.1l-0.5,0l-0.2-0.4l-1.6-2.8l0.9,0.4
				c-1.5,0.6-2.9,1.1-4.4,1.6l0.5-0.9l0.7,3l0.1,0.4l-0.3,0.3l-2.2,2.3l-0.3,0.3l-0.4-0.1l-2.8-0.4l0.7-0.4l-1.8,4l-0.3-0.8l2.5,1.3
				l0.3,0.2l0,0.4l0,3.2l0,0.3l-0.3,0.2l-2.6,1.5l0.2-0.7l1.7,4.7l-0.6-0.3l3.2-0.8l0.3-0.1l0.2,0.2l2,1.9l0.2,0.2l-0.1,0.3
				l-0.7,2.8l-0.2-0.5l4.2,1.9l-0.5,0.2l1.5-2.4l0.1-0.2l0.2,0l3.6,0.2l0.2,0l0.1,0.1l1.5,2.3l-0.4-0.1l4.1-1.5l-0.2,0.3l-0.6-3
				l0-0.1l0.1-0.1l2.3-2l0.1-0.1l0.1,0l2.5,0.9l-0.2,0.1l1.7-4l0,0.1l-2-1.9l0,0l0,0l0.2-1.2L404,116.1z"/>
		</g>
	</g>
</g>
<g id="graph">
	<g>
		<rect x="720.9" y="366.4" class="st25" width="20.4" height="14.9"/>
		<rect x="746" y="351.5" class="st25" width="20.4" height="29.9"/>
		<rect x="771.1" y="331.9" class="st25" width="20.4" height="49.5"/>
		<g>
			<path class="st26" d="M744.2,384.6c-1.7,0.2-3.4,0.3-5.1,0.5l-2.5,0.2c-0.4,0-0.8,0.1-1.3,0.1c-0.4,0-0.8,0-1.3,0l-10.2,0l-0.8,0
				v-0.7v-14.8v-0.8h0.8h20.3h0.8v0.8v3.7c0,0.6,0,1.2,0,1.9c0,0.6-0.1,1.2-0.1,1.8C744.6,379.7,744.5,382.2,744.2,384.6z
				 M744.2,384.6c-0.3-2.5-0.4-4.9-0.6-7.4c0-0.6-0.1-1.2-0.1-1.8c0-0.6,0-1.2,0-1.9v-3.7l0.7,0.7h-20.3l0.7-0.7v14.8l-0.7-0.7
				l10.2,0c0.4,0,0.8,0,1.3,0c0.4,0,0.8,0.1,1.3,0.1l2.5,0.2C740.8,384.3,742.5,384.4,744.2,384.6z"/>
		</g>
		<g>
			<path class="st26" d="M769.2,384.2c-3.3,0.3-6.7,0.4-10,0.6c-0.8,0-1.7,0.1-2.5,0.1c-0.8,0-1.7,0-2.5,0h-5h-0.8v-0.8v-29.4v-0.8
				h0.8h20h0.8v0.8v14.7l0,1.8c0,0.6-0.1,1.2-0.1,1.8l-0.2,3.7C769.5,379.3,769.4,381.8,769.2,384.2z M769.2,384.2
				c-0.2-2.5-0.3-4.9-0.5-7.3l-0.2-3.7c0-0.6-0.1-1.2-0.1-1.8l0-1.8v-14.7l0.7,0.7h-20l0.7-0.7v29.4l-0.7-0.7h5c0.8,0,1.7,0,2.5,0
				c0.8,0,1.7,0.1,2.5,0.1C762.5,383.8,765.9,384,769.2,384.2z"/>
		</g>
		<g>
			<path class="st26" d="M794.4,384.5c-3.4,0.2-6.8,0.3-10.2,0.5l-5.1,0.2c-0.8,0-1.7,0.1-2.5,0.1c-0.8,0-1.7,0-2.5,0l-0.8,0l0-0.7
				l0-49.3v-0.8h0.8h20.3h0.8v0.8v24.6l0,6.2c0,1-0.1,2.1-0.1,3.1l-0.1,3.1C794.7,376.3,794.6,380.4,794.4,384.5z M794.4,384.5
				c-0.2-4.1-0.4-8.2-0.5-12.3l-0.1-3.1c0-1-0.1-2.1-0.1-3.1l0-6.2v-24.6l0.7,0.7H774l0.7-0.7l0,49.3l-0.8-0.8c0.8,0,1.7,0,2.5,0
				c0.8,0,1.7,0.1,2.5,0.1l5.1,0.2C787.6,384.2,791,384.3,794.4,384.5z"/>
		</g>
	</g>
	<g>
		<circle class="st29" cx="739.9" cy="406.5" r="2.4"/>
		<circle class="st29" cx="729" cy="416.6" r="2.4"/>
		<circle class="st29" cx="749.1" cy="415.1" r="2.4"/>
		<circle class="st29" cx="763.8" cy="401" r="2.4"/>
		<circle class="st29" cx="771.2" cy="408.3" r="2.4"/>
		<circle class="st29" cx="788.5" cy="391" r="2.4"/>
		<g>
			<g>
				<path class="st26" d="M731.1,415.8c0,0,0.4-0.5,1-1.3c0.6-0.8,1.5-1.8,2.3-2.8c0.4-0.5,0.8-1.1,1.2-1.5c0.4-0.4,0.9-0.8,1.3-1.1
					c0.8-0.6,1.5-0.8,1.5-0.8l0.1,0.1c0,0-0.2,0.7-0.8,1.5c-0.3,0.4-0.6,0.9-1.1,1.3c-0.4,0.4-1,0.8-1.5,1.2c-1,0.9-2,1.7-2.8,2.3
					c-0.8,0.6-1.3,1-1.3,1L731.1,415.8z"/>
			</g>
			<g>
				<path class="st26" d="M742.6,408.2c0,0,0.4,0.3,1,0.8c0.6,0.4,1.4,1.1,2.2,1.7c0.4,0.3,0.8,0.6,1.2,0.9c0.3,0.3,0.6,0.7,0.8,1
					c0.4,0.7,0.5,1.3,0.5,1.3l-0.1,0.1c0,0-0.6-0.1-1.3-0.5c-0.3-0.2-0.7-0.5-1.1-0.8c-0.3-0.3-0.6-0.8-0.9-1.2
					c-0.6-0.8-1.3-1.6-1.8-2.2c-0.5-0.6-0.8-1-0.8-1L742.6,408.2z"/>
			</g>
			<g>
				<path class="st26" d="M752.4,414.1c0,0,0.6-0.7,1.5-1.8c0.9-1.1,2.1-2.5,3.3-3.9c0.6-0.7,1.2-1.5,1.8-2.1
					c0.6-0.6,1.2-1.2,1.8-1.6c1.1-0.9,2-1.3,2-1.3l0.1,0.1c0,0-0.4,0.9-1.2,2c-0.4,0.6-0.9,1.2-1.5,1.9c-0.6,0.6-1.3,1.2-2,1.9
					c-1.4,1.3-2.7,2.6-3.8,3.5c-1,0.9-1.7,1.6-1.7,1.6L752.4,414.1z"/>
			</g>
			<g>
				<path class="st26" d="M766.2,402.8c0,0,0.4,0.1,1,0.3c0.5,0.3,1.2,0.7,1.7,1.2c0.6,0.5,1,1.1,1.3,1.7c0.3,0.5,0.4,1,0.4,1
					s-0.5-0.1-1-0.3c-0.5-0.3-1.2-0.7-1.7-1.2c-0.6-0.5-1-1.1-1.3-1.7C766.3,403.3,766.2,402.8,766.2,402.8z"/>
			</g>
			<g>
				<path class="st26" d="M773.3,407.1c0,0,0.8-0.9,2.1-2.4c1.2-1.4,3-3.3,4.6-5.2c0.8-0.9,1.7-1.9,2.5-2.8c0.8-0.8,1.7-1.6,2.4-2.2
					c1.5-1.2,2.6-1.9,2.6-1.9l0.1,0.1c0,0-0.7,1.1-1.8,2.6c-0.6,0.7-1.3,1.6-2.1,2.4c-0.8,0.8-1.8,1.6-2.7,2.5
					c-1.9,1.7-3.7,3.4-5.1,4.7c-1.4,1.3-2.4,2.1-2.4,2.1L773.3,407.1z"/>
			</g>
			<g>
				<path class="st26" d="M743.1,406.5c0,0,0,0.2-0.1,0.6c-0.1,0.4-0.3,1-0.9,1.5c-0.3,0.2-0.7,0.5-1.1,0.6c-0.1,0-0.2,0.1-0.4,0.1
					c-0.1,0-0.2,0-0.3,0c-0.3,0-0.5,0-0.8-0.1c-0.5-0.2-1-0.5-1.4-1c-0.4-0.5-0.6-1-0.6-1.7c0-0.2,0-0.6,0.1-0.9
					c0.1-0.3,0.2-0.6,0.4-0.8c0.4-0.5,0.9-0.8,1.4-1c0.5-0.2,1.1-0.1,1.5,0c0.5,0.1,0.8,0.3,1.1,0.6c0.6,0.5,0.8,1.1,0.9,1.5
					C743.1,406.3,743.1,406.5,743.1,406.5z M743.1,406.5c0,0,0-0.1,0-0.2c0-0.1,0-0.3-0.1-0.5c-0.1-0.4-0.4-0.9-1-1.2
					c-0.3-0.1-0.7-0.2-1-0.2c-0.4,0-0.7,0.2-1,0.3c-0.3,0.2-0.5,0.5-0.7,0.8c-0.1,0.1-0.1,0.3-0.2,0.5c0,0.2,0,0.2-0.1,0.5
					c0,0.2,0.1,0.6,0.2,0.9c0.2,0.3,0.4,0.6,0.7,0.8c0.1,0.1,0.3,0.2,0.5,0.2c0.1,0,0.2,0.1,0.3,0.1c0.1,0,0.2,0,0.2,0
					c0.4,0,0.7,0,1-0.2c0.6-0.3,0.9-0.8,1-1.2c0.1-0.2,0.1-0.4,0.1-0.5C743.1,406.6,743.1,406.5,743.1,406.5z"/>
			</g>
			<g>
				<path class="st26" d="M732.4,416.5c0,0,0,0.2-0.1,0.6c-0.1,0.4-0.3,1-0.9,1.5c-0.3,0.2-0.7,0.5-1.1,0.6c-0.1,0-0.2,0.1-0.4,0.1
					c-0.1,0-0.2,0-0.3,0c-0.3,0-0.5,0-0.8-0.1c-0.5-0.2-1-0.5-1.4-1c-0.4-0.5-0.6-1-0.6-1.7c0-0.2,0-0.6,0.1-0.9
					c0.1-0.3,0.2-0.6,0.4-0.8c0.4-0.5,0.9-0.8,1.4-1c0.5-0.2,1.1-0.1,1.5,0c0.5,0.1,0.8,0.3,1.1,0.6c0.6,0.5,0.8,1.1,0.9,1.5
					C732.4,416.3,732.4,416.5,732.4,416.5z M732.4,416.5c0,0,0-0.1,0-0.2c0-0.1,0-0.3-0.1-0.5c-0.1-0.4-0.4-0.9-1-1.2
					c-0.3-0.1-0.7-0.2-1-0.2c-0.4,0-0.7,0.2-1,0.3c-0.3,0.2-0.5,0.5-0.7,0.8c-0.1,0.1-0.1,0.3-0.2,0.5c0,0.2,0,0.2-0.1,0.5
					c0,0.2,0.1,0.6,0.2,0.9c0.2,0.3,0.4,0.6,0.7,0.8c0.1,0.1,0.3,0.2,0.5,0.2c0.1,0,0.2,0.1,0.3,0.1c0.1,0,0.2,0,0.2,0
					c0.4,0,0.7,0,1-0.2c0.6-0.3,0.9-0.8,1-1.2c0.1-0.2,0.1-0.4,0.1-0.5C732.4,416.6,732.4,416.5,732.4,416.5z"/>
			</g>
			<g>
				<path class="st26" d="M752.5,415.1c0,0,0,0.2-0.1,0.6c-0.1,0.4-0.3,1-0.9,1.5c-0.3,0.2-0.7,0.5-1.1,0.6c-0.1,0-0.2,0.1-0.4,0.1
					c-0.1,0-0.2,0-0.3,0c-0.3,0-0.5,0-0.8-0.1c-0.5-0.2-1-0.5-1.4-1c-0.4-0.5-0.6-1-0.6-1.7c0-0.2,0-0.6,0.1-0.9
					c0.1-0.3,0.2-0.6,0.4-0.8c0.4-0.5,0.9-0.8,1.4-1c0.5-0.2,1.1-0.1,1.5,0c0.5,0.1,0.8,0.3,1.1,0.6c0.6,0.5,0.8,1.1,0.9,1.5
					C752.6,414.9,752.5,415.1,752.5,415.1z M752.5,415.1c0,0,0-0.1,0-0.2c0-0.1,0-0.3-0.1-0.5c-0.1-0.4-0.4-0.9-1-1.2
					c-0.3-0.1-0.7-0.2-1-0.2c-0.4,0-0.7,0.2-1,0.3c-0.3,0.2-0.5,0.5-0.7,0.8c-0.1,0.1-0.1,0.3-0.2,0.5c0,0.2,0,0.2-0.1,0.5
					c0,0.2,0.1,0.6,0.2,0.9c0.2,0.3,0.4,0.6,0.7,0.8c0.1,0.1,0.3,0.2,0.5,0.2c0.1,0,0.2,0.1,0.3,0.1c0.1,0,0.2,0,0.2,0
					c0.4,0,0.7,0,1-0.2c0.6-0.3,0.9-0.8,1-1.2c0.1-0.2,0.1-0.4,0.1-0.5C752.5,415.2,752.5,415.1,752.5,415.1z"/>
			</g>
			<g>
				<path class="st26" d="M767,401.3c0,0,0,0.2-0.1,0.6c-0.1,0.4-0.3,1-0.9,1.5c-0.3,0.2-0.7,0.5-1.1,0.6c-0.1,0-0.2,0.1-0.4,0.1
					c-0.1,0-0.2,0-0.3,0c-0.3,0-0.5,0-0.8-0.1c-0.5-0.2-1-0.5-1.4-1c-0.4-0.5-0.6-1-0.6-1.7c0-0.2,0-0.6,0.1-0.9
					c0.1-0.3,0.2-0.6,0.4-0.8c0.4-0.5,0.9-0.8,1.4-1c0.5-0.2,1.1-0.1,1.5,0c0.5,0.1,0.8,0.3,1.1,0.6c0.6,0.5,0.8,1.1,0.9,1.5
					C767,401.1,767,401.3,767,401.3z M767,401.3c0,0,0-0.1,0-0.2c0-0.1,0-0.3-0.1-0.5c-0.1-0.4-0.4-0.9-1-1.2
					c-0.3-0.1-0.7-0.2-1-0.2c-0.4,0-0.7,0.2-1,0.3c-0.3,0.2-0.5,0.5-0.7,0.8c-0.1,0.1-0.1,0.3-0.2,0.5c0,0.2,0,0.2-0.1,0.5
					c0,0.2,0.1,0.6,0.2,0.9c0.2,0.3,0.4,0.6,0.7,0.8c0.1,0.1,0.3,0.2,0.5,0.2c0.1,0,0.2,0.1,0.3,0.1c0.1,0,0.2,0,0.2,0
					c0.4,0,0.7,0,1-0.2c0.6-0.3,0.9-0.8,1-1.2c0.1-0.2,0.1-0.4,0.1-0.5C767,401.4,767,401.3,767,401.3z"/>
			</g>
			<g>
				<path class="st26" d="M774.4,408.7c0,0,0,0.2-0.1,0.6c-0.1,0.4-0.3,1-0.9,1.5c-0.3,0.2-0.7,0.5-1.1,0.6c-0.1,0-0.2,0.1-0.4,0.1
					c-0.1,0-0.2,0-0.3,0c-0.3,0-0.5,0-0.8-0.1c-0.5-0.2-1-0.5-1.4-1c-0.4-0.5-0.6-1-0.6-1.7c0-0.2,0-0.6,0.1-0.9
					c0.1-0.3,0.2-0.6,0.4-0.8c0.4-0.5,0.9-0.8,1.4-1c0.5-0.2,1.1-0.1,1.5,0c0.5,0.1,0.8,0.3,1.1,0.6c0.6,0.5,0.8,1.1,0.9,1.5
					C774.4,408.4,774.4,408.7,774.4,408.7z M774.4,408.7c0,0,0-0.1,0-0.2c0-0.1,0-0.3-0.1-0.5c-0.1-0.4-0.4-0.9-1-1.2
					c-0.3-0.1-0.7-0.2-1-0.2c-0.4,0-0.7,0.2-1,0.3c-0.3,0.2-0.5,0.5-0.7,0.8c-0.1,0.1-0.1,0.3-0.2,0.5c0,0.2,0,0.2-0.1,0.5
					c0,0.2,0.1,0.6,0.2,0.9c0.2,0.3,0.4,0.6,0.7,0.8c0.1,0.1,0.3,0.2,0.5,0.2c0.1,0,0.2,0.1,0.3,0.1c0.1,0,0.2,0,0.2,0
					c0.4,0,0.7,0,1-0.2c0.6-0.3,0.9-0.8,1-1.2c0.1-0.2,0.1-0.4,0.1-0.5C774.4,408.7,774.4,408.7,774.4,408.7z"/>
			</g>
			<g>
				<path class="st26" d="M791.9,391.3c0,0,0,0.2-0.1,0.6c-0.1,0.4-0.3,1-0.9,1.5c-0.3,0.2-0.7,0.5-1.1,0.6c-0.1,0-0.2,0.1-0.4,0.1
					c-0.1,0-0.2,0-0.3,0c-0.3,0-0.5,0-0.8-0.1c-0.5-0.2-1-0.5-1.4-1c-0.4-0.5-0.6-1.1-0.6-1.7c0-0.3,0-0.6,0.1-0.9
					c0.1-0.3,0.2-0.6,0.4-0.8c0.4-0.5,0.9-0.8,1.4-1c0.5-0.2,1.1-0.1,1.5,0c0.5,0.1,0.8,0.3,1.1,0.6c0.6,0.5,0.8,1.1,0.9,1.5
					C792,391.1,791.9,391.3,791.9,391.3z M791.9,391.3c0,0,0-0.1,0-0.2c0-0.1,0-0.3-0.1-0.5c-0.1-0.4-0.4-0.9-1-1.2
					c-0.3-0.1-0.7-0.2-1-0.2c-0.4,0-0.7,0.2-1,0.3c-0.3,0.2-0.5,0.5-0.7,0.8c-0.1,0.1-0.1,0.3-0.2,0.5c0,0.2-0.1,0.3-0.1,0.5
					c0,0.6,0.3,1.3,0.9,1.7c0.1,0.1,0.3,0.2,0.5,0.2c0.1,0,0.2,0.1,0.3,0.1c0.1,0,0.2,0,0.2,0c0.4,0,0.7,0,1-0.2
					c0.6-0.3,0.9-0.8,1-1.2c0.1-0.2,0.1-0.4,0.1-0.5C791.9,391.4,791.9,391.3,791.9,391.3z"/>
			</g>
		</g>
	</g>
</g>
<g id="group">
	<path class="st29" d="M544.7,158.4l-4.8-2.8c-1.1-0.7-2.4-1.1-3.7-1.4v-3.3c1.1-1.2,1.8-2.8,1.8-4.5v-7.3c0-3.8-3.4-6.9-7.5-6.9
		l0,0c-4.1,0-7.5,3.1-7.5,6.9v7.3c0,1.9,0.8,3.6,2.1,4.9v3.1c-0.9,0.2-1.8,0.6-2.6,1l-5.6,2.9c-1.8,0.9-2.9,2.7-2.9,4.6v3.1h33.3
		v-3.1C547.3,161.1,546.3,159.4,544.7,158.4z"/>
	<path class="st2" d="M593.2,158.4l-4.8-2.8c-1.1-0.7-2.4-1.1-3.7-1.4v-3.3c1.1-1.2,1.8-2.8,1.8-4.5v-7.3c0-3.8-3.4-6.9-7.5-6.9l0,0
		c-4.1,0-7.5,3.1-7.5,6.9v7.3c0,1.9,0.8,3.6,2.1,4.9v3.1c-0.9,0.2-1.8,0.6-2.6,1l-5.6,2.9c-1.8,0.9-2.9,2.7-2.9,4.6v3.1h33.3v-3.1
		C595.8,161.1,594.8,159.4,593.2,158.4z"/>
	<path class="st25" d="M572.9,156.3l-6.2-3.6c-1.5-0.8-3-1.4-4.7-1.8v-4.3c1.4-1.6,2.3-3.6,2.3-5.8v-9.4c0-4.9-4.3-8.9-9.7-8.9l0,0
		c-5.3,0-9.7,4-9.7,8.9v9.5c0,2.4,1.1,4.6,2.8,6.3v4c-1.2,0.3-2.3,0.7-3.3,1.3l-7.3,3.8c-2.3,1.2-3.7,3.5-3.7,5.9v4h42.9v-4
		C576.3,159.7,575,157.6,572.9,156.3z"/>
	<g>
		<path class="st26" d="M514.6,170.7l-0.2-2.4l-0.1-1.2c0-0.4-0.1-0.8,0-1.3c0.1-0.9,0.4-1.7,0.9-2.4c0.5-0.7,1-1.4,1.7-2
			c0.3-0.3,0.7-0.5,1-0.7l1-0.6l2-1.3l4-2.6l-0.3,0.6v-4.7l0.3,0.6c-0.4-0.4-0.7-0.8-1-1.3c-0.3-0.5-0.5-1-0.6-1.6l-0.1-1.5
			c0-0.5-0.1-1-0.1-1.5c-0.1-1-0.1-2,0-3c0.1-0.5,0.1-1,0.2-1.5c0.1-0.5,0.1-1,0.3-1.5c0.1-0.5,0.3-1,0.5-1.5l0.3-0.7
			c0.1-0.2,0.3-0.4,0.4-0.7c0.1-0.2,0.3-0.5,0.4-0.7l0.5-0.6c0.2-0.2,0.3-0.4,0.5-0.6l0.6-0.5c0.4-0.4,0.9-0.6,1.3-0.8
			c0.2-0.1,0.5-0.2,0.7-0.3l0.7-0.2c0.5-0.1,1-0.3,1.5-0.3l1.5-0.2l-0.1,0c0.3,0,0.5,0,0.8,0c0.2,0,0.5,0,0.7,0
			c0.5,0,0.9,0.1,1.4,0.2c0.5,0.1,0.9,0.3,1.3,0.5l0.6,0.3l0.6,0.4c0.2,0.1,0.4,0.3,0.6,0.4c0.2,0.1,0.4,0.3,0.5,0.5l0.5,0.5
			l0.4,0.6c0.3,0.4,0.5,0.8,0.8,1.2c0.2,0.4,0.4,0.8,0.6,1.2l0,0.1l0,0.1c0.3,1.8,0.4,3.5,0.5,5.3c0,0.9-0.1,1.8-0.1,2.7
			c-0.1,0.9-0.2,1.8-0.5,2.6l0-0.1c0,0.1,0,0.2-0.1,0.4c0,0.1-0.1,0.2-0.1,0.3c-0.1,0.2-0.2,0.4-0.3,0.6c-0.2,0.3-0.6,0.6-0.9,0.8
			l0.1-0.2l-0.2,2.3l-0.2-2.3l0-0.1l0.1-0.1c0.3-0.2,0.5-0.5,0.6-0.8c0.1-0.1,0.1-0.3,0.2-0.5c0-0.1,0-0.2,0-0.2c0-0.1,0-0.2,0-0.2
			l0,0l0-0.1c0.1-0.8,0.1-1.7,0-2.5c0-0.9-0.2-1.7-0.2-2.6c0-0.9-0.1-1.7-0.2-2.6c-0.1-0.8-0.2-1.7-0.3-2.5l0,0.2
			c-0.2-0.4-0.3-0.7-0.5-1.1c-0.2-0.3-0.4-0.7-0.7-1l-0.4-0.5l-0.4-0.4c-0.1-0.1-0.3-0.3-0.4-0.4c-0.2-0.1-0.3-0.3-0.5-0.4l-0.5-0.3
			L536,136c-0.4-0.2-0.7-0.3-1.1-0.4c-0.4-0.1-0.8-0.2-1.1-0.2c-0.2,0-0.4,0-0.6,0c-0.2,0-0.4,0-0.5,0l-0.1,0l-1.3,0.2
			c-0.5,0-0.9,0.2-1.3,0.3l-0.6,0.2c-0.2,0.1-0.4,0.2-0.6,0.3c-0.4,0.2-0.8,0.4-1.1,0.7c-0.3,0.3-0.7,0.5-0.9,0.9l-0.4,0.5
			c-0.1,0.2-0.2,0.4-0.3,0.6c-0.1,0.2-0.2,0.4-0.3,0.6l-0.3,0.6c-0.2,0.4-0.3,0.8-0.4,1.3c-0.1,0.4-0.2,0.9-0.3,1.3
			c-0.1,0.4-0.1,0.9-0.1,1.4c-0.1,0.9-0.1,1.8,0,2.8c0,0.5,0.1,0.9,0.1,1.4l0.1,1.4c0.1,0.4,0.2,0.7,0.4,1.1
			c0.2,0.3,0.5,0.7,0.7,0.9l0.3,0.2v0.3v4.7v0.4l-0.3,0.2l-4,2.6l-2,1.3c-0.7,0.4-1.4,0.8-1.9,1.3c-0.6,0.5-1.2,0.9-1.6,1.5
			c-0.5,0.6-0.9,1.2-1,1.9c-0.1,0.3-0.1,0.7-0.1,1.1l-0.1,1.2L514.6,170.7z"/>
	</g>
	<g>
		<path class="st26" d="M535.3,170.6l-0.2-3.1l-0.1-1.6c0-0.5-0.1-1,0-1.6c0.1-1.1,0.6-2.2,1.2-3.1c0.3-0.5,0.6-0.9,1-1.4
			c0.4-0.4,0.8-0.8,1.2-1.2c0.4-0.4,0.9-0.6,1.4-0.9l1.3-0.8l2.6-1.7l5.3-3.4l-0.3,0.6v-6.2l0.3,0.6c-0.5-0.5-0.9-1-1.3-1.7
			c-0.4-0.6-0.6-1.3-0.7-2c-0.1-0.4-0.1-0.7-0.1-1l-0.1-0.9c-0.1-0.6-0.1-1.3-0.2-1.9c-0.2-2.6-0.1-5.2,0.6-7.7
			c0.2-0.6,0.4-1.3,0.6-1.9c0.2-0.6,0.5-1.2,0.9-1.8c0.3-0.6,0.7-1.1,1.2-1.6c0.5-0.5,0.9-1,1.5-1.4c0.5-0.4,1.1-0.8,1.7-1.1
			l0.9-0.4l1-0.3c0.6-0.2,1.3-0.3,1.9-0.4c0.7-0.1,1.3-0.1,2-0.2l-0.1,0c0.4,0,0.6-0.1,1-0.1c0.3,0,0.6,0,0.9,0
			c0.6,0.1,1.2,0.2,1.8,0.3c0.3,0.1,0.6,0.2,0.9,0.3c0.3,0.1,0.6,0.2,0.8,0.3l0.8,0.4l0.8,0.5c0.3,0.2,0.5,0.4,0.7,0.6
			c0.2,0.2,0.5,0.4,0.7,0.6l0.6,0.7l0.6,0.7c0.4,0.5,0.7,1,1,1.5c0.2,0.3,0.3,0.5,0.4,0.8l0.4,0.8l0,0.1l0,0.1
			c0.3,2.3,0.5,4.6,0.6,6.9c0.1,1.2,0,2.3-0.1,3.5c-0.1,1.2-0.3,2.3-0.5,3.5l0-0.1c0,0.2,0,0.3-0.1,0.4c0,0.1-0.1,0.3-0.1,0.4
			c-0.1,0.3-0.2,0.5-0.4,0.7c-0.3,0.4-0.7,0.8-1.2,1.1l0.1-0.2l-0.2,3l-0.2-3l0-0.1l0.1-0.1c0.4-0.3,0.7-0.6,0.9-1
			c0.1-0.2,0.2-0.4,0.2-0.6c0-0.1,0-0.2,0.1-0.3c0-0.1,0-0.2,0-0.3l0,0l0-0.1c0.1-1.1,0.1-2.2,0.1-3.4c0-0.6,0-1.1-0.1-1.7
			c0-0.6-0.1-1.1-0.1-1.7c0-1.1-0.1-2.3-0.2-3.4c-0.1-1.1-0.2-2.3-0.4-3.4l0,0.2l-0.3-0.7c-0.1-0.2-0.2-0.5-0.4-0.7
			c-0.3-0.4-0.5-0.9-0.9-1.3l-0.5-0.6l-0.5-0.6c-0.2-0.2-0.4-0.4-0.6-0.5c-0.2-0.2-0.4-0.3-0.6-0.5l-0.7-0.4l-0.7-0.4
			c-0.2-0.1-0.5-0.2-0.7-0.3c-0.2-0.1-0.5-0.2-0.7-0.2c-0.5-0.1-1-0.2-1.5-0.3c-0.3,0-0.5,0-0.8,0c-0.3,0-0.5,0-0.7,0l-0.1,0
			c-0.6,0.1-1.2,0.1-1.8,0.2c-0.6,0.1-1.2,0.2-1.7,0.4l-0.8,0.3l-0.8,0.4c-0.5,0.3-1,0.6-1.5,0.9c-0.5,0.4-0.9,0.8-1.3,1.2
			c-0.4,0.4-0.7,0.9-1,1.4c-0.3,0.5-0.6,1-0.8,1.6c-0.2,0.6-0.4,1.1-0.5,1.7c-0.6,2.3-0.7,4.8-0.5,7.3c0,0.6,0.1,1.2,0.2,1.9
			l0.1,0.9c0,0.4,0,0.7,0.1,0.9c0.1,0.5,0.3,1,0.6,1.5c0.3,0.5,0.7,0.9,1,1.3l0.3,0.2v0.3v6.2v0.4l-0.3,0.2l-5.3,3.4l-2.6,1.7
			l-1.3,0.8c-0.4,0.3-0.8,0.6-1.2,0.9c-0.8,0.6-1.5,1.2-2.1,2c-0.6,0.8-1.1,1.6-1.3,2.6c-0.1,0.4-0.1,1-0.1,1.5l-0.1,1.6
			L535.3,170.6z"/>
	</g>
	<g>
		<path class="st26" d="M600.9,171.1l-0.2-2.4l-0.1-1.2c0-0.4,0-0.8-0.1-1.1c-0.2-0.7-0.5-1.4-1-1.9c-0.2-0.3-0.5-0.6-0.7-0.8
			c-0.3-0.2-0.6-0.5-0.8-0.7c-0.3-0.2-0.6-0.5-0.9-0.7l-1-0.7l-2-1.3l-4-2.6l-0.3-0.2V157v-4.8v-0.3l0.2-0.2c0.3-0.3,0.5-0.6,0.7-1
			c0.2-0.4,0.3-0.7,0.4-1.1c0-0.1,0-0.2,0-0.3l0-0.4l0.1-0.7c0-0.5,0.1-0.9,0.1-1.4c0.1-1.9,0.1-3.8-0.4-5.5
			c-0.2-0.9-0.5-1.7-0.9-2.5c-0.2-0.4-0.5-0.7-0.7-1.1c-0.3-0.3-0.6-0.6-0.9-0.9l-0.5-0.4l-0.6-0.3c-0.4-0.2-0.8-0.4-1.2-0.5
			c-0.4-0.1-0.9-0.2-1.3-0.3c-0.4-0.1-0.9-0.1-1.3-0.1l-0.1,0l0,0c-0.1,0-0.3,0-0.5,0c-0.2,0-0.4,0-0.6,0c-0.4,0-0.8,0.1-1.1,0.2
			c-0.2,0.1-0.4,0.1-0.5,0.2c-0.2,0.1-0.4,0.1-0.5,0.2c-0.3,0.2-0.7,0.4-1,0.6c-0.2,0.1-0.3,0.2-0.4,0.4c-0.2,0.1-0.3,0.3-0.4,0.4
			c-0.3,0.3-0.5,0.6-0.7,0.9c-0.2,0.3-0.4,0.7-0.6,1c-0.2,0.4-0.3,0.7-0.5,1.1l0-0.2c-0.1,0.9-0.2,1.7-0.3,2.6
			c-0.1,0.9-0.1,1.7-0.2,2.6c0,0.9-0.1,1.7-0.2,2.6c0,0.9,0,1.7,0,2.6l0,0.1l0,0c0,0,0,0.1,0,0.2c0,0.1,0,0.2,0,0.2
			c0,0.2,0.1,0.3,0.1,0.5c0.1,0.3,0.3,0.6,0.6,0.8l0.1,0.1l0,0.1l-0.2,2.3l-0.2-2.3l0.1,0.2c-0.4-0.2-0.7-0.5-0.9-0.8
			c-0.1-0.2-0.2-0.4-0.3-0.6c0-0.1-0.1-0.2-0.1-0.3c0-0.1,0-0.2-0.1-0.4l0,0.1c-0.2-0.9-0.3-1.8-0.5-2.7c-0.1-0.9-0.2-1.8-0.1-2.7
			c0.1-1.8,0.2-3.6,0.5-5.4l0-0.1l0-0.1c0.2-0.4,0.4-0.8,0.6-1.2c0.2-0.4,0.4-0.8,0.7-1.2c0.3-0.4,0.6-0.7,0.9-1.1
			c0.2-0.2,0.3-0.3,0.5-0.5c0.2-0.1,0.4-0.3,0.5-0.4c0.4-0.3,0.8-0.5,1.2-0.7c0.2-0.1,0.4-0.2,0.7-0.3c0.2-0.1,0.4-0.2,0.7-0.2
			c0.5-0.1,0.9-0.2,1.4-0.3c0.2,0,0.5,0,0.7,0c0.2,0,0.5,0,0.8,0l-0.1,0c0.5,0,1,0.1,1.5,0.2c0.5,0.1,1,0.2,1.5,0.4
			c0.5,0.2,1,0.4,1.5,0.6l0.7,0.4l0.6,0.5c0.4,0.3,0.8,0.7,1.1,1.1c0.3,0.4,0.6,0.9,0.9,1.3c0.5,0.9,0.8,1.9,1.1,2.9
			c0.5,2,0.5,4,0.4,6c0,0.5-0.1,1-0.1,1.5l-0.1,1.5c-0.1,0.6-0.3,1.1-0.6,1.6c-0.3,0.5-0.6,0.9-1,1.3l0.2-0.5v4.8l-0.3-0.6l4,2.6
			l2,1.3l1,0.7c0.3,0.2,0.7,0.5,1,0.8c0.3,0.3,0.6,0.6,0.9,0.9c0.3,0.3,0.5,0.7,0.7,1.1c0.4,0.8,0.7,1.6,0.8,2.5
			c0,0.5,0,0.8-0.1,1.3l-0.1,1.2L600.9,171.1z"/>
	</g>
</g>
<g id="like">
	<path class="st30" d="M664,205.6c1.2-0.4,8.8-3,8.8-10.3v-6.6c0.9-0.1,3-0.2,4.1,0.6c1,0.7,1.5,2.2,1.5,4.2v7.8
		c0,0.7,0.6,1.3,1.3,1.3h9.7c0.8,0,1.5,0.2,2.2,0.7c1.1,0.8,1.7,2.2,1.4,3.6l-2.4,15.1l0,0c-0.3,2.6-2,3.9-4.9,3.9h-18.5
		c-1.4,0-2.5-0.7-3.2-1.8"/>
	<g>
		<path class="st25" d="M659.6,223.1h-8.2c-0.3,0-0.5-0.2-0.5-0.5v-21.7c0-0.3,0.3-0.5,0.5-0.5h8.1c0.3,0,0.5,0.3,0.5,0.5v21.6
			C660.1,222.8,659.9,223.1,659.6,223.1L659.6,223.1z"/>
		<path class="st31" d="M661.9,225.2h-7.7c-0.4,0-0.7-0.3-0.7-0.7v-21.2c0-0.4,0.3-0.7,0.7-0.7h7.7c0.4,0,0.7,0.3,0.7,0.7v21.2
			C662.6,224.9,662.3,225.2,661.9,225.2z"/>
		<path class="st31" d="M662.5,204c0,0,10.2-0.9,8.7-16.5c0,0,3.6-1.5,5.3,2.3l0.2,10.1c0,0-0.1,1.5,1.8,1.7
			c1.9,0.2,9.6-0.1,9.6-0.1s3.9,0.5,2.8,5.5c-1.2,5-2,14.4-2,14.4s-0.1,3.5-4.8,3.5c-4.7,0-18.3-0.4-18.3-0.4s-3.1-0.8-3.1-1.3"/>
	</g>
</g>

<style>

	#vista_d1 #d_line1 path, #vista_d1 #d_line2 {
		stroke-dasharray: 210;
		stroke-dashoffset: 210;
	}
	#vista_d1 #d_line3, #vista_d1 #d_line4 {
		stroke-dasharray: 120;
		stroke-dashoffset: 120;
	}
	#vista_d1 #d_line5 {
		stroke-dasharray: 170;
		stroke-dashoffset: 170;
	}

	#vista_d1 #d_line1 path {
		-webkit-animation: drawingLine 1s linear 0s forwards, dashLine 0s linear 1s forwards;
		animation: drawingLine 1s linear 0s forwards, dashLine 0s linear 1s forwards;
	}
	#vista_d1 #d_line2 {
		-webkit-animation: drawingLine 1s linear 1s forwards, dashLine 0s linear 2s forwards;
		animation: drawingLine 1s linear 1s forwards, dashLine 0s linear 2s forwards;
	}
	#vista_d1 #d_line3 {
		-webkit-animation: drawingLine 0.5s linear 2s forwards, dashLine 0s linear 2.5s forwards;
		animation: drawingLine 0.5s linear 2s forwards, dashLine 0s linear 2.5s forwards;
	}
	#vista_d1 #d_line4 {
		-webkit-animation: drawingLine 0.5s linear 2.5s forwards, dashLine 0s linear 3s forwards;
		animation: drawingLine 0.5s linear 2.5s forwards, dashLine 0s linear 3s forwards;
	}
	#vista_d1 #d_line5 {
		-webkit-animation: drawingLine 0.8s linear 3s forwards, dashLine 0s linear 3.8s forwards;
		animation: drawingLine 0.8s linear 3s forwards, dashLine 0s linear 3.8s forwards;
	}

	#vista_d1 #cards, #vista_d1 #bell, #vista_d1 #gears, #vista_d1 #group, #vista_d1 #like, #vista_d1 #graph {
		-webkit-transform-origin: 50% 50%;
		-webkit-transform: scale(0);
		transform-origin: 50% 50%;
		transform: scale(0);
	}

	#vista_d1 #cards {
		-webkit-animation: scaleElement 1s linear 0s forwards;
		animation: scaleElement 1s linear 0s forwards;
	}
	#vista_d1 #bell {
		-webkit-animation: scaleElement 1s linear 0.5s forwards;
		animation: scaleElement 1s linear 0.5s forwards;
	}
	#vista_d1 #gears {
		-webkit-animation: scaleElement 1s linear 1s forwards;
		animation: scaleElement 1s linear 1s forwards;
	}
	#vista_d1 #group {
		-webkit-animation: scaleElement 1s linear 1.5s forwards;
		animation: scaleElement 1s linear 1.5s forwards;
	}
	#vista_d1 #like {
		-webkit-animation: scaleElement 1s linear 2s forwards;
		animation: scaleElement 1s linear 2s forwards;
	}
	#vista_d1 #graph {
		-webkit-animation: scaleElement 1s linear 2.5s forwards;
		animation: scaleElement 1s linear 2.5s forwards;
	}


	#vista_d1 #star1 {
		-webkit-animation: blinkStar 1s ease-out 0s alternate infinite;
		animation: blinkStar 1s ease-out 0s alternate infinite;
	}
	#vista_d1 #star2 {
		-webkit-animation: blinkStar 1s ease-out 1s alternate infinite;
		animation: blinkStar 1s ease-out 1s alternate infinite;
	}
	#vista_d1 #star3 {
		-webkit-animation: blinkStar 1s ease-out 0.5s alternate infinite;
		animation: blinkStar 1s ease-out 0.5s alternate infinite;
	}


	@-webkit-keyframes drawingLine {
		to {
			stroke-dashoffset: 0;
		}
	}

	@-webkit-keyframes dashLine {
		to {
			stroke-dasharray: 5;
		}
	}

	@-webkit-keyframes scaleElement {
		to {
			-webkit-transform: scale(1);
			transform: scale(1);
		}
	}

	@-webkit-keyframes blinkStar {
		0% {
	    opacity: 1;
	  }
		100% {
			 opacity: 0;
		}
	}


	@keyframes drawingLine {
		to {
			stroke-dashoffset: 0;
		}
	}

	@keyframes dashLine {
		to {
			stroke-dasharray: 5;
		}
	}

	@keyframes scaleElement {
		to {
			transform: scale(1);
		}
	}

	@keyframes blinkStar {
		0% {
	    opacity: 1;
	  }
		100% {
			 opacity: 0;
		}
	}

</style>

</svg>
