<?xml version="1.0" encoding="utf-8"?>
<!-- Generator: Adobe Illustrator 19.0.0, SVG Export Plug-In . SVG Version: 6.00 Build 0)  -->
<svg version="1.1" id="vista_d5" xmlns="http://www.w3.org/2000/svg" xmlns:xlink="http://www.w3.org/1999/xlink" x="0px"
	 y="0px" viewBox="0 0 842.5 624" style="enable-background:new 0 0 842.5 624;" xml:space="preserve">
<style type="text/css">
	.st0{fill:#EFF4F7;}
	.st1{fill:url(#SVGID_1_);}
	.st2{fill:none;stroke:#1B5FC1;stroke-width:1.5365;stroke-linecap:round;stroke-miterlimit:10;stroke-dasharray:5.3776;}
	.st3{fill:#FFFFFF;}
	.st4{fill:none;stroke:#1B5FC1;stroke-width:0.9537;stroke-miterlimit:10;}
	.st5{fill:#303F9F;}
	.st6{fill:#F9D45F;}
	.st7{fill:#D5E7EF;}
	.st8{fill:#EDB908;}
	.st9{fill:#1BB15B;}
	.st10{fill:#CF343A;}
	.st11{fill:#4CAF50;}
	.st12{fill:#FFC107;}
	.st13{fill:#F44336;}
	.st14{fill:#DD2C00;}
	.st15{fill:#F9A825;}
	.st16{fill:#558B2F;}
	.st17{fill:#2196F3;}
	.st18{fill:#BBDEFB;}
	.st19{fill:#1565C0;}
	.st20{fill:#E3F2FD;}
	.st21{fill:#43A047;}
	.st22{fill:#C8E6C9;}
	.st23{fill:#2E7D32;}
	.st24{fill:#E8F5E9;}
	.st25{fill:#C7C7C7;}
	.st26{fill:#1976D2;}
	.st27{fill:#1E88E5;}
	.st28{fill:#FAFAFA;}
	.st29{fill:#E0E0E0;}
	.st30{fill:#4989F5;}
	.st31{fill:url(#SVGID_2_);}
	.st32{fill:#3C4BA6;}
	.st33{fill:#7BABF7;}
	.st34{fill:#3F51B5;}
	.st35{fill:#709BE0;}
	.st36{fill:#CFD8DC;}
	.st37{fill:#BF360C;}
	.st38{fill:#FFECB3;}
	.st39{fill:#FFA000;}
</style>
<g id="bg">
	<path class="st0" d="M619.7,114.2c6.5,13.5,8.8,28.5,14,42.5c8.2,21.9,23.7,41.2,43.8,54.5c21,13.9,46.8,21.5,65.1,38.4
		c17.5,16.2,26.2,40.2,23,63.2c-4.3,30.3-27.4,62.5-10.7,88.5c9.3,14.5,27.9,20.6,42.8,30.1c26.2,16.7,42.1,46.4,41,76.2
		c-1.2,29.8-19.4,58.8-46.8,74.4c-18.6,10.6-40.5,15-62.1,16.9c-92.5,7.8-256.1-31.2-367.6-25.2c-96.8,5.2-162.9,24.6-185.5,31.4
		c-29,8.8-106.8,26.5-137.8-1.7c-48.7-44.3-29.4-109.6-2.5-135.6c33.4-32.3,50.9-82.7,30.6-122.9c-16.5-32.7-55.6-56.6-56.3-93
		c-0.6-32.4,30.6-58,62.2-71.7S140,159,166.7,138c15-11.8,26.2-27,38.3-41.3c29.2-34.4,65.8-64.5,109.6-80
		C344.1,6.2,377,3,407.7,9.2c30.3,6.2,42.1,32.1,68.8,44.6C524.2,76.2,593.7,60.3,619.7,114.2z"/>
	
		<radialGradient id="SVGID_1_" cx="418.7701" cy="324.2022" r="180.5669" gradientTransform="matrix(1 0 0 0.9 0 32.4202)" gradientUnits="userSpaceOnUse">
		<stop  offset="0" style="stop-color:#3463CF;stop-opacity:0.47"/>
		<stop  offset="1" style="stop-color:#3463CF;stop-opacity:0"/>
	</radialGradient>
	<ellipse class="st1" cx="418.8" cy="324.2" rx="201.6" ry="156.7"/>
</g>
<g id="lines">
	<path class="st2" d="M219.3,228.5h90c4.4,0,8,3.6,8,8v53"/>
	<path class="st2" d="M149.3,235.5h-35c-4.4,0-8,3.6-8,8v87c0,4.4,3.6,8,8,8h71c4.4,0,8,3.6,8,8v72"/>
	<path class="st2" d="M187.8,186v-46c0-4.4,3.6-8,8-8h121"/>
	<line class="st2" x1="372.8" y1="165" x2="372.8" y2="233"/>
	<path class="st2" d="M416.8,132h76c4.4,0,8,3.6,8,8v104c0,4.4,3.6,8,8,8h43"/>
	<path class="st2" d="M636.8,259h10c4.4,0,8,3.6,8,8v151.5"/>
	<path class="st2" d="M637.8,444h-148c-4.4,0-8,3.6-8,8v5"/>
	<path class="st2" d="M187.8,504v25c0,4.4,3.6,8,8,8h280c4.4,0,8-3.6,8-8l0,0"/>
	<path class="st2" d="M237.8,472h90c4.4,0,8-3.6,8-8v-69"/>
	<path class="st2" d="M590.8,306v38c0,4.4-3.6,8-8,8h-101"/>
	<path class="st2" d="M390.8,413v68.8c0,6.2,5,11.3,11.3,11.3h43.3"/>
</g>
<g id="cloudsstars">
	<path class="st3" d="M146,270.6L146,270.6c-5,0-9.1,4.1-9.1,9.1l0,0l0,0c0-5-4.1-9.1-9.1-9.1l0,0l0,0c5,0,9.1-4.1,9.1-9.1l0,0l0,0
		C137,266.5,141,270.6,146,270.6L146,270.6z"/>
	<path id="XMLID_27_" class="st3" d="M630,541.2l-3.4,1l3.4,1c1.4,0.4,2.5,1.5,2.9,2.9l1,3.4l1-3.4c0.4-1.4,1.5-2.5,2.9-2.9l3.4-1
		l-3.4-1c-1.4-0.4-2.5-1.5-2.9-2.9l-1-3.4l-1,3.4C632.5,539.7,631.4,540.8,630,541.2z"/>
	<g>
		<path class="st4" d="M664.7,207.2L664.7,207.2c-5,0-9.1,4.1-9.1,9.1l0,0l0,0c0-5-4.1-9.1-9.1-9.1l0,0l0,0c5,0,9.1-4.1,9.1-9.1l0,0
			l0,0C655.6,203.2,659.7,207.2,664.7,207.2L664.7,207.2z"/>
		<path class="st4" d="M322.7,434.2L322.7,434.2c-5,0-9.1,4.1-9.1,9.1l0,0l0,0c0-5-4.1-9.1-9.1-9.1l0,0l0,0c5,0,9.1-4.1,9.1-9.1l0,0
			l0,0C313.6,430.2,317.7,434.2,322.7,434.2L322.7,434.2z"/>
		<circle class="st4" cx="499" cy="52.2" r="1.9"/>
		<circle class="st4" cx="62.4" cy="359.8" r="1.9"/>
		<circle class="st4" cx="232" cy="619.2" r="1.9"/>
		<g id="stars">
			<path id="star4" class="st5" d="M156.5,104.9l-3.4,1l3.4,1c1.4,0.4,2.5,1.5,2.9,2.9l1,3.4l1-3.4c0.4-1.4,1.5-2.5,2.9-2.9l3.4-1
				l-3.4-1c-1.4-0.4-2.5-1.5-2.9-2.9l-1-3.4l-1,3.4C159,103.4,157.9,104.5,156.5,104.9z"/>
			<path id="star3" class="st5" d="M571.7,604.1l-3.4,1l3.4,1c1.4,0.4,2.5,1.5,2.9,2.9l1,3.4l1-3.4c0.4-1.4,1.5-2.5,2.9-2.9l3.4-1
				l-3.4-1c-1.4-0.4-2.5-1.5-2.9-2.9l-1-3.4l-1,3.4C574.2,602.6,573.1,603.7,571.7,604.1z"/>
			<path id="star2" class="st6" d="M688,108.2l-3.4,1l3.4,1c1.4,0.4,2.5,1.5,2.9,2.9l1,3.4l1-3.4c0.4-1.4,1.5-2.5,2.9-2.9l3.4-1
				l-3.4-1c-1.4-0.4-2.5-1.5-2.9-2.9l-1-3.4l-1,3.4C690.5,106.7,689.4,107.8,688,108.2z"/>
			<path id="star1" class="st6" d="M22,435.2l-3.4,1l3.4,1c1.4,0.4,2.5,1.5,2.9,2.9l1,3.4l1-3.4c0.4-1.4,1.5-2.5,2.9-2.9l3.4-1
				l-3.4-1c-1.4-0.4-2.5-1.5-2.9-2.9l-1-3.4l-1,3.4C24.5,433.7,23.4,434.8,22,435.2z"/>
		</g>
		<path id="XMLID_6_" class="st3" d="M68,521.2l-3.4,1l3.4,1c1.4,0.4,2.5,1.5,2.9,2.9l1,3.4l1-3.4c0.4-1.4,1.5-2.5,2.9-2.9l3.4-1
			l-3.4-1c-1.4-0.4-2.5-1.5-2.9-2.9l-1-3.4l-1,3.4C70.5,519.7,69.4,520.8,68,521.2z"/>
		<g>
			<path class="st7" d="M276,351.7h-13.6c-2-8.9-10-15.6-19.6-15.6c0,0,0,0-0.1,0c-1.6-7.7-8.5-13.5-16.6-13.5c-2.6,0-5,0.6-7.2,1.6
				c-3.5-8.5-11.9-14.5-21.7-14.5c-13,0-23.5,10.5-23.5,23.5v0.1c-0.7-0.1-1.5-0.1-2.2-0.1c-9.4,0-17,7.6-17,17c0,0.5,0,1,0.1,1.5
				h-0.4c-12.5,0-22.7,10.2-22.7,22.7l0,0h167.2l0,0C298.8,361.9,288.6,351.7,276,351.7z M213.1,350.5c0.3,0.4,0.7,0.8,1.1,1.2h-2.5
				C212.2,351.3,212.7,350.9,213.1,350.5z"/>
			<path class="st7" d="M470,522.7h-13.6c-2-8.9-10-15.6-19.6-15.6c0,0,0,0-0.1,0c-1.6-7.7-8.5-13.5-16.6-13.5c-2.6,0-5,0.6-7.2,1.6
				c-3.5-8.5-11.9-14.5-21.7-14.5c-13,0-23.5,10.5-23.5,23.5v0.1c-0.7-0.1-1.5-0.1-2.2-0.1c-9.4,0-17,7.6-17,17c0,0.5,0,1,0.1,1.5
				h-0.4c-12.5,0-22.7,10.2-22.7,22.7l0,0h167.2l0,0C492.8,532.9,482.6,522.7,470,522.7z M407.1,521.5c0.3,0.4,0.7,0.8,1.1,1.2h-2.5
				C406.2,522.3,406.7,521.9,407.1,521.5z"/>
			<path class="st7" d="M461.6,173.4L461.6,173.4H591l0,0c0-9.7-7.9-17.6-17.6-17.6h-0.3c0-0.4,0.1-0.8,0.1-1.2
				c0-7.3-5.9-13.2-13.2-13.2c-0.6,0-1.1,0-1.7,0.1v-0.1c0-10-8.1-18.2-18.2-18.2c-7.6,0-14.1,4.6-16.8,11.3
				c-1.7-0.8-3.6-1.2-5.6-1.2c-6.3,0-11.6,4.5-12.9,10.4l0,0c-7.4,0-13.6,5.2-15.1,12.1h-10.5C469.5,155.8,461.6,163.7,461.6,173.4z
				 M529,155.8h-1.9c0.3-0.3,0.6-0.6,0.8-0.9C528.2,155.2,528.6,155.5,529,155.8z"/>
			<path class="st7" d="M559.6,380.6L559.6,380.6h157.2l0,0c0-11.8-9.6-21.4-21.4-21.4H695c0-0.5,0.1-0.9,0.1-1.4
				c0-8.8-7.2-16-16-16c-0.7,0-1.4,0-2.1,0.1v-0.1c0-12.2-9.9-22.1-22.1-22.1c-9.2,0-17.1,5.6-20.4,13.7c-2-1-4.3-1.5-6.7-1.5
				c-7.7,0-14.1,5.4-15.6,12.7l0,0c-9,0-16.5,6.3-18.4,14.7H581C569.2,359.2,559.6,368.8,559.6,380.6z M641.4,359.2h-2.3
				c0.4-0.4,0.7-0.7,1-1.1C640.5,358.5,641,358.9,641.4,359.2z"/>
			<path class="st3" d="M264,355.7h-13.6c-2-8.9-10-15.6-19.6-15.6c0,0,0,0-0.1,0c-1.6-7.7-8.5-13.5-16.6-13.5c-2.6,0-5,0.6-7.2,1.6
				c-3.5-8.5-11.9-14.5-21.7-14.5c-13,0-23.5,10.5-23.5,23.5v0.1c-0.7-0.1-1.5-0.1-2.2-0.1c-9.4,0-17,7.6-17,17c0,0.5,0,1,0.1,1.5
				h-0.4c-12.5,0-22.7,10.2-22.7,22.7l0,0h167.2l0,0C286.8,365.9,276.6,355.7,264,355.7z M201.1,354.5c0.3,0.4,0.7,0.8,1.1,1.2h-2.5
				C200.2,355.3,200.7,354.9,201.1,354.5z"/>
			<path class="st3" d="M458,526.7h-13.6c-2-8.9-10-15.6-19.6-15.6c0,0,0,0-0.1,0c-1.6-7.7-8.5-13.5-16.6-13.5c-2.6,0-5,0.6-7.2,1.6
				c-3.5-8.5-11.9-14.5-21.7-14.5c-13,0-23.5,10.5-23.5,23.5v0.1c-0.7-0.1-1.5-0.1-2.2-0.1c-9.4,0-17,7.6-17,17c0,0.5,0,1,0.1,1.5
				h-0.4c-12.5,0-22.7,10.2-22.7,22.7l0,0h167.2l0,0C480.8,536.9,470.6,526.7,458,526.7z M395.1,525.5c0.3,0.4,0.7,0.8,1.1,1.2h-2.5
				C394.2,526.3,394.7,525.9,395.1,525.5z"/>
			<path class="st3" d="M449.6,177.4L449.6,177.4H579l0,0c0-9.7-7.9-17.6-17.6-17.6h-0.3c0-0.4,0.1-0.8,0.1-1.2
				c0-7.3-5.9-13.2-13.2-13.2c-0.6,0-1.1,0-1.7,0.1v-0.1c0-10-8.1-18.2-18.2-18.2c-7.6,0-14.1,4.6-16.8,11.3
				c-1.7-0.8-3.6-1.2-5.6-1.2c-6.3,0-11.6,4.5-12.9,10.4l0,0c-7.4,0-13.6,5.2-15.1,12.1h-10.5C457.5,159.8,449.6,167.7,449.6,177.4z
				 M517,159.8h-1.9c0.3-0.3,0.6-0.6,0.8-0.9C516.2,159.2,516.6,159.5,517,159.8z"/>
			<path class="st3" d="M547.6,384.6L547.6,384.6h157.2l0,0c0-11.8-9.6-21.4-21.4-21.4H683c0-0.5,0.1-0.9,0.1-1.4
				c0-8.8-7.2-16-16-16c-0.7,0-1.4,0-2.1,0.1v-0.1c0-12.2-9.9-22.1-22.1-22.1c-9.2,0-17.1,5.6-20.4,13.7c-2-1-4.3-1.5-6.7-1.5
				c-7.7,0-14.1,5.4-15.6,12.7l0,0c-9,0-16.5,6.3-18.4,14.7H569C557.2,363.2,547.6,372.8,547.6,384.6z M629.4,363.2h-2.3
				c0.4-0.4,0.7-0.7,1-1.1C628.5,362.5,629,362.9,629.4,363.2z"/>
		</g>
	</g>
	<path id="XMLID_3_" class="st3" d="M609.5,313.9l-3.4,1l3.4,1c1.4,0.4,2.5,1.5,2.9,2.9l1,3.4l1-3.4c0.4-1.4,1.5-2.5,2.9-2.9l3.4-1
		l-3.4-1c-1.4-0.4-2.5-1.5-2.9-2.9l-1-3.4l-1,3.4C612,312.4,610.9,313.5,609.5,313.9z"/>
	<path id="XMLID_1_" class="st3" d="M450.4,104.2l-3.4,1l3.4,1c1.4,0.4,2.5,1.5,2.9,2.9l1,3.4l1-3.4c0.4-1.4,1.5-2.5,2.9-2.9l3.4-1
		l-3.4-1c-1.4-0.4-2.5-1.5-2.9-2.9l-1-3.4l-1,3.4C452.9,102.7,451.8,103.8,450.4,104.2z"/>
</g>
<g id="icons">
	<g id="XMLID_92_">
		<path id="XMLID_102_" class="st8" d="M288.7,487c-0.9-0.6-1.4-1.5-1.4-2.5V482l-1.4,2.1c-0.6,0.9-1.5,1.4-2.5,1.4h-2.5l2.1,1.4
			c0.9,0.6,1.4,1.5,1.4,2.5v2.5l1.4-2.1c0.6-0.9,1.5-1.4,2.5-1.4h2.5L288.7,487z"/>
		<path id="XMLID_99_" class="st8" d="M277.5,488.5c-0.5-0.1-1.1-0.1-1.7,0c-1.4,0.2-2.8,0.6-4.3,1.5c-1.7,1-3.2,2.4-4.5,4.1
			c-0.2-0.7-0.3-1.4-0.4-2.1c-0.2-1.1-0.1-2,0.1-2.9l1.1-3.8c0.7-2.5,1.4-5,2.2-7.5v-0.2c0.2-0.7,0.4-1.4,0.5-2.1
			c0.1-1-0.2-1.9-1-2.5c-0.8-0.7-1.9-0.9-2.9-0.6s-1.7,1-2,2.1l-4,11.4c0-1.9,0.1-3.7,0.1-5.6V479c0-0.9,0-1.8,0-2.7V475
			c0-0.2,0-0.5,0-0.7c0-0.8,0-1.7-0.1-2.6c-0.1-0.9-0.6-1.8-1.4-2.3c-0.8-0.5-1.8-0.7-2.6-0.4c-1,0.3-1.7,1-2.1,2.2
			c-0.2,0.7-0.3,1.5-0.3,2.1c0,1.7-0.1,3.4-0.1,5.1v2.6l0,0l-0.1,3.7c-0.4-1.4-0.8-2.9-1.2-4.3c-0.5-1.7-1-3.5-1.5-5.2v-0.1
			c-0.2-0.6-0.3-1.2-0.6-1.8c-0.6-1.2-1.6-1.9-2.9-1.8c-1,0.1-1.8,0.6-2.1,1.6c0,0.1-0.1,0.2-0.1,0.3c-0.3,1.2-0.3,2.3,0,3.5
			c0.5,2.2,1,4.3,1.5,6.5c0.3,1.1,0.5,2.1,0.8,3.2c-0.4-0.7-0.9-1.3-1.3-2l-1.9-3c-0.4-0.6-0.8-1.2-1.3-1.9
			c-0.4-0.5-0.9-0.9-1.5-1.1c-0.9-0.3-1.9-0.2-2.6,0.4c-0.7,0.6-1.1,1.5-1,2.4c0.1,0.8,0.4,1.7,0.8,2.5c0.5,0.9,1,1.8,1.4,2.6
			l0.3,0.6c0.7,1.2,1.3,2.3,2,3.5l1.3,2.3c0.2,0.3,0.3,0.6,0.3,0.9l0.1,1.4c0,0.8,0.1,1.7,0.1,2.5c0.1,2.6,0.6,5.1,1.6,7.4
			c0.8,1.9,1.8,3.3,3.1,4.4l0.1,0.1c0.1,0.1,0.1,0.1,0.2,0.1c0,0,0,0.1,0,0.2l-0.2,5.4h14.8v-0.9c-0.1-1.8-0.1-3.5-0.2-5.3
			c0.4-0.2,0.7-0.5,1.1-0.7c0.2-0.1,0.4-0.3,0.7-0.4c0.5-0.3,1.1-0.7,1.6-1.1c1.7-1.4,3-3.1,4-5.3c0.7-1.5,1.3-2.6,2-3.6
			c1.4-2.1,3.1-3.6,5-4.5c0.7-0.4,1.2-1,1.4-1.9c0.1-0.5,0.1-1-0.2-1.4C279,488.9,278.1,488.5,277.5,488.5z M278.1,491.1
			c-0.1,0.5-0.3,0.6-0.5,0.7c-2.2,1.1-4.1,2.8-5.7,5.1c-0.7,1.1-1.4,2.3-2.1,3.9c-0.9,1.9-2,3.5-3.5,4.7c-0.4,0.4-0.9,0.7-1.5,1
			c-0.2,0.1-0.5,0.3-0.7,0.4c-0.4,0.3-0.8,0.5-1.2,0.8c-0.5,0.3-0.7,0.7-0.7,1.3c0.1,1.5,0.1,3.1,0.2,4.6h-11.2l0.1-3.6
			c0-0.9-0.1-1.1-0.8-1.7l-0.1-0.1c-1-0.9-1.9-2.1-2.6-3.8c-0.9-2.1-1.4-4.4-1.5-6.7c0-0.9-0.1-1.7-0.1-2.6l-0.1-1.4
			c0-0.5-0.2-1.1-0.5-1.6l-1.3-2.3c-0.7-1.2-1.3-2.3-2-3.5l-0.3-0.6c-0.5-0.8-1-1.7-1.4-2.6c-0.4-0.7-0.6-1.3-0.6-1.9
			c0-0.4,0.1-0.7,0.3-0.9c0.2-0.2,0.6-0.2,0.9-0.1c0.3,0.1,0.5,0.2,0.6,0.5c0.4,0.6,0.8,1.2,1.2,1.8l1.9,3c1,1.6,2.1,3.2,3.1,4.8
			c0.2,0.3,0.6,0.6,1.1,0.6c0.3,0,0.6-0.2,0.8-0.4s0.3-0.6,0.2-0.9v-0.1c-0.1-0.4-0.1-0.9-0.2-1.3c-0.4-1.7-0.8-3.4-1.2-5.2
			c-0.5-2.2-1-4.3-1.5-6.5c-0.2-0.9-0.2-1.9,0-2.8c0,0,0-0.1,0.1-0.2c0.1-0.3,0.2-0.4,0.6-0.4c0.6,0,1,0.2,1.2,0.8
			c0.2,0.5,0.4,1,0.5,1.5v0.1c0.5,1.7,1,3.5,1.5,5.2c0.6,2.2,1.3,4.5,1.9,6.7c0.1,0.3,0.3,0.6,0.4,0.8v0.1c0.3,0.4,0.9,0.6,1.4,0.4
			c0.3-0.1,0.7-0.4,0.7-1.1v-0.2c0-0.4,0-0.8,0-1.2l0.1-6.9l0,0v-0.9c0-1.7,0.1-3.4,0.1-5c0-0.4,0-1,0.2-1.6c0.2-0.6,0.5-0.9,1-1
			c0.3-0.1,0.7,0,1.2,0.2c0.3,0.2,0.6,0.5,0.6,1c0.1,0.8,0.1,1.5,0,2.3c0,0.2,0,0.5,0,0.7v1.3c0,0.9,0,1.8,0,2.7v1.3
			c0,2-0.1,4.1-0.1,6.1c0,0.8,0.3,1.4,0.9,1.9c0.4,0.3,0.8,0.3,1,0.3c0.2,0,0.6-0.2,0.8-0.6c0.1-0.1,0.2-0.3,0.2-0.5l4.4-12.3
			c0.2-0.5,0.5-0.8,0.9-1c0.3-0.1,0.8,0,1.2,0.3c0.3,0.3,0.4,0.6,0.4,1c-0.1,0.6-0.3,1.2-0.4,1.9v0.2c-0.7,2.5-1.4,5-2.2,7.5
			l-1.1,3.8c-0.3,1.1-0.4,2.3-0.2,3.6c0.1,0.8,0.3,1.6,0.5,2.4c0.1,0.4,0.2,0.7,0.4,0.9l0.1,0.2c0.2,0.4,0.5,0.6,0.9,0.7
			c0.4,0,0.8-0.1,1.1-0.5c0.1-0.1,0.2-0.2,0.2-0.3l0.1-0.1c1.2-1.8,2.6-3.1,4.2-4c1.3-0.7,2.5-1.1,3.6-1.3c0.5-0.1,0.9-0.1,1.3,0
			l0,0c0.2,0,0.5,0.1,0.8,0.7C278.1,490.9,278.1,491,278.1,491.1z"/>
		<path id="XMLID_98_" class="st8" d="M262.3,495c-5.2,2.3-4.9,9.2-4.9,9.4c0,0.5,0.4,0.8,0.9,0.8l0,0c0.5,0,0.8-0.4,0.8-0.9
			c0-0.1-0.2-5.9,3.9-7.8c0.4-0.2,0.6-0.7,0.4-1.1C263.2,495,262.7,494.8,262.3,495z"/>
		<path id="XMLID_97_" class="st8" d="M269.5,465.1c6.9,3.5,11.8,9.8,13.5,17.4c0.1,0.4,0.4,0.6,0.8,0.6c0.1,0,0.1,0,0.2,0
			c0.4-0.1,0.7-0.5,0.6-1c-1.7-8-7-14.8-14.3-18.5c-0.4-0.2-0.9,0-1.1,0.4S269.1,464.9,269.5,465.1z"/>
		<path id="XMLID_96_" class="st8" d="M246.3,465.1c0.1,0,0.2,0,0.4-0.1c1.9-0.9,3.9-1.6,6-2.1c4.4-1,9-0.7,13.2,0.6
			c0.4,0.1,0.9-0.1,1-0.5s-0.1-0.9-0.5-1c-4.5-1.5-9.4-1.7-14.1-0.7c-2.2,0.5-4.4,1.2-6.4,2.2c-0.4,0.2-0.6,0.7-0.4,1.1
			C245.7,464.9,246,465.1,246.3,465.1z"/>
		<path id="XMLID_95_" class="st8" d="M242.7,467.5c0.4-0.3,0.4-0.8,0.2-1.1c-0.3-0.4-0.8-0.4-1.1-0.2c-4.9,3.7-8.4,8.9-9.9,14.8
			c-0.1,0.4,0.1,0.9,0.6,1c0.1,0,0.1,0,0.2,0c0.4,0,0.7-0.2,0.8-0.6C234.8,475.9,238.1,470.9,242.7,467.5z"/>
		<path id="XMLID_94_" class="st8" d="M231.8,489.7c0.5,0,0.8-0.4,0.8-0.8c0-1.1,0-2.3,0.1-3.4c0-0.4-0.3-0.9-0.7-0.9
			c-0.5,0-0.9,0.3-0.9,0.7c-0.1,1.2-0.2,2.4-0.1,3.7C230.9,489.3,231.3,489.7,231.8,489.7C231.7,489.7,231.7,489.7,231.8,489.7z"/>
		<path id="XMLID_93_" class="st8" d="M232.9,492.1c-0.1-0.4-0.5-0.7-0.9-0.7c-0.4,0.1-0.7,0.5-0.7,0.9c0.1,0.4,0.1,0.8,0.2,1.2
			c0.1,0.4,0.4,0.6,0.8,0.6c0.1,0,0.1,0,0.2,0c0.4-0.1,0.7-0.5,0.6-1C233,492.9,233,492.5,232.9,492.1z"/>
	</g>
	<g>
		<g>
			<path id="XMLID_89_" class="st5" d="M78.5,203.9c-0.9,0-21.7,0-21.7-4.2v-15.3c0-12.4,9.7-22.5,21.7-22.5s21.7,10.1,21.7,22.5
				v15.3C100.1,203.9,79.4,203.9,78.5,203.9z M58.2,199.7c0.5,1,7.6,2.7,20.2,2.7s19.8-1.8,20.2-2.7v-15.2c0-11.6-9.1-21-20.2-21
				s-20.2,9.4-20.2,21L58.2,199.7z"/>
			<path id="XMLID_84_" class="st5" d="M78.5,195.8c-0.9,0-21.7,0-21.7-4.2c0-4.1,20.8-4.2,21.7-4.2s21.7,0,21.7,4.2
				C100.1,195.8,79.4,195.8,78.5,195.8z M58.3,191.7c0.6,1,7.7,2.7,20.2,2.7s19.6-1.7,20.2-2.7c-0.6-1-7.7-2.7-20.2-2.7
				S58.8,190.7,58.3,191.7z"/>
			<path class="st5" d="M73.3,174.6l-1.1,0.3l1.1,0.3c0.5,0.1,0.8,0.5,1,1l0.3,1.1l0.3-1.1c0.1-0.5,0.5-0.8,1-1l1.1-0.3l-1.1-0.3
				c-0.5-0.1-0.8-0.5-1-1l-0.3-1.1l-0.3,1.1C74.1,174.1,73.8,174.5,73.3,174.6z"/>
			<path class="st5" d="M79.7,169.8l-1.4,0.4l1.4,0.4c0.6,0.2,1,0.6,1.2,1.2l0.4,1.4l0.4-1.4c0.2-0.6,0.6-1,1.2-1.2l1.4-0.4
				l-1.4-0.4c-0.6-0.2-1-0.6-1.2-1.2l-0.4-1.4l-0.4,1.4C80.7,169.2,80.2,169.6,79.7,169.8z"/>
			<path id="XMLID_77_" class="st5" d="M67.8,181.4L67.8,181.4c1.1,0,2.1,0,3,0c0.1,0,0.1,0,0.1,0.1c0.1,1-0.1,1.9-0.7,2.7
				c-0.4,0.5-0.9,0.7-1.6,0.9c-0.6,0.1-1.3,0.1-1.9-0.1c-1.5-0.5-2.5-1.8-2.4-3.3c0-1,0.4-1.8,1.1-2.4c1.2-1.1,3.1-1.2,4.4-0.2
				c0.1,0.1,0.2,0.2,0.3,0.2c-0.2,0.2-0.4,0.5-0.6,0.7c-0.2-0.1-0.3-0.2-0.4-0.3c-1.2-0.7-2.8-0.3-3.4,1c-0.4,0.9-0.4,1.7,0.1,2.5
				s1.3,1.2,2.3,1.1c0.5,0,0.9-0.2,1.3-0.5c0.4-0.3,0.7-0.9,0.7-1.4c-0.7,0-1.5,0-2.2,0C67.8,182,67.8,181.7,67.8,181.4z"/>
			<path id="XMLID_72_" class="st5" d="M84.9,184.6c-0.1,0.1-0.2,0.2-0.3,0.2c-0.3,0.2-0.7,0.3-1,0.3c-0.8-0.1-1.6-0.6-1.9-1.5
				c-0.3-1,0.1-2.2,1-2.7c0.5-0.3,1.1-0.3,1.6-0.1c0.2,0.1,0.3,0.2,0.5,0.3c0,0,0,0,0.1,0.1c0-0.1,0-0.2,0-0.4c0.3,0,0.6,0,0.9,0
				c0,0,0,0,0,0.1c0,1.3,0,2.7,0,4c0,0.4-0.1,0.8-0.3,1.2c-0.3,0.6-0.8,0.9-1.4,0.9c-0.5,0.1-1,0-1.4-0.2c-0.4-0.2-0.7-0.6-0.9-1
				l0,0c0.3-0.1,0.6-0.2,0.8-0.3v0.1c0.2,0.4,0.5,0.6,0.9,0.7c0.6,0.1,1.2-0.3,1.3-1C84.9,185,84.9,184.8,84.9,184.6z M85,183
				c0-0.1,0-0.2,0-0.3s0-0.2-0.1-0.3c-0.2-0.4-0.5-0.7-0.9-0.8c-0.5-0.1-0.8,0.1-1.1,0.5c-0.3,0.5-0.4,1.2,0,1.7
				c0.4,0.6,1.3,0.7,1.8,0.1C84.9,183.6,85,183.3,85,183z"/>
			<path id="XMLID_67_" class="st5" d="M73.8,180.8c0.7,0,1.3,0.3,1.8,1c0.6,1,0.4,2.7-1.1,3.2c-1,0.4-2.2,0.1-2.7-1
				c-0.6-1.1-0.1-2.6,1.1-3.1C73.1,180.8,73.4,180.8,73.8,180.8z M72.5,183c0,0.1,0,0.2,0,0.2c0,0.1,0,0.1,0.1,0.2
				c0.3,0.9,1.4,1.2,2.1,0.5c0.3-0.4,0.4-0.8,0.3-1.3c-0.2-0.8-1.1-1.2-1.8-0.8C72.7,182,72.5,182.4,72.5,183z"/>
			<path id="XMLID_62_" class="st5" d="M78.8,180.8c0.8,0,1.5,0.3,1.9,1c0.6,1,0.4,2.7-1.1,3.2c-0.9,0.3-2.1,0.1-2.7-0.9
				c-0.7-1.1-0.2-2.6,1-3.2C78.2,180.8,78.5,180.8,78.8,180.8z M77.5,183c0,0.1,0,0.1,0,0.2c0,0.1,0,0.2,0.1,0.3
				c0.3,0.9,1.5,1.1,2.1,0.4c0.3-0.4,0.4-0.9,0.2-1.4c-0.3-0.8-1.2-1.1-1.9-0.6C77.7,182.1,77.5,182.5,77.5,183z"/>
			<path id="XMLID_57_" class="st5" d="M92.4,182.4c-1,0.4-2,0.8-3,1.2c0.2,0.3,0.4,0.6,0.8,0.6c0.6,0.1,1-0.1,1.3-0.6
				c0.3,0.2,0.5,0.3,0.8,0.5c-0.1,0.2-0.3,0.4-0.5,0.5c-0.9,0.7-2.3,0.6-3-0.3c-0.3-0.4-0.4-0.8-0.5-1.3c0-0.7,0.1-1.3,0.6-1.7
				c0.8-0.8,2.4-0.9,3.1,0.4C92.2,182,92.3,182.2,92.4,182.4z M91.2,182.1C91.2,182,91.2,182,91.2,182.1c-0.2-0.3-0.4-0.5-0.8-0.5
				c-0.6,0-1.1,0.5-1.2,1c0,0.1,0,0.2,0,0.3C89.9,182.6,90.6,182.3,91.2,182.1z"/>
			<path id="XMLID_54_" class="st5" d="M87.7,185c-0.3,0-0.6,0-1,0c0-2.2,0-4.3,0-6.5c0.3,0,0.6,0,1,0
				C87.7,180.7,87.7,182.9,87.7,185z"/>
		</g>
		<g id="XMLID_42_">
			<path id="XMLID_51_" class="st5" d="M548.6,57.5l0.9,3.1l0.9-3.1c0-0.1,0.1-0.1,0.1-0.1l3.1-0.9l-3.1-0.9c-0.1,0-0.1-0.1-0.1-0.1
				l-0.9-3.1l-0.9,3.1c0,0.1-0.1,0.1-0.1,0.1l-3.1,0.9L548.6,57.5C548.6,57.4,548.6,57.4,548.6,57.5z"/>
			<path id="XMLID_50_" class="st5" d="M535.4,76l-0.9-3.1l-0.9,3.1c0,0.1-0.1,0.1-0.1,0.1l-3.1,0.9l3.1,0.9c0.1,0,0.1,0.1,0.1,0.1
				l0.9,3.1l0.9-3.1c0-0.1,0.1-0.1,0.1-0.1l3.1-0.9L535.4,76C535.5,76.1,535.4,76.1,535.4,76z"/>
			<path id="XMLID_47_" class="st5" d="M544,63.4l-1.5-5.2l-1.5,5.2c-0.3,0.9-1,1.6-1.8,1.8l-5.2,1.5l5.2,1.5c0.9,0.3,1.6,1,1.8,1.8
				l1.5,5.2L544,70c0.3-0.9,1-1.6,1.8-1.8l5.2-1.5l-5.2-1.5C545,65,544.3,64.3,544,63.4z M545.4,66.9c-1.4,0.4-2.4,1.5-2.8,2.8
				l-0.1,0.4l-0.1-0.4c-0.4-1.4-1.5-2.4-2.8-2.8l-0.4-0.1l0.4-0.1c1.4-0.4,2.4-1.5,2.8-2.8l0.1-0.4l0.1,0.4c0.4,1.4,1.5,2.4,2.8,2.8
				l0.4,0.1L545.4,66.9z"/>
			<path id="XMLID_43_" class="st5" d="M570.2,86.9L560,49.5c0-0.2-0.1-0.3-0.2-0.5c-0.1-0.2-0.4-0.3-0.6-0.3l0,0h-24.7
				c-0.3,0-0.6,0.2-0.7,0.6l-9.9,37.4c-0.1,0.2,0,0.5,0.1,0.6c0.1,0.2,0.4,0.3,0.6,0.3l0,0h3.2c0.3,0,0.6-0.2,0.7-0.6l0.6-2.1h16.8
				l-0.5,1.7c-0.1,0.2,0,0.5,0.1,0.6c0.1,0.2,0.4,0.3,0.6,0.3l0,0h3.2c0.3,0,0.6-0.2,0.7-0.6l0.5-2h14.4l0.6,2.1
				c0.1,0.3,0.4,0.6,0.7,0.6h3.2l0,0c0.2,0,0.4-0.1,0.6-0.3C570.2,87.3,570.3,87.1,570.2,86.9z M548.8,86.2h-1.6l0.5-1.7
				c0.1-0.2,0-0.5-0.1-0.6c-0.1-0.2-0.4-0.3-0.6-0.3l0,0h-18.4c-0.3,0-0.6,0.2-0.7,0.6l-0.6,2.1h-1.6l9.5-35.9h23.1L548.8,86.2z
				 M566.9,86.3l-0.6-2.1c-0.1-0.3-0.4-0.6-0.7-0.6H551l8.3-31.2l9.2,33.9H566.9z"/>
		</g>
		<g>
			<path id="XMLID_40_" class="st9" d="M119.3,558.1l-1.2-4.2c-0.1-0.5-0.5-0.8-0.9-0.9l-4.2-1.2l4.2-1.2c0.5-0.1,0.8-0.5,0.9-0.9
				l1.2-4.2l1.2,4.2c0.1,0.5,0.5,0.8,0.9,0.9l4.2,1.2l-4.2,1.2c-0.5,0.1-0.8,0.5-0.9,0.9L119.3,558.1z"/>
			<path id="XMLID_35_" class="st9" d="M142,586.2H96.6c-0.2,0-0.5-0.1-0.6-0.3s-0.2-0.5-0.1-0.7l4.3-10.9c0.1-0.3,0.4-0.5,0.7-0.5
				h36.7c0.3,0,0.6,0.2,0.7,0.5l4.3,10.9c0.1,0.2,0.1,0.5-0.1,0.7C142.5,586,142.2,586.2,142,586.2z M97.7,584.7h43.2l-3.7-9.4
				h-35.8L97.7,584.7z"/>
			<path id="XMLID_30_" class="st9" d="M119.3,568.5c-0.2,0-0.5-0.1-0.6-0.3c-0.4-0.4-9.6-10-9.6-18c0-5.6,4.6-10.2,10.2-10.2
				c5.6,0,10.2,4.6,10.2,10.2c0,6.6-9.2,17.5-9.6,18C119.8,568.4,119.6,568.5,119.3,568.5L119.3,568.5z M119.3,541.7
				c-4.7,0-8.5,3.8-8.5,8.5c0,6.1,6.4,13.7,8.5,16.1c2.1-2.6,8.5-11,8.5-16.1C127.8,545.5,124,541.7,119.3,541.7z"/>
			<path id="XMLID_13_" class="st9" d="M135.4,580.8h-32.6c-0.4,0-0.8-0.3-0.8-0.8c0-0.4,0.3-0.8,0.8-0.8h32.6
				c0.4,0,0.8,0.3,0.8,0.8S135.9,580.8,135.4,580.8z"/>
			<path id="XMLID_24_" class="st9" d="M137.7,549.7h-7.2c0,0.2,0,0.4,0,0.5c0,0.3,0,0.6-0.1,1h6.5v22.6h-35.2v-22.6h6.5
				c0-0.3,0-0.6,0-1c0-0.2,0-0.4,0-0.5H101c-0.4,0-0.8,0.3-0.8,0.8v24.1c0,0.4,0.3,0.8,0.8,0.8h36.7c0.4,0,0.8-0.3,0.8-0.8v-24.1
				C138.4,550,138.1,549.7,137.7,549.7z"/>
		</g>
		<g>
			<path id="XMLID_19_" class="st10" d="M762.6,559.9h-45.4c-0.3,0-0.5-0.1-0.6-0.3s-0.2-0.5-0.1-0.7l4.3-10.9
				c0.1-0.3,0.4-0.5,0.7-0.5h36.7c0.3,0,0.6,0.2,0.7,0.5l4.3,10.9c0.1,0.2,0.1,0.5-0.1,0.7C763.1,559.7,762.9,559.9,762.6,559.9z
				 M718.4,558.3h43.1l-3.7-9.3h-35.7L718.4,558.3z"/>
			<path id="XMLID_16_" class="st10" d="M757.8,554.9h-35.4c-0.4,0-0.8-0.3-0.8-0.8c0-0.4,0.3-0.8,0.8-0.8h35.4
				c0.4,0,0.8,0.3,0.8,0.8S758.3,554.9,757.8,554.9z"/>
			<path id="XMLID_12_" class="st10" d="M744.5,538.1c0-2.5-2.4-3-3.2-3.1c-0.1,0-0.3-0.1-0.4-0.1v-2.6c0.5,0.2,0.9,0.6,0.9,1.4h2.3
				c0-2.1-1.4-3.1-3.2-3.4v-1c0-0.4-0.3-0.8-0.8-0.8s-0.8,0.3-0.8,0.8v0.9c-1.8,0.2-3.6,1.2-3.6,3.2s1.6,2.6,3.2,3.1
				c0.1,0,0.2,0.1,0.4,0.1v3c-0.9-0.2-1.7-0.8-1.7-1.9h-2.3c0,2.4,1.8,3.6,4,3.8v1.4c0,0.4,0.3,0.8,0.8,0.8s0.8-0.3,0.8-0.8v-1.5
				C743.3,541.2,744.5,539.9,744.5,538.1z M738.1,533.3c0-0.8,0.6-1.1,1.3-1.2v2.3C738.3,534.1,738.1,533.9,738.1,533.3z
				 M740.9,539.6v-2.5c0.8,0.3,1.3,0.6,1.3,1.3C742.2,539.1,741.6,539.5,740.9,539.6z"/>
			<path id="XMLID_11_" class="st10" d="M729.3,533.5c-0.2,0-0.4-0.1-0.5-0.2c-0.3-0.3-0.3-0.8,0-1.1l10.6-11.5
				c0.1-0.2,0.3-0.2,0.6-0.3c0.2,0,0.4,0.1,0.6,0.2l3.7,3.7l8.8-8.8h-2.4c-0.4,0-0.8-0.3-0.8-0.8c0-0.4,0.3-0.8,0.8-0.8h4.3
				c0.3,0,0.6,0.2,0.7,0.5c0.1,0.3,0.1,0.6-0.2,0.9L744.8,526c-0.3,0.3-0.8,0.3-1.1,0l-3.6-3.6L730,533.3
				C729.7,533.5,729.5,533.5,729.3,533.5z"/>
			<path id="XMLID_8_" class="st10" d="M755.1,519.5c-0.4,0-0.8-0.3-0.8-0.8v-4c0-0.4,0.3-0.8,0.8-0.8s0.8,0.3,0.8,0.8v4
				C755.8,519.2,755.5,519.5,755.1,519.5z"/>
			<path id="XMLID_4_" class="st10" d="M758.3,523.3h-9l-1.6,1.6h9.7v22.6h-35.2v-22.6h11.3l1.4-1.6h-13.5c-0.4,0-0.8,0.3-0.8,0.8
				v24.1c0,0.4,0.3,0.8,0.8,0.8h36.7c0.4,0,0.8-0.3,0.8-0.8v-24.1C759.1,523.7,758.7,523.3,758.3,523.3z"/>
		</g>
	</g>
</g>
<g id="chrome">
	<path class="st11" d="M510.1,493.7c0,15.7-12.8,28.5-28.5,28.5c-15.7,0-28.5-12.8-28.5-28.5c0-15.7,12.8-28.5,28.5-28.5
		C497.3,465.2,510.1,478,510.1,493.7z"/>
	<path class="st12" d="M481.6,465.2v28.5l12,6l-13.2,22.5c0.5,0,0.8,0,1.2,0c15.8,0,28.5-12.8,28.5-28.5
		C510.1,477.9,497.4,465.2,481.6,465.2z"/>
	<path class="st13" d="M469.6,499.7l12-19.5h25.1c-4.8-9-14.3-15-25.1-15c-10.1,0-18.9,5.3-24,13.2L469.6,499.7z"/>
	<path class="st14" d="M457.6,478.4l12,21.3l7.5-1.5L457.6,478.4z"/>
	<path class="st15" d="M506.5,480.2h-24.9l-2.3,7.2L506.5,480.2z"/>
	<path class="st16" d="M480.4,522.2l13.2-22.5l-5.7-4.7L480.4,522.2z"/>
	<path class="st3" d="M495.1,493.7c0,7.5-6,13.5-13.5,13.5c-7.5,0-13.5-6-13.5-13.5c0-7.5,6-13.5,13.5-13.5
		C489.1,480.2,495.1,486.2,495.1,493.7z"/>
	<path class="st17" d="M492.1,493.7c0,5.8-4.7,10.5-10.5,10.5c-5.8,0-10.5-4.7-10.5-10.5c0-5.8,4.7-10.5,10.5-10.5
		C487.4,483.2,492.1,487.9,492.1,493.7z"/>
</g>
<g id="docs">
	<path class="st17" d="M686.8,498.4h-43.2c-2.8,0-5-2.2-5-5v-59.8c0-2.8,2.2-5,5-5h31.6l16.6,16.6v48.2
		C691.8,496.1,689.6,498.4,686.8,498.4z"/>
	<path class="st18" d="M691.8,445.2h-16.6v-16.6L691.8,445.2z"/>
	<path class="st19" d="M675.2,445.2l16.6,16.6v-16.6H675.2z"/>
	<path class="st20" d="M650.3,461.8h29.9v3.3h-29.9V461.8z"/>
	<path class="st20" d="M650.3,468.5h29.9v3.3h-29.9V468.5z"/>
	<path class="st20" d="M650.3,475.1h29.9v3.3h-29.9V475.1z"/>
	<path class="st20" d="M650.3,481.8h16.6v3.3h-16.6V481.8z"/>
</g>
<g id="forms">
	<path class="st21" d="M618.6,288.5h-46c-2.9,0-5.3-2.4-5.3-5.3v-63.7c0-2.9,2.4-5.3,5.3-5.3h33.6l17.7,17.7v51.3
		C623.9,286.1,621.5,288.5,618.6,288.5z"/>
	<path class="st22" d="M623.9,231.9h-17.7v-17.7L623.9,231.9z"/>
	<path class="st23" d="M606.2,231.9l17.7,17.7v-17.7H606.2z"/>
	<path class="st24" d="M586.7,249.6h24.8v3.5h-24.8V249.6z"/>
	<path class="st24" d="M586.7,258.4h24.8v3.5h-24.8V258.4z"/>
	<path class="st24" d="M586.7,267.3h24.8v3.5h-24.8V267.3z"/>
	<path class="st24" d="M579.6,249.6h3.5v3.5h-3.5V249.6z"/>
	<path class="st24" d="M579.6,258.4h3.5v3.5h-3.5V258.4z"/>
	<path class="st24" d="M579.6,267.3h3.5v3.5h-3.5V267.3z"/>
</g>
<g id="google_calendar">
	<path class="st25" d="M399.6,88.9c-11.4,0-39.1,0-50.5,0c-2,0-3.6,1.6-3.6,3.6c0,5.5,0,5.4,0,5.4h57.7c0,0,0,0.1,0-5.4
		C403.2,90.5,401.6,88.9,399.6,88.9z M356.3,94.3c-1,0-1.8-0.8-1.8-1.8s0.8-1.8,1.8-1.8c1,0,1.8,0.8,1.8,1.8S357.3,94.3,356.3,94.3z
		 M392.4,94.3c-1,0-1.8-0.8-1.8-1.8s0.8-1.8,1.8-1.8c1,0,1.8,0.8,1.8,1.8S393.4,94.3,392.4,94.3z"/>
	<path class="st26" d="M410.4,99.7c0.2-1-2.5-3.6-3.6-3.6c-12.8,0-52.1,0-64.9,0c-1.8,0-3.8,2.6-3.6,3.6c1.5,8.4,5.4,27,5.4,27H405
		C405,126.8,408.9,108.1,410.4,99.7z"/>
	<path class="st27" d="M405,126.8h-61.3c0,0-3.9,18.6-5.4,27c0,2.1,1.4,3.6,3.6,3.6c12.8,0,52.1,0,64.9,0c1.1,0,3.6-0.9,3.6-3.6
		C408.9,145.4,405,126.8,405,126.8z"/>
	<path class="st28" d="M368.1,126.8c1.8,0.6,3,1.5,3.8,2.8c0.8,1.3,1.2,2.8,1.2,4.4c0,2.9-0.9,5.1-2.8,6.7c-1.9,1.6-4.3,2.5-7.2,2.5
		c-2.9,0-5.2-0.8-7.1-2.3s-2.8-3.6-2.7-6.3l0.1-0.1h4c0,1.6,0.5,3,1.5,3.9c1,1,2.4,1.5,4.2,1.5c1.8,0,3.2-0.5,4.2-1.5
		s1.5-2.4,1.5-4.3c0-1.9-0.5-3.4-1.4-4.3s-2.3-1.4-4.3-1.4h-3.7v-1.7H368.1z"/>
	<rect x="388.1" y="126.8" class="st28" width="4.2" height="16"/>
	<path class="st29" d="M357.6,119.6h-4.1l0-0.1c-0.1-2.4,0.8-4.4,2.6-6c1.8-1.7,4.1-2.5,7-2.5c2.9,0,5.2,0.8,6.9,2.3
		c1.7,1.5,2.6,3.7,2.6,6.6c0,1.3-0.4,2.6-1.2,3.9s-2,2.3-3.5,2.9l0.2,0.1h-8.6v-1.6h3.7c1.9,0,3.2-0.5,4-1.4s1.2-2.2,1.2-3.9
		c0-1.8-0.4-3.2-1.3-4.1c-0.9-0.9-2.2-1.4-3.9-1.4c-1.6,0-3,0.5-4,1.5C358.2,116.7,357.7,117.9,357.6,119.6z"/>
	<polygon class="st29" points="392.3,126.8 388.1,126.8 388.1,115.6 381.7,115.7 381.7,112.6 392.3,111.4 	"/>
	<path class="st26" d="M341.9,96.1c-2.6,0-3.8,2.6-3.6,3.6c1.5,8.4,5.4,27,5.4,27"/>
	<path class="st26" d="M405,126.8c0,0,3.9-18.6,5.4-27c0-2.9-2.5-3.6-3.6-3.6"/>
</g>
<g id="google_my_buisness">
	<path class="st30" d="M164.1,448.3h58.2c1.4,0,2.5,1.1,2.5,2.5V493c0,1.4-1.1,2.5-2.5,2.5h-58.2c-1.4,0-2.5-1.1-2.5-2.5v-42.2
		C161.6,449.4,162.7,448.3,164.1,448.3z"/>
	
		<linearGradient id="SVGID_2_" gradientUnits="userSpaceOnUse" x1="161.6095" y1="-37.6174" x2="224.7215" y2="-37.6174" gradientTransform="matrix(1 0 0 -1 0 434.11)">
		<stop  offset="3.000000e-002" style="stop-color:#4079D8"/>
		<stop  offset="1" style="stop-color:#4989F5"/>
	</linearGradient>
	<path class="st31" d="M221.5,447.9h-56.8c-1.8,0-3.1,13.6-3.1,15.4l31.1,32.2h28.8c1.8,0,3.2-1.4,3.2-3.2v-41.2
		C224.7,449.4,223.3,447.9,221.5,447.9z"/>
	<polygon class="st32" points="176,456.2 194.1,456.2 194.1,432.5 178.7,432.5 	"/>
	<polygon class="st33" points="212.1,456.2 194.1,456.2 194.1,432.5 209.4,432.5 	"/>
	<path class="st33" d="M224.8,437L224.8,437C224.8,437,224.8,437,224.8,437z"/>
	<path class="st34" d="M224.8,437.1L224.8,437.1c-0.6-2.7-2.9-4.6-5.6-4.6h-9.8l2.7,23.7h18.1L224.8,437.1z"/>
	<path class="st33" d="M163.3,437L163.3,437C163.3,437,163.3,437,163.3,437z"/>
	<path class="st33" d="M163.3,437.1L163.3,437.1c0.6-2.7,2.9-4.6,5.6-4.6h9.8l-2.7,23.7h-18.1L163.3,437.1z"/>
	<path class="st35" d="M176,456.2c0,5-4,9-9,9c-5,0-9-4-9-9H176z"/>
	<path class="st32" d="M194.1,456.2c0,5-4,9-9,9s-9-4-9-9H194.1z"/>
	<path class="st35" d="M212.1,456.2c0,5-4,9-9,9s-9-4-9-9H212.1z"/>
	<path class="st32" d="M230.2,456.2c0,5-4,9-9,9c-5,0-9-4-9-9H230.2z"/>
	<path class="st3" d="M221.1,480.6c0-0.4-0.1-0.8-0.2-1.3h-9.8c0,1.4,0,2.9,0,4.3h5.7c-0.2,1.3-1,2.4-2.1,3.2c0,0,0,0,0,0
		c-0.7,0.5-1.5,0.8-2.3,0.9c-0.8,0.2-1.7,0.1-2.5,0c-0.8-0.2-1.6-0.5-2.3-1c-1-0.7-1.8-1.7-2.3-2.9c0-0.1-0.1-0.2-0.1-0.3v0l0,0
		c-0.4-1.3-0.4-2.7,0-4.1c0.3-0.9,0.8-1.8,1.5-2.5c1.6-1.7,4-2.3,6.2-1.6c0.8,0.3,1.6,0.7,2.3,1.3l1.9-1.9c0.3-0.3,0.7-0.7,1-1l0,0
		l0,0c-1-0.9-2.1-1.6-3.4-2.1c-2.3-0.8-4.8-0.8-7-0.1c-0.1,0-0.2,0.1-0.2,0.1c-2.5,0.9-4.5,2.7-5.7,5.1c-0.4,0.8-0.7,1.7-0.9,2.6
		c-1.1,5.4,2.2,10.7,7.5,12.2c1.7,0.5,3.6,0.5,5.4,0.1c1.6-0.4,3.1-1.1,4.3-2.2c1.3-1.2,2.2-2.7,2.6-4.4
		C221.1,483.5,221.3,482.1,221.1,480.6z"/>
</g>
<g id="google_cloud_platform">
	<path class="st36" d="M416,280h-48.7L339,324.6l28.4,44.6H416l28.4-44.6L416,280z M391.7,344.9c-11.4,0-20.3-8.9-20.3-20.3
		s8.9-20.3,20.3-20.3c11.4,0,20.3,8.9,20.3,20.3S403.1,344.9,391.7,344.9z"/>
	<path class="st17" d="M435.5,256.4c-2-2.8-5.3-4.9-8.9-4.9h-69.8c-3.6,0-6.9,2-8.9,4.9L324.4,295l18.7,29.6l25.6-40.6h83.6
		L435.5,256.4z M359.2,271.8c-2.4,0-4.1-1.6-4.1-4.1s1.6-4.1,4.1-4.1c2.4,0,4.1,1.6,4.1,4.1S361.7,271.8,359.2,271.8z M424.2,271.8
		c-2.4,0-4.1-1.6-4.1-4.1s1.6-4.1,4.1-4.1c2.4,0,4.1,1.6,4.1,4.1S426.6,271.8,424.2,271.8z"/>
	<path class="st12" d="M368.6,365.2l-44.2-69.8l-14.6,23.9c-2,3.2-2,7.7,0,11l38.1,62.5c2,3.2,5.3,4.9,8.9,4.9h36.9l20.7-32.5H368.6
		z M326.8,328.6c-2.4,0-4.1-1.6-4.1-4.1s1.6-4.1,4.1-4.1s4.1,1.6,4.1,4.1S329.2,328.6,326.8,328.6z M359.2,385.4
		c-2.4,0-4.1-1.6-4.1-4.1c0-2.4,1.6-4.1,4.1-4.1c2.4,0,4.1,1.6,4.1,4.1C363.3,383.8,361.7,385.4,359.2,385.4z"/>
	<path class="st26" d="M324.4,295.4l18.7,29.2l9.7-15l-23.9-21.5L324.4,295.4z"/>
	<path class="st15" d="M394.1,397.6l20.7-32.5h-19.5l-9.3,32.5H394.1z"/>
	<path class="st14" d="M473.7,319.3L452.1,284h-37.3l25.6,40.6l-46.2,73h32.5c3.6,0,6.9-2,8.9-4.9l38.5-62.5
		C476.1,326.6,476.1,322.6,473.7,319.3z M424.2,385.4c-2.4,0-4.1-1.6-4.1-4.1c0-2.4,1.6-4.1,4.1-4.1c2.4,0,4.1,1.6,4.1,4.1
		C428.2,383.8,426.6,385.4,424.2,385.4z M456.6,328.6c-2.4,0-4.1-1.6-4.1-4.1s1.6-4.1,4.1-4.1c2.4,0,4.1,1.6,4.1,4.1
		S459.1,328.6,456.6,328.6z"/>
	<path class="st37" d="M452.1,284h-37.3l10.1,15.8l32.1-7.7L452.1,284z"/>
</g>
<g id="sliders">
	<path class="st12" d="M208.2,261h-40.8c-2.6,0-4.7-2.1-4.7-4.7v-56.5c0-2.6,2.1-4.7,4.7-4.7h29.8l15.7,15.7v45.5
		C213,258.9,210.8,261,208.2,261z"/>
	<path class="st38" d="M213,210.8h-15.7v-15.7L213,210.8z"/>
	<path class="st39" d="M197.3,210.8l15.7,15.7v-15.7H197.3z"/>
	<path class="st3" d="M197.3,224.9h-18.8c-1.7,0-3.1,1.4-3.1,3.1v18.8c0,1.7,1.4,3.1,3.1,3.1h18.8c1.7,0,3.1-1.4,3.1-3.1V228
		C200.4,226.3,199,224.9,197.3,224.9z M197.3,231.2v12.6h-18.8v-12.6H197.3z"/>
</g>

<style>
	#vista_d5 #google_cloud_platform, #vista_d5 #bg, #vista_d5 #cloudsstars, #vista_d5 #icons, #vista_d5 #chrome, #vista_d5 #docs, #vista_d5 #forms, #vista_d5 #google_calendar, #vista_d5 #google_my_buisness, #vista_d5 #sliders {
		opacity: 0;
		-webkit-transform-origin: 50% 50%;
		transform-origin: 50% 50%;
	}

	#vista_d5 #google_cloud_platform {
		-webkit-transform: scale(3);
		transform: scale(3);
		-webkit-animation: scaleElement 1.5s linear 0s forwards;
		animation: scaleElement 1.5s linear 0s forwards;
	}

	#vista_d5 #bg, #vista_d5 #cloudsstars {
		-webkit-transform: scale(0);
		transform: scale(0);
		-webkit-animation: scaleElement 1.5s linear 0s forwards;
		animation: scaleElement 1.5s linear 0s forwards;
	}

	#vista_d5 #icons {
		-webkit-transform: scale(1.2);
		transform: scale(1.2);
		-webkit-animation: scaleElement 1s linear 0s forwards;
		animation: scaleElement 1s linear 0s forwards;
	}

	#vista_d5 #chrome {
		-webkit-transform: translate(150px, 150px);
		transform: translate(150px, 150px);
	}
	#vista_d5 #docs {
		-webkit-transform: translate(200px, 0px);
		transform: translate(200px, 0px);
	}
	#vista_d5 #forms {
		-webkit-transform: translate(150px, -150px);
		transform: translate(150px, -150px);
	}
	#vista_d5 #google_calendar {
		-webkit-transform: translate(0px, -200px);
		transform: translate(0px, -200px);
	}
	#vista_d5 #google_my_buisness {
		-webkit-transform: translate(-150px, 150px);
		transform: translate(-150px, 150px);
	}
	#vista_d5 #sliders {
		-webkit-transform: translate(-150px, -150px);
		transform: translate(-150px, -150px);
	}

	#vista_d5 #chrome, #vista_d5 #docs, #vista_d5 #forms, #vista_d5 #google_calendar, #vista_d5 #google_my_buisness, #vista_d5 #sliders {
		-webkit-animation: moveElement 1.5s linear 0s forwards;
		animation: moveElement 1.5s linear 0s forwards;
	}

	#vista_d5 #star1, #vista_d5 #star4 {
		-webkit-animation: blinkStar 1s ease-out 0s alternate infinite;
		animation: blinkStar 1s ease-out 0s alternate infinite;
	}
	#vista_d5 #star2 {
		-webkit-animation: blinkStar 1s ease-out 1s alternate infinite;
		animation: blinkStar 1s ease-out 1s alternate infinite;
	}
	#vista_d5 #star3 {
		-webkit-animation: blinkStar 1s ease-out 0.5s alternate infinite;
		animation: blinkStar 1s ease-out 0.5s alternate infinite;
	}

	@-webkit-keyframes scaleElement {
		to {
			opacity: 1;
			-webkit-transform: scale(1);
			transform: scale(1);
		}
	}

	@-webkit-keyframes moveElement {
		to {
			opacity: 1;
			-webkit-transform: translate(0px, 0px);
			transform: translate(0px, 0px);
		}
	}

	@-webkit-keyframes blinkStar {
		0% {
	    opacity: 1;
	  }
		100% {
			 opacity: 0;
		}
	}




	@keyframes scaleElement {
		to {
			opacity: 1;
			transform: scale(1);
		}
	}

	@keyframes moveElement {
		to {
			opacity: 1;
			transform: translate(0px, 0px);
		}
	}

	@keyframes blinkStar {
		0% {
	    opacity: 1;
	  }
		100% {
			 opacity: 0;
		}
	}
</style>

</svg>
