<?xml version="1.0" encoding="utf-8"?>
<!-- Generator: Adobe Illustrator 19.0.0, SVG Export Plug-In . SVG Version: 6.00 Build 0)  -->
<svg version="1.1" id="we_manage_your_distribution_and_revenue"
	 xmlns="http://www.w3.org/2000/svg" xmlns:xlink="http://www.w3.org/1999/xlink" x="0px" y="0px" viewBox="0 0 707 629.4"
	 style="enable-background:new 0 0 707 629.4;" xml:space="preserve">
<style type="text/css">
	.st0{fill:#EFF4F7;}
	.st1{fill:#F9D45F;}
	.st2{fill:#4248B7;}
	.st3{fill:none;stroke:#272DAD;stroke-width:1.6675;stroke-linecap:round;stroke-miterlimit:10;}
	.st4{fill:#272DAD;}
	.st5{fill:url(#SVGID_1_);}
	.st6{fill:#ED7E8A;}
	.st7{fill:#FFFFFF;}
	.st8{fill:none;stroke:#F9D45F;stroke-width:1.6675;stroke-linecap:round;stroke-miterlimit:10;}
	.st9{fill:#E55C65;}
	.st10{fill:url(#SVGID_2_);}
	.st11{fill:url(#SVGID_3_);}
	.st12{fill:url(#SVGID_4_);}
	.st13{fill:url(#SVGID_5_);}
	.st14{opacity:0.8;fill:#3CBA54;}
	.st15{fill:#3CBA54;}
</style>
<path id="bg" class="st0" d="M475.1,518.7c63.7-20.4,2.2-45.5,14.3-79.1c9.9-27.5,81.6-45.6,105.1-65
	c29.2-24.1,69.6-66.8,75.1-106.3c6.3-45.4-38.7-71.9-76.3-81.1c-53.8-13.1-62-26.7-29.6-72.7c28.5-40.4,21.8-79.1-27.4-98.1
	c-97.9-37.8-155,39-245.2,46.9c-42.4,3.7-86.3-20.1-127,1.6c-19.5,10.4-35.5,29.7-35.3,52.9c0.2,19.8,18.1,31.7,19.2,49.5
	c2.7,41.2-56.7,59.9-81.8,86.7c-28.6,30.6-47.6,72.7-35.5,115c13.4,46.9,55.7,58.4,98.5,66.3c50.1,9.3,78.3,20,114.5,56.2
	C306.6,554.3,396.4,544,475.1,518.7z"/>
<g id="money">
	<g>
		<g>
			<path class="st1" d="M102.2,369.5c-1.1,0-2.2,0-3.3-0.1v160.1c1.1,0.1,2.2,0.1,3.3,0.1V369.5z"/>
			<path class="st1" d="M84.7,526.8c2.9,1.1,6.6,1.9,10.8,2.4V369.1c-4.2-0.4-7.9-1.3-10.8-2.4V526.8z"/>
			<path class="st1" d="M83,366.1c-3.1-1.5-5-3.3-5-5.3v160.1c0,2,1.9,3.8,5,5.3V366.1z"/>
			<path class="st1" d="M108.9,369.2v160.1c10.6-1,18.3-4.4,18.3-8.5v-160C127.2,364.8,119.4,368.2,108.9,369.2z"/>
		</g>
		<g>
			<path class="st2" d="M123.6,356.6c0,0,0,0.1,0,0.3c0,0.2-0.1,0.5-0.2,0.9c-0.2,0.8-0.9,1.8-2.1,2.8c-1.1,1-2.7,2.1-4.6,3.1
				c-1,0.5-2,0.9-3.2,1.3c-1.1,0.4-2.4,0.5-3.7,0.8c-2.6,0.4-5.4,0.7-8.3,0.8c-3,0.1-6.1,0-9.3-0.4c-3.2-0.4-6.6-1-9.8-2.1
				c-1.6-0.6-3.3-1.3-4.8-2.3c-0.8-0.5-1.5-1.2-2.2-2c-0.6-0.8-1.1-1.9-1.1-3.1c0-0.4,0-0.4,0.1-0.8c0.1-0.3,0.2-0.6,0.3-0.9
				c0.2-0.5,0.5-1,0.8-1.4c0.6-0.8,1.4-1.4,2.2-2c1.5-1,3.2-1.8,4.8-2.3c3.3-1.1,6.6-1.7,9.8-2.1c6.5-0.7,12.5-0.4,17.7,0.4
				c0.6,0.1,1.3,0.2,1.9,0.3c0.6,0.1,1.2,0.2,1.8,0.4c1.1,0.4,2.2,0.8,3.2,1.3c1.9,1,3.5,2,4.6,3c1.1,1,1.8,2,2.1,2.8
				c0.1,0.4,0.2,0.7,0.2,0.9C123.6,356.5,123.6,356.6,123.6,356.6z M123.6,356.6c0,0,0-0.1,0-0.3c0-0.2-0.1-0.5-0.2-0.9
				c-0.3-0.7-1-1.7-2.3-2.4c-1.3-0.8-3-1.3-4.9-1.7c-1-0.2-2-0.4-3.2-0.6c-0.6-0.1-1.1-0.2-1.7-0.4c-0.6-0.1-1.2-0.2-1.8-0.3
				c-4.9-0.8-10.8-1.1-17-0.4c-3.1,0.4-6.3,0.9-9.3,2c-1.5,0.5-3,1.2-4.2,2c-1.3,0.8-2.2,2-2.2,3c0,1,1,2.2,2.2,3
				c1.3,0.9,2.7,1.5,4.2,2c3,1.1,6.2,1.6,9.3,2c3.1,0.4,6.1,0.4,9,0.4c2.9-0.1,5.6-0.3,8-0.8c1.2-0.2,2.4-0.5,3.5-0.7
				c1.1-0.2,2.2-0.4,3.2-0.6c2-0.4,3.7-1,4.9-1.7c1.3-0.7,2-1.7,2.3-2.4c0.2-0.4,0.2-0.7,0.2-0.9
				C123.6,356.7,123.6,356.6,123.6,356.6z"/>
		</g>
		<g>
			<path class="st2" d="M123.9,516.2l-0.5-19.7l-0.4-19.7l-0.2-9.9c-0.1-3.3-0.1-6.6-0.1-9.9l0.1-19.7l0.2-78.8l0.8,1.2l-0.2-0.1
				l1.5-0.4c-0.8,1-1.8,1.7-2.8,2.4c-1,0.6-2,1.2-3.1,1.6c-1,0.5-2.1,0.9-3.2,1.2c-0.5,0.2-1.1,0.3-1.6,0.5
				c-0.5,0.1-1.1,0.3-1.6,0.4c-1.1,0.2-2.2,0.5-3.3,0.6c-1.1,0.2-2.2,0.3-3.3,0.4c-1.1,0.1-2.2,0.2-3.3,0.2
				c-1.1,0.1-2.2,0.1-3.3,0.1c-1.2,0-2.2,0-3.3,0c-1.1,0-2.2-0.1-3.3-0.2c-1.1-0.1-2.2-0.2-3.3-0.4c-1.1-0.1-2.2-0.4-3.3-0.6
				c-1.1-0.3-2.2-0.5-3.3-0.9c-1.1-0.3-2.1-0.8-3.2-1.3c-1-0.5-2.1-1.1-3-1.8c-1-0.7-1.8-1.5-2.6-2.6l1.3,0.5l-0.5,0.1l1-1.2v79.9
				v40v20v10c0,3.3,0.1,6.7,0,10l-0.1-0.4c0-0.1,0,0,0,0c0,0,0,0.1,0.1,0.1c0.1,0.1,0.1,0.2,0.2,0.2c0.1,0.2,0.3,0.3,0.5,0.5
				c0.4,0.3,0.7,0.7,1.2,0.9c0.4,0.3,0.9,0.5,1.4,0.8c0.5,0.2,1,0.5,1.5,0.7l1.6,0.6c0.5,0.2,1.1,0.3,1.6,0.5
				c0.5,0.2,1.1,0.3,1.6,0.4c0.6,0.1,1.1,0.3,1.7,0.4c1.1,0.2,2.2,0.5,3.4,0.6c1.1,0.2,2.3,0.4,3.4,0.5c1.1,0.1,2.3,0.3,3.4,0.3
				l3.4,0.2l0,0c2.1-0.1,4.2-0.3,6.3-0.5c2.1-0.3,4.2-0.6,6.3-1.1c2.1-0.5,4.1-1.1,6-2c1-0.4,1.9-1,2.7-1.6c0.8-0.7,1.5-1.5,1.9-2.5
				c-0.3,1-1,1.9-1.8,2.6c-0.8,0.7-1.7,1.3-2.7,1.8c-1.9,1-3.9,1.7-6,2.3c-2.1,0.6-4.2,1-6.3,1.4c-2.1,0.4-4.2,0.6-6.4,0.8l0,0l0,0
				l-3.5-0.1c-1.2,0-2.3-0.1-3.5-0.2c-1.2,0-2.3-0.2-3.5-0.3c-1.2-0.1-2.3-0.3-3.5-0.5c-0.6-0.1-1.2-0.2-1.7-0.3
				c-0.6-0.1-1.2-0.2-1.7-0.4c-0.6-0.2-1.2-0.3-1.7-0.5l-1.7-0.6c-0.6-0.2-1.1-0.5-1.7-0.7c-0.6-0.3-1.1-0.5-1.6-0.9
				c-0.5-0.3-1.1-0.7-1.6-1.1c-0.3-0.2-0.5-0.5-0.7-0.7c-0.1-0.1-0.2-0.3-0.3-0.4c-0.1-0.1-0.1-0.2-0.2-0.3
				c-0.1-0.1-0.1-0.2-0.2-0.4l-0.1-0.2l0-0.2c-0.1-3.3,0-6.7,0-10v-10v-20v-40v-79.9v-1l1-0.2l0.5-0.1l0.8-0.2l0.5,0.7
				c0.5,0.7,1.3,1.4,2.1,2c0.8,0.6,1.7,1.1,2.6,1.6c0.9,0.4,1.9,0.8,2.9,1.2c1,0.3,2,0.6,3,0.8c1,0.2,2.1,0.4,3.1,0.6
				c1,0.2,2.1,0.2,3.2,0.4c1.1,0.1,2.1,0.1,3.2,0.2c1.1,0,2.2,0,3.2,0c1.1,0,2.1,0,3.2-0.1c1.1-0.1,2.1-0.1,3.2-0.2
				c1.1-0.1,2.1-0.2,3.2-0.4c1.1-0.1,2.1-0.4,3.1-0.6c0.5-0.1,1-0.3,1.5-0.4c0.5-0.1,1-0.3,1.5-0.4c1-0.3,2-0.7,2.9-1.1
				c1-0.4,1.9-0.9,2.7-1.4c0.8-0.5,1.6-1.2,2.2-1.8l0.6-0.7l0.9,0.4l0.2,0.1l0.8,0.3l0,0.8l-0.2,78.8l0,19.7c0,3.3,0,6.6-0.1,9.9
				l-0.2,9.9l-0.5,19.7L123.9,516.2z"/>
		</g>
		<g>
			<path class="st3" d="M123.9,366.6c0,4.8-11,8.8-24.6,8.8s-24.6-4-24.6-8.8"/>
			<path class="st3" d="M123.9,376.6c0,4.8-11,8.8-24.6,8.8s-24.6-4-24.6-8.8"/>
			<path class="st3" d="M123.9,386.6c0,4.8-11,8.8-24.6,8.8s-24.6-4-24.6-8.8"/>
			<path class="st3" d="M123.9,396.6c0,4.8-11,8.8-24.6,8.8s-24.6-3.9-24.6-8.8"/>
			<path class="st3" d="M123.9,406.6c0,4.8-11,8.8-24.6,8.8s-24.6-3.9-24.6-8.8"/>
			<path class="st3" d="M123.9,416.6c0,4.8-11,8.8-24.6,8.8s-24.6-3.9-24.6-8.8"/>
			<path class="st3" d="M123.9,426.6c0,4.8-11,8.8-24.6,8.8s-24.6-3.9-24.6-8.8"/>
			<path class="st3" d="M123.9,436.6c0,4.8-11,8.8-24.6,8.8s-24.6-3.9-24.6-8.8"/>
			<path class="st3" d="M123.9,446.6c0,4.8-11,8.8-24.6,8.8s-24.6-3.9-24.6-8.8"/>
			<path class="st3" d="M123.9,456.6c0,4.8-11,8.8-24.6,8.8s-24.6-3.9-24.6-8.8"/>
			<path class="st3" d="M123.9,466.7c0,4.8-11,8.8-24.6,8.8s-24.6-4-24.6-8.8"/>
			<path class="st3" d="M123.9,476.7c0,4.8-11,8.8-24.6,8.8s-24.6-4-24.6-8.8"/>
			<path class="st3" d="M123.9,486.7c0,4.8-11,8.8-24.6,8.8s-24.6-4-24.6-8.8"/>
			<path class="st3" d="M123.9,496.7c0,4.8-11,8.8-24.6,8.8s-24.6-4-24.6-8.8"/>
			<path class="st3" d="M123.9,506.7c0,4.8-11,8.8-24.6,8.8s-24.6-4-24.6-8.8"/>
		</g>
		<path class="st4" d="M106.8,358.3l-3.4-1.9c0.2,0,0.3,0,0.5,0c0.2,0,0.3,0,0.4,0c0.1,0,0.3,0,0.4,0s0.2,0,0.3,0
			c0.2,0,0.4,0,0.6,0.1c0.2,0,0.4,0.1,0.5,0.1c0.2,0,0.3,0.1,0.5,0.2c0.2,0.1,0.3,0.1,0.4,0.2c0.1,0.1,0.2,0.1,0.3,0.2
			c0.1,0.1,0.2,0.1,0.2,0.2s0.1,0.1,0.1,0.2c0,0.1,0,0.1-0.1,0.2l-0.1,0.1c0,0-0.1,0.1-0.2,0.1c-0.1,0-0.1,0.1-0.2,0.1
			C107,358.2,106.9,358.2,106.8,358.3 M97.4,355.1c-0.1,0-0.1,0-0.2,0c-0.1,0-0.1,0-0.2,0s-0.1,0-0.2,0c-0.1,0-0.1,0-0.2,0
			c-0.2,0-0.4,0-0.6,0c-0.2,0-0.4,0-0.5-0.1c-0.2,0-0.3-0.1-0.5-0.1c-0.1,0-0.3-0.1-0.4-0.2c-0.1-0.1-0.2-0.2-0.3-0.2
			c-0.1-0.1-0.1-0.1-0.2-0.2c0-0.1-0.1-0.1-0.1-0.2c0-0.1,0-0.1,0.1-0.2c0,0,0-0.1,0.1-0.1l0.1-0.1l0.1-0.1l0.1-0.1L97.4,355.1
			 M92.5,350.4l-2.4,0.6l2,1.1c-0.1,0.1-0.3,0.1-0.4,0.2c-0.2,0.1-0.3,0.1-0.5,0.2c-0.1,0.1-0.2,0.1-0.4,0.2
			c-0.1,0.1-0.2,0.1-0.3,0.2c-0.2,0.1-0.3,0.2-0.4,0.3c-0.1,0.1-0.2,0.2-0.3,0.3s-0.1,0.2-0.2,0.4c0,0.1,0,0.2,0,0.4
			c0,0.1,0.1,0.2,0.1,0.4c0.1,0.1,0.1,0.2,0.2,0.3s0.2,0.2,0.4,0.3c0.1,0.1,0.3,0.2,0.5,0.3c0.4,0.2,0.8,0.4,1.2,0.5
			c0.5,0.2,1,0.3,1.5,0.4c0.6,0.1,1.1,0.2,1.8,0.2c0.6,0,1.3,0.1,2,0c0.2,0,0.4,0,0.6,0c0.2,0,0.4,0,0.7,0c0.2,0,0.5,0,0.7,0
			c0.2,0,0.5,0,0.8-0.1l4,2.2c-0.4,0-0.8,0.1-1.2,0.1s-0.7,0-1.1-0.1c-0.3-0.1-0.7-0.1-1-0.3c-0.3-0.1-0.6-0.3-0.9-0.4l-3.7,1
			c0.2,0.1,0.5,0.3,0.7,0.4c0.3,0.1,0.5,0.2,0.8,0.3c0.3,0.1,0.6,0.2,0.9,0.3c0.3,0.1,0.6,0.1,0.9,0.2c0.3,0.1,0.7,0.1,1,0.1
			c0.3,0,0.7,0.1,1,0.1c0.4,0,0.7,0,1.1,0c0.4,0,0.7,0,1.1,0c0.2,0,0.5,0,0.7,0c0.2,0,0.5,0,0.7-0.1c0.2,0,0.4-0.1,0.7-0.1
			c0.2,0,0.4-0.1,0.7-0.1l1.7,0.9l2.4-0.7l-1.6-0.9c0.4-0.1,0.7-0.2,1-0.4c0.3-0.1,0.6-0.3,0.8-0.4c0.2-0.1,0.4-0.3,0.6-0.4
			c0.2-0.1,0.3-0.3,0.4-0.4c0.1-0.2,0.2-0.4,0.2-0.5c0-0.2-0.1-0.4-0.2-0.5c-0.1-0.2-0.3-0.3-0.5-0.5c-0.2-0.2-0.5-0.3-0.8-0.5
			c-0.3-0.2-0.6-0.3-0.9-0.4s-0.7-0.2-1-0.3c-0.4-0.1-0.7-0.2-1.1-0.2c-0.4-0.1-0.8-0.1-1.2-0.2c-0.4,0-0.8-0.1-1.3-0.1
			c-0.4,0-0.9,0-1.4,0s-1,0-1.5,0.1c-0.5,0-1.1,0.1-1.7,0.1l-3.7-2c0.1,0,0.3,0,0.4,0s0.3,0,0.4,0c0.1,0,0.3,0,0.4,0
			c0.1,0,0.3,0,0.4,0c0.2,0,0.4,0,0.6,0.1c0.2,0,0.4,0.1,0.6,0.1c0.2,0.1,0.4,0.1,0.6,0.2c0.2,0.1,0.4,0.2,0.5,0.2l3.6-1
			c-0.2-0.1-0.4-0.2-0.7-0.3c-0.2-0.1-0.5-0.2-0.7-0.3c-0.3-0.1-0.5-0.2-0.8-0.2c-0.2-0.2-0.5-0.3-0.8-0.3c-0.3-0.1-0.6-0.1-0.9-0.1
			c-0.3,0-0.6-0.1-0.9-0.1c-0.3,0-0.6,0-1,0c-0.3,0-0.7,0-1,0c-0.2,0-0.5,0-0.7,0c-0.2,0-0.5,0-0.7,0.1c-0.2,0-0.5,0.1-0.7,0.1
			c-0.2,0-0.5,0.1-0.7,0.1L92.5,350.4"/>
	</g>
	<g>
		<g>
			<path class="st1" d="M177.3,569.2c3,1,6.7,1.8,10.8,2.2v-90c-4.1-0.4-7.9-1.1-10.8-2.2V569.2z"/>
			<path class="st1" d="M175.6,478.5c-3.6-1.5-5.8-3.5-5.8-5.7v88.4v1.7c0,2.2,2.2,4.1,5.8,5.7V478.5z"/>
			<path class="st1" d="M194.8,481.6c-0.1,0-0.3,0-0.4,0c-1,0-2,0-2.9-0.1v90c1,0,1.9,0.1,2.9,0.1c0.1,0,0.3,0,0.4,0V481.6z"/>
			<path class="st1" d="M201.5,481.2v90c10.1-1.1,17.5-4.4,17.5-8.4v-1.7v-88.4C219,476.8,211.6,480.1,201.5,481.2z"/>
		</g>
		<g>
			<path class="st2" d="M216.4,468.6c0,0,0,0.1,0,0.3c0,0.2-0.1,0.5-0.2,0.9c-0.1,0.4-0.4,0.9-0.7,1.3c-0.4,0.5-0.8,1-1.4,1.5
				c-1.2,1-2.8,2.1-4.8,3.1c-1,0.5-2.1,0.9-3.3,1.3c-1.2,0.4-2.5,0.5-3.8,0.8c-2.7,0.4-5.6,0.7-8.6,0.8c-3.1,0.1-6.3,0-9.7-0.4
				c-3.3-0.4-6.8-1-10.2-2.2c-1.7-0.6-3.4-1.3-5-2.4c-0.8-0.5-1.6-1.2-2.2-2c-0.7-0.8-1.2-2-1.2-3.2c0-0.4,0-0.4,0.1-0.9
				c0.1-0.4,0.2-0.6,0.3-0.9c0.2-0.5,0.5-1,0.8-1.4c0.7-0.8,1.4-1.5,2.2-2c1.6-1.1,3.3-1.8,5-2.4c3.4-1.2,6.9-1.8,10.2-2.2
				c6.7-0.7,13-0.4,18.3,0.4c0.7,0.1,1.3,0.2,2,0.4c0.6,0.1,1.3,0.2,1.8,0.5c1.2,0.4,2.3,0.8,3.3,1.3c2,1,3.6,2.1,4.8,3.1
				c0.6,0.5,1.1,1,1.4,1.5c0.4,0.5,0.6,1,0.7,1.3c0.1,0.4,0.2,0.7,0.2,0.9C216.4,468.4,216.4,468.6,216.4,468.6z M216.4,468.6
				c0,0,0-0.1,0-0.3c0-0.2-0.1-0.5-0.2-0.9c-0.3-0.8-1.1-1.7-2.4-2.5c-1.3-0.8-3.1-1.4-5.1-1.8c-1-0.2-2.1-0.4-3.3-0.6
				c-0.6-0.1-1.2-0.2-1.8-0.4c-0.6-0.1-1.2-0.2-1.9-0.4c-5.1-0.8-11.2-1.1-17.6-0.4c-3.2,0.4-6.5,1-9.7,2.1
				c-1.6,0.5-3.1,1.2-4.4,2.1c-1.3,0.9-2.4,2.1-2.3,3.1c0,1.1,1,2.3,2.3,3.1c1.3,0.9,2.8,1.6,4.4,2.1c3.1,1.1,6.5,1.7,9.7,2.1
				c3.2,0.4,6.4,0.5,9.3,0.4c3-0.1,5.8-0.4,8.3-0.8c1.3-0.2,2.5-0.5,3.6-0.7c1.2-0.2,2.3-0.4,3.3-0.6c2-0.4,3.8-1,5.1-1.8
				c1.3-0.8,2.1-1.7,2.4-2.5c0.2-0.4,0.2-0.7,0.2-0.9C216.4,468.7,216.4,468.6,216.4,468.6z"/>
		</g>
		<g>
			<path class="st3" d="M215.6,478.7c0,4.8-11,8.8-24.6,8.8c-13.6,0-24.6-3.9-24.6-8.8"/>
			<path class="st3" d="M215.6,488.7c0,4.8-11,8.8-24.6,8.8c-13.6,0-24.6-3.9-24.6-8.8"/>
			<path class="st3" d="M215.6,498.7c0,4.8-11,8.8-24.6,8.8c-13.6,0-24.6-3.9-24.6-8.8"/>
			<path class="st3" d="M215.6,508.7c0,4.8-11,8.8-24.6,8.8c-13.6,0-24.6-3.9-24.6-8.8"/>
			<path class="st3" d="M215.6,518.7c0,4.8-11,8.8-24.6,8.8c-13.6,0-24.6-3.9-24.6-8.8"/>
			<path class="st3" d="M215.6,528.7c0,4.8-11,8.8-24.6,8.8c-13.6,0-24.6-3.9-24.6-8.8"/>
			<path class="st3" d="M215.6,538.7c0,4.8-11,8.8-24.6,8.8c-13.6,0-24.6-3.9-24.6-8.8"/>
			<path class="st3" d="M215.6,548.7c0,4.8-11,8.8-24.6,8.8c-13.6,0-24.6-3.9-24.6-8.8"/>
		</g>
		<g>
			<path class="st2" d="M215.7,557.9l-0.4-11l-0.3-11l-0.3-11c-0.1-1.8-0.1-3.7-0.1-5.5l0.1-5.5l0.3-44.2l0.8,1.2l-0.2-0.1l1.5-0.5
				c-0.8,1.1-1.7,1.9-2.6,2.6c-1,0.7-2,1.4-3,1.9c-0.5,0.3-1,0.5-1.6,0.8c-0.5,0.2-1.1,0.5-1.6,0.7c-1.1,0.4-2.2,0.7-3.3,1l-1.7,0.4
				l-1.7,0.3c-1.1,0.2-2.3,0.3-3.4,0.5c-1.1,0.1-2.3,0.2-3.4,0.2c-1.1,0-2.3,0.1-3.4,0.1c-1.1,0-2.2,0-3.4-0.1
				c-1.1-0.1-2.3-0.1-3.4-0.3l-1.7-0.2l-1.7-0.3c-1.1-0.2-2.3-0.5-3.4-0.7l-1.7-0.5l-1.6-0.6c-1.1-0.4-2.2-0.9-3.2-1.4
				c-1-0.6-2.1-1.1-3-1.9c-1-0.7-1.9-1.5-2.7-2.4l1.3,0.4l-0.3,0.1l0.9-1.2l0.4,90l-0.1-0.4c0,0,0.2,0.3,0.3,0.4
				c0.1,0.2,0.3,0.4,0.4,0.5c0.3,0.4,0.7,0.7,1.1,1c0.8,0.6,1.7,1.2,2.6,1.6c0.5,0.2,0.9,0.5,1.4,0.6c0.5,0.2,1,0.4,1.5,0.5l1.5,0.5
				l1.6,0.3c1,0.3,2.1,0.3,3.2,0.6l3.3,0.4c1.1,0.1,2.2,0.2,3.3,0.3c1.1,0.1,2.2,0.1,3.3,0.1l1.7,0.1c0.5,0,1.1,0,1.6,0
				c1.1,0,2.2-0.1,3.3-0.1c1.1-0.1,2.2-0.2,3.3-0.3c1.1-0.1,2.2-0.3,3.3-0.5l1.6-0.4l1.6-0.5c1-0.4,2.1-0.7,3.1-1.2
				c0.5-0.2,1-0.4,1.5-0.7c0.5-0.3,1-0.5,1.4-0.9c0.4-0.3,0.9-0.7,1.3-1l1.1-1.2l-1,1.3c-0.4,0.4-0.8,0.8-1.2,1.2
				c-0.4,0.4-0.9,0.7-1.4,1c-0.5,0.3-1,0.6-1.4,0.9c-0.5,0.3-1,0.6-1.5,0.8c-0.5,0.2-1,0.5-1.6,0.7l-1.6,0.6l-1.6,0.5
				c-1.1,0.3-2.2,0.6-3.3,0.8c-1.1,0.2-2.2,0.4-3.3,0.6c-1.1,0.2-2.2,0.3-3.4,0.4c-0.6,0-1.1,0.1-1.7,0.1l-1.7,0.1
				c-1.1,0-2.3,0.1-3.4,0.1c-1.1,0-2.3,0-3.4-0.1c-1.1-0.1-2.3-0.1-3.4-0.3c-1.1-0.2-2.3-0.3-3.4-0.6l-1.7-0.4l-1.7-0.5
				c-0.6-0.1-1.1-0.4-1.7-0.6c-0.6-0.2-1.1-0.4-1.6-0.7c-1.1-0.5-2.1-1.1-3.1-1.9c-0.5-0.4-1-0.8-1.4-1.3c-0.2-0.2-0.4-0.5-0.6-0.8
				c-0.2-0.3-0.4-0.5-0.6-1l-0.1-0.2l0-0.2l-0.4-90l0-0.9l0.9-0.3l0.3-0.1l0.8-0.3l0.6,0.6c0.6,0.7,1.4,1.4,2.3,2
				c0.8,0.6,1.8,1.2,2.7,1.7c1,0.5,1.9,0.9,2.9,1.3l1.5,0.5l1.6,0.4c1,0.3,2.1,0.5,3.2,0.7l1.6,0.3l1.6,0.2c1.1,0.2,2.2,0.2,3.2,0.3
				c1.1,0.1,2.2,0.1,3.3,0.1c1.1,0,2.2,0,3.3-0.1c1.1-0.1,2.2-0.1,3.3-0.2c1.1-0.2,2.2-0.2,3.2-0.4l1.6-0.3l1.6-0.4
				c1-0.3,2.1-0.6,3.1-1c0.5-0.2,1-0.4,1.5-0.6c0.5-0.2,1-0.4,1.4-0.7c0.9-0.5,1.8-1.1,2.6-1.7c0.8-0.6,1.6-1.4,2.1-2.1l0.6-0.8
				l0.9,0.4l0.2,0.1l0.8,0.3l0,0.9l-0.3,44.2l0,5.5c0,1.8-0.1,3.7-0.1,5.5l-0.4,11l-0.4,11L215.7,557.9z"/>
		</g>
		<path class="st4" d="M197.7,470.6l-3.4-1.9c0.2,0,0.3,0,0.5,0s0.3,0,0.4,0c0.1,0,0.3,0,0.4,0c0.1,0,0.2,0,0.3,0
			c0.2,0,0.4,0,0.6,0.1c0.2,0,0.4,0.1,0.5,0.1c0.2,0,0.3,0.1,0.5,0.2c0.2,0.1,0.3,0.1,0.4,0.2c0.1,0.1,0.2,0.1,0.3,0.2
			c0.1,0.1,0.2,0.1,0.2,0.2s0.1,0.1,0.1,0.2c0,0.1,0,0.1-0.1,0.2l-0.1,0.1c0,0-0.1,0.1-0.2,0.1c-0.1,0-0.1,0.1-0.2,0.1
			C197.9,470.5,197.8,470.5,197.7,470.6 M188.3,467.4c-0.1,0-0.1,0-0.2,0c-0.1,0-0.1,0-0.2,0c-0.1,0-0.1,0-0.2,0c-0.1,0-0.1,0-0.2,0
			c-0.2,0-0.4,0-0.6,0s-0.4,0-0.5-0.1c-0.2,0-0.3-0.1-0.5-0.1c-0.1,0-0.3-0.1-0.4-0.2c-0.1-0.1-0.2-0.1-0.3-0.2
			c-0.1-0.1-0.1-0.1-0.2-0.2c0-0.1-0.1-0.1-0.1-0.2c0-0.1,0-0.1,0.1-0.2c0,0,0-0.1,0.1-0.1c0.1,0,0.1-0.1,0.1-0.1l0.1-0.1l0.1-0.1
			L188.3,467.4 M183.5,462.7l-2.4,0.6l2,1.1c-0.1,0.1-0.3,0.1-0.4,0.2c-0.1,0.1-0.3,0.1-0.4,0.2c-0.1,0.1-0.2,0.1-0.4,0.2
			c-0.1,0.1-0.2,0.1-0.3,0.2c-0.2,0.1-0.3,0.2-0.4,0.3c-0.1,0.1-0.2,0.2-0.3,0.3s-0.1,0.2-0.2,0.4c0,0.1,0,0.2,0,0.4
			c0,0.1,0.1,0.2,0.1,0.4c0.1,0.1,0.1,0.2,0.2,0.3c0.1,0.1,0.2,0.2,0.4,0.3c0.1,0.1,0.3,0.2,0.5,0.3c0.4,0.2,0.8,0.4,1.2,0.5
			c0.5,0.2,1,0.3,1.5,0.4c0.6,0.1,1.1,0.2,1.8,0.2c0.6,0,1.3,0.1,2,0c0.2,0,0.4,0,0.6,0s0.4,0,0.7,0c0.2,0,0.5,0,0.7,0
			s0.5,0,0.8-0.1l4,2.2c-0.4,0-0.8,0.1-1.2,0.1s-0.7,0-1.1-0.1c-0.3-0.1-0.7-0.1-1-0.3c-0.3-0.1-0.6-0.3-0.9-0.4l-3.7,1
			c0.2,0.1,0.5,0.3,0.7,0.4c0.3,0.1,0.5,0.2,0.8,0.3c0.3,0.1,0.6,0.2,0.9,0.3s0.6,0.1,0.9,0.2c0.3,0.1,0.7,0.1,1,0.1s0.7,0.1,1,0.1
			c0.4,0,0.7,0,1.1,0c0.4,0,0.7,0,1.1,0c0.2,0,0.5,0,0.7,0s0.5,0,0.7-0.1c0.2,0,0.4-0.1,0.7-0.1c0.2,0,0.4-0.1,0.7-0.1l1.7,0.9
			l2.4-0.7l-1.6-0.9c0.4-0.1,0.7-0.2,1-0.4c0.3-0.1,0.6-0.3,0.8-0.4s0.4-0.3,0.6-0.4c0.2-0.1,0.3-0.3,0.4-0.4
			c0.1-0.2,0.2-0.4,0.2-0.5c0-0.2-0.1-0.4-0.2-0.5c-0.1-0.2-0.3-0.3-0.5-0.5c-0.2-0.2-0.5-0.3-0.8-0.5c-0.3-0.2-0.6-0.3-0.9-0.4
			c-0.3-0.1-0.7-0.2-1-0.3c-0.4-0.1-0.7-0.2-1.1-0.2c-0.4-0.1-0.8-0.1-1.2-0.2c-0.4,0-0.8-0.1-1.3-0.1c-0.4,0-0.9,0-1.4,0
			s-1,0-1.5,0.1c-0.5,0-1.1,0.1-1.7,0.1l-3.7-2c0.1,0,0.3,0,0.4,0c0.1,0,0.3,0,0.4,0c0.1,0,0.3,0,0.4,0c0.1,0,0.3,0,0.4,0
			c0.2,0,0.4,0,0.6,0.1c0.2,0,0.4,0.1,0.6,0.1c0.2,0.1,0.4,0.1,0.6,0.2c0.2,0.1,0.4,0.2,0.5,0.2l3.6-1c-0.2-0.1-0.4-0.2-0.7-0.3
			c-0.2-0.1-0.5-0.2-0.7-0.3c-0.3-0.1-0.5-0.2-0.8-0.2c-0.3-0.1-0.6-0.1-0.9-0.2s-0.6-0.1-0.9-0.1s-0.6-0.1-0.9-0.1s-0.6,0-1,0
			c-0.3,0-0.7,0-1,0c-0.2,0-0.5,0-0.7,0s-0.5,0-0.7,0.1c-0.2,0-0.5,0.1-0.7,0.1s-0.5,0.1-0.7,0.1L183.5,462.7"/>
	</g>
	<g>
		<g>
			<path class="st1" d="M611.8,380c-1.1,0-2.2,0-3.3-0.1V540c1.1,0.1,2.2,0.1,3.3,0.1V380z"/>
			<path class="st1" d="M594.2,537.3c2.9,1.1,6.6,1.9,10.8,2.4V379.6c-4.2-0.4-7.9-1.3-10.8-2.4V537.3z"/>
			<path class="st1" d="M592.6,376.5c-3.1-1.5-5-3.3-5-5.3v160.1c0,2,1.9,3.8,5,5.3V376.5z"/>
			<path class="st1" d="M618.4,379.7v160.1c10.6-1,18.3-4.4,18.3-8.5v-160C636.8,375.3,629,378.7,618.4,379.7z"/>
		</g>
		<g>
			<path class="st2" d="M633.7,366.8c0,0,0,0.1,0,0.3c0,0.2-0.1,0.5-0.2,0.9c-0.1,0.4-0.4,0.8-0.7,1.3c-0.4,0.5-0.8,1-1.4,1.5
				c-1.2,1-2.8,2.1-4.8,3c-1,0.5-2.1,0.9-3.2,1.3c-1.2,0.4-2.4,0.5-3.8,0.8c-2.6,0.4-5.5,0.7-8.5,0.8c-3,0.1-6.2,0-9.5-0.4
				c-3.3-0.4-6.7-1-10.1-2.1c-1.7-0.6-3.4-1.3-4.9-2.3c-0.8-0.5-1.6-1.1-2.2-2c-0.7-0.8-1.2-1.8-1.2-3.2c0-0.3,0.1-1.2,0.4-1.7
				c0.2-0.5,0.5-1,0.9-1.4c0.7-0.8,1.4-1.4,2.2-2c1.6-1,3.3-1.7,4.9-2.3c3.4-1.1,6.8-1.7,10.1-2.1c6.6-0.7,12.8-0.4,18.1,0.4
				c0.7,0.1,1.3,0.2,1.9,0.3c0.6,0.1,1.2,0.2,1.8,0.4c1.2,0.4,2.2,0.8,3.2,1.3c2,1,3.6,2,4.8,3c0.6,0.5,1.1,1,1.4,1.5
				c0.4,0.5,0.6,0.9,0.7,1.3c0.1,0.4,0.2,0.7,0.2,0.9C633.7,366.7,633.7,366.8,633.7,366.8z M633.7,366.8c0,0,0-0.1,0-0.3
				c0-0.2-0.1-0.5-0.2-0.9c-0.3-0.8-1.1-1.7-2.4-2.4c-1.3-0.8-3-1.3-5.1-1.7c-1-0.2-2.1-0.4-3.2-0.6c-0.6-0.1-1.1-0.2-1.7-0.3
				c-0.6-0.1-1.2-0.2-1.8-0.3c-5-0.8-11-1.1-17.4-0.4c-3.2,0.4-6.4,0.9-9.5,2c-1.5,0.5-3.1,1.2-4.4,2c-0.6,0.4-1.2,0.9-1.7,1.4
				c-0.2,0.3-0.4,0.5-0.5,0.8c-0.1,0.3-0.1,0.3-0.2,0.9c0-0.2,0,0,0-0.1l0,0l0,0l0,0.1c0,0.1,0,0.1,0,0.2c0,0.1,0.1,0.3,0.1,0.4
				c0.1,0.3,0.3,0.5,0.5,0.8c0.4,0.5,1,1,1.7,1.4c1.3,0.9,2.8,1.5,4.4,2c3.1,1.1,6.4,1.6,9.5,2c3.2,0.3,6.3,0.4,9.2,0.4
				c2.9-0.1,5.7-0.3,8.2-0.8c1.3-0.2,2.4-0.5,3.6-0.7c1.1-0.2,2.2-0.4,3.2-0.6c2-0.4,3.8-1,5.1-1.7c1.3-0.7,2.1-1.7,2.4-2.4
				c0.2-0.4,0.2-0.7,0.2-0.9C633.7,366.9,633.7,366.8,633.7,366.8z"/>
		</g>
		<g>
			<path class="st2" d="M633.8,526.7l-0.5-19.7l-0.4-19.7l-0.2-9.9c-0.1-3.3-0.1-6.6-0.1-9.9l0.1-19.7l0.2-78.8l0.8,1.2l-0.2-0.1
				l1.5-0.4c-0.8,1-1.8,1.7-2.8,2.4c-1,0.6-2,1.2-3.1,1.6c-1,0.5-2.1,0.9-3.2,1.2c-0.5,0.2-1.1,0.3-1.6,0.5
				c-0.5,0.1-1.1,0.3-1.6,0.4c-1.1,0.2-2.2,0.5-3.3,0.6c-1.1,0.2-2.2,0.3-3.3,0.4c-1.1,0.1-2.2,0.2-3.3,0.2
				c-1.1,0.1-2.2,0.1-3.3,0.1c-1.2,0-2.2,0-3.3,0c-1.1,0-2.2-0.1-3.3-0.2c-1.1-0.1-2.2-0.2-3.3-0.4c-1.1-0.1-2.2-0.4-3.3-0.6
				c-1.1-0.3-2.2-0.5-3.3-0.9c-1.1-0.3-2.1-0.8-3.2-1.3c-1-0.5-2.1-1.1-3-1.8c-1-0.7-1.8-1.5-2.6-2.6l1.3,0.5l-0.5,0.1l1-1.2v79.9
				v40v20v10c0,3.3,0.1,6.7,0,10l-0.1-0.4c0-0.1,0,0,0,0c0,0,0,0.1,0.1,0.1c0.1,0.1,0.1,0.2,0.2,0.2c0.1,0.2,0.3,0.3,0.5,0.5
				c0.4,0.3,0.7,0.7,1.2,0.9c0.4,0.3,0.9,0.5,1.4,0.8c0.5,0.2,1,0.5,1.5,0.7l1.6,0.6c0.5,0.2,1.1,0.3,1.6,0.5
				c0.5,0.2,1.1,0.3,1.6,0.4c0.6,0.1,1.1,0.3,1.7,0.4c1.1,0.2,2.2,0.5,3.4,0.6c1.1,0.2,2.3,0.4,3.4,0.5c1.1,0.1,2.3,0.3,3.4,0.3
				l3.4,0.2l0,0c2.1-0.1,4.2-0.3,6.3-0.5c2.1-0.3,4.2-0.6,6.3-1.1c2.1-0.5,4.1-1.1,6-2c1-0.4,1.9-1,2.7-1.6c0.8-0.7,1.5-1.5,1.9-2.5
				c-0.3,1-1,1.9-1.8,2.6c-0.8,0.7-1.7,1.3-2.7,1.8c-1.9,1-3.9,1.7-6,2.3c-2.1,0.6-4.2,1-6.3,1.4c-2.1,0.4-4.2,0.6-6.4,0.8l0,0l0,0
				l-3.5-0.1c-1.2,0-2.3-0.1-3.5-0.2c-1.2,0-2.3-0.2-3.5-0.3c-1.2-0.1-2.3-0.3-3.5-0.5c-0.6-0.1-1.2-0.2-1.7-0.3
				c-0.6-0.1-1.2-0.2-1.7-0.4c-0.6-0.2-1.2-0.3-1.7-0.5l-1.7-0.6c-0.6-0.2-1.1-0.5-1.7-0.7c-0.6-0.3-1.1-0.5-1.6-0.9
				c-0.5-0.3-1.1-0.7-1.6-1.1c-0.3-0.2-0.5-0.5-0.7-0.7c-0.1-0.1-0.2-0.3-0.3-0.4c-0.1-0.1-0.1-0.2-0.2-0.3
				c-0.1-0.1-0.1-0.2-0.2-0.4l-0.1-0.2l0-0.2c-0.1-3.3,0-6.7,0-10v-10v-20v-40v-79.9v-1l1-0.2l0.5-0.1l0.8-0.2l0.5,0.7
				c0.5,0.7,1.3,1.4,2.1,2c0.8,0.6,1.7,1.1,2.6,1.6c0.9,0.4,1.9,0.8,2.9,1.2c1,0.3,2,0.6,3,0.8c1,0.2,2.1,0.4,3.1,0.6
				c1,0.2,2.1,0.2,3.2,0.4c1.1,0.1,2.1,0.1,3.2,0.2c1.1,0,2.2,0,3.2,0c1.1,0,2.1,0,3.2-0.1c1.1-0.1,2.1-0.1,3.2-0.2
				c1.1-0.1,2.1-0.2,3.2-0.4c1.1-0.1,2.1-0.4,3.1-0.6c0.5-0.1,1-0.3,1.5-0.4c0.5-0.1,1-0.3,1.5-0.4c1-0.3,2-0.7,2.9-1.1
				c1-0.4,1.9-0.9,2.7-1.4c0.8-0.5,1.6-1.2,2.2-1.8l0.6-0.7l0.9,0.4l0.2,0.1l0.8,0.3l0,0.8l-0.2,78.8l0,19.7c0,3.3,0,6.6-0.1,9.9
				l-0.2,9.9l-0.5,19.7L633.8,526.7z"/>
		</g>
		<g>
			<path class="st3" d="M633.4,377.1c0,4.8-11,8.8-24.6,8.8s-24.6-3.9-24.6-8.8"/>
			<path class="st3" d="M633.4,387.1c0,4.8-11,8.8-24.6,8.8s-24.6-3.9-24.6-8.8"/>
			<path class="st3" d="M633.4,397.1c0,4.8-11,8.8-24.6,8.8s-24.6-3.9-24.6-8.8"/>
			<path class="st3" d="M633.4,407.1c0,4.8-11,8.8-24.6,8.8s-24.6-3.9-24.6-8.8"/>
			<path class="st3" d="M633.4,417.1c0,4.8-11,8.8-24.6,8.8s-24.6-3.9-24.6-8.8"/>
			<path class="st3" d="M633.4,427.1c0,4.8-11,8.8-24.6,8.8s-24.6-3.9-24.6-8.8"/>
			<path class="st3" d="M633.4,437.1c0,4.8-11,8.8-24.6,8.8s-24.6-3.9-24.6-8.8"/>
			<path class="st3" d="M633.4,447.1c0,4.8-11,8.8-24.6,8.8s-24.6-3.9-24.6-8.8"/>
			<path class="st3" d="M633.4,457.1c0,4.8-11,8.8-24.6,8.8s-24.6-3.9-24.6-8.8"/>
			<path class="st3" d="M633.4,467.1c0,4.8-11,8.8-24.6,8.8s-24.6-3.9-24.6-8.8"/>
			<path class="st3" d="M633.4,477.1c0,4.8-11,8.8-24.6,8.8s-24.6-3.9-24.6-8.8"/>
			<path class="st3" d="M633.4,487.1c0,4.8-11,8.8-24.6,8.8s-24.6-3.9-24.6-8.8"/>
			<path class="st3" d="M633.4,497.1c0,4.8-11,8.8-24.6,8.8s-24.6-3.9-24.6-8.8"/>
			<path class="st3" d="M633.4,507.2c0,4.8-11,8.8-24.6,8.8s-24.6-3.9-24.6-8.8"/>
			<path class="st3" d="M633.4,517.2c0,4.8-11,8.8-24.6,8.8s-24.6-3.9-24.6-8.8"/>
		</g>
		<path class="st4" d="M616.4,368.8l-3.4-1.9c0.2,0,0.3,0,0.5,0s0.3,0,0.4,0c0.1,0,0.3,0,0.4,0c0.1,0,0.2,0,0.3,0
			c0.2,0,0.4,0,0.6,0.1c0.2,0,0.4,0.1,0.5,0.1c0.2,0,0.3,0.1,0.5,0.2s0.3,0.1,0.4,0.2c0.1,0.1,0.2,0.1,0.3,0.2
			c0.1,0.1,0.2,0.1,0.2,0.2s0.1,0.1,0.1,0.2c0,0.1,0,0.1-0.1,0.2l-0.1,0.1c0,0-0.1,0.1-0.2,0.1c-0.1,0-0.1,0.1-0.2,0.1
			C616.5,368.7,616.5,368.7,616.4,368.8 M606.9,365.6c-0.1,0-0.1,0-0.2,0s-0.1,0-0.2,0s-0.1,0-0.2,0c-0.1,0-0.1,0-0.2,0
			c-0.2,0-0.4,0-0.6,0s-0.4,0-0.5-0.1c-0.2,0-0.3-0.1-0.5-0.1c-0.1,0-0.3-0.1-0.4-0.2c-0.1-0.1-0.2-0.1-0.3-0.2
			c-0.1-0.1-0.1-0.1-0.2-0.2c0-0.1-0.1-0.1-0.1-0.2s0-0.1,0.1-0.2c0,0,0-0.1,0.1-0.1l0.1-0.1l0.1-0.1l0.1-0.1L606.9,365.6
			 M602.1,360.9l-2.4,0.6l2,1.1c-0.1,0.1-0.3,0.1-0.4,0.2c-0.1,0.1-0.3,0.1-0.4,0.2c-0.1,0.1-0.2,0.1-0.4,0.2
			c-0.1,0.1-0.2,0.1-0.3,0.2c-0.2,0.1-0.3,0.2-0.4,0.3c-0.1,0.1-0.2,0.2-0.3,0.3s-0.1,0.2-0.2,0.4c0,0.1,0,0.2,0,0.4
			c0,0.1,0.1,0.2,0.1,0.4c0.1,0.1,0.1,0.2,0.2,0.3c0.1,0.1,0.2,0.2,0.4,0.3c0.1,0.1,0.3,0.2,0.5,0.3c0.4,0.2,0.8,0.4,1.2,0.5
			c0.5,0.2,1,0.3,1.5,0.4c0.6,0.1,1.1,0.2,1.8,0.2c0.6,0,1.3,0.1,2,0c0.2,0,0.4,0,0.6,0s0.4,0,0.7,0c0.2,0,0.5,0,0.7,0
			s0.5,0,0.8-0.1l4,2.2c-0.4,0-0.8,0.1-1.2,0.1s-0.7,0-1.1-0.1c-0.3-0.1-0.7-0.1-1-0.3c-0.3-0.1-0.6-0.3-0.9-0.4l-3.7,1
			c0.2,0.1,0.5,0.3,0.7,0.4c0.3,0.1,0.5,0.2,0.8,0.3s0.6,0.2,0.9,0.3c0.3,0.1,0.6,0.1,0.9,0.2c0.3,0.1,0.7,0.1,1,0.1s0.7,0.1,1,0.1
			c0.4,0,0.7,0,1.1,0c0.4,0,0.7,0,1.1,0c0.2,0,0.5,0,0.7,0s0.5,0,0.7-0.1c0.2,0,0.4-0.1,0.7-0.1c0.2,0,0.4-0.1,0.7-0.1l1.7,0.9
			l2.4-0.7l-1.6-0.9c0.4-0.1,0.7-0.2,1-0.4c0.3-0.1,0.6-0.3,0.8-0.4s0.4-0.3,0.6-0.4c0.2-0.1,0.3-0.3,0.4-0.4
			c0.1-0.2,0.2-0.4,0.2-0.5c0-0.2-0.1-0.4-0.2-0.5c-0.1-0.2-0.3-0.3-0.5-0.5c-0.2-0.2-0.5-0.3-0.8-0.5c-0.3-0.2-0.6-0.3-0.9-0.4
			c-0.3-0.1-0.7-0.2-1-0.3c-0.4-0.1-0.7-0.2-1.1-0.2c-0.4-0.1-0.8-0.1-1.2-0.2c-0.4,0-0.8-0.1-1.3-0.1c-0.4,0-0.9,0-1.4,0
			s-1,0-1.5,0.1c-0.5,0-1.1,0.1-1.7,0.1l-3.7-2c0.1,0,0.3,0,0.4,0c0.1,0,0.3,0,0.4,0s0.3,0,0.4,0c0.1,0,0.3,0,0.4,0
			c0.2,0,0.4,0,0.6,0.1c0.2,0,0.4,0.1,0.6,0.1c0.2,0.1,0.4,0.1,0.6,0.2c0.2,0.1,0.4,0.2,0.5,0.2l3.6-1c-0.2-0.1-0.4-0.2-0.7-0.3
			c-0.2-0.1-0.5-0.2-0.7-0.3c-0.3-0.1-0.5-0.2-0.8-0.2c-0.3-0.1-0.6-0.1-0.9-0.2c-0.3-0.1-0.6-0.1-0.9-0.1c-0.3,0-0.6-0.1-0.9-0.1
			c-0.3,0-0.6,0-1,0c-0.3,0-0.7,0-1,0c-0.2,0-0.5,0-0.7,0s-0.5,0-0.7,0.1c-0.2,0-0.5,0.1-0.7,0.1s-0.5,0.1-0.7,0.1L602.1,360.9"/>
	</g>
	<g>
		<g>
			<path class="st1" d="M511,559.1c3,1,6.7,1.8,10.8,2.2v-90c-4.1-0.4-7.9-1.1-10.8-2.2V559.1z"/>
			<path class="st1" d="M509.4,468.4c-3.6-1.5-5.8-3.5-5.8-5.7v88.4v1.7c0,2.2,2.2,4.1,5.8,5.7V468.4z"/>
			<path class="st1" d="M528.5,471.5c-0.1,0-0.3,0-0.4,0c-1,0-2,0-2.9-0.1v90c1,0,1.9,0.1,2.9,0.1c0.1,0,0.3,0,0.4,0V471.5z"/>
			<path class="st1" d="M535.2,471.1v90c10.1-1.1,17.5-4.4,17.5-8.4V551v-88.4C552.7,466.7,545.3,470.1,535.2,471.1z"/>
		</g>
		<g>
			<path class="st2" d="M550.1,458.4c0,0,0,0.1,0,0.3c0,0.2-0.1,0.5-0.2,0.9c-0.1,0.4-0.4,0.9-0.7,1.3c-0.4,0.5-0.8,1-1.4,1.5
				c-1.2,1-2.8,2.1-4.8,3.1c-1,0.5-2.1,0.9-3.3,1.3c-1.2,0.4-2.5,0.5-3.8,0.8c-2.7,0.4-5.6,0.7-8.6,0.8c-3.1,0.1-6.3,0-9.7-0.4
				c-3.3-0.4-6.8-1-10.2-2.2c-1.7-0.6-3.4-1.3-5-2.4c-0.8-0.5-1.6-1.2-2.2-2c-0.7-0.8-1.2-2-1.2-3.2c0-0.4,0-0.4,0.1-0.9
				c0.1-0.4,0.2-0.6,0.3-0.9c0.2-0.5,0.5-1,0.8-1.4c0.7-0.8,1.4-1.5,2.2-2c1.6-1.1,3.3-1.8,5-2.4c3.4-1.2,6.9-1.8,10.2-2.2
				c6.7-0.7,13-0.4,18.3,0.4c0.7,0.1,1.3,0.2,2,0.4c0.6,0.1,1.3,0.2,1.8,0.5c1.2,0.4,2.3,0.8,3.3,1.3c2,1,3.6,2.1,4.8,3.1
				c0.6,0.5,1.1,1,1.4,1.5c0.4,0.5,0.6,1,0.7,1.3c0.1,0.4,0.2,0.7,0.2,0.9C550.1,458.3,550.1,458.4,550.1,458.4z M550.1,458.4
				c0,0,0-0.1,0-0.3c0-0.2-0.1-0.5-0.2-0.9c-0.3-0.8-1.1-1.7-2.4-2.5c-1.3-0.8-3.1-1.4-5.1-1.8c-1-0.2-2.1-0.4-3.3-0.6
				c-0.6-0.1-1.2-0.2-1.8-0.4c-0.6-0.1-1.2-0.2-1.9-0.4c-5.1-0.8-11.2-1.1-17.6-0.4c-3.2,0.4-6.5,1-9.7,2.1
				c-1.6,0.5-3.1,1.2-4.4,2.1c-1.3,0.9-2.4,2.1-2.3,3.1c0,1.1,1,2.3,2.3,3.1c1.3,0.9,2.8,1.6,4.4,2.1c3.1,1.1,6.5,1.7,9.7,2.1
				c3.2,0.4,6.4,0.5,9.3,0.4c3-0.1,5.8-0.4,8.3-0.8c1.3-0.2,2.5-0.5,3.6-0.7c1.2-0.2,2.3-0.4,3.3-0.6c2-0.4,3.8-1,5.1-1.8
				c1.3-0.8,2.1-1.7,2.4-2.5c0.2-0.4,0.2-0.7,0.2-0.9C550.1,458.5,550.1,458.4,550.1,458.4z"/>
		</g>
		<g>
			<path class="st3" d="M549.4,468.6c0,4.8-11,8.8-24.6,8.8c-13.6,0-24.6-3.9-24.6-8.8"/>
			<path class="st3" d="M549.4,478.6c0,4.8-11,8.8-24.6,8.8c-13.6,0-24.6-3.9-24.6-8.8"/>
			<path class="st3" d="M549.4,488.6c0,4.8-11,8.8-24.6,8.8c-13.6,0-24.6-3.9-24.6-8.8"/>
			<path class="st3" d="M549.4,498.6c0,4.8-11,8.8-24.6,8.8c-13.6,0-24.6-3.9-24.6-8.8"/>
			<path class="st3" d="M549.4,508.6c0,4.8-11,8.8-24.6,8.8c-13.6,0-24.6-3.9-24.6-8.8"/>
			<path class="st3" d="M549.4,518.6c0,4.8-11,8.8-24.6,8.8c-13.6,0-24.6-3.9-24.6-8.8"/>
			<path class="st3" d="M549.4,528.6c0,4.8-11,8.8-24.6,8.8c-13.6,0-24.6-3.9-24.6-8.8"/>
			<path class="st3" d="M549.4,538.6c0,4.8-11,8.8-24.6,8.8c-13.6,0-24.6-3.9-24.6-8.8"/>
		</g>
		<g>
			<path class="st2" d="M549.3,547.9l-0.4-11l-0.3-11l-0.3-11c-0.1-1.8-0.1-3.7-0.1-5.5l0.1-5.5l0.3-44.2l0.8,1.2l-0.2-0.1l1.5-0.5
				c-0.8,1.1-1.7,1.9-2.6,2.6c-1,0.7-2,1.4-3,1.9c-0.5,0.3-1,0.5-1.6,0.8c-0.5,0.2-1.1,0.5-1.6,0.7c-1.1,0.4-2.2,0.7-3.3,1l-1.7,0.4
				l-1.7,0.3c-1.1,0.2-2.3,0.3-3.4,0.5c-1.1,0.1-2.3,0.2-3.4,0.2c-1.1,0-2.3,0.1-3.4,0.1c-1.1,0-2.2,0-3.4-0.1
				c-1.1-0.1-2.3-0.1-3.4-0.3l-1.7-0.2l-1.7-0.3c-1.1-0.2-2.3-0.5-3.4-0.7l-1.7-0.5l-1.6-0.6c-1.1-0.4-2.2-0.9-3.2-1.4
				c-1-0.6-2.1-1.1-3-1.9c-1-0.7-1.9-1.5-2.7-2.4l1.3,0.4l-0.3,0.1l0.9-1.2l0.4,90l-0.1-0.4c0,0,0.2,0.3,0.3,0.4
				c0.1,0.2,0.3,0.4,0.4,0.5c0.3,0.4,0.7,0.7,1.1,1c0.8,0.6,1.7,1.2,2.6,1.6c0.5,0.2,0.9,0.5,1.4,0.6c0.5,0.2,1,0.4,1.5,0.5l1.5,0.5
				l1.6,0.3c1,0.3,2.1,0.3,3.2,0.6l3.3,0.4c1.1,0.1,2.2,0.2,3.3,0.3c1.1,0.1,2.2,0.1,3.3,0.1l1.7,0.1c0.5,0,1.1,0,1.6,0
				c1.1,0,2.2-0.1,3.3-0.1c1.1-0.1,2.2-0.2,3.3-0.3c1.1-0.1,2.2-0.3,3.3-0.5l1.6-0.4l1.6-0.5c1-0.4,2.1-0.7,3.1-1.2
				c0.5-0.2,1-0.4,1.5-0.7c0.5-0.3,1-0.5,1.4-0.9c0.4-0.3,0.9-0.7,1.3-1l1.1-1.2l-1,1.3c-0.4,0.4-0.8,0.8-1.2,1.2
				c-0.4,0.4-0.9,0.7-1.4,1c-0.5,0.3-1,0.6-1.4,0.9c-0.5,0.3-1,0.6-1.5,0.8c-0.5,0.2-1,0.5-1.6,0.7l-1.6,0.6l-1.6,0.5
				c-1.1,0.3-2.2,0.6-3.3,0.8c-1.1,0.2-2.2,0.4-3.3,0.6c-1.1,0.2-2.2,0.3-3.4,0.4c-0.6,0-1.1,0.1-1.7,0.1l-1.7,0.1
				c-1.1,0-2.3,0.1-3.4,0.1c-1.1,0-2.3,0-3.4-0.1c-1.1-0.1-2.3-0.1-3.4-0.3c-1.1-0.2-2.3-0.3-3.4-0.6l-1.7-0.4l-1.7-0.5
				c-0.6-0.1-1.1-0.4-1.7-0.6c-0.6-0.2-1.1-0.4-1.6-0.7c-1.1-0.5-2.1-1.1-3.1-1.9c-0.5-0.4-1-0.8-1.4-1.3c-0.2-0.2-0.4-0.5-0.6-0.8
				c-0.2-0.3-0.4-0.5-0.6-1l-0.1-0.2l0-0.2l-0.4-90l0-0.9l0.9-0.3l0.3-0.1l0.8-0.3l0.6,0.6c0.6,0.7,1.4,1.4,2.3,2
				c0.8,0.6,1.8,1.2,2.7,1.7c1,0.5,1.9,0.9,2.9,1.3l1.5,0.5l1.6,0.4c1,0.3,2.1,0.5,3.2,0.7l1.6,0.3l1.6,0.2c1.1,0.2,2.2,0.2,3.2,0.3
				c1.1,0.1,2.2,0.1,3.3,0.1c1.1,0,2.2,0,3.3-0.1c1.1-0.1,2.2-0.1,3.3-0.2c1.1-0.2,2.2-0.2,3.2-0.4l1.6-0.3l1.6-0.4
				c1-0.3,2.1-0.6,3.1-1c0.5-0.2,1-0.4,1.5-0.6c0.5-0.2,1-0.4,1.4-0.7c0.9-0.5,1.8-1.1,2.6-1.7c0.8-0.6,1.6-1.4,2.1-2.1l0.6-0.8
				l0.9,0.4l0.2,0.1l0.8,0.3l0,0.9l-0.3,44.2l0,5.5c0,1.8-0.1,3.7-0.1,5.5l-0.4,11l-0.4,11L549.3,547.9z"/>
		</g>
		<path class="st4" d="M531.5,460.5l-3.4-1.9c0.2,0,0.3,0,0.5,0s0.3,0,0.4,0c0.1,0,0.3,0,0.4,0s0.2,0,0.3,0c0.2,0,0.4,0,0.6,0.1
			c0.2,0,0.4,0.1,0.5,0.1c0.2,0,0.3,0.1,0.5,0.2c0.2,0.1,0.3,0.1,0.4,0.2s0.2,0.1,0.3,0.2c0.1,0.1,0.2,0.1,0.2,0.2s0.1,0.1,0.1,0.2
			c0,0.1,0,0.1-0.1,0.2l-0.1,0.1c0,0-0.1,0.1-0.2,0.1c-0.1,0-0.1,0.1-0.2,0.1C531.7,460.4,531.6,460.5,531.5,460.5 M522,457.3
			c-0.1,0-0.1,0-0.2,0c-0.1,0-0.1,0-0.2,0c-0.1,0-0.1,0-0.2,0c-0.1,0-0.1,0-0.2,0c-0.2,0-0.4,0-0.6,0s-0.4,0-0.5-0.1
			c-0.2,0-0.3-0.1-0.5-0.1c-0.1,0-0.3-0.1-0.4-0.2c-0.1-0.1-0.2-0.1-0.3-0.2c-0.1-0.1-0.1-0.1-0.2-0.2c0-0.1-0.1-0.1-0.1-0.2
			c0-0.1,0-0.1,0.1-0.2c0,0,0-0.1,0.1-0.1l0.1-0.1l0.1-0.1l0.1-0.1L522,457.3 M517.2,452.7l-2.4,0.6l2,1.1c-0.1,0.1-0.3,0.1-0.4,0.2
			c-0.1,0.1-0.3,0.1-0.4,0.2s-0.2,0.1-0.4,0.2c-0.1,0.1-0.2,0.1-0.3,0.2c-0.2,0.1-0.3,0.2-0.4,0.3s-0.2,0.2-0.3,0.3
			c-0.1,0.1-0.1,0.2-0.2,0.4c0,0.1,0,0.2,0,0.4c0,0.1,0.1,0.2,0.1,0.4c0.1,0.1,0.1,0.2,0.2,0.3c0.1,0.1,0.2,0.2,0.4,0.3
			c0.1,0.1,0.3,0.2,0.5,0.3c0.4,0.2,0.8,0.4,1.2,0.5c0.5,0.2,1,0.3,1.5,0.4c0.5,0.1,1.1,0.2,1.8,0.2s1.3,0.1,2,0c0.2,0,0.4,0,0.6,0
			c0.2,0,0.4,0,0.7,0c0.2,0,0.5,0,0.7,0c0.2,0,0.5,0,0.8-0.1l4,2.2c-0.4,0-0.8,0.1-1.2,0.1s-0.7,0-1.1-0.1c-0.3-0.1-0.7-0.1-1-0.3
			c-0.3-0.1-0.6-0.3-0.9-0.4l-3.7,1c0.2,0.1,0.5,0.3,0.7,0.4c0.3,0.1,0.5,0.2,0.8,0.3c0.3,0.1,0.6,0.2,0.9,0.3s0.6,0.1,0.9,0.2
			c0.3,0.1,0.7,0.1,1,0.1c0.3,0,0.7,0.1,1,0.1c0.4,0,0.7,0,1.1,0s0.7,0,1.1,0c0.2,0,0.5,0,0.7,0c0.2,0,0.5,0,0.7-0.1
			c0.2,0,0.4-0.1,0.7-0.1c0.2,0,0.4-0.1,0.7-0.1l1.7,0.9l2.4-0.7l-1.6-0.9c0.4-0.1,0.7-0.2,1-0.4c0.3-0.1,0.6-0.3,0.8-0.4
			c0.2-0.1,0.4-0.3,0.6-0.4c0.2-0.1,0.3-0.3,0.4-0.4c0.1-0.2,0.2-0.4,0.2-0.5c0-0.2-0.1-0.4-0.2-0.5c-0.1-0.2-0.3-0.3-0.5-0.5
			c-0.2-0.2-0.5-0.3-0.8-0.5c-0.3-0.2-0.6-0.3-0.9-0.4s-0.7-0.2-1-0.3c-0.4-0.1-0.7-0.2-1.1-0.2c-0.4-0.1-0.8-0.1-1.2-0.2
			c-0.4,0-0.8-0.1-1.3-0.1c-0.4,0-0.9,0-1.4,0s-1,0-1.5,0.1c-0.5,0-1.1,0.1-1.7,0.1l-3.7-2c0.1,0,0.3,0,0.4,0c0.1,0,0.3,0,0.4,0
			s0.3,0,0.4,0c0.1,0,0.3,0,0.4,0c0.2,0,0.4,0,0.6,0.1c0.2,0,0.4,0.1,0.6,0.1c0.2,0.1,0.4,0.1,0.6,0.2c0.2,0.1,0.4,0.2,0.5,0.2
			l3.6-1c-0.2-0.1-0.4-0.2-0.7-0.3c-0.2-0.1-0.5-0.2-0.7-0.3c-0.3-0.1-0.5-0.2-0.8-0.2c-0.3-0.1-0.6-0.1-0.9-0.2
			c-0.3-0.1-0.6-0.1-0.9-0.1s-0.6-0.1-0.9-0.1c-0.3,0-0.6,0-1,0c-0.3,0-0.7,0-1,0c-0.2,0-0.5,0-0.7,0c-0.2,0-0.5,0-0.7,0.1
			c-0.2,0-0.5,0.1-0.7,0.1c-0.2,0-0.5,0.1-0.7,0.1L517.2,452.7"/>
	</g>
</g>
<g id="screen">
	
	<radialGradient id="SVGID_1_" cx="381.899" cy="318.9634" r="217.5379" gradientTransform="matrix(1.0323 0 0 1.0395 -4.1807 -40.3778)" gradientUnits="userSpaceOnUse">
		<stop  offset="0" style="stop-color:#1B5FC1;stop-opacity:0.8"/>
		<stop  offset="9.376007e-002" style="stop-color:#2264C3;stop-opacity:0.725"/>
		<stop  offset="0.2344" style="stop-color:#3773C9;stop-opacity:0.6125"/>
		<stop  offset="0.4043" style="stop-color:#588AD2;stop-opacity:0.4765"/>
		<stop  offset="0.5972" style="stop-color:#87ABDE;stop-opacity:0.3222"/>
		<stop  offset="0.8065" style="stop-color:#C2D4EE;stop-opacity:0.1548"/>
		<stop  offset="1" style="stop-color:#FFFFFF;stop-opacity:0"/>
	</radialGradient>
	<ellipse class="st5" cx="390" cy="291.2" rx="260.5" ry="223.7"/>
	<rect x="154.4" y="134.7" class="st6" width="391.9" height="25"/>
	<rect x="158.5" y="156.8" class="st7" width="376.4" height="248.8"/>
	<g>
		<path class="st2" d="M534.7,408.6l-95.3,0.8l-47.6,0.4c-7.9,0.1-15.9,0.1-23.8,0.1l-23.8,0H153.6h-1.3v-1.3V156.8v-1.3h1.3h381.1
			h1.3v1.3v62.9l0,31.5l-0.2,31.5L534.7,408.6z M534.7,408.6l-1-125.9l-0.2-31.5l0-31.5v-62.9l1.2,1.2H153.6l1.2-1.2v251.8l-1.2-1.2
			h190.6l23.8,0c7.9,0,15.9,0.1,23.8,0.1l47.6,0.4L534.7,408.6z"/>
	</g>
	<line class="st3" x1="343.2" y1="408.6" x2="343.2" y2="477.8"/>
	<circle class="st3" cx="343.2" cy="486.9" r="9.2"/>
	<circle class="st3" cx="343.2" cy="486.9" r="5.8"/>
	<polyline class="st3" points="182.7,188 182.7,377.3 501.2,377.3 	"/>
	<line class="st8" x1="198.5" y1="219.7" x2="497" y2="219.7"/>
	<line class="st8" x1="198.5" y1="259.7" x2="497" y2="259.7"/>
	<line class="st8" x1="198.5" y1="299.8" x2="497" y2="299.8"/>
	<line class="st8" x1="198.5" y1="339.8" x2="497" y2="339.8"/>
	<g>
		<polygon class="st9" points="441.3,134.7 311.5,134.7 286.5,159.7 416.4,159.7 		"/>
		<polygon class="st9" points="307.1,134.7 289.4,134.7 264.4,159.7 282.1,159.7 		"/>
		<polygon class="st9" points="273.2,134.7 267.9,134.7 242.9,159.7 248.2,159.7 		"/>
		<polygon class="st9" points="179.6,159.7 186.7,159.7 211.7,134.7 204.6,134.7 		"/>
		<polygon class="st9" points="263.5,134.7 222.3,134.7 197.3,159.7 238.5,159.7 		"/>
		<polygon class="st9" points="198.7,134.7 154.4,134.7 154.4,159.7 173.7,159.7 		"/>
		<polygon class="st9" points="529.2,159.7 546.2,159.7 546.2,142.6 		"/>
		<polygon class="st9" points="546.2,138.2 546.2,134.7 532,134.7 507.1,159.7 524.7,159.7 		"/>
		<polygon class="st9" points="454.3,134.7 447.2,134.7 422.2,159.7 429.3,159.7 		"/>
		<polygon class="st9" points="506.1,134.7 464.9,134.7 439.9,159.7 481.1,159.7 		"/>
		<polygon class="st9" points="515.8,134.7 510.5,134.7 485.6,159.7 490.9,159.7 		"/>
	</g>
	<g>
		<path class="st2" d="M539.6,156.6l-48.9,0.6l-48.9,0.6c-8.2,0.1-16.3,0.1-24.5,0.1h-24.5h-48.9H148.2h-1.3v-1.3V131v-1.3h1.3
			h195.7h97.9c8.2,0,16.3-0.1,24.5,0.1l24.5,0.3l48.9,0.6l0.4,0l0,0.3L539.6,156.6z M539.6,156.6l-0.3-25.6l0.3,0.3l-48.9,0.6
			l-24.5,0.3c-8.2,0.1-16.3,0.1-24.5,0.1h-97.9H148.2l1.2-1.2v25.6l-1.2-1.2h195.7h48.9h24.5c8.2,0,16.3-0.1,24.5,0.1l48.9,0.6
			L539.6,156.6z"/>
	</g>
</g>
<g>
	<linearGradient id="SVGID_2_" gradientUnits="userSpaceOnUse" x1="32.138" y1="564.3389" x2="119.4634" y2="513.9216">
		<stop  offset="0" style="stop-color:#FFFFFF;stop-opacity:0"/>
		<stop  offset="0.1133" style="stop-color:#CACACA;stop-opacity:9.063406e-002"/>
		<stop  offset="0.2408" style="stop-color:#959595;stop-opacity:0.1926"/>
		<stop  offset="0.3702" style="stop-color:#676767;stop-opacity:0.2962"/>
		<stop  offset="0.4989" style="stop-color:#424242;stop-opacity:0.3991"/>
		<stop  offset="0.6266" style="stop-color:#252525;stop-opacity:0.5013"/>
		<stop  offset="0.7533" style="stop-color:#101010;stop-opacity:0.6026"/>
		<stop  offset="0.8783" style="stop-color:#040404;stop-opacity:0.7027"/>
		<stop  offset="1" style="stop-color:#000000;stop-opacity:0.8"/>
	</linearGradient>
	<path class="st10" d="M75.6,519.5c0,0-2.1,8.6,19.8,11.1s30.2-6,30.2-6l-84,54l-18-29L75.6,519.5z"/>
	<linearGradient id="SVGID_3_" gradientUnits="userSpaceOnUse" x1="133.1286" y1="616.9398" x2="199.8009" y2="550.2675">
		<stop  offset="0" style="stop-color:#FFFFFF;stop-opacity:0"/>
		<stop  offset="0.1224" style="stop-color:#C4C4C4;stop-opacity:7.341346e-002"/>
		<stop  offset="0.2458" style="stop-color:#919191;stop-opacity:0.1475"/>
		<stop  offset="0.3717" style="stop-color:#646464;stop-opacity:0.223"/>
		<stop  offset="0.4974" style="stop-color:#404040;stop-opacity:0.2985"/>
		<stop  offset="0.6231" style="stop-color:#242424;stop-opacity:0.3738"/>
		<stop  offset="0.7486" style="stop-color:#101010;stop-opacity:0.4492"/>
		<stop  offset="0.8742" style="stop-color:#040404;stop-opacity:0.5245"/>
		<stop  offset="1" style="stop-color:#000000;stop-opacity:0.6"/>
	</linearGradient>
	<path class="st11" d="M164.8,561.9l2.6,0.3c0,0-2.9,6,13.9,9.7c16.8,3.7,35.1-5,35.1-5l-67,66.3l-28.1-37.8L164.8,561.9z"/>
	<linearGradient id="SVGID_4_" gradientUnits="userSpaceOnUse" x1="586.0385" y1="614.7256" x2="523.4117" y2="540.0898">
		<stop  offset="0" style="stop-color:#FFFFFF;stop-opacity:0"/>
		<stop  offset="0.1015" style="stop-color:#E3E3E3;stop-opacity:6.089062e-002"/>
		<stop  offset="0.5506" style="stop-color:#6A6A6A;stop-opacity:0.3303"/>
		<stop  offset="0.8588" style="stop-color:#1E1E1E;stop-opacity:0.5153"/>
		<stop  offset="1" style="stop-color:#000000;stop-opacity:0.6"/>
	</linearGradient>
	<path class="st12" d="M554.9,551.8h-2.2c0,0,2.3,8.4-11.9,10.1c-14.2,1.7-24.8,0.5-37.4-5l69.5,68.8l22.4-40.5L554.9,551.8z"/>
	<linearGradient id="SVGID_5_" gradientUnits="userSpaceOnUse" x1="679.3585" y1="586.4479" x2="607.6246" y2="514.7141">
		<stop  offset="0" style="stop-color:#FFFFFF;stop-opacity:0"/>
		<stop  offset="1" style="stop-color:#000000;stop-opacity:0.8"/>
	</linearGradient>
	<path class="st13" d="M637,529c0,0,2.1,7.1-11.4,10.7c-13.5,3.7-32.9-2.7-38.5-4.5l87.9,55.6l18-31.8L637,529z"/>
</g>
<g id="bars">
	<rect id="bar1" x="252.8" y="299.8" class="st14" width="38.8" height="77.5"/>
	<rect id="bar2" x="319" y="277.3" class="st14" width="38.8" height="100"/>
	<rect id="bar3" x="383.7" y="235.7" class="st14" width="38.8" height="141.3"/>
</g>
<g id="icons">
	<path class="st7" d="M99.5,276.4v-4.3c0.4,0.1,0.8,0.3,1.1,0.5c0.5,0.4,0.7,1,0.7,1.8h3.4c0-1-0.3-1.9-0.8-2.6
		c-0.5-0.8-1.2-1.4-2.1-1.8c-0.7-0.3-1.4-0.5-2.3-0.6v-2.2h-2.3v2.3c-0.6,0.1-1.2,0.2-1.8,0.5c-0.9,0.4-1.7,0.9-2.2,1.6
		s-0.8,1.5-0.8,2.4c0,1.7,0.9,3.1,2.8,4.1c0.5,0.3,1.1,0.5,1.9,0.8v4.6c-1.2-0.3-1.8-1.2-1.8-2.5H92c0,1.1,0.3,2,0.8,2.8
		s1.3,1.4,2.4,1.9c0.6,0.3,1.3,0.5,2,0.6v1.9h2.3v-1.8c1.4-0.1,2.6-0.5,3.5-1.2c1.1-0.8,1.6-1.9,1.6-3.4c0-1.3-0.4-2.4-1.3-3.2
		C102.5,277.6,101.2,276.9,99.5,276.4z M96.7,275.2c-0.5-0.4-0.8-0.8-0.8-1.3c0-0.6,0.2-1,0.7-1.4c0.2-0.1,0.4-0.2,0.6-0.3v3.3
		C97,275.4,96.8,275.3,96.7,275.2z M100.5,283c-0.3,0.2-0.6,0.3-1.1,0.4v-3.8c0.5,0.2,0.8,0.4,1.1,0.6c0.5,0.3,0.7,0.8,0.7,1.5
		C101.2,282.2,101,282.7,100.5,283z"/>
	<path class="st7" d="M455.5,73.8v-4.3c0.4,0.1,0.8,0.3,1.1,0.5c0.5,0.4,0.7,1,0.7,1.8h3.4c0-1-0.3-1.9-0.8-2.6
		c-0.5-0.8-1.2-1.4-2.1-1.8c-0.7-0.3-1.4-0.5-2.3-0.6v-2.2h-2.3v2.3c-0.6,0.1-1.2,0.2-1.8,0.5c-0.9,0.4-1.7,0.9-2.2,1.6
		c-0.5,0.7-0.8,1.5-0.8,2.4c0,1.7,0.9,3.1,2.8,4.1c0.5,0.3,1.1,0.5,1.9,0.8v4.4c-1.2-0.3-1.8-1.2-1.8-2.5H448c0,1.1,0.3,2,0.8,2.8
		c0.5,0.8,1.3,1.4,2.4,1.9c0.6,0.3,1.3,0.5,2,0.6v1.9h2.3v-1.8c1.4-0.1,2.6-0.5,3.5-1.2c1.1-0.8,1.6-1.9,1.6-3.4
		c0-1.3-0.4-2.4-1.3-3.2C458.5,75,457.2,74.3,455.5,73.8z M452.7,72.6c-0.5-0.4-0.8-0.8-0.8-1.3c0-0.6,0.2-1,0.7-1.4
		c0.2-0.1,0.4-0.2,0.6-0.3v3.3C453,72.8,452.8,72.7,452.7,72.6z M456.5,80.4c-0.3,0.2-0.6,0.3-1.1,0.4V77c0.5,0.2,0.8,0.4,1.1,0.6
		c0.5,0.3,0.7,0.8,0.7,1.5C457.2,79.6,457,80.1,456.5,80.4z"/>
	<path class="st7" d="M442.1,450.6v-4.3c0.4,0.1,0.8,0.3,1.1,0.5c0.5,0.4,0.7,1,0.7,1.8h3.4c0-1-0.3-1.9-0.8-2.6
		c-0.5-0.8-1.2-1.4-2.1-1.8c-0.7-0.3-1.4-0.5-2.3-0.6v-2.2h-2.3v2.3c-0.6,0.1-1.2,0.2-1.8,0.5c-0.9,0.4-1.7,0.9-2.2,1.6
		s-0.8,1.5-0.8,2.4c0,1.7,0.9,3.1,2.8,4.1c0.5,0.3,1.1,0.5,1.9,0.8v4.6c-1.2-0.3-1.8-1.2-1.8-2.5h-3.4c0,1.1,0.3,2,0.8,2.8
		s1.3,1.4,2.4,1.9c0.6,0.3,1.3,0.5,2,0.6v1.9h2.3v-1.8c1.4-0.1,2.6-0.5,3.5-1.2c1.1-0.8,1.6-1.9,1.6-3.4c0-1.3-0.4-2.4-1.3-3.2
		C445.1,451.8,443.9,451.2,442.1,450.6z M439.4,449.5c-0.5-0.4-0.8-0.8-0.8-1.3c0-0.6,0.2-1,0.7-1.4c0.2-0.1,0.4-0.2,0.6-0.3v3.3
		C439.7,449.7,439.5,449.6,439.4,449.5z M443.2,457.2c-0.3,0.2-0.6,0.3-1.1,0.4v-3.8c0.5,0.2,0.8,0.4,1.1,0.6
		c0.5,0.3,0.7,0.8,0.7,1.5C443.9,456.5,443.7,456.9,443.2,457.2z"/>
	<path class="st15" d="M408,539.7v-4.3c0.4,0.1,0.8,0.3,1.1,0.5c0.5,0.4,0.7,1,0.7,1.8h3.4c0-1-0.3-1.9-0.8-2.6
		c-0.5-0.8-1.2-1.4-2.1-1.8c-0.7-0.3-1.4-0.5-2.3-0.6v-2.2h-2.3v2.3c-0.6,0.1-1.2,0.2-1.8,0.5c-0.9,0.4-1.7,0.9-2.2,1.6
		s-0.8,1.5-0.8,2.4c0,1.7,0.9,3.1,2.8,4.1c0.5,0.3,1.1,0.5,1.9,0.8v4.6c-1.2-0.3-1.8-1.2-1.8-2.5h-3.4c0,1.1,0.3,2,0.8,2.8
		c0.5,0.8,1.3,1.4,2.4,1.9c0.6,0.3,1.3,0.5,2,0.6v1.9h2.3v-1.8c1.4-0.1,2.6-0.5,3.5-1.2c1.1-0.8,1.6-1.9,1.6-3.4
		c0-1.3-0.4-2.4-1.3-3.2C411.1,541,409.8,540.3,408,539.7z M405.3,538.6c-0.5-0.4-0.8-0.8-0.8-1.3c0-0.6,0.2-1,0.7-1.4
		c0.2-0.1,0.4-0.2,0.6-0.3v3.3C405.6,538.8,405.4,538.7,405.3,538.6z M409.1,546.4c-0.3,0.2-0.6,0.3-1.1,0.4V543
		c0.5,0.2,0.8,0.4,1.1,0.6c0.5,0.3,0.7,0.8,0.7,1.5C409.8,545.6,409.6,546.1,409.1,546.4z"/>
	<path class="st1" d="M83.2,180.8h8.4l0.9-3.3H82c-0.1-0.4-0.1-0.8-0.1-1.2s0-0.8,0.1-1.2h11l0.9-3.3H83.2c1.5-2.5,4.3-4.2,7.4-4.2
		c2.2,0,4.2,0.8,5.8,2.3l1-3.4c-2-1.4-4.4-2.1-6.8-2.1c-5,0-9.3,3.1-11.1,7.5h-4.4l-0.9,3.3h4.5c0,0.4-0.1,0.8-0.1,1.2
		s0,0.8,0.1,1.2h-3.6l-0.9,3.3h5.3c1.8,4.4,6.1,7.5,11.1,7.5c2.2,0,4.4-0.6,6.3-1.8v-4.2c-1.6,1.7-3.9,2.7-6.3,2.7
		C87.5,185,84.7,183.3,83.2,180.8z"/>
	<path class="st9" d="M586,186.2h8.4l0.9-3.3h-10.4c-0.1-0.4-0.1-0.8-0.1-1.2s0-0.8,0.1-1.2h10.9l0.9-3.3H586
		c1.5-2.5,4.3-4.2,7.4-4.2c2.2,0,4.2,0.8,5.8,2.3l1-3.4c-2-1.4-4.4-2.1-6.8-2.1c-5,0-9.3,3.1-11.1,7.5H578l-0.9,3.3h4.5
		c0,0.4-0.1,0.8-0.1,1.2s0,0.8,0.1,1.2H578l-0.9,3.3h5.3c1.8,4.4,6.1,7.5,11.1,7.5c2.2,0,4.4-0.6,6.3-1.8v-4.3
		c-1.6,1.7-3.9,2.7-6.3,2.7C590.3,190.4,587.5,188.7,586,186.2z"/>
	<path class="st15" d="M294.8,67.9h8.4l0.9-3.3h-10.5c-0.1-0.4-0.1-0.8-0.1-1.2c0-0.4,0-0.8,0.1-1.2h11l0.9-3.3h-10.7
		c1.5-2.5,4.3-4.2,7.4-4.2c2.2,0,4.2,0.8,5.8,2.3l1-3.4c-2-1.4-4.4-2.1-6.8-2.1c-5,0-9.3,3.1-11.1,7.5h-4.4l-0.9,3.3h4.5
		c0,0.4-0.1,0.8-0.1,1.2s0,0.8,0.1,1.2h-3.6l-0.9,3.3h5.3c1.8,4.4,6.1,7.5,11.1,7.5c2.2,0,4.4-0.6,6.3-1.8v-4.2
		c-1.6,1.7-3.9,2.7-6.3,2.7C299,72.1,296.3,70.4,294.8,67.9z"/>
	<path class="st7" d="M265.3,474.1h8.4l0.9-3.3h-10.4c-0.1-0.4-0.1-0.8-0.1-1.2s0-0.8,0.1-1.2h10.9l0.9-3.3h-10.7
		c1.5-2.5,4.3-4.2,7.4-4.2c2.2,0,4.2,0.8,5.8,2.3l1-3.4c-2-1.4-4.4-2.1-6.8-2.1c-5,0-9.3,3.1-11.1,7.5h-4.4l-0.9,3.3h4.5
		c0,0.4-0.1,0.8-0.1,1.2c0,0.4,0,0.8,0.1,1.2h-3.6l-0.9,3.3h5.3c1.8,4.4,6.1,7.5,11.1,7.5c2.2,0,4.4-0.6,6.3-1.8v-4.2
		c-1.6,1.7-3.9,2.7-6.3,2.7C269.6,478.4,266.8,476.7,265.3,474.1z"/>
	<g id="stars">
		<path id="star3" class="st4" d="M174.6,56.6l-4.3,1.3l4.3,1.3c1.7,0.5,3.1,1.9,3.6,3.6l1.3,4.3l1.3-4.3c0.5-1.7,1.9-3.1,3.6-3.6
			l4.3-1.3l-4.3-1.3c-1.7-0.5-3.1-1.9-3.6-3.6l-1.3-4.3l-1.3,4.3C177.7,54.7,176.3,56.1,174.6,56.6z"/>
		<path id="star2" class="st4" d="M33.3,432.2l-4.3,1.3l4.3,1.3c1.7,0.5,3.1,1.9,3.6,3.6l1.3,4.3l1.3-4.3c0.5-1.7,1.9-3.1,3.6-3.6
			l4.3-1.3l-4.3-1.3c-1.7-0.5-3.1-1.9-3.6-3.6l-1.3-4.3l-1.3,4.3C36.4,430.3,35,431.7,33.3,432.2z"/>
		<path id="star1" class="st1" d="M573.8,276.2l-4.3,1.3l4.3,1.3c1.7,0.5,3.1,1.9,3.6,3.6l1.3,4.3l1.3-4.3c0.5-1.7,1.9-3.1,3.6-3.6
			l4.3-1.3l-4.3-1.3c-1.7-0.5-3.1-1.9-3.6-3.6l-1.3-4.3l-1.3,4.3C576.9,274.4,575.6,275.7,573.8,276.2z"/>
	</g>
</g>

<style>
	#we_manage_your_distribution_and_revenue #bg {
		-webkit-transform-origin: 50% 50%;
		transform-origin: 50% 50%;
		-webkit-transform: scale(0);
		transform: scale(0);
		opacity: 0;
		-webkit-animation: scaleBackground 1.5s linear 0s forwards;
		animation: scaleBackground 1.5s linear 0s forwards;
	}

	#we_manage_your_distribution_and_revenue #bar1, #we_manage_your_distribution_and_revenue #bar2, #we_manage_your_distribution_and_revenue #bar3 {
		-webkit-transform-origin: 50% 100%;
		transform-origin: 50% 100%;
		-webkit-transform: scaleY(0);
		transform: scaleY(0);
		-webkit-animation: scaleBar 1.5s linear 0s forwards;
		animation: scaleBar 1.5s linear 0s forwards;
	}

	#we_manage_your_distribution_and_revenue #money, #we_manage_your_distribution_and_revenue #senke2 {
		opacity: 0;
		-webkit-animation: showManey 1.5s linear 0s forwards;
		animation: showManey 1.5s linear 0s forwards;
	}

	#we_manage_your_distribution_and_revenue #star1 {
		-webkit-animation: blinkStar 1s ease-out 0s alternate infinite;
		animation: blinkStar 1s ease-out 0s alternate infinite;
	}
	#we_manage_your_distribution_and_revenue #star2 {
		-webkit-animation: blinkStar 1s ease-out 1s alternate infinite;
		animation: blinkStar 1s ease-out 1s alternate infinite;
	}
	#we_manage_your_distribution_and_revenue #star3 {
		-webkit-animation: blinkStar 1s ease-out 0.5s alternate infinite;
		animation: blinkStar 1s ease-out 0.5s alternate infinite;
	}

	@-webkit-keyframes scaleBackground {
		to {
			opacity: 1;
			-webkit-transform: scale(1);
			transform: scale(1);
		}
	}

	@-webkit-keyframes scaleBar {
		to {
			-webkit-transform: scale(1);
			transform: scale(1);
		}
	}

	@-webkit-keyframes showManey {
		to {
			opacity: 1;
		}
	}

	@-webkit-keyframes blinkStar {
		0% {
	    opacity: 1;
	  }
		100% {
			 opacity: 0;
		}
	}


	@keyframes scaleBackground {
		to {
			opacity: 1;
			transform: scale(1);
		}
	}

	@keyframes scaleBar {
		to {
			transform: scale(1);
		}
	}

	@keyframes showManey {
		to {
			opacity: 1;
		}
	}

	@keyframes blinkStar {
		0% {
	    opacity: 1;
	  }
		100% {
			 opacity: 0;
		}
	}
</style>

</svg>
