<?xml version="1.0" encoding="utf-8"?>
<!-- Generator: Adobe Illustrator 19.0.0, SVG Export Plug-In . SVG Version: 6.00 Build 0)  -->
<svg version="1.1" id="we_optimize_and_create_targetted_ads"
	 xmlns="http://www.w3.org/2000/svg" xmlns:xlink="http://www.w3.org/1999/xlink" x="0px" y="0px" viewBox="0 0 694.6 594.1"
	 style="enable-background:new 0 0 694.6 594.1;" xml:space="preserve">
<style type="text/css">
	.st0{fill:#4248B7;}
	.st1{fill:url(#SVGID_1_);stroke:url(#SVGID_2_);stroke-miterlimit:10;}
	.st2{fill:#FFFFFF;}
	.st3{fill:#F9D45F;}
	.st4{fill:#272DAD;}
	.st5{fill:none;stroke:#6EA1FF;stroke-width:2.1343;stroke-linecap:round;stroke-miterlimit:10;}
	.st6{fill:#E55C65;}
	.st7{fill:#4ABC57;}
	.st8{fill:#77E084;}
	.st9{fill:none;stroke:#4248B7;stroke-width:2;stroke-miterlimit:10;}
	.st10{fill:none;stroke:#272DAD;stroke-width:1.6252;stroke-miterlimit:10;}
	.st11{fill:#5CC66D;}
	.st12{fill:none;stroke:#E55C65;stroke-miterlimit:10;}
	.st13{fill:none;stroke:#272DAD;stroke-width:0.9257;stroke-miterlimit:10;}
	.st14{fill:none;stroke:#272DAD;stroke-miterlimit:10;}
	.st15{opacity:0.18;fill:#F9D45F;enable-background:new    ;}
	.st16{fill:none;stroke:#272DAD;stroke-width:1.4642;stroke-miterlimit:10;}
	.st17{opacity:0.81;}
	.st18{fill:none;stroke:#272DAD;stroke-width:1.4793;stroke-miterlimit:10;}
	.st19{fill:none;stroke:#FFFFFF;stroke-width:4;stroke-miterlimit:10;}
	.st20{fill:none;stroke:#272DAD;stroke-width:4;stroke-linecap:round;stroke-miterlimit:10;}
</style>
<g id="bg">
	<g>
		<path class="st0" d="M271.9,57.6c-0.4,0.4,0,0.4,1.2-0.5l0.7-0.9L271.9,57.6z M280.5,52.7c1.4-1,2.9-2.3,1.8-2
			c-1.3,1.2-1.7,1.3-3.1,2.6c-1.2,0.8-2.2,1.3-2.1,1.1c-0.4,0.3-2,1.2-2.5,1.8c1.7-0.9,3.8-2.1,5.8-3.7
			C281,52.3,280.6,52.6,280.5,52.7z M413,3.4h0.9C413.5,3.4,413.2,3.4,413,3.4z M502.2,5.9c-0.7-0.1-0.9-0.1-1-0.1
			C501.8,5.9,502.3,6,502.2,5.9z M516.9,9.4c-0.3-0.1-0.6-0.2-0.9-0.2C516.4,9.3,516.7,9.4,516.9,9.4z M413.9,3.4l2.4-0.2
			C416.4,3.1,415,3.3,413.9,3.4z M297.4,42.3c-0.4,0.2-0.8,0.5-1.1,0.7C296.6,42.8,297,42.6,297.4,42.3
			C297.3,42.3,297.3,42.3,297.4,42.3z M375.6,10.9l-0.7,0.2c-0.2,0.1-0.4,0.2-0.5,0.3L375.6,10.9z M347.2,20.4
			c0.6-0.2,0.7-0.6,0.9-0.8c-0.3,0.3-0.8,0.5-1.3,0.7C346.8,20.4,346.9,20.4,347.2,20.4z M303.9,40.2l-0.7,0.4
			C303.3,40.5,303.7,40.3,303.9,40.2z M396.5,6.3c0.1,0,0.2,0.1,0.3,0.1C396.8,6.3,396.7,6.3,396.5,6.3z M589.9,583.2
			C589.9,583.1,589.9,583.2,589.9,583.2C589.7,583.2,589.7,583.3,589.9,583.2z M556.5,593.2l0.5-0.1c0-0.1,0.1-0.1,0.1-0.2
			L556.5,593.2z M543.2,17.7L543.2,17.7C542.4,17.4,542.8,17.5,543.2,17.7z M579,209c1.9-2.2-2.5,4,0.3,0.6
			C578.9,209.9,581.2,206.1,579,209z M298.1,41.9c0.4-0.2,0.7-0.4,1.1-0.6C298.7,41.6,298.3,41.8,298.1,41.9z M579.3,209.6
			L579.3,209.6l0.3-0.3C579.4,209.4,579.4,209.5,579.3,209.6z M597.9,49.2c-0.1-0.1-0.2-0.3-0.4-0.5
			C597.5,48.7,597.6,48.8,597.9,49.2z M558.5,23.3l1,0.5C559.1,23.7,558.8,23.5,558.5,23.3z M615.2,66.7c0.4,0.5,0.5,0.7,1.1,1.4
			c0-0.1-0.1-0.1-0.1-0.2C615.9,67.6,615.6,67.3,615.2,66.7z M628.6,88.3c0-0.1-0.1-0.3-0.1-0.5c-0.1-0.2-0.2-0.5-0.4-0.7
			C628.2,87.5,628.4,87.9,628.6,88.3z M642.4,525.5c-0.3,0.5-0.6,0.7-0.8,0.9C642,526.2,640.2,529.5,642.4,525.5z M297.5,42.4
			c0.1-0.1,0.3-0.3,0.6-0.5c-0.3,0.1-0.5,0.3-0.8,0.4C297.3,42.4,297.3,42.5,297.5,42.4z M617.6,66.1l2.5,3.3
			C619.3,68.5,618.5,67.3,617.6,66.1z M619.5,357.6l0.7,0.7C620,358,619.7,357.8,619.5,357.6z M626.7,79.8c0.3,0.7,0.6,1.4,0.9,2.1
			c0.1,0.1,0.2,0.3,0.3,0.4C627.5,81.4,627.1,80.6,626.7,79.8z M641.6,526.4L641.6,526.4L641.6,526.4z M627.2,549.4
			c2.4-3.1,0.8-1.7,1.2-2.5c2.7-3.8,1.5-1.6,2.6-2.8c1.6-2.5,2.6-4.5,3.8-6.3c0.1-0.1,0.4-0.4,0.2,0c0.7-1.4,2-3.3,3.2-5.3
			s2.4-4.1,3.2-5.8c0.2-0.2,0.2-0.3,0.3-0.4c-0.4,0.4-0.7,0.4-0.7,0.2c0.8-1.5,1.3-3,1.9-3.4c-0.5,0.9-0.5,1.1-0.6,1.5l0.8-1.7
			c1.1-1.3-1.1,2.3-0.9,2.4c0.8-1.6,1.6-3.4,2.5-5c0.8-1.7,1.5-3.2,2.1-4.4c0.6-0.4-2.8,5.8-0.9,2.7l-1,1.9l-1.1,1.8
			c2-2.6-1.3,2.3,0.7-0.1c0.7-1.2,1.2-2.2,1.6-3c0.4-0.8,0.7-1.6,1.1-2.3c0.7-1.4,1.3-2.8,2.5-5.4c0.3-1.2-0.4,0.3-0.1-1
			c1.5-3.7,2.2-5,2.9-6.2c0.7-1.1,1.3-2,2.1-4.8c0.3-1.5,0.1-2.2,1.7-6c0,0.5,0,1-0.1,1.5c0.9-2.6,1-3.3,1.1-4.1
			c0.1-0.8,0.4-1.6,1.3-4.3c-0.1,1-1.2,4.1-0.9,3.3c0.7-1.7,0.9-2.3,0.9-2.9c0.1-0.5,0.1-1,0.5-2.4l0.5-0.5c0.8-2.8,1.4-5.8,2.1-8.8
			c0.3-1.5,0.6-3.1,0.9-4.6c0.1-0.8,0.3-1.6,0.4-2.3l0.4-2.4c0,0.4,0,1.5,0.3,0c1.2-8,2.2-17.1,2-25l-0.4-3c0-0.7,0-1.3,0.2-0.6
			c-0.2-3.1-0.2-0.1-0.5-1.6c-0.2-1.7-0.1-2.3,0.1-1.2c-0.3-2.7-1.1-6.5-2-10.2c-0.9-3.8-2.2-7.5-3-10.2c0.2,0.3,0.3,0.7,0.5,1
			c-1.4-4.2-2.3-4.4-3.8-8.2l0.4,0.7c-1.9-4.4-4.4-8.8-6.9-12.8s-5.1-7.7-7.1-10.7c-0.6-0.4-2-2.3-3.4-4.1c-1.4-1.8-2.8-3.4-3.2-3.5
			c-1.6-2.2-2.2-3-3-4s-1.7-2.2-4.2-5.1c-1.4-1.5-2.3-2-4.1-3.8l0.2-0.3l-2.6-2.3l-1-1.6l-1.7-1.6c0.6,0.7,1.3,1.5,1.1,1.5
			c-2.7-2.6-6.1-6.6-6.1-6.8l-6.3-6c0.2,0.1,1.3,1.1,2.1,1.8c-3.5-3.1-0.4-0.8-3.6-3.7c0.4,0.5-0.3-0.1-0.5-0.1
			c-1.4-1.6-4.7-5.1-7.3-7.6l0.6,0.3c-4.4-4.7-9.4-9.8-14-15.4c1.6,2,0.9,1.8-0.5,0.2l-0.3-0.9c-1-0.9,1.3,1.8-0.7-0.2
			c-1.7-2.1-0.9-1.6,0.2-0.5l-2.1-2.5c0-0.2,0.5,0.4,0.7,0.4c-1-0.9-3.2-4.7-4.6-6v-0.2c-2.1-2.9-3.6-5.1-4.9-7.1
			c-1.3-2-2.5-4-3.9-6.6c-0.3,0-1.3-2-2.2-3.5c-1.8-3.9-3.3-8.4-4.7-13.4c-1-3.5-0.5-1-1-2.5c0.1-0.3-0.8-5.4-0.2-2.8
			c-0.1-0.8-0.3-1.4-0.4-2.1c-0.1-0.6-0.2-1.2-0.3-1.8c-0.2-1.1-0.3-2.2-0.4-3.3c-0.2-2.2-0.4-4.5-0.4-8.5c-0.1,0.8-0.2,1.8-0.3,1.3
			c-0.1-1.4,0.3-3.2,0.4-3v0.4c0-4.4,1-9.5,2.3-14.1c1.3-4.7,2.9-9,4.1-12.3l-0.1,0.4c0.4-1.1,0.9-2.3,1.3-3.4l0.7-1.7l0.8-1.7
			c1.6-3-0.7,1.9,0.5-0.3c0.8-1.8,1.7-3.3,2.4-4.8c0.8-1.4,1.6-2.7,2.4-3.9c1.6-2.4,3.2-4.7,5-7.4c1.8-1.8,4.5-5.4,7.4-9
			c2.9-3.7,6.1-7.5,8.5-9.9l-0.4,0.2c1-1.4,1.5-1.5,2.4-2.5c-0.2,0-1.4,1.3-0.7,0.5c9.6-11.4,20.7-23.1,28.8-36.5
			c1.5-2.4,1.6-3.3,1.9-4.2c0.2-0.5,0.3-1,0.7-1.8c0.3-0.8,0.9-1.8,1.7-3.4c-0.2,0.7-0.3,1.3-0.6,2c2.3-5.3,4.4-10.8,5.6-16.6
			c1.2-5.7,1.6-11.7,1-17.3c0.1,0.7,0.2,0.7,0.3,1.8c0-0.6,0-1.5-0.1-2.4c0-0.5-0.1-1-0.1-1.5c-0.1-0.5-0.1-1-0.2-1.5
			c-0.2-0.9-0.3-1.8-0.4-2.5c-0.2-0.6-0.3-1-0.3-1c-0.3-1.7,0.1-0.4,0-1.5c-0.1-1.2-0.6-2.6-1-3.9s-0.8-2.4-0.9-3.1
			c0-0.2,0.3,0.6,0.4,1c-0.3-0.7-0.8-2.5-1.3-3.8s-0.9-2.3-0.8-1.6c-1.4-4-3.2-7.4-4.7-10.4c-0.3-0.4-0.7-1.1-1.1-1.8
			c-0.4-0.7-0.8-1.4-1.2-2.1c-0.8-1.4-1.6-2.6-1.9-2.8c0.3,0-0.6-1.6-1.9-3.4c-1.2-1.8-2.9-3.9-3.7-4.9c0.7,0.6-1.3-1.9-0.5-1.2
			c-1.9-2.4-3.8-4.4-3.6-3.9c-3.2-4.6-7.9-7.9-9.7-10.6c-6.7-6-13.3-11.1-20-15.5c0.3-0.1,2.1,1.2,3.9,2.4c1.7,1.3,3.4,2.5,3.4,2.2
			c-3.1-2.2-5.7-3.9-8.2-5.5c-2.6-1.6-5.1-3.1-8.4-5.1c-1.7-1,1.1,0.4,1.7,0.7c-6.6-3.8-13-7.1-19.3-9.7c0,0,0.7,0.2,1.4,0.5
			c-1.2-0.5-2.8-1.3-2.8-1.1l1.2,0.5c1.8,1.1-5.1-1.5-5.4-1.5c2.3,0.3-6.2-2.6-2.5-2c-0.8-0.3-1.9-0.6-1.8-0.4
			c-1.2-0.5-1.6-0.7-0.3-0.4c-2.3-0.8-3-1-3.7-1.2s-1.3-0.3-3.4-1.1c0-0.1,0.9,0.2,1.3,0.2c-1.1-0.3-2.1-0.5-3.4-0.9
			c-1.2-0.4-2.7-0.7-4.4-1.3c0.2,0-0.2-0.2,0.9,0.1c-1.5-0.5-2.9-0.9-4.3-1.2c-1.4-0.3-2.7-0.6-4-1c-1.3-0.3-2.7-0.7-4.1-1
			c-1.4-0.3-3-0.7-4.6-1.2c2.1,0.1-2.2-0.7-2.5-1.1L510.9,6l1.4,0.5c-3.2-0.7-6-1-8.8-1.6l2.4,0.3l-6-1l3.4,0.8
			c-3.3-0.4,0.3,0.5-4-0.3c0.9,0.1-3.2-0.5-4.8-1l0,0c-1.6-0.1-3.3-0.3-5.6-0.6c-0.6-0.2,0.6-0.3,0.2-0.5c-1.6,0.1-7.6-0.9-9.6-0.7
			c0.7,0,0.7-0.2,0.5-0.3l-1.4,0.1c-1.5-0.2-1.7-0.3-1.5-0.4c-4.5-0.5,1.4,0.6-3.9-0.1c0.4,0,0.2,0,1.1,0c-2.7-0.2-5.3-0.4-7.8-0.5
			c-2.6-0.1-5-0.1-7.5-0.3c-1.5-0.4,4.3,0.1,2.7-0.3c-3.6-0.2-7.3,0-11,0c-3.7,0.1-7.3,0.2-10.8,0.3h1.3c-0.9,0.6-5.2-0.1-8.6,0.4
			c0.9-0.1,1.1-0.4,0.9-0.3c-2.4,0.1-4.8,0.3-7.5,0.6s-5.7,0.6-9.3,1.1l0.9-0.2c-2.8,0.2-7.3,0.7-10.3,1.2c-0.9,0.3-2.6,0.5-1.5,0.5
			c-9.3,0.6-17.4,3.4-25.6,4.7c1-0.2,2.3-0.7,1.5-0.5c-2.3,0.5-4.5,1.2-6.8,1.8c0.6,0.1,0.9-0.1,2.4-0.3c-0.8,0.4-2.7,1-4.4,1.4
			c3-1-0.1-0.4-1.5-0.1c0.2,0-0.2,0.2-0.1,0.2c-3.6,0.7-0.5,0.6-5.3,1.8l0.2-0.2c-1.8,0.6-3.4,1.3-5.3,1.9c-0.9,0,1.9-0.7,1.9-1
			c-2.7,0.9-5.2,2.2-7.7,2.9c1.1-0.5,2.7-1.1,3.9-1.5c-2.8,0.6-3,0.8-5,1.5l0.2-0.1c-1.5,0.5-3.1,1-4.6,1.6c0.4-0.1,0.8-0.2,1.2-0.4
			c-1.5,1-3.2,1.7-5,2.4c-1.8,0.7-3.8,1.6-5.9,2.8c4.1-2.3,0.6-0.5,0.8-1c-1.2,0.4-2.9,1.1-2.4,0.8c-2,1.1-3.5,1.4-6.3,3.1
			c-0.2,0-2.2,1-1.8,0.6c-2.6,1.3,0.7-0.1,0.5,0.1c-4,2.2-9.8,4.2-15.5,7.4c-5,2.6-5.8,3.4-10.4,5.9c-1.6,0.6,1.1-1,1.1-1
			c-2.6,1.1-4.5,2.1-6.8,3.5c0.4-0.3-0.1-0.1-0.9,0.2c-1.9,1-1.1,1-3.7,2.2c0.4-0.3,0.8-0.8,1.7-1.4c-2.2,1.3-4.3,2.6-6.6,4
			c-0.7,0.2,1.3-1,2-1.5c-1.3,0.7-2.9,1.7-4.3,2.6c-1.4,0.9-2.6,1.7-2.9,2l1.7-0.9c-0.9,0.6-0.6,0.1,0.1-0.4
			c2.1-1.5,3.2-1.7,3.4-1.7l-1.6,1c1.9-0.5,6.5-3.8,9.9-5.5l-1.2,1.1l3.3-2.1c0.8-0.3,1.4-0.3-0.2,0.6c2.5-1,2.1-1.2,4.2-2.1
			c0.2-0.1,0.1,0-0.1,0.1l2.3-1.3c-0.4,0.3,0.5,0.1-0.9,0.7c4.3-1.9,6.7-3.7,8.4-4.1l-0.3,0.2c5.8-3,0.4-0.6,4.7-3l3.3-0.7l0.5-0.6
			c0.6-0.3,1.8-0.8,1.7-0.6c2.2-1.3-0.4,0.1,0.8-0.7c3.1-1.1,8.1-3.9,8.9-3.8c1-0.7-2.9,1.2,0.2-0.5c1.1,0.1,3.6-1.8,6.4-2.8
			c-0.7,0.6-3.3,1.6-0.5,0.6c0.7-0.6,2-1.1,3.5-1.7c1.4-0.6,3-1,4.1-1.6c0-0.2,1.2-0.7,3-1.5c1.7-0.7,4-1.5,5.9-2.3
			c-0.1,0.1,1.8-0.6,4.2-1.3c2.4-0.7,5.3-1.7,7.2-2.1l-0.1,0.1c0.6-0.5,4.5-1.7,7.3-2.5c-0.1,0.2-0.5,0.5-2.1,1l2.7-0.7
			c0.6-0.3,1.4-0.6,3.1-1.1l-0.6,0.4c1.8-0.5,3.5-1,5.5-1.5c1.9-0.5,4-1,6.3-1.4c0.2-0.3-3.8,0.1,1-1.1c0.2,0.1,0.4,0.3-0.8,0.6
			c0.4-0.1,1.5-0.4,2.3-0.5L390,7c2.1-0.3,1.1-0.4,2.8-0.7c0,0.2,1.3-0.1,1.1,0.1c-0.4,0.1-1.5,0.2-2.1,0.4c1-0.2,2-0.4,2.9-0.5
			s1.7-0.2,2.1-0.2c-0.2-0.1,0-0.3,1.3-0.5c3.6-0.6,1.3,0,3.4-0.3c0.8-0.3,3.2-0.5,3.2-0.8c1.1-0.2,1.3,0,1.7,0
			c0.9-0.2,3.1-0.6,4.8-0.8c1.7-0.2,2.9-0.4,1.8-0.5h-0.5c0.1,0,0.2,0,0.3,0l0,0l0,0c3.1-0.5,6.3-0.9,9.5-1.1
			c1.6-0.1,3.2-0.2,4.8-0.3c1.6-0.1,3.2-0.2,4.7-0.3v0.1c1.8-0.2,3.9-0.3,5.8-0.4c1.9-0.1,3.7-0.2,5-0.4c1.1,0,2.6,0.1,2.1,0.3
			c2.8-0.1,3.1-0.3,7.2-0.1c-2.8,0.2,1,0.1-2.9,0.1c3.7,0.1,4.5,0.3,8.4,0c-0.7,0.1,0,0.2,1.1,0.3c1.1,0.1,2.5,0.1,3.4,0.1l-2.6-0.3
			c2,0,3.7,0.1,5.4,0.2l-1,0.3c0.9,0.1,1.8,0.2,2.7,0.2c0.9,0.1,1.8,0.1,2.6,0.2c1.7,0.1,3.3,0.1,4.9,0.1c3.2,0.1,6.1,0.3,8.9,0.9
			c2,0-4-0.6-2.2-0.7c3.4,0.3,6.9,1.3,8,1.5c4.7,0.8,4.4,0.1,9.3,1c-0.6-0.2-1.1-0.7,2.5-0.1c3.4,0.7,4.1,1.2,1.9,1
			c-0.8-0.1-1.2-0.2-1.2-0.3c-1.1-0.2-2.6-0.4-1.2,0h0.5c1.7,0.4,6.3,1.3,5.2,1.2c2.6,0.4,1.1,0-0.8-0.4c2.2,0.5,3.8,0.9,5.5,1.2
			c1.7,0.4,3.4,0.7,5.6,1.3c-0.7-0.2-1.3-0.5-0.6-0.4c6.4,1.7,2.9,0.4,7.3,1.5c2.4,0.9-1,0.2,3.4,1.2c2.6,0.9,0.5,0.5-0.6,0.3
			c4.1,0.8,7.4,2.4,9.6,3.1l-2.1-0.6c1.3,0.3,2.3,0.7,3.3,1l-1.1-0.6c1.2,0.4,2.2,0.8,2.2,0.9c1.3,0.3-0.8-0.7,1.7,0
			c1.6,0.7,5,1.6,5.4,2.1c-5-1.9,0.5,0.5-3.8-1c0.8,0.3,1.8,0.6,3,1.1c0.2,0.1-0.2,0-0.5-0.1c4.7,2.1,2.3,0.5,7.3,2.5
			c-0.7-0.1,1,0.8,1.8,1.1c-2-0.9-0.8-0.7,1,0c3.1,1.5,3.5,1.4,5.1,2.1c-0.6-0.3-1.2-0.6-1.8-0.9c0.7,0.1,2.3,0.8,4.4,1.8
			c0.1,0.2-2-0.9-1.3-0.4c1.3,0.4,2.6,1.2,4,1.9c1.4,0.8,2.9,1.7,4.6,2.5c1.5,0.9,0,0.4,1.3,1.1c1.9,0.8,2.8,1.5,3.7,2.1
			c1,0.6,1.9,1.3,3.8,2.3c-1-0.8-1.1-0.9,1.6,0.5c-2-1.3-4.1-2.3-6.2-3.5l4.1,2c-1.9-1.1-4-2.2-5.1-2.9c2,0.9,1.8,0.9,1,0.2
			c2.4,1.8,5.2,2.8,7.9,4.8l-0.4,0.4c4.1,3,7.7,4.8,12.8,9.1l-1.6-1.4c0.4,0.2,1.2,0.8,2.2,1.6c0.9,0.8,1.9,1.6,2.8,2.3
			c-0.3,0,0.7,1,1.3,1.7c0-0.1,0.9,0.7,1.9,1.6c1,0.9,2,1.8,2.4,1.8c0.7,0.7,1.3,1.5,2,2.2c3.7,3.9,4.7,4,8.1,7.9
			c-1.2-1,0.3,0.8-2.1-1.7c1.2,1.3,2.1,2.5,2.2,2.4c0.6,0.8,3.3,3.5,4.1,4.9c0.5,0.5,0.8,0.6,2,2.2c0.1,0.2-0.1,0.1-0.1,0.1
			c0.1-0.1,1.9,2.4,1.1,0.9c1.3,2.4,3.4,5.4,5.2,8.5c1,1.5,1.8,3.1,2.5,4.6s1.3,2.8,1.7,3.9c1.6,3.4,3.2,7.6,4.2,10.9
			c-0.1-0.2-0.1,0-0.3-0.6c0.6,2.3,0.8,2.9,1.2,3.7c0.4,0.7,0.6,1.6,1.1,4.2c0.1,1.4-0.1,0.7-0.3-0.1c-0.2-0.8-0.4-1.8-0.3-0.9
			c-0.4,0.8,1.1,6.3,0.8,10v-0.9c-0.2,2.7,0.4,6.7-0.4,11.1c0,0,0-0.2-0.1,0c0,0.8-0.1,1.7-0.3,2.7c-0.1,0.5-0.1,1.1-0.2,1.6
			c-0.1,0.6-0.2,1.1-0.4,1.7c-0.5,2.3-1.2,4.8-1.9,6.8c0.2-1.4,0.5-1.9,0-1.2c-0.6,1.8,0.6-0.4-0.7,3.3c-0.5,1.1-1.9,3.6-2.2,3.8
			c0.5-1.1,1-2.2,1.5-3.3c-1,1.6-1.9,4.3-2.8,6V146c-2.5,5-2.2,5.2-5.5,10.3l0.4-0.5c-1.5,3-1.7,2.2-3.3,5.1l-0.9,0.6
			c-1.2,1.8-4.2,6.4-6.6,9.5c1.2-1.9,3.9-5.6,5.4-8c-1.2,1.8-4.4,5.9-5,6.8c0.5-0.7,1.1-1.6,1.7-2.3c-1.4,2.3-3.4,5.1-6.2,8.4
			c-0.1-1-7.4,8.4-10,10.4c-4.8,5.9-10,11.3-15.5,18.4c2.4-2.2-1.6,2.1-0.8,2c-1.2,1.7-1.7,2.3-1.8,2.4c-1.4,1.6-2.6,3.3-3.9,4.9
			c-0.5,0.6-0.2,0.1,0.1-0.4c0.4-0.6,0.8-1.2,0.7-1.2c-2.6,3.8-1.3,1.4-3.1,3.9c0.5-0.4-0.6,1.5-2,3.7l2.2-3
			c-1.5,2.8-2.3,3.9-3.1,5.1c-0.4,0.6-0.8,1.1-1.3,2c-0.4,0.8-1,1.8-1.6,3.3l0.8-1.9c-0.3,0.8-0.9,1.8-1.4,3
			c-0.6,1.2-1.2,2.6-1.7,4.1c-0.3,0.7-0.6,1.4-0.8,2.1c-0.2,0.7-0.4,1.4-0.6,2c-0.2,0.6-0.4,1.3-0.5,1.8c-0.1,0.6-0.2,1-0.3,1.5
			c-0.2,0.5-0.6,1.2-0.2-0.2c-1.2,3.8-2.1,8.1-2.6,12.3c-0.5,4.2-0.7,8.1-0.9,11.2l-0.1-0.6c0,1.5,0.3,2.6,0.2,4.4
			c-0.1-0.1-0.2-0.6-0.2,0.1c0,0.4,0.2,1.4,0.3,2.5c0.1,0.6,0.1,1.2,0.2,1.7c0.1,0.6,0.2,1.1,0.2,1.6l-0.6-1
			c0.4,3.9,1.1,6.8,1.9,9.5c0.9,2.7,1.8,5.2,3,8.2c-0.2,0.1,0.2,1.6,0.8,3.3c0.3,0.9,0.7,1.9,1.1,2.8c0.4,0.9,0.8,1.8,1.1,2.5
			l-0.1-0.1c2,4.1,4,7.3,6.1,10.4s4.4,6,6.9,9.2c1.4,2.2,4.1,5.6,7.1,9.2c3.1,3.6,6.6,7.4,9.3,10.5c-0.8-1,0.4-0.1,1.4,0.9
			c1.3,1.5,3.9,3.6,3.4,3.7l-0.5-0.5c0.7,1.3,3.6,4.1,5.7,6.3h0.7c5.1,6.3,15.1,14.9,17.5,18.6c1.4,1.3,3.1,3.1,4.5,4.4l-0.3,0.1
			c3.5,4.1,5.3,6.1,9.5,11.2l-1-0.9c2.3,2.9,3.6,3.2,5.7,6l0.3,1.1c3.9,5.3,7.1,11,10.3,16.6c-0.1-0.1-0.3-0.2-0.8-1.1
			c0.3,0.7,0.8,1.7,1.4,2.8c0.5,1.1,1.1,2.4,1.6,3.5s0.9,2.1,1.2,2.7s0.5,0.9,0.5,0.6c-0.2,0.1,0.5,1.7,1.2,3.6
			c0.4,1,0.8,2.1,1.1,3.1c0.4,1.1,0.7,2.1,1,2.9l-0.4-0.5c1.1,2.8,1.2,2.9,2.1,6.9c0.1,1-0.1,0.9-0.2-0.4c0.2,1.6,0.4,2.2,0.5,3
			c0.2,0.7,0.3,1.5,0.4,3.5l-0.3-1.5c0.3,3.4,0.4,3.1,0.7,4.9c0.1,1.1,0.1,2.7,0.1,4.1s-0.2,2.6-0.3,2.8c0.1,0.5,0.4,2.3,0.2,4.3
			c-0.1,0.3-0.1-0.5-0.1-0.8c-0.3,2.8-0.3,4.9-0.4,6.8c-0.1,1.9-0.3,3.5-0.6,5.5c-0.1,0.1-0.2,0.3-0.3,0.6c0.6-4.5,1-8.1,0.9-7.7
			c-0.2,0-0.7,3.6-0.7,0.7c-0.1,1.4-0.1,3.4-0.3,5.5c-0.1,2-0.5,4.2-0.8,5.9c-0.1,0.2-0.1,0.3-0.2,0.4v-0.4
			c-0.1,0.8-0.2,1.5-0.4,2.2c-0.3,1.1-0.4,1.8-0.7,2.9c-0.1,0.2-0.4,1.2-0.6,2.4c-0.3,1.2-0.6,2.5-0.8,3.4c0.3-0.1-0.3,2.2,0.5,0.1
			c-0.1,0.3,0-0.3,0.3-1.5c0.1-0.3,0.1-0.6,0.2-0.8v0.1c0.3-1.2,0.6-2.7,0.9-4.4c-0.2,1.4-0.3,2.9-1,4.8c0,0.9-0.1,2-0.2,2.6
			c-0.9,2.3-2.5,6.8-2.9,7.4c-0.3,1.3-0.8,2.8-1.3,4.2c-0.5,1.5-0.9,3-1.4,4.4c-1,2.8-1.8,5.5-2.2,7.2c-0.5,1.5-0.8,1.6-1.1,2.1
			c0.3-0.9,0.7-1.9,0.8-2.3c-0.5,1.5-1.4,3.6-2.2,5.5s-1.5,3.5-1.4,3.9c-1.8,3.5,0.6-2.2-1.6,2.8c0.1-0.2,0.2-0.5,0.2-0.7
			c-1.3,2.3-2.4,4.5-3.4,6.6c-1.1,2.1-2,4.1-3,6.1s-2.1,4-3.4,6.2c-1.3,2.1-2.8,4.3-4.6,6.7c0.5-0.6,0.8-1,0.9-1.1
			c-3.9,5.5-8,11.2-12.5,16.6c-4.5,5.3-9.3,10.3-14.5,14.6c-3,2.4-3.1,2.8-4.8,4.4c-0.3,0.1-0.6,0.2-0.8,0.3l-3,2.7
			c-0.5,0.4-1.1,0.9-1.6,1.3c-0.6,0.4-1.1,0.7-1.7,1c-1.1,0.7-2.2,1.3-3.3,1.9c-1.2,0.6-2.4,1.2-3.7,1.9c-0.6,0.4-1.3,0.7-2,1.2
			c-0.7,0.4-1.4,0.8-2.2,1.2l0.9-0.2c-1.1,0.6-3,1.4-4.5,2.2c-1.5,0.6-2.7,1.1-2.6,0.9c-0.2,0.1-0.7,0.5-1.7,0.8l-0.1-0.1
			c-0.9,0.5-1.9,0.8-2.9,1.2l-3,1.1c-1.2,0.4-1.7,0.4-2,0.4s-0.3-0.1-0.3-0.1c-0.1-0.1-0.5-0.2-3.9,0.6c-2.5,0.5-7.3,1.5-6.3,1.5
			c1.1-0.1,2.7-0.3,2.8-0.1l-2.4,0.4c-0.4,0.5-2.2,1.3,3.8,0.7c0.7-0.2,1.4-0.3,2.1-0.5l2-0.6l1.4-0.1l-3.5,0.8
			c2-0.2,3.2-0.7,4.6-1.2c0.4,0,1,0,1.8-0.2l3.8-1.7c0.5,0-1.7,0.9,1,0.2c1.8-0.8-1.9,0.2,1.1-1c1.9-0.5,1.5-0.2,3.6-1.2
			c0.4,0-0.1,0.2-0.9,0.6c0.5-0.2,1-0.5,1.6-0.7c0.3-0.1,0.6-0.3,0.9-0.4c0.3-0.1,0.6-0.3,0.9-0.4c1.1-0.6,2.1-1.1,2.6-1.5
			c2.1-0.6,6.2-3.5,6.2-3c0.3-0.2,1-0.7,1.9-1.4s1.9-1.4,2.7-1.9c-1.3,1.2,0.2,0.2,2-1c1.7-1.2,3.7-2.7,3.5-2.2
			c0.5-0.5,1.1-1.1,2-1.8c0.8-0.7,1.8-1.5,2.7-2.4c1-0.9,2.1-1.7,3-2.6c1-0.9,1.9-1.8,2.7-2.6c-0.2,0.2-0.5,0.6-0.8,0.9
			c1.9-1.7,2.6-2.1,3.8-3.3c-0.1-0.5,2.8-3.4,4-5.2c2.4-2.1-0.9,1.7,0,1.3c-0.3-0.1,3.4-4.3,2.5-3.7c1.8-1.6,1.5-1.5,2.5-2.2
			c-0.1-0.6,1.4-1.8,2.4-3.5c1.2-1.3,1.4-1.4,1.6-1.6c0.2-0.2,0.4-0.4,1.5-2C629.1,546.5,627.2,549.4,627.2,549.4z M663.3,466.1
			L663.3,466.1c-0.1,0.8-0.2,1.4-0.3,1.9C663.1,467.6,663.2,467.1,663.3,466.1z M664.4,458.5c-0.1,0.9-0.2,2.1-0.4,3.3
			c-0.1,0.3-0.2,0-0.1-0.8C663.9,461.4,664.2,459.6,664.4,458.5z M659.8,474.1c0.2-1.2,0.3-1.6,0.4-1.7c-0.1,0.6-0.2,1.2-0.4,2.1
			v0.1C659.8,474.5,659.8,474.3,659.8,474.1z M659.6,476.3c0,0.2-0.1,0.3-0.1,0.5c0.1-0.2,0.2-0.5,0.2-0.7c0-0.1,0-0.3,0-0.4
			C659.7,475.9,659.7,476.1,659.6,476.3z M412.8,3.5h0.2C412.9,3.5,412.7,3.5,412.8,3.5C412.7,3.4,412.7,3.5,412.8,3.5z
			 M625.5,363.7L625.5,363.7l0.5,0.5L625.5,363.7z M371.3,10.7c-0.1,0-0.2,0-0.6,0.1C370.8,10.8,371,10.8,371.3,10.7z M353.9,16.3
			l-2.5,0.8C352.5,16.8,353.3,16.5,353.9,16.3z M340.7,21.6L340.7,21.6c0,0,0.1-0.1,0.2-0.2L340.7,21.6z M558.4,21.2
			c0.2,0.1,0.3,0.1,0.5,0.2C560,21.9,559.2,21.6,558.4,21.2z M494.5,3.6c0.7,0.1,1.4,0.1,2.1,0.2C495.5,3.6,494.6,3.4,494.5,3.6z
			 M617.3,65.7L617.3,65.7c0.1,0.1,0.2,0.2,0.3,0.4L617.3,65.7z M499.7,4.3c-1.2-0.3-2.1-0.4-3-0.5C497.6,3.9,498.7,4.1,499.7,4.3z
			 M286.4,48.3l-0.6,0.3c0,0,0,0,0,0.1L286.4,48.3z M285.8,48.7l-0.6,0.4C285.4,48.9,285.7,48.8,285.8,48.7z M283.8,50l1.3-0.9
			C284.7,49.4,284.1,49.7,283.8,50z M302.8,39.6l0.1-0.2C302.8,39.5,302.8,39.5,302.8,39.6z M307.8,37c-1.2,0.6-3.1,1.3-4.8,2.2
			l-0.1,0.2C303.7,38.9,306.8,37.8,307.8,37z M329.6,28l-4.3,1.9c0.8-0.3,1.8-0.6-0.1,0.4C330.7,28.1,324,30.6,329.6,28z M342.9,22
			c-2.3,1.1,0.1,0.1,0,0.2c0.7-0.4,1.2-0.6,1.2-0.6C344.2,21.6,343.8,21.7,342.9,22z M445.7,1.4l-0.3,0.3
			C447.4,1.6,445.4,1.6,445.7,1.4z M465.9,0.4L464,0.2l-0.9,0.2H465.9z M477.7,3.1h-0.9l3.3,0.2L477.7,3.1z M626.4,84.4v-0.7
			C625.7,82.6,625.3,82.5,626.4,84.4z M622,156c-0.6,0.6-1.8,2.4-2.5,3.5C620.6,158.1,621.6,156.8,622,156z M609.5,350.9l-1.1-1
			l2.1,2L609.5,350.9z"/>
		<path class="st0" d="M411.6,562.3c0.4,0,0.2-0.3-0.9-0.3l-0.8,0.3H411.6z M404.5,561.1c-1.3,0.1-2.7,0.3-1.9,0.6
			c1.2-0.3,1.5-0.1,2.9-0.4c1.1,0.1,1.8,0.3,1.6,0.4c0.4-0.1,1.6,0.2,2.2,0.1c-1.3-0.4-3.1-0.6-4.9-0.5
			C404.1,561.3,404.4,561.2,404.5,561.1z M303.2,579.5l0.7-0.1C303.7,579.3,303.4,579.4,303.2,579.5z M239.8,587.8
			c0.5,0,0.7-0.1,0.7-0.1C240.1,587.8,239.7,587.8,239.8,587.8z M228.9,587.4c0.2,0,0.4,0,0.6,0C229.3,587.4,229,587.4,228.9,587.4z
			 M303.2,579.5l-1.7,0.3C301.4,579.9,302.4,579.6,303.2,579.5z M390.3,561.6c0.4,0,0.7-0.1,0.9-0.1
			C390.9,561.5,390.6,561.5,390.3,561.6L390.3,561.6z M330.2,570.9l0.5-0.2c0.1-0.1,0.3-0.2,0.4-0.3L330.2,570.9z M351.2,565.2
			c-0.5,0.1-0.6,0.4-0.7,0.6c0.2-0.2,0.6-0.3,1-0.4C351.4,565.3,351.4,565.2,351.2,565.2z M385.4,560.7l0.6-0.1
			C385.8,560.6,385.6,560.6,385.4,560.7z M315.1,575.5c0.1,0,0.2,0,0.2,0C315.2,575.5,315.1,575.5,315.1,575.5z M33.8,217.1
			L33.8,217.1C33.9,217,33.9,217,33.8,217.1z M54.9,203.2l-0.3,0.2c0,0.1,0,0.1,0,0.2L54.9,203.2z M209,585.8
			C209,585.8,209.1,585.8,209,585.8C209.6,585.8,209.3,585.8,209,585.8z M121.9,465.1c-0.9,1.9,0.8-3.3-0.5-0.4
			C121.6,464.4,120.8,467.5,121.9,465.1z M389.7,561.6c-0.3,0-0.6,0-0.9,0C389.2,561.6,389.5,561.6,389.7,561.6z M121.4,464.7
			L121.4,464.7l-0.1,0.3C121.3,464.8,121.3,464.8,121.4,464.7z M164.5,575.3c0.1,0.1,0.2,0.2,0.4,0.3
			C164.9,575.6,164.8,575.5,164.5,575.3z M197.3,584.8l-0.8-0.2C196.8,584.7,197.1,584.7,197.3,584.8z M148.4,567.8
			c-0.4-0.3-0.5-0.4-1.1-0.7l0.1,0.1C147.8,567.4,148,567.5,148.4,567.8z M133.7,556.8c0.1,0.1,0.1,0.2,0.2,0.3
			c0.1,0.1,0.3,0.3,0.4,0.4C134.1,557.2,133.9,557,133.7,556.8z M3.3,264.6c0.2-0.4,0.3-0.6,0.5-0.8C3.5,264.1,4.1,261.4,3.3,264.6z
			 M390.3,561.5c-0.1,0.1-0.3,0.1-0.5,0.1c0.2,0,0.4,0,0.6,0C390.4,561.5,390.4,561.5,390.3,561.5z M146.6,569.3l-2.5-1.6
			C144.8,568.1,145.7,568.7,146.6,569.3z M58.3,376.9l-0.6-0.3C57.9,376.7,58.2,376.8,58.3,376.9z M136.9,562.5
			c-0.4-0.4-0.8-0.8-1.2-1.2c-0.1-0.1-0.2-0.1-0.3-0.2L136.9,562.5z M3.7,263.8L3.7,263.8L3.7,263.8z M10.7,245.4
			c-1.3,2.5-0.3,1.4-0.4,2c-1.4,3.1-0.9,1.3-1.6,2.2c-0.9,1.9-1.2,3.6-1.8,5.1c-0.1,0.1-0.2,0.4-0.2,0c-0.7,2.1-2.3,6.3-2.8,8.9
			c-0.1,0.2-0.1,0.3-0.2,0.3c0.3-0.4,0.5-0.4,0.6-0.2c-0.3,1.2-0.4,2.3-0.7,2.7c0.2-0.8,0.1-0.8,0.1-1.2l-0.2,1.3
			c-0.6,1.1,0.3-1.8,0.1-1.9c-0.3,1.3-0.5,2.7-0.8,4s-0.4,2.6-0.6,3.5c-0.4,0.3,0.7-4.6,0-2.1c0.2-1,0.6-2,0.8-3
			c-1.1,2.2,0.5-1.8-0.6,0.2c-0.6,2-0.7,3.1-0.9,4.2c-0.1,1.1-0.4,2.3-0.7,4.3c0.1,0.9,0.3-0.3,0.4,0.7c-0.2,2.9-0.5,4-0.8,4.9
			c-0.2,0.9-0.5,1.7-0.3,3.8c0.2,1.1,0.5,1.5,0.4,4.6l-0.4-1c0,2,0.2,2.5,0.3,3.1c0.1,0.3,0.1,0.6,0.1,1.1s0.1,1.1,0.1,2.2
			c-0.1-0.4-0.2-1.1-0.3-1.7s-0.1-1-0.1-0.7c-0.1,2.7,0.4,1.9,0.6,3.9l-0.3,0.5c0.4,4.2,1.6,8.7,2.8,13.2c-0.2-0.2-0.4-1-0.3,0.1
			c1.7,5.6,3.8,11.9,6.2,17.1l0.6,0.9l0.7,0.9c0.2,0.4,0.3,0.9,0,0.4c1,2,0.2,0,0.8,0.9c0.6,1.1,0.6,1.5,0.2,0.9
			c2,3.4,6.3,9.1,8.5,12.6l-0.5-0.6c0.9,1.3,1.6,1.9,2.2,2.5c0.7,0.6,1.3,1.2,2.1,2.4l-0.4-0.4c0.5,0.7,1.1,1.3,1.6,2
			c0.6,0.6,1.2,1.3,1.8,1.9c1.2,1.3,2.4,2.6,3.6,3.8c2.5,2.4,4.8,4.6,6.7,6.5c0.5,0.2,1.8,1.3,3,2.4c1.3,1,2.5,2,2.9,1.9
			c3,2.6,1.9,2.1,6.4,5.4c1.2,0.9,2,0.9,3.6,1.9l-0.1,0.3l2.3,1l1,1c0.5,0.3,1,0.5,1.5,0.8c-0.6-0.3-1.2-0.8-1.1-0.9
			c2.4,1.2,5.7,3.3,5.7,3.5c1.9,0.9,3.9,1.7,5.8,2.5c-0.2,0.1-1.2-0.4-1.9-0.7c3.2,1.2,0.4,0.6,3.3,1.6c-0.3-0.2,0.3-0.1,0.4-0.1
			c1.3,0.8,4.5,2.3,6.9,3.3h-0.5c4.2,2,9,4,13.7,6.3c-1.6-0.9-1.1-1.1,0.3-0.4l0.4,0.6c1,0.3-1.4-0.8,0.5-0.1c1.7,0.9,1,0.9,0,0.5
			l2.2,1c0.1,0.2-0.4-0.1-0.6,0c1,0.3,3.4,2.2,4.8,2.6l0.1,0.1c2.2,1.3,3.8,2.3,5.3,3.3s2.8,1.9,4.5,3.2c0.2-0.2,1.5,0.9,2.6,1.6
			c2.3,2.1,4.6,4.7,6.8,7.6c1.6,2,0.6,0.5,1.5,1.3c-0.1,0.3,1.9,3.4,0.7,1.9c0.6,0.9,1,1.7,1.5,2.4c0.4,0.7,0.7,1.4,1.1,2.1
			c0.2,0.3,0.4,0.7,0.5,1.1c0.2,0.4,0.3,0.8,0.5,1.2c0.2,0.4,0.4,0.9,0.6,1.5c0.2,0.5,0.4,1.1,0.6,1.8c-0.1-0.6-0.2-1.3-0.1-1
			c0.3,1,0.6,2.3,0.4,2.1c0-0.1-0.1-0.2-0.1-0.3c1,3,1.4,6.7,1.4,10.1c0,3.5-0.5,6.7-0.6,9.3v-0.3c-0.1,0.9-0.2,1.7-0.3,2.6
			l-0.4,2.6c-0.6,2.3,0.1-1.5-0.4,0.3c-0.9,5.6-2.4,8.6-3.7,13.1c-1.9,3.2-4.5,12.1-6.6,16.7l0.3-0.2c-0.3,1.3-0.6,1.4-1,2.3
			c0.2-0.1,0.6-1.3,0.4-0.5c-1.7,5.2-3.3,10.6-4.4,16.2s-1.4,11.5-0.7,17.2c0.7,4.1,1.2,2.2,2.2,7.3c-0.3-0.4-0.5-0.9-0.7-1.3
			c1.3,4,2.8,7.9,4.6,11.8c1.8,3.8,3.9,7.5,6.3,10.8c-0.3-0.4-0.4-0.3-0.9-1c0.4,0.8,1.2,2.1,2.1,3.2c0.9,1.1,1.6,2,1.7,1.9
			c0.8,1,0,0.3,0.5,1s1.2,1.5,1.9,2.2c0.7,0.7,1.3,1.3,1.5,1.7c0.1,0.1-0.4-0.3-0.6-0.5c0.8,0.8,3.6,3.8,3,2.9c1,1.1,2.1,2.1,3.1,3
			c1.1,0.9,2,1.7,2.9,2.6c0.7,0.4,1.7,1.2,2.6,2c0.9,0.7,1.7,1.3,2.1,1.3c-0.5,0.3,4.2,3.4,5.9,4.2c-0.6-0.2,1.3,1,0.6,0.8
			c1.9,1.1,3.7,2.1,3.5,1.6c3.3,2.5,7.4,3.3,9.2,4.9c6.1,2.4,11.8,4.3,17.4,5.8c-0.2,0.2-1.7-0.3-3.2-0.7c-1.5-0.5-2.9-0.9-2.9-0.7
			c5.3,1.6,8.5,2.1,13.8,3.5c1.4,0.4-0.8,0-1.3,0c5.4,1.2,10.4,2.4,15.3,2.9c0,0-0.6,0-1.1-0.1c1,0.2,2.2,0.4,2.1,0.2l-0.9-0.1
			c-1.5-0.5,3.9,0,4.1-0.2c-1.7,0.4,4.8,0.8,2.1,1.2c0.6,0,1.4,0,1.3-0.1c0.9,0.2,1.2,0.3,0.3,0.3c3.5,0.3,2.3-0.1,5.4,0.2
			c0,0.1-0.7,0.1-1,0.2c1.6-0.1,3.2-0.1,5.8,0.2c-0.2,0,0.1,0.1-0.7,0.1c4.6,0.3,7.8,0,12.8,0.3c-1.5,0.4,1.7,0.2,2,0.6l2.7-0.1
			l-1.1-0.2c2.4,0,4.4-0.3,6.5-0.2l-1.7,0.2l4.4-0.1l-2.5-0.1c2.4-0.2-0.3-0.5,2.9-0.4c-0.6,0.1,2.3-0.1,3.6,0.1l0,0
			c1.2-0.2,2.3-0.4,4.1-0.3c0.5,0.1-0.3,0.4,0,0.5c1.1-0.4,5.5-0.4,6.9-0.9c-0.5,0.1-0.5,0.3-0.3,0.3l0.9-0.3c1.1,0,1.3,0,1.1,0.2
			c3.3-0.2-1.1-0.4,2.8-0.5c-0.3,0.1-0.2,0.1-0.8,0.2c3.9-0.3,7.5-0.9,11.1-1.3c1.1,0.2-3.1,0.5-1.9,0.6c5.1-0.7,10.5-1.9,15.5-2.7
			l-0.9,0.1c0.6-0.6,3.7-0.4,6.1-1.2c-0.6,0.2-0.7,0.5-0.6,0.4c3.4-0.6,6.8-1.6,11.8-3l-0.6,0.3c2-0.4,5.2-1.3,7.3-1.8
			c0.6-0.3,1.8-0.6,1-0.6c6.7-1.2,12.1-4.3,18-5.4c-0.7,0.2-1.6,0.6-1,0.5c1.6-0.6,3.2-1.1,4.8-1.6c-0.5-0.1-0.7,0.1-1.7,0.2
			c0.6-0.3,1.9-0.8,3.1-1.2c-2.1,0.8,0.1,0.4,1.1,0.2c-0.2,0,0.1-0.2,0-0.2c2.7-0.3,0.3-0.6,3.9-1.3l-0.2,0.2
			c1.3-0.4,2.4-0.9,3.9-1.3c0.7,0.1-1.4,0.5-1.4,0.7c2-0.6,3.8-1.5,5.6-1.8c-0.8,0.3-2,0.6-2.9,0.9c2-0.2,2.2-0.4,3.7-0.7H346
			l3.4-0.7l-0.9,0.1c1.2-0.6,2.4-1,3.8-1.3s2.9-0.6,4.5-1.2c-3.2,1.1-0.5,0.4-0.7,0.7c0.9-0.1,2.2-0.3,1.8-0.1
			c1.6-0.5,2.7-0.3,4.9-1.1c0.1,0.1,1.7-0.3,1.4,0c2.1-0.4-0.5-0.1-0.4-0.2c1.6-0.4,3.5-0.6,5.6-0.9c2.1-0.2,4.3-0.4,6.7-0.9
			c4-0.6,4.7-1,8.5-1.4c1.3,0.1-1,0.4-1,0.4c2.1,0,3.6-0.1,5.5-0.2c-0.4,0.1,0,0.2,0.6,0.3c1.5-0.1,1-0.4,3.1-0.3
			c-0.3,0.1-0.8,0.3-1.5,0.4c1.8-0.2,3.6-0.3,5.5-0.3c0.5,0.2-1.1,0.2-1.8,0.3c1.1,0,2.4-0.1,3.6-0.1s2.2,0,2.5-0.2l-1.4-0.2
			c0.8,0,0.4,0.3-0.2,0.3c-1.8,0.2-2.6-0.1-2.7-0.2h1.3c-1.4-0.6-5.4,0-8.1,0.1l1.1-0.4l-2.8,0.4c-0.6-0.1-1-0.3,0.3-0.4
			c-2-0.2-1.7,0.2-3.4,0.1c-0.2,0-0.1,0,0.1-0.1l-1.9,0.2c0.4-0.1-0.3-0.3,0.8-0.3c-3.4-0.1-5.5,0.7-6.8,0.5l0.3-0.1
			c-4.7,0.6-0.4,0.3-3.9,1.1l-2.5-0.4l-0.4,0.4c-0.5,0.1-1.5,0.2-1.3,0c-1.8,0.5,0.3,0.1-0.7,0.4c-2.4,0.1-6.4,1.1-7,0.8
			c-0.8,0.4,2.2-0.2-0.2,0.4c-0.8-0.4-2.8,0.6-5,0.8c0.6-0.4,2.6-0.7,0.5-0.5c-1.2,0.7-4.1,0.8-5.9,1.3c0,0.4-3.8,1.1-6.7,1.9
			c0.2-0.2-5.6,1.2-8.3,1.9l0.1-0.1c-0.4,0.5-3.3,1.2-5.3,1.9c0-0.2,0.4-0.4,1.4-0.9l-1.9,0.6c-0.4,0.2-1,0.5-2.2,0.9l0.4-0.4
			c-2.5,0.8-5,1.9-8.3,2.7c-0.1,0.3,2.8-0.1-0.6,1.1c-0.2-0.1-0.4-0.3,0.5-0.6c-0.3,0.1-1,0.4-1.6,0.6l1.3-0.7
			c-1.5,0.4-0.7,0.4-1.9,0.8c0-0.2-0.9,0.1-0.8-0.1c0.3-0.1,1.1-0.3,1.5-0.5c-1.3,0.4-3,0.8-3.6,0.8c0.2,0.1,0.1,0.3-0.9,0.6
			c-2.5,0.8-0.9,0-2.4,0.4c-0.6,0.3-2.2,0.7-2.2,1c-0.7,0.2-0.9,0.1-1.2,0.1c-1.3,0.5-6.2,1.7-4.6,1.6l0.3-0.1c-0.1,0-0.1,0-0.2,0.1
			l0,0l0,0c-4.3,1.5-9.1,2.1-13.5,3.1v-0.1c-2.6,0.7-5.8,1.2-7.7,1.7c-0.8,0.1-1.9,0.1-1.6,0c-2,0.4-2.2,0.6-5.1,0.8
			c2-0.5-0.7,0,2.1-0.4c-2.6,0.3-3.2,0.3-6,0.9c0.9-0.4-2-0.1-3.3,0.2l1.9-0.1c-1.4,0.2-2.6,0.4-3.9,0.5l0.6-0.4
			c-5.4,0.2-9.6,1.7-13.8,1.3c-1.4,0.3,2.9-0.1,1.7,0.3c-2.5,0.2-5.1-0.2-5.9-0.1c-3.4,0-3.2,0.7-6.7,0.6c0.5,0.1,0.9,0.4-1.8,0.6
			c-2.5,0-3.1-0.4-1.5-0.6c0.6,0,0.9,0,0.9,0.1c0.8-0.1,1.9-0.1,0.9-0.2l-0.3,0.1c-1.2-0.1-4.7,0-3.9-0.2c-1.9,0.1-0.8,0.2,0.6,0.3
			c-3.2-0.2-5,0-8.3-0.2c0.5,0.1,1,0.2,0.5,0.2c-4.8-0.3-2.1,0.2-5.4,0.1c-1.8-0.3,0.7-0.4-2.6-0.4c-2-0.2-0.4-0.3,0.4-0.4
			c-3,0.1-5.6-0.5-7.3-0.7h1.6c-0.9,0-1.7-0.1-2.5-0.1l0.9,0.3c-0.9-0.1-1.7-0.2-1.7-0.3c-1,0.1,0.7,0.5-1.2,0.5
			c-1.2-0.2-3.8-0.3-4.1-0.6c3.8,0.5-0.4-0.4,2.9-0.1c-0.6,0-1.4-0.1-2.3-0.3c-0.1-0.1,0.1-0.1,0.4,0c-3.7-0.7-1.7,0.2-5.6-0.3
			c0.5-0.1-0.8-0.5-1.5-0.5c1.5,0.2,0.7,0.4-0.7,0.3c-2.4-0.5-2.7-0.3-3.9-0.5l1.4,0.3c-0.5,0.1-1.7-0.1-3.4-0.4
			c-0.1-0.2,1.6,0.2,1,0c-1.9,0-4.2-1.1-6.8-1.4c-1.2-0.4,0-0.4-1.1-0.7c-3-0.5-3.1-0.9-6.2-1.5c0.8,0.5,1,0.4-1.2,0.1
			c1.7,0.4,3.4,0.8,5,1.1c-1.1-0.1-2.2-0.3-3.3-0.5c1.5,0.4,3.2,0.6,4.1,0.9c-1.6-0.2-1.4-0.2-0.7,0.2c-2-0.8-4.2-0.8-6.5-1.7
			l0.2-0.5c-3.5-1.2-6.4-1.5-10.9-3.3l1.4,0.6c-0.7,0-2.8-1-4.3-1.5c0.2-0.1-0.7-0.6-1.2-0.9c0,0.2-3.2-1.4-3.8-1.2
			c-0.6-0.4-1.2-0.7-1.8-1.1c-1.7-0.9-2.8-1.2-3.8-1.6c-1-0.3-2.1-0.7-3.7-1.6c1.1,0.3-0.3-0.6,1.9,0.5c-1.1-0.6-2-1.2-2.1-1.1
			c-0.6-0.4-3.1-1.5-4-2.2c-0.5-0.2-0.7-0.1-1.9-0.9c-0.1-0.1,0.1-0.1,0.1-0.1c-0.1,0.1-1.9-1.1-1-0.2c-0.7-0.7-1.6-1.4-2.6-2.1
			c-1-0.7-2-1.5-3.1-2.3c-1-0.8-2.1-1.6-2.9-2.4c-0.9-0.8-1.6-1.5-2.2-2.2c-2-1.8-4.4-4.1-6-5.9c0.1,0.1,0.1-0.1,0.4,0.3
			c-1.1-1.3-1.5-1.6-2-2s-1-0.8-2.1-2.4c-0.5-0.9-0.1-0.5,0.3,0s0.8,1,0.5,0.5c0.2-0.8-2.9-3.7-4-6.1l0.4,0.5
			c-0.5-0.9-1.1-1.9-1.9-3s-1.6-2.4-2.3-3.9c0,0,0.1,0.1,0.1,0c-1.3-1.8-3.2-5.6-4.3-8.5c0.6,0.8,0.6,1.3,0.7,0.6
			c-0.5-1.3-0.3,0.5-1.3-2.1c-0.2-0.9-0.7-2.9-0.5-3.2l0.8,2.5c0-0.7-0.3-1.5-0.6-2.3c-0.3-0.8-0.6-1.6-0.7-2.3l0.2,0.1
			c-1-3.9-1.4-3.9-1.8-8.2l-0.1,0.5c-0.3-1.2-0.2-1.7-0.2-2.2s0.1-1,0-2.2l0.4-0.7c-0.1-1.6-0.1-5.5,0.3-8.3c0,0.8,0,2-0.1,3.3
			s0,2.6,0,3.6c0.1-0.8,0.1-2.1,0.2-3.3c0.1-1.2,0.2-2.3,0.2-2.8c0,0.6,0,1.4-0.2,2c0-1,0-2.1,0.1-3.3c0.1-0.6,0.2-1.3,0.3-2
			c0.1-0.7,0.3-1.4,0.5-2.2c0.2,0.2,0.3-0.2,0.6-1c0.3-0.7,0.5-1.8,0.9-2.9c0.7-2.3,1.5-4.9,2.1-5.8c1.5-5.3,3.8-10.2,6-16.2
			c-1.3,1.9,0.6-1.8-0.1-1.6c0.5-1.4,0.7-2,0.8-2.1c0.6-1.4,1.2-2.8,1.8-4.2c0.5-1-0.3,1.4-0.2,1.3c1.1-3.1,0.7-1.2,1.5-3.3
			c-0.3,0.4,0.1-1.2,0.6-3c-0.3,0.8-0.6,1.7-1,2.5c1-4.5,1.6-3.7,2.3-8.4l-0.1,1.5c0.2-1.2,0.7-3.4,0.9-5.6c0.3-2.2,0.3-4.4,0.1-5.6
			c0.1-0.4,0.3-1,0.3,0.1c0.1-1.4,0-3,0-4.5c-0.2-1.5-0.3-3.1-0.6-4.6c-0.5-3-1.4-5.8-2-8l0.3,0.4c-0.3-1-0.9-1.7-1.3-3
			c0.1,0,0.3,0.3,0.1-0.1c-0.1-0.3-0.5-0.9-0.9-1.6c-0.2-0.4-0.4-0.8-0.6-1.1c-0.2-0.4-0.4-0.7-0.6-1.1c0.2,0.3,0.5,0.7,0.7,1
			c-1.3-2.5-2.5-4.4-3.8-5.9c-0.3-0.4-0.7-0.8-1-1.2c-0.4-0.4-0.7-0.7-1.1-1.1c-0.7-0.8-1.5-1.5-2.3-2.3c0.4-0.3-2.7-3.5-4.4-5h0.1
			c-2.5-2.1-4.9-3.6-7.2-5c-2.3-1.4-4.7-2.6-7.3-4c-1.5-1.1-4.3-2.6-7.4-4.1s-6.4-3.1-9.1-4.4c0.8,0.4-0.3,0.3-1.3-0.1
			c-1.2-0.7-3.6-1.3-3.3-1.6l0.4,0.2c-0.8-0.8-3.4-1.9-5.5-2.8l-0.6,0.3c-2.5-1.6-5.9-3.2-9-4.7c-3.1-1.6-5.8-3.1-6.9-4.3
			c-1.2-0.7-2.7-1.6-3.9-2.3l0.2-0.2c-0.8-0.6-1.5-1-2.1-1.5s-1.2-1-1.8-1.4c-1.2-1-2.6-1.9-4.5-3.4c0.3,0.2,0.6,0.3,0.9,0.5
			c-2.1-1.7-3.1-1.6-5-3.2l-0.3-0.8c-1.8-1.6-3.4-3.3-5.1-5c-1.6-1.7-3.2-3.5-4.9-5c0.1,0,0.3,0,0.8,0.6c-0.8-0.8-2.1-2.5-3.2-3.9
			s-2.1-2.4-2-1.9c0.2-0.3-2.9-3.9-4.5-5.9l0.4,0.2c-1.4-1.6-1.6-1.6-3.3-4.1c-0.4-0.6-0.1-0.6,0.3,0.2c-0.6-1-0.9-1.4-1.2-1.8
			s-0.7-0.9-1.3-2.2l0.7,0.9c-1.2-2.1-1.1-1.9-2-3c-0.8-1.3-1.9-4.2-1.8-4.7c-0.3-0.2-1.1-1.4-1.5-2.7c0-0.2,0.3,0.2,0.4,0.5
			c-0.6-1.9-1.3-3.3-1.8-4.6c-0.5-1.3-0.9-2.4-1.2-3.8c0.1-0.1,0.1-0.3,0-0.5c0.5,1.5,0.9,2.9,1.2,3.9c0.4,1,0.6,1.5,0.5,1.4
			c0.2-0.1-0.7-2.5,0.4-0.7c-0.5-0.9-1-2.2-1.6-3.6c-0.5-1.4-1.1-2.8-1.3-4.1c0-0.1,0-0.2,0-0.3l0.1,0.2c-0.1-0.6-0.3-1.1-0.4-1.6
			c-0.1-0.8-0.2-1.3-0.4-2.1c0.1-0.3-0.4-3-0.6-4.2c-0.3,0.2-0.5-1.5-0.5,0.1c0-0.2,0.1,0.2,0.2,1.1c0,0.2,0.1,0.4,0.1,0.5v-0.1
			c0.1,0.8,0.3,1.9,0.6,3.2c-0.2-0.5-0.4-1-0.5-1.5c-0.1-0.6-0.2-1.2-0.3-1.9c-0.3-0.6-0.6-1.3-0.7-1.7c0-1.8,0-5.3,0.2-5.8
			c-0.6-3.9-0.4-9.3-0.8-11.9c0-1.1,0.2-1.3,0.3-1.7c0,0.7,0,1.4,0,1.8c0-0.6,0-1.3,0-2c0.1-0.7,0.1-1.5,0.2-2.2
			c0.1-1.5,0.2-2.7,0-3c0.6-2.8,0,1.6,0.7-2.2v0.5c0.5-1.9,0.8-3.6,1.1-5.2c0.4-1.6,0.7-3.2,1-4.8c0.4-1.6,0.8-3.2,1.4-4.9
			c0.1-0.4,0.3-0.9,0.4-1.3c0.2-0.4,0.4-0.9,0.6-1.3c0.4-0.9,0.8-1.8,1.3-2.8c-0.3,0.5-0.4,0.8-0.5,0.9c0.9-2.3,2.1-4.4,3.2-6.7
			c0.5-1.1,1.2-2.2,1.8-3.3l1.9-3.3c0.7-1,1.4-2.1,2.1-3.1c0.7-1,1.4-2.1,2.1-3.1c0.8-1,1.5-1.9,2.3-2.9c0.4-0.5,0.8-1,1.2-1.4
			c0.4-0.4,0.8-0.9,1.3-1.3c1.9-2,1.9-2.4,2.9-3.8l0.6-0.2l1.8-2.3c0.7-0.8,1.3-1.4,2-2.1c0.7-0.6,1.5-1.1,2.2-1.7
			c0.8-0.6,1.5-1.2,2.3-1.9c0.4-0.3,0.8-0.7,1.2-1.1c0.4-0.4,0.9-0.8,1.4-1.2l-0.6,0.3c1.5-1.1,4.5-3.8,4.4-3.4
			c0.1-0.2,0.4-0.5,1-0.9l0.1,0.1l3.5-2.9c1.5-1,1.4-0.8,1.6-0.7c0.1,0.1,0.4,0.1,2.6-1.3c1.6-1.1,4.3-3.3,3.7-3
			c-0.7,0.4-1.7,1-1.8,0.9l1.4-1c0-0.6,0.9-1.7-2.9,0.3l-2.4,1.9l-0.9,0.3l2.1-1.4c-1.3,0.6-2,1.2-2.8,1.9c-0.3,0-0.7,0.2-1.2,0.5
			l-2.2,2.1c-0.4,0.1,0.9-1.1-0.8,0c-1,1,1.3-0.4-0.5,1c-1.3,0.7-1.1,0.3-2.3,1.5c-0.3,0.1,0-0.2,0.5-0.7c-1.1,1.1-3.1,2.6-3.5,3.2
			c-1.4,0.7-3.8,3.4-4,3c-0.3,0.4-1.7,2-2.8,3c0.8-1-0.2-0.2-1.3,0.9c-1.1,1.1-2.3,2.3-2.3,1.9c-0.5,0.8-1.7,2.1-2.8,3.5
			c-1.2,1.5-2.6,3-3.5,4.4c0.1-0.2,0.2-0.5,0.4-0.7c-1.2,1.5-1.6,1.8-2.4,2.7c0.2,0.4-1.6,2.8-2.2,4.3c-1.6,1.7,0.4-1.4-0.3-1
			c0.3,0.1-2,3.5-1.3,3c-1.2,1.3-1,1.2-1.7,1.8c0.3,0.5-0.8,1.5-1.2,2.9c-1.5,2.1-0.8,0.3-2,2.9C9.7,247.7,10.6,245.4,10.7,245.4z
			 M3.4,310.1L3.4,310.1c-0.1-0.6-0.3-1-0.3-1.3C3.1,309,3.2,309.4,3.4,310.1z M5,315.4c-0.2-0.6-0.4-1.5-0.7-2.3
			c0-0.2,0.2,0,0.4,0.5C4.5,313.3,4.8,314.6,5,315.4z M3.9,303.6c0.2,0.8,0.2,1.1,0.2,1.3c-0.1-0.4-0.2-0.9-0.3-1.5
			c0,0,0-0.1-0.1-0.1C3.8,303.4,3.9,303.5,3.9,303.6z M3.3,302.2c0-0.1,0-0.2-0.1-0.3c0,0.2,0,0.3,0,0.5c0,0.1,0.1,0.2,0.1,0.3
			C3.4,302.5,3.3,302.3,3.3,302.2z M304,579.3h-0.1c0.1,0,0.2,0,0.2,0C304,579.3,304,579.3,304,579.3z M52.9,373.9L52.9,373.9
			c-0.1-0.1-0.3-0.2-0.4-0.3C52.6,373.7,52.7,373.8,52.9,373.9z M333.4,571.3c0.1,0,0.2,0,0.4,0
			C333.7,571.2,333.6,571.3,333.4,571.3z M346,567.9l1.8-0.3C347.1,567.7,346.5,567.8,346,567.9z M355.9,565.7
			c0.1-0.1,0.1-0.1,0.2-0.2l0,0L355.9,565.7z M197.7,586.7c-0.1,0-0.3,0-0.4-0.1C196.4,586.6,197,586.7,197.7,586.7z M245.6,588.7
			c-0.5,0.1-1,0.1-1.5,0.2C244.9,588.9,245.6,588.9,245.6,588.7z M146.6,569.3c0.1,0.1,0.2,0.1,0.3,0.2l0,0L146.6,569.3z M241.8,589
			c0.9,0,1.6,0,2.2-0.1C243.4,588.9,242.5,588.9,241.8,589z M399.2,561.7h0.5c0,0,0,0,0.1,0H399.2z M399.8,561.7h0.5
			C400.1,561.7,399.9,561.6,399.8,561.7z M401.5,561.7h-1.1C400.7,561.7,401.2,561.7,401.5,561.7z M385.8,561.8l0.1-0.1
			C385.9,561.7,385.9,561.7,385.8,561.8z M381.9,561.9c1,0,2.4,0.1,3.8-0.1l0.1-0.1C385.1,562,382.8,561.7,381.9,561.9z
			 M364.9,562.7l3.4-0.5c-0.6,0-1.4,0,0.1-0.3C364.1,562.3,369.3,562.1,364.9,562.7z M354.4,564.6c1.8-0.4-0.1-0.1,0-0.2
			C353.4,564.7,353.1,564.8,354.4,564.6z M280.7,584.1l0.1-0.3C279.4,584.1,280.8,583.9,280.7,584.1z M266.4,587.4h1.4l0.6-0.3
			L266.4,587.4z M257.6,586.4l0.6-0.1l-2.3,0.3L257.6,586.4z M136.3,558.8l0.1,0.5C137.2,559.8,137.5,559.7,136.3,558.8z M110,512.2
			c0.1-0.6,0.2-2.1-0.1-3.1C110,510.4,109.9,511.6,110,512.2z M67,378.6l1.1,0.4l-2-0.8L67,378.6z"/>
	</g>
	
		<radialGradient id="SVGID_1_" cx="347.773" cy="361.5708" r="265.8972" gradientTransform="matrix(1.0218 0 0 1 -1.3742 0)" gradientUnits="userSpaceOnUse">
		<stop  offset="0" style="stop-color:#1B5FC1;stop-opacity:0.51"/>
		<stop  offset="7.721758e-002" style="stop-color:#2D6CC6;stop-opacity:0.4706"/>
		<stop  offset="0.7203" style="stop-color:#C3D5EF;stop-opacity:0.1427"/>
		<stop  offset="1" style="stop-color:#FFFFFF;stop-opacity:0"/>
	</radialGradient>
	
		<radialGradient id="SVGID_2_" cx="347.773" cy="361.5708" r="266.3969" gradientTransform="matrix(1.0218 0 0 1 -1.3742 0)" gradientUnits="userSpaceOnUse">
		<stop  offset="0" style="stop-color:#000000"/>
		<stop  offset="1" style="stop-color:#FFFFFF"/>
	</radialGradient>
	<ellipse class="st1" cx="354" cy="361.6" rx="281.2" ry="256.2"/>
	<circle class="st2" cx="470.9" cy="92.3" r="5.8"/>
	<circle class="st2" cx="77.3" cy="324.5" r="3.4"/>
	<g id="stars">
		<path id="star6" class="st3" d="M437.2,31.8L437.2,31.8c-5.8,0-10.5,4.7-10.5,10.5l0,0l0,0c0-5.8-4.7-10.5-10.5-10.5l0,0l0,0
			c5.8,0,10.5-4.7,10.5-10.5l0,0l0,0C426.6,27.1,431.4,31.8,437.2,31.8L437.2,31.8z"/>
		<path id="star5" class="st3" d="M163.2,512.8L163.2,512.8c-5.8,0-10.5,4.7-10.5,10.5l0,0l0,0c0-5.8-4.7-10.5-10.5-10.5l0,0l0,0
			c5.8,0,10.5-4.7,10.5-10.5l0,0l0,0C152.6,508.1,157.4,512.8,163.2,512.8L163.2,512.8z"/>
		<path id="star4" class="st3" d="M128.7,363.1L128.7,363.1c-3.2,0-5.8,2.6-5.8,5.8l0,0l0,0c0-3.2-2.6-5.8-5.8-5.8l0,0l0,0
			c3.2,0,5.8-2.6,5.8-5.8l0,0l0,0C122.9,360.5,125.5,363.1,128.7,363.1L128.7,363.1z"/>
		<path id="star3" class="st4" d="M228.9,581.2l-5.1,1.5l5.1,1.5c2.1,0.6,3.7,2.2,4.3,4.3l1.5,5.1l1.5-5.1c0.6-2.1,2.2-3.7,4.3-4.3
			l5.1-1.5l-5.1-1.5c-2.1-0.6-3.7-2.2-4.3-4.3l-1.5-5.1l-1.5,5.1C232.6,579,231,580.6,228.9,581.2z"/>
		<path id="star2" class="st4" d="M278.9,23.2l-5.1,1.5l5.1,1.5c2.1,0.6,3.7,2.2,4.3,4.3l1.5,5.1l1.5-5.1c0.6-2.1,2.2-3.7,4.3-4.3
			l5.1-1.5l-5.1-1.5c-2.1-0.6-3.7-2.2-4.3-4.3l-1.5-5.1l-1.5,5.1C282.6,21,281,22.6,278.9,23.2z"/>
		<path id="star1" class="st4" d="M579.9,528.2l-5.1,1.5l5.1,1.5c2.1,0.6,3.7,2.2,4.3,4.3l1.5,5.1l1.5-5.1c0.6-2.1,2.2-3.7,4.3-4.3
			l5.1-1.5l-5.1-1.5c-2.1-0.6-3.7-2.2-4.3-4.3l-1.5-5.1l-1.5,5.1C583.6,526,582,527.6,579.9,528.2z"/>
	</g>
	<circle id="XMLID_8_" class="st5" cx="691.1" cy="464.9" r="2.5"/>
	<circle id="XMLID_7_" class="st5" cx="615.1" cy="291.9" r="2.5"/>
	<circle id="XMLID_6_" class="st5" cx="30.1" cy="180.9" r="2.5"/>
	<ellipse class="st2" cx="230.7" cy="561" rx="4.9" ry="4.9"/>
	<path id="XMLID_5_" class="st2" d="M584.9,460.2l-5.1,1.5l5.1,1.5c2.1,0.6,3.7,2.2,4.3,4.3l1.5,5.1l1.5-5.1
		c0.6-2.1,2.2-3.7,4.3-4.3l5.1-1.5l-5.1-1.5c-2.1-0.6-3.7-2.2-4.3-4.3l-1.5-5.1l-1.5,5.1C588.6,458,587,459.6,584.9,460.2z"/>
	<circle id="XMLID_2_" class="st5" cx="74.1" cy="447.9" r="2.5"/>
	<circle id="XMLID_1_" class="st5" cx="273.1" cy="539.9" r="2.5"/>
</g>
<g id="gear">
	<path class="st6" d="M251.8,436.5c0.2-1.3,0.2-2.5,0.2-3.8s0-2.5-0.2-3.8l-8.2-1.7c-0.3-2-0.8-4.1-1.4-6.1l6.6-5.2
		c-0.9-2.4-2-4.6-3.3-6.8l-8,1.9c-1.1-1.7-2.5-3.3-3.9-4.9l3.6-7.4c-1.9-1.7-3.8-3.3-5.8-4.7l-6.4,5.2c-1.7-1.1-3.6-1.9-5.7-2.7
		l0.2-8.3c-2.4-0.8-4.9-1.3-7.2-1.7l-3.5,7.6c-1.1-0.2-2-0.2-3.1-0.2s-2,0-3.1,0.2l-3.6-7.2c-2.5,0.3-4.9,0.9-7.2,1.7l0.2,8.3
		c-1.9,0.8-3.8,1.7-5.7,2.7l-6.6-5.4c-2,1.4-4.1,3-5.8,4.7l3.6,7.4c-1.4,1.6-2.7,3.1-3.9,4.9l-8-1.9c-1.3,2.2-2.4,4.4-3.3,6.8
		l6.6,5.2c-0.6,2-1.1,3.9-1.4,6.1l-8.2,1.7c0,1.1,0,2.4,0,3.6c0,1.3,0,2.5,0.2,3.8l8.2,1.7c0.3,2,0.8,4.1,1.4,6.1l-6.6,5.2
		c0.9,2.4,2,4.6,3.3,6.8l8-1.9c1.1,1.7,2.5,3.3,3.9,4.9l-3.6,7.4c1.9,1.7,3.8,3.3,5.8,4.7l6.4-5.2c1.7,1.1,3.6,1.9,5.7,2.7l-0.2,8.3
		c2.4,0.8,4.9,1.3,7.2,1.7l3.5-7.6c1.1,0.2,2,0.2,3.1,0.2s2,0,3.1-0.2l3.5,7.6c2.5-0.3,4.9-0.9,7.2-1.7l-0.2-8.3
		c1.9-0.8,3.8-1.7,5.7-2.7l6.4,5.2c2-1.4,4.1-3,5.8-4.7l-3.5-7.6c1.4-1.6,2.7-3.1,3.9-4.9l8,1.9c1.3-2.2,2.4-4.4,3.3-6.8l-6.6-5.2
		c0.6-2,1.1-3.9,1.4-6.1L251.8,436.5z M210.7,416c5.5,1.6,9.7,5.8,11.5,11.2h-8.5c-0.8-1.3-1.9-2.2-3.1-3V416H210.7z M210.7,442.1
		c1.6-0.9,2.8-2.2,3.6-3.8h7.8c-1.7,5.4-6.1,9.6-11.5,11.2V442.1z M199.5,463.7c-12.7-2.5-22.8-12.6-25.1-25.5h7.7
		c2,8.7,8.8,15.4,17.3,17.6v7.9H199.5z M199.5,449.2c-5-1.9-8.9-5.8-10.5-10.9h6.9c0.9,1.6,2.2,2.8,3.6,3.8V449.2z M199.5,424.2
		c-1.3,0.8-2.4,1.7-3.1,3H189c1.7-5,5.7-9.1,10.5-10.9V424.2z M199.5,409.5c-8.5,2.2-15.2,9.1-17.3,17.6h-7.7
		c2.2-12.9,12.2-23,25.1-25.5v7.9H199.5z M205.2,437.6c-2.8,0-5.2-2.4-5.2-5.2s2.4-5.2,5.2-5.2c2.8,0,5.2,2.4,5.2,5.2
		S208,437.6,205.2,437.6z M210.7,463.9v-7.7c8.9-1.9,16.2-9,18.2-18h7.7C234.2,451.4,223.9,461.8,210.7,463.9z M228.9,427.2
		c-2.2-9-9.3-15.9-18.2-18v-7.7c13.2,2.2,23.5,12.4,25.9,25.7H228.9z"/>
	<g>
		<g>
			<path class="st0" d="M210,438.7c0,0-0.4,0.3-1.3,0.6c-0.4,0.2-1,0.4-1.7,0.4c-0.3,0-0.7,0-1.1-0.1c-0.4-0.1-0.8-0.3-1.2-0.5
				c-0.8-0.4-1.5-1.1-2.1-1.9c-0.1-0.2-0.3-0.4-0.4-0.7c-0.1-0.2-0.2-0.4-0.3-0.7c-0.2-0.5-0.3-1-0.3-1.6c-0.1-1.1,0.2-2.2,0.7-3.2
				c0.6-1,1.4-1.8,2.5-2.4c0.4-0.2,1.1-0.5,1.6-0.6c0.6-0.1,1.2-0.1,1.7-0.1c1.1,0.1,2.2,0.6,3.1,1.3c0.8,0.7,1.5,1.6,1.8,2.5
				c0.4,1,0.5,1.9,0.4,2.8c-0.1,0.4-0.1,0.9-0.3,1.2c-0.2,0.4-0.4,0.7-0.6,1c-0.4,0.5-0.9,0.9-1.3,1.2
				C210.4,438.5,210,438.7,210,438.7z M210,438.7c0,0,0.1-0.1,0.3-0.2c0.1-0.1,0.2-0.2,0.4-0.3c0.1-0.1,0.3-0.3,0.4-0.4
				c0.3-0.4,0.6-0.8,0.7-1.4c0.1-0.3,0.2-0.6,0.2-0.9c0-0.3,0.2-0.6,0.2-1c0.1-0.7,0-1.5-0.3-2.2c-0.3-0.8-0.8-1.5-1.5-2
				c-0.7-0.5-1.5-0.9-2.5-1c-0.5,0-0.9,0-1.4,0.1c-0.5,0.1-0.8,0.2-1.3,0.5c-0.8,0.4-1.5,1.1-1.9,1.9c-0.4,0.8-0.6,1.7-0.6,2.6
				c0,0.4,0.1,0.9,0.2,1.2c0,0.2,0.2,0.4,0.3,0.6c0.1,0.1,0.2,0.3,0.3,0.5c0.5,0.7,1,1.2,1.6,1.5c0.3,0.2,0.6,0.3,0.9,0.4
				c0.3,0.1,0.6,0.2,0.9,0.3c0.6,0.2,1.1,0.3,1.6,0.2c0.2,0,0.4,0,0.6-0.1c0.2,0,0.3-0.1,0.4-0.1C209.8,438.7,210,438.7,210,438.7z"
				/>
		</g>
		<g>
			<path class="st0" d="M213.6,419.5l0,6.3l-0.1-0.2l3.4,3.1l-0.2-0.1l8.3-0.3l-0.5,0.7c-0.2-0.6-0.5-1.2-0.8-1.8
				c-0.3-0.6-0.7-1.1-1-1.7c-0.4-0.5-0.8-1.1-1.2-1.6c-0.4-0.5-0.9-1-1.3-1.5c-0.2-0.2-0.5-0.5-0.7-0.7c-0.3-0.2-0.5-0.4-0.8-0.6
				l-0.8-0.6c-0.3-0.2-0.6-0.4-0.8-0.6c-0.3-0.2-0.6-0.4-0.9-0.5c-0.3-0.2-0.6-0.3-0.9-0.5c-0.3-0.2-0.6-0.3-0.9-0.4l-0.9-0.4l0-0.1
				c0.3,0.1,0.7,0.1,1,0.2c0.3,0.1,0.7,0.1,1,0.3c0.3,0.1,0.7,0.2,1,0.4c0.3,0.1,0.6,0.3,1,0.4c0.3,0.2,0.6,0.3,0.9,0.5l0.9,0.6
				c0.3,0.2,0.6,0.4,0.9,0.6c0.3,0.2,0.6,0.4,0.8,0.7c0.3,0.2,0.5,0.5,0.8,0.7l0.7,0.8l0.7,0.8c0.2,0.3,0.4,0.6,0.6,0.9
				c0.4,0.6,0.7,1.2,1,1.8c0.3,0.6,0.6,1.3,0.8,2l0.2,0.7l-0.7,0l-8.3,0l-0.1,0l-0.1-0.1l-3.2-3.2l-0.1-0.1l0-0.1l0.3-6.3
				L213.6,419.5z"/>
		</g>
		<g>
			<path class="st0" d="M201.9,419l0.3,6.9l0,0.1l-0.1,0.1l-3,3.5l-0.1,0.1l-0.2,0l-7.7,0l-0.7,0l0.2-0.6c0.2-0.7,0.4-1.4,0.7-2
				c0.3-0.7,0.6-1.3,0.9-1.9c0.3-0.6,0.7-1.2,1.1-1.8c0.2-0.3,0.4-0.6,0.6-0.9c0.2-0.3,0.5-0.6,0.7-0.8c0.3-0.3,0.5-0.5,0.8-0.8
				l0.8-0.7c0.3-0.2,0.6-0.4,0.9-0.6c0.3-0.2,0.6-0.4,0.9-0.6c0.3-0.2,0.6-0.4,0.9-0.5c0.3-0.1,0.6-0.3,1-0.4c0.6-0.3,1.3-0.4,2-0.6
				l0,0.1l-0.9,0.5c-0.3,0.1-0.6,0.3-0.9,0.5l-0.9,0.5c-0.3,0.2-0.5,0.4-0.8,0.6c-0.3,0.2-0.5,0.4-0.8,0.6c-0.3,0.2-0.5,0.4-0.8,0.7
				l-0.7,0.7c-0.2,0.2-0.4,0.5-0.7,0.8c-0.2,0.3-0.4,0.5-0.6,0.8c-0.2,0.3-0.4,0.5-0.6,0.8c-0.4,0.6-0.7,1.1-1.1,1.7
				c-0.3,0.6-0.6,1.2-0.9,1.8c-0.3,0.6-0.5,1.2-0.7,1.9l-0.5-0.6l7.7,0.3l-0.3,0.1l3.1-3.4l-0.1,0.2l0-6.9L201.9,419z"/>
		</g>
		<g>
			<path class="st0" d="M214,449.8l-0.3-6.8l0-0.1l0.1-0.1l2.9-3.5l0.1-0.1l0.2,0l7.4,0l0.6,0l-0.2,0.6c-0.2,0.7-0.4,1.3-0.6,2
				c-0.2,0.6-0.5,1.3-0.8,1.9c-0.3,0.6-0.7,1.2-1.1,1.8c-0.2,0.3-0.4,0.6-0.6,0.8c-0.2,0.3-0.4,0.5-0.7,0.8
				c-0.2,0.3-0.5,0.5-0.7,0.8l-0.8,0.7c-0.3,0.2-0.6,0.4-0.8,0.6c-0.3,0.2-0.6,0.4-0.9,0.6l-0.9,0.5c-0.3,0.1-0.6,0.3-0.9,0.4
				c-0.6,0.3-1.3,0.4-2,0.6l0-0.1l0.9-0.5c0.3-0.1,0.6-0.3,0.9-0.5l0.8-0.5l0.8-0.6c0.3-0.2,0.5-0.4,0.7-0.6
				c0.2-0.2,0.5-0.4,0.7-0.7l0.7-0.7c0.2-0.2,0.4-0.5,0.6-0.7c0.2-0.2,0.4-0.5,0.6-0.8c0.2-0.3,0.4-0.5,0.6-0.8
				c0.4-0.5,0.7-1.1,1-1.7c0.3-0.6,0.6-1.2,0.9-1.8c0.3-0.6,0.5-1.2,0.7-1.8l0.5,0.6l-7.4-0.3l0.3-0.1l-3,3.3l0.1-0.2l0,6.8
				L214,449.8z"/>
		</g>
		<g>
			<path class="st0" d="M201.6,448.8l0-5.7l0.1,0.2l-3-2.8l0.2,0.1l-7.5,0.3l0.5-0.7c0.2,0.5,0.5,1.1,0.7,1.6c0.3,0.5,0.6,1,0.9,1.5
				c0.3,0.5,0.7,1,1.1,1.4c0.4,0.4,0.8,0.9,1.2,1.3c0.2,0.2,0.4,0.4,0.7,0.6c0.2,0.2,0.4,0.4,0.7,0.6l0.7,0.5
				c0.2,0.2,0.5,0.3,0.7,0.5c0.3,0.2,0.5,0.3,0.8,0.5c0.3,0.1,0.5,0.3,0.8,0.4c0.5,0.3,1.1,0.5,1.7,0.8l0,0.1
				c-0.3-0.1-0.6-0.1-0.9-0.2c-0.3-0.1-0.6-0.1-0.9-0.2c-0.3-0.1-0.6-0.2-0.9-0.3c-0.3-0.1-0.6-0.3-0.9-0.4
				c-0.3-0.1-0.6-0.3-0.9-0.4l-0.8-0.5c-0.3-0.2-0.5-0.4-0.8-0.6c-0.3-0.2-0.5-0.4-0.7-0.6c-0.2-0.2-0.5-0.4-0.7-0.7l-0.7-0.7
				l-0.6-0.7c-0.2-0.3-0.4-0.5-0.5-0.8c-0.3-0.5-0.7-1.1-0.9-1.7c-0.3-0.6-0.5-1.2-0.7-1.8l-0.2-0.7l0.7,0l7.5,0.1l0.1,0l0.1,0.1
				l2.9,2.9l0.1,0.1l0,0.1l-0.3,5.7L201.6,448.8z"/>
		</g>
		<g>
			<path class="st0" d="M233.3,428.5l6-0.1l-0.2,0.2c-0.1-0.8-0.3-1.6-0.5-2.3c-0.2-0.8-0.5-1.5-0.7-2.3c-0.3-0.7-0.6-1.5-1-2.2
				c-0.3-0.7-0.7-1.4-1.1-2.1l-0.6-1c-0.2-0.3-0.5-0.6-0.7-1c-0.5-0.6-0.9-1.3-1.4-1.9c-0.5-0.6-1-1.2-1.6-1.8l-1.7-1.7l-1.8-1.5
				c-0.6-0.5-1.3-0.9-1.9-1.4c-0.7-0.4-1.3-0.9-2-1.3l-2.1-1.1c-0.7-0.4-1.4-0.7-2.2-1l-2.2-0.9c-0.7-0.3-1.5-0.5-2.3-0.7l-2.3-0.7
				l0.8-0.6l0.1,7.8l-0.5-0.7c1.2,0.3,2.2,0.7,3.3,1.1c0.5,0.2,1.1,0.5,1.6,0.7c0.5,0.2,1,0.5,1.6,0.8c0.5,0.2,1,0.6,1.5,0.9
				c0.5,0.3,1,0.6,1.4,1c0.5,0.3,0.9,0.7,1.4,1c0.4,0.4,0.9,0.7,1.3,1.1l1.3,1.2l1.1,1.3c0.4,0.4,0.7,0.9,1,1.4
				c0.3,0.5,0.7,0.9,0.9,1.5l0.8,1.5l0.6,1.6c0.1,0.3,0.2,0.5,0.3,0.8l0.2,0.8l0.4,1.7l-0.1,0l-0.6-1.6l-0.3-0.8
				c-0.1-0.3-0.2-0.5-0.4-0.8l-0.8-1.5l-0.9-1.4c-0.3-0.5-0.6-0.9-1-1.3c-0.4-0.4-0.7-0.9-1.1-1.3l-1.2-1.2l-1.3-1.1
				c-0.4-0.4-0.9-0.7-1.3-1c-0.4-0.3-0.9-0.7-1.4-0.9c-0.5-0.3-0.9-0.6-1.4-0.9c-0.5-0.3-1-0.6-1.5-0.8c-0.5-0.2-1-0.5-1.5-0.7
				c-0.5-0.2-1-0.5-1.5-0.6c-0.5-0.2-1-0.4-1.6-0.6c-0.5-0.2-1.1-0.4-1.6-0.5l-0.6-0.1l0-0.5l0.1-7.8l0-0.9l0.8,0.3l2.3,0.8
				c0.8,0.3,1.5,0.5,2.3,0.8l2.2,1c0.7,0.3,1.5,0.6,2.2,1.1l2.1,1.2c0.7,0.4,1.3,0.9,2,1.3c0.7,0.5,1.4,0.9,2,1.4l1.9,1.6l1.7,1.7
				c0.6,0.6,1,1.2,1.6,1.8c0.5,0.6,1,1.3,1.4,2c0.2,0.3,0.5,0.7,0.7,1l0.6,1.1c0.4,0.7,0.8,1.4,1.1,2.2c0.4,0.7,0.6,1.5,0.9,2.2
				c0.2,0.8,0.5,1.5,0.7,2.3c0.2,0.8,0.3,1.6,0.4,2.4l0,0.2l-0.2,0l-6-0.1V428.5z"/>
		</g>
		<g>
			<path class="st0" d="M202,408.9l-0.1-6l0.2,0.2c-0.8,0.1-1.6,0.3-2.3,0.5c-0.8,0.2-1.5,0.5-2.3,0.7c-0.7,0.3-1.5,0.6-2.2,1
				c-0.7,0.3-1.4,0.7-2.1,1.1l-1,0.6c-0.3,0.2-0.6,0.5-1,0.7c-0.6,0.5-1.3,0.9-1.9,1.5c-0.6,0.5-1.2,1-1.8,1.6l-1.7,1.7l-1.5,1.8
				c-0.5,0.6-0.9,1.3-1.4,1.9c-0.4,0.7-0.9,1.3-1.3,2l-1.1,2.1c-0.4,0.7-0.7,1.4-1,2.2l-0.9,2.2c-0.3,0.7-0.5,1.5-0.7,2.3l-0.7,2.3
				l-0.6-0.8l7.8-0.1l-0.7,0.5c0.3-1.2,0.7-2.2,1.1-3.3c0.2-0.5,0.5-1.1,0.7-1.6c0.2-0.5,0.5-1,0.8-1.6c0.2-0.5,0.6-1,0.9-1.5
				c0.3-0.5,0.6-1,1-1.5c0.3-0.5,0.7-0.9,1-1.4c0.4-0.4,0.7-0.9,1.1-1.3l1.2-1.3l1.3-1.1c0.4-0.4,0.9-0.7,1.4-1
				c0.5-0.3,0.9-0.7,1.5-0.9l1.5-0.8l1.6-0.6l0.8-0.3l0.8-0.2l1.7-0.4l0,0.1l-1.6,0.6l-0.8,0.3l-0.8,0.4l-1.5,0.8l-1.4,0.9
				c-0.5,0.3-0.9,0.6-1.3,1c-0.4,0.4-0.9,0.7-1.3,1.1l-1.2,1.2l-1.1,1.3c-0.4,0.4-0.7,0.9-1,1.3c-0.3,0.4-0.6,0.9-0.9,1.4
				c-0.3,0.5-0.6,0.9-0.9,1.4c-0.3,0.5-0.5,1-0.8,1.5c-0.2,0.5-0.5,1-0.7,1.5c-0.2,0.5-0.5,1-0.6,1.5c-0.4,1-0.8,2.1-1.1,3.1
				l-0.2,0.6l-0.5,0l-7.8-0.1l-0.9,0l0.3-0.8l0.8-2.3c0.3-0.8,0.5-1.5,0.8-2.3l1-2.2c0.3-0.7,0.6-1.5,1-2.2l1.2-2.1
				c0.4-0.7,0.9-1.4,1.3-2c0.5-0.7,0.9-1.4,1.4-2l1.6-1.9l1.7-1.7c0.6-0.6,1.2-1.1,1.8-1.6c0.6-0.5,1.3-1,2-1.4
				c0.3-0.2,0.7-0.5,1-0.7l1.1-0.6c0.7-0.4,1.4-0.8,2.2-1.1c0.7-0.4,1.5-0.6,2.2-0.9c0.8-0.2,1.5-0.5,2.3-0.7
				c0.8-0.2,1.6-0.3,2.4-0.4l0.2,0l0,0.2l-0.1,6H202z"/>
		</g>
		<g>
			<path class="st0" d="M202,459.2l0.1,5.6l0,0.2l-0.2,0c-0.8-0.1-1.6-0.2-2.3-0.4c-0.8-0.2-1.5-0.4-2.3-0.6
				c-0.7-0.3-1.5-0.5-2.2-0.8c-0.7-0.3-1.4-0.6-2.1-1c-0.7-0.4-1.4-0.7-2-1.2c-0.7-0.4-1.3-0.8-2-1.3c-0.6-0.5-1.3-0.9-1.8-1.5
				l-1.7-1.6c-0.6-0.6-1.1-1.2-1.6-1.7c-0.3-0.3-0.5-0.6-0.8-0.9l-0.7-1c-0.5-0.6-0.9-1.3-1.4-1.9l-1.2-2c-0.2-0.3-0.4-0.7-0.6-1
				l-0.5-1.1l-1-2.1c-0.3-0.7-0.5-1.5-0.8-2.2l-0.8-2.2l-0.3-0.8l0.9,0l7.8-0.1l0.5,0l0.2,0.5c0.3,1,0.7,2,1.1,3
				c0.4,1,0.9,2,1.4,2.9c0.3,0.5,0.5,0.9,0.8,1.4c0.3,0.5,0.6,0.9,0.9,1.3c0.3,0.5,0.6,0.9,1,1.3c0.3,0.4,0.7,0.9,1,1.2
				c0.4,0.4,0.7,0.8,1.1,1.2l1.2,1.1c0.4,0.4,0.8,0.7,1.3,1l0.6,0.5c0.2,0.1,0.5,0.3,0.7,0.4c0.5,0.3,0.9,0.6,1.4,0.8l1.5,0.7
				c0.5,0.3,1,0.4,1.5,0.6l1.5,0.5l0,0.1l-1.6-0.4c-0.5-0.1-1.1-0.2-1.6-0.5l-1.6-0.6c-0.5-0.2-1-0.5-1.5-0.8
				c-0.2-0.1-0.5-0.3-0.7-0.4l-0.7-0.5c-0.5-0.3-1-0.6-1.4-1l-1.3-1.1c-0.4-0.4-0.8-0.8-1.2-1.2c-0.4-0.4-0.8-0.8-1.1-1.2
				c-0.4-0.4-0.7-0.9-1.1-1.3c-0.3-0.5-0.7-0.9-1-1.4c-0.3-0.5-0.6-0.9-0.9-1.4c-0.5-1-1.1-2-1.5-3c-0.5-1-0.8-2.1-1.1-3.2l0.7,0.5
				l-7.8-0.1l0.6-0.8l0.7,2.2c0.3,0.7,0.4,1.5,0.7,2.2l0.9,2.1l0.5,1.1c0.2,0.3,0.4,0.7,0.6,1l1.1,2c0.4,0.7,0.9,1.3,1.3,1.9
				l0.7,0.9c0.2,0.3,0.5,0.6,0.7,0.9c0.5,0.6,1,1.2,1.5,1.7l1.7,1.6c0.6,0.5,1.2,1,1.8,1.5c0.6,0.5,1.2,0.9,1.9,1.3
				c0.6,0.5,1.3,0.8,2,1.2c0.7,0.4,1.4,0.7,2.1,1c0.7,0.3,1.4,0.6,2.1,0.9c0.7,0.2,1.5,0.5,2.2,0.7c0.7,0.2,1.5,0.4,2.3,0.5
				l-0.2,0.2l0.1-5.6H202z"/>
		</g>
		<g>
			<path class="st0" d="M213.6,459.3l0.1,5.6l-0.2-0.2c0.8-0.1,1.5-0.2,2.3-0.4c0.8-0.2,1.5-0.4,2.3-0.7c0.7-0.3,1.5-0.5,2.2-0.9
				c0.7-0.3,1.4-0.6,2.1-1c0.7-0.4,1.4-0.7,2-1.2c0.6-0.4,1.3-0.8,1.9-1.3c0.6-0.5,1.2-0.9,1.8-1.4l1.7-1.6c0.6-0.5,1-1.2,1.6-1.7
				l0.8-0.9l0.7-0.9c0.4-0.6,0.9-1.3,1.3-1.9l1.2-2l0.6-1l0.5-1.1l1-2.1c0.3-0.7,0.5-1.5,0.8-2.2l0.7-2.2l0.6,0.8l-8,0.1l0.7-0.5
				c-0.2,0.6-0.3,1.1-0.5,1.7c-0.2,0.5-0.4,1.1-0.7,1.6c-0.5,1-1,2.1-1.6,3c-0.3,0.5-0.6,1-0.9,1.4c-0.3,0.5-0.7,0.9-1,1.4
				c-0.3,0.5-0.7,0.9-1.1,1.3c-0.4,0.4-0.7,0.9-1.2,1.2c-0.4,0.4-0.8,0.8-1.2,1.2l-1.3,1.1c-0.5,0.3-1,0.6-1.4,0.9l-0.7,0.5
				l-0.8,0.4c-0.5,0.2-1,0.5-1.5,0.7l-1.6,0.6c-0.5,0.2-1.1,0.3-1.6,0.5l-1.6,0.4l0-0.1l1.6-0.5c0.5-0.2,1.1-0.3,1.5-0.6l1.5-0.7
				c0.5-0.3,0.9-0.6,1.4-0.8l0.7-0.4l0.7-0.5c0.4-0.3,0.9-0.6,1.3-1l1.2-1.1c0.4-0.4,0.8-0.8,1.1-1.2c0.4-0.4,0.7-0.8,1.1-1.2
				c0.3-0.4,0.7-0.8,1-1.3c0.3-0.5,0.6-0.9,0.9-1.4l0.8-1.4c0.5-1,1-1.9,1.5-2.9c0.2-0.5,0.4-1,0.6-1.5c0.2-0.5,0.4-1,0.5-1.5
				l0.2-0.5l0.5,0l8,0.1l0.9,0l-0.3,0.8l-0.8,2.3c-0.3,0.7-0.5,1.5-0.9,2.2l-1,2.2l-0.5,1.1l-0.6,1l-1.2,2c-0.5,0.7-1,1.3-1.4,1.9
				l-0.7,1l-0.8,0.9c-0.6,0.6-1.1,1.2-1.6,1.7l-1.8,1.6c-0.6,0.5-1.3,1-1.9,1.4c-0.6,0.5-1.3,0.9-2,1.3c-0.7,0.4-1.4,0.8-2.1,1.1
				c-0.7,0.4-1.4,0.7-2.2,1c-0.7,0.3-1.5,0.5-2.2,0.8c-0.8,0.2-1.5,0.4-2.3,0.6c-0.8,0.2-1.6,0.3-2.4,0.4l-0.2,0l0-0.2l0.1-5.6
				H213.6z"/>
		</g>
		<g>
			<polygon class="st0" points="254.5,438.9 246.8,440.2 246.9,440.1 245,446 245,445.9 251.6,450.9 251.7,451 251.6,451.1 
				248.2,458.4 248.1,458.5 248,458.4 239.9,456.5 240.1,456.4 236.3,460.7 236.3,460.5 240.2,468.4 240.3,468.6 240.1,468.7 
				234.2,473.2 234,473.3 233.9,473.2 227.3,468.1 227.6,468.2 221.6,470.9 221.8,470.6 221.8,479 221.8,479.2 221.6,479.3 
				214.8,480.7 214.6,480.8 214.5,480.5 211,472.7 211.3,472.9 204.5,473.4 204.8,473.2 201.3,480.8 201.2,481.1 200.8,481 
				193.9,479.4 193.6,479.3 193.6,479 193.6,470.5 193.8,470.9 188.9,468.2 189.4,468.1 182.5,473.5 182.2,473.8 181.9,473.5 
				175.8,468.6 175.6,468.4 175.7,468 178.7,460.9 178.7,461.3 175.4,456.4 176,456.6 168,459 167.6,459.1 167.4,458.7 164.1,451.5 
				164,451.1 164.3,450.9 170.3,445.7 170.1,446.2 169.1,440.4 169.5,440.9 161.5,439.4 161,439.3 161,438.8 161,430.8 161,430.3 
				161.5,430.2 170,428.3 169.6,428.8 170.9,422.8 171.1,423.4 164.8,418.2 164.4,417.9 164.6,417.5 167.3,410.9 167.5,410.3 
				168.1,410.5 176.8,412.5 176.1,412.7 180.1,407.8 180,408.6 176,400.7 175.8,400.2 176.3,399.8 182.1,395.3 182.6,395 
				183.1,395.4 189.2,400.7 188.3,400.6 193.3,397.4 192.9,398 193.5,389.7 193.6,389.1 194.1,389 201.3,387.4 201.9,387.3 
				202.1,387.9 205.2,395.6 204.5,395.1 211.3,395.3 210.6,395.7 214.5,388.3 214.8,387.8 215.3,387.9 222,389.4 222.5,389.5 
				222.5,390 222.9,398.3 222.6,397.8 228,400.6 227.3,400.6 234,395.1 234.4,394.8 234.8,395.1 240.1,400 240.3,400.3 240.2,400.6 
				236.9,408.2 236.8,407.7 240.5,412.5 240.1,412.3 248.3,410.3 248.6,410.3 248.7,410.6 251.8,417.2 251.9,417.5 251.7,417.6 
				245.3,423 245.4,422.7 246.7,428.7 246.5,428.6 254.6,430.5 254.7,430.5 254.7,430.6 254.6,437.6 254.5,437.6 254.4,430.6 
				254.5,430.8 246.4,429 246.3,429 246.2,428.8 244.8,422.9 244.8,422.7 244.9,422.6 251.2,417.1 251.1,417.5 248,410.9 
				248.5,411.1 240.3,413.2 240,413.2 239.9,413 236.1,408.3 235.9,408 236,407.8 239.3,400.2 239.4,400.8 234,395.9 234.7,395.9 
				228.1,401.6 227.8,401.8 227.4,401.6 222,398.9 221.7,398.8 221.7,398.4 221.2,390.1 221.7,390.7 215,389.3 215.8,389 
				211.9,396.4 211.7,396.8 211.2,396.8 204.5,396.6 204,396.6 203.8,396.1 200.7,388.4 201.6,388.9 194.4,390.5 195,389.8 
				194.4,398.1 194.4,398.5 194.1,398.7 189.1,401.9 188.6,402.2 188.2,401.8 182.1,396.5 183,396.5 177.2,401 177.4,400.1 
				181.3,408 181.5,408.4 181.2,408.7 177.2,413.6 176.9,414 176.5,413.9 167.8,411.8 168.5,411.4 165.8,418 165.6,417.2 
				171.9,422.4 172.2,422.7 172.1,423.1 170.8,429.1 170.7,429.4 170.3,429.5 161.7,431.4 162.2,430.8 162.2,438.8 161.7,438.3 
				169.7,439.8 170.1,439.8 170.2,440.2 171.2,446 171.2,446.3 171,446.5 165,451.7 165.1,451.1 168.4,458.3 167.7,458 175.7,455.7 
				176,455.6 176.3,455.9 179.5,460.8 179.7,461 179.6,461.2 176.6,468.4 176.4,467.9 182.5,472.8 181.9,472.8 188.8,467.4 
				189,467.3 189.3,467.4 194.2,470.1 194.5,470.2 194.5,470.5 194.4,479 194.1,478.6 201,480.3 200.6,480.5 204.1,472.9 
				204.2,472.6 204.4,472.6 211.3,472.2 211.5,472.2 211.6,472.4 215.1,480.3 214.7,480.1 221.5,478.7 221.2,479 221.2,470.6 
				221.2,470.5 221.4,470.4 227.4,467.7 227.5,467.6 227.6,467.7 234.2,472.8 233.9,472.8 239.9,468.3 239.8,468.6 235.9,460.7 
				235.9,460.5 236,460.4 239.8,456.2 239.9,456.1 240,456.1 248.1,458.1 247.9,458.2 251.4,451 251.4,451.1 244.8,446.1 
				244.8,446.1 244.8,446 246.7,440.1 246.7,440 246.8,440 254.5,438.8 			"/>
		</g>
	</g>
	<path class="st6" d="M305.4,460.9c0-1.1,0-2.2-0.1-3.3c-0.1-0.9-0.2-1.9-0.4-2.7l-3.5,0c-0.3-1.2-0.7-2.4-1.2-3.5l2.9-2.2
		c-0.9-1.9-1.9-3.6-3.1-5.2l-3.3,1.7c-0.8-0.9-1.6-1.8-2.6-2.6l1.7-3.4c-1.6-1.3-3.3-2.4-5-3.3l-2.3,3c-1.2-0.5-2.3-1-3.6-1.3l0.1-4
		c-1.9-0.5-3.8-0.7-6-0.8l-0.9,4.2c-0.7,0.1-1.2,0-1.9,0.1c-0.7,0.1-1.2,0.1-1.9,0.3l-1.7-3.8c-2,0.4-3.9,1.1-5.7,1.9l1,4.1
		c-1.2,0.6-2.2,1.2-3.2,2l-3.2-2.9c-1.5,1.3-2.9,2.6-4.2,4.1l2.7,3.3c-0.8,1-1.4,2-2,3.1l-4.1-1c-0.8,1.8-1.5,3.6-2,5.6l3.7,1.8
		c-0.2,1.2-0.4,2.5-0.4,3.7l-4,0.9c0,0.9,0.1,1.8,0.2,2.6c0.1,1.1,0.3,2.2,0.6,3.3l4.1-0.1c0.3,1.2,0.7,2.4,1.2,3.5l-3.2,2.4
		c0.9,1.8,2,3.4,3.2,5l3.5-1.7c0.8,0.9,1.6,1.8,2.6,2.6l-1.7,3.4c1.6,1.3,3.4,2.3,5.1,3.1l2.2-2.9c1.2,0.5,2.3,1,3.6,1.3l-0.1,3.6
		c1.9,0.5,4,0.7,6.1,0.6l0.7-3.4c0.7-0.1,1.2,0,1.9-0.1c0.7-0.1,1.2-0.1,1.9-0.3l1.4,3.2c2.1-0.4,4-1.1,5.8-2.1l-0.8-3.2
		c1.2-0.6,2.2-1.2,3.2-2l2.6,2.2c1.6-1.3,3-2.7,4.3-4.2l-2.2-2.5c0.8-1,1.4-2,2-3.1l3.2,0.9c0.9-1.8,1.6-3.7,2-5.8l-3-1.5
		c0.2-1.2,0.4-2.5,0.4-3.7L305.4,460.9z M270.9,474.5c-3.9,0.4-7.4-2.4-7.8-6.3c-0.4-3.9,2.4-7.4,6.3-7.8c3.9-0.4,7.4,2.4,7.8,6.3
		C277.7,470.6,274.9,474.1,270.9,474.5z M278.1,457.7c-3.9,0.4-7.4-2.4-7.8-6.3c-0.4-3.8,2.4-7.4,6.3-7.8c3.9-0.4,7.4,2.4,7.8,6.3
		C284.8,453.7,282,457.3,278.1,457.7z M288.6,472.6c-3.9,0.4-7.4-2.4-7.8-6.3c-0.4-3.9,2.4-7.4,6.3-7.8c3.8-0.4,7.4,2.4,7.8,6.3
		C295.4,468.7,292.5,472.2,288.6,472.6z"/>
	<g>
		<g>
			<path class="st0" d="M279.1,468.8c0,0,0,0.2-0.1,0.5c-0.1,0.3-0.2,0.8-0.5,1.3c-0.2,0.6-0.5,1.3-1.1,2c-0.3,0.3-0.6,0.7-1,1
				c-0.4,0.3-0.9,0.5-1.4,0.7c-1,0.4-2.3,0.6-3.6,0.4c-0.3,0-0.6-0.1-1-0.2c-0.3-0.1-0.6-0.1-0.9-0.3c-0.7-0.2-1.2-0.6-1.8-1
				c-1.1-0.8-2-2-2.5-3.4c-0.5-1.4-0.6-2.9-0.3-4.4c0.2-0.6,0.4-1.4,0.8-2c0.4-0.6,0.8-1.2,1.4-1.7c1.1-1,2.4-1.7,3.8-1.9
				c1.4-0.3,2.8-0.1,3.9,0.3c1.3,0.5,2.2,1.2,3,2c0.4,0.4,0.7,0.8,1,1.3c0.2,0.5,0.4,0.9,0.5,1.4c0.2,0.9,0.2,1.7,0.1,2.3
				c0,0.6-0.1,1.1-0.2,1.4C279.1,468.7,279.1,468.8,279.1,468.8z M279.1,468.8c0,0,0-0.2,0.1-0.5c0-0.2,0-0.4,0-0.6
				c0-0.2,0-0.5-0.1-0.8c-0.1-0.6-0.3-1.3-0.7-2c-0.2-0.3-0.4-0.7-0.7-1c-0.1-0.2-0.3-0.3-0.4-0.5c-0.1-0.2-0.3-0.4-0.4-0.5
				c-0.6-0.7-1.5-1.3-2.5-1.6c-1.1-0.4-2.2-0.5-3.4-0.3c-1.2,0.2-2.3,0.8-3.2,1.6c-0.5,0.4-0.8,0.9-1.2,1.5
				c-0.3,0.6-0.5,1.1-0.7,1.8c-0.1,0.6-0.2,1.2-0.1,1.8c0.1,0.6,0.2,1.2,0.4,1.8c0.4,1.2,1.2,2.2,2.1,2.9c0.5,0.3,1,0.7,1.5,0.8
				c0.2,0.1,0.6,0.2,0.8,0.3c0.2,0.1,0.5,0.1,0.8,0.1c1.1,0.1,2.1,0,3-0.4c0.4-0.2,0.8-0.4,1.2-0.6c0.4-0.2,0.7-0.4,1.1-0.6
				c0.7-0.4,1.2-1,1.5-1.5c0.2-0.2,0.3-0.5,0.4-0.7c0.1-0.2,0.2-0.4,0.2-0.5C279,469,279.1,468.8,279.1,468.8z"/>
		</g>
		<g>
			<path class="st0" d="M295.8,468.6c0,0-0.1,0.1-0.3,0.4c-0.2,0.3-0.4,0.7-0.8,1.2c-0.4,0.5-0.9,1.1-1.6,1.6
				c-0.4,0.3-0.8,0.5-1.3,0.7c-0.5,0.2-1,0.2-1.6,0.3c-1.1,0.1-2.3-0.1-3.5-0.6c-0.3-0.1-0.6-0.3-0.9-0.4c-0.3-0.2-0.5-0.3-0.8-0.5
				c-0.6-0.4-1-0.9-1.5-1.5c-0.8-1.1-1.4-2.5-1.5-4c-0.1-1.5,0.2-3,1-4.3c0.3-0.6,0.8-1.2,1.3-1.7c0.5-0.5,1.1-0.9,1.8-1.3
				c1.3-0.7,2.8-0.9,4.2-0.8c1.4,0.1,2.7,0.7,3.7,1.4c1.1,0.8,1.8,1.7,2.4,2.7c0.2,0.5,0.5,1,0.6,1.5c0.1,0.5,0.1,1,0.1,1.4
				c-0.1,0.9-0.3,1.6-0.5,2.2c-0.2,0.6-0.4,1-0.6,1.3C295.9,468.5,295.8,468.6,295.8,468.6z M295.8,468.6c0,0,0.1-0.2,0.2-0.4
				c0.1-0.1,0.1-0.3,0.2-0.6c0.1-0.2,0.1-0.5,0.2-0.8c0.1-0.6,0.1-1.3-0.1-2.1c-0.1-0.4-0.2-0.8-0.4-1.2c-0.1-0.2-0.2-0.4-0.2-0.6
				c-0.1-0.2-0.2-0.4-0.3-0.6c-0.4-0.8-1.1-1.7-1.9-2.3c-0.9-0.7-2-1.1-3.2-1.2c-1.2-0.1-2.4,0.1-3.5,0.7c-0.6,0.3-1.1,0.7-1.5,1.1
				c-0.5,0.5-0.8,0.9-1.2,1.5c-0.3,0.5-0.5,1.1-0.7,1.7c-0.1,0.6-0.2,1.2-0.1,1.9c0.1,1.2,0.6,2.4,1.3,3.4c0.4,0.5,0.8,0.9,1.2,1.2
				c0.2,0.2,0.5,0.3,0.7,0.5c0.2,0.1,0.5,0.3,0.7,0.4c1,0.4,2,0.6,3,0.5c0.5,0,0.9-0.2,1.3-0.2c0.4-0.1,0.8-0.2,1.2-0.3
				c0.8-0.2,1.4-0.6,1.9-1c0.2-0.2,0.4-0.4,0.6-0.5c0.2-0.2,0.3-0.3,0.4-0.5C295.7,468.8,295.8,468.6,295.8,468.6z"/>
		</g>
		<g>
			<path class="st0" d="M283.7,455.5c0,0-0.1,0.1-0.4,0.3c-0.3,0.2-0.6,0.5-1.1,0.8c-0.5,0.3-1.2,0.7-2.1,1
				c-0.4,0.1-0.9,0.2-1.4,0.2c-0.5,0-1-0.1-1.6-0.2c-1.1-0.3-2.2-0.9-3.1-1.7c-0.2-0.2-0.4-0.4-0.7-0.7c-0.2-0.2-0.4-0.5-0.6-0.8
				c-0.4-0.6-0.7-1.2-0.9-1.9c-0.4-1.3-0.5-2.8-0.1-4.3c0.4-1.4,1.2-2.7,2.4-3.7c0.5-0.4,1.2-0.9,1.9-1.2c0.7-0.3,1.4-0.5,2.1-0.6
				c1.5-0.2,2.9,0.1,4.2,0.6c1.3,0.6,2.3,1.5,3,2.5c0.8,1.1,1.1,2.2,1.3,3.4c0,0.6,0.1,1.1,0,1.6c-0.1,0.5-0.2,1-0.4,1.4
				c-0.4,0.8-0.8,1.4-1.2,1.9c-0.4,0.5-0.7,0.8-1,1C283.8,455.4,283.7,455.5,283.7,455.5z M283.7,455.5c0,0,0.1-0.1,0.3-0.4
				c0.1-0.1,0.2-0.3,0.4-0.5c0.1-0.2,0.3-0.4,0.4-0.7c0.3-0.5,0.5-1.2,0.6-2c0-0.4,0.1-0.8,0.1-1.2c0-0.2,0-0.4,0-0.7
				c0-0.2,0-0.5,0-0.7c-0.1-0.9-0.5-1.9-1.1-2.8c-0.6-0.9-1.5-1.7-2.6-2.2c-1.1-0.5-2.3-0.7-3.5-0.5c-0.6,0.1-1.2,0.3-1.8,0.5
				c-0.6,0.3-1,0.6-1.6,1c-0.4,0.4-0.9,0.9-1.2,1.4c-0.3,0.5-0.6,1.1-0.7,1.7c-0.3,1.2-0.3,2.5,0.1,3.6c0.2,0.6,0.4,1.1,0.7,1.6
				c0.1,0.2,0.3,0.5,0.5,0.7c0.2,0.2,0.4,0.4,0.6,0.6c0.8,0.7,1.7,1.2,2.6,1.5c0.5,0.1,0.9,0.1,1.3,0.2c0.4,0.1,0.8,0.1,1.2,0.1
				c0.8,0,1.5-0.1,2.1-0.3c0.3-0.1,0.5-0.2,0.7-0.3c0.2-0.1,0.4-0.2,0.5-0.3C283.6,455.6,283.7,455.5,283.7,455.5z"/>
		</g>
		<g>
			<polygon class="st0" points="307.3,461.2 304.4,461.6 304.5,461.6 303.7,465.1 303.7,465 306.4,466.5 306.5,466.6 306.5,466.7 
				304.9,472.5 304.9,472.7 304.7,472.6 301.3,471.4 301.5,471.4 299.6,474.6 299.6,474.4 301.6,477.3 301.7,477.4 301.5,477.5 
				297.3,481.6 297.1,481.7 297,481.6 294.7,479.4 294.9,479.5 291.5,481.3 291.6,481 292.4,484.6 292.4,484.9 292.2,485 286.4,487 
				286.2,487.1 286,486.9 284.3,483.6 284.6,483.8 281.1,484 281.4,483.7 280.8,487.2 280.8,487.6 280.4,487.5 274.5,486.7 
				274.2,486.7 274.2,486.3 274.3,482.7 274.7,483.1 270.7,482.4 271.1,482.2 269.1,484.8 268.8,485.1 268.5,484.9 263.3,481.8 
				262.9,481.6 263.1,481.2 264.6,477.8 264.7,478.3 262.3,476 262.8,476.1 259.4,477.8 259,478 258.8,477.6 255.2,472.3 
				254.9,471.9 255.3,471.6 258.5,469.1 258.4,469.7 256.7,466.4 257.2,466.7 253.6,466.9 253.1,467 253,466.4 252.2,460 
				252.1,459.4 252.7,459.3 257,458.7 256.4,459.2 256.8,455.4 257.2,456 253.5,454.4 253,454.1 253.2,453.6 255,447.9 255.2,447.3 
				255.9,447.5 259.5,448.6 258.8,448.9 260.9,445.4 261,446.3 258.3,443.2 257.9,442.7 258.3,442.2 262.6,437.8 263.1,437.3 
				263.7,437.8 266.8,440.6 265.9,440.5 269.1,438.7 268.7,439.5 267.8,435.1 267.7,434.4 268.4,434.2 274,432.6 274.7,432.4 
				275,433.1 276.3,437 275.5,436.5 279.2,436 278.6,436.5 279.6,432.6 279.8,432 280.4,432.1 286.3,432.8 286.9,432.8 286.9,433.4 
				287,437.6 286.5,437 289.2,438 288.5,438.1 291.7,435 292.1,434.6 292.5,434.9 297.9,439 298.3,439.3 298.1,439.8 296.2,443 
				296.1,442.3 298.7,444.8 298.2,444.7 301.7,442.9 302.1,442.7 302.3,443.1 305,448.3 305.2,448.6 305,448.8 302.7,451 
				302.8,450.7 303.5,454.2 303.2,454 306.9,453.9 307,453.9 307,454 307.6,460.2 307.4,460.2 306.7,454.1 306.9,454.2 303.3,454.5 
				303.1,454.5 303,454.3 302.2,450.8 302.1,450.7 302.2,450.5 304.5,448.3 304.4,448.7 301.5,443.5 302.1,443.7 298.6,445.6 
				298.3,445.8 298.1,445.5 295.4,443.1 295.1,442.8 295.3,442.4 297.1,439.2 297.3,439.9 291.8,435.9 292.6,435.9 289.4,439.1 
				289.2,439.3 288.8,439.2 286.1,438.2 285.7,438.1 285.6,437.6 285.5,433.5 286.1,434.1 280.2,433.5 281,433 280.1,436.9 
				279.9,437.4 279.4,437.5 275.7,438 275.1,438.1 274.9,437.5 273.5,433.6 274.5,434.1 268.8,435.7 269.4,434.8 270.2,439.2 
				270.3,439.8 269.8,440 266.7,441.8 266.2,442.1 265.8,441.7 262.7,438.9 263.7,438.9 259.4,443.2 259.4,442.2 262,445.4 
				262.4,445.8 262.1,446.2 259.9,449.6 259.6,450 259.2,449.9 255.5,448.8 256.3,448.3 254.4,454 254,453.2 257.7,454.9 258.1,455 
				258.1,455.5 257.7,459.4 257.6,459.8 257.1,459.9 252.8,460.5 253.3,459.8 254.1,466.3 253.5,465.8 257.1,465.6 257.5,465.5 
				257.7,465.9 259.3,469.2 259.5,469.6 259.2,469.9 256,472.4 256.1,471.7 259.6,477 259,476.9 262.4,475.2 262.7,475 263,475.3 
				265.3,477.6 265.6,477.9 265.4,478.2 263.9,481.6 263.7,481 268.9,484.1 268.4,484.2 270.4,481.7 270.6,481.5 270.8,481.6 
				274.8,482.3 275.2,482.4 275.2,482.8 275,486.3 274.7,485.9 280.5,486.8 280.1,487.1 280.7,483.5 280.7,483.3 281,483.3 
				284.6,483.1 284.8,483.1 284.9,483.3 286.6,486.6 286.2,486.4 292,484.4 291.8,484.7 291.1,481.1 291.1,480.9 291.2,480.8 
				294.7,479 294.9,478.9 295,479.1 297.3,481.2 297,481.2 301.3,477.2 301.2,477.5 299.3,474.6 299.2,474.5 299.3,474.4 
				301.2,471.2 301.3,471.1 301.4,471.1 304.8,472.3 304.6,472.4 306.2,466.6 306.3,466.8 303.6,465.1 303.5,465.1 303.5,465 
				304.3,461.5 304.3,461.5 304.4,461.4 307.3,461 			"/>
		</g>
	</g>
	<path class="st6" d="M254.5,486.8c-0.1-0.7-0.3-1.2-0.4-1.8l2.5-2.2c-0.6-1.6-1.5-3.1-2.5-4.3l-3.1,1.2c-0.9-0.9-1.8-1.7-2.9-2.2
		l0.3-3.4c-1.6-0.7-3.2-1.1-4.8-1.2l-1.5,3.1c-0.6,0-1.2,0.1-1.8,0.1c-0.6,0.1-1.2,0.3-1.8,0.4l-2.2-2.5c-1.6,0.6-3.1,1.5-4.3,2.6
		l1.2,3.1c-0.9,0.9-1.7,1.8-2.2,2.9l-3.3-0.3c-0.7,1.6-1.1,3.2-1.2,4.9l3,1.4c0,0.6,0.1,1.2,0.1,1.8c0.1,0.7,0.3,1.2,0.4,1.8
		l-2.5,2.2c0.6,1.6,1.5,3.1,2.5,4.3l3.1-1.2c0.9,0.9,1.8,1.7,2.9,2.2l-0.3,3.4c1.6,0.7,3.2,1.1,4.8,1.2l1.4-3.1
		c0.6,0,1.2-0.1,1.8-0.1c0.6-0.1,1.2-0.3,1.8-0.4l2.2,2.5c1.6-0.6,3.1-1.5,4.3-2.6l-1.2-3.1c0.9-0.9,1.7-1.8,2.2-2.9l3.3,0.3
		c0.7-1.6,1.1-3.2,1.2-4.9l-3-1.4C254.6,488,254.6,487.3,254.5,486.8z M243.2,496.1c-4.1,0.6-7.9-2.3-8.5-6.4
		c-0.6-4.1,2.3-8,6.4-8.6c4.1-0.6,7.9,2.3,8.5,6.4C250.1,491.6,247.3,495.5,243.2,496.1z"/>
	<g>
		<g>
			<path class="st0" d="M248,496c0,0-0.1,0.1-0.4,0.4c-0.3,0.2-0.6,0.6-1.2,0.9c-0.5,0.4-1.2,0.8-2.2,1.1c-0.5,0.2-1,0.3-1.5,0.3
				c-0.6,0-1.1-0.1-1.7-0.2c-1.2-0.3-2.4-0.9-3.5-1.8c-0.3-0.2-0.5-0.5-0.8-0.8c-0.2-0.3-0.4-0.5-0.6-0.8c-0.4-0.6-0.7-1.3-1-2
				c-0.5-1.4-0.6-3-0.2-4.6c0.4-1.6,1.2-3,2.4-4.2c0.5-0.5,1.2-1,2-1.4c0.7-0.3,1.5-0.6,2.3-0.7c1.6-0.3,3.2,0,4.6,0.6
				c1.4,0.6,2.6,1.6,3.3,2.7c0.8,1.2,1.3,2.4,1.5,3.6c0.1,0.6,0.2,1.2,0.1,1.7c-0.1,0.5-0.2,1.1-0.4,1.5c-0.4,0.9-0.9,1.6-1.3,2.1
				c-0.4,0.5-0.8,0.9-1,1.1C248.1,495.9,248,496,248,496z M248,496c0,0,0.1-0.1,0.4-0.4c0.1-0.1,0.3-0.3,0.4-0.5
				c0.2-0.2,0.3-0.5,0.4-0.8c0.3-0.6,0.5-1.3,0.5-2.2c0-0.4,0-0.9,0-1.3c0-0.2,0-0.5,0-0.7c0-0.2,0-0.5-0.1-0.7
				c-0.2-1-0.6-2.1-1.2-3c-0.7-1-1.7-1.8-2.8-2.3c-1.2-0.5-2.5-0.7-3.8-0.5c-0.7,0.1-1.3,0.3-1.9,0.6c-0.6,0.3-1.1,0.6-1.7,1.2
				c-0.4,0.4-0.9,1-1.2,1.6c-0.3,0.6-0.6,1.2-0.7,1.9c-0.3,1.3-0.2,2.6,0.2,3.8c0.2,0.6,0.5,1.2,0.8,1.6c0.1,0.2,0.4,0.5,0.6,0.7
				c0.2,0.2,0.4,0.4,0.6,0.6c0.9,0.8,1.9,1.2,2.9,1.5c0.2,0.1,0.5,0.1,0.7,0.1c0.2,0,0.5,0,0.7,0.1c0.5,0.1,0.9,0.1,1.3,0.1
				c0.9,0,1.6-0.2,2.2-0.4c0.3-0.1,0.6-0.2,0.8-0.4c0.2-0.1,0.4-0.2,0.5-0.4C247.9,496.1,248,496,248,496z"/>
		</g>
		<g>
			<path class="st0" d="M255.8,489.1l0,1.4l0-0.1l2.5,1.7l0.1,0l0,0.1l-1.2,4.8l0,0.2l-0.2,0l-2.9-0.6l0.2-0.1l-2.2,2.6l0-0.2
				l1.2,3.2l0.1,0.2l-0.2,0.1l-4.2,2.4l-0.2,0.1l-0.2-0.2l-2-2.3l0.3,0.1l-4,0.5l0.3-0.2l-1.2,3l-0.1,0.3l-0.3-0.1l-5-1.4l-0.3-0.1
				l0-0.4l0.3-3.3l0.2,0.4l-2.5-1.8l0.5,0.1l-3.4,1.4l-0.4,0.2l-0.2-0.4l-2.7-5l-0.2-0.4l0.4-0.3l2.6-2.1l-0.2,0.5l-0.5-3.6l0.4,0.5
				l-3-1l-0.6-0.2l0.2-0.6l1.3-4.8l0.1-0.5l0.5,0l3.1,0l-0.6,0.3l2-2.9l-0.1,0.7l-1.3-3.3l-0.2-0.6l0.6-0.3l4.6-2.6l0.6-0.3l0.4,0.5
				l2.2,2.9l-0.7-0.3l4-0.7l-0.6,0.5l1-3.3l0.2-0.7l0.6,0.2l5.2,1.6l0.5,0.2l-0.1,0.5l-0.6,3.2l-0.2-0.6l2.8,2.2l-0.4-0.1l3.1-0.8
				l0.3-0.1l0.2,0.3c1,1.6,1.9,3.2,2.9,4.7l0.1,0.2l-0.2,0.1l-2.9,2.1l0-0.2l0.6,1.5l-0.1,0.1l-0.7-1.4l0-0.1l0.1-0.1l2.8-2.3
				l-0.1,0.3c-1.1-1.5-2.1-3-3.1-4.6l0.5,0.2l-3.1,1l-0.2,0.1l-0.2-0.1l-2.9-2l-0.3-0.2l0.1-0.4l0.5-3.2l0.4,0.7l-5.2-1.4l0.8-0.5
				l-0.9,3.3l-0.1,0.4l-0.5,0.1l-4,0.7l-0.5,0.1l-0.3-0.4l-2.2-2.9l1,0.2l-4.6,2.5l0.3-0.9l1.2,3.3l0.1,0.4l-0.2,0.3l-2.1,2.9
				l-0.2,0.3l-0.4,0l-3.1,0l0.7-0.5L228,489l-0.4-0.8l3,1.1l0.4,0.1l0,0.4l0.5,3.6l0,0.3l-0.3,0.2l-2.6,2.1l0.1-0.7l2.6,5l-0.6-0.2
				l3.4-1.4l0.3-0.1l0.2,0.2l2.5,1.8l0.2,0.2l0,0.3l-0.3,3.3l-0.3-0.5l5,1.5l-0.5,0.2l1.2-3l0.1-0.2l0.2,0l4-0.4l0.2,0l0.1,0.1
				l2,2.4l-0.4-0.1l4.3-2.3l-0.1,0.3l-1.1-3.2l0-0.1l0.1-0.1l2.2-2.6l0.1-0.1l0.1,0l2.9,0.6l-0.2,0.1l1.3-4.8l0,0.1l-2.5-1.8l0,0
				l0,0l0-1.4L255.8,489.1z"/>
		</g>
	</g>
</g>
<g id="laptop">
	<path class="st7" d="M51.4,283.2v1.8c0,6,6.6,10.7,14.9,10.7h265.5c8.2,0,14.9-4.8,14.9-10.7v-1.8H51.4z"/>
	<path class="st8" d="M317.5,238.5H78.8L50.3,281h295.6L317.5,238.5z M154.9,280.1l2.2-9.2c0.6-2.3,4.1-3.4,12.6-3.4h34.6h22
		c8.5,0,12,1,12.6,3.4l2.2,9.2H154.9z M94,262.5l10.1-18.1H260h32.2l10.1,18.1H94z"/>
	<g>
		<g>
			<path class="st0" d="M339.6,278.3c0,0-4.5,0.1-12.5,0.4c-4,0.1-8.8,0.2-14.3,0.4c-2.8,0.1-5.7,0.2-8.8,0.2c-3.1,0.1-6.4,0-9.8,0
				c-27.3,0-63.6,0-100,0.1c-36.4,0-72.7,0-100,0.1c-3.4,0-6.7,0.1-9.8,0c-3.1-0.1-6.1-0.2-8.8-0.2c-5.5-0.1-10.4-0.3-14.3-0.4
				c-8-0.2-12.5-0.4-12.5-0.4s4.5-0.1,12.5-0.4c4-0.1,8.8-0.2,14.3-0.4c2.8-0.1,5.7-0.2,8.8-0.2c3.1-0.1,6.4,0,9.8,0
				c27.3,0,63.6,0,100-0.1c36.4,0,72.7,0,100-0.1c3.4,0,6.7-0.1,9.8,0c3.1,0.1,6.1,0.2,8.8,0.2c5.5,0.1,10.4,0.3,14.3,0.4
				C335.1,278.2,339.6,278.3,339.6,278.3z"/>
		</g>
		<path class="st9" d="M286.5,278.3h53.4c0,0,2,16.1-23.1,14.8c-25-1.3-254.4,0-254.4,0s-22.1-0.7-17.3-15.7"/>
	</g>
	<polygon class="st10" points="296.6,259.7 286.5,241.7 254.4,241.7 98.4,241.7 88.3,259.7 	"/>
	<polyline class="st9" points="45,278.2 73.9,235.6 312.7,235.6 340.4,279.1 	"/>
	<path class="st10" d="M232,278.7l-2.2-9.2c-0.6-2.3-4.1-3.4-12.6-3.4h-22h-34.6c-8.5,0-12,1-12.6,3.4l-2.2,9.2"/>
	<line class="st10" x1="95.9" y1="246.3" x2="289.1" y2="246.3"/>
	<line class="st10" x1="92.3" y1="252.6" x2="293.1" y2="252.6"/>
	<path class="st11" d="M304.6,72.9H90.2c-6.6,0-12,5.4-12,12v154.5h238.3V84.9C316.5,78.2,311.2,72.9,304.6,72.9z M306.6,230.6H88.3
		V87.1h218.4L306.6,230.6L306.6,230.6z"/>
	<path class="st9" d="M73.9,236.4V81.6c0-6.4,5.2-11.6,11.6-11.6h215.9c6.4,0,11.6,5.2,11.6,11.6V236L73.9,236.4z"/>
	<rect x="83" y="84.8" class="st9" width="217.8" height="143.2"/>
	<g>
		<rect x="152.3" y="170" class="st2" width="60.1" height="48"/>
		<rect x="216.2" y="170" class="st2" width="77.1" height="48"/>
		<rect x="96.1" y="169.4" class="st12" width="46.8" height="48.7"/>
		<line class="st13" x1="149.5" y1="179.8" x2="207" y2="179.8"/>
		<line class="st13" x1="149.8" y1="194.2" x2="207.3" y2="194.2"/>
		<line class="st13" x1="150.1" y1="208.6" x2="207.6" y2="208.6"/>
		<line class="st13" x1="216.5" y1="179.8" x2="274" y2="179.8"/>
		<line class="st13" x1="216.8" y1="194.2" x2="274.3" y2="194.2"/>
		<line class="st13" x1="217.1" y1="208.6" x2="274.7" y2="208.6"/>
		<polygon class="st3" points="96.1,99.8 96.1,145.3 109.3,145.3 109.3,128.9 142.8,128.9 142.8,145.3 293.3,145.3 293.3,99.8 		"/>
		<rect x="106.8" y="126.4" class="st14" width="33.5" height="33.5"/>
	</g>
</g>
<g id="smartphone">
	<path class="st8" d="M431.9,561v1.9c0,10.1,8.2,18.3,18.3,18.3h76c10.1,0,18.3-8.2,18.3-18.3V561H431.9z M486.9,579.2
		c-4.4,0-8-3.6-8-8c0-4.4,3.6-8,8-8s8,3.6,8,8C494.9,575.6,491.3,579.2,486.9,579.2z"/>
	<path class="st8" d="M524.1,384h-76c-10.1,0-18.3,8.2-18.3,18.3v1.9h112.6v-1.9C542.4,392.2,534.2,384,524.1,384z M462.6,396.5
		c-1.1,0-1.9-0.9-1.9-1.9c0-1.1,0.9-1.9,1.9-1.9c1.1,0,1.9,0.9,1.9,1.9S463.7,396.5,462.6,396.5z M508.8,396.5H477
		c-1.1,0-1.9-0.9-1.9-1.9c0-1.1,0.9-1.9,1.9-1.9h31.7c1.1,0,1.9,0.9,1.9,1.9C510.7,395.6,509.8,396.5,508.8,396.5z"/>
	<rect x="430.4" y="407.7" class="st15" width="104" height="142"/>
	<g>
		<path class="st0" d="M523.3,579.7c0,0-2.3,0-6.8,0c-2.2,0-4.9,0-8.1,0.1c-3.2,0-6.9,0.1-11,0.2c-8.2,0.2-18.2,0.4-29.6,0.7
			c-5.7,0.1-11.8,0.2-18.2,0.3c-1.6,0-3.2,0-4.9,0l-1.2,0l-0.3,0l-0.2,0l-0.2,0l-0.6,0c-0.4,0-0.8,0-1.3-0.1l-1.4-0.2
			c-1.8-0.3-3.5-0.9-5.2-1.7c-1.6-0.8-3.2-1.9-4.6-3.2c-2.8-2.5-4.8-6-5.7-9.8c-0.1-0.5-0.2-1-0.3-1.4c-0.1-0.5-0.2-1-0.2-1.5
			l-0.1-1.5l0-1.4c0-1.9,0-3.7,0-5.6c0-7.6,0-15.4,0-23.5c0-16.1,0-33.2,0-50.8s0-35.8,0-54.3c0-9.3,0-18.6,0-28
			c0.1-4.9,2.2-9.9,5.8-13.4C433,381,438,379,443,379c18.8,0,37.6,0,56.1,0c4.6,0,9.2,0,13.8,0c2.3,0,4.6,0,6.9,0h3.4l0.3,0l0.2,0
			l0.4,0l0.9,0c0.6,0,1.2,0.2,1.8,0.2c4.8,0.8,9.2,3.5,12.1,7.3c1.5,1.9,2.5,4.1,3.2,6.3c0.1,0.6,0.3,1.1,0.4,1.7l0.3,1.8l0.1,1.8
			c0,0.6,0,1.1,0,1.7c0,35.2,0,68.1,0,96.3c0,7,0.1,13.8,0,20.2c-0.1,6.4-0.2,12.5-0.3,18.2c-0.1,5.7-0.3,11.1-0.4,16
			c0,2.5-0.1,4.9-0.1,7.1c-0.1,2.3,0,4.4-0.4,6.5c-0.4,2.1-1,3.9-1.9,5.6c-0.9,1.6-1.9,3.1-3,4.2c-0.5,0.6-1.2,1.1-1.7,1.6
			c-0.6,0.4-1.2,0.9-1.7,1.2c-1.1,0.7-2.3,1.3-3.3,1.7c-1,0.4-2,0.6-2.8,0.8c-0.8,0.1-1.5,0.3-2.1,0.3
			C523.9,579.7,523.3,579.7,523.3,579.7z M523.3,579.7c0,0,0.6,0,1.7-0.1c0.6-0.1,1.3-0.2,2.1-0.3c0.8-0.2,1.8-0.4,2.8-0.9
			c2-0.8,4.5-2.2,6.6-4.5c2.1-2.3,4-5.6,4.5-9.7c0.3-2,0.1-4.2,0.1-6.4c0-2.3-0.1-4.6-0.1-7.1c-0.1-5-0.2-10.3-0.4-16
			c-0.1-5.7-0.2-11.8-0.3-18.2c-0.1-6.4,0-13.2,0-20.2c0-28.2,0-61.1,0-96.3c0-0.5,0-1.1,0-1.6l-0.1-1.5l-0.2-1.5
			c-0.1-0.5-0.3-1-0.4-1.5c-0.6-2-1.5-3.9-2.8-5.5c-2.5-3.3-6.3-5.7-10.5-6.4c-2-0.4-4.3-0.3-6.6-0.3c-2.3,0-4.6,0-6.9,0
			c-4.6,0-9.2,0-13.8,0c-18.5,0-37.3,0-56.1,0c-4.4,0-8.7,1.8-11.8,4.8c-3.1,3.1-5,7.3-5.1,11.7c0,9.3,0,18.6,0,27.9
			c0,18.5,0,36.7,0,54.3s0,34.6,0,50.8c0,8.1,0,15.9,0,23.5c0,1.9,0,3.8,0,5.6l0,1.4l0.1,1.3c0,0.4,0.1,0.9,0.2,1.3
			c0.1,0.4,0.1,0.8,0.2,1.3c0.8,3.3,2.6,6.3,5,8.5c2.4,2.2,5.4,3.7,8.5,4.2l1.1,0.2c0.4,0,0.8,0,1.2,0.1l0.6,0c0,0,0.2,0,0.1,0
			l0.2,0l0.3,0l1.2,0c1.6,0,3.3,0,4.9,0c6.4,0.1,12.5,0.2,18.2,0.3c11.4,0.3,21.4,0.5,29.6,0.7c4.1,0.1,7.8,0.1,11,0.2
			c3.2,0,5.9,0,8.1,0.1C521,579.7,523.3,579.7,523.3,579.7z"/>
	</g>
	<circle class="st16" cx="482.9" cy="568.2" r="8"/>
	<path class="st16" d="M507.9,393.2h-33c-1.1,0-2-0.9-2-2l0,0c0-1.1,0.9-2,2-2h33c1.1,0,2,0.9,2,2l0,0
		C509.9,392.3,509,393.2,507.9,393.2z"/>
	<circle class="st16" cx="459.9" cy="391.2" r="2"/>
	<line class="st16" x1="424.9" y1="401.7" x2="541.9" y2="401.7"/>
	<line class="st16" x1="425.4" y1="557.2" x2="542.4" y2="557.2"/>
	<g class="st17">
		<polygon class="st3" points="534.9,550.2 534.9,498.2 465.9,550.2 		"/>
		<polygon class="st3" points="430.9,408.2 430.9,462.6 503.2,408.2 		"/>
		<polygon class="st3" points="511.6,408.2 430.9,468.9 430.9,473.9 518.2,408.2 		"/>
		<polygon class="st3" points="430.9,534 534.9,455.7 534.9,446.9 430.9,525.2 		"/>
		<polygon class="st3" points="531.5,408.2 430.9,483.9 430.9,511.4 534.9,433.1 534.9,408.2 		"/>
		<polygon class="st3" points="430.9,521.5 534.9,443.2 534.9,436.9 430.9,515.2 		"/>
		<polygon class="st3" points="430.9,550.2 451,550.2 534.9,487 534.9,466.9 430.9,545.2 		"/>
	</g>
	<rect x="439.4" y="419.7" class="st16" width="89" height="32"/>
	<rect x="439.9" y="458.2" class="st18" width="32" height="32"/>
	<rect x="439.9" y="494.2" class="st18" width="32" height="20"/>
	<rect x="477.9" y="458.2" class="st18" width="51" height="57"/>
	<rect x="438.9" y="521.2" class="st18" width="90" height="24"/>
</g>
<g id="target">
	<circle class="st19" cx="351.3" cy="329.9" r="186"/>
	<circle class="st19" cx="351.3" cy="329.9" r="139"/>
	<circle class="st19" cx="351.3" cy="329.9" r="82"/>
	<line class="st19" x1="350.8" y1="143.4" x2="350.8" y2="291.4"/>
	<line class="st19" x1="351.3" y1="368.4" x2="351.3" y2="516.4"/>
	<line class="st19" x1="537.6" y1="329.7" x2="389.6" y2="329.7"/>
	<line class="st19" x1="312.6" y1="330.2" x2="164.6" y2="330.2"/>
</g>
<g id="arrow">
	<g>
		<polygon class="st6" points="551.5,186.4 514.7,175.1 503.4,138.3 490.7,151 502,187.8 538.7,199.1 		"/>
		<polygon class="st3" points="591.1,146.8 554.3,135.5 543,98.7 518.2,123.5 529.6,160.2 566.3,171.5 		"/>
	</g>
	<line class="st20" x1="351.1" y1="329.9" x2="519.1" y2="161.9"/>
	<g>
		<g>
			<polygon class="st0" points="600.2,125.7 566.2,115.3 566,115.3 566,115.1 553.4,77.6 554.5,77.8 484.3,150 484.6,148.8 
				496.3,185.6 495.3,184.7 513.5,189.9 522.6,192.6 531.6,195.3 530.1,195.6 539.1,186.8 548.1,178.1 566.1,160.5 584.3,143.1 
				593.4,134.5 602.5,125.8 602.7,126.1 594,135.1 585.3,144.2 567.7,162.2 550,180 541.2,189 532.3,197.8 531.7,198.5 530.8,198.2 
				521.7,195.6 512.6,192.9 494.5,187.4 493.8,187.2 493.6,186.5 482.3,149.6 482.1,148.9 482.6,148.4 553.6,76.9 554.3,76.1 
				554.7,77.1 566.7,114.8 566.5,114.6 600.3,125.4 			"/>
		</g>
		<g>
			<path class="st0" d="M543.6,90.1l6,18.2l5.9,18.2l-0.7-0.7l9,2.6c1.5,0.5,3,0.9,4.5,1.4c1.5,0.5,3,1,4.5,1.5
				c5.9,2.1,11.8,4.2,17.6,6.8l-0.1,0.2c-6.2-1.3-12.2-2.9-18.2-4.6c-1.5-0.4-3-0.9-4.5-1.4c-1.5-0.5-3-1-4.5-1.5l-8.9-3.1l-0.5-0.2
				l-0.1-0.5l-5.1-18.5l-5-18.5L543.6,90.1z"/>
		</g>
		<g>
			<path class="st0" d="M520.6,113.9l6.4,17.3l6.3,17.3l-0.6-0.6l8.9,2.7l4.4,1.4c1.5,0.5,2.9,1,4.4,1.5c5.8,2.1,11.7,4.3,17.3,7
				l-0.1,0.2c-6.1-1.3-12.1-3-18-4.8c-1.5-0.5-3-0.9-4.4-1.4l-4.4-1.5l-8.8-3.2l-0.5-0.2l-0.1-0.4l-5.5-17.6l-5.4-17.6L520.6,113.9z
				"/>
		</g>
		<g>
			<path class="st0" d="M497.1,135.4l6.4,18.2l6.3,18.2l-0.7-0.7l9,2.6c1.5,0.4,3,0.9,4.5,1.3c1.5,0.5,3,1,4.4,1.4
				c2.9,1,5.9,2,8.8,3.1c2.9,1.1,5.8,2.2,8.7,3.5l-0.1,0.2c-3.1-0.6-6.1-1.3-9.1-2.1c-3-0.8-6-1.6-9-2.4c-1.5-0.4-3-0.9-4.5-1.3
				c-1.5-0.5-3-1-4.4-1.4l-8.9-3l-0.5-0.2l-0.1-0.5l-5.6-18.5l-5.5-18.5L497.1,135.4z"/>
		</g>
	</g>
	<line class="st20" x1="494.9" y1="186.4" x2="566.3" y2="115"/>
</g>

<style>
	#we_optimize_and_create_targetted_ads #gear, #we_optimize_and_create_targetted_ads #laptop, #we_optimize_and_create_targetted_ads #smartphone {
		-webkit-transform-origin: 50% 50%;
		transform-origin: 50% 50%;
		opacity: 0;
	}


	#we_optimize_and_create_targetted_ads #gear {
		-webkit-transform: translate(-150px, 150px);
		transform: translate(-150px, 150px);
		-webkit-animation: moveElement 1.5s linear 0s forwards;
		animation: moveElement 1.5s linear 0s forwards;
	}

	#we_optimize_and_create_targetted_ads #laptop {
		-webkit-transform: translate(-150px, -150px);
		transform: translate(-150px, -150px);
		-webkit-animation: moveElement 1.5s linear 0s forwards;
		animation: moveElement 1.5s linear 0s forwards;
	}

	#we_optimize_and_create_targetted_ads #smartphone {
		-webkit-transform: translate(150px, 150px);
		transform: translate(150px, 150px);
		-webkit-animation: moveElement 1.5s linear 0s forwards;
		animation: moveElement 1.5s linear 0s forwards;
	}

	#we_optimize_and_create_targetted_ads #bg {
		-webkit-transform-origin: 50% 50%;
		transform-origin: 50% 50%;
		-webkit-transform: scale(0);
		transform: scale(0);
		-webkit-animation: bounceBg 2s linear 0s forwards;
		animation: bounceBg 2s linear 0s forwards;
	}

	#we_optimize_and_create_targetted_ads #arrow {
		-webkit-transform-origin: 0% 100%;
		transform-origin: 0% 100%;
		-webkit-transform: rotate(15deg);
		transform: rotate(15deg);
		opacity: 0;
		-webkit-animation: showArrow 0.1s linear 2s forwards;
		animation: showArrow 0.1s linear 2s forwards;
	}

	#we_optimize_and_create_targetted_ads #star1, #we_optimize_and_create_targetted_ads #star2  {
		-webkit-animation: blinkStar 1s ease-out 0s alternate infinite;
		animation: blinkStar 1s ease-out 0s alternate infinite;
	}
	#we_optimize_and_create_targetted_ads #star3, #we_optimize_and_create_targetted_ads #star4  {
		-webkit-animation: blinkStar 1s ease-out 1s alternate infinite;
		animation: blinkStar 1s ease-out 1s alternate infinite;
	}
	#we_optimize_and_create_targetted_ads #star5, #we_optimize_and_create_targetted_ads #star6  {
		-webkit-animation: blinkStar 1s ease-out 0.5s alternate infinite;
		animation: blinkStar 1s ease-out 0.5s alternate infinite;
	}


	@-webkit-keyframes moveElement {
		to {
			opacity: 1;
			-webkit-transform: translate(0px, 0px);
			transform: translate(0px, 0px);
		}
	}

	@-webkit-keyframes bounceBg {
		0% {
	    -webkit-transform: scale(0);
	    transform: scale(0);
	  }
		20% {
			-webkit-transform: scale(1);
			transform: scale(1);
		}
		40% {
			-webkit-transform: scale(0.8);
			transform: scale(0.8);
		}
		60% {
			-webkit-transform: scale(1);
			transform: scale(1);
		}
		80% {
			-webkit-transform: scale(0.95);
			transform: scale(0.95);
		}
		100% {
			-webkit-transform: scale(1);
			transform: scale(1);
		}
	}

	@-webkit-keyframes showArrow {
		0% {
			opacity: 1;
			-webkit-transform: rotate(15deg);
			transform: rotate(15deg);
		}
		35% {
			-webkit-transform: rotate(-10deg);
			transform: rotate(-10deg);
		}
		80% {
			-webkit-transform: rotate(5deg);
			transform: rotate(5deg);
		}
		100% {
			opacity: 1;
			-webkit-transform: rotate(0deg);
			transform: rotate(0deg);
		}
	}

	@-webkit-keyframes blinkStar {
		0% {
	    opacity: 1;
	  }
		100% {
			 opacity: 0;
		}
	}



	@keyframes moveElement {
		to {
			opacity: 1;
			transform: translate(0px, 0px);
		}
	}

	@keyframes bounceBg {
		0% {
	    transform: scale(0);
	  }
		20% {
			transform: scale(1);
		}
		40% {
			transform: scale(0.8);
		}
		60% {
			transform: scale(1);
		}
		80% {
			transform: scale(0.95);
		}
		100% {
			transform: scale(1);
		}
	}

	@keyframes showArrow {
		0% {
			opacity: 1;
			transform: rotate(15deg);
		}
		35% {
			transform: rotate(-10deg);
		}
		80% {
			transform: rotate(5deg);
		}
		100% {
			opacity: 1;
			transform: rotate(0deg);
		}
	}

	@keyframes blinkStar {
		0% {
	    opacity: 1;
	  }
		100% {
			 opacity: 0;
		}
	}
</style>

</svg>
