<?xml version="1.0" encoding="utf-8"?>
<!-- Generator: Adobe Illustrator 19.0.0, SVG Export Plug-In . SVG Version: 6.00 Build 0)  -->
<svg version="1.1" id="we_take_care_of_your_reputation" xmlns="http://www.w3.org/2000/svg" xmlns:xlink="http://www.w3.org/1999/xlink" x="0px" y="0px"
	 viewBox="72 61.8 739.9 718.1" style="enable-background:new 72 61.8 739.9 718.1;" xml:space="preserve">
<style type="text/css">
	.st0{fill:#EFF4F7;}
	.st1{fill:url(#SVGID_1_);}
	.st2{fill:none;stroke:#1B5FC1;stroke-width:1.31;stroke-miterlimit:10;}
	.st3{fill:#FCD660;}
	.st4{fill:#FFFFFF;}
	.st5{fill:#F4C20D;}
	.st6{fill:#4248B7;}
	.st7{fill:#E05F69;}
	.st8{fill:#77E084;}
</style>
<g id="background">
	<path class="st0" d="M177.2,616c-64-26.6-156.7-91.9-69.8-159.2c38.7-30,51.8-51.3,50.5-104.2c-1-39.7-5.2-77.9,7-116.5
		c30.5-96.1,124.4-106,206.2-95.3c49.2,6.5,97.5,17.8,147.3,11.2c42.8-5.7,79.7-20.5,120.2,4c73.4,44.6,111.4,164.9,145.1,242.3
		c19.1,43.7,36.2,79.6,24.2,128.3c-10.9,44.4-28.8,77.7-68.9,96.8c-93.3,44.6-183,5.3-277.6-7.4C364.7,603.1,272.1,655.5,177.2,616z
		"/>
	
		<radialGradient id="SVGID_1_" cx="491.2607" cy="417.6842" r="240.8064" gradientTransform="matrix(1 0 0 0.9 0 41.7684)" gradientUnits="userSpaceOnUse">
		<stop  offset="0" style="stop-color:#4984EF;stop-opacity:0.6"/>
		<stop  offset="0.3919" style="stop-color:#8EB2F5;stop-opacity:0.3649"/>
		<stop  offset="1" style="stop-color:#FFFFFF;stop-opacity:0"/>
	</radialGradient>
	<ellipse class="st1" cx="491.3" cy="417.7" rx="253.8" ry="227.1"/>
	<path class="st2" d="M701.4,279L701.4,279c0-4-3.3-7.2-7.2-7.1l0,0c4,0,7.2-3.3,7.2-7.2l0,0c0,3.9,3.3,7.1,7.2,7.1l0,0
		C704.5,271.7,701.3,275,701.4,279L701.4,279z"/>
	<path class="st2" d="M154.4,514.5L154.4,514.5c0-4-3.3-7.2-7.2-7.2l0,0c4,0,7.2-3.3,7.2-7.2l0,0c0,4,3.3,7.2,7.2,7.2l0,0
		C157.6,507.3,154.4,510.5,154.4,514.5z"/>
	<path id="star3" class="st3" d="M743.5,470.4L743.5,470.4c0-4.2-3.4-7.6-7.6-7.5c0,0,0,0,0,0l0,0c4.2,0,7.6-3.4,7.5-7.6c0,0,0,0,0,0l0,0
		c0,4.2,3.4,7.6,7.6,7.5c0,0,0,0,0,0l0,0C746.9,462.8,743.5,466.2,743.5,470.4C743.5,470.4,743.5,470.4,743.5,470.4z"/>
	<path id="star1" class="st3" d="M188.5,357.6L188.5,357.6c0-6.9-5.6-12.4-12.5-12.3c0,0,0,0,0,0l0,0c6.9,0,12.4-5.6,12.3-12.5c0,0,0,0,0,0l0,0
		c0,6.9,5.6,12.4,12.5,12.3c0,0,0,0,0,0l0,0C193.9,345.1,188.4,350.7,188.5,357.6C188.4,357.5,188.4,357.5,188.5,357.6L188.5,357.6z
		"/>
	<path id="star2" class="st3" d="M595.5,178.2L595.5,178.2c0-5.7-4.7-10.3-10.4-10.3c0,0,0,0,0,0l0,0c5.7,0,10.3-4.7,10.3-10.4c0,0,0,0,0,0l0,0
		c0,5.7,4.7,10.3,10.4,10.3c0,0,0,0,0,0l0,0C600.1,167.9,595.5,172.5,595.5,178.2C595.5,178.2,595.5,178.2,595.5,178.2z"/>
	<path class="st2" d="M215.9,249.1L215.9,249.1c0-6.8-5.6-12.4-12.5-12.3l0,0c6.9,0,12.4-5.6,12.3-12.5c0,0,0,0,0,0l0,0
		c0,6.9,5.6,12.4,12.5,12.3c0,0,0,0,0,0l0,0C221.4,236.6,215.8,242.2,215.9,249.1C215.9,249.1,215.9,249.1,215.9,249.1L215.9,249.1z
		"/>
	<path id="star4" class="st4" d="M320.1,779.9L320.1,779.9c0-6.9-5.6-12.4-12.5-12.3c0,0,0,0,0,0l0,0c6.9,0,12.4-5.6,12.3-12.5c0,0,0,0,0,0l0,0
		c0,6.9,5.6,12.4,12.5,12.3c0,0,0,0,0,0l0,0C325.6,767.5,320.1,773,320.1,779.9C320.2,779.9,320.2,779.9,320.1,779.9L320.1,779.9z"
		/>
	<circle class="st2" cx="708.9" cy="358.3" r="2.6"/>
	<circle class="st2" cx="245.2" cy="407.6" r="2.6"/>
	<circle class="st4" cx="717.3" cy="531.7" r="5.4"/>
	<circle class="st4" cx="602.3" cy="224.3" r="5.4"/>
	<circle class="st4" cx="188.3" cy="559.3" r="5.4"/>
	<circle class="st4" cx="327.5" cy="177.1" r="4.3"/>
	<circle class="st2" cx="784.9" cy="519.3" r="2.6"/>
	<path class="st2" d="M706.4,596.7L706.4,596.7c0-6.9-5.6-12.4-12.5-12.3c0,0,0,0,0,0l0,0c6.9,0,12.4-5.6,12.3-12.5c0,0,0,0,0,0l0,0
		c0,6.9,5.6,12.4,12.5,12.3c0,0,0,0,0,0l0,0C711.9,584.3,706.4,589.9,706.4,596.7C706.4,596.7,706.4,596.7,706.4,596.7z"/>
</g>
<g id="crown">
	<path id="_Path_" class="st5" d="M521.2,223.2c-46-21.2-92.3-21.2-138.2,0l-8.5-16.6c51.1-23.8,104-23.8,155.1,0L521.2,223.2z"/>
	<path id="_Path_2" class="st5" d="M495.6,155.6c-11.7-21.4-26.3-41.1-43.5-58.5c-17.1,17.4-31.7,37.1-43.5,58.5
		c-21.3-6.8-43.4-10.5-65.8-11l14.8,29.1l11.9,23.4c54-25.4,110.9-25.3,165,0l11.9-23.4l14.8-29.1C539,145,516.9,148.8,495.6,155.6z
		"/>
	<path id="_Path_3" class="st5" d="M452.1,97.1c-5.5-5.6-11.5-10.7-17.9-15.2c5.4-6.3,11.4-12,17.9-17.1C458.6,70,464.6,75.7,470,82
		C463.6,86.4,457.6,91.5,452.1,97.1z"/>
	<path id="_Path_4" class="st5" d="M342.9,144.5c-7.3-2.9-14.9-5-22.6-6.4c2.4-7.9,5.5-15.6,9.3-23c8,2,15.9,4.8,23.4,8.2
		C349,130,345.6,137.1,342.9,144.5z"/>
	<path id="_Path_5" class="st5" d="M561.2,144.5c7.3-2.9,14.9-5,22.6-6.4c-2.4-7.9-5.5-15.6-9.3-23c-8,2-15.9,4.8-23.4,8.2
		C555.2,130,558.5,137.1,561.2,144.5z"/>
	<g>
		<g>
			<path class="st6" d="M489.1,152.6c2.6-0.8,5.2-1.5,7.8-2.2c2.6-0.7,5.2-1.3,7.8-2c1.3-0.3,2.6-0.6,3.9-0.9c1.3-0.3,2.6-0.6,4-0.9
				c1.3-0.3,2.6-0.6,4-0.8l4-0.8l4-0.7c1.3-0.2,2.7-0.4,4-0.6c1.3-0.2,2.7-0.4,4-0.5l4-0.5l4-0.3c1.3-0.1,2.7-0.2,4-0.2
				c1.3,0,2.7-0.2,4.1-0.1l4.1,0l0.7,0l-0.3,0.6l-25.8,52.4l-0.3,0.6l-0.6-0.4c-3-1.8-6.2-3.3-9.5-4.7c-3.2-1.4-6.6-2.7-9.9-3.9
				c-3.3-1.2-6.7-2.2-10.1-3.2c-3.4-1-6.9-1.8-10.3-2.5c-1.7-0.4-3.5-0.7-5.2-1c-1.7-0.3-3.5-0.6-5.2-0.9c-3.5-0.5-7-1-10.5-1.3
				l-2.6-0.2l-2.7-0.2c-1.8-0.1-3.5-0.2-5.3-0.3c-1.8,0-3.5-0.1-5.3-0.1l-5.3,0c-1.8,0-3.5,0.1-5.3,0.2l-2.7,0.1
				c-0.9,0.1-1.8,0.1-2.6,0.2l-5.3,0.4l-5.3,0.6c-1.8,0.2-3.5,0.5-5.3,0.8c-1.7,0.3-3.5,0.5-5.2,0.9c-3.5,0.7-7,1.3-10.4,2.2
				l-5.2,1.2l-5.1,1.4c-3.4,0.9-6.8,2-10.1,3.1c-1.7,0.5-3.4,1.1-5,1.7l-5,1.8c-3.3,1.3-6.6,2.7-9.8,4l-1.1,0.4l-0.5-1l-26.8-52.2
				l-1.1-2.1l2.4-0.1c1.5,0,2.8,0,4.3,0c1.4,0,2.8,0.1,4.2,0.2c2.8,0.1,5.6,0.4,8.4,0.6c1.4,0.1,2.8,0.3,4.2,0.4
				c1.4,0.1,2.8,0.3,4.2,0.5c1.4,0.2,2.8,0.4,4.2,0.6l4.1,0.6c2.7,0.5,5.5,1,8.2,1.5l4.1,0.8l4.1,0.9c1.4,0.3,2.7,0.6,4.1,1l4.1,1
				c1.4,0.3,2.7,0.7,4,1.1l4,1.1l-1.7,0.7c3.2-5.2,6.6-10.3,10-15.3c1.7-2.5,3.4-5,5.2-7.6l2.6-3.7c0.9-1.2,1.8-2.5,2.7-3.7
				c1.8-2.5,3.6-4.9,5.5-7.4c0.9-1.2,1.9-2.4,2.8-3.6c0.9-1.2,1.9-2.4,2.9-3.6c1-1.2,1.9-2.4,2.9-3.5l3-3.5L440,97l3.4-3.2l0.8-0.7
				l0.7,0.8c4.1,4.5,8.1,9.2,12,13.9l2.9,3.5c1,1.2,1.9,2.4,2.9,3.6c1.9,2.4,3.8,4.8,5.6,7.2l2.7,3.7c0.9,1.2,1.8,2.5,2.7,3.7
				c1.8,2.5,3.5,5,5.2,7.6l2.5,3.9c0.8,1.3,1.6,2.6,2.4,3.9c0.8,1.3,1.6,2.6,2.3,4l2.2,4L488,153l-2.3-3.9c-0.8-1.3-1.6-2.6-2.4-3.9
				c-0.8-1.3-1.6-2.6-2.5-3.8l-2.6-3.8c-1.8-2.5-3.5-5-5.4-7.4c-0.9-1.2-1.8-2.4-2.8-3.6l-2.8-3.6c-1.9-2.4-3.8-4.8-5.7-7.1
				c-1-1.2-1.9-2.3-2.9-3.5l-3-3.5c-4-4.6-8-9.1-12.2-13.5l1.5,0.1l-3.2,3.1l-3.1,3.3l-2.9,3.4c-1,1.1-1.9,2.4-2.9,3.5
				c-1,1.2-1.9,2.4-2.8,3.6c-0.9,1.2-1.9,2.4-2.7,3.6c-1.8,2.4-3.6,4.9-5.3,7.4c-0.9,1.2-1.8,2.5-2.6,3.7l-2.6,3.8
				c-1.7,2.5-3.4,5-5.1,7.6c-3.3,5.1-6.6,10.2-9.8,15.4l-0.6,1l-1.1-0.3l-4-1.1c-1.3-0.4-2.7-0.8-4-1.1l-4-1c-1.3-0.3-2.7-0.7-4-1
				l-4-0.9l-4.1-0.8c-2.7-0.6-5.4-1-8.1-1.5l-4.1-0.7c-1.4-0.2-2.7-0.4-4.1-0.6c-1.4-0.2-2.7-0.4-4.1-0.5c-1.4-0.2-2.7-0.3-4.1-0.5
				c-2.7-0.3-5.5-0.5-8.2-0.7c-1.4-0.1-2.7-0.1-4.1-0.2c-1.4,0-2.8-0.1-4.1,0l1.3-2.2l26.4,52.4l-1.6-0.6c3.3-1.3,6.6-2.7,10-4
				l5-1.8c1.7-0.6,3.4-1.2,5.1-1.7c3.4-1.1,6.8-2.2,10.3-3.1l5.2-1.4l5.2-1.2c3.5-0.9,7-1.4,10.5-2.1c1.8-0.3,3.5-0.6,5.3-0.8
				c1.8-0.3,3.5-0.6,5.3-0.7l5.3-0.6l5.3-0.4c0.9-0.1,1.8-0.1,2.7-0.2l2.7-0.1c1.8-0.1,3.6-0.2,5.4-0.2l5.4,0c1.8,0,3.6,0.1,5.4,0.2
				c1.8,0,3.6,0.2,5.4,0.3l2.7,0.2l2.7,0.3c3.6,0.3,7.1,0.8,10.6,1.3c1.8,0.3,3.5,0.6,5.3,0.9c1.8,0.4,3.5,0.7,5.3,1.1
				c3.5,0.8,7,1.6,10.4,2.6c3.4,1,6.8,2.1,10.2,3.3c3.4,1.2,6.7,2.5,10,4c3.3,1.5,6.5,3,9.6,4.9l-1,0.3l26.3-52.2l0.4,0.6l-4,0
				c-1.3,0-2.7,0.1-4,0.1c-1.3,0.1-2.7,0.1-4,0.2l-4,0.3l-4,0.4c-1.3,0.1-2.7,0.3-4,0.5c-1.3,0.2-2.7,0.3-4,0.6l-4,0.6l-4,0.7
				c-1.3,0.2-2.6,0.5-4,0.8c-1.3,0.3-2.6,0.5-4,0.8c-1.3,0.3-2.6,0.6-3.9,0.9c-2.6,0.6-5.2,1.2-7.8,1.9c-2.6,0.7-5.2,1.4-7.8,2.1
				L489.1,152.6z"/>
		</g>
		<g>
			<path class="st6" d="M513,220.5l7.9-15.7l0.1,0.4c-2.8-1.7-5.8-3.2-8.8-4.5c-3-1.4-6.1-2.6-9.2-3.7c-3.1-1.1-6.3-2.2-9.5-3.1
				c-3.2-0.9-6.4-1.8-9.6-2.5c-3.2-0.7-6.5-1.4-9.8-1.9c-1.6-0.3-3.3-0.5-4.9-0.7l-2.5-0.3l-2.5-0.2c-3.3-0.4-6.6-0.5-9.9-0.7
				l-5-0.2c-1.7,0-3.3,0-5,0c-1.7,0-3.3,0.1-5,0.1c-1.7,0.1-3.3,0.1-5,0.3l-4.9,0.4c-1.6,0.2-3.3,0.4-4.9,0.6l-2.5,0.3l-2.5,0.4
				l-4.9,0.8l-4.9,1l-2.4,0.5c-0.8,0.2-1.6,0.4-2.4,0.6l-4.8,1.2c-1.6,0.4-3.2,0.9-4.8,1.4c-3.2,0.9-6.3,2-9.5,3
				c-0.8,0.3-1.6,0.5-2.3,0.8l-2.3,0.9l-4.6,1.8c-3.1,1.2-6.1,2.6-9.1,3.9l0.6-1.7l8.3,17.3l-1.9-0.6c2.7-1.4,5.4-2.6,8.2-3.8
				c2.8-1.1,5.6-2.2,8.4-3.2c2.8-1,5.7-1.9,8.6-2.7c2.9-0.8,5.8-1.6,8.7-2.2c1.5-0.3,2.9-0.6,4.4-0.9l4.4-0.8l4.4-0.7l4.5-0.6
				c3-0.3,6-0.7,8.9-0.8c3-0.2,6-0.2,9-0.3l4.5,0c1.5,0,3,0.1,4.5,0.2l2.2,0.1l2.2,0.2c1.5,0.1,3,0.2,4.5,0.4c3,0.4,5.9,0.7,8.9,1.3
				c3,0.5,5.9,1.2,8.8,1.8c1.5,0.3,2.9,0.8,4.3,1.1c1.4,0.4,2.9,0.7,4.3,1.2l4.3,1.3c1.4,0.4,2.8,1,4.2,1.5c2.8,1,5.5,2.2,8.3,3.4
				c1.4,0.6,2.7,1.2,4,1.9L513,220.5z M513.1,220.9l-4.2-1.8c-1.4-0.6-2.7-1.2-4.1-1.7c-2.8-1-5.5-2.1-8.4-3
				c-1.4-0.4-2.8-0.9-4.2-1.3l-4.3-1.2c-1.4-0.4-2.9-0.7-4.3-1.1c-1.4-0.3-2.9-0.7-4.3-1c-2.9-0.5-5.8-1.1-8.7-1.5
				c-2.9-0.5-5.8-0.7-8.8-1c-1.5-0.1-2.9-0.2-4.4-0.3l-2.2-0.1l-2.2-0.1c-1.5,0-2.9-0.1-4.4-0.1l-4.4,0c-2.9,0.1-5.9,0.2-8.8,0.5
				c-1.5,0.1-2.9,0.2-4.4,0.4c-1.5,0.2-2.9,0.3-4.4,0.5l-4.4,0.6l-4.4,0.7l-4.3,0.8l-4.3,0.9l-4.3,1l-4.3,1.1
				c-2.8,0.8-5.6,1.6-8.4,2.6c-2.8,0.9-5.6,1.9-8.3,3c-2.7,1.1-5.5,2.3-8,3.5l-1.3,0.7l-0.6-1.3l-8-17.4l-0.6-1.2l1.2-0.5
				c3.1-1.3,6.2-2.6,9.3-3.8l4.7-1.7l2.4-0.9c0.8-0.3,1.6-0.5,2.4-0.8c3.2-1,6.4-2.1,9.6-2.9c1.6-0.4,3.2-0.9,4.8-1.3l4.9-1.1
				c0.8-0.2,1.6-0.4,2.4-0.6l2.5-0.5l4.9-0.9l5-0.7l2.5-0.4l2.5-0.3c1.7-0.2,3.3-0.4,5-0.5l5-0.4c1.7-0.1,3.3-0.1,5-0.2
				c1.7-0.1,3.3-0.1,5-0.1c1.7,0,3.3,0,5,0l5,0.2c3.3,0.2,6.7,0.5,10,0.9l2.5,0.3l2.5,0.4c1.7,0.2,3.3,0.5,4.9,0.8
				c3.3,0.6,6.6,1.3,9.8,2c3.2,0.8,6.5,1.6,9.7,2.6c3.2,1,6.3,2.1,9.5,3.2c3.1,1.2,6.2,2.5,9.2,3.9c3,1.4,6,2.9,8.8,4.7l0.2,0.1
				l-0.1,0.2L513.1,220.9z"/>
		</g>
		<g>
			<path class="st6" d="M334.5,141.6l10.5-21.4l0.5,1.1l-24.4-6.5l1.5-0.7l-4.3,11.2c-0.7,1.9-1.4,3.7-2.2,5.6
				c-0.8,1.9-1.6,3.7-2.4,5.5l-1-2c1.8,0.6,3.7,1.1,5.5,1.7c1.8,0.6,3.7,1.1,5.5,1.7c1.8,0.6,3.7,1.2,5.5,1.8
				C331,140.3,332.8,140.9,334.5,141.6z M334.6,141.9c-1.9-0.3-3.8-0.7-5.7-1c-1.9-0.4-3.8-0.7-5.7-1.1c-1.9-0.4-3.8-0.8-5.7-1.2
				c-1.9-0.4-3.8-0.9-5.6-1.3l-1.6-0.4l0.6-1.6c0.7-1.9,1.4-3.7,2.2-5.6c0.7-1.9,1.6-3.7,2.3-5.5l4.8-11l0.4-1l1,0.3l24.1,7.4
				l0.9,0.3l-0.4,0.8L334.7,142L334.6,141.9z"/>
		</g>
		<g>
			<path class="st6" d="M444.2,94.4l8.5-7.5l4.3-3.8l2.2-1.9c0.8-0.6,1.5-1.2,2.3-1.8l-0.1,1.2L443,64.2l1.7,0l-8.6,8.6
				c-1.4,1.4-2.9,2.9-4.3,4.3c-1.5,1.4-2.9,2.8-4.4,4.1l-0.1-2.3c1.5,1.2,3,2.4,4.5,3.6c1.5,1.2,3,2.5,4.4,3.7
				c1.5,1.3,2.9,2.6,4.3,3.9c0.7,0.7,1.4,1.4,2,2.1c0.3,0.4,0.7,0.7,1,1.1l0.5,0.6L444.2,94.4z M444.1,94.9l-0.6-0.6l-0.5-0.5
				c-0.3-0.3-0.7-0.6-1.1-0.9c-0.8-0.6-1.5-1.1-2.3-1.7l-4.7-3.3l-9.4-6.6l-1.4-1l1.3-1.3c1.4-1.4,2.9-2.9,4.3-4.3
				c1.5-1.4,3-2.8,4.4-4.2l9-8.2l0.9-0.8l0.8,0.8l17.7,17.2l0.7,0.7l-0.8,0.5c-0.7,0.5-1.5,1.1-2.3,1.6l-2.3,1.7l-4.5,3.5
				L444.1,94.9z"/>
		</g>
		<g>
			<path class="st6" d="M552.8,142.3c3.7-1.3,7.3-2.6,11-3.8c1.9-0.6,3.7-1.2,5.6-1.8c0.9-0.3,1.9-0.6,2.8-0.8
				c0.5-0.1,1-0.3,1.4-0.4c0.5-0.1,1-0.2,1.5-0.3l-0.7,0.9c-1.2-3.9-2.6-7.9-4.1-11.7c-1.5-3.8-3.2-7.6-5.2-11.2l1.4,0.6
				c-1.9,0.6-3.9,1.3-5.8,2c-1.9,0.7-3.8,1.4-5.7,2.1l-2.9,1.1l-2.8,1.1l-2.8,1.1c-0.9,0.4-1.9,0.8-2.8,1.2l0.7-1.9
				c0.7,1.8,1.5,3.6,2.2,5.4c0.7,1.8,1.5,3.6,2.1,5.5c0.7,1.8,1.4,3.7,2,5.5C551.6,138.7,552.3,140.5,552.8,142.3z M552.6,142.6
				c-1-1.7-1.9-3.4-2.9-5.1c-0.9-1.7-1.8-3.5-2.7-5.2c-0.9-1.7-1.8-3.5-2.6-5.3c-0.9-1.8-1.7-3.5-2.5-5.3l-0.6-1.3l1.3-0.7
				c1.9-0.9,3.8-1.8,5.7-2.5c1.9-0.8,3.9-1.4,5.8-2.1c2-0.7,3.9-1.3,5.9-1.9c2-0.6,3.9-1.2,5.9-1.8l1-0.3l0.4,0.8
				c2,3.8,3.5,7.7,4.9,11.7c1.4,4,2.6,8,3.7,12l0.2,0.8l-0.9,0.1c-0.4,0-0.9,0.1-1.4,0.2c-0.5,0.1-0.9,0.2-1.4,0.3
				c-0.9,0.2-1.9,0.5-2.8,0.7c-1.9,0.5-3.8,1-5.7,1.5c-3.8,1.1-7.5,2.2-11.3,3.3l-0.1,0L552.6,142.6z"/>
		</g>
	</g>
</g>
<g id="people">
	<path class="st4" d="M350.4,357.7L350.4,357.7c-27.2,0-49.3,22.1-49.3,49.3v28.2c0,3.7,22.1,6.7,49.3,6.7s49.3-3,49.3-6.7V407
		C399.7,379.8,377.6,357.7,350.4,357.7z"/>
	<path class="st4" d="M534.4,357.7L534.4,357.7c-27.2,0-49.3,22.1-49.3,49.3v28.2c0,3.7,22.1,6.7,49.3,6.7s49.3-3,49.3-6.7V407
		C583.7,379.8,561.6,357.7,534.4,357.7L534.4,357.7z"/>
	<path class="st7" d="M448,359.7L448,359.7c-34.5,0-62.5,28-62.5,62.5V458c0,4.7,28,8.5,62.5,8.5s62.5-3.8,62.5-8.5v-35.7
		C510.5,387.7,482.5,359.7,448,359.7C448,359.7,448,359.7,448,359.7z"/>
	<path class="st4" d="M455.3,261.4c-20.5,0-35.3,16-35.3,38c0,23.9,16.8,45.7,35.3,45.7s35.3-21.8,35.3-45.7
		C490.6,277.4,475.8,261.4,455.3,261.4z"/>
	<path class="st4" d="M350.4,279.1c-16.2,0-27.9,12.6-27.9,30c0,18.9,13.3,36.1,27.9,36.1s27.9-17.2,27.9-36.1
		C378.3,291.7,366.6,279.1,350.4,279.1z"/>
	<path class="st4" d="M534.4,279.1c-16.2,0-27.9,12.6-27.9,30c0,18.9,13.3,36.1,27.9,36.1s27.9-17.2,27.9-36.1
		C562.3,291.7,550.6,279.1,534.4,279.1z"/>
	<g>
		<g>
			<path class="st6" d="M544.2,364.7c2.2,0,4.4,0.3,6.6,0.6c1.1,0.2,2.2,0.4,3.2,0.6c1.1,0.3,2.2,0.5,3.2,0.8c1,0.3,2.1,0.6,3.2,1
				c1,0.4,2.1,0.8,3.1,1.2l3,1.4c1,0.5,1.9,1.1,2.9,1.6l0.7,0.4l0.7,0.5l1.4,0.9l1.4,0.9l1.3,1.1c0.8,0.7,1.8,1.4,2.5,2.2l2.4,2.4
				c0.2,0.2,0.4,0.4,0.6,0.6l0.5,0.6l1.1,1.3c0.7,0.9,1.5,1.7,2,2.7c1.2,1.9,2.5,3.7,3.5,5.7c2,4,3.4,8.3,4.4,12.6
				c0.3,1.1,0.5,2.2,0.7,3.3l0.5,3.3l0.4,3.3l0.3,3.3l0.8,26.3l0,0.4l-0.1,0.2c-0.4,0.6-0.6,0.7-0.8,1c-0.3,0.2-0.5,0.4-0.8,0.6
				c-0.5,0.3-1,0.7-1.5,0.9c-1,0.5-2.1,0.9-3.1,1.3c-1,0.3-2.1,0.7-3.2,0.9l-1.6,0.4l-1.6,0.3l-1.6,0.3l-1.6,0.3
				c-1.1,0.2-2.1,0.4-3.2,0.5c-2.1,0.3-4.3,0.5-6.4,0.7c-2.1,0.2-4.3,0.3-6.4,0.4c-2.1,0.1-4.3,0.2-6.4,0.2
				c-2.1,0.1-4.3,0.1-6.4,0.1c-2.1,0-4.3,0-6.4,0l-6.3-0.1l-6.4-0.2l-6.4-0.3l-6.4-0.5c-2.1-0.2-4.3-0.4-6.4-0.7
				c-2.1-0.2-4.3-0.6-6.4-0.9c-2.1-0.4-4.3-0.8-6.4-1.4c-1.1-0.3-2.1-0.6-3.2-1c-0.5-0.2-1.1-0.4-1.6-0.6c-0.3-0.1-0.6-0.2-0.8-0.4
				c-0.1-0.1-0.3-0.1-0.4-0.2c-0.2-0.1-0.3-0.1-0.6-0.4l-0.9-0.7l0-1.2c0-4.4,0.1-8.9,0.2-13.3l0.3-13.3l0.2-6.7l0.1-1.7l0-0.8
				c0-0.3,0-0.6,0.1-0.9c0.1-1.2,0.3-2.4,0.5-3.5c0.9-4.6,2.5-9,4.8-13c1.1-2,2.4-4,3.8-5.8c0.7-0.9,1.5-1.8,2.2-2.7
				c0.8-0.8,1.6-1.7,2.4-2.4l1.3-1.2c0.4-0.4,0.9-0.7,1.3-1.1c0.9-0.7,1.8-1.4,2.7-2.1c0.9-0.7,1.9-1.2,2.9-1.9c1-0.6,2-1.1,3-1.6
				l3.1-1.4l3.2-1.2l3.2-1c1.1-0.3,2.2-0.6,3.3-0.9c1.1-0.3,2.2-0.5,3.3-0.7c1.1-0.2,2.2-0.4,3.3-0.6c2.2-0.4,4.4-0.5,6.6-0.7
				l0.1,0.4c-2.2,0.4-4.4,0.8-6.5,1.3c-1.1,0.2-2.1,0.5-3.2,0.8c-1.1,0.3-2.1,0.6-3.2,0.9c-1,0.4-2.1,0.7-3.1,1.1l-3,1.2l-3,1.4
				l-2.9,1.6c-0.9,0.6-1.9,1.1-2.7,1.7c-0.9,0.6-1.8,1.2-2.6,1.9c-0.8,0.7-1.7,1.3-2.5,2.1c-0.4,0.4-0.8,0.7-1.2,1.1l-1.1,1.1
				c-0.8,0.7-1.4,1.6-2.1,2.4c-0.6,0.8-1.3,1.7-1.9,2.5c-1.3,1.7-2.3,3.6-3.3,5.4c-1.9,3.8-3.3,7.9-4,12c-0.2,1-0.3,2.1-0.4,3.1
				c0,0.3,0,0.4,0,0.7l0,0.8l0,1.7l0,6.7l-0.2,13.3c0,4.4-0.1,8.9-0.3,13.3l-0.9-1.9c-0.1-0.1,0,0,0.1,0c0.1,0,0.2,0.1,0.3,0.1
				c0.2,0.1,0.4,0.2,0.6,0.3c0.4,0.2,0.9,0.4,1.3,0.5c0.9,0.3,1.9,0.6,2.9,0.9c2,0.6,4,1,6,1.4c2,0.4,4.1,0.7,6.2,1
				c2.1,0.3,4.1,0.5,6.2,0.8c2.1,0.2,4.2,0.4,6.3,0.6l6.3,0.4l6.3,0.3l6.3,0.2c2.1,0.1,4.2,0.1,6.3,0.1c2.1,0,4.2,0.1,6.3,0
				c2.1,0,4.2,0,6.3-0.1c2.1-0.1,4.2-0.1,6.3-0.3c2.1-0.1,4.2-0.3,6.3-0.5c1-0.1,2.1-0.3,3.1-0.4l1.5-0.2l1.5-0.3l1.5-0.3l1.5-0.4
				c1-0.2,2-0.5,3-0.8c1-0.3,1.9-0.7,2.8-1.1c0.5-0.2,0.8-0.5,1.2-0.7c0.2-0.1,0.4-0.3,0.5-0.4l0.2-0.2l0-0.1l0,0c0,0,0,0.1,0,0.1
				l-0.1,0.6l-0.3-26.3l-0.2-3.2l-0.3-3.2l-0.4-3.2c-0.2-1.1-0.4-2.1-0.6-3.2c-0.9-4.2-2.2-8.4-4-12.3c-0.9-1.9-2.1-3.7-3.2-5.6
				c-0.5-1-1.3-1.8-1.9-2.6l-1-1.3l-0.5-0.6c-0.2-0.2-0.4-0.4-0.6-0.6l-2.2-2.3c-0.8-0.8-1.6-1.4-2.4-2.2l-1.2-1.1l-1.3-0.9
				l-1.3-0.9l-0.7-0.5l-0.7-0.4c-0.9-0.5-1.9-1.1-2.8-1.6l-2.9-1.4c-1-0.5-2-0.8-3-1.3c-1-0.4-2.1-0.7-3.1-1.1
				c-1-0.4-2.1-0.6-3.1-0.9c-1.1-0.3-2.1-0.5-3.2-0.7c-2.1-0.4-4.3-0.7-6.5-0.8L544.2,364.7z"/>
		</g>
		<g>
			<path class="st6" d="M360,364.2c2.2,0,4.4,0.3,6.6,0.6c1.1,0.2,2.2,0.4,3.3,0.6c1.1,0.3,2.2,0.5,3.2,0.8c2.1,0.6,4.2,1.4,6.3,2.3
				l3,1.4l2.9,1.6c0.5,0.3,1,0.6,1.4,0.9l1.4,0.9l1.4,0.9l1.3,1.1c0.8,0.7,1.8,1.4,2.5,2.2l2.4,2.4c0.4,0.4,0.8,0.8,1.1,1.3l1.1,1.3
				c0.7,0.9,1.4,1.7,2,2.7c1.2,1.9,2.5,3.7,3.5,5.8c2,4,3.3,8.3,4.4,12.7c0.3,1.1,0.5,2.2,0.7,3.3l0.5,3.3l0.4,3.3l0.3,3.3l0.8,26.4
				l0,0.4l-0.1,0.2c-0.4,0.6-0.6,0.7-0.8,1c-0.3,0.2-0.5,0.4-0.8,0.6c-0.5,0.3-1,0.7-1.5,0.9c-1,0.5-2.1,0.9-3.1,1.3
				c-1,0.3-2.1,0.7-3.2,0.9l-1.6,0.4l-1.6,0.3l-1.6,0.3l-1.6,0.3c-1.1,0.2-2.1,0.4-3.2,0.5c-2.1,0.3-4.3,0.5-6.4,0.7
				c-2.1,0.2-4.3,0.3-6.4,0.4c-2.1,0.1-4.3,0.2-6.4,0.2c-2.1,0.1-4.3,0.1-6.4,0.1c-2.1,0-4.3,0-6.4,0l-6.4-0.1l-6.4-0.2l-6.4-0.3
				l-6.4-0.5c-2.1-0.2-4.3-0.4-6.4-0.7c-2.1-0.2-4.3-0.6-6.4-0.9c-2.1-0.4-4.3-0.8-6.4-1.4c-1.1-0.3-2.1-0.6-3.2-1
				c-0.5-0.2-1.1-0.4-1.6-0.6c-0.3-0.1-0.6-0.2-0.8-0.4c-0.1-0.1-0.3-0.1-0.4-0.2c-0.2-0.1-0.3-0.1-0.6-0.4l-0.9-0.7l0-1.2
				c0-4.5,0.1-8.9,0.2-13.4l0.3-13.4l0.2-6.7l0.1-1.7c0-0.6,0-1.1,0.1-1.8c0.1-1.2,0.3-2.4,0.5-3.5c0.9-4.6,2.5-9,4.7-13.1
				c1.1-2,2.4-4,3.8-5.8c1.4-1.9,3-3.6,4.6-5.1c0.8-0.8,1.7-1.6,2.6-2.3c0.9-0.7,1.8-1.4,2.7-2.1c0.9-0.7,1.9-1.3,2.9-1.9
				c1-0.6,2-1.1,3-1.7c1-0.5,2.1-1,3.1-1.5l3.2-1.3l3.2-1.1c1.1-0.3,2.2-0.6,3.3-0.9c1.1-0.3,2.2-0.5,3.3-0.7
				c1.1-0.2,2.2-0.4,3.3-0.6c2.2-0.4,4.5-0.5,6.7-0.7l0.1,0.4c-2.2,0.4-4.4,0.8-6.5,1.3c-1.1,0.2-2.2,0.5-3.2,0.8
				c-1.1,0.3-2.1,0.6-3.2,1c-1,0.4-2.1,0.7-3.1,1.1l-3,1.3l-3,1.4c-1,0.5-1.9,1-2.9,1.6c-0.9,0.6-1.9,1.1-2.7,1.7
				c-0.9,0.6-1.8,1.2-2.6,1.9c-0.8,0.7-1.7,1.3-2.5,2.1c-0.8,0.7-1.6,1.5-2.3,2.2c-0.8,0.8-1.4,1.6-2.1,2.4
				c-0.7,0.9-1.3,1.7-1.9,2.6c-1.2,1.7-2.3,3.6-3.3,5.5c-1.9,3.8-3.2,7.9-3.9,12.1c-0.2,1-0.3,2.1-0.4,3.1c0,0.4,0,1,0,1.6l0,1.7
				l-0.1,6.7l-0.2,13.4c0,4.5-0.1,8.9-0.3,13.4l-0.9-1.9c-0.1-0.1,0,0,0.1,0c0.1,0,0.2,0.1,0.3,0.1c0.2,0.1,0.4,0.2,0.6,0.3
				c0.4,0.2,0.9,0.4,1.3,0.5c0.9,0.3,1.9,0.6,2.9,0.9c1.9,0.6,4,1,6,1.4c2,0.4,4.1,0.7,6.2,1c2.1,0.3,4.1,0.5,6.2,0.8
				c2.1,0.2,4.2,0.4,6.3,0.6l6.3,0.5l6.3,0.3l6.3,0.2c2.1,0.1,4.2,0.1,6.3,0.1c2.1,0,4.2,0.1,6.3,0c2.1,0,4.2,0,6.3-0.1
				c2.1-0.1,4.2-0.1,6.3-0.3c2.1-0.1,4.2-0.3,6.3-0.5c1-0.1,2.1-0.3,3.1-0.4l1.5-0.2l1.5-0.3l1.5-0.3l1.5-0.4c1-0.2,2-0.5,2.9-0.8
				c0.9-0.3,1.9-0.7,2.8-1.1c0.5-0.2,0.8-0.5,1.2-0.7c0.2-0.1,0.4-0.3,0.5-0.4l0.2-0.2l0-0.1l0,0c0,0,0,0.1,0,0.1l-0.1,0.6
				l-0.3-26.4l-0.2-3.3l-0.3-3.2l-0.4-3.2c-0.2-1.1-0.4-2.1-0.6-3.2c-0.9-4.2-2.1-8.4-3.9-12.4c-0.9-2-2.1-3.8-3.2-5.6
				c-0.5-1-1.2-1.8-1.9-2.6l-1-1.3c-0.3-0.4-0.7-0.9-1-1.2l-2.2-2.4c-0.7-0.8-1.6-1.4-2.4-2.2l-1.2-1.1l-1.3-1l-1.3-1
				c-0.4-0.3-0.9-0.6-1.4-0.9l-2.8-1.7l-2.9-1.5c-2-0.9-4-1.7-6.1-2.4c-1-0.4-2.1-0.6-3.2-0.9c-1.1-0.3-2.1-0.5-3.2-0.7
				c-2.2-0.4-4.3-0.7-6.5-0.8L360,364.2z"/>
		</g>
		<g>
			<path class="st6" d="M443.5,352.8c2.8,0,5.6,0.4,8.4,0.8c2.8,0.5,5.5,1.1,8.2,1.9c5.4,1.6,10.6,3.8,15.4,6.7
				c2.4,1.5,4.7,3,6.9,4.8c2.2,1.8,4.3,3.7,6.2,5.8c1.9,2.1,3.7,4.3,5.3,6.6c0.4,0.6,0.8,1.2,1.2,1.8l1.1,1.8l0.5,0.9
				c0.2,0.3,0.4,0.6,0.5,0.9c0.4,0.6,0.7,1.3,1,1.9c2.5,5.1,4.2,10.5,5.5,16c0.3,1.4,0.6,2.8,0.9,4.1l0.7,4.2l0.5,4.2l0.3,4.2
				l1,33.5l0,0.4l-0.2,0.3c-0.4,0.7-0.7,0.9-1,1.2c-0.3,0.3-0.6,0.5-0.9,0.7c-0.3,0.2-0.6,0.4-0.9,0.6c-0.3,0.2-0.6,0.4-1,0.5
				c-1.3,0.7-2.6,1.2-3.9,1.6c-1.3,0.4-2.6,0.9-4,1.2l-2,0.5l-2,0.4l-2,0.4l-2,0.3c-1.3,0.2-2.7,0.5-4,0.6l-4,0.5
				c-1.3,0.2-2.7,0.2-4,0.4c-1.3,0.1-2.7,0.2-4,0.3l-4,0.2c-2.7,0.2-5.4,0.2-8.1,0.3l-4,0.1l-4,0c-2.7,0-5.4,0-8.1,0l-8-0.1
				l-8.1-0.3l-8.1-0.4c-2.7-0.2-5.4-0.4-8.1-0.6c-2.7-0.3-5.4-0.5-8.1-0.8c-2.7-0.3-5.4-0.7-8.1-1.2c-2.7-0.5-5.4-1-8.1-1.7
				c-1.3-0.3-2.7-0.7-4-1.2c-0.7-0.2-1.3-0.5-2-0.8c-0.3-0.1-0.7-0.3-1-0.5c-0.2-0.1-0.3-0.2-0.6-0.3c-0.2-0.1-0.3-0.2-0.7-0.4
				l-1-0.7l0-1.4l0.1-8.4l0.2-8.4l0.4-16.9l0.2-8.4l0.1-2.1c0-0.7,0-1.4,0.1-2.2c0.1-1.5,0.3-3,0.6-4.4c1.1-5.8,3.1-11.4,5.9-16.5
				c1.4-2.6,3-5,4.8-7.3c0.9-1.2,1.8-2.3,2.8-3.4c1-1.1,2-2.1,3.1-3.1c1.1-1,2.1-2,3.3-2.9c1.1-0.9,2.3-1.8,3.5-2.6l0.9-0.6l0.9-0.6
				l1.8-1.2c1.2-0.8,2.5-1.4,3.8-2.1c1.3-0.6,2.6-1.2,3.9-1.9l4-1.6l4.1-1.4c1.4-0.4,2.7-0.8,4.1-1.1c1.4-0.4,2.8-0.6,4.2-0.9
				c1.4-0.3,2.8-0.5,4.2-0.8c2.8-0.5,5.6-0.7,8.4-1l0.1,0.5c-2.8,0.5-5.5,1-8.3,1.6c-1.4,0.3-2.7,0.6-4.1,1c-1.3,0.4-2.7,0.7-4,1.2
				c-1.3,0.5-2.6,0.9-3.9,1.4l-3.9,1.6l-3.8,1.8c-1.2,0.7-2.4,1.3-3.6,2c-1.2,0.7-2.4,1.4-3.5,2.2l-1.7,1.2l-0.8,0.6l-0.8,0.6
				c-1.1,0.8-2.2,1.7-3.2,2.6c-1,0.9-2,1.9-3,2.8c-1,1-1.8,2-2.7,3c-0.8,1.1-1.7,2.1-2.5,3.2c-1.6,2.2-3,4.5-4.2,7
				c-2.4,4.8-4.1,10.1-5,15.4c-0.2,1.3-0.4,2.7-0.5,3.9c0,0.5,0,1.3,0,2l0,2.1l-0.1,8.4l-0.2,16.9l-0.1,8.4l-0.2,8.4l-1-2.1
				c-0.1-0.1,0.1,0,0.2,0.1c0.1,0.1,0.2,0.1,0.3,0.2c0.2,0.1,0.5,0.2,0.8,0.4c0.5,0.2,1.1,0.5,1.7,0.7c1.2,0.4,2.4,0.8,3.6,1.1
				c2.5,0.7,5.1,1.2,7.6,1.7c2.6,0.5,5.2,0.9,7.8,1.3c2.6,0.4,5.3,0.7,7.9,1c2.6,0.3,5.3,0.5,7.9,0.8l8,0.6l8,0.4l8,0.3
				c2.7,0.1,5.3,0.1,8,0.2l4,0.1l4,0c2.7,0,5.3,0,8-0.2l4-0.2c1.3-0.1,2.6-0.2,4-0.3c1.3-0.1,2.7-0.2,4-0.3l4-0.4
				c1.3-0.1,2.6-0.3,3.9-0.5l2-0.3l1.9-0.4l1.9-0.4l1.9-0.5c1.3-0.3,2.5-0.7,3.7-1c1.2-0.4,2.4-0.9,3.5-1.4c0.3-0.1,0.6-0.3,0.8-0.4
				c0.2-0.2,0.5-0.3,0.8-0.5c0.2-0.2,0.5-0.3,0.6-0.5l0.3-0.2l0.1-0.1l0,0c0,0,0,0.1,0,0.1l-0.1,0.7l-0.5-33.4l-0.2-4.1l-0.4-4.1
				l-0.6-4.1c-0.3-1.4-0.5-2.7-0.8-4.1c-1.1-5.4-2.7-10.7-5-15.7c-0.3-0.6-0.6-1.2-0.9-1.8c-0.2-0.3-0.3-0.6-0.5-0.9l-0.5-0.9
				l-1-1.8c-0.3-0.6-0.7-1.2-1.1-1.7c-1.5-2.3-3.2-4.5-5-6.5c-1.8-2.1-3.8-4-5.9-5.8c-2.1-1.8-4.3-3.4-6.7-4.9
				c-4.7-3-9.8-5.2-15-6.9c-2.6-0.8-5.3-1.5-8.1-2c-2.7-0.5-5.5-0.9-8.2-1L443.5,352.8z"/>
		</g>
		<g>
			<path class="st6" d="M543.7,285.4c3,0.2,5.8,0.9,8.6,1.9c2.8,1,5.4,2.4,7.8,4.2c2.4,1.8,4.5,3.9,6.2,6.4c1.7,2.5,3,5.2,3.9,8.1
				c0.9,2.9,1.4,5.8,1.6,8.8c0.2,1.5,0.1,3,0.2,4.5l-0.1,2.2l0,0.6l0,0.3l0,0.3l-0.2,1.1c-0.5,3-1.3,5.8-2.3,8.7
				c-1,2.8-2.2,5.6-3.7,8.2c-1.5,2.6-3.4,5.1-5.6,7.2c-2.2,2.1-4.9,3.9-7.8,5.1c-2.9,1.2-6.1,1.8-9.1,1.8c-3.2,0.1-6.4-0.6-9.3-1.9
				c-2.9-1.3-5.5-3.1-7.8-5.3c-2.3-2.2-4.2-4.6-5.8-7.2c-1.7-2.6-3-5.3-4.2-8.1c-1.2-2.8-2.2-5.6-2.9-8.7l0-0.1l0-0.1
				c-0.1-1.3-0.2-2.3-0.2-3.5c0-1.1,0-2.3,0.1-3.4c0.2-2.3,0.5-4.5,0.9-6.8c0.2-1.1,0.5-2.2,0.9-3.3l0.5-1.6l0.6-1.6
				c0.5-1.1,0.9-2.1,1.5-3.1c0.3-0.5,0.6-1,0.9-1.5c0.3-0.5,0.6-1,1-1.4c0.7-1,1.4-1.8,2.2-2.7l1.2-1.2l1.3-1.1
				c0.4-0.4,0.9-0.7,1.4-1c0.5-0.3,1-0.6,1.5-0.9c1-0.6,2-1.1,3.1-1.5c0.5-0.2,1.1-0.4,1.6-0.6l0.8-0.3l0.8-0.2l1.6-0.4l1.7-0.3
				c1.1-0.2,2.2-0.2,3.3-0.3c1.1,0,2.2,0,3.3,0l0,0.4c-1.1,0.2-2.2,0.3-3.2,0.5c-1.1,0.2-2.1,0.4-3.1,0.7l-1.5,0.4l-1.5,0.6
				l-0.7,0.3l-0.7,0.3l-1.4,0.7c-0.9,0.5-1.8,1-2.6,1.7c-0.4,0.3-0.8,0.6-1.2,0.9c-0.4,0.3-0.8,0.6-1.2,1l-1.1,1.1l-1,1.2
				c-0.6,0.8-1.2,1.6-1.8,2.5c-0.3,0.4-0.5,0.9-0.8,1.3c-0.2,0.5-0.5,0.9-0.7,1.4c-0.4,0.9-0.8,1.9-1.2,2.9L519,306l-0.4,1.5
				c-0.2,1-0.5,2-0.6,3c-0.3,2-0.5,4.1-0.6,6.2c0,1,0,2.1,0,3.1c0,1,0.1,2.1,0.2,3l0-0.2c0.7,2.6,1.6,5.3,2.7,7.9
				c1.1,2.6,2.3,5.1,3.7,7.5c1.4,2.4,3.1,4.6,5,6.6c0.9,1,2,1.9,3,2.7c1.1,0.8,2.2,1.5,3.4,2.1c2.4,1.2,5,1.8,7.6,1.8
				c2.8,0,5.4-0.4,8-1.3c2.5-0.9,4.9-2.4,6.9-4.3c2.1-1.8,3.8-4.1,5.3-6.4c2.9-4.8,4.9-10.3,6.1-15.8l0.2-1l0-0.2l0-0.3l0-0.5
				l0.2-2.1c0-1.4,0.1-2.9,0-4.3c-0.1-2.8-0.5-5.7-1.2-8.4c-0.8-2.7-1.9-5.4-3.4-7.8c-1.5-2.4-3.5-4.5-5.7-6.3
				c-2.2-1.8-4.8-3.2-7.4-4.3c-2.7-1.1-5.5-1.9-8.4-2.2L543.7,285.4z"/>
		</g>
		<g>
			<path class="st6" d="M359.9,285.4c3,0.2,5.8,0.9,8.6,1.9c2.8,1,5.4,2.4,7.8,4.2c2.4,1.8,4.5,3.9,6.2,6.4c1.7,2.5,3,5.2,3.9,8.1
				c0.9,2.9,1.4,5.8,1.6,8.8c0.2,1.5,0.1,3,0.2,4.5l-0.1,2.2l0,0.6l0,0.3l0,0.3l-0.2,1.1c-0.5,3-1.3,5.8-2.3,8.7
				c-1,2.8-2.2,5.6-3.7,8.2c-1.5,2.6-3.4,5.1-5.6,7.2c-2.2,2.1-4.9,3.9-7.8,5.1c-2.9,1.2-6.1,1.8-9.1,1.8c-3.2,0.1-6.4-0.6-9.3-1.9
				c-2.9-1.3-5.5-3.1-7.8-5.3c-2.3-2.2-4.2-4.6-5.8-7.2c-1.7-2.6-3-5.3-4.2-8.1c-1.2-2.8-2.2-5.6-2.9-8.7l0-0.1l0-0.1
				c-0.1-1.3-0.2-2.3-0.2-3.5c0-1.1,0-2.3,0.1-3.4c0.2-2.3,0.5-4.5,0.9-6.8c0.2-1.1,0.5-2.2,0.9-3.3l0.5-1.6l0.6-1.6
				c0.5-1.1,0.9-2.1,1.5-3.1c0.3-0.5,0.6-1,0.9-1.5c0.3-0.5,0.6-1,1-1.4c0.7-1,1.4-1.8,2.2-2.7l1.2-1.2l1.3-1.1
				c0.4-0.4,0.9-0.7,1.4-1c0.5-0.3,1-0.6,1.5-0.9c1-0.6,2-1.1,3.1-1.5c0.5-0.2,1.1-0.4,1.6-0.6l0.8-0.3l0.8-0.2l1.6-0.4l1.7-0.3
				c1.1-0.2,2.2-0.2,3.3-0.3c1.1,0,2.2,0,3.3,0l0,0.4c-1.1,0.2-2.2,0.3-3.2,0.5c-1.1,0.2-2.1,0.4-3.1,0.7l-1.5,0.4l-1.5,0.6
				l-0.7,0.3l-0.7,0.3l-1.4,0.7c-0.9,0.5-1.8,1-2.6,1.7c-0.4,0.3-0.8,0.6-1.2,0.9c-0.4,0.3-0.8,0.6-1.2,1l-1.1,1.1l-1,1.2
				c-0.6,0.8-1.2,1.6-1.8,2.5c-0.3,0.4-0.5,0.9-0.8,1.3c-0.2,0.5-0.5,0.9-0.7,1.4c-0.4,0.9-0.8,1.9-1.2,2.9l-0.5,1.5l-0.4,1.5
				c-0.2,1-0.5,2-0.6,3c-0.3,2-0.5,4.1-0.6,6.2c0,1,0,2.1,0,3.1c0,1,0.1,2.1,0.2,3l0-0.2c0.7,2.6,1.6,5.3,2.7,7.9
				c1.1,2.6,2.3,5.1,3.7,7.5c1.4,2.4,3.1,4.6,5,6.6c0.9,1,2,1.9,3,2.7c1.1,0.8,2.2,1.5,3.4,2.1c2.4,1.2,5,1.8,7.6,1.8
				c2.8,0,5.4-0.4,8-1.3c2.5-0.9,4.9-2.4,6.9-4.3c2.1-1.8,3.8-4.1,5.3-6.4c2.9-4.8,4.9-10.3,6.1-15.8l0.2-1l0-0.2l0-0.3l0-0.5
				l0.2-2.1c0-1.4,0.1-2.9,0-4.3c-0.1-2.8-0.5-5.7-1.2-8.4c-0.8-2.7-1.9-5.4-3.4-7.8c-1.5-2.4-3.5-4.5-5.7-6.3
				c-2.2-1.8-4.8-3.2-7.4-4.3c-2.7-1.1-5.5-1.9-8.4-2.2L359.9,285.4z"/>
		</g>
		<g>
			<path class="st6" d="M448.7,252.9c3.7,0.3,7.4,1.2,10.9,2.4c3.5,1.3,6.8,3.1,9.9,5.3c3,2.3,5.7,5,7.8,8.1
				c2.1,3.1,3.8,6.6,4.9,10.2c1.1,3.6,1.8,7.4,2,11.1c0.2,1.9,0.1,3.8,0.2,5.6l-0.1,2.8l0,0.7l0,0.4l0,0.2l0,0.2l-0.2,1.4
				c-0.7,3.7-1.6,7.4-2.9,10.9c-1.2,3.6-2.8,7-4.7,10.3c-2,3.3-4.2,6.4-7.1,9.1c-2.8,2.7-6.1,4.9-9.8,6.4c-3.6,1.5-7.6,2.2-11.5,2.3
				c-4.1,0.1-8-0.8-11.7-2.4c-1.8-0.8-3.5-1.8-5.2-2.9c-1.6-1.2-3.2-2.4-4.5-3.8c-2.8-2.7-5.2-5.8-7.3-9c-2.1-3.2-3.8-6.7-5.3-10.2
				c-0.7-1.8-1.4-3.5-2-5.3c-0.6-1.8-1.2-3.6-1.6-5.6l0-0.2l0-0.1c-0.2-1.6-0.2-2.9-0.2-4.4c0-1.4,0-2.9,0.1-4.3
				c0.1-1.4,0.2-2.9,0.4-4.3c0.2-1.4,0.4-2.8,0.7-4.3c0.3-1.4,0.7-2.8,1.1-4.2l0.7-2.1l0.8-2c0.6-1.3,1.2-2.7,1.9-3.9
				c0.3-0.7,0.7-1.3,1.1-1.9c0.4-0.6,0.8-1.2,1.2-1.8c0.4-0.6,0.8-1.2,1.3-1.7c0.5-0.5,0.9-1.1,1.4-1.6l1.5-1.5l1.7-1.4
				c0.5-0.5,1.2-0.9,1.8-1.3c0.6-0.4,1.2-0.8,1.8-1.2c1.2-0.8,2.6-1.3,3.9-1.9c0.7-0.3,1.3-0.5,2-0.7l1-0.4l1-0.3l2.1-0.5l2.1-0.4
				l1-0.2c0.3,0,0.7-0.1,1.1-0.1l2.1-0.2c1.4-0.1,2.8,0,4.2,0l0,0.5c-1.4,0.2-2.7,0.3-4.1,0.6l-2,0.4c-0.3,0.1-0.7,0.1-1,0.2l-1,0.3
				l-2,0.5l-1.9,0.7l-0.9,0.3l-0.9,0.4c-0.6,0.3-1.2,0.6-1.8,0.9c-1.2,0.7-2.3,1.3-3.4,2.1c-0.5,0.4-1.1,0.8-1.6,1.2
				c-0.5,0.4-1,0.8-1.5,1.3l-1.4,1.4l-1.3,1.5c-0.4,0.5-0.8,1-1.2,1.6c-0.4,0.5-0.7,1.1-1.1,1.6c-0.4,0.5-0.7,1.1-1,1.7
				c-0.3,0.6-0.6,1.1-0.9,1.7c-0.6,1.2-1,2.4-1.5,3.6l-0.6,1.9l-0.5,1.9c-0.3,1.3-0.6,2.6-0.8,3.9c-0.2,1.3-0.4,2.6-0.5,3.9
				c-0.1,1.3-0.2,2.6-0.2,4c0,1.3,0,2.7,0,4c0,1.3,0.1,2.7,0.3,3.9l0-0.3c0.9,3.3,2.1,6.8,3.5,10.1c1.4,3.3,2.9,6.5,4.8,9.5
				c1.8,3,3.9,5.9,6.3,8.4c1.2,1.3,2.5,2.4,3.9,3.4c1.4,1,2.8,1.9,4.4,2.6c3,1.5,6.5,2.3,9.8,2.3c3.5,0,6.9-0.5,10.2-1.7
				c3.2-1.2,6.2-3.1,8.8-5.5c2.6-2.3,4.8-5.2,6.7-8.2c1.9-3,3.4-6.3,4.7-9.7c1.3-3.4,2.3-6.9,3-10.4l0.2-1.3l0-0.3l0-0.3l0-0.7
				l0.2-2.7c0-1.8,0.1-3.6,0-5.4c-0.1-3.6-0.6-7.2-1.6-10.7c-1-3.5-2.4-6.8-4.3-9.9c-2-3-4.4-5.7-7.3-8c-2.8-2.3-6-4.1-9.4-5.5
				c-3.4-1.4-7-2.4-10.6-2.8L448.7,252.9z"/>
		</g>
	</g>
</g>
<g id="hand">
	<path id="_Path_6" class="st8" d="M252.3,556.1c44.4,80.3,130.2,111.9,222.4,100.5s193.2-80.8,189.4-92.1
		c-5.9-17.7-57.9,0.9-121.4,20.7C477,605.7,411,583.3,415,569.7c8.5-29.4,109.3,19.1,115.8-15.4
		C526.4,521.9,301.8,465.8,252.3,556.1z"/>
	<path id="_Path_7" class="st8" d="M583.7,565.3l52.8-14.4c0,0,34.4-25.1,27.3-38.4C651.2,488.9,587.8,552.9,583.7,565.3z"/>
	<path id="_Path_8" class="st8" d="M526,582.3l52.2-16.4c0,0,37.6-47.4,30.2-57.5C590.5,484.1,530,569.9,526,582.3z"/>
	<g>
		<g>
			<path class="st6" d="M244.1,546.5c2-4,4.7-7.7,7.6-11.1c3-3.4,6.2-6.5,9.7-9.3c3.5-2.8,7.2-5.4,11-7.8c1.9-1.1,3.9-2.3,5.9-3.3
				c1-0.5,2-1.1,3-1.6l3-1.4c8.2-3.8,16.7-6.7,25.4-8.9c8.7-2.2,17.6-3.7,26.5-4.7c2.2-0.2,4.5-0.5,6.7-0.7l6.7-0.5
				c2.2-0.1,4.5-0.2,6.7-0.3l3.4-0.1c1.1,0,2.2,0,3.4,0l6.7,0c2.2,0,4.5,0.1,6.7,0.2c4.5,0.1,9,0.5,13.5,0.7c9,0.6,17.9,1.7,26.8,3
				c8.9,1.3,17.7,3,26.5,4.9c8.8,2,17.5,4.2,26.1,6.9c8.6,2.7,17.1,5.7,25.4,9.4c2.1,0.9,4.1,1.8,6.1,2.9c1,0.5,2,1,3,1.5l3,1.6
				c2,1,3.9,2.2,5.9,3.4c1,0.6,1.9,1.2,2.9,1.8l1.4,0.9c0.2,0.2,0.5,0.3,0.8,0.5c0.3,0.2,0.5,0.4,0.7,0.5c1.9,1.5,3.6,3.2,5,5.4
				c0.7,1.1,1.2,2.3,1.5,3.7c0.2,1.4,0.1,2.9-0.4,4.2c-0.5,1.3-1.3,2.5-2.2,3.4c-0.4,0.4-0.7,0.8-1.2,1.2c-0.5,0.4-0.9,0.9-1.4,1.2
				c-1.9,1.5-4.1,2.7-6.4,3.5c-4.6,1.6-9.3,1.8-13.8,2l-1.7,0.1l-0.2,0l-0.3,0l-0.4,0l-0.8,0c-1.1,0-2.3-0.1-3.5-0.2
				c-2.3-0.2-4.5-0.4-6.8-0.6c-9-0.9-17.8-2-26.7-3c-8.9-1-17.8-2-26.7-2.6c-2.2-0.1-4.4-0.3-6.6-0.3c-1.1,0-2.1,0-3.1,0.1l-0.4,0
				l-0.3,0.1l-0.8,0.1c-0.6,0.1-1.1,0.2-1.5,0.3c-1.9,0.5-3.9,1.3-5.5,2.3c-0.8,0.6-1.6,1.2-2.3,1.9c-0.3,0.3-0.7,0.7-0.9,1.1
				c-0.1,0.2-0.3,0.4-0.4,0.6c-0.1,0.2-0.2,0.4-0.3,0.5l-0.1,0.1c0.1-0.1,0,0.1,0,0.1l-0.1,0.3c0,0.2,0,0.4-0.1,0.6
				c0,0.4,0.1,0.9,0.2,1.4c0.3,0.9,0.9,1.8,1.7,2.7c0.4,0.4,0.9,0.8,1.3,1.2c0.5,0.4,1,0.7,1.5,1.1c0.5,0.3,1.1,0.7,1.6,1l1.8,1
				c2.3,1.1,4.8,2.2,7.3,3.2c1.2,0.5,2.5,0.9,3.8,1.4l1.9,0.7l1.9,0.6c5.1,1.6,10.4,2.9,15.7,3.8l2,0.4l2,0.3l4,0.6l4,0.4l2,0.2
				l2,0.1l4,0.3l4,0.1c2.7,0.1,5.4,0,8.1,0c1.3,0,2.7-0.1,4-0.2l4-0.2c2.7-0.2,5.4-0.6,8-0.8l8.1-1.2l8-1.4l8-1.7l8-1.8l7.9-2
				c2.6-0.7,5.3-1.4,7.9-2.1c5.3-1.4,10.5-2.9,15.7-4.5c5.2-1.5,10.4-3.2,15.6-4.9c2.6-0.8,5.2-1.7,7.8-2.6l3.9-1.3
				c1.4-0.5,2.7-0.9,4-1.3c5.3-1.6,10.6-3.1,15.9-4.4c5.4-1.3,10.8-2.5,16.2-3.3c5.5-0.9,11-1.5,16.7-1.4c2.8,0,5.7,0.3,8.6,0.9
				c2.9,0.7,5.9,1.8,8.3,4.2l-0.3-0.3c0.5,0.4,0.6,0.5,0.8,0.8c0.2,0.2,0.3,0.5,0.5,0.7c0.1,0.2,0.2,0.5,0.3,0.7
				c0.1,0.2,0.1,0.5,0.2,0.7c0.1,1,0,1.9-0.2,2.7c-0.4,1.6-1.1,2.9-1.9,4c-1.6,2.3-3.4,4.1-5.3,5.9c-1,0.9-1.9,1.7-2.9,2.5l-2.9,2.4
				c-2,1.6-4,3.1-5.9,4.6c-8,6-16.3,11.7-24.7,17c-16.9,10.7-34.5,20.2-52.7,28.4c-9.1,4.1-18.4,7.8-27.8,11.2
				c-9.4,3.4-19,6.2-28.7,8.8c-9.7,2.5-19.5,4.5-29.3,6.1c-5,0.7-9.9,1.5-14.9,1.9c-2.5,0.2-5,0.6-7.5,0.7l-7.5,0.5
				c-2.5,0.2-5,0.2-7.5,0.3c-2.5,0-5,0.2-7.5,0.1c-5-0.1-10-0.1-15-0.5c-2.5-0.2-5-0.3-7.5-0.5l-7.4-0.8c-2.5-0.2-4.9-0.6-7.4-1
				c-2.5-0.4-5-0.7-7.4-1.2c-9.8-1.8-19.5-4.2-29.1-7.2c-9.5-3.1-18.8-6.9-27.7-11.3c-9-4.4-17.6-9.5-25.8-15.2
				c-8.2-5.7-15.9-12-23.2-18.9c-7.2-6.9-13.9-14.3-20-22.2c-3-4-5.9-8-8.6-12.2c-2.7-4.2-5.2-8.5-7.3-13c2.2,4.5,4.8,8.7,7.6,12.8
				c2.8,4.1,5.7,8.1,8.8,12c6.2,7.8,13,15.1,20.2,21.8c7.3,6.7,15.1,12.9,23.3,18.5c8.2,5.6,16.8,10.5,25.8,14.7
				c8.9,4.2,18.2,7.9,27.6,10.8c9.5,2.9,19.1,5.2,28.8,6.9c2.4,0.4,4.9,0.7,7.3,1.1c2.4,0.4,4.9,0.7,7.4,0.9l7.4,0.7
				c2.4,0.2,4.9,0.3,7.4,0.4c4.9,0.4,9.9,0.3,14.8,0.3c2.5,0,4.9-0.1,7.4-0.2c2.5-0.1,4.9-0.1,7.4-0.3l7.4-0.5
				c2.5-0.2,4.9-0.5,7.4-0.8c4.9-0.5,9.8-1.3,14.7-2c9.7-1.7,19.4-3.7,29-6.3c9.5-2.6,19-5.5,28.3-8.9c9.3-3.4,18.5-7.1,27.5-11.1
				c18-8.2,35.5-17.6,52.1-28.3c8.3-5.3,16.5-10.9,24.4-16.9c2-1.5,3.9-3,5.8-4.5l2.9-2.3c0.9-0.8,1.8-1.6,2.7-2.4
				c1.7-1.6,3.4-3.3,4.6-5.2c0.6-0.9,1.1-1.9,1.3-2.7c0.1-0.4,0.1-0.8,0.1-1c0-0.1,0-0.1,0-0.2c0,0,0-0.1,0-0.1c0,0,0-0.1,0-0.1
				c0,0,0,0,0,0c0,0,0,0,0.1,0.1l-0.3-0.3c-1.5-1.5-3.7-2.5-6.2-3c-2.4-0.6-5.1-0.8-7.7-0.8c-5.3,0-10.6,0.6-16,1.4
				c-5.3,0.9-10.6,2-15.9,3.3c-5.3,1.3-10.5,2.8-15.7,4.4c-1.3,0.4-2.6,0.8-3.8,1.3l-3.9,1.4c-2.6,0.9-5.2,1.8-7.8,2.6
				c-5.2,1.7-10.4,3.4-15.7,4.9c-5.2,1.6-10.5,3.1-15.8,4.5c-2.6,0.7-5.3,1.4-8,2.1l-8,2l-8,1.8l-8.1,1.6l-8.2,1.5l-8.2,1.2
				c-2.8,0.3-5.5,0.6-8.3,0.8l-4.1,0.2c-1.4,0.1-2.8,0.2-4.2,0.2c-2.8,0-5.5,0.1-8.3,0l-4.2-0.1l-4.1-0.3l-2.1-0.2l-2.1-0.2
				l-4.1-0.5l-4.1-0.6l-2.1-0.3l-2-0.4c-5.5-1-10.8-2.3-16.1-4l-2-0.6l-2-0.7c-1.3-0.4-2.6-0.9-3.9-1.4c-2.6-1-5.2-2.1-7.8-3.4
				l-1.8-1c-0.7-0.4-1.3-0.8-1.9-1.2c-0.6-0.4-1.2-0.9-1.8-1.3c-0.6-0.5-1.2-1-1.7-1.6c-1.1-1.1-2.1-2.5-2.6-4.2
				c-0.3-0.8-0.4-1.7-0.5-2.7c0-0.5,0-0.9,0.1-1.4c0-0.2,0.1-0.5,0.2-0.7c0.1-0.3,0.1-0.4,0.3-0.8l-0.1,0.1c0.2-0.5,0.4-0.7,0.6-1
				c0.2-0.3,0.4-0.6,0.6-0.8c0.4-0.5,0.8-1,1.3-1.5c0.9-0.9,1.9-1.7,2.9-2.4c2.1-1.4,4.4-2.3,6.8-2.9c0.6-0.2,1.2-0.3,1.8-0.4
				l0.8-0.1l0.5-0.1l0.5,0c1.2-0.1,2.5-0.2,3.6-0.1c2.3,0,4.6,0.2,6.8,0.3c9,0.7,17.9,1.7,26.8,2.7c8.9,1,17.8,2.1,26.7,3
				c2.2,0.2,4.5,0.4,6.6,0.6c1.1,0.1,2.1,0.2,3.2,0.2l0.8,0l0.4,0l0.1,0c0,0,0.1,0,0,0l0.2,0l1.7-0.1c4.4-0.2,8.8-0.3,12.7-1.7
				c1.9-0.7,3.7-1.6,5.3-2.9c0.4-0.3,0.7-0.6,1.1-1c0.4-0.3,0.8-0.8,1.2-1.2c0.6-0.6,1.1-1.4,1.4-2.1c0.3-0.8,0.3-1.6,0.2-2.4
				c-0.2-0.8-0.5-1.7-1-2.5c-1-1.7-2.5-3.2-4.1-4.5l-0.6-0.5c-0.2-0.1-0.4-0.3-0.6-0.4l-1.4-0.9c-0.9-0.6-1.8-1.2-2.8-1.8
				c-1.9-1.1-3.8-2.3-5.7-3.3l-2.9-1.6c-1-0.5-2-1-3-1.5c-2-1-4-1.9-6-2.9c-8.1-3.7-16.5-6.8-24.9-9.5c-8.5-2.7-17.1-5-25.8-7
				c-8.7-2-17.5-3.7-26.3-5.1c-8.8-1.4-17.7-2.6-26.6-3.2c-4.5-0.3-8.9-0.7-13.4-0.8c-2.2-0.1-4.5-0.2-6.7-0.3l-6.7-0.1
				c-1.1,0-2.2,0-3.3,0l-3.3,0.1c-2.2,0.1-4.5,0.1-6.7,0.2l-6.7,0.4c-2.2,0.1-4.4,0.4-6.7,0.6c-8.9,0.9-17.7,2.3-26.4,4.3
				c-8.7,2.1-17.2,4.8-25.4,8.5l-3,1.4c-1,0.5-2,1-3,1.5c-2,1-3.9,2.1-5.9,3.2c-3.8,2.3-7.6,4.8-11.1,7.5c-3.5,2.8-6.8,5.8-9.8,9.1
				C248.9,538.9,246.1,542.5,244.1,546.5z"/>
		</g>
		<g>
			<path class="st6" d="M519,569.5c2-3.2,4-6.4,6.1-9.5c2.1-3.2,4.2-6.3,6.4-9.4c4.3-6.2,8.7-12.4,13.3-18.4c2.3-3,4.6-6,7-9
				c2.4-3,4.8-5.9,7.3-8.8c1.3-1.4,2.6-2.8,3.9-4.2c1.3-1.4,2.7-2.8,4.1-4.1l2.1-2c0.8-0.6,1.5-1.3,2.3-1.9c1.6-1.2,3.2-2.4,5.2-3.4
				l-0.5,0.3c0.7-0.6,1.4-1,2.1-1.5c0.7-0.5,1.4-0.9,2.2-1.3c0.7-0.4,1.5-0.8,2.3-1.2c0.8-0.4,1.6-0.7,2.3-1
				c0.8-0.3,1.6-0.6,2.5-0.8c0.8-0.3,1.7-0.4,2.6-0.6c0.4-0.1,0.9-0.1,1.4-0.1c0.5-0.1,0.9-0.1,1.4-0.1c0.5,0,0.9,0,1.4,0l1.4,0.2
				c0.5,0.1,0.9,0.2,1.4,0.4l0.7,0.2l0.3,0.1l0,0l0,0l0.2,0.1l0,0l0.1,0l0.1,0.1l1.1,0.6c0.2,0.1,0.4,0.3,0.6,0.4l0.7,0.5
				c0.5,0.3,0.8,0.7,1.1,1.1l0.5,0.6l0.4,0.7c0.3,0.4,0.5,0.9,0.7,1.4c0.2,0.5,0.4,0.9,0.5,1.4c0.5,1.9,0.5,3.8,0.3,5.6
				c-0.1,0.9-0.3,1.8-0.5,2.6c-0.2,0.9-0.5,1.7-0.8,2.6l0,0.1l-0.1,0.1c-2.3,4.1-4.6,8.2-6.9,12.2c-2.3,4.1-4.8,8.1-7.3,12
				c-2.5,4-5,7.9-7.7,11.8c-1.4,1.9-2.8,3.8-4.3,5.7c-0.8,0.9-1.5,1.8-2.4,2.7c-0.4,0.4-0.9,0.9-1.4,1.3l-0.8,0.6l-0.9,0.6l-0.1,0.1
				l-0.2,0.1c-4.3,1.3-8.6,2.6-12.9,3.9c-4.3,1.3-8.6,2.6-12.9,3.8l-12.9,3.7c-4.3,1.2-8.7,2.4-13,3.6c4.2-1.6,8.4-3.2,12.6-4.7
				l12.7-4.6c4.2-1.5,8.5-3,12.7-4.5c4.2-1.5,8.5-3,12.7-4.4l-0.3,0.1c0.7-0.4,1.5-1.2,2.2-2c0.7-0.8,1.4-1.7,2.1-2.6
				c1.4-1.8,2.7-3.7,3.9-5.6c2.6-3.8,5-7.8,7.4-11.8c2.4-4,4.7-8,7-12.1c2.3-4,4.6-8.1,6.8-12.2l-0.1,0.2c0.2-0.5,0.5-1.3,0.6-2
				c0.2-0.7,0.3-1.4,0.4-2.1c0.2-1.4,0.1-2.7-0.2-3.9c0-0.3-0.2-0.6-0.3-0.8c-0.1-0.3-0.2-0.5-0.4-0.8l-0.2-0.4l-0.3-0.3
				c-0.2-0.2-0.4-0.5-0.5-0.6c-0.1-0.1-0.2-0.1-0.3-0.2c-0.1-0.1-0.1-0.2-0.3-0.3l-1.1-0.6l-0.1-0.1l-0.1,0l0,0c0,0,0.3,0.2,0.2,0.1
				l0,0l0,0l-0.2-0.1l-0.4-0.1c-0.3-0.1-0.6-0.2-0.9-0.3l-1-0.2c-0.3,0-0.7,0-1,0c-0.3,0-0.7,0-1,0c-0.3,0-0.7,0-1,0.1
				c-0.7,0.1-1.4,0.2-2.1,0.5c-0.7,0.2-1.4,0.4-2.1,0.7c-0.7,0.3-1.4,0.5-2,0.9c-0.7,0.3-1.3,0.7-2,1c-0.7,0.4-1.3,0.8-1.9,1.2
				c-0.6,0.4-1.3,0.9-1.8,1.3l-0.2,0.2l-0.3,0.1c-1.4,0.6-2.9,1.6-4.3,2.7c-0.7,0.5-1.4,1.1-2.1,1.7l-2.1,1.8
				c-1.4,1.3-2.7,2.6-4,3.9c-1.3,1.3-2.6,2.7-3.9,4.1c-2.6,2.7-5.1,5.5-7.5,8.4c-2.5,2.8-4.9,5.7-7.3,8.6c-2.4,2.9-4.8,5.8-7.1,8.8
				l-7,8.9l-7,8.9L519,569.5z"/>
		</g>
		<g>
			<path class="st6" d="M576.9,553.2c5.6-6.7,11.4-13.2,17.4-19.6c6-6.4,12.1-12.6,18.6-18.6c1.6-1.5,3.3-2.9,5-4.3l2.6-2.1l2.6-2
				c1.8-1.3,3.6-2.6,5.4-3.8c1.9-1.2,3.8-2.3,5.9-3.3c1.1-0.4,2.1-0.9,3.3-1.2l0.9-0.2l0.1,0c0,0,0,0,0.1,0l0.1,0l0.2,0l0.4-0.1
				l1.6-0.3c1-0.2,2.2-0.4,3.4-0.5l0.9-0.1l0.9,0l1.7-0.1c2.3,0.1,4.8,0.3,7.1,1.4c0.6,0.2,1.1,0.7,1.7,1.1c0.5,0.5,1,1,1.4,1.6
				c0.4,0.6,0.7,1.2,1,1.9c0.1,0.3,0.2,0.7,0.3,1.1c0.1,0.4,0.1,0.7,0.1,1.2l0-0.3c0.1,1.3,0,2.4-0.1,3.6c-0.1,1.1-0.3,2.3-0.6,3.4
				c-0.5,2.2-1.4,4.4-2.6,6.5c-1.2,2.1-2.6,3.8-4,5.5c-1.4,1.7-2.9,3.3-4.4,4.9c-1.5,1.6-3,3.1-4.6,4.6c-1.5,1.5-3.1,3-4.7,4.5
				c-1.6,1.5-3.2,2.9-5,4.3c-0.5,0.3-0.9,0.7-1.4,1c-0.5,0.3-0.9,0.7-1.7,1.1l-0.3,0.1l-0.1,0.1l-0.1,0.1l0,0l0,0l-0.4,0.1l-0.8,0.3
				l-1.7,0.5c-2.1,0.6-4.2,1.1-6.3,1.7c-2.1,0.5-4.2,1.1-6.2,1.6c-4.2,1-8.3,2.1-12.5,3.1c-4.2,1-8.4,2-12.6,2.9
				c-4.2,0.9-8.4,1.8-12.6,2.6l-0.1-0.4c4-1.5,8.1-2.8,12.2-4.2c4.1-1.3,8.2-2.7,12.3-4c4.1-1.3,8.2-2.6,12.3-3.8l6.1-1.9l6.1-1.9
				l1.4-0.5l0.7-0.3l0.4-0.1l0,0l0,0c0.1,0-0.1,0-0.1,0l0,0l0.1-0.1c0.2-0.1,0.7-0.4,1-0.7l1.2-0.9c1.6-1.3,3.2-2.7,4.7-4.1
				c1.5-1.4,3.1-2.9,4.7-4.3c1.5-1.5,3.1-3,4.5-4.5c1.5-1.5,3-3,4.4-4.6c1.4-1.5,2.8-3.1,3.8-4.7c1-1.7,1.8-3.5,2.3-5.4
				c0.3-1,0.5-1.9,0.6-2.9c0.1-1,0.2-2,0.2-2.9l0-0.3c0,0,0-0.3,0-0.4c0-0.2-0.1-0.4-0.1-0.5c-0.1-0.4-0.3-0.7-0.5-1
				c-0.2-0.3-0.5-0.6-0.8-0.9c-0.4-0.2-0.6-0.5-1-0.7c-1.5-0.8-3.6-1.1-5.6-1.2l-1.5,0l-0.8,0l-0.8,0.1c-1,0.1-2,0.2-3.1,0.4
				l-1.6,0.3l-0.4,0.1l-0.2,0l-0.1,0c0.1,0,0,0,0,0l-0.1,0l-0.7,0.2c-1,0.2-1.9,0.6-2.9,1c-1.9,0.8-3.8,1.8-5.6,3
				c-1.8,1.1-3.6,2.3-5.4,3.6l-2.6,1.9l-2.6,2c-1.7,1.4-3.4,2.7-5,4.2c-6.6,5.6-12.9,11.6-19.1,17.8c-6.2,6.2-12.2,12.5-18,19
				L576.9,553.2z"/>
		</g>
	</g>
</g>

<style>
	#we_take_care_of_your_reputation #crown, #we_take_care_of_your_reputation #hand {
		-webkit-transform-origin: 50% 50%;
		transform-origin: 50% 50%;
		opacity: 0;
	}

	#we_take_care_of_your_reputation #people {
		-webkit-transform-origin: 50% 50%;
		transform-origin: 50% 50%;
		-webkit-transform: scale(0, 0);
		transform: scale(0, 0);
		-webkit-animation: showpeople 1s linear forwards;
		animation: showpeople 1s linear forwards;
	}

	#we_take_care_of_your_reputation #crown {
		-webkit-transform: translateY(-150px);
		transform: translateY(-150px);
		-webkit-animation: showcrownandHand 1s linear forwards;
		animation: showcrownandHand 1s linear forwards;
	}

	#we_take_care_of_your_reputation #hand {
		-webkit-transform: translateY(150px);
		transform: translateY(150px);
		-webkit-animation: showcrownandHand 1s linear forwards;
		animation: showcrownandHand 1s linear forwards;
	}


	#we_take_care_of_your_reputation #star1, #we_take_care_of_your_reputation #star4 {
		-webkit-animation: blikStars 1s ease-in 0.5s alternate infinite;
		animation: blikStars 1s ease-in 0.5s alternate infinite;
	}

	#we_take_care_of_your_reputation #star2 {
		-webkit-animation: blikStars 1s ease-in 1s alternate infinite;
		animation: blikStars 1s ease-in 1s alternate infinite;
	}

	#we_take_care_of_your_reputation #star3 {
		-webkit-animation: blikStars 1s ease-in 2s alternate infinite;
		animation: blikStars 1s ease-in 2s alternate infinite;
	}



	@-webkit-keyframes blikStars {
		0% {
	    opacity: 1;
	  }
		100% {
			 opacity: 0;
		}
	}

	@-webkit-keyframes showcrownandHand {
		to {
			 opacity: 1;
			 -webkit-transform: translateY(0px);
			 transform: translateY(0px);
		}
	}

	@-webkit-keyframes showpeople {
		to {
			 -webkit-transform: scale(1, 1);
			 transform: scale(1, 1);
		}
	}


	@keyframes showcrownandHand {
		to {
			 opacity: 1;
			 transform: translateY(0px);
		}
	}

	@keyframes showpeople {
		to {
			 transform: scale(1, 1);
		}
	}

	@keyframes blikStars {
		0% {
	    opacity: 1;
	  }
		100% {
			 opacity: 0;
		}
	}
</style>

</svg>
