<?xml version="1.0" encoding="utf-8"?>
<svg version="1.1" id="flowers-2c" xmlns="http://www.w3.org/2000/svg" xmlns:xlink="http://www.w3.org/1999/xlink" x="0px" y="0px" viewBox="0 0 996.1 1314.1" style="enable-background:new 0 0 996.1 1314.1;" xml:space="preserve">
<style type="text/css">
	.st0{fill:none;stroke:#000000;stroke-width:3;stroke-linecap:round;stroke-linejoin:round;stroke-miterlimit:10;}
	.st1{filter:url(#Adobe_OpacityMaskFilter);}
	.st2{fill:#FFFFFF;}
	.st3{mask:url(#water-level-mask);fill:none;stroke:#000000;stroke-width:3;stroke-linecap:round;stroke-linejoin:round;stroke-miterlimit:10;}
	.st4{fill:none;stroke:#000000;stroke-width:2;stroke-linecap:round;stroke-linejoin:round;stroke-miterlimit:10;}
</style>
<g id="jar">
	<g id="jar-body">
		<path id="jar-countur" class="st0" d="M390.7,778.4c0,0,0.8,5.5,0.8,6.7s-2.8,1.3-2.8,2.2c0,0.8,2.7,3.7,2.8,5.7
			c0.2,2-0.8,3.5-1.4,4.8c-0.6,1.3,2.3,2.7,2.3,4.6s-2.8,3.7-2.8,5.5s3.4,4,3.4,5.9c0,1.9-2.6,3.4-2.6,4.8c0,1.3,2.9,2.9,2.6,4.2
			s-4.1,2.1-3.8,4.4s1.4,3.7,0.4,5s-3.7,2.5-3.3,4.9c0.4,2.4,4.7,2.9,4.9,5c0.2,2.1-2.1,9.4,4.5,13.6s8.7,4,8.5,9.9
			c-0.2,5.9,1,11.3,0,14.3c-3.3,7.3-11.8,15-18,26c-6.2,11-9,21.4-9,24s-3.3,98.2-4.8,192c-0.5,20.5-3,59,1.8,79
			c4.8,22.2,28.6,40.2,40.1,45.7c21.7,8.6,113.7,8.6,113.7,8.6s58.3,1.5,104.8-17.3c20-7.5,35-19.5,37-41.8
			c4.1-31.4-1.4-100.1-1.8-145.4c-0.3-45.3,0-102.1,0-102.1s1-38.3-7.3-52.6c-8.3-14.3-17-19-17.7-21.3c-0.7-2.3-1.3-18.5-0.3-20.6
			c0.9-2.1,7.9-4.1,7.9-15.5c0,0,7.1-3,7.1-6.7c0-2.5-5.4-4.6-5.4-8.4s2.9-2.9,2.9-5.4s-4.6-1.6-4.6-3.7s2.5-2.3,2.5-3.9
			c0-1.7-3.5-1.8-3.5-5.1s1.7-3.4,1.7-4.8c0-1.5-3.8-2.5-3.8-5.3c0-2.8,2.1-2.6,2.1-4.5s-3.5-2-3.5-4.8c0-2.8,2.8-3,2.8-5
			c0-2,1.3-7.1-3.4-7.4s-32.3,6.8-122.3,6.8s-133-2.9-133-2.9L390.7,778.4z" stroke-dashoffset="1499.2371826171875" stroke-dasharray="1499.2371826171875"></path>
		<path id="jar-bottom" class="st0" d="M410.4,1204.5c3.3-0.6,7.3-1,12-1.3c40.2-2.3,99.2-2,99.2-2s124.7-3.3,129.5-2.3
			c4.8,1,8,4.8-2,11.5c-21.3,13.6-63.1,27.8-96.7,27.8c-41.8,0-41.9,0.3-62.4,0s-63.3-2.8-85-14.8c-5.1-3-15.4-11.6-3.1-16.7" stroke-dashoffset="532.0415649414062" stroke-dasharray="532.0415649414062"></path>
		<defs>
			<filter id="Adobe_OpacityMaskFilter" filterUnits="userSpaceOnUse" x="380.9" y="958.4" width="284.3" height="24.4">
				
					<feColorMatrix type="matrix" values="-1 0 0 0 1  0 -1 0 0 1  0 0 -1 0 1  0 0 0 1 0" color-interpolation-filters="sRGB" result="source"></feColorMatrix>
				<feFlood style="flood-color:white;flood-opacity:1" result="back"></feFlood>
				<feBlend in="source" in2="back" mode="normal"></feBlend>
			</filter>
		</defs>
		<mask maskUnits="userSpaceOnUse" x="380.9" y="958.4" width="284.3" height="24.4" id="water-level-mask">
			<g class="st1">
				<path class="st2" id="clip-water" d="M424.6,865.2c0,0,1.4,24.8-3.6,41.8s-11.5,34-13,44s-7.6,59.9-9.4,126.6c-0.6,30.8,2,82.2,4.2,98.9
					c2.2,16.8,7.5,28.4,11.5,35.9s-0.8,7.3-7,0.7c-6.2-6.7-15.5-15-17.2-56c-1.7-41-2-85.7,1.8-154.5s6.1-67.8,23.1-102.3
					C420,883,423.4,878.7,424.6,865.2z" stroke-dashoffset="724.9144897460938" stroke-dasharray="724.9144897460938"></path>
			</g>
		</mask>
		<path id="water-level" class="st3" d="M396.5,977.5c-15.8,0.5-15.3-5.3-12.8-6.9s16.8-0.6,28.5,0c27.3,1.1,45-1.6,66.3-4.1
			s45.2,1,54.7,0.3c45.8-2,53-5.5,91.8-6.8s42,6.5,36.8,7.5c-19.3,3.5-20,6-65,9.5s-57,0.3-71.8,0c-14.7-0.3-34.7,4-64.5,4.3
			s-36.1-2.2-48.3-4.3C407.5,976.7,412.2,977,396.5,977.5z" stroke-dashoffset="570.4129028320312" stroke-dasharray="570.4129028320312"></path>
	</g>
	<g id="jar-top">
		<path class="st0" d="M538.2,795.2c-111.3,0.3-146.7-10.2-146.7-10.2" stroke-dashoffset="147.31851196289062" stroke-dasharray="147.31851196289062"></path>
		<path class="st0" d="M623.6,787.4c-25.6,4.5-71,7.4-80.7,7.4" stroke-dashoffset="81.09109497070312" stroke-dasharray="81.09109497070312"></path>
		<path class="st0" d="M647.8,783c-8.9,2.9-18.9,3.8-18.9,3.8" stroke-dashoffset="19.311664581298828" stroke-dasharray="19.311664581298828"></path>
		<path class="st0" d="M644.5,793.1c0,0-13.3,4.5-34.9,7.6" stroke-dashoffset="35.75559616088867" stroke-dasharray="35.75559616088867"></path>
		<path class="st0" d="M601,802.6c0,0-55.1,7.6-131.4,6.8" stroke-dashoffset="131.66868591308594" stroke-dasharray="131.66868591308594"></path>
		<path class="st0" d="M464.9,808.4c-14.1-0.5-54.9-7.3-73.7-13.2" stroke-dashoffset="74.99176788330078" stroke-dasharray="74.99176788330078"></path>
		<path class="st0" d="M559.5,819.7c-101.7,7-163.2-11.3-163.2-11.3" stroke-dashoffset="164.2469940185547" stroke-dasharray="164.2469940185547"></path>
		<path class="st0" d="M621.9,811.1c-30.6,6.3-55.3,8.1-58.5,8.2" stroke-dashoffset="59.11650085449219" stroke-dasharray="59.11650085449219"></path>
		<path class="st0" d="M646.7,803.7c-2.4,1.9-13.1,5.1-17.3,6.1" stroke-dashoffset="18.405223846435547" stroke-dasharray="18.405223846435547"></path>
		<path class="st0" d="M650.9,814.3c0,0-34.5,12.9-84.8,15.3" stroke-dashoffset="86.44059753417969" stroke-dasharray="86.44059753417969"></path>
		<path class="st0" d="M558.2,830.4c-10.3,1-96.3,6-162-9.1" stroke-dashoffset="162.76544189453125" stroke-dasharray="162.76544189453125"></path>
		<path class="st0" d="M390,831.6l9.6,2.6" stroke-dashoffset="9.945853233337402" stroke-dasharray="9.945853233337402"></path>
		<path class="st0" d="M588.7,840.2c-114.5,12-183.4-4.8-183.4-4.8" stroke-dashoffset="184.1344757080078" stroke-dasharray="184.1344757080078"></path>
		<path class="st0" d="M613,836.8c-9.4,2.1-20.2,3.2-20.2,3.2" stroke-dashoffset="20.461637496948242" stroke-dasharray="20.461637496948242"></path>
		<path class="st0" d="M654.2,826.9c-25.4,8.5-37.4,9.2-37.4,9.2" stroke-dashoffset="38.585899353027344" stroke-dasharray="38.585899353027344"></path>
		<path class="st0" d="M650.8,838.5c0,0-34.6,12.1-151.9,14.5c-16.7,0-77.8-2.7-108.9-12.7" stroke-dashoffset="262.8321533203125" stroke-dasharray="262.8321533203125"></path>
	</g>
	<path id="jar-shine" class="st0" d="M424.6,865.2c0,0,1.4,24.8-3.6,41.8s-11.5,34-13,44s-7.6,59.9-9.4,126.6
		c-0.6,30.8,2,82.2,4.2,98.9c2.2,16.8,7.5,28.4,11.5,35.9s-0.8,7.3-7,0.7c-6.2-6.7-15.5-15-17.2-56c-1.7-41-2-85.7,1.8-154.5
		s6.1-67.8,23.1-102.3C420,883,423.4,878.7,424.6,865.2z" stroke-dashoffset="724.9144897460938" stroke-dasharray="724.9144897460938"></path>
</g>
<g id="flowers">
	<g id="flower-6">
		<path class="st0" d="M582.6,977.9c0,0,0.3,33.8,1,48.8c0.7,15,5.9,72.5,6.2,78.8s5,58.3,5.8,76s5.2,29.6,3.4,32s-5-0.4-6.9-3.6
			 M591.8,1209.4c-1.5-3.8-3.4-20.5-4.6-34.1c-1.2-13.7-4.7-44.2-3.8-64s-6-72.7-7.2-93c-1.2-20.3-0.9-40-0.9-40 M580.9,849
			c0,0-1.9,60.9,1.7,121.6c0,0-2.9,3.4-7.3,0.7c0,0-2.8-44.4-1.4-121.7 M581,845.3V841 M581,835.4v-6.9 M581,822.3v-4.6 M581,811.8
			v-7 M581.5,798.4l3.7-118.3 M587.2,663.3c0,0,15.8-155.2,18.8-174 M610.6,473.4l2.9-20.5 M603.7,451.5l-4.7,27.3 M579.2,653.3
			c0,0-1.2-15.6,3.3-56.1s14.8-106,14.8-106 M573.2,799.1c0.8-53.2,4.2-128.3,4.2-128.3 M573.2,805.6v7.4 M573.2,818.5v4.3
			 M572.9,829.2v6.4 M573.3,841.7l0.2,4 M645.9,446c4.3-2.1,12-9.5,19.5-21s17.4-34.4,21.5-43.1s10.4-17.1,10.4-17.1
			c-11.3-3.8-29.8,1.6-29.8,1.6c-2.8-24.4-5.3-28.8-10.9-34.1s-10.8-8.1-17.4-8s-11.9,3-14.2,3.4c-2.3,0.3-4.7-2.9-10.4-3.3
			c-5.8-0.4-11.8,4.3-11.8,4.3s-3.9-2.3-6-2.1s-4.6,1.8-7.6,9c-9.5,17.6-18.9,63.5-15.9,84.6s22.4,31.6,35.6,32.8
			c21.1,1.9,29.4-3.9,29.4-3.9"></path>
		<path class="st4" d="M613.5,452.9c4.8-8.3,3.6-22.8,2.8-29.3c-0.8-6.6-0.6-26.7,13.8-35.4s31.9-12.8,38.2-13.8
			c6.3-1,20.4-4,20.6-6.4s-2.5-4.5-3.6-4.5 M653.2,378.1c3.6-5,14.3-11.7,14.3-11.7 M675.2,364.6c0,0,4.8,1.4,4.1,2.7
			s-10.9,0.9-23.6,10 M656.1,374.9c0,0,0.2-11.7,0.3-19.7s-2.8-19.6-1.7-21c1.2-1.4,4.1,0.4,4.1,0.4 M641.8,382.3
			c-0.2-3,0.9-6.1,1.9-10c1-3.9,0.8-8.6,1.4-22.2c0.7-13.6,2.5-19,4.2-20.2c1.7-1.2,5.1,0.5,5.1,0.5 M602.8,328.5
			c0,0,5.4,5.6,6.1,15.8c0.8,10.2-1.5,23.8-0.4,24.9s2.5,0.7,4.2,2.4s4.8,12.3,0.2,24.1s-15.3,31.4-14.4,40s3.8,15.1,7.6,17.1
			 M626.8,327.1c0,0,0.1,19.3-4.1,31.2s-8,30.4-8,30.4"></path>
	</g>
	<g id="flower-5">
		<path class="st0" d="M561.7,1218.5c-3.6,0.2-5.1-2.3-5.8-22.2s-1.6-73.9-4.6-95.9c-1.4-8.6-1.9-39-3.9-53s-6.6-69.6-6.6-69.6
			 M551.3,978.5c0,0,1.9,42,4.6,66.8s5.7,70.8,6.7,81.3s1.1,65.1,1.4,74.1s-0.2,17.9-2,18 M535.7,851.8c0,0,9.4,61.1,14,118.8
			c0,0-3.5,3.9-8.8,0c0,0-7.2-70.3-14.3-118.8 M535.1,848.1l-0.7-4 M533.4,838.1l-1.4-6.4 M530.8,826.2l-1.3-5 M528.9,815.2
			l-1.6-6.8 M453.5,591.7c0,0,9.9,27,23.7,56.7s37.4,97.9,37.4,97.9 M257.7,236.5c47.5,71.3,64,98.3,71,109.5s34.5,58.8,61.3,110
			s52.5,106.8,52.5,106.8 M248.7,244.1c0,0,73.6,97.4,74.8,113.9c0.3,3.5-9.9,1.5-16.2,0.9 M298.3,357.2l-14.5-1.3 M268.7,353
			c0,0-31-5.2-72.3-22 M243.6,356.6c-30.4-8.2-54.9-19.3-54.9-19.3 M252.7,358.9l12.3,2.4 M284.5,364.2l7.6,0.6 M308.1,366.8
			c0,0,18.5-1.2,21.6,5.1 M332,377.3c0,0,29,42.6,58.5,102c29.4,59.3,43.8,87.5,52,112.5 M455.4,626.9c0,0,51,99.3,58.4,151.1
			 M160.7,233.7c-29.2-28.5-60.8-87.4-60.6-92.9s7-6.9,8.4-9.4s1.9-8,7-14.9s14.5-11.9,14.5-11.9c2.6-7.4,10.4-25.7,30.3-28.3
			c19.8-2.7,24.3,3.5,34.5,9.3c10.2,5.8,18,9.5,18,9.5c8.7-19.8,26.2-33.5,26.2-33.5c0.8,14,9.1,29,13.1,39.5s28.6,53.3,28.3,84.3
			c-0.3,31-26.7,55.7-26.7,55.7C220.9,267.9,189.9,262.2,160.7,233.7z M186.1,252.3l2.3,16.5c3.5-4.3,4.6,0.9,6.3,6.9
			c3.1,12.8,1.8,29.3,1.8,29.3s1.5-3.6,5.4-10.9s4.9-4.3,5.3-0.8c0.5,8.8-3.5,19.7-9.5,28.7s-1.3,11.3-1.3,11.3 M190.2,336
			c-31.8,28-43.1,47-46,43.6c-3.6-4.9,11.3-24.5,11.3-24.5s-36.1,12.9-38.6,9.3s13.5-10.1,13.5-10.1c-16.6,3.5-43.5,1.6-43-0.8
			c1.3-6.3,42.5-9.8,42.5-9.8s-34-7.8-33.8-9.3c0.2-1.5,10.8-1.3,10.8-2.7S77,317.4,77.2,314.4s22-1.1,22.6-1.6s-1.1-1.8-0.9-2.4
			s1.5-0.9,2.1-2.1s-10.3-9.5-9.8-10.8s23.4,2.9,23.4,2.9c-9.8-5.7-19.9-20.8-19.1-23.4s18.4,3.4,19.2,3.1s-0.6-1.8,0.9-3.2
			s10,3.5,11,2.6s-4.6-20.9-2.9-22.8s10.7,4.2,10.7,4.2s-1.4-3.7,2.8-4c4.3-0.3,10,7.8,10,7.8s-0.7-21.5,1.8-21.4s4.7,7.8,6,7.6
			c1.3-0.2,1.5-7.6,4.6-7.6c5,0,13.3,23.8,13.3,23.8s1.6-7.3,2.7-7.8c1.1-0.6,2.7,2.1,3.6,1.8c0.9-0.3,3.3-10.7,3.3-10.7"></path>
		<path class="st4" d="M366,411.2l-0.1-20.8c-9.3-9.3-13.3-20.9-13.1-54.7c0.2-33.8,2.8-78.3,2.8-78.3c0.6,2.1,16,38.8,18.3,43.1
			c2.3,4.3,11.8,21,14.4,26.5s10.5,21.5,12,43.3s-15,23.7-20.7,23.7s-10.3-1.9-10.3-1.9v24.9 M290.9,286.7l2.6-9.6
			c-1.8-5.1-1.7-12.3,12-33.5s16.6-32.8,16.6-32.8c2.3,1.3,1.4,10,1.5,15.9s-1.1,30.1-5.9,40.3c-4.8,10.2-13.1,14.7-15.8,15.2
			s-4.8-0.8-4.8-0.8l-3.5,9.3 M256.4,238.3c0,0,2.8-8-20.5-25s-37-29.7-34.8-57c2.2-27.3,32.7-73.5,33.5-77.8c0.8-4.3-0.9-8-7.1-5.6
			 M107.8,132.4c3-1.2,5.1-0.4,18,4.1s32.6,27.3,35.6,27.1s5.8-2.3,9.4-1.1c10.9,3.6,21,17.1,23.9,23.4c2.9,6.3,12.6,33,25.8,47.3
			c13.2,14.3,27.6,12.2,27.6,12.2 M130,104.7c0,0,14.8,11,22,20.5s28.3,38.2,32.3,46.5 M204.7,139.7c-0.6-3.9-9.1-12-13.1-16.9
			s-35.6-33.8-37.1-38c-1.5-4.2,3.9-8.2,3.9-8.2 M210.4,116c0,0-13.9-12.8-19.3-16.4s-20.5-13.6-24.5-17s-1.2-6.7-1.2-6.7
			 M211.3,123.2c-1.3-8.7,1.5-28,1.5-28 M214,117.4c-1.5-14.7,10.9-34,10.9-34 M186.1,340.2c-4.7,1.3-10.1,0.3-12.3-1.1
			c-2.3-1.4,4.2-7.2,7.7-8.1c3.5-0.9,6.2,7.2,6.2,7.2 M181.5,331c-2.3-10.8,3.5-28.1,7.3-27.3s5.6,16.4,3.8,23.1s-3.8,10.4-3.8,10.4
			 M180.5,331.3c-0.8-4-5.9-4.5-8.6-3.5s-6.6-0.1-6.9,0s-0.4-0.3,0,6.5s8.7,4.7,8.7,4.7 M196.5,305.1l-3.3,9.9 M182,316.5
			c-4.1-8.3-3.5-24.2,0.4-24.7s6.4,12,6.4,12 M180.5,344.8c-11.6,6.1-38.3,4-38.3,4c13.1-8.6,24.3-11,24.3-11 M155.5,355.1l8.4-6.4
			 M130.4,354.2l11.9-5.4 M159.7,340c-7.2,2.7-29.9,3.8-29.9,3.8 M106.7,331.8c0,0,14.6,1.5,32.4,1.1s26.2,3,26.2,3 M158.8,333.4
			c-5.7-2.1-7.8-12.3-7.8-12.3l7.5,6.6l-0.3-4.6l4.2,0.6l-6.1-10.6l12.8,10.1l-7.7-12.9l13.7,11.2l-10.8-15.1c0,0,10,8.4,10.5,8.1
			c0.5-0.3-7-11.4-7-11.4c4.8,0.3,14,14.1,14,14.1 M155.6,333.7c0,0-15.2-8.9-18.8-21.5c0,0,10,12.6,16.7,15.8 M147.3,323.4
			l-3.5-9.9c8.9,3.8,10.2,9.4,10.2,9.4 M165.3,307.3c-1.1-5.6-7.3-11.6-7.3-11.6l4.9,1.6l-1.9-4.8c8,5.3,12.8,14.8,12.8,14.8
			 M167.8,303.1l-5.6-2.4 M152.8,320.5l1.1-5.1L141.3,299l13.5,9.7l-5.5-9.3l9.5,5.7l-5.7-7.8l8.3,2.3 M159.8,319.2l-5.8-1.8
			 M156.6,318.2l-4-9l9.2,1.5 M158.1,310v-2.7l6.3-0.9 M147.4,315.3l-5.4-8.9l7.8,3.6 M101,308.2c0,0,4.8-0.1,12.2,2.3
			c7.3,2.4,21.7,7.2,27.3,9.2 M127,332.9c0,0-23.9-8.5-27.1-20.1 M143.5,308.9c-10.2,2.1-28.9-8.6-28.9-8.6 M142,306.4
			c-7.1-0.8-15.4-9.8-18.7-15.6s-8.6-10.8-8.6-10.8 M126.6,279.4c0,0,14.4,8.5,27,18.6 M157.6,298.5c0,0-7.9-8.8-12.9-16.3
			s-10.3-21.3-10.3-21.3 M147.2,264.7c0,0,15.4,26,16.4,29.7 M164.4,295c-5.6-8.9-8.8-44.9-8.8-44.9 M179.1,304.1
			c-5.1-2.1-6.3-37-6.3-37 M179.1,261.1c0,0,3.6,7.4,3.5,13.2c-0.1,5.8-0.2,17.5-0.2,17.5 M188.4,268.9l-0.7,31"></path>
	</g>
	<g id="flower-4">
		<g>
			<path class="st0" d="M526.7,977c0,0,0.2,27.9-0.2,41.4c-0.3,13.5,0.8,39.7,1.7,55.5c0.8,15.8-0.3,50,0.3,67.2
				c0.6,17.2,1.4,44.8,0.3,51.8c-1.1,7,0.5,10.7,0,19.7c-5,14.6-10,1.3-10,1.3 M518.7,1213.5c0,0-2.5-17.6-2-39.9
				c0-7.3-1-88.7-1.2-98.7c-0.2-10-0.6-79.1,0.3-97.6 M526.6,852.1c-1,38.2,0,118.8,0,118.8c-1.2,1.8-11.3,0.7-11.3,0.7
				c-0.5-5.7-2.4-118.7-2.4-118.7 M526.6,848.1v-3.7 M526.6,838.5v-6.6 M526.1,826.2l0.3-4.9 M526.4,814.9l0.2-6.4 M526.6,801.8
				c0,0,3.1-109.3,4.9-142.1s14-139.8,16.6-151.3c0,0,6.8-3.6,57.5-19.9 M638.4,472.6l5.9-3.6 M682.7,433.2
				c49-33.3,78.3-61.8,78.3-61.8c-12.8-23.8-8.5-48.8,7.5-68.3s24.5-27.3,51.6-46c27.1-18.7,37.2-18.1,47.3-16.1
				c10.1,2.1,1.6,14.6,3.5,16.6c1.9,2,16.4,1.5,29.8,8s15.3,16.4,17.3,20.6c14.3,2.8,24.8,13.6,25.1,19.9s-3.2,17.4-1.4,23.5
				c12.1,0.3,9.6,9.6,8.7,12.4c-0.9,2.8-15.9,17.4-27,23.3s-44.6,16.4-47.6,18.6s-26.3,16.8-57.5,17.6
				c-39.2,0.8-50.8-22.6-50.8-22.6c-11.8,12.5-37.5,32.3-43,35.5S689.1,441,689.1,441 M655.8,462.9l3-2 M658.9,448.2l-8.3,4.5
				 M640.7,458.2l-10.3,6.5 M620,468.2l-9.4,5.1 M601.4,477.6c0,0-25.9,13.3-51.6,17.4c0,0-2.5-16.8,3.8-40s11.8-61.8,13-73
				s9.8-62.6,10.4-85.8 M579.9,260.2l-2.4,26.5 M581.9,236.4c0,1.5-1.8,20.8-1.8,20.8 M571.7,232.2l-0.8,11.8 M566.8,282.8l0.9-7.1
				 M562.2,314.9c0,0-8.6,66.4-14.1,107.9s-5.5,38.7-5.5,38.7 M513.9,801.8c-1.3-61.4,6.8-154.8,13.3-216.2s13.6-114,13.6-114
				 M513.3,816.2V809 M513,826.7l0.3-5.3 M513,838.5V832 M512.9,848.4v-3.9 M529.9,153.1c2.2-27.7,5.6-34.6,5.6-34.6
				c6.1-35.8,19.7-46.3,23.7-46.9s14.5,7.8,14.5,7.8c21.8-14,26.3-15.4,36.9-16.1c10.7-0.7,13,4.2,15.4,4.1s5.3-5.5,20.3-6.9
				c15.1-1.4,24.7,22.9,24.7,22.9c13.8-6,17-4.6,20.1,9.4s-8.5,37.5-15.2,46.2c-6.7,8.7-10.3,29.8-20.7,47.2
				c-10.3,17.3-20.3,37.8-40.6,47.1c-20.3,9.3-38.1,1.7-38.1,1.7C536.2,225.2,526.4,194.7,529.9,153.1z"></path>
			<path class="st4" d="M518.9,675.8c-4.5-5.3-8-15.9-8-15.9c-9.2-1.7-23.7-18-30.2-41.3s-7.3-55.8-7.3-55.8
				c1.3,6.5,9.2,14,15.9,23.5s16.3,25.2,20.8,36.5c4.6,11.3,3.4,27.3,4,31.8c0.6,4.5,5.6,9.7,5.6,9.7 M614.4,213.2l-7.9,22.9
				 M621.2,136.7c0,0-0.1,36.8-5.5,57.1s-13.6,43.2-13.6,43.2 M575.2,234.5c0,0-14-19.1-12.5-43.1s12-56.2,43.1-74.2
				c10.9-6.3,31.1-5.6,43,15.6s8.1,50.2,8.1,50.2 M646.3,128.8c13-26,32.7-48.3,32.7-48.3 M626,67.4c0,0,13.1,14,15.1,27.9
				s0.2,19.3-2.5,25.3 M545.9,218.8c-2.8-25.1-0.8-43,2.3-62c3.2-19,9.8-51.2,19.5-62.8c9.7-11.6,18.3-7.5,26.2,0
				c9.7,5.7,14.6,22,14.6,22 M573.6,79.3c0,0,3.1,2.6,5.1,7.5 M592.5,92.6c1.2-9.6,4.8-15.1,4.8-15.1 M597.2,96.5
				c1.5-11.1,6.4-18.2,6.4-18.2 M575.9,310.9l11.2-8.1c1.1-7.3,8.4-13.8,14.3-17.6s31.6-15.6,39.3-19.8c7.7-4.2,16.2-9.3,16.9-7.3
				c1.5,4.3-13.8,25.8-24.5,35.5c-10.7,9.8-25.5,15.4-31.7,15.9s-12-1.9-15-1.1c-3,0.8-11,7.8-11,7.8 M717.6,408.1
				c0,0-2.6-8.4,0-12.4c-1-5.4-8.6-4-10.8-31.4s16.6-50.3,19.9-64.7c0,0-1.1,16.5-0.8,34.2s2.9,31.8,2.6,41.8s-2.9,18.1-7.5,22.3
				c0,0-1.7,4.2,0.1,7.5 M761.1,371.4l6.4,7.6 M769.2,381.7c0,0-3.5-23.2,8-36.7s22.7-32.8,64-36.4c41.3-3.7,45.7,13.8,47.3,18.7
				c1.7,4.8,2.6,34.9-14.6,58 M888.9,344.9c14-9.5,30.7-9.9,40.5-11s12.3-4.3,12.3-4.3 M889.2,341.4c16.2-10.5,39-16.5,39-16.5
				 M903.2,330.4l-14,8 M918.1,286.2c0,0-1.2,20.5-10.3,31.2c-9.2,10.7-9.3,13-18.3,18 M754.4,352.2c-0.1-18.8,58.5-74.3,90.4-82.1
				c31.8-7.8,31.5,3,32.5,10.8s-5.3,23.8-3.8,30.5 M871,257.6l-3.8,9.7 M762.4,373c0,0,0.1-4.2,5.1-22s28.3-37,28.3-37 M759.9,369.2
				c0,0,0.3-9,2.5-16.3c2.2-7.3,6.3-13.3,6.3-13.3"></path>
		</g>
		<g>
			<path class="st4" d="M619.8,705.9l10.6-7.1c2.4-9.9,16.1-15.5,33.6-21s28.8-11,34.4-13.6s4.3,0.8,2.8,2.4
				c-7.6,7.1-12.9,17.5-17.2,22.3c-4.3,4.8-23.7,36.7-38.4,35.5s-20.3-18.5-20.3-18.5l-6.2,5.5 M649.8,548.5
				c6.3-16.4,19.4-16.3,19.4-16.3 M680.7,542.4c0,0,1.8,13.6-16.8,19.6 M684.6,573.4l-8-19.1 M702.5,572.9c0,0-15.3-16.5-14.5-29.9
				 M730.9,582.2c0,0-4.5-8.5-16.7-18.4c-12.2-9.9-13.3-18.6-18.3-24 M743.1,576.5c0,0-3.5-3.6-19.3-12.7
				c-7.2-4.1-21.1-18.5-24.6-23.3 M740.1,559.2c0,0-15.5-6.3-33.5-21.2 M707.7,529.4c16.9,3.4,44.6,12,44.6,12 M710.6,525.4
				c0,0,7.2-1.4,16.8-2.5s21.9,0,21.9,0 M709.6,518.8c4.2-1.5,8.4-2.5,17-7.2S744,506,744,506 M705,508.3c0,0,4.2-6.9,13.7-10.4
				s14.5-8.5,14.5-8.5 M724.5,466.5c0,0-6.8,14-12.9,22.9s-12.8,16-12.8,16 M713.2,447.9c0,0-1.5,12.4-8.2,26.3
				c-6.7,13.9-12,26-12,26 M682.7,497.9c0,0-0.6-2.8,0-11s10.3-36.6,10.3-36.6 M673.9,441c0,0,6.7,25.6,8.6,52.3 M659.9,470.8
				c0,0,9.2,16.4,13.1,29.2 M669.8,503.1c-4.1,1.9-20.2-19-20.2-19 M629.6,479.2c0,0,20.4,17.3,33.1,31 M606,489.3
				c6.2-3.1,14.1-1.4,29.6,6.3s27.1,17.9,27.1,17.9 M662.1,524.7c0,0-10.2-2.2-17.2-5.5s-10.5-4.9-19.8-8.7 M622.5,532.1
				c0,0,3.5-6.2,10.3-8.1s17.7-2.6,17.7-2.6 M466.3,451.4c0,0,3.2,0.9,5.1,1.2s0.6-1.2,3.6-1.2s8.7,1.4,9.9,4.5
				c1.2,3.1,4.2,2.9,4.9,4s-1.4,1.9-1.3,3.4s2.3,1,2.6,4.5c0.3,3.5-4.3,3.7-4.3,6.1c-0.6,5.6-5.8,8-6.6,8.8s-2.9,0.1-4.2,0.6
				c-1.3,0.5-4.4,1.6-4.4,1.6s-3.1-1.3-4.1-1.6c-1.1-0.3-7,0.7-7,0.7 M480.1,482.7c6.2,6.8,2.4,18.6,2.4,18.6 M483.6,492
				c8.7,1.8,17.6,7.9,17.6,7.9 M466.1,503.5c0,0-4.8-6.7,1.3-20.2 M509.1,488.6c0,0-14.3,0.4-25.4-8.6 M531.5,479.6
				c0,0-2.9-3-17.7-2s-27-3.7-27-3.7 M533.2,468.9c0,0-9.3,1.6-20.3,3.8c-2.5,0.5-25.7,0-25.7,0 M521.7,460.6c0,0-8.7,4.2-15.7,5
				c-7,0.8-15.7,0-15.7,0 M522.5,442.2l-32.7,17.7 M487.2,458.5c2.1-7.1,21.5-23.5,21.5-23.5 M483.7,454.3
				c5.9-15.3,12.6-25.7,12.6-25.7 M475.7,451.5c0,0-1.1-7.9,1.5-12.5c2.7-4.7,3.8-13.3,3.8-13.3 M448,412c0,0,9.1,15.4,10.9,22.6
				 M453.4,452.9c-6-8.3-16.6-27.4-16.6-27.4 M421.4,429.7c0,0,17.9,10.7,32.1,24.5 M451.8,462.7c-14.9-5-23.2-9.8-23.2-9.8
				 M450.8,468.2c-8.1,0.9-20.5-1.4-20.5-1.4 M415.8,474.4c0,0,17-0.5,34.1,0 M411.5,491.6c0,0,2.2-9.8,38.1-14.8 M442.2,508.9
				c0,0-3.3-8.3,5.7-15.9 M431.7,494.7l16.6-6.8"></path>
			<path class="st0" d="M617.6,1203.9c0,0,1.6,5.8-1.4,6s-7.2-10.4-7.6-20.4s-7.7-88.9-9.2-129.4c-1.4-40.5-3.2-55.5-2.7-83
				 M617.4,1203c-0.1-1.8-3.8-32.1-5.8-76.1s-6-150.7-6-150.7 M608.5,846.2c-0.1,15.9-2.9,122.3-2.9,122.3c-3.8,1.3-9.5,1.1-9.5,1.1
				c-1.3-45.5,3.3-122.4,3.3-122.4 M608.5,841.5v-3.7 M608.8,832.2v-7.3 M609.5,819.9v-6.4 M610.4,807.5v-6.9 M611.4,794.7
				c0,0,0.7-20.8,1.2-33.8s7.8-60.3,9.8-70.3s15.5-73,40.2-127.8 M653.9,553.6c0,0-15,30.7-21.7,63.3c-11,28.3-15,75.5-20.8,75.9
				c-3.1,0.2-18.3-25-51.7-62.1c-19-25.3-23.1-28.8-23.1-28.8 M527.2,585.6c0,0-19.1-22.1-30.2-45.9c-11.1-23.8-14.6-36.2-14.6-36.2
				 M525.4,603.1c0,0-9.4-12.8-24.7-37.6c-15.3-24.8-25.8-60-25.8-60 M534.9,619.3l70.7,85.5c0,0,0.3,73.2-2.3,90.5 M602.1,808.5
				l0.6-5.9 M601.4,821.1v-6.2 M600.9,833.3v-7.2 M600.4,843v-3.9 M649.8,548.5c-2.7,0.6-13.9,0.9-19.3-2.6
				c-5.4-3.5-6.6-12.4-8-13.9s-18.4-5.1-17.7-12.1s20.3-9.5,20.3-9.5c-11.8-8.3-26-27.8-22.6-34.8c3.4-6.9,27.2,3.6,27.2,3.6
				s-16.3-17.1-13.7-20.4c5.1-6.5,33.6,25.3,33.6,25.3c-4-9.8-15.8-41.4-10.1-43.1s20.4,29.8,20.4,29.8c-3.1-19.7-0.5-35.7,4.1-37.2
				s9.9,7.4,9.9,7.4s1.5-9,5.4-8.5c10.4,1.3,13.8,17.8,13.8,17.8s4.4-16.9,13.3-16.7s7,14.3,7,14.3s4.5-4.3,8.6-3.5
				c8.5,1.3,2.6,22.1,2.6,22.1c2.6-2.6,10.8-4.3,15.3-2s-6.5,24.9-6.5,24.9c9.5-4.6,26.1-6.9,30.1-1.5S744,506,744,506
				c10.9-1.1,30.2,0.1,30.6,6.1s-25.3,10.8-25.3,10.8c6.2,0.6,28.6,5.4,28.7,12.4s-25.9,6.1-25.9,6.1s23,12.8,19,18.2
				c-5.2,7-31.2-0.3-31.2-0.3c6.2,3.8,22.5,17.3,19.5,21.7c-3,4.3-16.4-4.4-16.4-4.4s4.1,7.2,1.9,11.2c-2.2,3.9-12.4-5.9-14.2-5.4
				s-1.8,2.4-3,2.5c-1.2,0.1-2.5-2.2-3.5-1.7s-1.8,2.6-2.8,2.8s-19.2-12.9-19.2-12.9s2.6,13.6-2.8,16.3s-15.1-15.8-15.1-15.8
				s2.8,21-8.7,21.2s-10.8-29.5-12-32.5s-6.5-3.7-6.5-3.7L649.8,548.5z M667.9,505.3c3.1-3.4,4-4.9,5.1-5.3c1.1-0.4,4.2-0.5,5.6-0.7
				c1.4-0.2,4.2-2.5,5.8-2.4c1.6,0.1,2.4,2.1,4.7,2.7c2.3,0.6,2.8-0.9,4.1,0.6c1.3,1.5,2.2,3.5,4.6,4.8s6.5,2.1,6.9,2.8
				c0.4,0.7,4.3,5.2,5.1,7.8c0.8,2.6-0.4,3.6-1,5.8c-0.6,2.2,1.9,2.4,2,4.2s-3.9,4-4.1,5.9c-0.2,1.9,2.4,3.5,1.1,5.3
				c-1.3,1.8-1.9,3-6.3,3.8s-4.8-1.7-6.8,0c-2.1,1.7-8.7,3.7-12.2,2.7s-10.8-5.8-13.8-12.2c-2.8-2.8-6.4-3.8-6.5-6.3
				c-0.1-2.4,2.8-4.8,2.5-7.3s-3.8-4.5-1.8-7.1C664.7,507.7,667.9,505.3,667.9,505.3z M456.6,511.9c3.5-0.9,9.5-8.4,9.5-8.4
				s11.2,5.4,16.4-2.2c0,0,10.8,19.3,21.4,11.9c4.3-3-2.7-13.3-2.7-13.3s13.2,4.2,13.7-0.7c0.5-4.8-5.8-10.7-5.8-10.7
				s21.5-0.1,22.4-9c0,0,10.2-3.7,9.4-9c-0.8-2.7-7.6-1.7-7.6-1.7s11.7,0,10.8-5.2c-0.8-5.2-22.3-3.2-22.3-3.2s19.7-9.9,17.3-16.3
				c-2.4-6.4-16.5-2-16.5-2s11.9-10,7.5-14.8s-21.2,7.5-21.2,7.5s11.8-13.3,6-18.6c-5.8-5.3-18.5,12.2-18.5,12.2s9.2-17.8,0-20.7
				c-3.7-1.2-15.2,17.7-15.2,17.7l-5.4-12.6 M446.1,511.3c0,0-2.3-2.8-5.2-2.6c-2.8,0.2-9.7,5.7-13.3,1.8
				c-3.7-3.8,4.2-15.9,4.2-15.9c-23.1,2.1-27-9.6-26.7-12.3c0.3-2.7,10.8-6.5,10.8-8s-15.1,0.8-15.7-2.6c-1.2-7.3,30.2-5.1,30.2-5.1
				c-12.3-4-27.6-14.1-26-19.4s24.3,5.5,24.3,5.5c-10.9-8.6-15.6-18.9-14.3-22s7-1.1,7-1.1s-2.3-5.9,1.4-9.5s14.1,5.3,14.1,5.3
				c-2-7.1-1.4-15,2.3-17.6c3.6-2.6,8.9,4.1,8.9,4.1s0.4-5.3,4.8-6.4s11.9,9.3,11.9,9.3"></path>
		</g>
	</g>
	<g id="flower-3">
		<path class="st4" d="M451.9,317.7c0,0,7.8,2.4,11.2,4.9c3.4,2.5,15.4,18.2,15.4,18.2 M485.2,342.7c-4.3-4.5-4.9-13.9-4.6-14.5
			c0.3-0.6,9.8-0.8,13.2,4c3.4,4.8-3.7,11.7-3.7,11.7 M493.7,332.2c0,0,9.3-6.7,18.8-9.1c9.6-2.4,15.5-0.4,16,0.9
			c0.5,1.3-3.5,8.9-11.9,13.4c-14.9,7.7-25.6,6.8-25.6,6.8 M530,334.2l-10,1.1 M513.9,322.8c4.7-7.1,9.8-10.9,18.8-13.6s6,3,2.5,7.9
			s-6.7,7-6.7,7 M466.8,326.4c0,0-1.2-1.3-7.3-9.5c-6.1-8.2-8.4-18.1-8.4-18.1c3.8,4.7,14.4,8.8,21.1,14.8s8.4,14.7,8.4,14.7
			 M478.1,321.5c0.9-6.2,9.5-9.6,9.5-9.6c1.7,6.2,4.4,7.4,6.3,10.1c1.9,2.7,1.6,9,1.6,9 M480.5,316.8c-6.2-15.6,6.9-24.2,6.9-24.2
			c-2.3,3.6-3.2,12.3-2.6,13.5s4.1-6.6,5.1-6.1c1.1,0.5-0.9,6.9,0.9,7.9s6.8-13.3,6.8-13.3c1.6,8.3-2.1,17.8-2.1,20.3
			c3.1-1.1,8.2-17.9,8.8-17.3c3.4,6.8-3.7,20.9-2.6,21.3c1.1,0.4,2.9-2.9,5.6-8.8c2.7-5.9,2.3-13.2,3.6-13.1c3.3,5.1-2.6,18-1.8,18
			s7-13.7,7.5-13.5c0.5,0.2,1.6,4.4-1,10.4s-3,11.2-3,11.2 M562.8,304.9c0,0-15.6,10.3-30.3,15.6 M571,288.5c0,0-6.3,7.4-13.3,10.8
			c-7,3.4-12.4,6.8-19.1,11.6 M523.4,313.3c0,0,6.9-9.3,13.9-13.5s21.8-13.8,21.8-13.8 M442.7,293.7l8.4,5.1 M474.3,315.8
			c0,0-5.8-8.5-12.1-14.9s-10.5-14.2-10.5-14.2 M479,311.1c0,0-5.2-8.2-11.1-21.7s-14.3-28.7-16.8-32.2c-2.5-3.5-2.1-6-2.1-6
			 M515.7,293.1c0,0,4.1-7.6,4.7-7.1c0.6,0.5-1.4,6.1-0.3,6.6c1.1,0.5,4.1-4.6,4.1-4.6c-2.4,17.4-7.6,21-7.6,21 M511.9,300.6
			c3.1-3,4.9-6.4,4.9-6.4c2.7,1.1,0.5,9.6,0.5,9.6 M504.7,298.6c0,0,0.4-6.6,1.8-6.2c1.5,0.5,3.1,9.2,3.1,9.2 M485.2,298.8
			c0,0,5.9-5.9,7.2-5.2c1.4,0.7,1.6,10.2,1.6,10.2 M498,297.5c1.5-1.9,2.1-10,3.2-9.6s2.4,10.7,2.4,10.7 M481.3,299.3
			c0,0-0.2-8.5,3.1-10.2l1.7,4.5 M484.4,289.1c0.9-7.1,7.2-9.4,7.2-9.4c-1.5,8.2,0.4,13.9,0.4,13.9 M477.7,308.9
			c0,0-2.7-10.3,1.3-22.3c4-12,10.6-15.6,10.6-15.6s-4.4,9.4-4.4,14.9 M491,286.2c3.2-1.7,7.6-11.6,7.6-11.6
			c1.8,3-2.4,14.9-2.4,14.9c4.8-6.3,9.4-20.5,9.4-20.5c1.8,6.8-2.9,19.3-1.4,19.8c1.6,0.5,4.3-11.2,5.7-10.4s-1.6,13-0.2,13.5
			s4-11.5,5.2-11c1.2,0.5,0.5,15.4,0.5,15.4 M493.2,295.4c0,0,1.4-4.4,3-5.9c0,0-0.9,2.9,1.4,5.1 M490.6,280.1c0,0,1.5-3,4.6-3.8
			c0,0-0.6,1.3,1.1,3 M523.1,294.2c0,0,9.4-10.6,18.9-19s15.1-11.6,18.5-13.1s7.9-6.5,7.9-6.5 M524,293.3c0,0,5.5-7.9,11.2-19.2
			s13-19.3,13-19.3 M517.7,289.5c-0.3-6.9,1.5-8,5.4-17.5s6-13.1,11.4-20.8c5.4-7.6,9.8-11.8,9.8-11.8 M519.2,241.7
			c0,0,0.5,13.7-1.5,22.7c-2,9-3,17.1-7.7,20.4 M497,277.8c-1-5.4,0.1-11,1.9-18.7c1.9-7.6,8-18.9,10.6-22.1
			c2.6-3.3,2.5-7.6,2.5-7.6 M494,276.7c-0.1-4.3-1.6-11.2-3.4-16.3c-1.8-5.1-1.9-19.6-1.9-19.6 M460.8,274.5c0,0-1.7-11-1.5-21.6
			c0.2-10.6,5.6-20.1,5.6-20.1 M470.7,231.1c0,0,5.2,11.5,7.4,22.5c2.3,11.1,3.4,14.3,4.2,25.4"></path>
		<path class="st0" d="M504.9,1217.5c0,0-4.4,10-6.9-2.5c-0.8-4.1-1.8-55.5-1.8-55.5l-2.8-114.8l-2.5-65.1 M502.2,978.5
			c0,0,3,138.7,3.3,152.7s-1.5,54.6-1.5,54.6s0.8,28.4,0.9,31.2 M488.2,852.7c0,0,2.5,22.8,6.3,48s6.6,71.8,6.6,71.8l-11,1
			c0,0-1.9-32.3-4.5-54.3c-2.7-22-7.7-67-7.7-67 M487,848.4l-0.6-4.2 M485.4,837.9l-0.9-6.4 M483.8,827l-1-6.4 M481.7,815.7
			l-0.9-6.2 M468.8,801c0,0-3.9-28.4-9.9-53.8c-6-25.3-14-79-16.2-137c-2.2-58,2.8-91.7,5.2-117.3c2.3-25.6,3.3-33.8,18.1-82.5
			s25.1-66.3,25.1-66.3c-16.3-4.2-29-8.3-41.5-13.9s-31.8-3.5-31.1-10.3s33.4-2.4,33.4-2.4s-34.6-33.4-33-37.1
			c2.9-6.6,23.8,13.1,23.8,13.1c-13.7-16.1-20.9-27.4-27-40.6c-6.1-13.1-2.4-16.4,10.1-2.9c12.5,13.5,26,36.5,26,36.5
			c-8.3-24-14.1-44.8-12.1-46.5s7.8,11.5,9.4,11s-1.3-24.3-0.6-36.5s4.6-6.5,7.3-3.8c5.4,5.9,8.2,22.2,9.8,22.2c1.6,0,2.1-4,3-4.4
			c1-0.4,2,2.9,3,2.5s2-6.5,2.9-9.8c2.9-11.1,4.9-11.8,6.6-2.3s7.8,21.5,7.8,21.5c4.5-17.7,7.1-23.3,10.1-30.9
			c3-7.7,7.3-4.8,8.2,1.9c0.9,6.8,5.1,17.7,5.1,17.7s1.1-3.4,3.1-2.4s4,14.8,4,14.8s19.4-18.3,22.9-17.8c3.5,0.6,2.2,15.4,2.2,15.4
			s4.4-2.4,5.7,0c2.7,5.2-1.8,15.4-1.8,15.4s22.9-12.3,23.9-9.6s-3.6,10.4-3.7,10.4c13.3-3.7,13.3,3,10.1,7
			c-3.2,4-19.4,23.3-19.4,23.3s9.8-5.3,11.1-2.7s0.8,5.3,0.8,5.3s13.3-4.4,14.1-1.4c1.6,4.8-22.3,17.8-22.3,17.8s5.1-3,6.8,0
			s-4.3,7.6-13.2,14.4c-8.9,6.8-26.5,14.9-26.5,14.9s23.8-3.5,24.3,0.9s-20,10.8-32.3,11.1c-12.2,0.4-22.7,1.2-22.7,1.2
			c-23,48.5-45,135.8-46,217.7c-1,103.8,26.3,236.8,26.3,236.8 M470.4,809.4l1.3,5.5 M472.1,819.9l0.9,6.1 M474.1,831.1l1.2,6.8
			 M475.9,843.8l0.7,4"></path>
	</g>
	<g id="flower-2">
		<path class="st4" d="M289.1,505.2c0,0-17.7-4.4-20-22.9 M281.3,466.2c20.2,3.6,24.4,20.6,24.4,20.6 M296.2,472.8
			c18-9.3,26.2-10.2,26.2-10.2 M320,442.2c0,0-20.8,16.4-36.3,16.7 M334,405.7c0,0-10.1,4.5-17.8,14.7
			c-7.7,10.2-24.3,21.7-37.1,27.5 M323.1,395c0,0-9.7,11.9-12.9,20.3c-1.4,3.5-31,31.6-31,31.6 M303.7,398.1
			c0,0-11.5,21.9-26.8,37.1 M268.4,433c-1.2-3.7-0.3-6,1.7-12c2-6.1,12.3-38.5,12.3-38.5 M262,430.5c0,0-2.7-13.5-2.4-21.4
			s1.1-13.7-0.5-21.3 M239.5,390.7c0,0,4.3,14.1,7.5,20.1s5.8,15.3,5.9,19.5 M241.7,437.1c0,0-7.3-5.1-10.6-13s-11.6-22.3-11.6-22.3
			 M192.2,412.5c0,0,17.8,9.4,25.5,14.9s16.8,12.1,19.3,16.1 M167.2,422.9c0,0,18.3,6,31,11.5s31.1,16.1,33.8,16.3 M229,463.2
			c0,0-6.8,0.5-14.4,0.5c-4.6-3.5-12.4-4.5-22.4-7.4c-20.1-8.3-21.9-6.4-21.9-6.4 M157.3,472.2c0,0,14.2-4.5,24.4-5.2
			s32.9-3.3,32.9-3.3 M229.5,473.8c-14.2,8.4-37.1,15.9-37.1,15.9 M233.2,481.9c-10.6,11.9-25.7,22.1-25.7,22.1 M203.2,526.8
			c0,0,5.2-8.3,20.8-21.9s16.2-17.3,16.2-17.3 M214.2,552c-0.7-3.9-0.5-4.4,1.6-15c2.1-10.6,10.4-20.4,14.8-27.9
			c4.4-7.5,13.8-18.6,13.7-20.4 M258.7,491.6c0,0-3.4,14.9-8.3,22.8s-9.6,17-9.6,17 M267.2,536.2c0,0-6.6-3.5-9.8-12
			c-3.1-8.5-2.8-19.1-2.8-19.1 M377.9,589.3c0,0,1.3-14.2,0.3-15.1c-5.9-5.8-5.6-20-4.3-29.5s2-12.8,4.1-21.3
			c0.4-8.2,3.9-22.1,3.9-22.1c1.7,3,7.5,21.7,11.3,33.9s2.2,30-1.1,35.2s-9.1,7.6-9.8,9.5c-0.7,1.9-1.4,14.3-1.4,14.3"></path>
		<path class="st0" d="M454.1,1210.7v0.7c0,0-0.3,3.8-3.9,3.6c-2.3-4.8-2.7-33.9-3-57s0.6-115.9-1.7-128.3s-0.8-48.8-0.8-48.8
			l11.4,0.3 M456,981.2c0,0-0.4,34-0.1,43.2c0.3,9.2,0.7,68.6,0.3,75.2s-2.7,44.8-1.4,59.6c0.6,6.4,3,15,0.9,25.7
			c-2.2,10.7-1.7,25.8-1.7,25.8 M455.3,924.8c1.3,30,1.3,50.9,1.3,50.9l-12.5-0.9c0,0,2.7-52.6,5-79.8 M454.6,850.7
			c0.5,7.8,1.2,34.1,1.2,34.1 M454.4,846.4l-0.4-4 M453.3,836.1l-0.9-6.4 M451.9,823.6l-0.4-5.5 M450.9,812.6l-0.4-5.5 M362.9,566.9
			c12.1,16.7,31,47.5,44.8,75.8c13.8,28.2,27.2,71.8,33.3,91.1c6.2,19.3,8.5,58.9,8.5,58.9l0.3,6.4 M306.2,493
			c0,0,3.8,1.4,22.5,23.4c18.7,22,28.1,40.4,28.1,40.4 M297.1,501.9c0,0,21.6,24.3,30.8,37.2 M339.4,555.6l6.3,9.9 M368.8,600.6
			l8.4,11.8 M380.6,620.8c0,0,28.3,47.1,42,93.8c13.7,46.7,18.8,84.5,18.8,84.5 M442.2,805.9l0.8,6.1 M443.7,817.2l0.6,5.2
			 M444.9,829l0.8,7.1 M446.5,841.6v4 M305.7,486.8c0,0-0.6,8.1-5.4,12.5c-4.8,4.4-11.2,5.8-11.2,5.8s-1.3,27.2-10.1,30.1
			c-2.8,0.9-3-2.3-4.5-1.3s-2.3,3-3.7,3.2s-3.7-0.8-3.7-0.8s-4.2,20.2-14.5,21.8c-5.9,1-8.7-15.2-11.8-26.7c0,0-19.4,23.3-22.5,22.4
			c-3.1-0.8-4.2-1.8-4.2-1.8s-9.8,9.8-15.1,9.2c-5.3-0.7-3.4-12.9-1.3-19.1c2.2-6.2,5.3-15.3,5.3-15.3s-22.1,18.9-25.4,14.3
			c-4.4-5.9,32.5-33.6,29.7-37.1c-1.5-2.3-32.3,13.9-43.4,13.8c-11.2-0.2-7.5-9.7,0-13.7s28.3-14.4,28.3-14.4s-38.6,1.3-42-1.8
			c-3.4-3-3.3-10.2,6.9-15.8c0,0-8.7-2.8-9.6-8.9c-0.9-6.1,22.6-13.3,22.6-13.3s-21.5-12.3-19-21.5c1.6-6.1,11.8-6.1,15.9-5.6
			c0,0-5.1-5.5-2.9-10.4s20-2.9,27.9,0c0,0-8.3-16.1-3.7-20.2c4.7-4.1,31,9.5,31,9.5s-10.7-34.1-1.9-37.4
			c4.3-1.4,12.9,8.9,21.8,26.3c0,0-2.6-34.4,8.5-38.1c5.3-2,9,27,11.1,35.3c0,0,4.6-41.3,17.6-40.5s5.7,35,5.7,35
			s14.2-31.3,22.3-27.4s-1,43.1-1,43.1s21.8-28.8,27.6-26.1c5,2.6-8.3,23-8.3,23s10.5-8.8,14.9-5.7c4.4,3.1-1.3,13.7-4,16.4
			c0,0,2.7,0.6,3.3,1.8c0.6,1.3-1.7,5.3-1.3,6.3c0.4,1.1,2.2,1.9,2.3,3.7c0.1,1.8-11.8,18.7-18.3,24.6c0,0,22.8-4.9,19.6,4.6
			c-3.1,9.5-4.7,10.2-17.2,15.8c0,0,24.8,4,20.3,13.7C338.2,485.9,332.6,488.7,305.7,486.8z M252.9,430.4c2.7-0.2,2.6,2.4,5,2.4
			c2.4-0.1,3.8-4.1,7-1.5s7.1,1.9,9.5,2.4s4.9,3.9,6.1,6.3s-1.2,4.7-1.3,7.9s4.6,5.7,4.6,9.6c0,3.9-3.7,4.8-2.7,7.2s-1,5.1-2.8,8.6
			s-6.3,7.5-8.2,8.3c-1.9,0.8-9.4,10-11.4,10s-5-5.2-7.3-5.2c-2.3,0-6.2,2.8-9.2,2.3s-2.7-3.3-4.2-5.1s-4.5,1.3-5.5-3.4
			s-5.6-9.3-5.8-10.6s2.2-3.8,2.7-5.1c0.5-1.3-1.7-1.5-1.6-6.3s2.8-3.6,4.7-8.6s5.8-7.3,6.9-8s1-4.3,2.3-4.6
			c1.3-0.3,6.3-4.2,6.3-4.2S250.2,430.6,252.9,430.4z"></path>
	</g>
	<g id="flower-1">
		<path class="st4" d="M402.5,766.8l-12.3-6.6c0,0-2.7,3.8-12.9,4.3s-24.4-3.8-37.5-13.2c-13.1-9.4-25.1-20.5-27.3-22.7
			c-2.3-2.2-14.7-8.7-12.3-10.2s11.7,2.8,14.5,3.1c7.2,0.6,23.6,4.7,45.1,12.2s30.8,22.3,30.8,22.3l9,4.4 M340.3,673.6
			c0,0-14.4-3.8-14.6-5.6s7.5-8.5,11.8-8.5s8.7,10.8,8.7,10.8 M333.9,678.1c0,0-39,1.4-52.4-5.3c-1.9-1.2,8.5-1.6,12.9-4.1
			s13.1-3.8,18.1-4.1s13.2,3.3,13.2,3.3 M298,684.6l14.2-6.7 M270.9,676.2l10.6-3.4 M338.4,659.7c0,0-0.5-1.9,1.5-13.5
			c2-11.6,11.5-22.9,14.5-21.4s3.5,10.4,2.9,21.3s-12.3,21.5-12.3,21.5 M365.5,626.9l-8,14.2 M342.3,638.2c0,0-0.1-8.9-0.3-14.9
			c-0.2-6,4.2-18.3,6.7-16.3c6,5,5.6,17.8,5.6,17.8 M362.4,580.4c0,0-2.7,7.8-3,11.7s-0.3,9.3-1.3,12.9c-1,3.7-4.1,14.7-4.1,14.7
			 M352.7,565.1c0,0,2.2,12,0,21.3c-2.2,9.3-3.1,16.2-3.1,21.4 M342.1,622.4c0,0-2.8-6.1-2.4-18.7c0.4-12.6,2.8-22.3,3.5-30.1
			 M320.2,666c0,0-7.8-1.7-3.8-15c0.7-2.4,1.9,1.9,8.6,1.7c6.7-0.3,11.9,1.9,12.5,6.9 M312.5,664.7c0,0-4.9-1.4-22.2,0
			c-17.3,1.3-24.8-2.1-24.8-2.1 M239.1,641.8c0,0,4.5,3.8,30,6.7c11.5,1.4,24.4,7.1,33.8,8.3s12.5,3.3,12.5,3.3 M309.3,658
			c-6.8-4.2-10.5-19.6-9-19.8c1.5-0.2,8.2,11.9,9.3,11.3c1.1-0.6-2.7-7.8-1.6-8.7c1.1-0.8,5.8,5.7,7.2,4.6
			c1.5-1.1-8.2-13.6-6.6-15.6s13.9,16.7,15.3,15.5c1.4-1.2-9.8-17.3-8.8-18.3c4.3-2.8,16.3,18.8,16.4,17.4
			c0.7-7.4-13.3-22.3-11.5-23.8c1.8-1.4,12.4,14.8,13.2,14c0.8-0.8-6.8-14.5-7-17.8c8.6,8.1,15.7,21.8,15.7,21.8 M306.8,657.4
			c0,0-10-5.4-15.8-14.5c-5.8-9.2-7.1-13.6-7.5-20.8c6.4,9.8,12.5,22.5,19.4,27.3 M305.1,643.9c0,0-2.7-8.6-1.5-9.8
			c1.3-1.2,9.4,5.7,9.4,5.7 M309,629.7c0,0-5.1-4.7-3.4-6.3s9.6,3.7,9.6,3.7 M313.8,626.2c0,0-1.8-3.6-1-4.5s7.6,0.7,7.6,0.7
			 M323,622.7c-0.7-7.4-4.2-5.6-3.1-7.8s6.4,2.1,6.4,2.1 M303.3,636.4c0,0-12.6-16.8-10.9-18.5s6.7,5.4,7.6,4.8
			c2.4-2.1-9.2-14.8-7.4-16.2s13.7,15.1,14.7,14.4s-4.8-10.9-4-11.7s9.8,10.4,10.9,9.2s-6.8-9-5.7-10.7c1.1-1.6,9.2,6.6,10.4,5.9
			s-3-7.3-2.4-8.1s4.7,4.9,5.2,4.4c0.6-0.5-2.3-7.1-1.3-7.3c0.9-0.2,6.7,8.9,10,13.1s4.2,10.8,4.2,10.8 M291.6,635.4
			c0,0-1.8-7.4-0.8-9.9s4.1,6.8,9.7,7.1 M296.4,642.6c0,0-2.6-4.3-1.3-5.2c1.4-0.8,2.8,2.4,3.2,1.9c0.4-0.5,0.1-2.2,1-3
			c0.9-0.8,4.3,2,4.3,2 M300,622.7c0,0,5.3,7.5,6.8,12.5 M266.2,648.2c0,0-12.7-7.4-18.1-13c-5.4-5.6-9.2-9.2-14-19.3 M237.7,609.5
			c0,0,17.1,6.6,47.6,22.6 M293,620.8c-6.3,1.8-35.9-18.4-35.9-18.4 M292.3,618.9c0,0-8.3-4.4-17.3-20.9S263.4,572,263.4,572
			 M278.5,576.8c0,0,11.9,10.7,17.1,15.7s13.7,17.7,13.7,17.7 M317,612.9c0,0-9.9-15.2-15.9-28.8c-6-13.6-7.9-30.5-7.9-30.5
			 M324.3,607.4c0,0-4.7-34.6,0-63.8 M323.5,600.1c-7.4-11.7-14.1-38.4-14.1-38.4"></path>
		<path class="st0" d="M481.5,1203.9c-0.2,8.7-2.2,10.4-4.6,10.3c-2.4-0.1-2.4-3.5-2.4-3.5l-0.1-8.7c-0.2-10.7-0.8-29.3-2.2-37.4
			c-2.1-11.6-1.6-39.9-2.5-66.7s-2.8-75.9-2.9-83.7s-3.3-33-3.3-33l7.7-0.2c0,0,2.6,36.5,5.6,62s1.2,50.6,0.2,66.4s0.3,28,2.6,45.1
			C481.7,1171.6,481.7,1195.2,481.5,1203.9z M446.3,850c0,0,6.1,21.7,12.9,47.5s11.3,77.9,11.3,77.9l-8.4,0.3
			c-0.6-10.1-4.4-38.4-8.7-61.2s-17.4-65.6-17.4-65.6 M444.9,844.6l-1.3-3.2 M440.9,835.1l-2.8-6.9 M433.4,815.8l2.4,5.5
			 M429.1,803.7l2.7,6.8 M426.7,797.1l-2.2-6.7c0,0-13.8-35.7-21.4-49.1s-27.9-46.1-32-52.8c-4.2-6.7-13.8-20.3-14.7-24.2
			c-0.9-3.9,1.5-6,8-14.1c6.6-8.1,16.8-26,17.7-36.3c0.3-6.3-2.8-4.9-6.1,0c-3.3,4.9-10.5,12.9-10.5,12.9s2.9-15.3,3.3-25.4
			s0.8-23.6-1.8-24.9s-4.6,3.8-4.6,3.8s1.8-27.4-0.9-28.4s-8.7,13.1-8.7,13.1s-2.2-2.8-4-2.8s-5.3,6.3-5.6,11.3
			c0,0-5.1-24.9-6.8-31.9c-0.9-4.1-7-5.9-8.5-2.7s-5.3,8.3-7,1.4c-1.7-6.9-5.3-7.2-6.9,0.7s-4.6,20.6-4.6,20.6s-10.9-19.5-16.2-8
			c0,0-10.5-9.4-13.4-7.4s-1.4,30.8-1.4,30.8s-12.9-7.5-14.4-6.3s-0.8,4.6-0.8,4.6s-25-11.7-26.3-9.6c-1.3,2.1,0.6,9.2,20,36.6
			c0,0-10.4-2.1-14.8-4.4c-4.4-2.3-13.7-8.1-15.2-6.3s10.7,17.9,10.7,17.9s-3.7-0.5-4.5,1.2c-0.8,1.7,1.9,5.6,1.9,5.6
			s-14.8-4.4-18.2-5.2s-11.3-3-12.7,0.1c-1.4,3.1,5.7,9.7,17.5,17.6c11.8,7.9,17.8,11.8,17.3,13.1c-0.6,1.3-14.1-1.2-14.7,0.8
			c-1.1,3.3,26.5,15.2,41.2,20c0,0-33-1.8-43.5-1s-14.3,2.5-14.3,4s7.2,7.5,28,9.3c20.9,1.8,35.1,1.4,35.1,1.4s-26.9,2.9-26.9,11
			c-0.1,5.3,54-2.6,54-2.6s-25,21.9-21.5,29.8c1.6,3.5,17.4-11.3,25.3-16.5c7.8-5.2,28-16.9,33.8-20.8s8.3-6.8,10.7-6.8
			c2.4,0,12.5,23.5,20,35s18.2,28.3,23.8,37.5c5.7,9.2,22.8,44.8,24.8,52.5 M417.5,801.6l3.5,7.7 M425.9,820.1l-2.9-5.9
			 M430.4,834.2l-2.4-7.2 M432.3,840l2.3,4.6"></path>
	</g>
</g>
<g id="jar-body-clip">
	<path id="jar-clip-bottom" class="st0" d="M617.4,1199c18.2-0.3,32.1-0.4,33.7-0.1c4.8,1,8,4.8-2,11.5
		c-21.3,13.6-63.1,27.8-96.7,27.8c-41.8,0-41.9,0.3-62.4,0s-63.3-2.8-85-14.8c-5.1-3-15.4-11.6-3.1-16.7 M597.6,1199.4
		c4.2-0.1,8.4-0.2,12.5-0.2 M564,1200.2c8.3-0.2,17.1-0.4,25.8-0.6 M528.5,1201.1c6.2-0.2,16.1-0.4,27.6-0.7 M504.4,1201.2
		c5.6,0,10.1,0,13.1,0 M481.6,1201.4c5.6-0.1,10.9-0.1,15.7-0.2 M454.1,1202c6.9-0.2,13.7-0.3,20.3-0.4 M410.4,1204.5
		c3.3-0.6,7.3-1,12-1.3c8.1-0.5,16.9-0.8,25.9-1.1"></path>
	<path id="jar-clip-water-level" class="st0" d="M393.5,977.5c-12.6-0.3-12.1-5.4-9.7-7c1.2-0.8,5.2-1,10.3-0.9 M605.8,960.9
		c5.6-0.4,11.8-0.7,19.2-0.9c38.8-1.3,42,6.5,36.8,7.5c-19.3,3.5-20,6-65,9.5s-57,0.3-71.8,0c-14.7-0.3-34.7,4-64.5,4.3
		s-36.1-2.2-48.3-4.3c-3.6-0.2-1.8-0.1-7.3,0.2 M582.2,963c4.6-0.5,9-0.9,13.8-1.3 M540.5,966.4c-2.3,0.1-4.7,0.2-7.2,0.3
		c-1.8,0.1-4,0.1-6.6,0 M500.7,965.6c5.1,0.1,10,0.3,14.5,0.6 M469.8,967.5c2.9-0.3,5.7-0.7,8.7-1c3.6-0.4,7.4-0.7,11.1-0.8
		 M456.6,969c1.6-0.2,3.3-0.3,4.9-0.5 M405.6,970.2c2.2,0.1,4.5,0.2,6.6,0.3c12.2,0.5,22.5,0.2,32.1-0.5 M549.3,965.9
		c10.3-0.7,18.3-1.4,25.6-2.1"></path>
	<path id="jar-clip-countur" class="st0" d="M438,779.2c-6.8-0.2-12.9-0.4-18.2-0.5 M448.5,779.5c5.3,0.1,10.9,0.2,16.9,0.3
		 M475.4,780c11.6,0.1,24.4,0.3,38.5,0.3 M527.2,780.2c17.9,0,33.2-0.4,46.4-0.8 M582.1,779.1c8.5-0.4,16-0.8,22.5-1.3 M407.9,778.2
		c-11.7-0.5-17.4-0.9-17.4-0.9l0.2,1c0,0,0.8,5.5,0.8,6.7s-2.8,1.3-2.8,2.2c0,0.8,2.7,3.7,2.8,5.7c0.2,2-0.8,3.5-1.4,4.8
		c-0.6,1.3,2.3,2.7,2.3,4.6s-2.8,3.7-2.8,5.5s3.4,4,3.4,5.9c0,1.9-2.6,3.4-2.6,4.8c0,1.3,2.9,2.9,2.6,4.2s-4.1,2.1-3.8,4.4
		s1.4,3.7,0.4,5s-3.7,2.5-3.3,4.9c0.4,2.4,4.7,2.9,4.9,5c0.2,2.1-2.1,9.4,4.5,13.6s8.7,4,8.5,9.9c-0.2,5.9,1,11.3,0,14.3
		c-3.3,7.3-11.8,15-18,26c-6.2,11-9,21.4-9,24s-3.3,98.2-4.8,192c-0.5,20.5-3,59,1.8,79c4.8,22.2,28.6,40.2,40.1,45.7
		c21.7,8.6,113.7,8.6,113.7,8.6s58.3,1.5,104.8-17.3c20-7.5,35-19.5,37-41.8c4.1-31.4-1.4-100.1-1.8-145.4
		c-0.3-45.3,0-102.1,0-102.1s1-38.3-7.3-52.6c-8.3-14.3-17-19-17.7-21.3c-0.7-2.3-1.3-18.5-0.3-20.6c0.9-2.1,7.9-4.1,7.9-15.5
		c0,0,7.1-3,7.1-6.7c0-2.5-5.4-4.6-5.4-8.4s2.9-2.9,2.9-5.4s-4.6-1.6-4.6-3.7s2.5-2.3,2.5-3.9c0-1.7-3.5-1.8-3.5-5.1
		s1.7-3.4,1.7-4.8c0-1.5-3.8-2.5-3.8-5.3c0-2.8,2.1-2.6,2.1-4.5s-3.5-2-3.5-4.8c0-2.8,2.8-3,2.8-5c0-2,1.3-7.1-3.4-7.4
		c-2.5-0.1-11.6,1.8-33.3,3.6"></path>
	<path id="f-clip6" class="st0" d="M589.9,1199.6c2.6-0.1,5.2-0.1,7.7-0.2 M574.9,963.8c2.5-0.2,4.9-0.5,7.2-0.7 M582.1,779.1
		c-2.7,0.1-5.5,0.2-8.5,0.3"></path>
	<path id="f-clip5" class="st0" d="M556.1,1200.4c2.6-0.1,5.2-0.1,7.9-0.2 M540.5,966.4c3.2-0.2,6.1-0.3,8.9-0.5"></path>
	<path id="f-clip4" class="st0" d="M610,1199.2c2.5,0,5-0.1,7.3-0.1 M517.5,1201.2c2.6,0,4.1,0,4.1,0s2.6-0.1,7-0.2 M595.9,961.7
		c3.1-0.3,6.3-0.5,9.9-0.8 M515.1,966.2c4.3,0.2,8.2,0.5,11.5,0.6 M612.5,777.1c-2.5,0.2-5.1,0.4-7.9,0.6 M527.2,780.2
		c-1.2,0-2.5,0-3.8,0c-3.3,0-6.5,0-9.7,0"></path>
	<path id="f-clip3" class="st0" d="M497.3,1201.3c2.5,0,4.9,0,7.1,0 M489.6,965.7c3.7-0.1,7.4-0.1,11.1-0.1 M475.4,780
		c-3.4,0-6.7-0.1-9.9-0.1"></path>
	<path id="f-clip2" class="st0" d="M448.3,1202.1c1.9-0.1,3.8-0.1,5.7-0.2 M444.3,970.1c4.2-0.3,8.3-0.7,12.3-1.1 M448.5,779.5
		c-3.7-0.1-7.2-0.2-10.5-0.3"></path>
	<path id="f-clip1" class="st0" d="M474.3,1201.5c2.5,0,4.9-0.1,7.2-0.1 M461.5,968.5c2.7-0.3,5.5-0.6,8.3-1 M419.9,778.7
		c-4.5-0.2-8.5-0.3-11.9-0.5"></path>
</g>

<style>

	:root {
	  --main-duration-2c: 10.5s;
	}

	#jar-body-clip, #flowers > * {
		opacity: 0;
	}

	#jar #jar-body #water-level {
		-webkit-transform: translateY(210px);
		    -ms-transform: translateY(210px);
		        transform: translateY(210px);
		-webkit-animation: drawing calc(0.1 *  var(--main-duration-2c)) linear calc(0.19 *  var(--main-duration-2c)) forwards, moving calc(0.1 *  var(--main-duration-2c)) ease-in calc(0.29 *  var(--main-duration-2c)) forwards;
		        animation: drawing calc(0.1 *  var(--main-duration-2c)) linear calc(0.19 *  var(--main-duration-2c)) forwards, moving calc(0.1 *  var(--main-duration-2c)) ease-in calc(0.29 *  var(--main-duration-2c)) forwards;
	}
	#jar #jar-body #clip-water {
		-webkit-transform: translateY(-210px);
		    -ms-transform: translateY(-210px);
		        transform: translateY(-210px);
		-webkit-animation: moving calc(0.1 *  var(--main-duration-2c)) ease-in calc(0.29 *  var(--main-duration-2c)) forwards;
		        animation: moving calc(0.1 *  var(--main-duration-2c)) ease-in calc(0.29 *  var(--main-duration-2c)) forwards;
	}

	#jar path:not(#water-level) {
		-webkit-animation: drawing calc(0.19 *  var(--main-duration-2c)) linear 0s forwards;
		        animation: drawing calc(0.19 *  var(--main-duration-2c)) linear 0s forwards;
	}

	#jar-body-clip {
		-webkit-animation: fadeIn 0.01s linear calc(0.4 *  var(--main-duration-2c)) forwards;
		        animation: fadeIn 0.01s linear calc(0.4 *  var(--main-duration-2c)) forwards;
	}
	#jar #jar-body {
		-webkit-animation: fadeOut 0.01s linear calc(0.4 *  var(--main-duration-2c)) forwards;
		        animation: fadeOut 0.01s linear calc(0.4 *  var(--main-duration-2c)) forwards;
	}


	#flowers #flower-1 {
		-webkit-animation: fadeIn calc(0.1 *  var(--main-duration-2c)) linear calc(0.43 *  var(--main-duration-2c)) forwards;
		        animation: fadeIn calc(0.1 *  var(--main-duration-2c)) linear calc(0.43 *  var(--main-duration-2c)) forwards;
	}
	#flowers #flower-2 {
		-webkit-animation: fadeIn calc(0.1 *  var(--main-duration-2c)) linear calc(0.53 *  var(--main-duration-2c)) forwards;
		        animation: fadeIn calc(0.1 *  var(--main-duration-2c)) linear calc(0.53 *  var(--main-duration-2c)) forwards;
	}
	#flowers #flower-3 {
		-webkit-animation: fadeIn calc(0.1 *  var(--main-duration-2c)) linear calc(0.62 *  var(--main-duration-2c)) forwards;
		        animation: fadeIn calc(0.1 *  var(--main-duration-2c)) linear calc(0.62 *  var(--main-duration-2c)) forwards;
	}
	#flowers #flower-4 {
		-webkit-animation: fadeIn calc(0.1 *  var(--main-duration-2c)) linear calc(0.71 *  var(--main-duration-2c)) forwards;
		        animation: fadeIn calc(0.1 *  var(--main-duration-2c)) linear calc(0.71 *  var(--main-duration-2c)) forwards;
	}
	#flowers #flower-5 {
		-webkit-animation: fadeIn calc(0.1 *  var(--main-duration-2c)) linear calc(0.81 *  var(--main-duration-2c)) forwards;
		        animation: fadeIn calc(0.1 *  var(--main-duration-2c)) linear calc(0.81 *  var(--main-duration-2c)) forwards;
	}
	#flowers #flower-6 {
		-webkit-animation: fadeIn calc(0.1 *  var(--main-duration-2c)) linear calc(0.9 *  var(--main-duration-2c)) forwards;
		        animation: fadeIn calc(0.1 *  var(--main-duration-2c)) linear calc(0.9 *  var(--main-duration-2c)) forwards;
	}


	#jar-body-clip #f-clip1 {
		-webkit-animation: fadeOut calc(0.1 *  var(--main-duration-2c)) linear calc(0.43 *  var(--main-duration-2c)) forwards;
		        animation: fadeOut calc(0.1 *  var(--main-duration-2c)) linear calc(0.43 *  var(--main-duration-2c)) forwards;
	}
	#jar-body-clip #f-clip2 {
		-webkit-animation: fadeOut calc(0.1 *  var(--main-duration-2c)) linear calc(0.53 *  var(--main-duration-2c)) forwards;
		        animation: fadeOut calc(0.1 *  var(--main-duration-2c)) linear calc(0.53 *  var(--main-duration-2c)) forwards;
	}
	#jar-body-clip #f-clip3 {
		-webkit-animation: fadeOut calc(0.1 *  var(--main-duration-2c)) linear calc(0.62 *  var(--main-duration-2c)) forwards;
		        animation: fadeOut calc(0.1 *  var(--main-duration-2c)) linear calc(0.62 *  var(--main-duration-2c)) forwards;
	}
	#jar-body-clip #f-clip4 {
		-webkit-animation: fadeOut calc(0.1 *  var(--main-duration-2c)) linear calc(0.71 *  var(--main-duration-2c)) forwards;
		        animation: fadeOut calc(0.1 *  var(--main-duration-2c)) linear calc(0.71 *  var(--main-duration-2c)) forwards;
	}
	#jar-body-clip #f-clip5 {
		-webkit-animation: fadeOut calc(0.1 *  var(--main-duration-2c)) linear calc(0.81 *  var(--main-duration-2c)) forwards;
		        animation: fadeOut calc(0.1 *  var(--main-duration-2c)) linear calc(0.81 *  var(--main-duration-2c)) forwards;
	}
	#jar-body-clip #f-clip6 {
		-webkit-animation: fadeOut calc(0.1 *  var(--main-duration-2c)) linear calc(0.9 *  var(--main-duration-2c)) forwards;
		        animation: fadeOut calc(0.1 *  var(--main-duration-2c)) linear calc(0.9 *  var(--main-duration-2c)) forwards;
	}



	@-webkit-keyframes drawing {
		to {
			stroke-dashoffset: 0;
		}
	}

	@keyframes drawing {
		to {
			stroke-dashoffset: 0;
		}
	}

	@-webkit-keyframes moving {
		to {
			-webkit-transform: translate(0px, 0px);
			        transform: translate(0px, 0px);
		}
	}

	@keyframes moving {
		to {
			-webkit-transform: translate(0px, 0px);
			        transform: translate(0px, 0px);
		}
	}

	@-webkit-keyframes fadeIn {
		from {
			opacity: 0;
		}
		to {
			opacity: 1;
		}
	}

	@keyframes fadeIn {
		from {
			opacity: 0;
		}
		to {
			opacity: 1;
		}
	}

	@-webkit-keyframes fadeOut {
		from {
			opacity: 1;
		}
		to {
			opacity: 0;
		}
	}

	@keyframes fadeOut {
		from {
			opacity: 1;
		}
		to {
			opacity: 0;
		}
	}


</style>
</svg>