<svg version="1.1" id="cat-walk-animation" xmlns="http://www.w3.org/2000/svg" xmlns:xlink="http://www.w3.org/1999/xlink" x="0px"
	 y="0px" viewBox="0 0 500 500" enable-background="new 0 0 500 500" xml:space="preserve">
<g>
	<defs>
		<clipPath id="cw-mini-clip">
			<path overflow="visible" stroke="none"  d="M360.1,296.3c1-2.8,2-5.6,2.9-8.4c6.1-17.6,12.3-35.2,18.4-52.8c3.7-10.6,7.4-21.2,11-31.8
				c2.9-8.2,5.7-16.4,8.6-24.6c0.7-1.9,1.7-3.7,3.2-5.1c4.5-4.2,11.1-3.3,14.9,1c2.8,3.1,3.5,6.6,2.1,10.6
				c-4.3,11.9-8.6,23.8-12.8,35.7c-3.9,10.9-7.8,21.8-11.8,32.7c-5.7,15.8-11.4,31.6-17.1,47.4c-2.8,7.8-5.6,15.6-8.4,23.4
				c-0.7,2.1-1.8,3.9-3.4,5.5c-2.1,2-4.5,3-7.4,3c-1,0-2,0.1-3-0.1c-3.7-0.6-6.2-2.8-8-5.9c-0.6-1-1-2-1.4-3
				c-3.3-9.9-6.7-19.7-10-29.6c-4.8-14.1-9.5-28.2-14.3-42.2c-4.4-13.1-8.9-26.2-13.3-39.4c-0.2-0.5-0.3-0.9-0.6-1.5
				c-0.6,0.4-0.6,1-0.8,1.5c-2.3,6.8-4.5,13.5-6.8,20.3c-4.7,13.8-9.3,27.7-14,41.5c-3.5,10.5-7.1,21.1-10.6,31.6
				c-2,5.8-3.9,11.7-5.9,17.5c-0.8,2.3-1.9,4.5-3.6,6.2c-2,2-4.5,3-7.4,3.1c-1.1,0-2.1,0.1-3.2-0.1c-4.4-0.8-7.1-3.5-8.7-7.4
				c-0.9-2.1-1.6-4.3-2.4-6.4c-6.4-17.7-12.8-35.5-19.2-53.2c-5.5-15.1-5.5-15.7-11-30.8c-0.8-2.2-1.6-4.4-2.3-6.6
				c-1.7-5.2,1.6-10.5,5.6-12.5c4.7-2.4,10.3-1.2,13.5,2.9c1,1.3,1.8,2.8,2.4,4.4c3.5,10.2,1.6,5.8,5.1,16
				c6.4,18.7,12.9,37.4,19.4,56c0.1,0.4,0.2,0.8,0.6,1.1c0.5-0.5,0.6-1.1,0.8-1.7c3.9-12,7.9-23.9,11.8-35.9
				c4.4-13.5,8.8-27,13.3-40.5c3.7-11.3,7.4-22.7,11.1-34c0.6-1.7,1.1-3.5,1.7-5.2c0.4-1.2,0.9-2.3,1.6-3.3c2.1-3.1,5-4.7,8.8-4.8
				c3-0.1,5.7,0.5,8.1,2.5c1.8,1.6,3,3.5,3.7,5.8c2.1,6.4,4.2,12.9,6.3,19.3c3.5,10.6,6.9,21.1,10.4,31.7c5.7,17.5,11.5,35,17.2,52.5
				c1.4,4.1,2.7,8.3,4,12.4c0.2,0.5,0.3,0.9,0.5,1.4C359.9,296.3,360,296.3,360.1,296.3z M148.4,311.9c-8.4-1.4-16.1-4.4-23-9.3
				c-10.5-7.4-17.7-17.3-22-29.4c-3.3-9.3-4.3-19-3.5-28.8c0.7-9.1,3.1-17.8,7.6-25.8c6.7-12.2,16.5-21.1,29.6-26.2
				c6.6-2.6,13.5-3.7,20.6-3.8c2.4,0,4.9,0.2,7.4,0.4c6.4,0.7,12.6,2.4,18.5,5.1c6.1,2.9,11.5,6.7,16.6,11.1c2.9,2.5,6.3,3.6,10,2.8
				c7.4-1.7,11.7-10.5,5.7-17.4c-1-1.1-2.1-2-3.3-2.9c-6.8-5.5-14.1-10-22.2-13.3c-8.6-3.5-17.6-5.2-26.9-5.7
				c-7.9-0.4-15.8,0-23.5,1.8c-17.7,4-32.4,12.9-43.9,26.9c-12.1,14.8-17.9,31.9-18.6,50.9c-0.3,6.8,0.4,13.6,1.7,20.3
				c3.9,18.8,12.9,34.5,27.9,46.7c13.3,10.8,28.7,16.3,45.7,17.3c6.1,0.3,12.1,0,18.1-0.8c7.6-1.1,14.8-3.2,21.7-6.4
				c8.7-4,16.4-9.6,23.4-16.1c4.3-4,4.5-10.3,0.5-14.5c-3.9-4.1-10-4.7-14.5-0.4c-1.3,1.3-2.8,2.5-4.2,3.7
				c-5.1,4.2-10.5,7.7-16.6,10.2c-7.5,3.1-15.3,4.4-23.7,4.3C154.7,312.6,151.6,312.4,148.4,311.9z"/>
		</clipPath>
	</defs>
<g clip-path="url(#cw-mini-clip)">
	<path id="path-load-silver1" stroke-linecap="round" stroke-dashoffset="954.4" stroke-dasharray="954.4" fill="none" stroke="#222222" stroke-width="30" stroke-miterlimit="10" d="M218.5,291.3c-12.8,19.2-34.4,31.7-58.9,31.7c-39.3,0-71.1-32.2-71.1-72s31.8-72,71.1-72c23.7,0,44.6,11.7,57.5,29.7l31.5,100.8c0,0,12.1,23.2,23,0.3l25.6-112.4c0,0,10.3-24.6,24.1-1.1l26.2,114.5c0,0,11.4,25.5,24.4-2.9L419,163"/>
	<path id="path-load-red2" stroke-linecap="round" stroke-dashoffset="954.4" stroke-dasharray="954.4" fill="none" stroke="#ed1c32" stroke-width="30" stroke-miterlimit="10" d="M218.5,291.3c-12.8,19.2-34.4,31.7-58.9,31.7c-39.3,0-71.1-32.2-71.1-72s31.8-72,71.1-72c23.7,0,44.6,11.7,57.5,29.7l31.5,100.8c0,0,12.1,23.2,23,0.3l25.6-112.4c0,0,10.3-24.6,24.1-1.1l26.2,114.5c0,0,11.4,25.5,24.4-2.9L419,163"/>
	<path id="path-load-pink3" stroke-linecap="round" stroke-dashoffset="954.4" stroke-dasharray="954.4" fill="none" stroke="#f8b7bb" stroke-width="30" stroke-miterlimit="10" d="M218.5,291.3c-12.8,19.2-34.4,31.7-58.9,31.7c-39.3,0-71.1-32.2-71.1-72s31.8-72,71.1-72c23.7,0,44.6,11.7,57.5,29.7l31.5,100.8c0,0,12.1,23.2,23,0.3l25.6-112.4c0,0,10.3-24.6,24.1-1.1l26.2,114.5c0,0,11.4,25.5,24.4-2.9L419,163"/>
	<path id="path-load-blue4" stroke-linecap="round" stroke-dashoffset="954.4" stroke-dasharray="954.4" fill="none" stroke="#9bd7d3" stroke-width="30" stroke-miterlimit="10" d="M218.5,291.3c-12.8,19.2-34.4,31.7-58.9,31.7c-39.3,0-71.1-32.2-71.1-72s31.8-72,71.1-72c23.7,0,44.6,11.7,57.5,29.7l31.5,100.8c0,0,12.1,23.2,23,0.3l25.6-112.4c0,0,10.3-24.6,24.1-1.1l26.2,114.5c0,0,11.4,25.5,24.4-2.9L419,163"/>
	<path id="path-load-lightOrange5" stroke-linecap="round" stroke-dashoffset="954.4" stroke-dasharray="954.4" fill="none" stroke="#f5ead6" stroke-width="30" stroke-miterlimit="10" d="M218.5,291.3c-12.8,19.2-34.4,31.7-58.9,31.7c-39.3,0-71.1-32.2-71.1-72s31.8-72,71.1-72c23.7,0,44.6,11.7,57.5,29.7l31.5,100.8c0,0,12.1,23.2,23,0.3l25.6-112.4c0,0,10.3-24.6,24.1-1.1l26.2,114.5c0,0,11.4,25.5,24.4-2.9L419,163"/>
	<path id="path-load-lightSilver6" stroke-linecap="round" stroke-dashoffset="954.4" stroke-dasharray="954.4" fill="none" stroke="#c3c4c6" stroke-width="30" stroke-miterlimit="10" d="M218.5,291.3c-12.8,19.2-34.4,31.7-58.9,31.7c-39.3,0-71.1-32.2-71.1-72s31.8-72,71.1-72c23.7,0,44.6,11.7,57.5,29.7l31.5,100.8c0,0,12.1,23.2,23,0.3l25.6-112.4c0,0,10.3-24.6,24.1-1.1l26.2,114.5c0,0,11.4,25.5,24.4-2.9L419,163"/>
	<path id="path-load-silver2" stroke-linecap="round" fill="none" stroke="#222222" stroke-width="30" stroke-miterlimit="10" d="M218.5,291.3c-12.8,19.2-34.4,31.7-58.9,31.7c-39.3,0-71.1-32.2-71.1-72s31.8-72,71.1-72c23.7,0,44.6,11.7,57.5,29.7l31.5,100.8c0,0,12.1,23.2,23,0.3l25.6-112.4c0,0,10.3-24.6,24.1-1.1l26.2,114.5c0,0,11.4,25.5,24.4-2.9L419,163"/>
</g>
</g>
<style>
	#path-load-silver1 {
		-webkit-animation: drawIn 9s linear 0s infinite;
		        animation: drawIn 9s linear 0s infinite;
	}
	#path-load-red2 {
		-webkit-animation: drawIn 9s linear 1.5s infinite;
		        animation: drawIn 9s linear 1.5s infinite;
	}
	#path-load-pink3 {
		-webkit-animation: drawIn 9s linear 3s infinite;
		        animation: drawIn 9s linear 3s infinite;
	}
	#path-load-blue4 {
		-webkit-animation: drawIn 9s linear 4.5s infinite;
		        animation: drawIn 9s linear 4.5s infinite;
	}
	#path-load-lightOrange5 {
		-webkit-animation: drawIn 9s linear 6s infinite;
		        animation: drawIn 9s linear 6s infinite;
	}
	#path-load-lightSilver6 {
		-webkit-animation: drawIn 9s linear 7.5s infinite;
		        animation: drawIn 9s linear 7.5s infinite;
	}
	#path-load-silver2 {
	 stroke-dasharray: 500px 954.4px;
	 stroke-dashoffset: 500px;
	 -webkit-animation: drawIn2 9s linear 9s infinite;
	         animation: drawIn2 9s linear 9s infinite;
	}

	@-webkit-keyframes drawIn {
		0% {
			stroke-dashoffset: 954.4px;
		}
		22% {
			stroke-dashoffset: 0;
		}
		44% {
			stroke-dashoffset: -954.4px;
		}
		100% {
			stroke-dashoffset: -954.4px;
		}
	}

	@keyframes drawIn {
		0% {
			stroke-dashoffset: 954.4px;
		}
		22% {
			stroke-dashoffset: 0;
		}
		44% {
			stroke-dashoffset: -954.4px;
		}
		100% {
			stroke-dashoffset: -954.4px;
		}
	}

	@-webkit-keyframes drawIn2 {
		0% {
			stroke-dashoffset: 500px;
		}
		22% {
			stroke-dashoffset: -454.4px;
		}
		30% {
			stroke-dashoffset: -954.4px;
		}
		100% {
			stroke-dashoffset: -954.4px;
		}
	}

	@keyframes drawIn2 {
		0% {
			stroke-dashoffset: 500px;
		}
		22% {
			stroke-dashoffset: -454.4px;
		}
		30% {
			stroke-dashoffset: -954.4px;
		}
		100% {
			stroke-dashoffset: -954.4px;
		}
	}
</style>
</svg>