<svg xmlns="http://www.w3.org/2000/svg" xmlns:xlink="http://www.w3.org/1999/xlink" viewBox="0 0 551 236">
  <defs>
    <clipPath id="clip-left-wheel" x="52.48" y="68.52" width="50.35" height="50.35" maskUnits="userSpaceOnUse">
      <ellipse cx="76.77" cy="93.53" rx="20.45" ry="15.17" transform="translate(-29.2 151.96) rotate(-79.49)" fill="#424344"/>
    </clipPath>
    <clipPath id="clip-right-wheel" x="316.69" y="132.66" width="50.35" height="50.35" maskUnits="userSpaceOnUse">
      <ellipse cx="341.87" cy="157.83" rx="20.49" ry="21.15" fill="#545557"/>
    </clipPath>
  </defs>
  <g id="Layer-p2">
    <polygon points="101.75 120.45 1.32 122.46 348.47 199.62 347.9 162.92 101.75 120.45" opacity="0.1"/>
    <polygon points="89.16 136.61 338.17 195.05 421.34 210.97 486.99 223.1 486.99 220.93 473.53 213.04 397.12 195.28 247.32 156.06 101.75 112.98 89.16 136.61" opacity="0.5"/>
    <g>
      <ellipse cx="471.12" cy="181.75" rx="36.43" ry="37.1" fill="#262223"/>
      <path d="M473,190.5c17.75-2.56,28.32-6.79,34.54-10.53-.91-19.66-16.85-35.32-36.38-35.32-20.12,0-36.43,16.61-36.43,37.1,0,.51,0,1,0,1.53C442.06,188.56,454.12,193.23,473,190.5Z" fill="#282828"/>
      <ellipse cx="472.13" cy="182.48" rx="18.97" ry="22.62" fill="#252122"/>
      <polygon points="441.07 160.03 477.21 169.53 476.36 173.35 447.73 165.7 450.57 174.63 481.75 177.89 479.91 182.14 444.76 177.89 441.07 160.03" fill="#3b4049"/>
    </g>
    <g id="car-body2">
      <path d="M312.38,98s11.41-7.08,21.47-.85c0,0,.64,6.38-10.74,8.29Z" fill="#22a65b"/>
      <g>
        <path d="M549.73,236c-.94-34.49-42.19-38.83-42.19-38.83l-7.79,27.21Z" fill="#1a8244"/>
        <path d="M499.75,224.38l50,11.62a41.75,41.75,0,0,0-.36-4.45L500.92,220.3Z" fill="#36272d"/>
        <g>
          <path d="M547.37,229.76s-21.83-9.26-30-11.71l-32.78-9.83-4.92,8.22Z" fill="#22a65b"/>
          <path d="M486.52,212.09l-3.5,5,64.35,12.65s-13.27-5.63-23-9.27Z" fill="#f7ffff"/>
        </g>
      </g>
      <g>
        <path d="M270.28,75.49l34.37,16.3,9.05,6.07S429.59,127,497.2,204.54L485.15,219.7l-36.85-8.5-19-10.21,5.24-12.47s-31.11-11.55-39.4-9l-16.25,5.17L186,89.17,207.21,59.4Z" fill="#22a65b"/>
        <path d="M304.65,91.79l-34.37-16.3L240.88,68,209.2,87.81c30.61,7.37,135.21,34.43,135.21,34.43L362,129.7s43.73,23,76.75,42.45,39.33,23.17,43.66,22.89c2.28-.15-3.59-7.75-9.63-14.87C405,120.82,313.7,97.86,313.7,97.86Z" fill="#f7ffff"/>
        <g>
          <path d="M447.87,211l12-14.37s-21.59-26.36-94.3-49.32c0,0-4.27,12.35-9.06,26.31l22.43,11.1,16.25-5.17c8.29-2.55,39.4,9,39.4,9L429.31,201Z" fill="#238b4f"/>
          <polygon points="381.26 150.11 396 154.29 394.65 157.06 383.39 153.94 382.89 159.25 401.03 162.87 398.62 166.69 382.04 162.94 381.54 168.68 391.68 171.51 390.47 174.77 377.65 170.52 381.26 150.11" fill="#3b4049"/>
        </g>
        <g>
          <polygon points="452.87 212.25 481.64 218.89 492.94 204.39 465.94 198.09 452.87 212.25" fill="#235639"/>
          <polygon points="466.11 209.64 471.2 199.31 465.94 198.09 457.96 206.73 466.11 209.64" fill="#282828"/>
          <polygon points="452.87 212.25 481.35 218.82 468 206.33 459.72 204.83 452.87 212.25" fill="#237e49"/>
        </g>
        <g>
          <path d="M316,101.16a20.71,20.71,0,0,0-37.83-9Z" fill="#47f6eb"/>
          <path d="M295.6,96.33l5.06,1.2,7.25-10.43a21.89,21.89,0,0,0-2.69-1.71Z" fill="#f7ffff"/>
        </g>
      </g>
      <g>
        <g>
          <path d="M176.46,54.72c.42-.7,8.22-28.06,8.22-28.06l41,11.77Z" fill="#1a8244"/>
          <polygon points="120.12 25.6 111.97 57.84 127.77 62.02 135.78 27.44 120.12 25.6" fill="#464749"/>
          <polygon points="159.52 31.91 152.72 58.98 170.29 57.56 175.37 33.37 159.52 31.91" fill="#464749"/>
          <g>
            <path d="M129.33,55s51,3.31,94.89-19.94l-6.8,53.72Z" fill="#d8f8f7"/>
            <path d="M221.54,56.17,224.22,35a167.75,167.75,0,0,1-43,15.27C191.26,50.79,211.72,52.28,221.54,56.17Z" fill="#f7ffff"/>
          </g>
          <polygon points="108.78 15.32 186.24 31.05 210.33 41.47 99.14 24.82 108.78 15.32" fill="#22a65b"/>
          <polygon points="106.08 17.98 196.74 35.6 186.24 31.05 108.78 15.32 106.08 17.98" fill="#f7ffff"/>
        </g>
        <g>
          <path d="M69.64,0,59.81,32.28S93.92,44.85,112,13.1Z" fill="#36272d"/>
          <path d="M104.52,10.8,69.64,0,61.46,26.88C68.33,27.67,94.9,29.4,104.52,10.8Z" fill="#22a65b"/>
          <path d="M73.56,3.36h-.18c-.24-.07-.66.17-.66.17s-.5.25-.56.48a4.46,4.46,0,0,1-1.49,2c-.09.09-1.22,1-1.56,1.25a5.73,5.73,0,0,0-.78.85,1.19,1.19,0,0,0-.06.34,1.68,1.68,0,0,0,.39.9,1.37,1.37,0,0,0,.45.25c.19,0,1-.19,1.15-.18.71,0-.29,2.23-.4,2.48a65,65,0,0,0-1.67,7.23c-.24.62-.5,1.24-.8,1.84-.2.42.6,1.21.83,1.27,1,.27,1.57-.35,2.08-1.11a5.26,5.26,0,0,0,.62-1.23c.15-.52,1.89-8,1.89-8s.7-2.43,1.2-3.78A12.76,12.76,0,0,0,75.18,5C75.28,3.65,74.46,3.05,73.56,3.36Z" fill="#fffb84"/>
          <path d="M79.88,5.13a5.36,5.36,0,0,0-1.72-.61,4,4,0,0,0-1.37.08,1.29,1.29,0,0,0-.58.17,1.53,1.53,0,0,0-.42.6c-.21.24.08,1,.09,1.06.11.44,1.21.83,1.31.94s.88.63.56,1c-.08.09-.39.1-.88.19C75.8,9,74.82,9,74.16,10.09A3.42,3.42,0,0,0,74,13.5a5.21,5.21,0,0,0,1.47,1.63c.4.27.93.38,1.33.65.18,1,.33,3.36-.62,4.11s-2.12.18-3.2.22a1.48,1.48,0,0,0-1.5.91c-.94,2.51,2.87,3.35,4.44,3.47a4.68,4.68,0,0,0,5.06-4.09c.66-3.34-.87-5.21-2.94-7.51l-.09-.08c-1.1-1.28.46-1.19,1.08-1.43.81-.32,1.64-.69,2.43-1a3.47,3.47,0,0,0,2-2.5C83.54,6.28,81.69,5.52,79.88,5.13Z" fill="#fffb84"/>
        </g>
      </g>
      <g>
        <ellipse cx="251.06" cy="57.42" rx="38.93" ry="41.67" fill="#fff2e4"/>
        <path d="M248.6,35.17S234,31.76,245.48,21.7s29.06,4.25,31.46,8.79S278.36,41.69,268,40A134.94,134.94,0,0,1,248.6,35.17Z" fill="#fffaf3"/>
        <path d="M298.2,54.87c-2.85,13-11.28,23.07-22.86,25.34-17.07,3.34-34.5-11.53-38.93-33.23a52.85,52.85,0,0,1-.92-6.72Z" fill="#3a434f"/>
        <path d="M292.09,69c-19.43-14.15-39.67-11.46-50.71-8.23,7.47,13.82,20.82,22.05,34,19.48A27,27,0,0,0,292.09,69Z" fill="#333c46"/>
      </g>
      <g>
        <path d="M128.31,59.7l1-4.74s92.54-2.73,113.5,37.32Z" fill="#f7ffff"/>
        <path d="M242.83,92.28a38.11,38.11,0,0,0-3.89-6C217.67,71.54,156.19,58.93,135.17,55c-3.49,0-5.84,0-5.84,0l-1,4.74Z" fill="#d8f8f7"/>
      </g>
      <g>
        <path d="M94.68,136.43,322,184.55,311.1,162.37s4.3,7.57-19,4.39L141.78,138.11,123.87,97Z" fill="#252122"/>
        <path d="M146.55,62.71s203.83,58.09,211.56,64l18.05,10-69.45,33s-7.51,1.7-23.39-1.13L169.69,144.67Z" fill="#22a65b"/>
        <path d="M216.94,99.18l-51.59,7.65-4.08,8L173,145.12l110.3,23.42c15.88,2.83,23.39,1.13,23.39,1.13l19.75-9.38,11.71-24.21C313.51,123.89,216.94,99.18,216.94,99.18Z" fill="#238b4f"/>
        <g>
          <polygon points="265.42 114.15 267.21 124.22 276 116.94 265.42 114.15" fill="#fff700"/>
          <polygon points="277.09 125.52 287.43 128.45 269.86 154.08 258.34 151.39 277.09 125.52" fill="#136d37"/>
          <polygon points="294.31 130.27 304.02 132.61 286.72 157.84 276 155.28 294.31 130.27" fill="#136d37"/>
          <polygon points="310.32 134.09 291.69 158.97 301.75 162.37 319.54 136.15 310.32 134.09" fill="#136d37"/>
        </g>
      </g>
      <g>
        <path d="M272.69,97.81s5.25-10.91-17-14.17C255.69,83.64,249.59,98.09,272.69,97.81Z" fill="#22a65b"/>
        <path d="M272.69,97.81a7.23,7.23,0,0,0,.43-4c-6.09-1.6-13.52-2.87-17.79-3.53C256.45,94,260.51,98,272.69,97.81Z" fill="#238b4f"/>
      </g>
      <g>
        <polygon points="454.82 170.09 456.61 168.02 467.86 183.75 438.05 164.05 454.82 170.09" fill="#252122"/>
        <polygon points="394.13 134.31 397.58 134.07 422.11 151.6 417.19 151.78 401.34 140.26 398.06 142.92 396.24 141.61 396.19 139.5 397.28 138.11 394.13 134.31" fill="#8693a6"/>
        <polygon points="399.17 134.07 401.57 134.16 412.82 138.39 413.33 140.79 417.97 141.64 436.82 153.76 423.6 150.93 421.19 148.2 428.31 150.39 416.94 142.92 412.26 142.35 406.17 138.49 407.37 137.39 399.33 134.77 399.17 134.07" fill="#8693a6"/>
      </g>
    </g>
    <g>
      <path d="M131.43,118l-5.57-50.57L70.2,48.72l-2.3,8.59h0C56.42,61.25,46.75,73,43.92,88.23c-3.58,19.34,5.15,37.43,19.78,42.19h0a24.69,24.69,0,0,0,3.1.79l.41.06,28.11,6.83Z" fill="#252122"/>
      <ellipse cx="73.77" cy="93.76" rx="34.98" ry="27.87" transform="translate(-31.88 149.19) rotate(-79.49)" fill="#464749"/>
      <ellipse cx="73.77" cy="93.76" rx="30.79" ry="24.54" transform="translate(-31.88 149.19) rotate(-79.49)" fill="#98956f"/>
      <ellipse cx="74.24" cy="93.48" rx="25.89" ry="20.05" transform="translate(-31.22 149.43) rotate(-79.49)" fill="#dddedf" stroke="#464749" stroke-miterlimit="10"/>
      <ellipse cx="76.77" cy="93.53" rx="20.45" ry="15.17" transform="translate(-29.2 151.96) rotate(-79.49)" fill="#424344"/>
      <g clip-path="url(#clip-left-wheel)">
        <g id="car-wheel-left">
          <path d="M101.7,85.49l-1.3-3.12a.78.78,0,0,0-1-.41L84.08,88.35a.77.77,0,0,1-1-1l6.59-15.22a.76.76,0,0,0-.4-1l-3.09-1.34a.77.77,0,0,0-1,.4L78.61,85.32a.77.77,0,0,1-1.43,0l-5.67-15.5a.77.77,0,0,0-1-.45l-3.17,1.16a.75.75,0,0,0-.45,1l5.87,16a.77.77,0,0,1-1,1L56.07,81.68a.76.76,0,0,0-1,.4l-1.35,3.1a.78.78,0,0,0,.4,1l15.61,6.75a.77.77,0,0,1,0,1.41L54,100.9a.77.77,0,0,0-.41,1l1.3,3.11a.76.76,0,0,0,1,.41L71.23,99a.77.77,0,0,1,1,1l-6.59,15.23a.77.77,0,0,0,.4,1l3.1,1.34a.77.77,0,0,0,1-.4l6.55-15.15a.77.77,0,0,1,1.43,0l5.68,15.5a.76.76,0,0,0,1,.46L88,116.92a.78.78,0,0,0,.46-1l-5.88-16a.77.77,0,0,1,1-1l15.67,6.78a.77.77,0,0,0,1-.4l1.34-3.09a.77.77,0,0,0-.4-1l-15.6-6.76a.76.76,0,0,1,0-1.41l15.68-6.55A.77.77,0,0,0,101.7,85.49Z" fill="#888b8e"/>
          <path d="M99.55,80.81,97.65,78a.77.77,0,0,0-1.07-.2L82.87,87.17a.77.77,0,0,1-1.18-.79l3.39-16.24a.77.77,0,0,0-.6-.91l-3.3-.69a.77.77,0,0,0-.91.59L76.9,85.3a.77.77,0,0,1-1.4.24l-8.69-14a.76.76,0,0,0-1.06-.24L62.88,73a.78.78,0,0,0-.25,1.06l9,14.52a.77.77,0,0,1-.81,1.15L54.1,86.28a.76.76,0,0,0-.91.59l-.69,3.31a.76.76,0,0,0,.59.9l16.65,3.47A.77.77,0,0,1,70,95.94l-14,9.58a.77.77,0,0,0-.21,1.06l1.91,2.79a.76.76,0,0,0,1.06.2l13.71-9.34a.76.76,0,0,1,1.18.79l-3.38,16.24a.77.77,0,0,0,.59.91l3.31.68a.75.75,0,0,0,.9-.59l3.37-16.16a.77.77,0,0,1,1.41-.25l8.68,14a.78.78,0,0,0,1.06.25l2.87-1.78a.76.76,0,0,0,.25-1l-9-14.52a.77.77,0,0,1,.81-1.16l16.72,3.49a.78.78,0,0,0,.91-.6l.68-3.3a.77.77,0,0,0-.59-.91L85.58,92.84a.76.76,0,0,1-.28-1.38l14-9.58A.77.77,0,0,0,99.55,80.81Z" opacity="0.3"/>
        </g>
      </g>
      <ellipse cx="77.66" cy="93.7" rx="5.95" ry="4.15" transform="translate(-28.63 152.96) rotate(-79.49)" fill="#323231"/>
      <path d="M78,87.81c-2,.13-3.89,2.25-4.43,5.13s.48,5.53,2.29,6.38c2-.14,3.9-2.26,4.43-5.13S79.82,88.65,78,87.81Z" fill="#dddedf"/>
    </g>
    <g>
      <path d="M385.85,159.21c0-19.31-13.76-35.32-31.75-38.25h0c-1.93-.32-10.92-.9-12.64-.9-20.82,0-37.7,17.34-37.7,38.73s16.88,38.73,37.7,38.73c.34,0,8.11.39,8.8.35l1.13-.09C370.68,196.11,385.85,179.48,385.85,159.21Z" fill="#464749"/>
      <ellipse cx="341.87" cy="157.83" rx="34.29" ry="35.38" fill="#b4b073" stroke="#282828" stroke-miterlimit="10" stroke-width="2"/>
      <ellipse cx="341.87" cy="157.83" rx="28.48" ry="29.38" fill="#282828"/>
      <ellipse cx="341.87" cy="157.83" rx="25.21" ry="26.01" fill="#dddedf"/>
      <ellipse cx="341.87" cy="157.83" rx="20.49" ry="21.15" fill="#545557"/>
      <g clip-path="url(#clip-right-wheel)">
        <g id="car-wheel-right">
          <path d="M365.91,149.63l-1.3-3.12a.78.78,0,0,0-1-.41l-15.31,6.39a.77.77,0,0,1-1-1l6.59-15.23a.77.77,0,0,0-.4-1l-3.09-1.34a.77.77,0,0,0-1,.4l-6.56,15.15a.76.76,0,0,1-1.42,0l-5.68-15.5a.78.78,0,0,0-1-.46l-3.17,1.17a.76.76,0,0,0-.45,1l5.87,16a.77.77,0,0,1-1,1l-15.67-6.78a.77.77,0,0,0-1,.4l-1.34,3.09a.76.76,0,0,0,.4,1l15.6,6.76a.77.77,0,0,1,0,1.41L318.24,165a.76.76,0,0,0-.41,1l1.3,3.12a.76.76,0,0,0,1,.41l15.31-6.39a.76.76,0,0,1,1,1l-6.59,15.23a.77.77,0,0,0,.4,1l3.1,1.34a.78.78,0,0,0,1-.4l6.55-15.15a.77.77,0,0,1,1.43,0l5.68,15.5a.75.75,0,0,0,1,.45l3.17-1.16a.76.76,0,0,0,.46-1l-5.88-16a.77.77,0,0,1,1-1l15.67,6.78a.77.77,0,0,0,1-.4l1.34-3.1a.76.76,0,0,0-.4-1l-15.6-6.76a.76.76,0,0,1,0-1.41l15.68-6.55A.76.76,0,0,0,365.91,149.63Z" fill="#888b8e"/>
          <path d="M363.76,145l-1.9-2.79a.77.77,0,0,0-1.07-.2l-13.71,9.35a.77.77,0,0,1-1.18-.8l3.39-16.24a.76.76,0,0,0-.6-.9l-3.3-.69a.77.77,0,0,0-.91.59l-3.37,16.16a.76.76,0,0,1-1.4.25l-8.69-14a.77.77,0,0,0-1.06-.25l-2.87,1.78a.76.76,0,0,0-.24,1.06l9,14.52a.76.76,0,0,1-.81,1.15l-16.71-3.48a.77.77,0,0,0-.91.59l-.69,3.3a.76.76,0,0,0,.59.91L334,158.69a.77.77,0,0,1,.27,1.39l-14,9.58a.76.76,0,0,0-.2,1.06l1.9,2.79a.76.76,0,0,0,1.06.2l13.71-9.35a.77.77,0,0,1,1.18.79l-3.38,16.25a.76.76,0,0,0,.59.9l3.31.69a.76.76,0,0,0,.9-.59l3.37-16.16A.77.77,0,0,1,344,166l8.68,14a.78.78,0,0,0,1.06.25l2.87-1.78a.77.77,0,0,0,.25-1.06l-9-14.52a.77.77,0,0,1,.81-1.15l16.72,3.48a.77.77,0,0,0,.91-.59l.69-3.3a.77.77,0,0,0-.6-.91L349.79,157a.77.77,0,0,1-.28-1.39L363.56,146A.76.76,0,0,0,363.76,145Z" opacity="0.3"/>
        </g>
      </g>
      <ellipse cx="341.87" cy="157.83" rx="5.09" ry="5.25" fill="#dddedf" stroke="#282828" stroke-miterlimit="10"/>
    </g>
    <g id="car-body1">
      <g>
        <g>
          <path d="M171.92,146.85l42.66,7.23s35.72-17.29,42-43.51L201,97Z" fill="#237546"/>
          <path d="M183.78,143.78S217,154.46,255.12,110.9L206.36,96Z" fill="#23643f"/>
          <path d="M206.36,124.69s28.16,3.22,46-14.08l-42.62-11Z" fill="#235639"/>
          <path d="M215.53,113.45s22.11,3.12,34.86-3.78l-39.59-7.94Z" fill="#234c35"/>
        </g>
        <path d="M54.35,41.83l3.76,8.08,22.44,4.86S113.2,61,117,91.43s4.72,39.31,4.44,47.25L157,146.8s22.82,6.43,40.53-9.45L223.51,108l34.44,5.1s2.55-4.87-5.48-9.12c0,0-82.25-16-105.64-42Z" fill="#3cc476"/>
        <path d="M222.44,109.23c-21.19-3.35-70.33-17.68-90.63-36.08-20-18.09-64.71-25.78-75.65-27.43l2,4.19,22.44,4.86S113.2,61,117,91.43s4.72,39.31,4.44,47.25L157,146.8s22.82,6.43,40.53-9.45Z" fill="#22a65b"/>
        <g>
          <polygon points="135.21 122.05 152.69 98.33 161.67 100.88 144.94 124.69 135.21 122.05" fill="#1a8244"/>
          <polygon points="150.71 126.02 168.09 102.68 177.07 104.76 160.63 128.85 150.71 126.02" fill="#1a8244"/>
          <polygon points="165.54 129.89 182.08 106.46 192.38 108.06 175.47 132.63 165.54 129.89" fill="#1a8244"/>
        </g>
        <path d="M185.88,136.65c-9.49,6.66-27.28,3.11-27.28,3.11l-37.28-8.57.11,8.34,35.75,7.6s22.68,6.1,40.39-9.78L223.51,108l34.44,5.1a5.08,5.08,0,0,0-.25-4.43l-38.3-7.41C211.75,114.46,195.38,130,185.88,136.65Z" fill="#36272d"/>
      </g>
      <g>
        <g>
          <path d="M413.48,195l22.87,5.2s9.82,5.27,10.74,10.94l-34.37-8.37Z" fill="#22a65b"/>
          <path d="M413.19,202.88l33.9,8.25c-.42-2.61-2.73-5.13-5.1-7.1l-24.92-4.41Z" fill="#f7ffff"/>
        </g>
        <g>
          <path d="M376.16,172.22l-7,28.44L421.42,213S422.74,179.21,376.16,172.22Z" fill="#238b4f"/>
          <path d="M416,194.89c-5.57-9.23-16.89-19.22-39.88-22.67l-2.81,11.41C379.81,189.26,394.87,199.49,416,194.89Z" fill="#22a65b"/>
          <path d="M369.17,200.66,421.42,213a26,26,0,0,0-.29-4l-50.46-14.54Z" fill="#36272d"/>
        </g>
      </g>
    </g>
  </g>
  <style>
    #car-body1,
    #car-body2 {
      -webkit-animation: moveCar 0.2s ease-in-out 0s infinite alternate;
              animation: moveCar 0.2s ease-in-out 0s infinite alternate;
    }

    #car-wheel-left {
      -webkit-transform-origin: 76.93px 93.76px;
          -ms-transform-origin: 76.93px 93.76px;
              transform-origin: 76.93px 93.76px;
      -webkit-transform: rotate(-360deg);
          -ms-transform: rotate(-360deg);
              transform: rotate(-360deg);
      -webkit-animation: rotateWheel 0.6s linear 0s infinite;
              animation: rotateWheel 0.6s linear 0s infinite;
    }

    #car-wheel-right {
      -webkit-transform-origin: 341.87px 157.83px;
          -ms-transform-origin: 341.87px 157.83px;
              transform-origin: 341.87px 157.83px;
      -webkit-transform: rotate(-360deg);
          -ms-transform: rotate(-360deg);
              transform: rotate(-360deg);
      -webkit-animation: rotateWheel 0.6s linear 0s infinite;
              animation: rotateWheel 0.6s linear 0s infinite;
    }

    @-webkit-keyframes moveCar {
      to {
        -webkit-transform: translate(0.5px, -1.5px);
                transform: translate(0.5px, -1.5px);
      }
    }

    @keyframes moveCar {
      to {
        -webkit-transform: translate(0.5px, -1.5px);
                transform: translate(0.5px, -1.5px);
      }
    }

    @-webkit-keyframes rotateWheel {
      to {
        -webkit-transform: rotate(0deg);
                transform: rotate(0deg);
      }
    }

    @keyframes rotateWheel {
      to {
        -webkit-transform: rotate(0deg);
                transform: rotate(0deg);
      }
    }
  </style>
</svg>
