<svg xmlns="http://www.w3.org/2000/svg" viewBox="0 0 211 360">
	<path id="etap-line2" d="M0,116.5s41.44-15,81.69-69.44S199.61-10.2,198.48,33.17s-35,106,12.52,186.8" fill="none" stroke="#7a8d8e" stroke-miterlimit="10" stroke-width="4" stroke-dasharray="16 8" opacity="0.5"/>
	<g>
		<g>
			<path d="M172.54,358l-17.73-86.7a4,4,0,0,0-7.91,0L129.17,358Z" fill="#ff4b3a"/>
			<path d="M171.73,354.05l-16.92-82.73a3.93,3.93,0,0,0-4-3.23v86Z" fill="#cb372a"/>
			<polygon points="140.99 300.19 160.72 300.19 157.35 283.75 144.35 283.75 140.99 300.19" fill="#daf3ff"/>
			<polygon points="134.35 332.69 167.36 332.69 164.06 316.54 137.65 316.54 134.35 332.69" fill="#daf3ff"/>
			<polygon points="150.85 283.75 150.85 300.19 160.72 300.19 160.27 297.99 157.35 283.75 150.85 283.75" fill="#98b7d2"/>
			<polygon points="150.85 316.54 150.85 332.69 167.36 332.69 164.06 316.54 150.85 316.54" fill="#98b7d2"/>
		</g>
		<g>
			<rect x="118.92" y="348.09" width="63.87" height="11.91" rx="5.95" fill="none" stroke="#7a8d8e" stroke-miterlimit="10" stroke-width="0.25"/>
			<rect x="118.92" y="348.09" width="63.87" height="11.91" rx="5.95" fill="#cb372a"/>
			<path d="M124.87,360h52a6,6,0,0,0,5.95-5.95H118.92A6,6,0,0,0,124.87,360Z" fill="#882219"/>
			<path d="M176.84,348.09h-26V360h26a6,6,0,0,0,0-11.91Z" fill="#882219"/>
			<path d="M150.85,354.05V360h26a6,6,0,0,0,5.95-5.95Z" fill="#410b06"/>
		</g>
	</g>
	<style>
		#etap-line2 {
			-webkit-animation: moveLine 0.75s linear 0s infinite;
			        animation: moveLine 0.75s linear 0s infinite;
		}

		@-webkit-keyframes moveLine {
			to {
				stroke-dashoffset: -24px;
			}
		}

		@keyframes moveLine {
			to {
				stroke-dashoffset: -24px;
			}
		}
	</style>
</svg>
