<svg xmlns="http://www.w3.org/2000/svg" xmlns:xlink="http://www.w3.org/1999/xlink" viewBox="0 0 308 210">
  <defs>
        <clipPath id="clip-path-money">
          <path d="M165.66,79.21h0a2,2,0,0,0-1-1.39s-32.89-18.52-37.94-21.4-7.65-.9-7.65-.9L32.92,104c-.6.38-.82.73-.86,1h0v13.86a1,1,0,0,0,.45.79l39.37,22.6c3.49,2.2,8.25,0,8.25,0L163.5,95.59c1.58-.91,2.11-1.71,2.16-2.35v-14Z" fill="none"/>
        </clipPath>
        <clipPath id="clip-path-money-2">
          <path d="M171,59.45h0a2.06,2.06,0,0,0-1-1.39s-32.88-18.52-37.94-21.4-7.65-.9-7.65-.9L38.26,84.22c-.61.39-.83.74-.87,1h0V99.12a1,1,0,0,0,.45.78L77.2,122.51c3.49,2.19,8.25,0,8.25,0l83.38-46.68c1.58-.9,2.11-1.7,2.16-2.34v-14A0,0,0,0,0,171,59.45Z" fill="none"/>
        </clipPath>
        <clipPath id="clip-path-money-3">
          <path d="M176.76,40.69h0a2,2,0,0,0-1-1.39S142.9,20.78,137.84,17.9s-7.65-.9-7.65-.9L44,65.46c-.61.39-.83.74-.87,1h0V80.35a1,1,0,0,0,.45.79L83,103.74c3.49,2.2,8.25,0,8.25,0L174.6,57.07c1.58-.9,2.11-1.7,2.16-2.34v-14Z" fill="none"/>
        </clipPath>
        <clipPath id="clip-path-money-4">
          <path d="M235.57,90.61h0a2,2,0,0,0-1-1.39S201.7,70.7,196.65,67.82s-7.65-.9-7.65-.9l-86.17,48.46c-.6.38-.82.73-.86,1h0v13.86a1,1,0,0,0,.45.79l39.37,22.6c3.49,2.2,8.25,0,8.25,0L233.4,107c1.59-.9,2.11-1.7,2.17-2.34v-14Z" fill="none"/>
        </clipPath>
        <clipPath id="clip-path-money-5">
          <path d="M238.52,71.39h0a2.1,2.1,0,0,0-1-1.4s-32.88-18.52-37.93-21.4-7.66-.89-7.66-.89L105.78,96.16c-.6.38-.83.73-.86,1h0v13.87a1,1,0,0,0,.45.78l39.36,22.61c3.49,2.2,8.26,0,8.26,0l83.37-46.68c1.58-.9,2.11-1.7,2.17-2.34v-14Z" fill="none"/>
        </clipPath>
        <clipPath id="clip-path-money-6">
          <path d="M232.39,59.12h0a2.07,2.07,0,0,0-1-1.39s-32.88-18.52-37.94-21.41-7.65-.89-7.65-.89L99.65,83.89c-.61.38-.83.73-.87,1h0V98.78a1,1,0,0,0,.45.78l39.37,22.61c3.49,2.2,8.25,0,8.25,0l83.38-46.68c1.58-.9,2.11-1.7,2.17-2.34v-14Z" fill="none"/>
        </clipPath>
        <clipPath id="clip-path-money-7">
          <path d="M238.15,38.78h0a2,2,0,0,0-1-1.39S204.29,18.87,199.23,16s-7.65-.9-7.65-.9L105.42,63.55c-.61.38-.83.73-.87,1h0V78.44a1,1,0,0,0,.45.79l39.37,22.6c3.49,2.2,8.25,0,8.25,0L236,55.15c1.58-.9,2.11-1.7,2.16-2.34v-14S238.16,38.78,238.15,38.78Z" fill="none"/>
        </clipPath>
        <clipPath id="clip-path-money-8">
          <path d="M232.84,24.55h0a2,2,0,0,0-1-1.39S199,4.64,193.92,1.76s-7.65-.9-7.65-.9L100.11,49.32c-.61.38-.83.73-.87,1h0V64.21a1,1,0,0,0,.45.79l39.37,22.6c3.49,2.2,8.25,0,8.25,0l83.38-46.67c1.58-.9,2.11-1.7,2.16-2.35v-14Z" fill="none"/>
        </clipPath>
        <clipPath id="clip-path-money-9">
          <path d="M271.79,131.91h0a2.1,2.1,0,0,0-1-1.39s-32.88-18.52-37.94-21.4-7.65-.89-7.65-.89l-86.16,48.46c-.61.38-.83.73-.87,1h0v13.87a1,1,0,0,0,.45.78L178,195c3.49,2.2,8.26,0,8.26,0l83.37-46.68c1.58-.9,2.11-1.7,2.17-2.34v-14Z" fill="none"/>
        </clipPath>
        <clipPath id="clip-path-money-10">
          <path d="M275,112h0a2.07,2.07,0,0,0-1-1.39S241.09,92.05,236,89.17s-7.65-.9-7.65-.9l-86.16,48.46c-.61.38-.83.73-.87,1h0v13.86a1,1,0,0,0,.45.79L181.16,175c3.49,2.2,8.25,0,8.25,0l83.38-46.68c1.58-.9,2.11-1.7,2.17-2.34V112A0,0,0,0,1,275,112Z" fill="none"/>
        </clipPath>
  </defs>
  <g id="Layer-p10">
    <ellipse cx="85.42" cy="120.72" rx="84.74" ry="35" fill="#e9e8e8"/>
    <ellipse cx="202.28" cy="169.15" rx="105.72" ry="40.85" fill="#e9e8e8"/>
    <g>
      <g>
        <polygon points="66.06 83.89 66.06 87.69 74.16 86.22 73.16 79.91 66.06 83.89" fill="#e09c10"/>
        <path d="M165.66,79.21h0a2,2,0,0,0-1-1.39s-32.89-18.52-37.94-21.4-7.65-.9-7.65-.9L32.92,104c-.6.38-.82.73-.86,1h0v13.86a1,1,0,0,0,.45.79l39.37,22.6c3.49,2.2,8.25,0,8.25,0L163.5,95.59c1.58-.91,2.11-1.71,2.16-2.35v-14Z" fill="#2aa53e"/>
        <g clip-path="url(#clip-path-money)">
          <g>
            <path d="M166.11,81.51c.07.68-.85,2.15-2.65,3.18L80.09,131.37s-4.77,2.19-8.26,0L32.47,108.76s-1.29-.8-.82-1.62" fill="none" stroke="#12832e" stroke-miterlimit="10"/>
            <path d="M166.09,78.63c.08.68-.83,2.13-2.63,3.16L80.09,128.46s-4.77,2.2-8.26,0l-39.37-22.6s-1.11-.55-.62-1.46" fill="none" stroke="#12832e" stroke-miterlimit="10"/>
            <path d="M166,84.28c0,.66-.9,1.9-2.54,2.84L80.12,133.8s-4.76,2.19-8.25,0L32.5,111.19s-1-.63-1.05-1.08" fill="none" stroke="#12832e" stroke-miterlimit="10"/>
            <path d="M166,86.71a4.78,4.78,0,0,1-2.55,2.77L80.11,136.16s-4.77,2.2-8.26,0L32.49,113.55s-.94-.74-1-1.2" fill="none" stroke="#12832e" stroke-miterlimit="10"/>
            <path d="M166.16,88.74c0,.65-1.08,2-2.68,2.91L80.11,138.32s-4.77,2.2-8.26,0l-39.36-22.6s-1.13-.71-1.14-1.17" fill="none" stroke="#12832e" stroke-miterlimit="10"/>
            <path d="M166.14,90.71c0,.65-1.06,2-2.66,2.89L80.11,140.28s-4.77,2.2-8.26,0l-39.36-22.6s-1.09-.4-1.09-.86" fill="none" stroke="#12832e" stroke-miterlimit="10"/>
            <path d="M166.35,92.47c0,.65-1.27,2.21-2.87,3.12L80.11,142.26s-4.77,2.2-8.26,0l-39.36-22.6s-1-.73-1-1.19" fill="none" stroke="#12832e" stroke-miterlimit="10"/>
          </g>
        </g>
        <polygon points="80.09 128.46 80.09 142.26 157.79 98.77 157.79 84.81 80.09 128.46" fill="#12832e"/>
        <path d="M42.78,101.5l73.57-40.88a17,17,0,0,0,11.61,0l27.22,15.26c-1.51,2.21-1.46,4.77-.33,7.56L82.53,124.21a71.1,71.1,0,0,0-12.72,0l-27-15.45A8.22,8.22,0,0,0,42.78,101.5Z" fill="#53d759"/>
        <path d="M46.8,102.05l70.11-39.54a15.71,15.71,0,0,0,10.49,0L151.35,76.4a5.37,5.37,0,0,0,0,6.1L82.28,121.7a37.06,37.06,0,0,0-12.52,0l-23-13.19A6.42,6.42,0,0,0,46.8,102.05Z" fill="none" stroke="#36b950" stroke-miterlimit="10" stroke-width="2"/>
        <ellipse cx="70.99" cy="107.98" rx="6.43" ry="3.33" fill="#36b950"/>
        <ellipse cx="127.06" cy="76.48" rx="6.43" ry="3.53" fill="#36b950"/>
        <path d="M74.49,84.81c-3.5,11.34,13.1,22.36,33.16,20.27" fill="none" stroke="#36b950" stroke-miterlimit="10" stroke-width="2"/>
        <path d="M104.77,102.53c-15.7,1.64-28.69-7-26-15.86Z" fill="#2aa53e"/>
        <path d="M122.11,91.4Q120.58,82,102.48,78.93Z" fill="#2aa53e"/>
        <polygon points="111.03 111.64 66.06 83.89 120.12 106.07 112.54 113.35 111.03 111.64" fill="#12832e"/>
        <polygon points="112.3 124.23 112.3 110.45 132.74 97.42 135.69 97.35 135.72 111.14 112.3 124.23" fill="#f7b911"/>
        <polygon points="66.06 83.89 89.72 70.64 135.69 97.35 112.3 110.45 66.06 83.89" fill="#ffd964"/>
        <polygon points="96.89 74.8 73.72 88.29 78.53 91.06 78.86 91.25 102.04 77.8 96.89 74.8" fill="#ffe08b"/>
        <polygon points="104.63 79.3 81.53 92.78 90.29 97.81 96.3 101.26 118.94 87.62 104.63 79.3" fill="#ffe08b"/>
        <polygon points="87.33 71.98 133.31 98.68 130.14 100.46 84.59 73.51 87.33 71.98" fill="#ffc913"/>
        <polygon points="71.73 80.7 117.72 107.41 114.57 109.2 69.04 82.21 71.73 80.7" fill="#ffc913"/>
        <polygon points="133.31 112.48 133.31 98.68 130.14 100.46 130.14 114.25 133.31 112.48" fill="#e09c10"/>
        <polygon points="117.72 121.21 117.72 107.41 114.57 109.2 114.57 122.97 117.72 121.21" fill="#e09c10"/>
      </g>
      <g>
        <polygon points="71.39 64.13 71.39 67.94 79.49 66.46 78.49 60.16 71.39 64.13" fill="#e09c10"/>
        <path d="M171,59.45h0a2.06,2.06,0,0,0-1-1.39s-32.88-18.52-37.94-21.4-7.65-.9-7.65-.9L38.26,84.22c-.61.39-.83.74-.87,1h0V99.12a1,1,0,0,0,.45.78L77.2,122.51c3.49,2.19,8.25,0,8.25,0l83.38-46.68c1.58-.9,2.11-1.7,2.16-2.34v-14A0,0,0,0,0,171,59.45Z" fill="#2aa53e"/>
        <g clip-path="url(#clip-path-money-2)">
          <g>
            <path d="M171.44,61.75c.07.68-.85,2.16-2.65,3.18L85.42,111.61s-4.77,2.2-8.26,0L37.8,89s-1.29-.79-.82-1.62" fill="none" stroke="#12832e" stroke-miterlimit="10"/>
            <path d="M171.43,58.87c.07.68-.84,2.14-2.64,3.16L85.42,108.71s-4.77,2.2-8.26,0L37.8,86.1s-1.11-.54-.62-1.45" fill="none" stroke="#12832e" stroke-miterlimit="10"/>
            <path d="M171.38,64.53c0,.65-.91,1.9-2.55,2.84L85.45,114s-4.76,2.2-8.25,0L37.83,91.44s-1-.64-1-1.09" fill="none" stroke="#12832e" stroke-miterlimit="10"/>
            <path d="M171.36,67c0,.64-1,1.86-2.54,2.77L85.44,116.41s-4.76,2.19-8.25,0L37.82,93.8s-.94-.74-1-1.2" fill="none" stroke="#12832e" stroke-miterlimit="10"/>
            <path d="M171.49,69c-.05.64-1.08,2-2.67,2.9L85.44,118.57s-4.76,2.2-8.25,0L37.82,96s-1.13-.7-1.13-1.16" fill="none" stroke="#12832e" stroke-miterlimit="10"/>
            <path d="M171.47,71c-.05.64-1.06,2-2.65,2.89L85.44,120.53s-4.76,2.19-8.25,0L37.82,97.92s-1.08-.4-1.09-.86" fill="none" stroke="#12832e" stroke-miterlimit="10"/>
            <path d="M171.68,72.72c-.05.64-1.27,2.2-2.86,3.11L85.44,122.51s-4.76,2.19-8.25,0L37.82,99.9s-1-.72-1-1.18" fill="none" stroke="#12832e" stroke-miterlimit="10"/>
          </g>
        </g>
        <polygon points="85.42 108.71 85.42 122.51 163.13 79.02 163.13 65.06 85.42 108.71" fill="#12832e"/>
        <path d="M48.11,81.74l73.57-40.87a17.14,17.14,0,0,0,11.61,0l27.22,15.26c-1.51,2.21-1.46,4.76-.33,7.55L87.86,104.46a71.1,71.1,0,0,0-12.72,0L48.11,89A8.18,8.18,0,0,0,48.11,81.74Z" fill="#53d759"/>
        <path d="M52.13,82.3l70.12-39.54a15.8,15.8,0,0,0,10.48,0l24,13.89a5.34,5.34,0,0,0,0,6.09l-69.07,39.2a37.06,37.06,0,0,0-12.52,0l-23-13.18A6.42,6.42,0,0,0,52.13,82.3Z" fill="none" stroke="#36b950" stroke-miterlimit="10" stroke-width="2"/>
        <ellipse cx="76.32" cy="88.23" rx="6.43" ry="3.33" fill="#36b950"/>
        <ellipse cx="132.39" cy="56.73" rx="6.43" ry="3.53" fill="#36b950"/>
        <path d="M79.82,65.05C76.32,76.39,92.92,87.42,113,85.32" fill="none" stroke="#36b950" stroke-miterlimit="10" stroke-width="2"/>
        <path d="M110.1,82.78c-15.7,1.64-28.69-7-25.95-15.86Z" fill="#2aa53e"/>
        <path d="M127.44,71.65q-1.51-9.36-19.63-12.48Z" fill="#2aa53e"/>
        <polygon points="116.36 91.89 71.39 64.13 125.45 86.32 117.88 93.59 116.36 91.89" fill="#12832e"/>
        <polygon points="117.63 104.48 117.63 90.7 138.07 77.67 141.03 77.6 141.05 91.38 117.63 104.48" fill="#f7b911"/>
        <polygon points="71.39 64.13 95.06 50.88 141.03 77.6 117.63 90.7 71.39 64.13" fill="#ffd964"/>
        <polygon points="102.22 55.05 79.05 68.54 83.87 71.3 84.19 71.49 107.37 58.04 102.22 55.05" fill="#ffe08b"/>
        <polygon points="109.96 59.54 86.86 73.02 95.63 78.06 101.63 81.51 124.28 67.86 109.96 59.54" fill="#ffe08b"/>
        <polygon points="92.66 52.22 138.65 78.93 135.47 80.7 89.92 53.76 92.66 52.22" fill="#ffc913"/>
        <polygon points="77.07 60.95 123.05 87.65 119.9 89.44 74.37 62.46 77.07 60.95" fill="#ffc913"/>
        <polygon points="138.65 92.73 138.65 78.93 135.47 80.7 135.47 94.5 138.65 92.73" fill="#e09c10"/>
        <polygon points="123.05 101.45 123.05 87.65 119.9 89.44 119.9 103.21 123.05 101.45" fill="#e09c10"/>
      </g>
      <g>
        <polygon points="77.16 45.37 77.16 49.17 85.26 47.7 84.26 41.39 77.16 45.37" fill="#e09c10"/>
        <path d="M176.76,40.69h0a2,2,0,0,0-1-1.39S142.9,20.78,137.84,17.9s-7.65-.9-7.65-.9L44,65.46c-.61.39-.83.74-.87,1h0V80.35a1,1,0,0,0,.45.79L83,103.74c3.49,2.2,8.25,0,8.25,0L174.6,57.07c1.58-.9,2.11-1.7,2.16-2.34v-14Z" fill="#2aa53e"/>
        <g clip-path="url(#clip-path-money-3)">
          <g>
            <path d="M177.21,43c.07.68-.85,2.16-2.65,3.18L91.19,92.85s-4.77,2.2-8.26,0L43.57,70.24s-1.29-.79-.82-1.62" fill="none" stroke="#12832e" stroke-miterlimit="10"/>
            <path d="M177.2,40.11c.07.68-.84,2.13-2.64,3.16L91.19,90s-4.77,2.19-8.26,0L43.57,67.34s-1.11-.54-.62-1.46" fill="none" stroke="#12832e" stroke-miterlimit="10"/>
            <path d="M177.15,45.77c0,.65-.91,1.9-2.55,2.83L91.22,95.28s-4.76,2.2-8.25,0L43.6,72.67s-1-.63-1.05-1.08" fill="none" stroke="#12832e" stroke-miterlimit="10"/>
            <path d="M177.13,48.19A4.82,4.82,0,0,1,174.59,51L91.21,97.64s-4.76,2.2-8.25,0L43.59,75s-.94-.74-1-1.2" fill="none" stroke="#12832e" stroke-miterlimit="10"/>
            <path d="M177.26,50.22c0,.65-1.08,2-2.67,2.91L91.21,99.81s-4.76,2.19-8.25,0L43.59,77.2s-1.13-.71-1.13-1.17" fill="none" stroke="#12832e" stroke-miterlimit="10"/>
            <path d="M177.24,52.2c-.05.64-1.06,2-2.65,2.89L91.21,101.76s-4.76,2.2-8.25,0L43.59,79.16s-1.09-.4-1.09-.86" fill="none" stroke="#12832e" stroke-miterlimit="10"/>
            <path d="M177.45,54c0,.65-1.27,2.21-2.86,3.12L91.21,103.74s-4.76,2.2-8.25,0L43.59,81.14s-1-.73-1-1.19" fill="none" stroke="#12832e" stroke-miterlimit="10"/>
          </g>
        </g>
        <polygon points="91.19 89.95 91.19 103.74 168.9 60.25 168.9 46.29 91.19 89.95" fill="#12832e"/>
        <path d="M53.88,63,127.45,22.1a17,17,0,0,0,11.61,0l27.22,15.26c-1.51,2.21-1.46,4.77-.33,7.56L93.63,85.69a73,73,0,0,0-12.72,0l-27-15.44A8.21,8.21,0,0,0,53.88,63Z" fill="#53d759"/>
        <path d="M57.9,63.54,128,24a15.71,15.71,0,0,0,10.49,0l24,13.89a5.35,5.35,0,0,0,0,6.1L93.38,83.18a37.06,37.06,0,0,0-12.52,0L57.9,70A6.42,6.42,0,0,0,57.9,63.54Z" fill="none" stroke="#36b950" stroke-miterlimit="10" stroke-width="2"/>
        <ellipse cx="82.09" cy="69.47" rx="6.43" ry="3.33" fill="#36b950"/>
        <ellipse cx="138.16" cy="37.96" rx="6.43" ry="3.53" fill="#36b950"/>
        <path d="M85.59,46.29c-3.5,11.34,13.1,22.37,33.16,20.27" fill="none" stroke="#36b950" stroke-miterlimit="10" stroke-width="2"/>
        <path d="M115.87,64c-15.7,1.64-28.69-7-25.95-15.86Z" fill="#2aa53e"/>
        <path d="M133.21,52.88q-1.52-9.35-19.63-12.47Z" fill="#2aa53e"/>
        <polygon points="122.13 73.13 77.16 45.37 131.22 67.55 123.64 74.83 122.13 73.13" fill="#12832e"/>
        <polygon points="123.4 85.72 123.4 71.93 143.84 58.91 146.8 58.83 146.82 72.62 123.4 85.72" fill="#f7b911"/>
        <polygon points="77.16 45.37 100.83 32.12 146.8 58.83 123.4 71.93 77.16 45.37" fill="#ffd964"/>
        <polygon points="107.99 36.28 84.82 49.78 89.64 52.54 89.96 52.73 113.14 39.28 107.99 36.28" fill="#ffe08b"/>
        <polygon points="115.73 40.78 92.63 54.26 101.39 59.29 107.4 62.74 130.05 49.1 115.73 40.78" fill="#ffe08b"/>
        <polygon points="98.43 33.46 144.41 60.17 141.24 61.94 95.69 34.99 98.43 33.46" fill="#ffc913"/>
        <polygon points="82.83 42.19 128.82 68.89 125.67 70.68 80.14 43.7 82.83 42.19" fill="#ffc913"/>
        <polygon points="144.41 73.96 144.41 60.17 141.24 61.94 141.24 75.73 144.41 73.96" fill="#e09c10"/>
        <polygon points="128.82 82.69 128.82 68.89 125.67 70.68 125.67 84.45 128.82 82.69" fill="#e09c10"/>
      </g>
    </g>
    <g>
      <g>
        <polygon points="135.96 95.29 135.96 99.09 144.07 97.62 143.07 91.31 135.96 95.29" fill="#e09c10"/>
        <path d="M235.57,90.61h0a2,2,0,0,0-1-1.39S201.7,70.7,196.65,67.82s-7.65-.9-7.65-.9l-86.17,48.46c-.6.38-.82.73-.86,1h0v13.86a1,1,0,0,0,.45.79l39.37,22.6c3.49,2.2,8.25,0,8.25,0L233.4,107c1.59-.9,2.11-1.7,2.17-2.34v-14Z" fill="#2aa53e"/>
        <g clip-path="url(#clip-path-money-4)">
          <g>
            <path d="M236,92.91c.07.68-.85,2.15-2.65,3.18L150,142.77s-4.77,2.19-8.26,0l-39.36-22.61s-1.29-.8-.82-1.62" fill="none" stroke="#12832e" stroke-miterlimit="10"/>
            <path d="M236,90c.07.67-.83,2.13-2.63,3.16L150,139.86s-4.77,2.2-8.26,0l-39.37-22.6s-1.11-.55-.62-1.46" fill="none" stroke="#12832e" stroke-miterlimit="10"/>
            <path d="M236,95.68c0,.66-.9,1.9-2.54,2.84L150,145.2s-4.76,2.19-8.25,0l-39.37-22.61s-1-.63-1-1.08" fill="none" stroke="#12832e" stroke-miterlimit="10"/>
            <path d="M235.94,98.11a4.83,4.83,0,0,1-2.55,2.77L150,147.56s-4.77,2.2-8.26,0L102.4,125s-1-.74-1-1.2" fill="none" stroke="#12832e" stroke-miterlimit="10"/>
            <path d="M236.07,100.14c0,.64-1.08,2-2.68,2.91L150,149.72s-4.77,2.2-8.26,0l-39.36-22.6s-1.13-.71-1.14-1.17" fill="none" stroke="#12832e" stroke-miterlimit="10"/>
            <path d="M236.05,102.11c-.05.65-1.06,2-2.66,2.89L150,151.68s-4.77,2.2-8.26,0l-39.36-22.6s-1.09-.4-1.09-.86" fill="none" stroke="#12832e" stroke-miterlimit="10"/>
            <path d="M236.25,103.87c0,.65-1.26,2.21-2.86,3.11L150,153.66s-4.77,2.2-8.26,0l-39.36-22.6s-1-.73-1-1.19" fill="none" stroke="#12832e" stroke-miterlimit="10"/>
          </g>
        </g>
        <polygon points="150 139.86 150 153.66 227.7 110.17 227.7 96.21 150 139.86" fill="#12832e"/>
        <path d="M112.68,112.9,186.26,72a17.08,17.08,0,0,0,11.61,0l27.22,15.26c-1.51,2.21-1.46,4.77-.33,7.56l-72.32,40.77a71.1,71.1,0,0,0-12.72,0l-27-15.45A8.16,8.16,0,0,0,112.68,112.9Z" fill="#53d759"/>
        <path d="M116.71,113.45l70.11-39.54a15.71,15.71,0,0,0,10.49,0L221.26,87.8a5.36,5.36,0,0,0,0,6.09L152.19,133.1a37.06,37.06,0,0,0-12.52,0l-23-13.19A6.42,6.42,0,0,0,116.71,113.45Z" fill="none" stroke="#36b950" stroke-miterlimit="10" stroke-width="2"/>
        <ellipse cx="140.9" cy="119.38" rx="6.43" ry="3.33" fill="#36b950"/>
        <ellipse cx="196.97" cy="87.88" rx="6.43" ry="3.53" fill="#36b950"/>
        <path d="M144.4,96.21c-3.5,11.34,13.1,22.36,33.16,20.27" fill="none" stroke="#36b950" stroke-miterlimit="10" stroke-width="2"/>
        <path d="M174.68,113.93c-15.7,1.64-28.69-7-26-15.86Z" fill="#2aa53e"/>
        <path d="M192,102.8q-1.53-9.36-19.63-12.47Z" fill="#2aa53e"/>
        <polygon points="180.94 123.04 135.96 95.29 190.03 117.47 182.45 124.75 180.94 123.04" fill="#12832e"/>
        <polygon points="182.2 135.63 182.2 121.85 202.65 108.82 205.6 108.75 205.63 122.54 182.2 135.63" fill="#f7b911"/>
        <polygon points="135.96 95.29 159.63 82.04 205.6 108.75 182.2 121.85 135.96 95.29" fill="#ffd964"/>
        <polygon points="166.8 86.2 143.63 99.69 148.44 102.46 148.77 102.64 171.95 89.19 166.8 86.2" fill="#ffe08b"/>
        <polygon points="174.54 90.7 151.44 104.18 160.2 109.21 166.21 112.66 188.85 99.02 174.54 90.7" fill="#ffe08b"/>
        <polygon points="157.24 83.38 203.22 110.08 200.05 111.86 154.5 84.91 157.24 83.38" fill="#ffc913"/>
        <polygon points="141.64 92.1 187.63 118.81 184.48 120.59 138.95 93.61 141.64 92.1" fill="#ffc913"/>
        <polygon points="203.22 123.88 203.22 110.08 200.05 111.86 200.05 125.65 203.22 123.88" fill="#e09c10"/>
        <polygon points="187.63 132.61 187.63 118.81 184.48 120.59 184.48 134.37 187.63 132.61" fill="#e09c10"/>
      </g>
      <g>
        <polygon points="138.91 76.07 138.91 79.87 147.02 78.4 146.02 72.09 138.91 76.07" fill="#e09c10"/>
        <path d="M238.52,71.39h0a2.1,2.1,0,0,0-1-1.4s-32.88-18.52-37.93-21.4-7.66-.89-7.66-.89L105.78,96.16c-.6.38-.83.73-.86,1h0v13.87a1,1,0,0,0,.45.78l39.36,22.61c3.49,2.2,8.26,0,8.26,0l83.37-46.68c1.58-.9,2.11-1.7,2.17-2.34v-14Z" fill="#2aa53e"/>
        <path d="M238.52,71.39h0a2.1,2.1,0,0,0-1-1.4s-32.88-18.52-37.93-21.4-7.66-.89-7.66-.89L105.78,96.16c-.6.38-.83.73-.86,1h0v13.87a1,1,0,0,0,.45.78l39.36,22.61c3.49,2.2,8.26,0,8.26,0l83.37-46.68c1.58-.9,2.11-1.7,2.17-2.34v-14Z" fill="#2aa53e"/>
        <g clip-path="url(#clip-path-money-5)">
          <g>
            <path d="M239,73.69c.07.68-.85,2.15-2.65,3.18L153,123.54s-4.77,2.2-8.26,0l-39.37-22.6s-1.28-.8-.81-1.63" fill="none" stroke="#12832e" stroke-miterlimit="10"/>
            <path d="M239,70.8c.07.68-.83,2.14-2.63,3.16l-83.38,46.68s-4.76,2.2-8.25,0L105.32,98s-1.11-.54-.62-1.45" fill="none" stroke="#12832e" stroke-miterlimit="10"/>
            <path d="M238.9,76.46c0,.65-.9,1.9-2.55,2.84L153,126s-4.77,2.2-8.26,0l-39.36-22.6s-1-.64-1-1.08" fill="none" stroke="#12832e" stroke-miterlimit="10"/>
            <path d="M238.89,78.89a4.83,4.83,0,0,1-2.55,2.77L153,128.34s-4.77,2.19-8.26,0l-39.36-22.61s-.95-.74-.95-1.2" fill="none" stroke="#12832e" stroke-miterlimit="10"/>
            <path d="M239,80.92c0,.64-1.07,2-2.67,2.9L153,130.5s-4.77,2.2-8.26,0l-39.36-22.61s-1.14-.7-1.14-1.16" fill="none" stroke="#12832e" stroke-miterlimit="10"/>
            <path d="M239,82.89c-.05.65-1.06,2-2.66,2.89L153,132.46s-4.77,2.2-8.26,0l-39.36-22.61s-1.09-.39-1.09-.86" fill="none" stroke="#12832e" stroke-miterlimit="10"/>
            <path d="M239.2,84.65c0,.64-1.26,2.2-2.86,3.11L153,134.44s-4.77,2.2-8.26,0l-39.36-22.61s-1-.72-1-1.18" fill="none" stroke="#12832e" stroke-miterlimit="10"/>
            <path d="M104.7,96.58c-.49.91.62,1.45.62,1.45l39.37,22.61c3.49,2.2,8.25,0,8.25,0l23.15-13,1.44,13L153,134.44s-4.77,2.2-8.26,0l-39.36-22.61s-1-.72-1-1.18C98.74,104.63,100.2,100.25,104.7,96.58Z" fill="#12832e"/>
          </g>
        </g>
        <polygon points="152.94 120.64 152.94 134.44 230.65 90.95 230.65 76.99 152.94 120.64" fill="#12832e"/>
        <path d="M115.63,93.68,189.2,52.8a17.14,17.14,0,0,0,11.61,0L228,68.06c-1.51,2.21-1.46,4.76-.33,7.56l-72.32,40.77a71.1,71.1,0,0,0-12.72,0l-27-15.45A8.16,8.16,0,0,0,115.63,93.68Z" fill="#53d759"/>
        <path d="M119.66,94.23l70.11-39.54a15.77,15.77,0,0,0,10.49,0l24,13.89a5.36,5.36,0,0,0,0,6.09l-69.07,39.2a37.06,37.06,0,0,0-12.52,0l-23-13.18A6.42,6.42,0,0,0,119.66,94.23Z" fill="none" stroke="#36b950" stroke-miterlimit="10" stroke-width="2"/>
        <ellipse cx="143.85" cy="100.16" rx="6.43" ry="3.33" fill="#36b950"/>
        <ellipse cx="199.92" cy="68.66" rx="6.43" ry="3.53" fill="#36b950"/>
        <path d="M147.35,77c-3.5,11.34,13.1,22.36,33.16,20.26" fill="none" stroke="#36b950" stroke-miterlimit="10" stroke-width="2"/>
        <path d="M177.62,94.71c-15.69,1.64-28.68-7-26-15.86Z" fill="#2aa53e"/>
        <path d="M195,83.58q-1.53-9.36-19.63-12.48Z" fill="#2aa53e"/>
        <polygon points="183.89 103.82 138.91 76.07 192.98 98.25 185.4 105.52 183.89 103.82" fill="#12832e"/>
        <polygon points="185.15 116.41 185.15 102.63 205.6 89.6 208.55 89.53 208.57 103.31 185.15 116.41" fill="#f7b911"/>
        <polygon points="138.91 76.07 162.58 62.81 208.55 89.53 185.15 102.63 138.91 76.07" fill="#ffd964"/>
        <polygon points="169.75 66.98 146.58 80.47 151.39 83.23 151.72 83.42 174.9 69.97 169.75 66.98" fill="#ffe08b"/>
        <polygon points="177.49 71.47 154.39 84.95 163.15 89.99 169.15 93.44 191.8 79.79 177.49 71.47" fill="#ffe08b"/>
        <polygon points="160.19 64.16 206.17 90.86 203 92.64 157.45 65.69 160.19 64.16" fill="#ffc913"/>
        <polygon points="144.59 72.88 190.57 99.58 187.43 101.37 141.9 74.39 144.59 72.88" fill="#ffc913"/>
        <polygon points="206.17 104.66 206.17 90.86 203 92.64 203 106.43 206.17 104.66" fill="#e09c10"/>
        <polygon points="190.57 113.39 190.57 99.58 187.43 101.37 187.43 115.14 190.57 113.39" fill="#e09c10"/>
      </g>
      <g>
        <polygon points="132.78 63.8 132.78 67.6 140.88 66.13 139.88 59.82 132.78 63.8" fill="#e09c10"/>
        <path d="M232.39,59.12h0a2.07,2.07,0,0,0-1-1.39s-32.88-18.52-37.94-21.41-7.65-.89-7.65-.89L99.65,83.89c-.61.38-.83.73-.87,1h0V98.78a1,1,0,0,0,.45.78l39.37,22.61c3.49,2.2,8.25,0,8.25,0l83.38-46.68c1.58-.9,2.11-1.7,2.17-2.34v-14Z" fill="#2aa53e"/>
        <g clip-path="url(#clip-path-money-6)">
          <g>
            <path d="M232.83,61.42c.07.68-.85,2.15-2.65,3.18l-83.37,46.67s-4.77,2.2-8.26,0L99.19,88.67s-1.29-.8-.82-1.62" fill="none" stroke="#12832e" stroke-miterlimit="10"/>
            <path d="M232.82,58.53c.07.68-.84,2.14-2.64,3.16l-83.37,46.68s-4.77,2.2-8.26,0L99.19,85.77s-1.11-.55-.62-1.46" fill="none" stroke="#12832e" stroke-miterlimit="10"/>
            <path d="M232.77,64.19c0,.66-.91,1.9-2.55,2.84l-83.38,46.68s-4.76,2.19-8.25,0L99.22,91.1s-1-.64-1-1.08" fill="none" stroke="#12832e" stroke-miterlimit="10"/>
            <path d="M232.76,66.62a4.87,4.87,0,0,1-2.55,2.77l-83.38,46.68s-4.76,2.2-8.25,0L99.21,93.46s-.94-.74-.94-1.2" fill="none" stroke="#12832e" stroke-miterlimit="10"/>
            <path d="M232.88,68.65c0,.64-1.08,2-2.67,2.91l-83.38,46.67s-4.76,2.2-8.25,0L99.21,95.63s-1.13-.71-1.13-1.17" fill="none" stroke="#12832e" stroke-miterlimit="10"/>
            <path d="M232.86,70.62c-.05.65-1.06,2-2.65,2.89l-83.38,46.68s-4.76,2.2-8.25,0L99.21,97.58s-1.08-.39-1.09-.85" fill="none" stroke="#12832e" stroke-miterlimit="10"/>
            <path d="M233.07,72.38c0,.64-1.27,2.21-2.86,3.11l-83.38,46.68s-4.76,2.2-8.25,0L99.21,99.56s-1-.72-1-1.18" fill="none" stroke="#12832e" stroke-miterlimit="10"/>
          </g>
        </g>
        <polygon points="146.81 108.37 146.81 122.17 224.52 78.68 224.52 64.72 146.81 108.37" fill="#12832e"/>
        <path d="M109.5,81.41l73.57-40.88a17.14,17.14,0,0,0,11.61,0L221.9,55.79c-1.51,2.21-1.46,4.76-.33,7.56l-72.32,40.77a71.1,71.1,0,0,0-12.72,0l-27-15.45A8.16,8.16,0,0,0,109.5,81.41Z" fill="#53d759"/>
        <path d="M113.53,82l70.11-39.54a15.68,15.68,0,0,0,10.48,0l24,13.89a5.34,5.34,0,0,0,0,6.09L149,101.6a37.58,37.58,0,0,0-12.52,0l-23-13.18A6.47,6.47,0,0,0,113.53,82Z" fill="none" stroke="#36b950" stroke-miterlimit="10" stroke-width="2"/>
        <ellipse cx="137.71" cy="87.89" rx="6.43" ry="3.33" fill="#36b950"/>
        <ellipse cx="193.78" cy="56.39" rx="6.43" ry="3.53" fill="#36b950"/>
        <path d="M141.21,64.72c-3.5,11.34,13.11,22.36,33.17,20.27" fill="none" stroke="#36b950" stroke-miterlimit="10" stroke-width="2"/>
        <path d="M171.49,82.44c-15.7,1.64-28.69-7-26-15.86Z" fill="#2aa53e"/>
        <path d="M188.83,71.31q-1.52-9.36-19.63-12.47Z" fill="#2aa53e"/>
        <polygon points="177.75 91.55 132.78 63.8 186.84 85.98 179.27 93.25 177.75 91.55" fill="#12832e"/>
        <polygon points="179.02 104.14 179.02 90.36 199.46 77.33 202.42 77.26 202.44 91.05 179.02 104.14" fill="#f7b911"/>
        <polygon points="132.78 63.8 156.45 50.55 202.42 77.26 179.02 90.36 132.78 63.8" fill="#ffd964"/>
        <polygon points="163.61 54.71 140.44 68.2 145.26 70.97 145.58 71.15 168.76 57.7 163.61 54.71" fill="#ffe08b"/>
        <polygon points="171.35 59.21 148.25 72.69 157.01 77.72 163.02 81.17 185.67 67.53 171.35 59.21" fill="#ffe08b"/>
        <polygon points="154.05 51.89 200.04 78.59 196.87 80.37 151.32 53.42 154.05 51.89" fill="#ffc913"/>
        <polygon points="138.46 60.61 184.44 87.31 181.29 89.1 135.76 62.12 138.46 60.61" fill="#ffc913"/>
        <polygon points="200.04 92.39 200.04 78.59 196.87 80.37 196.87 94.16 200.04 92.39" fill="#e09c10"/>
        <polygon points="184.44 101.12 184.44 87.31 181.29 89.1 181.29 102.88 184.44 101.12" fill="#e09c10"/>
      </g>
      <g>
        <polygon points="138.55 43.46 138.55 47.26 146.65 45.79 145.65 39.48 138.55 43.46" fill="#e09c10"/>
        <path d="M238.15,38.78h0a2,2,0,0,0-1-1.39S204.29,18.87,199.23,16s-7.65-.9-7.65-.9L105.42,63.55c-.61.38-.83.73-.87,1h0V78.44a1,1,0,0,0,.45.79l39.37,22.6c3.49,2.2,8.25,0,8.25,0L236,55.15c1.58-.9,2.11-1.7,2.16-2.34v-14S238.16,38.78,238.15,38.78Z" fill="#2aa53e"/>
        <g clip-path="url(#clip-path-money-7)">
          <g>
            <path d="M238.6,41.08c.07.68-.85,2.15-2.65,3.18L152.58,90.94s-4.77,2.19-8.26,0L105,68.33s-1.29-.8-.82-1.62" fill="none" stroke="#12832e" stroke-miterlimit="10"/>
            <path d="M238.54,43.85c0,.66-.91,1.9-2.55,2.84L152.61,93.37s-4.76,2.19-8.25,0L105,70.76s-1-.63-1-1.08" fill="none" stroke="#12832e" stroke-miterlimit="10"/>
            <path d="M238.52,46.28c0,.64-1,1.86-2.54,2.77L152.6,95.73s-4.76,2.2-8.25,0L105,73.12s-.94-.74-1-1.2" fill="none" stroke="#12832e" stroke-miterlimit="10"/>
            <path d="M238.65,48.31c-.05.64-1.08,2-2.67,2.91L152.6,97.89s-4.76,2.2-8.25,0L105,75.29s-1.13-.71-1.13-1.17" fill="none" stroke="#12832e" stroke-miterlimit="10"/>
            <path d="M238.63,50.28c0,.65-1.06,2-2.65,2.89L152.6,99.85s-4.76,2.2-8.25,0L105,77.25s-1.08-.4-1.09-.86" fill="none" stroke="#12832e" stroke-miterlimit="10"/>
            <path d="M238.84,52c-.05.65-1.27,2.21-2.86,3.11L152.6,101.83s-4.76,2.2-8.25,0L105,79.23s-1-.73-1-1.19" fill="none" stroke="#12832e" stroke-miterlimit="10"/>
            <path d="M154,101.05,156.29,86,152.58,88s-4.77,2.2-8.26,0L105,65.43s-1.11-.55-.62-1.46c-3,1.74-1.8,7.77-.38,14.07,0,.46,1,1.19,1,1.19l39.37,22.6c3.49,2.2,8.25,0,8.25,0l1.41-.78" fill="#12832e"/>
            <path d="M238.53,38.3c.07.68-.83,2.14-2.63,3.16L152.53,88.14s-4.77,2.2-8.26,0L104.9,65.53s-1.11-.54-.62-1.45" fill="none" stroke="#12832e" stroke-miterlimit="10"/>
          </g>
        </g>
        <polygon points="152.58 88.03 152.58 101.83 230.29 58.34 230.29 44.38 152.58 88.03" fill="#12832e"/>
        <path d="M115.27,61.07l73.57-40.88a17,17,0,0,0,11.61,0l27.22,15.26c-1.51,2.21-1.46,4.77-.33,7.56L155,83.78a71.1,71.1,0,0,0-12.72,0l-27-15.45A8.16,8.16,0,0,0,115.27,61.07Z" fill="#53d759"/>
        <path d="M119.29,61.62,189.4,22.08a15.71,15.71,0,0,0,10.49,0l24,13.89a5.34,5.34,0,0,0,0,6.09L154.78,81.27a37.06,37.06,0,0,0-12.52,0l-23-13.19A6.42,6.42,0,0,0,119.29,61.62Z" fill="none" stroke="#36b950" stroke-miterlimit="10" stroke-width="2"/>
        <ellipse cx="143.48" cy="67.55" rx="6.43" ry="3.33" fill="#36b950"/>
        <ellipse cx="199.55" cy="36.05" rx="6.43" ry="3.53" fill="#36b950"/>
        <path d="M147,44.38c-3.5,11.34,13.1,22.36,33.17,20.27" fill="none" stroke="#36b950" stroke-miterlimit="10" stroke-width="2"/>
        <path d="M177.26,62.1c-15.7,1.64-28.69-7-25.95-15.86Z" fill="#2aa53e"/>
        <path d="M194.6,51Q193.09,41.61,175,38.5Z" fill="#2aa53e"/>
        <polygon points="183.52 71.22 138.55 43.46 192.61 65.64 185.03 72.92 183.52 71.22" fill="#12832e"/>
        <polygon points="184.79 83.81 184.79 70.02 205.23 56.99 208.19 56.92 208.21 70.71 184.79 83.81" fill="#f7b911"/>
        <polygon points="138.55 43.46 162.22 30.21 208.19 56.92 184.79 70.02 138.55 43.46" fill="#ffd964"/>
        <polygon points="169.38 34.37 146.21 47.86 151.03 50.63 151.35 50.81 174.53 37.37 169.38 34.37" fill="#ffe08b"/>
        <polygon points="177.12 38.87 154.02 52.35 162.78 57.38 168.79 60.83 191.44 47.19 177.12 38.87" fill="#ffe08b"/>
        <polygon points="159.82 31.55 205.81 58.25 202.63 60.03 157.09 33.08 159.82 31.55" fill="#ffc913"/>
        <polygon points="144.23 40.27 190.21 66.98 187.06 68.77 141.53 41.78 144.23 40.27" fill="#ffc913"/>
        <polygon points="205.81 72.05 205.81 58.25 202.63 60.03 202.63 73.82 205.81 72.05" fill="#e09c10"/>
        <polygon points="190.21 80.78 190.21 66.98 187.06 68.77 187.06 82.54 190.21 80.78" fill="#e09c10"/>
      </g>
      <g>
        <polygon points="133.24 29.23 133.24 33.03 141.34 31.56 140.34 25.25 133.24 29.23" fill="#e09c10"/>
        <path d="M232.84,24.55h0a2,2,0,0,0-1-1.39S199,4.64,193.92,1.76s-7.65-.9-7.65-.9L100.11,49.32c-.61.38-.83.73-.87,1h0V64.21a1,1,0,0,0,.45.79l39.37,22.6c3.49,2.2,8.25,0,8.25,0l83.38-46.67c1.58-.9,2.11-1.7,2.16-2.35v-14Z" fill="#2aa53e"/>
        <g clip-path="url(#clip-path-money-8)">
          <g>
            <path d="M233.29,26.85c.07.68-.85,2.16-2.65,3.18L147.27,76.71s-4.77,2.19-8.26,0L99.65,54.1s-1.29-.79-.82-1.62" fill="none" stroke="#12832e" stroke-miterlimit="10"/>
            <path d="M233.28,24c.07.68-.84,2.13-2.64,3.16L147.27,73.8s-4.77,2.2-8.26,0L99.65,51.2s-1.11-.55-.62-1.46" fill="none" stroke="#12832e" stroke-miterlimit="10"/>
            <path d="M233.23,29.62c0,.66-.91,1.91-2.55,2.84L147.3,79.14s-4.76,2.2-8.25,0L99.68,56.53s-1-.63-1.05-1.08" fill="none" stroke="#12832e" stroke-miterlimit="10"/>
            <path d="M233.21,32.05a4.79,4.79,0,0,1-2.54,2.77L147.29,81.5s-4.76,2.2-8.25,0L99.67,58.89s-.94-.74-1-1.2" fill="none" stroke="#12832e" stroke-miterlimit="10"/>
            <path d="M233.34,34.08c-.05.65-1.08,2-2.67,2.91L147.29,83.66s-4.76,2.2-8.25,0L99.67,61.06s-1.13-.71-1.13-1.17" fill="none" stroke="#12832e" stroke-miterlimit="10"/>
            <path d="M233.32,36.05c0,.65-1.06,2-2.65,2.9L147.29,85.62s-4.76,2.2-8.25,0L99.67,63s-1.08-.4-1.09-.86" fill="none" stroke="#12832e" stroke-miterlimit="10"/>
            <path d="M233.53,37.81c-.05.65-1.27,2.21-2.86,3.12L147.29,87.6s-4.76,2.2-8.25,0L99.67,65s-1-.73-1-1.19" fill="none" stroke="#12832e" stroke-miterlimit="10"/>
          </g>
        </g>
        <polygon points="147.27 73.8 147.27 87.6 224.97 44.11 224.97 30.15 147.27 73.8" fill="#12832e"/>
        <path d="M110,46.84,183.53,6a17,17,0,0,0,11.61,0l27.22,15.26c-1.51,2.21-1.46,4.77-.33,7.56L149.71,69.55a71.1,71.1,0,0,0-12.72,0L110,54.1A8.19,8.19,0,0,0,110,46.84Z" fill="#53d759"/>
        <path d="M114,47.39,184.09,7.85a15.71,15.71,0,0,0,10.49,0l24,13.89a5.35,5.35,0,0,0,0,6.1L149.46,67a37.06,37.06,0,0,0-12.52,0L114,53.86A6.44,6.44,0,0,0,114,47.39Z" fill="none" stroke="#36b950" stroke-miterlimit="10" stroke-width="2"/>
        <ellipse cx="138.17" cy="53.32" rx="6.43" ry="3.33" fill="#36b950"/>
        <ellipse cx="194.24" cy="21.82" rx="6.43" ry="3.53" fill="#36b950"/>
        <path d="M141.67,30.15c-3.5,11.34,13.1,22.36,33.16,20.27" fill="none" stroke="#36b950" stroke-miterlimit="10" stroke-width="2"/>
        <path d="M172,47.87c-15.7,1.64-28.69-7-25.95-15.86Z" fill="#2aa53e"/>
        <path d="M189.29,36.74q-1.51-9.36-19.63-12.47Z" fill="#2aa53e"/>
        <polygon points="178.21 56.98 133.24 29.23 187.3 51.41 179.72 58.69 178.21 56.98" fill="#12832e"/>
        <polygon points="179.48 69.58 179.48 55.79 199.92 42.77 202.88 42.69 202.9 56.48 179.48 69.58" fill="#f7b911"/>
        <polygon points="133.24 29.23 156.91 15.98 202.88 42.69 179.48 55.79 133.24 29.23" fill="#ffd964"/>
        <polygon points="164.07 20.14 140.9 33.63 145.72 36.4 146.04 36.59 169.22 23.14 164.07 20.14" fill="#ffe08b"/>
        <polygon points="171.81 24.64 148.71 38.12 157.47 43.15 163.48 46.6 186.13 32.96 171.81 24.64" fill="#ffe08b"/>
        <polygon points="154.51 17.32 200.5 44.02 197.32 45.8 151.77 18.85 154.51 17.32" fill="#ffc913"/>
        <polygon points="138.92 26.04 184.9 52.75 181.75 54.54 136.22 27.55 138.92 26.04" fill="#ffc913"/>
        <polygon points="200.5 57.82 200.5 44.02 197.32 45.8 197.32 59.59 200.5 57.82" fill="#e09c10"/>
        <polygon points="184.9 66.55 184.9 52.75 181.75 54.54 181.75 68.31 184.9 66.55" fill="#e09c10"/>
      </g>
    </g>
    <g>
      <g>
        <polygon points="172.18 136.59 172.18 140.39 180.28 138.92 179.29 132.61 172.18 136.59" fill="#e09c10"/>
        <path d="M271.79,131.91h0a2.1,2.1,0,0,0-1-1.39s-32.88-18.52-37.94-21.4-7.65-.89-7.65-.89l-86.16,48.46c-.61.38-.83.73-.87,1h0v13.87a1,1,0,0,0,.45.78L178,195c3.49,2.2,8.26,0,8.26,0l83.37-46.68c1.58-.9,2.11-1.7,2.17-2.34v-14Z" fill="#2aa53e"/>
        <g clip-path="url(#clip-path-money-9)">
          <g>
            <path d="M272.24,134.21c.07.68-.86,2.15-2.65,3.18l-83.38,46.67s-4.76,2.2-8.25,0l-39.37-22.6s-1.29-.8-.81-1.63" fill="none" stroke="#12832e" stroke-miterlimit="10"/>
            <path d="M272.22,131.32c.07.68-.84,2.14-2.63,3.16l-83.38,46.68s-4.76,2.2-8.25,0l-39.37-22.61s-1.11-.54-.62-1.45" fill="none" stroke="#12832e" stroke-miterlimit="10"/>
            <path d="M272.17,137c0,.65-.91,1.9-2.55,2.84l-83.37,46.67s-4.77,2.2-8.26,0l-39.37-22.6s-1-.64-1.05-1.08" fill="none" stroke="#12832e" stroke-miterlimit="10"/>
            <path d="M272.16,139.41a4.87,4.87,0,0,1-2.55,2.77l-83.37,46.68s-4.77,2.19-8.26,0l-39.37-22.61s-.94-.74-.94-1.2" fill="none" stroke="#12832e" stroke-miterlimit="10"/>
            <path d="M272.28,141.44c0,.64-1.08,2-2.67,2.9L186.24,191s-4.77,2.2-8.26,0l-39.37-22.61s-1.13-.7-1.13-1.16" fill="none" stroke="#12832e" stroke-miterlimit="10"/>
            <path d="M272.27,143.41c0,.65-1.07,2-2.66,2.89L186.24,193s-4.77,2.2-8.26,0l-39.37-22.61s-1.08-.39-1.08-.86" fill="none" stroke="#12832e" stroke-miterlimit="10"/>
            <path d="M272.47,145.17c-.05.64-1.27,2.2-2.86,3.11L186.24,195s-4.77,2.2-8.26,0l-39.37-22.61s-1-.72-1-1.18" fill="none" stroke="#12832e" stroke-miterlimit="10"/>
          </g>
        </g>
        <polygon points="186.21 181.16 186.21 194.96 263.92 151.47 263.92 137.51 186.21 181.16" fill="#12832e"/>
        <path d="M148.9,154.2l73.57-40.88a17.14,17.14,0,0,0,11.61,0l27.23,15.26c-1.51,2.21-1.46,4.76-.33,7.56l-72.32,40.77a71.1,71.1,0,0,0-12.72,0l-27-15.45A8.16,8.16,0,0,0,148.9,154.2Z" fill="#53d759"/>
        <path d="M152.93,154.75,223,115.21a15.77,15.77,0,0,0,10.49,0l24,13.89a5.34,5.34,0,0,0,0,6.09l-69.07,39.2a37.06,37.06,0,0,0-12.52,0l-23-13.18A6.47,6.47,0,0,0,152.93,154.75Z" fill="none" stroke="#36b950" stroke-miterlimit="10" stroke-width="2"/>
        <ellipse cx="177.12" cy="160.68" rx="6.43" ry="3.33" fill="#36b950"/>
        <ellipse cx="233.19" cy="129.18" rx="6.43" ry="3.53" fill="#36b950"/>
        <path d="M180.61,137.51c-3.49,11.34,13.11,22.36,33.17,20.26" fill="none" stroke="#36b950" stroke-miterlimit="10" stroke-width="2"/>
        <path d="M210.89,155.23c-15.7,1.64-28.69-7-25.95-15.86Z" fill="#2aa53e"/>
        <path d="M228.24,144.1q-1.53-9.36-19.63-12.48Z" fill="#2aa53e"/>
        <polygon points="217.16 164.34 172.18 136.59 226.24 158.77 218.67 166.04 217.16 164.34" fill="#12832e"/>
        <polygon points="218.42 176.93 218.42 163.15 238.87 150.12 241.82 150.05 241.84 163.83 218.42 176.93" fill="#f7b911"/>
        <polygon points="172.18 136.59 195.85 123.33 241.82 150.05 218.42 163.15 172.18 136.59" fill="#ffd964"/>
        <polygon points="203.01 127.5 179.85 140.99 184.66 143.75 184.99 143.94 208.17 130.49 203.01 127.5" fill="#ffe08b"/>
        <polygon points="210.75 131.99 187.66 145.47 196.42 150.51 202.42 153.96 225.07 140.31 210.75 131.99" fill="#ffe08b"/>
        <polygon points="193.45 124.67 239.44 151.38 236.27 153.16 190.72 126.21 193.45 124.67" fill="#ffc913"/>
        <polygon points="177.86 133.4 223.84 160.1 220.7 161.89 175.17 134.91 177.86 133.4" fill="#ffc913"/>
        <polygon points="239.44 165.18 239.44 151.38 236.27 153.16 236.27 166.95 239.44 165.18" fill="#e09c10"/>
        <polygon points="223.84 173.91 223.84 160.1 220.7 161.89 220.7 175.66 223.84 173.91" fill="#e09c10"/>
      </g>
      <g>
        <polygon points="175.35 116.64 175.35 120.44 183.45 118.97 182.45 112.66 175.35 116.64" fill="#e09c10"/>
        <path d="M275,112h0a2.07,2.07,0,0,0-1-1.39S241.09,92.05,236,89.17s-7.65-.9-7.65-.9l-86.16,48.46c-.61.38-.83.73-.87,1h0v13.86a1,1,0,0,0,.45.79L181.16,175c3.49,2.2,8.25,0,8.25,0l83.38-46.68c1.58-.9,2.11-1.7,2.17-2.34V112A0,0,0,0,1,275,112Z" fill="#2aa53e"/>
        <g clip-path="url(#clip-path-money-10)">
          <g>
            <path d="M275.4,114.26c.07.68-.85,2.15-2.65,3.18l-83.37,46.68s-4.77,2.19-8.26,0l-39.36-22.61s-1.29-.8-.82-1.62" fill="none" stroke="#12832e" stroke-miterlimit="10"/>
            <path d="M275.39,111.38c.07.67-.84,2.13-2.64,3.16l-83.37,46.67s-4.77,2.2-8.26,0l-39.36-22.6s-1.11-.55-.62-1.46" fill="none" stroke="#12832e" stroke-miterlimit="10"/>
            <path d="M275.34,117c0,.66-.91,1.9-2.55,2.84l-83.38,46.68s-4.76,2.19-8.25,0l-39.37-22.61s-1-.63-1-1.08" fill="none" stroke="#12832e" stroke-miterlimit="10"/>
            <path d="M275.33,119.46a4.87,4.87,0,0,1-2.55,2.77L189.4,168.91s-4.76,2.2-8.25,0L141.78,146.3s-.94-.74-.94-1.2" fill="none" stroke="#12832e" stroke-miterlimit="10"/>
            <path d="M275.45,121.49c-.05.64-1.08,2-2.67,2.91L189.4,171.07s-4.76,2.2-8.25,0l-39.37-22.6s-1.13-.71-1.13-1.17" fill="none" stroke="#12832e" stroke-miterlimit="10"/>
            <path d="M275.43,123.46c-.05.65-1.06,2-2.65,2.89L189.4,173s-4.76,2.2-8.25,0l-39.37-22.6s-1.08-.4-1.09-.86" fill="none" stroke="#12832e" stroke-miterlimit="10"/>
            <path d="M275.64,125.22c-.05.65-1.27,2.21-2.86,3.11L189.4,175s-4.76,2.2-8.25,0l-39.37-22.6s-1-.73-1-1.19" fill="none" stroke="#12832e" stroke-miterlimit="10"/>
          </g>
        </g>
        <polygon points="189.38 161.21 189.38 175.01 267.09 131.52 267.09 117.56 189.38 161.21" fill="#12832e"/>
        <path d="M152.07,134.25l73.57-40.88a17,17,0,0,0,11.61,0l27.22,15.26c-1.51,2.21-1.46,4.77-.33,7.56L191.82,157a71.1,71.1,0,0,0-12.72,0l-27-15.45A8.16,8.16,0,0,0,152.07,134.25Z" fill="#53d759"/>
        <path d="M156.1,134.8l70.11-39.54a15.68,15.68,0,0,0,10.48,0l24,13.89a5.34,5.34,0,0,0,0,6.09l-69.07,39.21a37.06,37.06,0,0,0-12.52,0l-23-13.19A6.47,6.47,0,0,0,156.1,134.8Z" fill="none" stroke="#36b950" stroke-miterlimit="10" stroke-width="2"/>
        <ellipse cx="180.28" cy="140.73" rx="6.43" ry="3.33" fill="#36b950"/>
        <ellipse cx="236.35" cy="109.23" rx="6.43" ry="3.53" fill="#36b950"/>
        <path d="M183.78,117.56c-3.5,11.34,13.11,22.36,33.17,20.27" fill="none" stroke="#36b950" stroke-miterlimit="10" stroke-width="2"/>
        <path d="M214.06,135.28c-15.7,1.64-28.69-7-25.95-15.86Z" fill="#2aa53e"/>
        <path d="M231.4,124.15q-1.52-9.36-19.63-12.47Z" fill="#2aa53e"/>
        <polygon points="220.32 144.4 175.35 116.64 229.41 138.82 221.84 146.09 220.32 144.4" fill="#12832e"/>
        <polygon points="221.59 156.99 221.59 143.2 242.03 130.17 244.99 130.1 245.01 143.89 221.59 156.99" fill="#f7b911"/>
        <polygon points="175.35 116.64 199.02 103.39 244.99 130.1 221.59 143.2 175.35 116.64" fill="#ffd964"/>
        <polygon points="206.18 107.55 183.01 121.04 187.83 123.81 188.15 124 211.34 110.55 206.18 107.55" fill="#ffe08b"/>
        <polygon points="213.92 112.05 190.82 125.53 199.59 130.56 205.59 134.01 228.24 120.37 213.92 112.05" fill="#ffe08b"/>
        <polygon points="196.62 104.73 242.61 131.43 239.44 133.21 193.89 106.26 196.62 104.73" fill="#ffc913"/>
        <polygon points="181.03 113.45 227.01 140.16 223.87 141.95 178.33 114.96 181.03 113.45" fill="#ffc913"/>
        <polygon points="242.61 145.23 242.61 131.43 239.44 133.21 239.44 147 242.61 145.23" fill="#e09c10"/>
        <polygon points="227.01 153.96 227.01 140.16 223.87 141.95 223.87 155.72 227.01 153.96" fill="#e09c10"/>
      </g>
    </g>
  </g>
</svg>
