<svg xmlns="http://www.w3.org/2000/svg" xmlns:xlink="http://www.w3.org/1999/xlink" viewBox="0 0 371 396">
	<defs>
		<linearGradient id="linear-gradient" x1="69.3" y1="202.22" x2="83.39" y2="195.59" gradientUnits="userSpaceOnUse">
			<stop offset="0" stop-color="#e96a3c"/>
			<stop offset="1" stop-color="#fee827"/>
		</linearGradient>
		<linearGradient id="linear-gradient-2" x1="52.81" y1="207.39" x2="69.09" y2="186.77" gradientUnits="userSpaceOnUse">
			<stop offset="0.2" stop-color="#e96a3c"/>
			<stop offset="1" stop-color="#fee827"/>
		</linearGradient>
		<linearGradient id="linear-gradient-3" x1="89.41" y1="128.3" x2="93.01" y2="119.6" xlink:href="#linear-gradient"/>
		<linearGradient id="linear-gradient-4" x1="84.81" y1="138.43" x2="90.57" y2="124.8" xlink:href="#linear-gradient"/>
		<linearGradient id="linear-gradient-5" x1="67.38" y1="189.3" x2="87.03" y2="138.54" xlink:href="#linear-gradient"/>
		<linearGradient id="linear-gradient-6" x1="79.3" y1="159.99" x2="88.92" y2="132.46" gradientUnits="userSpaceOnUse">
			<stop offset="0.47" stop-color="#e96a3c"/>
			<stop offset="1" stop-color="#fee827"/>
		</linearGradient>
		<linearGradient id="linear-gradient-7" x1="270.82" y1="178.12" x2="246.54" y2="178.12" xlink:href="#linear-gradient"/>
		<linearGradient id="linear-gradient-8" x1="175.16" y1="184.75" x2="175.16" y2="152.43" gradientUnits="userSpaceOnUse">
			<stop offset="0" stop-color="#fe7537"/>
			<stop offset="0.89" stop-color="#ffbd35"/>
		</linearGradient>
	</defs>
	<path d="M255,355.61a105,105,0,0,0-18.65,1.6c-16.82-7.2-46.8-12-81-12-37.66,0-70.21,5.82-85.69,14.26a101.12,101.12,0,0,0-21.91-2.27c-22.57,0-40.86,6.52-40.86,14.55s18.29,14.55,40.86,14.55a96.48,96.48,0,0,0,25-3c16.47,7.6,47.3,12.72,82.62,12.72s65.93-5.08,82.44-12.64A106.76,106.76,0,0,0,255,384.71c22.57,0,40.86-6.52,40.86-14.55S277.58,355.61,255,355.61Z" opacity="0.1"/>
	<g>
		<g>
			<rect x="102.73" y="308.69" width="21.83" height="14.74" fill="#5d783f"/>
			<rect x="94.08" y="323.43" width="30.47" height="14.03" fill="#678446"/>
			<rect x="66.87" y="337.46" width="57.69" height="15.78" fill="#789954"/>
			<rect x="104.9" y="337.46" width="19.65" height="15.78" fill="#aab58c"/>
			<rect x="48.16" y="353.24" width="76.39" height="14.13" fill="#84a95c"/>
			<rect x="100.74" y="353.24" width="23.81" height="14.13" fill="#bccc9b"/>
			<rect x="48.16" y="353.24" width="14.79" height="14.13" fill="#5d783f"/>
			<line x1="102.73" y1="323.43" x2="124.56" y2="323.43" fill="none" stroke="#252122" stroke-miterlimit="10" stroke-width="0.5"/>
			<line x1="94.08" y1="337.46" x2="124.56" y2="337.46" fill="none" stroke="#252122" stroke-miterlimit="10" stroke-width="0.5"/>
			<line x1="66.87" y1="353.24" x2="124.56" y2="353.24" fill="none" stroke="#252122" stroke-miterlimit="10" stroke-width="0.5"/>
			<line x1="48.16" y1="367.37" x2="124.56" y2="367.37" fill="none" stroke="#252122" stroke-miterlimit="10" stroke-width="0.5"/>
		</g>
		<g>
			<rect x="166.18" y="353.15" width="28.54" height="15.12" fill="#8db361"/>
			<rect x="143.83" y="353.15" width="22.35" height="15.12" fill="#708e4e"/>
			<rect x="170" y="338.03" width="28.54" height="15.12" fill="#4b6132"/>
			<rect x="141.47" y="338.03" width="28.54" height="15.12" fill="#73954e"/>
			<path d="M167.78,338c-1.91,10-10,9.92-10,9.92V338Z" fill="#88ae5e"/>
			<path d="M166.18,353.15a21.49,21.49,0,0,1-9.66,8.13v-8.13Z" fill="#88ae5e"/>
			<line x1="141.47" y1="353.15" x2="198.54" y2="353.15" fill="none" stroke="#252122" stroke-miterlimit="10" stroke-width="0.5"/>
		</g>
		<g>
			<path d="M220.46,338.48c23.11,0,30.45-5,30.45-5l8.24,5-19.34,5Z" fill="#97b573" stroke="#738b55" stroke-miterlimit="10"/>
			<rect x="203.74" y="323.01" width="25.13" height="15.02" fill="#8db361"/>
			<rect x="203.74" y="338.03" width="57.07" height="15.12" fill="#678446"/>
			<rect x="253.34" y="338.03" width="7.46" height="15.12" fill="#98bf69"/>
			<rect x="203.74" y="338.03" width="21.17" height="15.12" fill="#d6e8b3"/>
			<rect x="203.74" y="353.15" width="66.24" height="15.12" fill="#7b9d56"/>
			<path d="M203.74,353.15v2.2c5.06,2.25,19.37,8,42.89,12.92l11.25-15.12Z" fill="#678446"/>
			<rect x="203.74" y="353.15" width="28.54" height="15.12" fill="#d6e8b3"/>
			<path d="M232.27,364.91V353.15H203.74v2.2A189.93,189.93,0,0,0,232.27,364.91Z" fill="#a1ae86"/>
			<line x1="143.83" y1="368.27" x2="194.71" y2="368.27" fill="none" stroke="#252122" stroke-miterlimit="10" stroke-width="0.5"/>
			<line x1="203.74" y1="338.03" x2="228.87" y2="338.03" fill="none" stroke="#252122" stroke-miterlimit="10" stroke-width="0.5"/>
			<line x1="203.74" y1="353.15" x2="260.81" y2="353.15" fill="none" stroke="#252122" stroke-miterlimit="10" stroke-width="0.5"/>
			<line x1="203.74" y1="368.27" x2="269.97" y2="368.27" fill="none" stroke="#252122" stroke-miterlimit="10" stroke-width="0.5"/>
		</g>
		<g>
			<rect x="113.12" y="281.81" width="41.57" height="88.35" fill="#9bbf6a"/>
			<path d="M154.7,364.64c-28.69,5.76-38.68.54-41.58-1.87v7.39H154.7Z" fill="#667a4b"/>
			<rect x="116.81" y="284.46" width="35.89" height="79.28" rx="4.87" fill="#d0f2a8"/>
			<ellipse cx="134.48" cy="324.85" rx="14.08" ry="12.99" fill="#91ac6e"/>
			<rect x="113.12" y="313.84" width="41.57" height="19.56" fill="#ebe1cc"/>
			<rect x="113.12" y="315.73" width="41.57" height="15.78" fill="#f4f5e4"/>
			<ellipse cx="137.03" cy="296.93" rx="7.94" ry="5.39" fill="#91ac6e"/>
			<ellipse cx="137.03" cy="350.6" rx="7.94" ry="5.39" fill="#91ac6e"/>
		</g>
	</g>
	<g>
		<g id="wigl-money1-gr">
			<g id="wigl-money1">
				<path d="M194.75,33.74s20.26-11,26.93-16.53S251.11,1.85,254.75,1.1c0,0,16.51,14.53,23.24,24.66,0,0-16-3.76-31,4.53A253.4,253.4,0,0,0,220.66,47Z" fill="#5c9d27"/>
				<path d="M220.41,43.05c5.57-7.58,18-12.83,18-12.83C225.62,29.87,220.45,23,220.45,23a142.46,142.46,0,0,1-18,10.19A58.23,58.23,0,0,0,220.41,43.05Z" fill="#cddfa1"/>
				<path d="M241,11.62l14-6.7a87.15,87.15,0,0,1,17.08,17.23c-6.77-1.65-13.07-1.24-18.82,1.63C251.45,18,247.24,14,241,11.62Z" fill="#cddfa1"/>
				<path d="M249.74,19.48c-3.33-6-12.94-7.59-18.79-8a58.74,58.74,0,0,0-9.27,5.71c-.35.28-.73.58-1.14.89.15,2.6,1.86,6.19,9,8.93C242,31.85,254.65,28.36,249.74,19.48Z" fill="#bad37d"/>
				<polygon points="208.44 27.67 209.57 28.81 217.72 23.65 216.46 22.09 208.44 27.67" fill="#bad37d"/>
				<polygon points="238.91 9.28 240.86 10.42 248.62 6.52 246.92 5.14 238.91 9.28" fill="#bad37d"/>
				<path d="M228.62,38.09l1,1.17q4.5-2.55,8.58-5.4l-1-1.24A58.72,58.72,0,0,1,228.62,38.09Z" fill="#bad37d"/>
				<path d="M259,23.26l.43,1.22a19,19,0,0,1,7.84-.61l-.14-1.32A23.34,23.34,0,0,0,259,23.26Z" fill="#bad37d"/>
				<path d="M220.66,47l.87-.64a251.42,251.42,0,0,1-24.19-14.07c-1.61.9-2.59,1.43-2.59,1.43Z" fill="#cddfa1"/>
				<ellipse cx="255.64" cy="14.43" rx="3.15" ry="5.77" transform="translate(137.93 241.82) rotate(-65.86)" fill="#5c9d27"/>
				<ellipse cx="218.81" cy="33.19" rx="6.05" ry="3.71" transform="translate(-2.4 26.53) rotate(-6.9)" fill="#5c9d27"/>
			</g>
		</g>
		<g id="wigl-money2-gr">
			<g id="wigl-money2">
				<path d="M271,29.46c8.6,6.2,16.95,12.09,21.13,12.61,10.42-8.11,22-18.77,34.1-30.66l-18.9-4.78c-6.91,7.79-14.17,14.48-22,19.35C282.2,28,276.71,28.76,271,29.46Z" fill="#5c9d27"/>
				<path d="M275.72,31.22A20.06,20.06,0,0,0,288,27.61c2.35,2.71,5.72,4.44,9.42,5.86l-6.81,6.42c-4-1.44-9.14-4.69-14.69-8.5" fill="#cddfa1"/>
				<path d="M298.32,19.66c3.94-3.24,7.49-6.51,9.09-9.85a54.93,54.93,0,0,1,14.65,2.74L310.27,22.63C307.39,19.82,303.14,19.28,298.32,19.66Z" fill="#cddfa1"/>
				<path d="M290.81,24.39s-4.5,4.77,6.52,7.48a19,19,0,0,0,6.38.6q3.85-3.37,7.85-7.06C301.71,16.51,290.81,24.39,290.81,24.39Z" fill="#bad37d"/>
				<path d="M284.51,32.42s-1.12,3.93,6.1,2.91S286.48,28.62,284.51,32.42Z" fill="#5c9d27"/>
				<path d="M306.36,15.78s0,4,4.74,1.77,2.87-3.83,2.25-4.32S307.92,12.26,306.36,15.78Z" fill="#5c9d27"/>
				<polygon points="312.26 22.09 313.29 22.93 319.25 17.31 318.5 16.51 312.26 22.09" fill="#bad37d"/>
				<polygon points="293.13 39.09 298.04 34.18 299.64 34.89 294.04 39.65 293.13 39.09" fill="#bad37d"/>
			</g>
		</g>
		<g id="wigl-money3-gr">
			<g id="wigl-money3">
				<path d="M299.55,8.87,324,2.44S309.28,53.85,301.15,60l-30.8-3.12a44.5,44.5,0,0,0,21.54-25.13C298.32,13.31,299.55,8.87,299.55,8.87Z" fill="#5c9d27"/>
				<path d="M301.34,11a58.49,58.49,0,0,1-4.72,18.71c5.58-4.08,11.1-6,16.53-4.91A39.82,39.82,0,0,1,319,6.89,88,88,0,0,0,301.34,11Z" fill="#cddfa1"/>
				<path d="M289.25,44.21C293.77,47,299,47,305,44.21l-6.52,13.7L277.63,56.3A25.69,25.69,0,0,0,289.25,44.21Z" fill="#cddfa1"/>
				<path d="M295,33.15c-15.59,13.89,6.33,12,11.06,9.55a34.13,34.13,0,0,0,6.3-4.69c1.14-3,2.27-6.17,3.33-9.27C313,26.27,306.48,22.94,295,33.15Z" fill="#bad37d"/>
				<polygon points="297.2 19.74 294.3 28.38 295.75 28.38 298.63 19.74 297.2 19.74" fill="#bad37d"/>
				<path d="M285.66,46.1l1.06.71a25.39,25.39,0,0,1-5.31,5.67l-.78-.85A25.19,25.19,0,0,0,285.66,46.1Z" fill="#bad37d"/>
				<path d="M316.6,14.54a26,26,0,0,0-2.36,8l1.46.66c.33-3.49,1.09-6.25,2.46-8Z" fill="#bad37d"/>
				<polygon points="306.35 44.61 302.84 51.41 304.6 52.12 307.82 45.25 306.35 44.61" fill="#bad37d"/>
				<path d="M295.08,47.83s-8.32,2.7-6.48,5,8.26-.31,8.26-.31S302.21,47.44,295.08,47.83Z" fill="#5c9d27"/>
				<path d="M311.21,13s-4-1.81-6.52,3.08.46,5.74,1.91,5.63,5.21-3.57,5.53-4.81S311.21,13,311.21,13Z" fill="#5c9d27"/>
			</g>
		</g>
	</g>
	<g id="driver3">
		<g id="d3-right-hand">
			<path d="M122,177.87s-12.61,53.58,13.89,45.93,19.85,13,19.85,13a31.11,31.11,0,0,1-14.18,17s-25.51,6.81-37.7-17.29-4.25-51.59,0-58.68C103.86,174.6,122,174.6,122,177.87Z" fill="#238b4f"/>
			<path d="M135.89,223.8c-14.52,4.19-17.3-10-16.84-23.7-5.09,4-14.44,13.62-8.57,26.06,7.26,15.4,22.79,6.65,25.79-2.46Z" fill="#22a65b"/>
			<path d="M108.06,243.09a30.14,30.14,0,0,0,12.7,9.37l12.51-28.09c-3.93.58-6.85-.39-9-2.4Z" fill="#ddd"/>
			<path d="M131.87,224.51h-.07c-.42,0-.82,0-1.21,0h-.17c-.37,0-.72,0-1.06-.1l-.15,0a9.41,9.41,0,0,1-3.15-1.09l-.07,0a8.52,8.52,0,0,1-.8-.53l-.13-.1c-.24-.18-.48-.38-.71-.59l-.06-.05-8.37,10.88c4.55,3,9.93,1.77,14.09-1.16l3.26-7.32A11.64,11.64,0,0,1,131.87,224.51Z" fill="#fff"/>
			<g>
				<g>
					<polygon points="69 188.46 77.78 189.87 84.13 209.15 68.24 206.13 69 188.46" fill="url(#linear-gradient)"/>
					<path d="M44.62,195.54c.38-.47,20-10,20-10l6.24,1.89-1.33,21Z" fill="url(#linear-gradient-2)"/>
					<polygon points="55.67 192.9 60.97 188.79 64.04 191.2 59.57 195.38 55.67 192.9" fill="#fff"/>
				</g>
				<g>
					<g>
						<polygon points="29.03 222.38 36.97 194.88 47.03 194.17 84.59 206.93 91.11 213.16 82.6 242.36 29.03 222.38" fill="#454446"/>
						<polygon points="36.47 225.15 45.63 228.57 57.77 197.82 48.34 194.62 36.47 225.15" fill="#5c5d5f"/>
						<polygon points="64.04 235.44 77.24 240.36 88.16 210.35 84.59 206.93 74.42 203.48 64.04 235.44" fill="#38373a"/>
					</g>
					<g>
						<polygon points="6.92 258.24 18.82 219.69 29.74 219.69 80.76 234.43 91.11 243.5 79.2 281.06 6.92 258.24" fill="#454446"/>
						<polygon points="52.48 272.62 72.8 279.03 86.64 239.58 80.76 234.43 68.09 230.76 52.48 272.62" fill="#38373a"/>
						<polygon points="14.04 260.49 26.57 264.44 42.95 223.5 29.74 219.69 27.39 219.69 14.04 260.49" fill="#5c5d5f"/>
					</g>
					<polygon points="0 262.91 2.52 256.54 9.04 255.83 79.06 275.53 84.59 282.47 81.19 290.27 0 262.91" fill="#38373a"/>
				</g>
				<g>
					<path d="M87.52,126.38c-.15-.14-1.85-4.21-1.85-4.21l6.9-4.3L97.06,125l-3.59,3.21Z" fill="url(#linear-gradient-3)"/>
					<polygon points="86.85 123.02 89.41 125.29 94.81 121.41 92.96 118.49 86.85 123.02" fill="#fff"/>
					<path d="M95.2,122l-.66-.41-5.13,3.68,2.22,2.33,1.84.55L97.06,125Z" opacity="0.1"/>
				</g>
				<g>
					<path d="M69.42,129.4c.21-.07,9.78-6.45,9.78-6.45L101,129.4l1.63,12.26Z" fill="url(#linear-gradient-4)"/>
					<path d="M91.43,137.52l8,2.94-1.54-12L92,126.74C92,129.3,91.82,134.62,91.43,137.52Z" opacity="0.1"/>
					<polygon points="82.82 124.02 77.22 128.76 81.19 130.47 85.01 124.67 82.82 124.02" fill="#fff"/>
				</g>
				<g>
					<path d="M106.46,151.13l14.17,5.58s-1.53,17.12-12.23,29.6-21.05-1.7-21.05-1.7l3.76-6s6,7.37,11.9,2.91,9.83-21.33,9.83-21.33l-8.27-3.12Z" fill="#e1881c"/>
					<path d="M103.58,163.13s7.33-3.21,10.56,4.68-3.62,4.25-3.62,4.25,1.42,9.22-1.63,8.22-3.11-2.62-3.11-2.62,1,9.07-1.49,7.73-6.81-10.28-6.45-12S103.58,163.13,103.58,163.13Z" fill="#464749"/>
					<g>
						<path d="M61.63,134.08s-15,29.81-4.26,47.1,30,7.28,30,7.28a57.74,57.74,0,0,0,20.6-39.69Z" fill="url(#linear-gradient-5)"/>
						<path d="M67.19,135.85C54.92,161.4,59,171.71,64.25,182.76a61.51,61.51,0,0,1,8.43-45.17Z" fill="#fff"/>
						<path d="M92.35,143.83c-1.67,7.52-8.18,32.87-22.68,46.85A24.75,24.75,0,0,0,82,190.4c15.21-13.7,21.68-35.46,23.43-42.42Z" opacity="0.1"/>
					</g>
					<path d="M59.69,144.33c.09-.14,2.27-5.57,2.27-5.57l-16.11-6.15L37.77,151s-4.63,11.36.4,19.51,13.82,6.81,17,2.48l.49-6.3s-8.64,6-11.83-2.13,5.95-23.88,5.95-23.88Z" fill="#fa9e20"/>
				</g>
				<g>
					<path d="M58.51,132.76a440.51,440.51,0,0,0,54.33,18l-3.54-8.56c-15-5.46-30.11-10.54-45.08-15.44Z" fill="url(#linear-gradient-6)"/>
					<path d="M74.93,130.29l-4.64-1.53-4.77,4.47,4.15,2.05Z" fill="#fff"/>
					<path d="M97,146.29q5.86,1.77,11.82,3.38l-3-8.71q-4.53-1.64-9-3.23Z" opacity="0.1"/>
				</g>
			</g>
			<path d="M116.55,159.52s9.35,11.13,6.94,18.14-5.81,8.72-15.3,8.58c0,0,8.55-12.24,9.07-15.88C117.33,169.87,112.08,164.34,116.55,159.52Z" fill="#464749"/>
		</g>
		<g id="d3-left-hand">
			<path d="M208.46,248.55s54.61,12.85,57.64-77.67c-.35-3.26-21.52-1-21.17,2.27.57,50.08-38.36,50.65-38.36,50.65C199.39,228.05,200.52,245.91,208.46,248.55Z" fill="#238b4f"/>
			<path d="M241.68,196.2C237,210.06,227.94,217,220.23,220.39c.59,2.74,3.37,6.34,14.45,4.4C247.32,222.58,247.4,204.4,241.68,196.2Z" fill="#22a65b"/>
			<path d="M235.72,243.9a44.26,44.26,0,0,0,12.6-10.75L233,211.27a37.76,37.76,0,0,1-8.54,6.95Z" fill="#ddd"/>
			<path d="M233,211.27c-.25.27-.5.54-.76.8l-.17.17c-.43.45-.87.87-1.31,1.28l-.29.25c-.35.32-.71.64-1.07.94L229,215c-.44.36-.89.71-1.34,1.05h0c-.44.33-.88.63-1.33.94-.13.09-.26.18-.4.26-.34.23-.67.44-1,.65l-.37.23-.13.08,3.1,7.05a28.89,28.89,0,0,0,7.16-.48,11.68,11.68,0,0,0,5.83-2.76Z" fill="#fff"/>
			<g>
				<path d="M286.22,276.43,241.53,279s-2.17-11.53-4-35,5.77-42.26,10.37-56.65,2.09-38.3,2.09-38.3h11l.25,17.89a78.34,78.34,0,0,0,6.16,21.12c4.91,10.58,13.75,29,16.44,48.47A297.76,297.76,0,0,1,286.22,276.43Z" fill="#00572f"/>
				<path d="M283.86,236.55c-.37-2.71-.88-5.41-1.47-8.07a325,325,0,0,0-39,2.69l3,34.39c20-3.65,33.5-3.82,39.55-3.62C285.7,254.66,285.1,245.5,283.86,236.55Z" fill="#fbf55b"/>
				<path d="M261,194.88l-6.9-3.4s-10.88,18.71-.8,86.82l7.34-.41C251.37,214.72,261,194.88,261,194.88Z" fill="#fff" opacity="0.1"/>
				<path d="M285.65,255.17l-35.16-24.81c-2.26.24-4.61.51-7.07.81l.38,4.27,35.91,26.48c2.58-.06,4.69,0,6.28,0C285.9,259.83,285.79,257.55,285.65,255.17Z" fill="#f35b61"/>
				<path d="M247.93,187.37c-.43,1.37-.9,2.79-1.39,4.24l16.7,11.63,7.58-7.79c-1.24-2.74-2.4-5.22-3.4-7.37A78.34,78.34,0,0,1,261.26,167l-.2-14H250.34C250.83,160.39,251.39,176.57,247.93,187.37Z" fill="url(#linear-gradient-7)"/>
			</g>
			<path d="M249.63,178s1.07-12.48,1.14-18.22c0,0,6.66-4.39,5.31-6.87s-12,4.68-12.4,11.27S246.16,176.1,249.63,178Z" fill="#454446"/>
			<path d="M254.24,159s6.85-6.87,11.86-1.13.9,14.24.9,14.24-6.52,4.89-11.06,6,1.06-5.18,3.76-7.8c0,0-8.86.92-7.09-1.42s8.22-6.37,8.22-6.37S249.43,162,254.24,159Z" fill="#454446"/>
		</g>
		<g id="d3-head">
			<g>
				<g>
					<ellipse cx="147.58" cy="159.68" rx="5.13" ry="5.72" fill="#ffbd35"/>
					<path d="M148.9,160.73a.44.44,0,0,0-.08-.16,1.83,1.83,0,0,0-.43-.45,1.78,1.78,0,0,1-.16-2.4,1.09,1.09,0,0,0-.48-2.07,2.17,2.17,0,0,0-.88.38c-2.24,1.57-2.6,3.68-1.38,6.25h0a1.87,1.87,0,0,0,3.62-.69A1.8,1.8,0,0,0,148.9,160.73Z" fill="#ff9239"/>
				</g>
				<g>
					<ellipse cx="201.95" cy="160.17" rx="5.49" ry="6.17" fill="#ffbd35"/>
					<path d="M201.48,161.3a.74.74,0,0,1,.08-.16,2.08,2.08,0,0,1,.43-.46,1.79,1.79,0,0,0,.17-2.4,1.08,1.08,0,0,1-.62-1,1.09,1.09,0,0,1,1.1-1.09,2.1,2.1,0,0,1,.87.38c2.24,1.57,2.6,3.68,1.38,6.25h0a1.88,1.88,0,0,1-3.63-.69A1.8,1.8,0,0,1,201.48,161.3Z" fill="#ff9239"/>
				</g>
				<g>
					<polygon points="151.34 146.84 151.34 215.29 195.85 216 199.9 150.85 151.34 146.84" fill="#ffbd35"/>
					<path d="M160.24,166.33c-3.09,0-5.5-4.11-5.5-9.36a1,1,0,0,1,2,0c0,4.34,1.84,7.36,3.5,7.36s3.5-3,3.5-7.36a1,1,0,0,1,2,0C165.74,162.22,163.32,166.33,160.24,166.33Z" fill="#412716"/>
					<path d="M190.05,165.87l-.36,0c-1.51-.17-2.75-1.38-3.5-3.42a14.35,14.35,0,0,1-.62-6.47,1,1,0,1,1,2,.23,12.48,12.48,0,0,0,.51,5.55c.47,1.27,1.14,2,1.85,2.12s1.54-.53,2.28-1.66a12.42,12.42,0,0,0,1.72-5.3,1,1,0,1,1,2,.22,14.52,14.52,0,0,1-2,6.17C192.78,165,191.43,165.87,190.05,165.87Z" fill="#412716"/>
					<path d="M160.46,186.38s1.51,14.69,16.3,13.27S191,184.11,191,184.11l-16.49-2.36Z" fill="#f7f8f7"/>
					<path d="M166.4,191.09s2.3,2.13,4.36,2.48l-5.6.18Z" fill="#ddd"/>
					<path d="M179.62,193.75s3.47-1.78,4.25-3a4.85,4.85,0,0,1,.57,3Z" fill="#ddd"/>
					<path d="M158.78,185.24s6.52,10.42,14.67.85c.74-.73,1.63-.9,2.17-.35,0,0,9.57,9.08,16.26-2.13,0,0-5.46,1.35-7.73-7.08s-10.7-2.55-10.7-2.55l-5,2.55S165,182.76,158.78,185.24Z" fill="#663d14"/>
					<path d="M166.15,154.06s-3.26,31,5,30.69,11.41-12.28,13.68-28.67C185.14,152.85,166.5,150.84,166.15,154.06Z" fill="url(#linear-gradient-8)"/>
					<path d="M191.56,181.24a2.72,2.72,0,0,1,1.78-.07,2.87,2.87,0,0,1,1.61,1.05,2.49,2.49,0,0,1,.48,1.93,2.59,2.59,0,0,1-.86,1.59,7.92,7.92,0,0,1-.15-.84,6,6,0,0,0-.16-.72,2.91,2.91,0,0,0-.51-1.06A11.39,11.39,0,0,0,191.56,181.24Z" fill="#fd9242"/>
					<path d="M159.89,183.66a6.17,6.17,0,0,0-1.27.86,2.75,2.75,0,0,0-.63,1,8.16,8.16,0,0,0-.33,1.28,10.58,10.58,0,0,1-.32,1.63,3.55,3.55,0,0,1-.85-1.57,3.17,3.17,0,0,1,.11-1.89,2.43,2.43,0,0,1,1.46-1.43A2.16,2.16,0,0,1,159.89,183.66Z" fill="#fd9242"/>
				</g>
			</g>
			<g>
				<polygon points="149.12 151.7 151.86 130.35 176.62 119.48 200.71 128.55 201.85 153.5 149.12 151.7" fill="#454446"/>
				<polygon points="155.36 143.83 156.4 135.26 176.62 129.12 196.84 134.79 196.84 144.61 177.19 139.61 155.36 143.83" fill="#fff700"/>
				<path d="M149.12,151.7s2.74-8,27-8.22c22.16.66,25.75,10,25.75,10l-.85,7c-18.55-8.56-35.67-10.37-50.74-2.55Z" fill="#888b8e"/>
			</g>
		</g>
		<g>
			<polygon points="147.94 225.78 147.94 209.91 197.55 209.91 197.55 223.51 147.94 225.78" fill="#22a65b"/>
			<path d="M209.17,223.37c-41.24-13.18-70,.71-70,.71-2.91,34.56-4.81,65.61-5,90.71a484.39,484.39,0,0,0,5.53,62.08l-14.6,12.19h31.66c1.93-12.5,3.12-28.13,3.78-46l22.58.28c.84,15,2.17,30,3.21,44.6h28.54l-10.4-12.57A542.75,542.75,0,0,0,214.37,319a61.12,61.12,0,0,0,.49-8.34C214.6,283.86,212.43,254.37,209.17,223.37Z" fill="#238b4f"/>
			<ellipse cx="175.22" cy="272.91" rx="31.96" ry="43.44" fill="#22a65b"/>
			<path d="M134.19,314.79c0,1.29.09,2.57.13,3.85h80.1a62,62,0,0,0,.44-7.94c0-.91,0-1.82,0-2.73l-80.56.84C134.23,310.83,134.2,312.83,134.19,314.79Z" fill="#ddd"/>
			<path d="M175.22,316.35c7,0,13.39-3,18.64-8.16l-36.87.38C162.16,313.47,168.44,316.35,175.22,316.35Z" fill="#fff"/>
			<g>
				<path d="M169.23,217.79l3.22,115.33,6-.24-3.28-115.17Q172.09,217.67,169.23,217.79Z" fill="#1c7840"/>
				<path d="M172,316.12a22.2,22.2,0,0,0,6,.05l-2.47-86.7h-.3a24.12,24.12,0,0,0-5.64.69Z" fill="#1a8d47"/>
			</g>
			<g>
				<polygon points="177.92 225.78 177.92 233.15 171.47 231.16 171.47 228.54 177.92 225.78" fill="#3da666"/>
				<polygon points="177.92 240.8 177.92 248.17 171.47 246.19 171.47 243.57 177.92 240.8" fill="#43c678"/>
				<polygon points="178.46 256.09 178.46 263.46 172.01 261.48 172.01 258.85 178.46 256.09" fill="#43c678"/>
				<polygon points="178.46 272.21 178.46 279.58 172.01 277.59 172.01 274.97 178.46 272.21" fill="#43c678"/>
				<polygon points="178.46 287.87 178.46 295.24 172.01 293.25 172.01 290.63 178.46 287.87" fill="#43c678"/>
				<polygon points="178.46 303.6 178.46 310.97 172.01 308.99 172.01 306.37 178.46 303.6" fill="#43c678"/>
				<polygon points="178.46 319.36 178.46 326.73 172.01 324.75 172.01 322.12 178.46 319.36" fill="#3da666"/>
				<polygon points="166.58 232.79 173.17 235.49 173.17 238.89 166.58 240.09 166.58 232.79" fill="#43c678"/>
				<polygon points="166.58 248.12 173.17 250.81 173.17 254.21 166.58 255.42 166.58 248.12" fill="#43c678"/>
				<polygon points="167.25 263.72 173.84 266.41 173.84 269.81 167.25 271.02 167.25 263.72" fill="#43c678"/>
				<polygon points="168.05 279.58 174.64 282.27 174.64 285.67 168.05 286.88 168.05 279.58" fill="#43c678"/>
				<polygon points="168.05 295.24 174.64 297.93 174.64 301.33 168.05 302.54 168.05 295.24" fill="#43c678"/>
				<polygon points="169.16 311.35 175.75 314.04 175.75 317.44 169.16 318.64 169.16 311.35" fill="#3da666"/>
				<path d="M169.15,315.55a23.74,23.74,0,0,0,6.07.8l.53,0V314l-6.6-2.69Z" fill="#43c678"/>
				<path d="M177.92,229.63a24.16,24.16,0,0,0-2.7-.17,24.53,24.53,0,0,0-3.75.31v1.4l6.45,2Z" fill="#43c678"/>
			</g>
			<polygon points="170 330.66 170 337.32 179.97 336.05 179.97 330.09 170 330.66" fill="#3da666"/>
			<polygon points="186 235.77 193.51 245.84 201.09 235.77 186 235.77" fill="#fff700"/>
			<path d="M135.16,330.87c-.1,0-.2,0-.3,0,.66,11.47,1.71,22.52,3.08,33.23H138c7.05-.61,12.14-8.54,11.35-17.73S142.22,330.26,135.16,330.87Z" fill="#22a65b"/>
			<path d="M207,363.71l.1,0q3.22-15.63,5.69-32.71c-6.18-.13-12.28,5.41-14.25,13.42C196.29,353.39,200.08,362,207,363.71Z" fill="#22a65b"/>
			<path d="M156.78,389.06c.77-5,1.42-10.51,2-16.45l-19.62.25c.2,1.34.39,2.68.59,4l-14.6,12.19Z" fill="#342f30"/>
			<path d="M185.17,372.26c.41,5.26.81,10.49,1.18,15.66h28.54l-10.4-12.57c.26-1.1.51-2.23.76-3.35Z" fill="#342f30"/>
		</g>
	</g>
	<style>
		#wigl-money1 {
			-webkit-transform-origin: 150px -50px;
			    -ms-transform-origin: 150px -50px;
			        transform-origin: 150px -50px;
			-webkit-animation: wigleMoney 2s ease-in-out 0s infinite alternate;
			        animation: wigleMoney 2s ease-in-out 0s infinite alternate;
		}
		#wigl-money1-gr {
			-webkit-animation: moveMoney 10s linear 0s infinite, showMoney 10s linear 0s infinite;
			        animation: moveMoney 10s linear 0s infinite, showMoney 10s linear 0s infinite;
		}

		#wigl-money2 {
			-webkit-transform-origin: 210px -50px;
			    -ms-transform-origin: 210px -50px;
			        transform-origin: 210px -50px;
			-webkit-animation: wigleMoney2 2s ease-in-out -3s infinite alternate;
			        animation: wigleMoney2 2s ease-in-out -3s infinite alternate;
		}
		#wigl-money2-gr {
			-webkit-animation: moveMoney 10s linear -3s infinite, showMoney 10s linear -3s infinite;
			        animation: moveMoney 10s linear -3s infinite, showMoney 10s linear -3s infinite;
		}

		#wigl-money3 {
			-webkit-transform-origin: 210px -50px;
			    -ms-transform-origin: 210px -50px;
			        transform-origin: 210px -50px;
			-webkit-animation: wigleMoney2 2s ease-in-out -6s infinite alternate;
			        animation: wigleMoney2 2s ease-in-out -6s infinite alternate;
		}
		#wigl-money3-gr {
			-webkit-animation: moveMoney 10s linear -6s infinite, showMoney 10s linear -6s infinite;
			        animation: moveMoney 10s linear -6s infinite, showMoney 10s linear -6s infinite;
		}

		#driver3 #d3-left-hand {
			-webkit-transform-origin: 207.5px 236.5px;
			    -ms-transform-origin: 207.5px 236.5px;
			        transform-origin: 207.5px 236.5px;
			-webkit-transform: rotate(15deg);
			    -ms-transform: rotate(15deg);
			        transform: rotate(15deg);
			-webkit-animation: d2MoveHand 2s ease-in-out 0s forwards infinite alternate;
			        animation: d2MoveHand 2s ease-in-out 0s forwards infinite alternate;
		}

		#driver3 #d3-right-hand {
			-webkit-transform-origin: 148px 231px;
			    -ms-transform-origin: 148px 231px;
			        transform-origin: 148px 231px;
			-webkit-transform: rotate(-15deg);
			    -ms-transform: rotate(-15deg);
			        transform: rotate(-15deg);
			-webkit-animation: d2MoveHand 2s ease-in-out 0s forwards infinite alternate;
			        animation: d2MoveHand 2s ease-in-out 0s forwards infinite alternate;
		}

		@-webkit-keyframes d2MoveHand {
			50%, 100% {
				-webkit-transform: rotate(0deg);
				        transform: rotate(0deg);
			}
		}

		@keyframes d2MoveHand {
			50%, 100% {
				-webkit-transform: rotate(0deg);
				        transform: rotate(0deg);
			}
		}

		@-webkit-keyframes wigleMoney {
			to {
				-webkit-transform: rotate(50deg) translate(-50px, 0px);
				        transform: rotate(50deg) translate(-50px, 0px);
			}
		}

		@keyframes wigleMoney {
			to {
				-webkit-transform: rotate(50deg) translate(-50px, 0px);
				        transform: rotate(50deg) translate(-50px, 0px);
			}
		}

		@-webkit-keyframes wigleMoney2 {
			to {
				-webkit-transform: rotate(90deg);
				        transform: rotate(90deg);
			}
		}

		@keyframes wigleMoney2 {
			to {
				-webkit-transform: rotate(90deg);
				        transform: rotate(90deg);
			}
		}

		@-webkit-keyframes moveMoney {
			to {
				-webkit-transform: translate(0px, 300px);
				        transform: translate(0px, 300px);
			}
		}

		@keyframes moveMoney {
			to {
				-webkit-transform: translate(0px, 300px);
				        transform: translate(0px, 300px);
			}
		}

		@-webkit-keyframes showMoney {
			0%, 100% {
				opacity: 0;
			}
			10%, 90% {
				opacity: 1;
			}
		}

		@keyframes showMoney {
			0%, 100% {
				opacity: 0;
			}
			10%, 90% {
				opacity: 1;
			}
		}
	</style>
</svg>
