<svg version="1.1" id="justvenue-animation" xmlns="http://www.w3.org/2000/svg" xmlns:xlink="http://www.w3.org/1999/xlink"
	 x="0px" y="0px" viewBox="-500 0 1800 1080" enable-background="new 0 0 800 1080" xml:space="preserve">
<rect id="bg" x="-500" y="0" fill="#000000" width="1800" height="1080"/>
<g id="fly-obg">
	<g id="balloons">
		<path id="rope-blue2" fill-opacity="0" stroke="#FFFFFF" stroke-width="5" d="M210.3,342.5l92.9,482.9"/>
		<path id="bal-blue2" fill="#52DDC2" d="M336.4,217.4c0.2-96-70.7-174-158.3-174.2C90.4,43,19.1,120.6,18.9,216.6
			s70.7,174,158.3,174.2c13.4,0,26.5-1.8,38.9-5.2l-5.6,18.8c-0.4,1.4-0.1,2.9,0.9,4c0.8,0.9,2,1.4,3.2,1.4c0.2,0,0.4,0,0.6,0
			l22.4-3.5c1.6-0.2,2.9-1.3,3.4-2.8c0.5-1.5,0.1-3.2-1-4.3l-15.8-16C289,361.4,336.2,295.5,336.4,217.4z"/>
		<path id="rope-blue1" fill-opacity="0" stroke="#FFFFFF" stroke-width="5" d="M436.7,541.7L303.3,825.4"/>
		<path id="bal-blue1" fill="#52DDC2" d="M497.7,246.5c-88.8-0.2-160.9,71.6-161.2,160.4c-0.2,62.3,35.1,116.4,86.8,143.2l-11.7,6
			c-1.4,0.7-2.3,2.2-2.3,3.8c0,1.6,1,3.1,2.5,3.7l20.3,9.2c0.6,0.2,1.1,0.4,1.7,0.4c0.9,0,1.8-0.3,2.6-0.9c1.2-0.9,1.8-2.5,1.6-4
			l-1.9-12.3c18.7,7.7,39.2,12,60.7,12c88.8,0.2,160.9-71.6,161.2-160.4C658.3,318.9,586.5,246.7,497.7,246.5z"/>
		<path id="rope-red2" fill-opacity="0" stroke="#FFFFFF" stroke-width="5" d="M303.3,825.4L559.1,337"/>
		<path id="bal-red2" fill="#E72679" d="M566.4,72.7c-88.8-0.2-160.9,71.6-161.2,160.4c-0.2,75.2,51.3,138.5,121.1,156.2
			c-0.1,0.1-0.3,0.2-0.4,0.3l-15.5,16.1c-1.1,1.1-1.4,2.7-1,4.1c0.4,1.5,1.6,2.6,3.1,2.9l20.9,4.6c0.3,0.1,0.6,0.1,0.9,0.1
			c1.1,0,2.2-0.5,3.1-1.3c1-1.1,1.4-2.6,1-4l-5.5-20.6c-0.1-0.2-0.2-0.5-0.3-0.7c10.6,2.2,21.6,3.4,32.9,3.4
			c88.8,0.2,160.9-71.6,161.2-160.4S655.2,72.9,566.4,72.7z"/>
		<path id="rope-darkblue2" fill-opacity="0" stroke="#FFFFFF" stroke-width="5" d="M303.3,825.4L421.5,337"/>
		<path id="bal-darkblue2" fill="#AD3EC2" d="M428.1,49.9c-88.8-0.2-160.9,71.6-161.2,160.4c-0.2,83.3,63.1,152,144.3,160.3
			c-0.5,0.2-1,0.5-1.4,0.9l-15.5,14.7c-1.2,1.1-1.6,2.7-1.1,4.3c0.5,1.5,1.7,2.7,3.3,2.9l25.9,4.6c0.2,0,0.5,0.1,0.7,0.1
			c1.3,0,2.6-0.6,3.4-1.7c0.9-1.3,1.1-3,0.3-4.5l-10.4-19.2c-0.4-0.7-0.9-1.2-1.6-1.6c4.1,0.3,8.3,0.5,12.4,0.5
			c88.8,0.2,160.9-71.6,161.2-160.4S516.9,50.1,428.1,49.9z"/>
		<path id="rope-darkblue1" fill-opacity="0" stroke="#FFFFFF" stroke-width="5" d="M191.3,505.9l112,319.5"/>
		<path id="bal-darkblue1" fill="#EECB2D" d="M353.7,383.4c0.2-88.8-71.6-160.9-160.4-161.2C104.5,222,32.4,293.8,32.2,382.6
			s71.6,160.9,160.4,161.2c2.2,0,4.4,0,6.6-0.1l-6.4,15.5c-0.6,1.5-0.3,3.2,0.7,4.4c0.8,0.9,2,1.4,3.2,1.4c0.4,0,0.7,0,1.1-0.1
			l21.7-5.6c1.5-0.4,2.6-1.5,3-3c0.4-1.5-0.1-3.1-1.2-4.1l-9.9-9.5C291.3,533.5,353.5,465.8,353.7,383.4z"/>
		<path id="rope-red1" fill-opacity="0" stroke="#FFFFFF" stroke-width="5" d="M303.3,825.4L326,513.2"/>
		<path id="bal-red1" fill="#E72679" d="M491.3,362.7c0.2-96-70.7-174-158.3-174.2S174,266,173.8,361.9
			c-0.2,91.9,64.8,167.4,147.4,173.7c-0.3,0.3-0.6,0.6-0.8,1l-10.5,18c-0.8,1.4-0.8,3,0.1,4.4c0.8,1.2,2.1,2,3.5,2c0.1,0,0.2,0,0.4,0
			l19.9-1.6c1.4-0.1,2.7-1,3.4-2.2c0.7-1.3,0.6-2.8-0.1-4.1l-9.4-16.4c-0.1-0.3-0.3-0.5-0.5-0.7c1.7,0.1,3.3,0.1,5,0.1
			C419.8,536.3,491.1,458.7,491.3,362.7z"/>
	</g>
	<g id="logo-obg">
			<path fill="#EECB2D" d="M199.5,894.6v69.2h0c0,19.8,8.3,37.6,21.7,50.2c12.4,11.7,29.1,18.9,47.5,18.9l21.8-30.1L278,879.1
			L199.5,894.6z"/>
			<path fill="#52DDC2" d="M268.7,825.4c-38.2,0-69.2,31-69.2,69.2h69.2h100.7l-31.6-69.2H268.7z"/>
			<path fill="#E92579" d="M337.8,963.7h-69.2v69.2h69.2h0c22,0,41.7-10.3,54.3-26.4c9.3-11.8,14.8-26.6,14.8-42.8l-28.7-31.7
				L337.8,963.7z"/>
			<path fill="#AD3EC2" d="M337.8,825.4L337.8,825.4l0,69.2v69.2H407v-69.2C407,856.4,376,825.4,337.8,825.4z"/>
			<path fill="#FFFFFF" d="M350,868.7L350,868.7L350,868.7c-25.9-25.9-67.8-25.9-93.6,0l0,0l0,0l0,0c-25.9,25.9-25.9,67.8,0,93.6l0,0
				l46.8,46.8l46.8-46.8l0,0v0C375.9,936.5,375.9,894.6,350,868.7z"/>
			<path fill="#E72679" d="M327.7,893L327.7,893c-13.5-13.5-35.4-13.5-48.9,0v0l0,0c-13.5,13.5-13.5,35.4,0,48.9
				c13.5,13.5,35.4,13.5,48.9,0l0,0C341.2,928.4,341.2,906.5,327.7,893z"/>
	</g>
</g>
<style>
	#justvenue-animation {
		overflow: visible;
	}

	#justvenue-animation #balloons #bal-red1 {
		-webkit-transform: translate(30px, 10px);
		    -ms-transform: translate(30px, 10px);
		        transform: translate(30px, 10px);
		-webkit-animation: moveHome 1s ease-in-out 0s infinite alternate;
		        animation: moveHome 1s ease-in-out 0s infinite alternate;
	}
	#justvenue-animation #balloons #rope-red1 {
		-webkit-transform-origin: 303.28px 825.41px;
		    -ms-transform-origin: 303.28px 825.41px;
		        transform-origin: 303.28px 825.41px;
		-webkit-transform: rotate(6.5deg);
		    -ms-transform: rotate(6.5deg);
		        transform: rotate(6.5deg);
		-webkit-animation: moveHome 1s ease-in-out 0s infinite alternate;
		        animation: moveHome 1s ease-in-out 0s infinite alternate;
	}
	#justvenue-animation #balloons #bal-red2 {
		-webkit-transform: translate(40px, -10px);
		    -ms-transform: translate(40px, -10px);
		        transform: translate(40px, -10px);
		-webkit-animation: moveHome 1s ease-in-out -0.4s infinite alternate;
		        animation: moveHome 1s ease-in-out -0.4s infinite alternate;
	}
	#justvenue-animation #balloons #rope-red2 {
		-webkit-transform-origin: 303.28px 825.41px;
		    -ms-transform-origin: 303.28px 825.41px;
		        transform-origin: 303.28px 825.41px;
		-webkit-transform: rotate(3.5deg);
		    -ms-transform: rotate(3.5deg);
		        transform: rotate(3.5deg);
		-webkit-animation: moveHome 1s ease-in-out -0.4s infinite alternate;
		        animation: moveHome 1s ease-in-out -0.4s infinite alternate;
	}
	#justvenue-animation #balloons #bal-darkblue1 {
		-webkit-transform: translate(30px, 0px);
		    -ms-transform: translate(30px, 0px);
		        transform: translate(30px, 0px);
		-webkit-animation: moveHome 1s ease-in-out -0.8s infinite alternate;
		        animation: moveHome 1s ease-in-out -0.8s infinite alternate;
	}
	#justvenue-animation #balloons #rope-darkblue1 {
		-webkit-transform-origin: 303.28px 825.41px;
		    -ms-transform-origin: 303.28px 825.41px;
		        transform-origin: 303.28px 825.41px;
		-webkit-transform: rotate(6deg);
		    -ms-transform: rotate(6deg);
		        transform: rotate(6deg);
		-webkit-animation: moveHome 1s ease-in-out -0.8s infinite alternate;
		        animation: moveHome 1s ease-in-out -0.8s infinite alternate;
	}
	#justvenue-animation #balloons #bal-darkblue2 {
		-webkit-transform: translate(50px, 0px);
		    -ms-transform: translate(50px, 0px);
		        transform: translate(50px, 0px);
		-webkit-animation: moveHome 1s ease-in-out -0.6s infinite alternate;
		        animation: moveHome 1s ease-in-out -0.6s infinite alternate;
	}
	#justvenue-animation #balloons #rope-darkblue2 {
		-webkit-transform-origin: 303.28px 825.41px;
		    -ms-transform-origin: 303.28px 825.41px;
		        transform-origin: 303.28px 825.41px;
		-webkit-transform: rotate(6deg);
		    -ms-transform: rotate(6deg);
		        transform: rotate(6deg);
		-webkit-animation: moveHome 1s ease-in-out -0.6s infinite alternate;
		        animation: moveHome 1s ease-in-out -0.6s infinite alternate;
	}
	#justvenue-animation #balloons #bal-blue1 {
		-webkit-transform: translate(30px, 0px);
		    -ms-transform: translate(30px, 0px);
		        transform: translate(30px, 0px);
		-webkit-animation: moveHome 1s ease-in-out -1s infinite alternate;
		        animation: moveHome 1s ease-in-out -1s infinite alternate;
	}
	#justvenue-animation #balloons #rope-blue1 {
		-webkit-transform-origin: 303.28px 825.41px;
		    -ms-transform-origin: 303.28px 825.41px;
		        transform-origin: 303.28px 825.41px;
		-webkit-transform: rotate(5deg);
		    -ms-transform: rotate(5deg);
		        transform: rotate(5deg);
		-webkit-animation: moveHome 1s ease-in-out -1s infinite alternate;
		        animation: moveHome 1s ease-in-out -1s infinite alternate;
	}
	#justvenue-animation #balloons #bal-blue2 {
		-webkit-transform: translate(50px, 0px);
		    -ms-transform: translate(50px, 0px);
		        transform: translate(50px, 0px);
		-webkit-animation: moveHome 1s ease-in-out -0.2s infinite alternate;
		        animation: moveHome 1s ease-in-out -0.2s infinite alternate;
	}
	#justvenue-animation #balloons #rope-blue2 {
		-webkit-transform-origin: 303.28px 825.41px;
		    -ms-transform-origin: 303.28px 825.41px;
		        transform-origin: 303.28px 825.41px;
		-webkit-transform: rotate(7deg);
		    -ms-transform: rotate(7deg);
		        transform: rotate(7deg);
		-webkit-animation: moveHome 1s ease-in-out -0.2s infinite alternate;
		        animation: moveHome 1s ease-in-out -0.2s infinite alternate;
	}

	#justvenue-animation #fly-obg {
		-webkit-transform-origin: 400px, 1080px;
		    -ms-transform-origin: 400px, 1080px;
		        transform-origin: 400px, 1080px;
		-webkit-transform: translate(10px, -20px) rotate(-2deg);
		    -ms-transform: translate(10px, -20px) rotate(-2deg);
		        transform: translate(10px, -20px) rotate(-2deg);
		-webkit-animation: moveBallons 3s ease-in-out 0s infinite alternate;
		        animation: moveBallons 3s ease-in-out 0s infinite alternate;
	}

	#justvenue-animation #logo-obg {
		-webkit-transform-origin: 303.28px 825.41px;
		    -ms-transform-origin: 303.28px 825.41px;
		        transform-origin: 303.28px 825.41px;
		-webkit-transform: rotate(-1deg);
		    -ms-transform: rotate(-1deg);
		        transform: rotate(-1deg);
		-webkit-animation: moveLogo 3s ease-in-out 0s infinite alternate;
		        animation: moveLogo 3s ease-in-out 0s infinite alternate;
	}



	@-webkit-keyframes moveHome {
		to {
			-webkit-transform: translate(0px, 0px) rotate(0deg);
			        transform: translate(0px, 0px) rotate(0deg);
		}
	}



	@keyframes moveHome {
		to {
			-webkit-transform: translate(0px, 0px) rotate(0deg);
			        transform: translate(0px, 0px) rotate(0deg);
		}
	}

	@-webkit-keyframes moveBallons {
		to {
			-webkit-transform: translate(40px, 20px) rotate(2deg);
			        transform: translate(40px, 20px) rotate(2deg);
		}
	}

	@keyframes moveBallons {
		to {
			-webkit-transform: translate(40px, 20px) rotate(2deg);
			        transform: translate(40px, 20px) rotate(2deg);
		}
	}

	@-webkit-keyframes moveLogo {
		to {
			-webkit-transform: rotate(3deg);
			        transform: rotate(3deg);
		}
	}

	@keyframes moveLogo {
		to {
			-webkit-transform: rotate(3deg);
			        transform: rotate(3deg);
		}
	}
	
</style>
</svg>