<svg xmlns="http://www.w3.org/2000/svg" viewBox="0 0 448 228">
	<g id="geer-icon1" opacity="0.3">
		<path d="M426.8,17.73h0l-3.08-.53a1.49,1.49,0,0,1-1.19-1,16.76,16.76,0,0,0-1.12-2.69,1.52,1.52,0,0,1,.11-1.59l1.82-2.54a1.37,1.37,0,0,0-.15-1.77l-2.8-2.8a1.34,1.34,0,0,0-1-.41,1.31,1.31,0,0,0-.79.26l-2.56,1.82a1.52,1.52,0,0,1-1.58.11,16.08,16.08,0,0,0-2.8-1.16,1.49,1.49,0,0,1-1.05-1.19l-.51-3.05A1.39,1.39,0,0,0,408.76,0h-3.95a1.37,1.37,0,0,0-1.36,1.15l-.53,3.13a1.5,1.5,0,0,1-1,1.18A16.59,16.59,0,0,0,399.2,6.6a1.52,1.52,0,0,1-1.6-.11l-2.52-1.82a1.38,1.38,0,0,0-.8-.25,1.31,1.31,0,0,0-1,.4h0l-2.81,2.8a1.37,1.37,0,0,0-.14,1.77L392.19,12a1.51,1.51,0,0,1,.11,1.57,16.9,16.9,0,0,0-1.1,2.71,1.51,1.51,0,0,1-1.19,1l-3.05.51a1.37,1.37,0,0,0-1.15,1.36v3.95A1.37,1.37,0,0,0,387,24.49l3.13.54a1.48,1.48,0,0,1,1.18,1,16.7,16.7,0,0,0,1.14,2.69,1.5,1.5,0,0,1-.11,1.59l-1.81,2.52a1.36,1.36,0,0,0,.15,1.76l2.8,2.8a1.36,1.36,0,0,0,1,.41,1.34,1.34,0,0,0,.78-.25l2.59-1.84a1.49,1.49,0,0,1,.88-.28,1.44,1.44,0,0,1,.69.17A16.14,16.14,0,0,0,402,36.7a1.5,1.5,0,0,1,1,1.2l.52,3.08a1.38,1.38,0,0,0,1.36,1.15h4A1.38,1.38,0,0,0,410.21,41l.52-3.09a1.53,1.53,0,0,1,1-1.19,15.66,15.66,0,0,0,2.7-1.12,1.54,1.54,0,0,1,1.59.11l2.54,1.82a1.31,1.31,0,0,0,.8.25,1.37,1.37,0,0,0,1-.4l2.8-2.8a1.39,1.39,0,0,0,.15-1.78l-1.82-2.55a1.51,1.51,0,0,1-.11-1.57,16.62,16.62,0,0,0,1.12-2.7,1.52,1.52,0,0,1,1.19-1.05l3.09-.51A1.38,1.38,0,0,0,427.94,23v-4A1.34,1.34,0,0,0,426.8,17.73ZM406.87,28.8a7.74,7.74,0,1,1,7.74-7.74A7.74,7.74,0,0,1,406.87,28.8Z" fill="#989898"/>
		<path d="M406.87,42.13h2A1.38,1.38,0,0,0,410.21,41l.52-3.09a1.53,1.53,0,0,1,1-1.19,15.66,15.66,0,0,0,2.7-1.12,1.54,1.54,0,0,1,1.59.11l2.54,1.82a1.31,1.31,0,0,0,.8.25,1.37,1.37,0,0,0,1-.4l2.8-2.8a1.39,1.39,0,0,0,.15-1.78l-1.82-2.55a1.51,1.51,0,0,1-.11-1.57,16.62,16.62,0,0,0,1.12-2.7,1.52,1.52,0,0,1,1.19-1.05l3.09-.51A1.38,1.38,0,0,0,427.94,23v-4a1.34,1.34,0,0,0-1.14-1.34h0l-3.08-.53a1.49,1.49,0,0,1-1.19-1,16.76,16.76,0,0,0-1.12-2.69,1.52,1.52,0,0,1,.11-1.59l1.82-2.54a1.37,1.37,0,0,0-.15-1.77l-2.8-2.8a1.34,1.34,0,0,0-1-.41,1.31,1.31,0,0,0-.79.26l-2.56,1.82a1.52,1.52,0,0,1-1.58.11,16.08,16.08,0,0,0-2.8-1.16,1.49,1.49,0,0,1-1.05-1.19l-.51-3.05A1.39,1.39,0,0,0,408.76,0h-1.89V10.06a11,11,0,0,1,0,22Z" fill="#868686"/>
	</g>
	<g id="net-icon" opacity="0.3">
		<circle cx="308.87" cy="114.99" r="31.29" fill="none" stroke="#989898" stroke-miterlimit="10" stroke-width="3"/>
		<line x1="308.87" y1="146.28" x2="308.87" y2="83.7" fill="none" stroke="#989898" stroke-miterlimit="10" stroke-width="3"/>
		<line x1="277.58" y1="114.99" x2="340.16" y2="114.99" fill="none" stroke="#989898" stroke-miterlimit="10" stroke-width="3"/>
		<path d="M309.44,146.28c23.42,0,23.42-62.58,0-62.58S286,146.28,309.44,146.28Z" fill="none" stroke="#989898" stroke-miterlimit="10" stroke-width="3"/>
		<path d="M287.86,91.8c13.18,11.55,30.17,12.13,42,0" fill="none" stroke="#989898" stroke-miterlimit="10" stroke-width="3"/>
		<path d="M329.88,138.18c-13-12.15-30.18-12.13-42,0" fill="none" stroke="#989898" stroke-miterlimit="10" stroke-width="3"/>
	</g>
	<g id="mail-icon" opacity="0.3">
		<path d="M414.4,202.28v15.31a2.41,2.41,0,0,0,2.41,2.41h28.78a2.41,2.41,0,0,0,2.41-2.41V202.28l-15.71,8.82a2.21,2.21,0,0,1-2.17,0Z" fill="#989898"/>
		<path d="M448,197.11v-2.19a2.41,2.41,0,0,0-2.41-2.42H416.81a2.41,2.41,0,0,0-2.41,2.42v2.19l15.7,8.94a2.21,2.21,0,0,0,2.2,0Z" fill="#989898"/>
	</g>
	<g>
		<ellipse cx="90.13" cy="209.54" rx="89.37" ry="18.46" fill="#e9e8e8"/>
		<g>
			<circle cx="90.13" cy="126.43" r="89.37" fill="#ea4d3e"/>
			<circle cx="90.13" cy="126.43" r="71.92" fill="#fff"/>
			<circle cx="90.13" cy="126.43" r="54.06" fill="#ea4d3e"/>
			<circle cx="90.13" cy="126.43" r="36.2" fill="#fff"/>
			<circle cx="90.13" cy="126.43" r="18.06" fill="#ea4d3e"/>
		</g>
		<g id="arrow-p7">
			<path d="M165.3,49.92c-1.28-8.46-.42-33.78,14.61-42.09s19,7.78,19,7.78Z" fill="#36b76f"/>
			<path d="M165.3,49.92c8.46,1.28,33.28.11,41.6-14.92s-8-19.39-8-19.39Z" fill="#1e9c56"/>
			<line x1="88.35" y1="128.39" x2="207.78" y2="6.6" fill="none" stroke="#32475b" stroke-linecap="round" stroke-miterlimit="10" stroke-width="5"/>
		</g>
	</g>
	<style>
		#geer-icon1 {
			-webkit-transform-origin: 406.87px 21.06px;
			    -ms-transform-origin: 406.87px 21.06px;
			        transform-origin: 406.87px 21.06px;
			-webkit-transform: rotate(-360deg);
			    -ms-transform: rotate(-360deg);
			        transform: rotate(-360deg);
			-webkit-animation: rotateGear 10s linear 0s infinite;
			        animation: rotateGear 10s linear 0s infinite;
		}

		#mail-icon {
			-webkit-transform: translate(0px, -10px);
			    -ms-transform: translate(0px, -10px);
			        transform: translate(0px, -10px);
			-webkit-animation: moveIcon 2s ease-in-out 0s infinite alternate;
			        animation: moveIcon 2s ease-in-out 0s infinite alternate;
		}

		@-webkit-keyframes rotateGear {
			to {
				-webkit-transform: rotate(0deg);
				        transform: rotate(0deg);
			}
		}

		@keyframes rotateGear {
			to {
				-webkit-transform: rotate(0deg);
				        transform: rotate(0deg);
			}
		}

		@-webkit-keyframes moveIcon {
			to {
				-webkit-transform: translate(0px, 0px);
				        transform: translate(0px, 0px);
			}
		}

		@keyframes moveIcon {
			to {
				-webkit-transform: translate(0px, 0px);
				        transform: translate(0px, 0px);
			}
		}
	</style>
</svg>
