<svg xmlns="http://www.w3.org/2000/svg" xmlns:xlink="http://www.w3.org/1999/xlink" viewBox="0 0 538 420">
  <defs>
    <linearGradient id="linear-gradient-driver2" x1="112.76" y1="172.35" x2="112.76" y2="146.07" gradientUnits="userSpaceOnUse">
      <stop offset="0" stop-color="#fe7537"/>
      <stop offset="0.89" stop-color="#ffbd35"/>
    </linearGradient>
  </defs>
  <path id="etap-line3" d="M208,192.51s98.65-75.78,149.67-96.19,87.31,4.54,54.05,74.46c-28.35,69.17-48,108.47,2.26,125.48,54.81,14.74,104.51-10.77,104.51-10.77" fill="none" stroke="#7a8d8e" stroke-miterlimit="10" stroke-width="4" stroke-dasharray="16 8" opacity="0.5"/>
  <g>
    <ellipse cx="120.46" cy="402.24" rx="85.04" ry="17.76" opacity="0.1"/>
    <g id="d2-head">
      <path d="M141.44,146.09V129.3l-16.72-5.1-35.93,6.73a175.49,175.49,0,0,0,.69,18,5.45,5.45,0,0,0-2.94-.87,6.35,6.35,0,0,0,0,12.65,5.51,5.51,0,0,0,3.35-1.14l1.66,43.24,24.57,10.13L142,202.86l-.57-45.54Z" fill="#ffbd35"/>
      <path d="M141.82,188.05l.19,14.81-25.89,10.06L91.55,202.79,91,189.33C107.16,195.53,124.05,195.49,141.82,188.05Z" fill="#ffa338"/>
      <path d="M89,132.21v7s-16.54-10.58-11.81-35c0,0,12.47,13,21.35,14.74V110l10.59,8.6,39.49.95s6.85,24.68-7.53,43.18v-32.6Z" fill="#8d4a26"/>
      <path d="M149.9,127c.92,8.73.67,23.6-8.81,35.79v-32.6L89,132.21v7S79.32,133,76.89,119.16C95.36,128.34,118.57,132.19,149.9,127Z" fill="#723b07"/>
      <circle cx="143.92" cy="151.48" r="6.17" fill="#ffbd35"/>
      <g id="d2-eyebrowns">
        <path d="M91.15,145H106a8.62,8.62,0,0,0-14.84,0Z" fill="#723b07"/>
        <path d="M119.88,145h17.83a11.51,11.51,0,0,0-17.83,0Z" fill="#723b07"/>
      </g>
      <g id="d2-eyes">
        <path d="M92.41,154.66a5.48,5.48,0,0,1,10.54-.24" fill="none" stroke="#8d4a26" stroke-linecap="round" stroke-miterlimit="10" stroke-width="3"/>
        <path d="M122.84,154.1a5.48,5.48,0,0,1,10.54-.24" fill="none" stroke="#8d4a26" stroke-linecap="round" stroke-miterlimit="10" stroke-width="3"/>
      </g>
      <path d="M87.08,155.4a.74.74,0,0,0-.08-.16,1.88,1.88,0,0,0-.43-.46,1.79,1.79,0,0,1-.17-2.4,1.08,1.08,0,0,0-.48-2.06,2.1,2.1,0,0,0-.87.38c-2.24,1.57-2.6,3.68-1.38,6.25h0a1.88,1.88,0,0,0,3.63-.69A1.8,1.8,0,0,0,87.08,155.4Z" fill="#ff9239"/>
      <path d="M144.12,152.61a.43.43,0,0,1,.09-.15,1.84,1.84,0,0,1,.42-.46,1.78,1.78,0,0,0,.17-2.4,1.08,1.08,0,0,1,.48-2.06,2.17,2.17,0,0,1,.88.38c2.23,1.57,2.59,3.68,1.37,6.24h0a1.88,1.88,0,0,1-3.63-.68A1.93,1.93,0,0,1,144.12,152.61Z" fill="#ff9239"/>
      <ellipse cx="97.6" cy="162.84" rx="4.3" ry="2.41" fill="#ffa338"/>
      <ellipse cx="128.11" cy="162.32" rx="4.3" ry="2.41" fill="#ffa338"/>
      <ellipse cx="113.04" cy="177.57" rx="8.6" ry="4.36" fill="#feffff"/>
      <path d="M103.31,179.14l5.3-5.93,8.1.26,7.55,5.63s-6.58,2.64-10.65-1.94a1.21,1.21,0,0,0-1.93.11c-2.74,4.25-8.37,2.06-8.37,2.06" fill="#b7b5b5"/>
      <path d="M117.91,159.91c2.91.5,4.4.64,6.31,7.3s8.5,5.74,8.5,5.74-6.94,12.48-18.92,2.13a1.89,1.89,0,0,0-2.76.21c-11.2,12.26-17.74-1.91-17.74-1.91a7.54,7.54,0,0,0,8.6-4.75c2.55-6.16,6.09-5.79,6.09-5.79Z" fill="#723b07"/>
      <path d="M106,147.3s-5.42,25.61,4,25,11-18.38,11.1-26.27Z" fill="url(#linear-gradient-driver2)"/>
    </g>
    <g>
      <g>
        <path d="M73.13,225.75,17.35,270.18H.35A54.85,54.85,0,0,1,0,264c0-29.82,27.39-54,54-54a53.92,53.92,0,0,1,21.69,4.53C78.7,217.25,73.13,225.75,73.13,225.75Z" fill="#00a855"/>
        <path d="M59.8,215.19v-4.87A52.86,52.86,0,0,0,54,210a44.11,44.11,0,0,0-5.73.38Z" fill="#fff700"/>
      </g>
      <g>
        <polygon points="141.65 212.21 143.57 198.11 120.32 197.4 116.35 204.28 109.62 196.41 88.08 196.41 90.13 212.21 141.65 212.21" fill="#00a855"/>
        <path d="M159.3,395.76c3.26-62.57,4.11-124-.14-183.12-50.18-15.88-85.33,1.13-85.33,1.13C75.29,278,78.74,338.92,85,395.12l-11.2,9.61h28.4l-.85-42.61,39.21-.66-.28,43.27,25.51.76Z" fill="#008c4a"/>
        <ellipse cx="116.9" cy="272.07" rx="38.2" ry="58.2" fill="#00a855"/>
        <path d="M140.41,389l-.1,15.72,25.51.76-6.52-9.73c.14-2.63.26-5.26.39-7.89Z" fill="#352c2f"/>
        <path d="M85,395.12l-11.2,9.61h28.4l-.32-16c-5.68-.09-12.71-.21-17.6-.27C84.55,390.66,84.78,392.9,85,395.12Z" fill="#352c2f"/>
        <path d="M160.15,339.16c-8.08,0-14.64,10.4-14.64,23.24,0,12.65,6.37,22.93,14.29,23.23q1.13-23.29,1.72-46.37A10.27,10.27,0,0,0,160.15,339.16Z" fill="#00a855"/>
        <path d="M83.88,384.49c6.92-1.7,12.2-10.44,12.2-21,0-11.76-6.56-21.3-14.64-21.3a9.23,9.23,0,0,0-1.4.11Q81.74,363.78,83.88,384.49Z" fill="#00a855"/>
        <path d="M78.52,321.49q.47,6.84,1,13.61h82.13q.15-6.83.25-13.61Z" fill="#dedede"/>
        <path d="M116.9,330.28c7.41,0,14.33-3.23,20.18-8.79H96.72C102.58,327.05,109.49,330.28,116.9,330.28Z" fill="#feffff"/>
        <path d="M162.05,300.38q0-8.53-.09-17c-3.63.47-6.46,4.09-6.46,8.5S158.37,300,162.05,300.38Z" fill="#016039"/>
        <polygon points="130.86 234.36 147.49 234.22 139.17 247.76 130.86 234.36" fill="#fff700"/>
      </g>
      <g>
        <path d="M166.86,271a8.76,8.76,0,0,0-9.4,3.24c-3.57,4.88-4.59,17.14,8.13,18.6a.61.61,0,0,0,.6-.92,39.07,39.07,0,0,1-2.57-4.25c.25,0,5.64,3.69,6.42,3.3.59-.3-.73-3.56-1.39-5.09a.73.73,0,0,1,.49-1c2.2-.53,7.93-1.95,8.32-2.48S166.86,271,166.86,271Z" fill="#444548"/>
        <path d="M160.75,212.2a3.2,3.2,0,0,0-2.83,1.79c-2,4-5.8,14.71,4,24.16,12.38,11.91,17.2,17.2,17.2,17.2l-14.93,14.26,11.15,13.71s23.48-8.74,24-33.55C200,226.23,173.47,212,160.75,212.2Z" fill="#00a855"/>
        <path d="M171,221.9l12.56,2.74L182,219.83a50.91,50.91,0,0,0-5.68-3.33Z" fill="#fff700"/>
        <path d="M191.17,228l-20.23,19c3.2,3.18,5.38,5.43,6.68,6.79l19.75-15.53A35.23,35.23,0,0,0,191.17,228Z" fill="#feffff"/>
        <path d="M199.41,249.77c0-.42,0-.83,0-1.25l-30,27.5,5.94,7.3S198.84,274.58,199.41,249.77Z" fill="#008c4a"/>
      </g>
      <g>
        <path d="M112,206l4.16,143.45,6.85-.52c-3-50.44-3.64-97.77-3.77-143C116.7,205.86,114.28,205.87,112,206Z" fill="#00793a"/>
        <path d="M112.2,214.32l3.36,115.9c.45,0,.89.06,1.34.06a25.65,25.65,0,0,0,5-.52c-2-40.39-2.55-78.8-2.71-115.78-.77-.07-1.54-.11-2.33-.11A25.38,25.38,0,0,0,112.2,214.32Z" fill="#008e40"/>
        <polygon points="115.26 229.29 122.52 225.75 122.52 234.22 115.26 231.88 115.26 229.29" fill="#00c774"/>
        <polygon points="115.26 246.51 122.52 242.97 122.52 251.44 115.26 249.1 115.26 246.51" fill="#00c774"/>
        <polygon points="115.89 214.13 123.16 210.58 123.16 219.05 115.89 216.71 115.89 214.13" fill="#00c774"/>
        <path d="M123.16,214.66v-4.08l-6.77,3.31.51,0A25.75,25.75,0,0,1,123.16,214.66Z" fill="#00a863"/>
        <polygon points="115.26 264.35 122.52 260.81 122.52 269.28 115.26 266.94 115.26 264.35" fill="#00c774"/>
        <polygon points="115.26 282.63 122.52 279.08 122.52 287.55 115.26 285.21 115.26 282.63" fill="#00c774"/>
        <polygon points="115.59 300.5 122.86 296.95 122.86 305.42 115.59 303.08 115.59 300.5" fill="#00c774"/>
        <polygon points="115.59 318.71 122.86 315.16 122.86 323.63 115.59 321.29 115.59 318.71" fill="#00c774"/>
        <polygon points="115.59 336.5 122.86 332.95 122.86 341.42 115.59 339.08 115.59 336.5" fill="#00a863"/>
        <polygon points="115.61 223.05 108.35 219.5 108.35 227.97 115.61 225.63 115.61 223.05" fill="#00c774"/>
        <polygon points="116.45 237.9 109.19 234.36 109.19 242.83 116.45 240.49 116.45 237.9" fill="#00c774"/>
        <polygon points="116.81 255.43 109.55 251.89 109.55 260.36 116.81 258.02 116.81 255.43" fill="#00c774"/>
        <polygon points="117.52 273.15 110.26 269.61 110.26 278.07 117.52 275.74 117.52 273.15" fill="#00c774"/>
        <polygon points="118.3 291.56 111.04 288.02 111.04 296.49 118.3 294.15 118.3 291.56" fill="#00c774"/>
        <polygon points="118.3 308.96 111.04 305.42 111.04 313.89 118.3 311.55 118.3 308.96" fill="#00c774"/>
        <polygon points="119.4 327.6 112.14 324.06 112.14 332.53 119.4 330.19 119.4 327.6" fill="#00c774"/>
        <path d="M112.14,329.81v2.72l7.26-2.34v-.05c-.83.08-1.66.14-2.5.14A25.19,25.19,0,0,1,112.14,329.81Z" fill="#00a863"/>
        <rect x="113.7" y="345.97" width="11.23" height="7.44" fill="#00a863"/>
      </g>
      <g>
        <path d="M79.3,332.46a53.83,53.83,0,0,0,34.59-50c0-24.56-16.74-45.27-39.62-51.71C75.27,265.75,76.9,299.74,79.3,332.46Z" opacity="0.3"/>
        <g>
          <ellipse cx="60.75" cy="269.61" rx="52.07" ry="52.35" fill="#f9dcbd"/>
          <path d="M109.78,287.25a52.41,52.41,0,0,0-49-70A52.21,52.21,0,0,0,8.69,269.61a52.81,52.81,0,0,0,2.18,15,68.59,68.59,0,0,0,98.91,2.62Z" fill="#ffedce"/>
          <path d="M55.55,318.51q18.15-23.46,51-37.56C99.72,306.64,81.91,318.12,55.55,318.51Z" fill="#008356"/>
          <path d="M4.58,291.06a48.38,48.38,0,0,0,27.71,8.67,48.91,48.91,0,0,0,48.77-49,49.38,49.38,0,0,0-2.45-15.41Z" fill="#33414e"/>
          <ellipse cx="39.5" cy="241.63" rx="28.04" ry="13.89" transform="translate(-139.68 74.78) rotate(-37.76)" fill="#fff4e5"/>
          <path d="M23,298.84a49.41,49.41,0,0,0,9.32.89,48.87,48.87,0,0,0,48.15-41.19C44.78,269.66,29.23,288.19,23,298.84Z" fill="#2b3945"/>
        </g>
      </g>
      <path d="M.32,269.89s12.19-1.41,15.5-.09S13.74,273,13.74,273s-5.2-.24-3.73,3.21,2.69,8.13,1.42,8.55S-2.28,280.33.32,269.89Z" fill="#444548"/>
    </g>
  </g>
  <g id="flag-full">
    <g id="flag">
      <rect x="320.58" y="33.88" width="105" height="45" fill="#daf0f1"/>
      <rect x="320.58" y="33.88" width="15" height="15"/>
      <rect x="320.58" y="63.88" width="15" height="15"/>
      <rect x="335.58" y="48.88" width="15" height="15"/>
      <rect x="320.58" y="33.88" width="15" height="15"/>
      <rect x="335.58" y="48.88" width="15" height="15"/>
      <rect x="350.58" y="63.88" width="15" height="15"/>
      <rect x="350.58" y="33.88" width="15" height="15"/>
      <rect x="365.58" y="48.88" width="15" height="15"/>
      <rect x="380.58" y="63.88" width="15" height="15"/>
      <rect x="380.58" y="33.88" width="15" height="15"/>
      <rect x="410.58" y="63.88" width="15" height="15"/>
      <rect x="410.58" y="33.88" width="15" height="15"/>
      <rect x="395.58" y="48.88" width="15" height="15"/>
    </g>
    <polygon points="315.11 159.82 320.58 159.06 320.58 33.88 317.57 33.88 315.11 159.82" fill="#6b3606"/>
  </g>
  <style>
   #etap-line3 {
      -webkit-animation: moveLine 0.75s linear 0s infinite;
              animation: moveLine 0.75s linear 0s infinite;
    }

    #flag {
      -webkit-transform-origin: 318.95px 55px;
          -ms-transform-origin: 318.95px 55px;
              transform-origin: 318.95px 55px;
      -webkit-animation: scaleFlag 2s ease-in-out -1s infinite alternate;
              animation: scaleFlag 2s ease-in-out -1s infinite alternate;
    }

    #flag-full {
      -webkit-transform-origin: 317.85px 183px;
          -ms-transform-origin: 317.85px 183px;
              transform-origin: 317.85px 183px;
      -webkit-animation: scaleFlagFull 2s ease-in-out 0s infinite alternate;
              animation: scaleFlagFull 2s ease-in-out 0s infinite alternate;
    }

    #d2-head {
      -webkit-transform: translate(0px, -1px);
          -ms-transform: translate(0px, -1px);
              transform: translate(0px, -1px);
      -webkit-animation: d2MoveHead 0.5s ease-in-out 0s infinite alternate;
              animation: d2MoveHead 0.5s ease-in-out 0s infinite alternate;
    }

    @-webkit-keyframes moveLine {
      to {
        stroke-dashoffset: -24px;
      }
    }

    @keyframes moveLine {
      to {
        stroke-dashoffset: -24px;
      }
    }

    @-webkit-keyframes scaleFlag {
      0%, 10% {
        -webkit-transform: scale(1, 1);
                transform: scale(1, 1);
      }
      90%, 100% {
        -webkit-transform: scale(-1, 1);
                transform: scale(-1, 1);
      }
    }

    @keyframes scaleFlag {
      0%, 10% {
        -webkit-transform: scale(1, 1);
                transform: scale(1, 1);
      }
      90%, 100% {
        -webkit-transform: scale(-1, 1);
                transform: scale(-1, 1);
      }
    }

    @-webkit-keyframes scaleFlagFull {
      0% {
        -webkit-transform: rotate(-40deg);
                transform: rotate(-40deg);
      }
      100% {
        -webkit-transform: rotate(40deg);
                transform: rotate(40deg);
      }
    }

    @keyframes scaleFlagFull {
      0% {
        -webkit-transform: rotate(-40deg);
                transform: rotate(-40deg);
      }
      100% {
        -webkit-transform: rotate(40deg);
                transform: rotate(40deg);
      }
    }

      @-webkit-keyframes d2MoveHead {
        to {
          -webkit-transform: translate(0px, 0px);
                  transform: translate(0px, 0px);
        }
      }

      @keyframes d2MoveHead {
        to {
          -webkit-transform: translate(0px, 0px);
                  transform: translate(0px, 0px);
        }
      }
    </style>
  </svg>
